<svg width="54" height="54" viewBox="0 0 54 54" fill-rule="evenodd" clip-rule="evenodd" xmlns="http://www.w3.org/2000/svg">
  <defs>
    <linearGradient id="backgroundgrad" x1="0%" y1="100%" x2="0%" y2="0%">
      <stop offset="0%" stop-color="#6fad46" />
      <stop offset="100%" stop-color="#ffffff" />
    </linearGradient>
    <linearGradient id="bordergrad" x1="0%" y1="100%" x2="0%" y2="0%">
      <stop offset="0%" stop-color="#375523" />
      <stop offset="100%" stop-color="#6fad46" />
    </linearGradient>
  </defs>
  <rect x="1" y="1" rx="10" ry="10" width="52" height="52" fill="url(#backgroundgrad)" stroke="url(#bordergrad)" stroke-width="2" />
  <svg x="3" y="3" width="48" height="48" viewBox="0 0 100 100">
    <path fill="#22242e" opacity="0.948" d="M 20.5,13.5 C 22.0481,13.8212 22.7148,14.8212 22.5,16.5C 27.5,16.5 32.5,16.5 37.5,16.5C 37.5,17.8333 37.5,19.1667 37.5,20.5C 32.5,20.5 27.5,20.5 22.5,20.5C 22.5,21.5 22.5,22.5 22.5,23.5C 23.5,23.5 24.5,23.5 25.5,23.5C 25.5,24.8333 25.5,26.1667 25.5,27.5C 41.8333,27.5 58.1667,27.5 74.5,27.5C 74.5,26.1667 74.5,24.8333 74.5,23.5C 75.5,23.5 76.5,23.5 77.5,23.5C 77.5,22.5 77.5,21.5 77.5,20.5C 72.5,20.5 67.5,20.5 62.5,20.5C 62.5,19.1667 62.5,17.8333 62.5,16.5C 67.5,16.5 72.5,16.5 77.5,16.5C 78.1667,12.5 78.8333,12.5 79.5,16.5C 84.5,16.5 89.5,16.5 94.5,16.5C 94.5,17.8333 94.5,19.1667 94.5,20.5C 89.5,20.5 84.5,20.5 79.5,20.5C 79.5,21.5 79.5,22.5 79.5,23.5C 80.5,23.5 81.5,23.5 82.5,23.5C 82.373,26.245 83.5397,28.245 86,29.5C 87.0037,32.9926 86.5037,36.1592 84.5,39C 79.8333,39.3333 75.1667,39.6667 70.5,40C 67.9774,40.5182 65.9774,41.8515 64.5,44C 76.6189,53.178 80.9522,65.3447 77.5,80.5C 75.8333,80.5 74.1667,80.5 72.5,80.5C 72.5,78.5 72.5,76.5 72.5,74.5C 70.1667,74.5 67.8333,74.5 65.5,74.5C 65.7892,78.1064 65.4558,81.6064 64.5,85C 54.5,85.6667 44.5,85.6667 34.5,85C 33.5442,81.6064 33.2108,78.1064 33.5,74.5C 31.1667,74.5 28.8333,74.5 26.5,74.5C 26.5,76.5 26.5,78.5 26.5,80.5C 24.8333,80.5 23.1667,80.5 21.5,80.5C 18.0478,65.3447 22.3811,53.178 34.5,44C 33.0226,41.8515 31.0226,40.5182 28.5,40C 23.8333,39.6667 19.1667,39.3333 14.5,39C 12.4963,36.1592 11.9963,32.9926 13,29.5C 14.1096,27.9632 15.6096,27.2965 17.5,27.5C 17.5,26.1667 17.5,24.8333 17.5,23.5C 18.5,23.5 19.5,23.5 20.5,23.5C 20.5,22.5 20.5,21.5 20.5,20.5C 15.5,20.5 10.5,20.5 5.5,20.5C 5.5,19.1667 5.5,17.8333 5.5,16.5C 10.5,16.5 15.5,16.5 20.5,16.5C 20.5,15.5 20.5,14.5 20.5,13.5 Z M 34.5,51.5 C 44.5056,51.3335 54.5056,51.5002 64.5,52C 69.2792,56.6704 71.9459,62.337 72.5,69C 70.1902,69.4966 67.8568,69.6633 65.5,69.5C 65.7683,66.8806 65.435,64.3806 64.5,62C 60.2586,62.2908 57.2586,60.6241 55.5,57C 51.5,56.3333 47.5,56.3333 43.5,57C 41.7414,60.6241 38.7414,62.2908 34.5,62C 33.565,64.3806 33.2317,66.8806 33.5,69.5C 31.1432,69.6633 28.8098,69.4966 26.5,69C 27.1486,62.2114 29.8153,56.378 34.5,51.5 Z"/>
    <path fill="#c4c3b6" d="M 76.5,25.5 C 77.9778,25.238 79.3112,25.5713 80.5,26.5C 79.8333,26.8333 79.1667,27.1667 78.5,27.5C 77.2867,27.2528 76.62,26.5862 76.5,25.5 Z"/>
    <path fill="#c4c3b6" d="M 19.5,25.5 C 20.9778,25.238 22.3112,25.5713 23.5,26.5C 22.8333,26.8333 22.1667,27.1667 21.5,27.5C 20.2867,27.2528 19.62,26.5862 19.5,25.5 Z"/>
    <path fill="#faf9eb" d="M 63.5,17.5 C 73.5222,17.1681 83.5222,17.5015 93.5,18.5C 88.5,18.8333 83.5,19.1667 78.5,19.5C 73.1194,19.4942 68.1194,18.8275 63.5,17.5 Z"/>
    <path fill="#faf9eb" d="M 6.5,17.5 C 16.5222,17.1681 26.5222,17.5015 36.5,18.5C 31.5,18.8333 26.5,19.1667 21.5,19.5C 16.1194,19.4942 11.1194,18.8275 6.5,17.5 Z"/>
    <path fill="#f7f6e9" d="M 16.5,29.5 C 20.1667,29.5 23.8333,29.5 27.5,29.5C 26.8307,33.6759 28.3307,35.0093 32,33.5C 32.49,32.2068 32.6567,30.8734 32.5,29.5C 44.1667,29.5 55.8333,29.5 67.5,29.5C 66.8307,33.6759 68.3307,35.0093 72,33.5C 72.49,32.2068 72.6567,30.8734 72.5,29.5C 75.8499,29.335 79.1832,29.5017 82.5,30C 85.1667,32.3333 85.1667,34.6667 82.5,37C 76.7222,37.0941 71.0555,37.7608 65.5,39C 62.1295,41.6973 60.7962,45.1973 61.5,49.5C 53.5,49.5 45.5,49.5 37.5,49.5C 38.2038,45.1973 36.8705,41.6973 33.5,39C 27.9155,37.8144 22.2488,37.1478 16.5,37C 13.9142,34.506 13.9142,32.006 16.5,29.5 Z"/>
    <path fill="#ef5a6b" d="M 28.5,29.5 C 29.5,29.5 30.5,29.5 31.5,29.5C 30.5,34.8333 29.5,34.8333 28.5,29.5 Z"/>
    <path fill="#ef5a6b" d="M 68.5,29.5 C 69.5,29.5 70.5,29.5 71.5,29.5C 70.5,34.8333 69.5,34.8333 68.5,29.5 Z"/>
    <path fill="#c1bfb3" d="M 34.5,45.5 C 35.5983,46.6009 35.765,47.9343 35,49.5C 26.0962,57.5403 22.9295,67.5403 25.5,79.5C 24.5,79.5 23.5,79.5 22.5,79.5C 19.9958,65.6691 23.9958,54.3358 34.5,45.5 Z"/>
    <path fill="#c0bfb3" d="M 63.5,45.5 C 74.8669,53.9073 79.2002,65.2406 76.5,79.5C 75.5,79.5 74.5,79.5 73.5,79.5C 76.0705,67.5403 72.9038,57.5403 64,49.5C 63.51,48.2068 63.3433,46.8734 63.5,45.5 Z"/>
    <path fill="#545c9d" d="M 44.5,57.5 C 47.8499,57.335 51.1832,57.5017 54.5,58C 55.3366,59.0113 55.67,60.1779 55.5,61.5C 51.5,61.5 47.5,61.5 43.5,61.5C 43.4326,60.0413 43.7659,58.7079 44.5,57.5 Z"/>
    <path fill="#a1a1cb" d="M 36.5,63.5 C 45.1731,63.3336 53.8397,63.5002 62.5,64C 63.642,70.0844 63.8087,76.2511 63,82.5C 54.245,83.6497 45.4117,83.8163 36.5,83C 35.1852,76.5003 35.1852,70.0003 36.5,63.5 Z"/>
    <path fill="#b2b2c2" d="M 26.5,70.5 C 28.8333,70.5 31.1667,70.5 33.5,70.5C 33.5,71.5 33.5,72.5 33.5,73.5C 31.1667,73.5 28.8333,73.5 26.5,73.5C 26.5,72.5 26.5,71.5 26.5,70.5 Z"/>
    <path fill="#b2b2c2" d="M 65.5,70.5 C 67.8333,70.5 70.1667,70.5 72.5,70.5C 72.5,71.5 72.5,72.5 72.5,73.5C 70.1667,73.5 67.8333,73.5 65.5,73.5C 65.5,72.5 65.5,71.5 65.5,70.5 Z"/>
    <path fill="#34374f" d="M 51.5,65.5 C 46.7232,66.0702 43.7232,68.7369 42.5,73.5C 43.1667,77.5 45.5,79.8333 49.5,80.5C 52.7337,79.5728 55.4004,77.9061 57.5,75.5C 53.8948,82.1302 49.0615,83.1302 43,78.5C 39.8162,70.1971 42.6495,65.8637 51.5,65.5 Z"/>
    <path fill="#505894" d="M 51.5,65.5 C 56.0387,67.2353 58.0387,70.5686 57.5,75.5C 55.4004,77.9061 52.7337,79.5728 49.5,80.5C 45.5,79.8333 43.1667,77.5 42.5,73.5C 43.7232,68.7369 46.7232,66.0702 51.5,65.5 Z"/>
    <path fill="#21232f" d="M 47.5,68.5 C 52.6646,68.1619 54.8313,70.4953 54,75.5C 51.0485,79.4815 48.0485,79.4815 45,75.5C 44.162,72.5193 44.9953,70.1859 47.5,68.5 Z"/>
    <path fill="#90909f" d="M 46.5,70.5 C 48.337,70.6395 48.6704,71.3061 47.5,72.5C 46.7025,72.0431 46.3691,71.3764 46.5,70.5 Z"/>
  </svg>
</svg>