<svg width="48" height="48" viewBox="0 0 48 48" fill-rule="evenodd" clip-rule="evenodd" xmlns="http://www.w3.org/2000/svg"><defs><linearGradient id="backgroundgrad" x1="0%" y1="100%" x2="0%" y2="0%"><stop offset="0%" stop-color="#6fad46" /><stop offset="100%" stop-color="#ffffff" /></linearGradient><linearGradient id="bordergrad" x1="0%" y1="100%" x2="0%" y2="0%"><stop offset="0%" stop-color="#375523" /><stop offset="100%" stop-color="#6fad46" /></linearGradient></defs><rect x="1" y="1" rx="8" ry="8" width="46" height="46" fill="url(#backgroundgrad)" stroke="url(#bordergrad)" stroke-width="2" /><svg x="5" y="5" width="38" height="38" viewBox="0 0 100 100"><svg x="-6" y="-19" height="138" width="111" viewBox="0 0 100 100" preserveAspectRatio="none"><path fill="#ceccbe" d="M75.5,80.5c-1.104,0-2-0.896-2-2V69c0-12.958-10.542-23.5-23.5-23.5S26.5,56.042,26.5,69v9.5 c0,1.104-0.896,2-2,2s-2-0.896-2-2V69c0-15.164,12.336-27.5,27.5-27.5S77.5,53.836,77.5,69v9.5C77.5,79.604,76.604,80.5,75.5,80.5z"/><path fill="#1f212b" d="M75.5,81c-1.378,0-2.5-1.122-2.5-2.5V69c0-12.682-10.318-23-23-23S27,56.318,27,69v9.5 c0,1.378-1.122,2.5-2.5,2.5S22,79.878,22,78.5V69c0-15.439,12.561-28,28-28s28,12.561,28,28v9.5C78,79.878,76.878,81,75.5,81z M50,45c13.233,0,24,10.767,24,24v9.5c0,0.827,0.673,1.5,1.5,1.5s1.5-0.673,1.5-1.5V69c0-14.888-12.112-27-27-27S23,54.112,23,69 v9.5c0,0.827,0.673,1.5,1.5,1.5s1.5-0.673,1.5-1.5V69C26,55.767,36.767,45,50,45z"/><path fill="#b3b2c3" d="M26.5 70.5H73.5V74.5H26.5z"/><path fill="#1f212b" d="M74,75H26v-5h48V75z M27,74h46v-3H27V74z"/><path fill="#fefdef" d="M81,29H19.215c-2.611,0-4.943,1.909-5.191,4.509C13.739,36.491,16.077,39,19,39h10 c4.418,0,8,3.582,8,8v2c0,1.105,0.895,2,2,2h22c1.105,0,2-0.895,2-2v-2c0-4.418,3.582-8,8-8h9.785c2.611,0,4.943-1.909,5.191-4.509 C86.261,31.509,83.923,29,81,29z"/><path fill="#1f212b" d="M61,52H39c-1.654,0-3-1.346-3-3v-2c0-3.86-3.14-7-7-7H19c-1.687,0-3.305-0.716-4.44-1.965 c-1.134-1.248-1.692-2.932-1.532-4.621C13.317,30.378,16.035,28,19.215,28H81c1.687,0,3.305,0.716,4.44,1.965 c1.134,1.248,1.692,2.932,1.532,4.621C86.683,37.622,83.965,40,80.785,40H71c-3.86,0-7,3.14-7,7v2C64,50.654,62.654,52,61,52z M19.215,30c-2.16,0-4.003,1.583-4.196,3.604c-0.109,1.146,0.253,2.242,1.021,3.086C16.796,37.522,17.875,38,19,38h10 c4.962,0,9,4.038,9,9v2c0,0.551,0.449,1,1,1h22c0.551,0,1-0.449,1-1v-2c0-4.962,4.038-9,9-9h9.785c2.16,0,4.003-1.583,4.196-3.604 c0.109-1.146-0.253-2.242-1.021-3.086C83.204,30.478,82.125,30,81,30H19.215z"/><path fill="#1f212b" d="M59.5 48h-3c-.276 0-.5-.224-.5-.5s.224-.5.5-.5h3c.276 0 .5.224.5.5S59.776 48 59.5 48zM53.5 48h-12c-.276 0-.5-.224-.5-.5s.224-.5.5-.5h12c.276 0 .5.224.5.5S53.776 48 53.5 48z"/><path fill="#f15b6c" d="M32.5,32.5c0,1.105-0.895,2-2,2s-2-0.895-2-2s0-3,0-3h4C32.5,29.5,32.5,31.971,32.5,32.5z"/><path fill="#1f212b" d="M30.5,35c-1.378,0-2.5-1.122-2.5-2.5V29h5v3.5C33,33.878,31.878,35,30.5,35z M29,30v2.5 c0,0.827,0.673,1.5,1.5,1.5s1.5-0.673,1.5-1.5V30H29z"/><path fill="#f15b6c" d="M72.5,32.5c0,1.105-0.895,2-2,2s-2-0.895-2-2s0-3,0-3h4C72.5,29.5,72.5,31.971,72.5,32.5z"/><path fill="#1f212b" d="M70.5,35c-1.378,0-2.5-1.122-2.5-2.5V29h5v3.5C73,33.878,71.878,35,70.5,35z M69,30v2.5 c0,0.827,0.673,1.5,1.5,1.5s1.5-0.673,1.5-1.5V30H69z"/><path fill="#a3a3cd" d="M62,85H38c-1.657,0-3-1.343-3-3V66c0-1.657,1.343-3,3-3h24c1.657,0,3,1.343,3,3v16 C65,83.657,63.657,85,62,85z"/><path fill="#1f212b" d="M62,86H38c-2.206,0-4-1.794-4-4V66c0-2.206,1.794-4,4-4h24c2.206,0,4,1.794,4,4v16 C66,84.206,64.206,86,62,86z M38,64c-1.103,0-2,0.897-2,2v16c0,1.103,0.897,2,2,2h24c1.103,0,2-0.897,2-2V66c0-1.103-0.897-2-2-2 H38z"/><g><path fill="#565fa1" d="M50 66A8 8 0 1 0 50 82A8 8 0 1 0 50 66Z"/><path fill="#1f212b" d="M55.99 70c-.152 0-.302-.069-.4-.199-.379-.503-.847-.967-1.392-1.38-.22-.167-.264-.48-.097-.7.166-.22.479-.265.7-.097.619.468 1.153.999 1.587 1.575.166.221.122.534-.099.7C56.201 69.967 56.095 70 55.99 70zM50 82c-4.411 0-8-3.589-8-8s3.589-8 8-8c.904 0 1.801.156 2.667.464.26.093.396.378.304.639-.093.261-.38.395-.639.304C51.574 67.137 50.79 67 50 67c-3.86 0-7 3.14-7 7s3.14 7 7 7c2.956 0 5.604-1.875 6.593-4.667.092-.26.376-.397.638-.304.26.092.396.377.304.638C56.406 79.857 53.378 82 50 82zM57.473 74.957c-.01 0-.02 0-.03-.001-.275-.019-.486-.214-.467-.49l.006-.087C56.991 74.253 57 74.128 57 74c0-.785-.137-1.57-.407-2.333-.092-.26.044-.546.304-.638.262-.093.546.044.638.304C57.844 72.204 58 73.101 58 74c0 .152-.01.301-.021.45C57.96 74.715 57.735 74.957 57.473 74.957z"/></g><g><path fill="#1f212b" d="M50 69.5A4.5 4.5 0 1 0 50 78.5A4.5 4.5 0 1 0 50 69.5Z"/><path fill="#1f212b" d="M50,79c-2.757,0-5-2.243-5-5s2.243-5,5-5s5,2.243,5,5S52.757,79,50,79z M50,70c-2.206,0-4,1.794-4,4 s1.794,4,4,4s4-1.794,4-4S52.206,70,50,70z"/></g><g><path fill="#565fa1" d="M57.5,62.5h-15l1.727-3.543c0.441-0.904,1.234-1.457,2.09-1.457h7.365 c0.856,0,1.65,0.553,2.09,1.457L57.5,62.5z"/><path fill="#1f212b" d="M58.3,63H41.7l2.078-4.263C44.3,57.666,45.273,57,46.317,57h7.365c1.044,0,2.017,0.666,2.54,1.737 L58.3,63z M43.3,62h13.4l-1.377-2.824C54.97,58.451,54.341,58,53.683,58h-7.365c-0.659,0-1.287,0.451-1.64,1.176L43.3,62z"/></g><g><path fill="#b3b2c3" d="M48 70.5A1.5 1.5 0 1 0 48 73.5A1.5 1.5 0 1 0 48 70.5Z"/><path fill="#1f212b" d="M48,74c-1.103,0-2-0.897-2-2s0.897-2,2-2s2,0.897,2,2S49.103,74,48,74z M48,71c-0.551,0-1,0.449-1,1 s0.449,1,1,1s1-0.449,1-1S48.551,71,48,71z"/></g><g><path fill="#ceccbe" d="M25 29h-6v-2c0-1.105.895-2 2-2h2c1.105 0 2 .895 2 2V29zM82 29h-6v-2c0-1.105.895-2 2-2h2c1.105 0 2 .895 2 2V29z"/><path fill="#1f212b" d="M26 30h-8v-3c0-1.654 1.346-3 3-3h2c1.654 0 3 1.346 3 3V30zM20 28h4v-1c0-.551-.449-1-1-1h-2c-.551 0-1 .449-1 1V28zM83 30h-8v-3c0-1.654 1.346-3 3-3h2c1.654 0 3 1.346 3 3V30zM77 28h4v-1c0-.551-.449-1-1-1h-2c-.551 0-1 .449-1 1V28z"/></g><path fill="#1f212b" d="M22 26c-.552 0-1-.448-1-1V15c0-.552.448-1 1-1s1 .448 1 1v10C23 25.552 22.552 26 22 26zM79 26c-.552 0-1-.448-1-1V15c0-.552.448-1 1-1s1 .448 1 1v10C80 25.552 79.552 26 79 26z"/><g><path fill="#fefdef" d="M36 17.5c-.734 0-27.266 0-28 0-.828 0-1.5.672-1.5 1.5s.672 1.5 1.5 1.5c.734 0 27.266 0 28 0 .828 0 1.5-.672 1.5-1.5S36.828 17.5 36 17.5zM93 17.5c-.734 0-27.266 0-28 0-.828 0-1.5.672-1.5 1.5s.672 1.5 1.5 1.5c.734 0 27.266 0 28 0 .828 0 1.5-.672 1.5-1.5S93.828 17.5 93 17.5z"/><path fill="#1f212b" d="M36 21H8c-1.103 0-2-.897-2-2s.897-2 2-2h28c1.103 0 2 .897 2 2S37.103 21 36 21zM8 18c-.551 0-1 .449-1 1s.449 1 1 1h28c.551 0 1-.449 1-1s-.449-1-1-1H8zM93 21H65c-1.103 0-2-.897-2-2s.897-2 2-2h28c1.103 0 2 .897 2 2S94.103 21 93 21zM65 18c-.551 0-1 .449-1 1s.449 1 1 1h28c.551 0 1-.449 1-1s-.449-1-1-1H65z"/></g></svg></svg></svg>