<svg viewBox="0 0 1984 96" fill-rule="evenodd" clip-rule="evenodd" xmlns="http://www.w3.org/2000/svg">
  <path opacity="0.948" fill="#375523" d="M 86.5,1.5 C 94.5852,1.09887 102.585,1.59887 110.5,3C 114.58,5.31249 117.08,8.81249 118,13.5C 120.841,33.2224 124.008,52.8891 127.5,72.5C 127.182,73.6473 126.516,74.4806 125.5,75C 118.709,76.9018 112.042,79.0685 105.5,81.5C 105.482,71.8198 105.148,62.1532 104.5,52.5C 94.5212,51.747 84.5212,51.9137 74.5,53C 66.8032,61.0311 58.8032,68.6978 50.5,76C 37.9617,86.0548 24.295,88.0548 9.5,82C 1.08532,75.4199 0.251989,67.9199 7,59.5C 15.463,49.8523 25.963,43.6856 38.5,41C 49.522,40.5145 60.522,40.5145 71.5,41C 78.9109,31.5161 85.5776,21.5161 91.5,11C 83.8578,11.3174 76.1912,12.1507 68.5,13.5C 67.5,13.1667 66.5,12.8333 65.5,12.5C 66.4411,10.2279 67.7745,8.22794 69.5,6.5C 75.2383,4.65378 80.905,2.98712 86.5,1.5 Z M 97.5,18.5 C 100.922,27.7805 102.755,37.4472 103,47.5C 95.6343,45.5211 88.1343,44.0211 80.5,43C 86.7768,35.2289 92.4435,27.0622 97.5,18.5 Z M 49.5,52.5 C 54.1785,52.3342 58.8452,52.5008 63.5,53C 57.1667,60 50.8333,67 44.5,74C 37.5658,76.4737 31.0658,75.6404 25,71.5C 22.6939,65.7286 23.1939,60.2286 26.5,55C 34.3279,54.256 41.9945,53.4226 49.5,52.5 Z"/>
  <path opacity="0.947" fill="#375623" d="M 188.5,1.5 C 191.325,1.08073 193.491,2.08073 195,4.5C 197.589,8.85185 198.589,13.5185 198,18.5C 194.656,21.1805 191.322,23.8471 188,26.5C 184.383,22.7189 180.55,19.0523 176.5,15.5C 180.207,10.469 184.207,5.8023 188.5,1.5 Z"/>
  <path opacity="0.948" fill="#6fad47" d="M 904.5,1.5 C 905.833,1.5 907.167,1.5 908.5,1.5C 908.334,10.5062 908.5,19.5062 909,28.5C 910.818,26.0005 913.152,24.3338 916,23.5C 927.398,24.5571 932.564,30.7237 931.5,42C 931.302,48.8817 930.635,55.715 929.5,62.5C 924.774,67.0168 919.441,70.1835 913.5,72C 917.857,58.6673 917.357,45.5006 912,32.5C 911.385,34.1161 910.385,35.4495 909,36.5C 908.12,45.4818 907.62,54.4818 907.5,63.5C 901.819,63.6349 896.152,63.9682 890.5,64.5C 891.256,45.1834 891.756,25.8501 892,6.5C 896.289,4.90888 900.456,3.24221 904.5,1.5 Z"/>
  <path opacity="0.94" fill="#6fad46" d="M 1076.5,1.5 C 1088.71,0.985146 1092.05,6.15181 1086.5,17C 1076.07,20.8844 1071.23,17.3844 1072,6.5C 1073.02,4.31305 1074.52,2.64638 1076.5,1.5 Z"/>
  <path opacity="0.94" fill="#6fad46" d="M 1234.5,1.5 C 1246.71,0.985146 1250.05,6.15181 1244.5,17C 1234.07,20.8844 1229.23,17.3844 1230,6.5C 1231.02,4.31305 1232.52,2.64638 1234.5,1.5 Z"/>
  <path opacity="0.958" fill="#70ad46" d="M 1511.5,0.5 C 1513.17,0.5 1514.83,0.5 1516.5,0.5C 1515.4,21.188 1515.24,41.8547 1516,62.5C 1510.64,64.0888 1505.14,65.0888 1499.5,65.5C 1499.59,60.113 1499.09,54.7797 1498,49.5C 1493.6,55.064 1488.77,60.064 1483.5,64.5C 1480.79,63.9863 1478.29,62.9863 1476,61.5C 1473.76,52.0414 1474.1,42.7081 1477,33.5C 1479.8,28.3964 1483.64,24.2298 1488.5,21C 1492.19,20.5499 1495.85,20.7166 1499.5,21.5C 1499.17,15.4632 1499.5,9.46325 1500.5,3.5C 1504.32,2.61136 1507.98,1.61136 1511.5,0.5 Z M 1489.5,33.5 C 1492.83,33.2637 1495.83,34.097 1498.5,36C 1495.87,40.0838 1493.37,44.2505 1491,48.5C 1490.09,43.5364 1489.59,38.5364 1489.5,33.5 Z"/>
  <path opacity="0.952" fill="#70ae47" d="M 1724.5,0.5 C 1735.16,-0.672823 1739.33,3.99384 1737,14.5C 1731.67,19.8333 1726.33,19.8333 1721,14.5C 1718.78,8.99109 1719.95,4.32442 1724.5,0.5 Z"/>
  <path opacity="0.952" fill="#70ae47" d="M 1871.5,0.5 C 1882.16,-0.672823 1886.33,3.99384 1884,14.5C 1878.67,19.8333 1873.33,19.8333 1868,14.5C 1865.78,8.99109 1866.95,4.32442 1871.5,0.5 Z"/>
  <path opacity="0.95" fill="#6fad47" d="M 251.5,2.5 C 261.658,1.15705 265.825,5.49038 264,15.5C 258.667,20.8333 253.333,20.8333 248,15.5C 245.991,10.3548 247.157,6.02147 251.5,2.5 Z"/>
  <path opacity="0.95" fill="#6fad47" d="M 561.5,2.5 C 571.658,1.15705 575.825,5.49038 574,15.5C 568.667,20.8333 563.333,20.8333 558,15.5C 555.991,10.3548 557.157,6.02147 561.5,2.5 Z"/>
  <path opacity="0.944" fill="#375623" d="M 210.5,4.5 C 212.429,4.23082 214.095,4.73082 215.5,6C 207.871,24.7621 200.371,43.5954 193,62.5C 188.762,71.8112 182.928,79.9779 175.5,87C 154.515,86.1811 139.515,76.3478 130.5,57.5C 133.419,52.6603 136.586,47.9936 140,43.5C 144.04,49.4172 148.873,54.5839 154.5,59C 163.826,64.2181 173.659,68.0515 184,70.5C 190.749,52.5036 196.416,34.1703 201,15.5C 203.314,11.025 206.48,7.3583 210.5,4.5 Z"/>
  <path opacity="0.953" fill="#6fad47" d="M 1207.5,16.5 C 1209.5,16.5 1211.5,16.5 1213.5,16.5C 1213.68,18.5914 1213.35,20.5914 1212.5,22.5C 1215.71,23.7874 1218.88,23.7874 1222,22.5C 1222.64,26.1697 1222.14,29.6697 1220.5,33C 1217.85,33.4974 1215.19,33.6641 1212.5,33.5C 1212.33,37.8461 1212.5,42.1794 1213,46.5C 1214.69,49.6945 1217.19,52.0278 1220.5,53.5C 1218.21,58.1138 1215.21,62.1138 1211.5,65.5C 1201.61,63.7854 1196.61,57.952 1196.5,48C 1197.38,43.4626 1197.38,38.9626 1196.5,34.5C 1195.14,35.8793 1194.14,35.7126 1193.5,34C 1197.34,29.1609 1199,23.6609 1198.5,17.5C 1201.71,17.81 1204.71,17.4767 1207.5,16.5 Z"/>
  <path opacity="0.96" fill="#70ad47" d="M 1760.5,15.5 C 1762.17,15.5 1763.83,15.5 1765.5,15.5C 1765.5,17.8333 1765.5,20.1667 1765.5,22.5C 1768.78,22.7839 1771.94,22.4505 1775,21.5C 1775.11,24.833 1774.78,28.1663 1774,31.5C 1771.23,33.0466 1768.23,34.0466 1765,34.5C 1762.59,43.1479 1765.42,49.1479 1773.5,52.5C 1771.03,56.8007 1768.36,60.9674 1765.5,65C 1755.69,64.1923 1750.02,58.8589 1748.5,49C 1749.27,44.1759 1749.93,39.3426 1750.5,34.5C 1749.07,34.4208 1747.74,34.7542 1746.5,35.5C 1746.17,35 1745.83,34.5 1745.5,34C 1749.18,29.1319 1751.02,23.6319 1751,17.5C 1754.27,16.868 1757.44,16.2014 1760.5,15.5 Z"/>
  <path opacity="0.958" fill="#6fad46" d="M 333.5,17.5 C 335.167,17.5 336.833,17.5 338.5,17.5C 338.5,19.8333 338.5,22.1667 338.5,24.5C 341.777,24.7839 344.943,24.4505 348,23.5C 348.007,26.4786 347.673,29.4786 347,32.5C 344.227,34.0466 341.227,35.0466 338,35.5C 335.3,44.4554 338.133,50.6221 346.5,54C 343.833,58 341.167,62 338.5,66C 328.911,65.2483 323.244,60.0816 321.5,50.5C 322.363,45.5369 323.03,40.5369 323.5,35.5C 321.669,36.0522 320.003,36.0522 318.5,35.5C 322.319,30.86 324.152,25.5267 324,19.5C 327.27,18.868 330.437,18.2014 333.5,17.5 Z"/>
  <path opacity="0.958" fill="#6fad46" d="M 535.5,17.5 C 537.167,17.5 538.833,17.5 540.5,17.5C 540.5,19.8333 540.5,22.1667 540.5,24.5C 543.777,24.7839 546.943,24.4505 550,23.5C 550.007,26.4786 549.673,29.4786 549,32.5C 546.227,34.0466 543.227,35.0466 540,35.5C 537.3,44.4554 540.133,50.6221 548.5,54C 545.833,58 543.167,62 540.5,66C 530.911,65.2483 525.244,60.0816 523.5,50.5C 524.363,45.5369 525.03,40.5369 525.5,35.5C 523.669,36.0522 522.003,36.0522 520.5,35.5C 524.319,30.86 526.152,25.5267 526,19.5C 529.27,18.868 532.437,18.2014 535.5,17.5 Z"/>
  <path opacity="0.96" fill="#6fad46" d="M 720.5,22.5 C 729.528,22.4601 738.528,22.9601 747.5,24C 747.833,24.3333 748.167,24.6667 748.5,25C 746.799,28.6368 745.799,32.4702 745.5,36.5C 738.573,34.867 731.573,34.0337 724.5,34C 725.716,35.7398 727.382,36.7398 729.5,37C 735.449,38.0732 741.449,38.7399 747.5,39C 748.931,39.4652 750.097,40.2986 751,41.5C 754.722,54.5491 749.889,62.3824 736.5,65C 727.832,66.3364 719.498,65.3364 711.5,62C 710.643,61.3109 709.977,60.4776 709.5,59.5C 710.194,56.9124 711.36,54.579 713,52.5C 720.666,55.7262 728.499,56.2262 736.5,54C 730.577,53.8323 724.577,53.1656 718.5,52C 708.579,48.3063 705.745,41.473 710,31.5C 713.103,27.886 716.603,24.886 720.5,22.5 Z"/>
  <path opacity="0.944" fill="#6fad46" d="M 817.5,22.5 C 818.833,22.5 820.167,22.5 821.5,22.5C 821.338,24.5273 821.505,26.5273 822,28.5C 824.5,26.6667 827,24.8333 829.5,23C 840.217,21.5271 845.217,26.1937 844.5,37C 844.251,43.9114 843.417,50.7447 842,57.5C 836.99,60.5159 831.99,63.5159 827,66.5C 826.5,66.3333 826,66.1667 825.5,66C 829.521,54.3971 829.355,42.8971 825,31.5C 824,32.5 823,33.5 822,34.5C 821.5,43.8274 821.334,53.1607 821.5,62.5C 815.82,63.0579 810.153,63.7245 804.5,64.5C 804.333,52.1622 804.5,39.8288 805,27.5C 809.289,25.9089 813.456,24.2422 817.5,22.5 Z"/>
  <path opacity="0.958" fill="#6fad47" d="M 861.5,22.5 C 867.593,22.1392 873.593,22.6392 879.5,24C 884.596,27.0235 886.929,31.5235 886.5,37.5C 881.786,38.1366 877.286,39.4699 873,41.5C 871.732,39.2827 870.232,37.2827 868.5,35.5C 863.574,45.1517 866.407,50.8184 877,52.5C 880.155,51.5905 882.822,49.9238 885,47.5C 881.314,62.0984 872.147,66.9317 857.5,62C 853.99,59.8308 851.823,56.6641 851,52.5C 850.333,45.5 850.333,38.5 851,31.5C 854.292,28.1268 857.792,25.1268 861.5,22.5 Z"/>
  <path opacity="0.952" fill="#6fad46" d="M 960.5,22.5 C 964.637,22.1463 968.637,22.6463 972.5,24C 970.928,29.1157 969.428,34.2824 968,39.5C 967.586,39.9574 967.086,40.2907 966.5,40.5C 964.772,38.7745 962.772,37.4411 960.5,36.5C 956.288,39.5804 954.955,43.5804 956.5,48.5C 958.51,50.1713 960.843,50.838 963.5,50.5C 962.747,54.6772 961.414,58.6772 959.5,62.5C 944.829,66.0016 937.829,60.1682 938.5,45C 939.21,37.8492 939.543,30.6826 939.5,23.5C 944.527,23.5029 949.527,23.8363 954.5,24.5C 954.335,27.5184 954.502,30.5184 955,33.5C 955.797,29.2501 957.63,25.5835 960.5,22.5 Z"/>
  <path opacity="0.944" fill="#6fad46" d="M 1035.5,22.5 C 1036.83,22.5 1038.17,22.5 1039.5,22.5C 1039.34,24.5273 1039.5,26.5273 1040,28.5C 1042.5,26.6667 1045,24.8333 1047.5,23C 1058.22,21.5271 1063.22,26.1937 1062.5,37C 1062.25,43.9114 1061.42,50.7447 1060,57.5C 1054.99,60.5159 1049.99,63.5159 1045,66.5C 1044.5,66.3333 1044,66.1667 1043.5,66C 1047.52,54.3971 1047.35,42.8971 1043,31.5C 1042,32.5 1041,33.5 1040,34.5C 1039.5,43.8274 1039.33,53.1607 1039.5,62.5C 1033.82,63.0579 1028.15,63.7245 1022.5,64.5C 1022.33,52.1622 1022.5,39.8288 1023,27.5C 1027.29,25.9089 1031.46,24.2422 1035.5,22.5 Z"/>
  <path opacity="0.946" fill="#6fad46" d="M 1087.5,22.5 C 1088.83,26.6139 1089.49,31.1139 1089.5,36C 1089.86,45.1687 1090.19,54.3353 1090.5,63.5C 1084.87,64.493 1079.21,65.1596 1073.5,65.5C 1073.5,55.8333 1073.5,46.1667 1073.5,36.5C 1071.17,36.5 1068.83,36.5 1066.5,36.5C 1066.32,34.4086 1066.65,32.4086 1067.5,30.5C 1074.48,28.3992 1081.15,25.7326 1087.5,22.5 Z"/>
  <path opacity="0.955" fill="#6fad46" d="M 1110.5,22.5 C 1119.53,22.4601 1128.53,22.9601 1137.5,24C 1135.8,27.6368 1134.8,31.4702 1134.5,35.5C 1127.57,33.867 1120.57,33.0337 1113.5,33C 1114.98,35.1485 1116.98,36.4818 1119.5,37C 1125.45,38.0732 1131.45,38.7399 1137.5,39C 1138.42,39.3742 1139.25,39.8742 1140,40.5C 1143.72,53.5491 1138.89,61.3824 1125.5,64C 1116.83,65.3364 1108.5,64.3364 1100.5,61C 1099.86,57.9087 1100.69,55.0753 1103,52.5C 1109.89,55.292 1117.06,56.1253 1124.5,55C 1125.31,54.6924 1125.97,54.1924 1126.5,53.5C 1123.52,51.4027 1120.35,51.0694 1117,52.5C 1101.56,53.0792 1095.89,46.0792 1100,31.5C 1103.1,27.886 1106.6,24.886 1110.5,22.5 Z"/>
  <path opacity="0.962" fill="#6fad47" d="M 1160.5,22.5 C 1167.26,23.0845 1173.92,24.2511 1180.5,26C 1183.76,27.587 1185.92,30.087 1187,33.5C 1187.19,42.5476 1187.69,51.5476 1188.5,60.5C 1188.29,61.086 1187.96,61.586 1187.5,62C 1182.15,63.1724 1176.81,64.3391 1171.5,65.5C 1172.08,60.5007 1172.25,55.5007 1172,50.5C 1167.15,55.0477 1162.65,59.8811 1158.5,65C 1154.29,65.8184 1150.79,64.6517 1148,61.5C 1143.1,45.367 1147.27,32.367 1160.5,22.5 Z M 1161.5,36.5 C 1165.3,35.5352 1168.64,36.7019 1171.5,40C 1168.79,43.9224 1165.96,47.7557 1163,51.5C 1162.83,46.3165 1162.33,41.3165 1161.5,36.5 Z"/>
  <path opacity="0.946" fill="#6fad46" d="M 1245.5,22.5 C 1246.83,26.6139 1247.49,31.1139 1247.5,36C 1247.86,45.1687 1248.19,54.3353 1248.5,63.5C 1242.87,64.493 1237.21,65.1596 1231.5,65.5C 1231.5,55.8333 1231.5,46.1667 1231.5,36.5C 1229.17,36.5 1226.83,36.5 1224.5,36.5C 1224.32,34.4086 1224.65,32.4086 1225.5,30.5C 1232.48,28.3992 1239.15,25.7326 1245.5,22.5 Z"/>
  <path opacity="0.944" fill="#6fad46" d="M 1317.5,22.5 C 1318.83,22.5 1320.17,22.5 1321.5,22.5C 1321.34,24.5273 1321.5,26.5273 1322,28.5C 1324.5,26.6667 1327,24.8333 1329.5,23C 1340.22,21.5271 1345.22,26.1937 1344.5,37C 1344.25,43.9114 1343.42,50.7447 1342,57.5C 1336.99,60.5159 1331.99,63.5159 1327,66.5C 1326.5,66.3333 1326,66.1667 1325.5,66C 1329.52,54.3971 1329.35,42.8971 1325,31.5C 1324,32.5 1323,33.5 1322,34.5C 1321.5,43.8274 1321.33,53.1607 1321.5,62.5C 1315.82,63.0579 1310.15,63.7245 1304.5,64.5C 1304.33,52.1622 1304.5,39.8288 1305,27.5C 1309.29,25.9089 1313.46,24.2422 1317.5,22.5 Z"/>
  <path opacity="0.973" fill="#70ad46" d="M 1395.5,21.5 C 1402.26,22.0845 1408.92,23.2511 1415.5,25C 1417.62,26.1217 1419.46,27.6217 1421,29.5C 1422.13,39.6279 1422.96,49.7946 1423.5,60C 1423.36,60.772 1423.02,61.4387 1422.5,62C 1416.85,63.4998 1411.19,64.4998 1405.5,65C 1406.63,60.5868 1406.8,56.0868 1406,51.5C 1401.72,55.9049 1397.55,60.4049 1393.5,65C 1389.75,65.2557 1386.09,64.7557 1382.5,63.5C 1377.33,46.2476 1381.66,32.2476 1395.5,21.5 Z M 1397.5,35.5 C 1400.65,35.8824 1403.32,37.2157 1405.5,39.5C 1403.49,43.5134 1400.99,47.1801 1398,50.5C 1397.5,45.5111 1397.33,40.5111 1397.5,35.5 Z"/>
  <path opacity="0.965" fill="#70ad46" d="M 1442.5,21.5 C 1443.83,21.5 1445.17,21.5 1446.5,21.5C 1446.34,23.5273 1446.5,25.5273 1447,27.5C 1450.14,24.433 1453.8,22.433 1458,21.5C 1463.25,21.4301 1466.92,23.7634 1469,28.5C 1469.79,38.2677 1469.12,47.9344 1467,57.5C 1461.82,61.2043 1456.32,64.2043 1450.5,66.5C 1451.66,59.8707 1452.66,53.2041 1453.5,46.5C 1453.22,41.4737 1451.89,36.8071 1449.5,32.5C 1448.52,32.9767 1447.69,33.6433 1447,34.5C 1446.5,43.8274 1446.33,53.1607 1446.5,62.5C 1440.82,63.0579 1435.15,63.7245 1429.5,64.5C 1429.58,52.122 1429.42,39.7887 1429,27.5C 1433.42,25.1972 1437.92,23.1972 1442.5,21.5 Z"/>
  <path opacity="0.954" fill="#70ad46" d="M 1566.5,21.5 C 1567.83,21.5 1569.17,21.5 1570.5,21.5C 1570.34,23.5273 1570.5,25.5273 1571,27.5C 1573.14,24.6752 1575.81,22.6752 1579,21.5C 1583.76,22.2991 1587.93,24.2991 1591.5,27.5C 1597.58,20.3649 1604.58,19.5315 1612.5,25C 1614.6,27.0424 1615.77,29.5424 1616,32.5C 1616.08,41.1646 1615.75,49.8312 1615,58.5C 1610.78,62.6971 1605.94,66.0305 1600.5,68.5C 1600.27,59.5361 1600.1,50.5361 1600,41.5C 1599.5,38.4826 1598,36.1492 1595.5,34.5C 1594.81,35.0253 1594.31,35.6919 1594,36.5C 1593.8,44.8815 1593.3,53.2149 1592.5,61.5C 1587.76,63.6028 1582.76,64.9361 1577.5,65.5C 1577.67,58.825 1577.5,52.1583 1577,45.5C 1576.72,41.8209 1575.55,38.4876 1573.5,35.5C 1572.2,36.09 1571.37,37.09 1571,38.5C 1571.27,46.5193 1571.11,54.5193 1570.5,62.5C 1564.9,63.6039 1559.23,64.2706 1553.5,64.5C 1554.14,51.1762 1554.47,37.8429 1554.5,24.5C 1558.76,24.1016 1562.76,23.1016 1566.5,21.5 Z"/>
  <path opacity="0.962" fill="#6fad46" d="M 1683.5,21.5 C 1684.83,21.5 1686.17,21.5 1687.5,21.5C 1687.34,23.5273 1687.5,25.5273 1688,27.5C 1691.58,24.571 1695.58,22.571 1700,21.5C 1706.02,21.6719 1709.69,24.6719 1711,30.5C 1711.16,39.573 1710.33,48.573 1708.5,57.5C 1703.39,61.0498 1698.06,64.0498 1692.5,66.5C 1693.54,59.6817 1694.54,52.8484 1695.5,46C 1695.21,40.7405 1693.71,35.9072 1691,31.5C 1690,32.8333 1689,34.1667 1688,35.5C 1687.5,44.4938 1687.33,53.4938 1687.5,62.5C 1682.15,63.0733 1676.82,63.74 1671.5,64.5C 1671.56,51.7971 1671.4,39.1304 1671,26.5C 1675.29,24.9331 1679.45,23.2664 1683.5,21.5 Z"/>
  <path opacity="0.946" fill="#70ad46" d="M 1735.5,21.5 C 1736.5,21.5 1737.5,21.5 1738.5,21.5C 1738.28,35.5219 1738.61,49.5219 1739.5,63.5C 1733.53,64.4474 1727.53,65.1141 1721.5,65.5C 1722.36,55.8609 1722.69,46.1943 1722.5,36.5C 1719.83,36.5 1717.17,36.5 1714.5,36.5C 1714.83,33.8333 1715.17,31.1667 1715.5,28.5C 1722.79,27.6856 1729.46,25.3523 1735.5,21.5 Z"/>
  <path opacity="0.956" fill="#70ad47" d="M 1850.5,21.5 C 1853.85,21.335 1857.18,21.5017 1860.5,22C 1860.74,27.9026 1859.74,33.7359 1857.5,39.5C 1857.17,39.8333 1856.83,40.1667 1856.5,40.5C 1854.19,39.3492 1852.02,38.0159 1850,36.5C 1845.77,39.5828 1844.6,43.5828 1846.5,48.5C 1848.75,49.3742 1851.08,49.7076 1853.5,49.5C 1852.33,54.174 1850.66,58.674 1848.5,63C 1839.25,65.9067 1832.75,63.0734 1829,54.5C 1828.5,43.8385 1828.33,33.1719 1828.5,22.5C 1833.67,22.0903 1838.67,22.757 1843.5,24.5C 1844.19,26.444 1844.69,28.444 1845,30.5C 1845.86,26.7626 1847.69,23.7626 1850.5,21.5 Z"/>
  <path opacity="0.946" fill="#70ad46" d="M 1882.5,21.5 C 1883.5,21.5 1884.5,21.5 1885.5,21.5C 1885.28,35.5219 1885.61,49.5219 1886.5,63.5C 1880.53,64.4474 1874.53,65.1141 1868.5,65.5C 1869.36,55.8609 1869.69,46.1943 1869.5,36.5C 1866.83,36.5 1864.17,36.5 1861.5,36.5C 1861.83,33.8333 1862.17,31.1667 1862.5,28.5C 1869.79,27.6856 1876.46,25.3523 1882.5,21.5 Z"/>
  <path opacity="0.962" fill="#6fad46" d="M 1906.5,21.5 C 1907.83,21.5 1909.17,21.5 1910.5,21.5C 1910.34,23.5273 1910.5,25.5273 1911,27.5C 1914.58,24.571 1918.58,22.571 1923,21.5C 1929.02,21.6719 1932.69,24.6719 1934,30.5C 1934.16,39.573 1933.33,48.573 1931.5,57.5C 1926.39,61.0498 1921.06,64.0498 1915.5,66.5C 1916.54,59.6817 1917.54,52.8484 1918.5,46C 1918.21,40.7405 1916.71,35.9072 1914,31.5C 1913,32.8333 1912,34.1667 1911,35.5C 1910.5,44.4938 1910.33,53.4938 1910.5,62.5C 1905.15,63.0733 1899.82,63.74 1894.5,64.5C 1894.56,51.7971 1894.4,39.1304 1894,26.5C 1898.29,24.9331 1902.45,23.2664 1906.5,21.5 Z"/>
  <path opacity="0.948" fill="#6fad46" d="M 262.5,23.5 C 263.5,23.5 264.5,23.5 265.5,23.5C 265.26,37.1918 265.593,50.8585 266.5,64.5C 260.534,65.4474 254.534,66.1141 248.5,66.5C 249.392,56.8657 249.725,47.1991 249.5,37.5C 246.833,37.5 244.167,37.5 241.5,37.5C 241.993,35.1944 242.326,32.861 242.5,30.5C 249.789,29.6856 256.456,27.3523 262.5,23.5 Z"/>
  <path opacity="0.963" fill="#6fad47" d="M 286.5,23.5 C 287.833,23.5 289.167,23.5 290.5,23.5C 290.338,25.5273 290.505,27.5273 291,29.5C 293.748,27.5421 296.582,25.7088 299.5,24C 309.181,22.5127 314.181,26.6794 314.5,36.5C 313.791,43.8783 312.791,51.2116 311.5,58.5C 306.393,62.0498 301.059,65.0498 295.5,67.5C 297.913,57.8895 298.413,48.2229 297,38.5C 295.998,32.0374 293.998,31.3708 291,36.5C 290.5,45.4938 290.334,54.4938 290.5,63.5C 285.153,64.0733 279.82,64.74 274.5,65.5C 274.584,53.122 274.417,40.7887 274,28.5C 278.287,26.9331 282.453,25.2664 286.5,23.5 Z"/>
  <path opacity="0.96" fill="#6fad47" d="M 362.5,23.5 C 368.888,23.3119 375.222,23.8119 381.5,25C 383.624,26.1217 385.457,27.6217 387,29.5C 387.755,34.9498 387.255,40.2831 385.5,45.5C 380.291,48.6913 374.624,50.1913 368.5,50C 373.603,55.7018 378.936,55.8684 384.5,50.5C 384.108,57.0507 380.775,61.8841 374.5,65C 369.833,65.6667 365.167,65.6667 360.5,65C 356.23,63.7296 353.73,60.8963 353,56.5C 352.333,48.1667 352.333,39.8333 353,31.5C 356.358,28.9688 359.524,26.3021 362.5,23.5 Z M 367.5,34.5 C 372.812,35 375.145,38 374.5,43.5C 371.873,44.0916 369.206,44.4249 366.5,44.5C 366.46,41.1194 366.793,37.7861 367.5,34.5 Z"/>
  <path opacity="0.949" fill="#6fad46" d="M 461.5,23.5 C 464.85,23.335 468.183,23.5017 471.5,24C 472.022,24.5613 472.355,25.228 472.5,26C 471.363,31.3959 469.697,36.5626 467.5,41.5C 465.191,40.3492 463.024,39.0159 461,37.5C 456.69,40.9258 455.524,45.2591 457.5,50.5C 459.854,51.0601 462.187,51.7267 464.5,52.5C 462.902,56.1264 461.402,59.7931 460,63.5C 452.434,66.0799 446.101,64.4132 441,58.5C 439.567,47.2436 439.067,35.9102 439.5,24.5C 444.673,24.0903 449.673,24.757 454.5,26.5C 455.189,28.444 455.689,30.444 456,32.5C 456.858,28.7626 458.691,25.7626 461.5,23.5 Z"/>
  <path opacity="0.955" fill="#6fad46" d="M 487.5,23.5 C 496.157,23.663 504.323,25.663 512,29.5C 513.751,31.4899 514.751,33.8232 515,36.5C 515.667,45.1667 515.667,53.8333 515,62.5C 509.654,64.5459 504.154,65.7126 498.5,66C 499.635,61.2523 499.802,56.419 499,51.5C 494.867,56.6344 490.367,61.4677 485.5,66C 482.122,66.0475 478.789,65.5475 475.5,64.5C 474.545,56.1856 474.378,47.8522 475,39.5C 478.236,33.4316 482.403,28.0982 487.5,23.5 Z M 489.5,36.5 C 493.033,36.676 496.033,38.0094 498.5,40.5C 491.115,55.3656 488.115,54.0322 489.5,36.5 Z"/>
  <path opacity="0.948" fill="#6fad46" d="M 572.5,23.5 C 573.5,23.5 574.5,23.5 575.5,23.5C 575.26,37.1918 575.593,50.8585 576.5,64.5C 570.534,65.4474 564.534,66.1141 558.5,66.5C 559.392,56.8657 559.725,47.1991 559.5,37.5C 556.833,37.5 554.167,37.5 551.5,37.5C 551.993,35.1944 552.326,32.861 552.5,30.5C 559.789,29.6856 566.456,27.3523 572.5,23.5 Z"/>
  <path opacity="0.963" fill="#6fad47" d="M 644.5,23.5 C 645.833,23.5 647.167,23.5 648.5,23.5C 648.338,25.5273 648.505,27.5273 649,29.5C 651.748,27.5421 654.582,25.7088 657.5,24C 667.181,22.5127 672.181,26.6794 672.5,36.5C 671.791,43.8783 670.791,51.2116 669.5,58.5C 664.393,62.0498 659.059,65.0498 653.5,67.5C 655.913,57.8895 656.413,48.2229 655,38.5C 653.998,32.0374 651.998,31.3708 649,36.5C 648.5,45.4938 648.334,54.4938 648.5,63.5C 643.153,64.0733 637.82,64.74 632.5,65.5C 632.584,53.122 632.417,40.7887 632,28.5C 636.287,26.9331 640.453,25.2664 644.5,23.5 Z"/>
  <path opacity="0.959" fill="#6fad47" d="M 772.5,23.5 C 773.5,23.5 774.5,23.5 775.5,23.5C 775.441,30.2028 775.274,36.8695 775,43.5C 778.568,37.9688 781.068,31.9688 782.5,25.5C 788.157,24.4428 793.823,24.4428 799.5,25.5C 797.637,40.1546 795.804,54.8213 794,69.5C 791.321,75.5288 787.654,80.8621 783,85.5C 774.329,86.7948 766.162,85.1281 758.5,80.5C 753.929,74.4443 754.929,69.4443 761.5,65.5C 766.969,68.93 772.969,70.5966 779.5,70.5C 779.666,62.8261 779.5,55.1594 779,47.5C 775.167,52.5 771.333,57.5 767.5,62.5C 764.874,63.4492 762.208,63.4492 759.5,62.5C 758.667,50.1795 758.001,37.8461 757.5,25.5C 762.766,25.8112 767.766,25.1446 772.5,23.5 Z"/>
  <path opacity="0.96" fill="#6fad47" d="M 989.5,23.5 C 996.893,23.5055 1004.23,24.1721 1011.5,25.5C 1011.02,26.4776 1010.36,27.3109 1009.5,28C 1013.5,29.4864 1016,32.3197 1017,36.5C 1018.4,43.7173 1017.07,50.384 1013,56.5C 1001.32,68.1308 989.319,68.4642 977,57.5C 972.212,49.6549 972.546,41.9882 978,34.5C 981.729,30.6019 985.562,26.9352 989.5,23.5 Z M 991.5,32.5 C 998.966,34.0676 1002.63,38.7343 1002.5,46.5C 1002.16,49.1764 1001.83,51.843 1001.5,54.5C 993.59,53.2531 989.59,48.5864 989.5,40.5C 989.564,37.6496 990.23,34.983 991.5,32.5 Z"/>
  <path opacity="0.96" fill="#6fad47" d="M 1271.5,23.5 C 1278.89,23.5055 1286.23,24.1721 1293.5,25.5C 1293.02,26.4776 1292.36,27.3109 1291.5,28C 1295.5,29.4864 1298,32.3197 1299,36.5C 1300.4,43.7173 1299.07,50.384 1295,56.5C 1283.32,68.1308 1271.32,68.4642 1259,57.5C 1254.21,49.6549 1254.55,41.9882 1260,34.5C 1263.73,30.6019 1267.56,26.9352 1271.5,23.5 Z M 1273.5,32.5 C 1280.97,34.0676 1284.63,38.7343 1284.5,46.5C 1284.16,49.1764 1283.83,51.843 1283.5,54.5C 1275.59,53.2531 1271.59,48.5864 1271.5,40.5C 1271.56,37.6496 1272.23,34.983 1273.5,32.5 Z"/>
  <path opacity="0.962" fill="#70ad47" d="M 1637.5,22.5 C 1645.23,22.4497 1652.9,23.1164 1660.5,24.5C 1660.17,25.1667 1659.83,25.8333 1659.5,26.5C 1661.95,28.7756 1663.78,31.4423 1665,34.5C 1668.01,49.3151 1662.51,59.4817 1648.5,65C 1637.12,66.5572 1628.62,62.3905 1623,52.5C 1621.23,44.6476 1622.9,37.6476 1628,31.5C 1631.15,28.3683 1634.31,25.3683 1637.5,22.5 Z M 1639.5,32.5 C 1647.57,33.5806 1651.24,38.2472 1650.5,46.5C 1651.89,52.6205 1649.89,54.4539 1644.5,52C 1638.19,46.6126 1636.53,40.1126 1639.5,32.5 Z"/>
  <path opacity="0.962" fill="#70ad47" d="M 1793.5,22.5 C 1801.23,22.4497 1808.9,23.1164 1816.5,24.5C 1816.17,25.1667 1815.83,25.8333 1815.5,26.5C 1817.95,28.7756 1819.78,31.4423 1821,34.5C 1824.01,49.3151 1818.51,59.4817 1804.5,65C 1793.12,66.5572 1784.62,62.3905 1779,52.5C 1777.23,44.6476 1778.9,37.6476 1784,31.5C 1787.15,28.3683 1790.31,25.3683 1793.5,22.5 Z M 1795.5,32.5 C 1803.57,33.5806 1807.24,38.2472 1806.5,46.5C 1807.89,52.6205 1805.89,54.4539 1800.5,52C 1794.19,46.6126 1792.53,40.1126 1795.5,32.5 Z"/>
  <path opacity="0.962" fill="#70ad46" d="M 1951.5,22.5 C 1958.34,22.0385 1965.01,22.8718 1971.5,25C 1975.06,26.8917 1977.56,29.7251 1979,33.5C 1979.16,45.8624 1978.5,58.1958 1977,70.5C 1974.42,78.4135 1969.59,84.5801 1962.5,89C 1954.59,90.6827 1947.42,89.1827 1941,84.5C 1938.57,76.3945 1940.74,70.0611 1947.5,65.5C 1951.36,70.2635 1956.36,72.5969 1962.5,72.5C 1962.67,65.825 1962.5,59.1583 1962,52.5C 1958.5,56 1955,59.5 1951.5,63C 1947.68,63.5849 1944.01,63.0849 1940.5,61.5C 1939.84,56.8433 1939.17,52.1766 1938.5,47.5C 1938.68,44.7737 1939.18,42.1071 1940,39.5C 1943.69,33.661 1947.52,27.9943 1951.5,22.5 Z M 1954.5,33.5 C 1957.76,34.4617 1960.76,35.9617 1963.5,38C 1961.04,42.4265 1958.2,46.5931 1955,50.5C 1954.5,44.8431 1954.33,39.1764 1954.5,33.5 Z"/>
  <path opacity="0.953" fill="#6fad47" d="M 403.5,24.5 C 410.342,24.0385 417.009,24.8718 423.5,27C 427.058,28.8917 429.558,31.7251 431,35.5C 431.109,47.5261 430.443,59.5261 429,71.5C 426.423,79.4135 421.589,85.5801 414.5,90C 406.586,91.6827 399.419,90.1827 393,85.5C 390.619,77.6985 392.786,71.6985 399.5,67.5C 403.361,72.2635 408.361,74.5969 414.5,74.5C 414.666,67.4921 414.5,60.4921 414,53.5C 410.5,57 407,60.5 403.5,64C 399.678,64.5849 396.011,64.0849 392.5,62.5C 391.889,58.0022 391.223,53.5022 390.5,49C 390.762,46.4528 391.262,43.9528 392,41.5C 395.689,35.661 399.522,29.9943 403.5,24.5 Z M 406.5,34.5 C 409.929,35.3814 412.929,37.0481 415.5,39.5C 413.164,44.1751 410.331,48.5084 407,52.5C 406.501,46.5092 406.334,40.5092 406.5,34.5 Z"/>
  <path opacity="0.958" fill="#6fad47" d="M 598.5,24.5 C 606.189,24.6129 613.855,25.1129 621.5,26C 620.833,27 620.167,28 619.5,29C 622.756,30.587 624.923,33.087 626,36.5C 628.702,50.9302 623.202,60.7635 609.5,66C 598.115,67.5572 589.615,63.3905 584,53.5C 582.288,45.9709 583.955,39.3042 589,33.5C 592.145,30.3683 595.312,27.3683 598.5,24.5 Z M 600.5,33.5 C 608.811,34.6596 612.478,39.493 611.5,48C 611.47,50.4241 611.137,52.7574 610.5,55C 605.626,54.629 602.126,52.129 600,47.5C 598.467,42.8403 598.634,38.1736 600.5,33.5 Z"/>
</svg>