<svg viewBox="0 0 725 97" fill-rule="evenodd" clip-rule="evenodd" xmlns="http://www.w3.org/2000/svg">
  <path opacity="0.936" fill="#6fad46" d="M 701.5,1.5 C 705.594,0.704625 708.761,2.03796 711,5.5C 722.763,24.2613 722.096,42.5946 709,60.5C 690.925,83.1202 667.425,93.6202 638.5,92C 613.903,85.3922 604.07,69.5589 609,44.5C 612.143,33.6874 618.643,25.5208 628.5,20C 643.442,11.7646 659.442,7.59791 676.5,7.5C 676.202,10.2646 675.202,12.7646 673.5,15C 660.684,16.6054 648.684,20.6054 637.5,27C 629.58,34.3404 627.414,43.1738 631,53.5C 637.935,68.1477 649.602,75.8143 666,76.5C 682.165,75.0047 692.165,66.338 696,50.5C 696.824,47.1177 696.657,43.7844 695.5,40.5C 685.512,34.1919 681.179,25.1919 682.5,13.5C 688.391,8.72536 694.725,4.72536 701.5,1.5 Z"/>
  <path opacity="0.928" fill="#6fad46" d="M 87.5,2.5 C 94.8409,2.33368 102.174,2.50034 109.5,3C 117.358,5.5441 121.525,11.0441 122,19.5C 124.696,38.8716 127.529,58.2049 130.5,77.5C 122.092,79.637 113.758,81.9704 105.5,84.5C 105.532,74.8174 105.199,65.1507 104.5,55.5C 95.1963,54.8295 85.8629,54.9962 76.5,56C 68.4221,66.0801 59.0888,74.7467 48.5,82C 34.9135,90.1751 21.2468,90.5085 7.5,83C 2.99142,79.1175 1.49142,74.2841 3,68.5C 9.84692,55.6685 20.3469,47.1685 34.5,43C 45.8098,41.2416 57.1432,41.0749 68.5,42.5C 70.7277,41.7814 72.561,40.448 74,38.5C 79.662,31.1787 84.8287,23.512 89.5,15.5C 88,15.1667 86.5,14.8333 85,14.5C 78.5275,15.4963 72.0275,16.163 65.5,16.5C 66.0084,13.1485 67.3418,10.1485 69.5,7.5C 75.5507,5.56553 81.5507,3.89886 87.5,2.5 Z M 98.5,22.5 C 100.688,29.9214 102.354,37.5881 103.5,45.5C 103.167,46.1667 102.833,46.8333 102.5,47.5C 96.4932,46.4429 90.4932,45.2763 84.5,44C 89.81,37.203 94.4766,30.0364 98.5,22.5 Z M 51.5,55.5 C 55.1817,55.3347 58.8484,55.5014 62.5,56C 56.8333,62.3333 51.1667,68.6667 45.5,75C 39.1433,77.5412 33.3099,76.7079 28,72.5C 25.6509,67.3118 26.1509,62.4784 29.5,58C 36.989,57.2095 44.3224,56.3761 51.5,55.5 Z"/>
  <path opacity="0.915" fill="#6fad46" d="M 190.5,2.5 C 194.287,1.81442 197.454,2.81442 200,5.5C 201.333,8.83333 202.667,12.1667 204,15.5C 206.114,11.052 209.281,7.552 213.5,5C 216.449,4.15275 218.782,4.98608 220.5,7.5C 214.039,23.3824 207.872,39.3824 202,55.5C 197.623,69.1015 190.123,80.6015 179.5,90C 159.773,89.8905 144.939,81.3905 135,64.5C 133.41,62.3502 132.743,60.0168 133,57.5C 135.667,53.5 138.333,49.5 141,45.5C 141.739,44.4258 142.739,43.7591 144,43.5C 153.852,58.77 167.852,67.77 186,70.5C 192.512,55.3036 197.179,39.6369 200,23.5C 197.262,25.9074 194.262,27.9074 191,29.5C 187.364,25.5343 183.364,21.8676 179,18.5C 178.333,17.5 178.333,16.5 179,15.5C 182.67,10.9983 186.503,6.66501 190.5,2.5 Z"/>
  <path opacity="0.931" fill="#6fad46" d="M 561.5,2.5 C 571.233,2.10908 580.9,2.60908 590.5,4C 597.448,5.38148 602.948,8.88148 607,14.5C 607.271,20.6345 605.271,25.9678 601,30.5C 594.445,37.8573 586.612,43.3573 577.5,47C 584.77,47.5675 591.77,49.2342 598.5,52C 604.908,55.3228 607.075,60.4895 605,67.5C 601.774,82.7317 592.441,90.7317 577,91.5C 570.614,91.4894 564.447,90.3227 558.5,88C 556.018,84.5675 555.185,80.7342 556,76.5C 558.932,71.6232 562.099,66.9565 565.5,62.5C 570.422,72.7928 578.422,76.9595 589.5,75C 587.553,70.72 584.553,67.3867 580.5,65C 572.103,60.7634 563.436,59.9301 554.5,62.5C 548.334,76.5842 537.667,84.9176 522.5,87.5C 515.786,87.2243 510.619,84.2243 507,78.5C 499.333,67.8698 498.5,56.5364 504.5,44.5C 505.5,43.1667 506.5,43.1667 507.5,44.5C 513.409,54.2425 521.409,61.7425 531.5,67C 536.956,69.9072 541.123,68.7406 544,63.5C 546.336,50.1522 547.836,36.8188 548.5,23.5C 540.142,25.0382 531.809,26.7048 523.5,28.5C 525.899,21.872 529.232,15.7054 533.5,10C 542.798,6.84458 552.131,4.34458 561.5,2.5 Z M 557.5,47.5 C 558.833,39.168 560.166,30.8347 561.5,22.5C 568.873,21.2143 576.207,21.381 583.5,23C 586.446,23.8061 589.112,25.1395 591.5,27C 580.001,33.6888 568.667,40.5221 557.5,47.5 Z"/>
  <path opacity="0.916" fill="#385523" d="M 286.5,4.5 C 288.5,4.5 290.5,4.5 292.5,4.5C 291.676,16.9855 291.01,29.4855 290.5,42C 290.507,49.7353 291.174,57.4019 292.5,65C 292.355,65.772 292.022,66.4387 291.5,67C 285.889,68.2687 280.222,69.102 274.5,69.5C 274.111,64.496 273.611,59.496 273,54.5C 269.167,59 265.333,63.5 261.5,68C 257.678,68.5849 254.011,68.0849 250.5,66.5C 249.609,58.5153 249.442,50.5153 250,42.5C 252.238,34.9282 256.738,29.0949 263.5,25C 266.562,24.2585 269.562,24.4252 272.5,25.5C 274.069,19.6269 274.902,13.6269 275,7.5C 278.965,6.65286 282.798,5.65286 286.5,4.5 Z M 265.5,37.5 C 267.861,37.6741 270.194,38.0074 272.5,38.5C 271.404,43.3579 269.238,47.6912 266,51.5C 265.501,46.8452 265.334,42.1785 265.5,37.5 Z"/>
  <path opacity="0.897" fill="#375522" d="M 320.5,25.5 C 324.182,25.3347 327.848,25.5014 331.5,26C 332.308,26.3076 332.975,26.8076 333.5,27.5C 332.001,32.8277 330.501,38.161 329,43.5C 327.951,44.5171 326.784,44.6838 325.5,44C 321.469,39.2591 318.636,40.0924 317,46.5C 316.332,51.9955 318.832,54.3288 324.5,53.5C 323.978,58.067 322.645,62.4003 320.5,66.5C 305.085,70.4206 297.752,64.4206 298.5,48.5C 299.188,41.181 299.521,33.8477 299.5,26.5C 304.862,26.4724 310.195,26.8058 315.5,27.5C 315.338,29.5273 315.505,31.5273 316,33.5C 316.738,30.3515 318.238,27.6848 320.5,25.5 Z"/>
  <path opacity="0.912" fill="#375522" d="M 395.5,25.5 C 396.833,25.5 398.167,25.5 399.5,25.5C 399.215,27.288 399.548,28.9547 400.5,30.5C 405.712,25.4302 411.712,24.2635 418.5,27C 420.81,28.6374 422.31,30.804 423,33.5C 423.651,42.9604 422.818,52.2937 420.5,61.5C 416.833,64 413.167,66.5 409.5,69C 407.655,70.128 405.655,70.628 403.5,70.5C 404.871,63.9025 405.871,57.2358 406.5,50.5C 406.405,45.5104 405.238,40.8437 403,36.5C 402,37.5 401,38.5 400,39.5C 399.401,48.516 399.568,57.516 400.5,66.5C 394.5,67.1667 388.5,67.8333 382.5,68.5C 382.333,55.8289 382.5,43.1623 383,30.5C 387.289,28.9089 391.456,27.2422 395.5,25.5 Z"/>
  <path opacity="0.927" fill="#385523" d="M 438.5,25.5 C 444.199,25.3119 449.866,25.6452 455.5,26.5C 462.209,27.4141 465.209,31.2474 464.5,38C 464.456,41.5697 463.956,45.0697 463,48.5C 458.001,51.7264 452.501,53.2264 446.5,53C 448.468,54.5442 450.635,55.7109 453,56.5C 456.156,55.0012 459.323,53.6679 462.5,52.5C 459.431,66.5491 450.765,71.7158 436.5,68C 432.23,66.3214 429.73,63.1548 429,58.5C 428.333,50.5 428.333,42.5 429,34.5C 432.062,31.2678 435.229,28.2678 438.5,25.5 Z M 444.5,37.5 C 448.88,38.2236 450.88,40.8903 450.5,45.5C 448.194,45.9926 445.861,46.3259 443.5,46.5C 443.963,43.5176 444.296,40.5176 444.5,37.5 Z"/>
  <path opacity="0.916" fill="#385522" d="M 349.5,26.5 C 357.17,26.778 364.836,27.1114 372.5,27.5C 372.67,28.8221 372.337,29.9887 371.5,31C 378.901,38.3337 380.401,46.8337 376,56.5C 364.124,72.2876 350.79,73.621 336,60.5C 332.482,53.005 332.816,45.6716 337,38.5C 340.486,33.6952 344.653,29.6952 349.5,26.5 Z M 352.5,36.5 C 358.797,38.473 362.13,42.8064 362.5,49.5C 361.607,52.0841 361.274,54.7508 361.5,57.5C 350.957,53.8963 347.957,46.8963 352.5,36.5 Z"/>
  <path opacity="0.893" fill="#ada9a9" d="M 214.5,41.5 C 225.5,41.5 236.5,41.5 247.5,41.5C 247.5,43.8333 247.5,46.1667 247.5,48.5C 236.479,48.653 225.479,48.3197 214.5,47.5C 214.5,45.5 214.5,43.5 214.5,41.5 Z"/>
  <path opacity="0.902" fill="#ada9a9" d="M 466.5,41.5 C 477.5,41.5 488.5,41.5 499.5,41.5C 499.5,43.8333 499.5,46.1667 499.5,48.5C 488.479,48.653 477.479,48.3197 466.5,47.5C 466.5,45.5 466.5,43.5 466.5,41.5 Z"/>
</svg>