<svg width="48" height="48" viewBox="0 0 48 48" fill-rule="evenodd" clip-rule="evenodd" xmlns="http://www.w3.org/2000/svg"><defs><linearGradient id="backgroundgrad" x1="0%" y1="0%" x2="100%" y2="0%"><stop offset="0%" stop-color="#cde4e2" /><stop offset="100%" stop-color="#e0e6e2" /></linearGradient><linearGradient id="bordergrad" x1="0%" y1="0%" x2="100%" y2="0%"><stop offset="0%" stop-color="#3499ba" /><stop offset="100%" stop-color="#7db7c7" /></linearGradient></defs><rect x="1" y="1" rx="8" ry="8" width="46" height="46" fill="url(#backgroundgrad)" stroke="url(#bordergrad)" stroke-width="2" /><svg x="5" y="5" width="38" height="38" viewBox="0 0 100 100"><svg x="-24" y="-17" width="100" height="131" viewBox="0 0 100 100" preserveAspectRatio="none"><path fill="#7c8ca3" d="M67.978,70.921h-0.5c-1.238,0-2.25-1.012-2.25-2.25v-49.5c0-1.237,1.012-2.25,2.25-2.25h0.5c1.238,0,2.25,1.013,2.25,2.25v49.5C70.228,69.909,69.216,70.921,67.978,70.921z"/><path fill="#1f212b" d="M67.978,71.921h-0.5c-1.792,0-3.25-1.458-3.25-3.25v-49.5c0-1.792,1.458-3.25,3.25-3.25h0.5c1.792,0,3.25,1.458,3.25,3.25v49.5C71.228,70.463,69.77,71.921,67.978,71.921z M67.478,17.921c-0.689,0-1.25,0.561-1.25,1.25v49.5c0,0.689,0.561,1.25,1.25,1.25h0.5c0.689,0,1.25-0.561,1.25-1.25v-49.5c0-0.689-0.561-1.25-1.25-1.25H67.478z"/><path fill="#8f9eb6" d="M57.978,29.449c0.001-6.674-4.011-12.407-9.749-14.92v13.508c0.001,1.25-0.475,2.499-1.426,3.452c-0.952,0.954-2.201,1.432-3.449,1.432l-3.25,0.001c-1.248,0-2.494-0.479-3.446-1.432c-0.952-0.954-1.429-2.201-1.429-3.451V14.53c-5.917,2.59-9.999,8.607-9.738,15.547c0.238,6.315,4.206,11.801,9.738,14.263v37.164c0,3.529,2.887,6.417,6.417,6.417h0.167c3.529,0,6.417-2.888,6.417-6.417V44.35C53.963,41.836,57.979,36.12,57.978,29.449z"/><path fill="#1f212b" d="M41.811,88.921h-0.166c-4.09,0-7.417-3.327-7.417-7.417V44.977c-5.702-2.802-9.5-8.565-9.736-14.862c-0.271-7.156,3.787-13.634,10.335-16.501c0.312-0.136,0.666-0.106,0.948,0.079c0.283,0.185,0.453,0.499,0.453,0.837v13.509c0,1.036,0.403,2.011,1.136,2.744c0.733,0.734,1.707,1.139,2.74,1.14l3.249-0.001c1.035,0,2.009-0.404,2.742-1.139c0.731-0.732,1.134-1.708,1.133-2.744V14.53c0-0.338,0.17-0.652,0.453-0.837c0.281-0.186,0.638-0.215,0.948-0.079c6.288,2.752,10.35,8.968,10.348,15.835c0.001,6.633-3.804,12.662-9.749,15.541v36.515C49.228,85.594,45.901,88.921,41.811,88.921z M34.228,16.145c-4.961,2.796-7.957,8.093-7.738,13.895c0.217,5.756,3.806,11.011,9.146,13.389c0.36,0.16,0.593,0.519,0.593,0.913v37.163c0,2.987,2.43,5.417,5.417,5.417h0.166c2.987,0,5.417-2.43,5.417-5.417V44.35c0-0.397,0.235-0.757,0.599-0.916c5.56-2.437,9.151-7.927,9.15-13.985l0,0c0.002-5.546-2.994-10.611-7.749-13.303v11.892c0.001,1.57-0.608,3.047-1.718,4.158c-1.111,1.113-2.588,1.726-4.157,1.726l-3.25,0.001c-1.568-0.001-3.043-0.614-4.153-1.726c-1.11-1.111-1.722-2.588-1.722-4.158V16.145z"/><path fill="LightGrey" d="M41.728,81.421L41.728,81.421c-1.1,0-2-0.9-2-2v0c0-1.1,0.9-2,2-2h0c1.1,0,2,0.9,2,2v0C43.728,80.521,42.828,81.421,41.728,81.421z"/><path fill="#1f212b" d="M41.728,81.921c-1.379,0-2.5-1.121-2.5-2.5s1.121-2.5,2.5-2.5s2.5,1.121,2.5,2.5S43.107,81.921,41.728,81.921z M41.728,77.921c-0.827,0-1.5,0.673-1.5,1.5s0.673,1.5,1.5,1.5s1.5-0.673,1.5-1.5S42.555,77.921,41.728,77.921z"/><path fill="#f37e98" d="M61.228,56.921l0,23.496c0,3.587,2.367,6.824,5.67,7.28c3.941,0.545,7.33-2.856,7.33-7.085V56.921H61.228z"/><path fill="#1f212b" d="M67.733,88.755c-0.322,0-0.646-0.022-0.972-0.067c-3.725-0.515-6.533-4.07-6.533-8.271V56.921c0-0.553,0.447-1,1-1h13c0.553,0,1,0.447,1,1v23.691c0,2.476-1.026,4.791-2.816,6.351C71.066,88.136,69.433,88.755,67.733,88.755z M62.228,57.921v22.496c0,3.206,2.066,5.91,4.807,6.29c1.462,0.199,2.905-0.243,4.062-1.252c1.354-1.18,2.131-2.945,2.131-4.843V57.921H62.228z"/><path fill="#8f9eb6" d="M64.914 15.921L70.606 15.921 72.708 26.921 70.375 28.921 65.375 28.921 62.812 26.921z"/><path fill="#1f212b" d="M70.375,29.921h-5c-0.223,0-0.439-0.074-0.615-0.212l-2.562-2c-0.296-0.23-0.438-0.607-0.367-0.976l2.102-11c0.09-0.472,0.503-0.812,0.982-0.812h5.692c0.479,0,0.893,0.341,0.982,0.812l2.102,11c0.067,0.352-0.06,0.713-0.332,0.946l-2.333,2C70.845,29.836,70.613,29.921,70.375,29.921z M65.719,27.921h4.286l1.612-1.382l-1.838-9.618h-4.038l-1.832,9.588L65.719,27.921z"/><path fill="#ef5390" d="M65.478,80.421h-0.5c-0.688,0-1.25-0.562-1.25-1.25v-17.5c0-0.687,0.562-1.25,1.25-1.25h0.5c0.688,0,1.25,0.562,1.25,1.25v17.5C66.728,79.859,66.166,80.421,65.478,80.421z"/><path fill="#1f212b" d="M65.478,80.921h-0.5c-0.965,0-1.75-0.785-1.75-1.75v-17.5c0-0.965,0.785-1.75,1.75-1.75h0.5c0.965,0,1.75,0.785,1.75,1.75v17.5C67.228,80.136,66.443,80.921,65.478,80.921z M64.978,60.921c-0.413,0-0.75,0.337-0.75,0.75v17.5c0,0.413,0.337,0.75,0.75,0.75h0.5c0.413,0,0.75-0.337,0.75-0.75v-17.5c0-0.413-0.337-0.75-0.75-0.75H64.978z"/><path fill="#ef5390" d="M70.478,80.421h-0.5c-0.688,0-1.25-0.562-1.25-1.25v-17.5c0-0.687,0.562-1.25,1.25-1.25h0.5c0.688,0,1.25,0.562,1.25,1.25v17.5C71.728,79.859,71.166,80.421,70.478,80.421z"/><path fill="#1f212b" d="M70.478 80.921h-.5c-.965 0-1.75-.785-1.75-1.75v-17.5c0-.965.785-1.75 1.75-1.75h.5c.965 0 1.75.785 1.75 1.75v17.5C72.228 80.136 71.443 80.921 70.478 80.921zM69.978 60.921c-.413 0-.75.337-.75.75v17.5c0 .413.337.75.75.75h.5c.413 0 .75-.337.75-.75v-17.5c0-.413-.337-.75-.75-.75H69.978zM38.728 64.921c-.276 0-.5-.224-.5-.5v-18c0-.276.224-.5.5-.5s.5.224.5.5v18C39.228 64.698 39.005 64.921 38.728 64.921zM38.728 69.921c-.276 0-.5-.224-.5-.5v-4c0-.276.224-.5.5-.5s.5.224.5.5v4C39.228 69.698 39.005 69.921 38.728 69.921zM38.728 73.921c-.276 0-.5-.224-.5-.5v-2c0-.276.224-.5.5-.5s.5.224.5.5v2C39.228 73.698 39.005 73.921 38.728 73.921z"/></svg><svg x="28" y="-17" width="97" height="116" viewBox="0 0 100 100" preserveAspectRatio="none"><g transform="rotate(-45 50 50)"><path fill="#fed5b3" d="M58.873,28.861l1.489,1.711L13.897,77.014c-1.588,1.587-1.588,4.161-0.001,5.748 c1.587,1.588,4.161,1.588,5.748,0.001l46.465-46.442L58.873,28.861z"/><path fill="#f15b6c" d="M25.194,77.545l-6.404,5.947c-1.214,1.127-3.112,1.057-4.24-0.157l-1.065-1.147 c-1.127-1.214-1.057-3.112,0.157-4.24l6.404-5.947L25.194,77.545z"/><path fill="#b2b1c2" d="M87.515,40.869l-1.473-1.473c-1.168-1.168-2.769-1.636-4.286-1.406 c-0.847,0.129-1.699-0.213-2.305-0.819l-0.05-0.05c-1.254-1.255-1.254-3.289,0.001-4.543l0.086-0.086L66.881,19.38 c-6.205-2.904-13.979-3.743-20.356-1.238l-2.989,1.175l4.004,0.472c4.99,0.588,9.61,2.927,13.038,6.601l0,0l-2.573,2.571 l1.489,1.711l5.747,5.749l5.209,5.105l0.008-0.008c1.19-1.189,3.118-1.189,4.307,0.001l0,0c0.674,0.674,1.014,1.629,0.856,2.57 c-0.256,1.532,0.199,3.157,1.382,4.341l1.473,1.474c0.781,0.781,2.047,0.781,2.828,0.001l6.21-6.208 C88.296,42.917,88.296,41.65,87.515,40.869z"/><rect width="17.352" height="12.248" x="60.563" y="25.047" fill="#e0decf" transform="rotate(43.699 69.234 31.167)"/><polygon fill="#e0decf" points="89.75,43.521 80.78,51.341 76.351,45.31 82.894,37.516"/><path fill="#1f212b" d="M16.698,85.357C16.698,85.357,16.698,85.357,16.698,85.357c-1.354-0.001-2.625-0.527-3.582-1.484 c-1.974-1.976-1.973-5.188,0.001-7.162l45.805-45.782l-0.876-1.008c-0.344-0.396-0.324-0.992,0.048-1.363l1.873-1.872 c-3.183-3.101-7.319-5.079-11.748-5.601l-4.004-0.472c-0.455-0.054-0.816-0.41-0.875-0.865c-0.059-0.454,0.199-0.891,0.626-1.059 l2.989-1.175c6.279-2.467,14.185-1.995,21.146,1.264c0.111,0.052,0.212,0.124,0.297,0.212l12.608,13.111 c0.378,0.394,0.372,1.018-0.016,1.402l-0.086,0.086c-0.86,0.861-0.861,2.266,0.001,3.128c0.46,0.461,1,0.659,1.497,0.587 c1.881-0.284,3.803,0.347,5.144,1.688l1.473,1.474c1.169,1.17,1.168,3.072-0.001,4.242l-6.21,6.208 c-1.171,1.17-3.074,1.168-4.243-0.001l-1.473-1.474c-1.359-1.359-1.98-3.308-1.661-5.213c0.101-0.601-0.115-1.235-0.577-1.697 c-0.387-0.387-0.9-0.6-1.446-0.6c0,0,0,0,0,0c-0.546,0-1.06,0.212-1.446,0.599c-0.388,0.388-1.023,0.4-1.415,0.015l-4.503-4.412 L20.279,83.874C19.322,84.83,18.051,85.357,16.698,85.357z M60.168,29.313l0.876,1.008c0.344,0.396,0.324,0.992-0.048,1.363 L14.532,78.125c-1.195,1.194-1.195,3.139,0,4.334c1.194,1.195,3.138,1.194,4.333,0.001L65.33,36.019 c0.388-0.389,1.016-0.392,1.407-0.007l4.587,4.495c0.623-0.375,1.338-0.575,2.083-0.575h0c1.081,0,2.097,0.421,2.861,1.186 c0.917,0.917,1.342,2.204,1.135,3.441c-0.212,1.269,0.2,2.565,1.103,3.469l1.473,1.474c0.391,0.391,1.025,0.391,1.415,0 l6.209-6.207c0.39-0.39,0.39-1.024,0-1.414l-1.473-1.474c-0.907-0.907-2.157-1.316-3.429-1.125c-1.12,0.175-2.303-0.24-3.162-1.1 c-1.477-1.478-1.664-3.702-0.595-5.337L67.087,20.512c-6.06-2.785-13.104-3.309-18.642-1.414l0.008,0.001 c5.218,0.615,10.066,3.069,13.651,6.912c0.367,0.395,0.356,1.009-0.024,1.39L60.168,29.313z"/><path fill="#1f212b" d="M61.941,26.786c-0.129,0-0.259-0.05-0.357-0.15c-0.193-0.196-0.19-0.514,0.007-0.707l6.142-6.023 c0.196-0.192,0.514-0.191,0.707,0.008c0.193,0.196,0.19,0.514-0.007,0.707l-6.142,6.023C62.194,26.738,62.068,26.786,61.941,26.786 z"/><path fill="#1f212b" d="M66.921,38.836c-0.133,0-0.267-0.053-0.365-0.158l-6.834-7.301 c-0.188-0.202-0.178-0.519,0.023-0.707c0.202-0.187,0.518-0.179,0.707,0.023l6.834,7.301c0.188,0.202,0.178,0.519-0.023,0.707 C67.166,38.791,67.043,38.836,66.921,38.836z"/><path fill="#1f212b" d="M76.478,45.095c-0.117,0-0.233-0.04-0.328-0.122c-0.208-0.182-0.23-0.497-0.049-0.706l5.736-6.603 c0.181-0.207,0.498-0.23,0.706-0.05c0.208,0.182,0.23,0.497,0.049,0.706l-5.736,6.603C76.756,45.036,76.617,45.095,76.478,45.095z"/><path fill="#1f212b" d="M71.497,41.676c-0.128,0-0.256-0.049-0.354-0.146c-0.195-0.195-0.195-0.512,0-0.707l8.633-8.63 c0.195-0.195,0.512-0.195,0.707,0s0.195,0.512,0,0.707l-8.633,8.63C71.752,41.627,71.625,41.676,71.497,41.676z"/><path fill="#1f212b" d="M25.135,78.052c-0.127,0-0.254-0.048-0.352-0.145l-5.618-5.563 c-0.196-0.194-0.198-0.511-0.003-0.707c0.195-0.196,0.511-0.198,0.707-0.004l5.618,5.563c0.196,0.194,0.198,0.511,0.004,0.707 C25.392,78.002,25.264,78.052,25.135,78.052z"/></g></svg></svg></svg>