<svg viewBox="0 0 1221 107" fill-rule="evenodd" clip-rule="evenodd" xmlns="http://www.w3.org/2000/svg">
  <path opacity="0.897" fill="#363944" d="M 695.5,4.5 C 697.591,4.31845 699.591,4.65178 701.5,5.5C 702.247,27.1667 702.914,48.8334 703.5,70.5C 703.167,72.8333 702.833,75.1667 702.5,77.5C 699.652,79.1498 697.152,78.8164 695,76.5C 695.189,68.5081 695.189,60.5081 695,52.5C 693.161,59.1789 690.494,65.5122 687,71.5C 682.632,79.5931 676.132,82.4264 667.5,80C 663.979,76.6108 662.313,72.4441 662.5,67.5C 664.985,51.843 672.651,39.343 685.5,30C 688.351,28.7114 691.351,28.2114 694.5,28.5C 694.199,20.4144 694.533,12.4144 695.5,4.5 Z M 686.5,38.5 C 688.329,40.4336 690.329,41.1003 692.5,40.5C 689.474,49.55 685.64,58.2167 681,66.5C 678.933,69.07 676.433,71.07 673.5,72.5C 671.753,70.956 670.753,68.956 670.5,66.5C 673.254,55.6548 678.587,46.3215 686.5,38.5 Z"/>
  <path opacity="0.885" fill="#353944" d="M 139.5,10.5 C 141.527,10.3379 143.527,10.5045 145.5,11C 146.126,11.7504 146.626,12.5838 147,13.5C 148.212,30.8028 148.878,48.1361 149,65.5C 152.96,52.7423 159.127,41.2423 167.5,31C 172.772,28.3818 177.272,29.2151 181,33.5C 182.625,37.3321 183.625,41.3321 184,45.5C 184.821,58.0756 184.655,70.5756 183.5,83C 180.901,83.769 178.401,83.6023 176,82.5C 176.419,70.181 176.419,57.8477 176,45.5C 174.869,35.7608 171.869,35.0941 167,43.5C 160.451,56.5964 154.451,69.9297 149,83.5C 146.667,86.1667 144.333,86.1667 142,83.5C 141.751,60.6143 140.585,37.781 138.5,15C 138.605,13.4085 138.939,11.9085 139.5,10.5 Z"/>
  <path opacity="0.853" fill="#343642" d="M 196.5,11.5 C 202.343,11.9898 204.676,14.9898 203.5,20.5C 199.263,22.2169 195.763,21.2169 193,17.5C 192.372,14.4203 193.538,12.4203 196.5,11.5 Z"/>
  <path opacity="0.883" fill="#353944" d="M 234.5,17.5 C 236.833,17.5 239.167,17.5 241.5,17.5C 240.768,24.4756 240.435,31.4756 240.5,38.5C 247.118,38.5857 253.118,36.919 258.5,33.5C 263.15,34.2656 264.65,36.9322 263,41.5C 262.25,42.1258 261.416,42.6258 260.5,43C 253.74,44.1811 247.073,45.6811 240.5,47.5C 241.069,57.1934 242.069,66.8601 243.5,76.5C 243.167,80.9894 240.833,82.4894 236.5,81C 235.874,80.2496 235.374,79.4162 235,78.5C 233.4,68.2313 232.4,57.8979 232,47.5C 226.013,50.0662 219.847,50.7328 213.5,49.5C 212.24,47.6471 212.24,45.8138 213.5,44C 219.598,43.2804 225.598,42.1137 231.5,40.5C 232.331,33.8581 232.831,27.1915 233,20.5C 233.513,19.4734 234.013,18.4734 234.5,17.5 Z"/>
  <path opacity="0.888" fill="#353844" d="M 367.5,17.5 C 369.833,17.5 372.167,17.5 374.5,17.5C 374.5,24.5 374.5,31.5 374.5,38.5C 380.915,38.3943 386.748,36.7276 392,33.5C 398.138,35.2491 398.971,38.4157 394.5,43C 387.841,44.2765 381.174,45.4431 374.5,46.5C 374.038,56.827 375.038,66.9937 377.5,77C 376.252,81.1207 373.585,82.2874 369.5,80.5C 368.902,79.2054 368.402,77.8721 368,76.5C 366.88,66.8702 366.214,57.2036 366,47.5C 360.053,49.8604 353.886,50.6937 347.5,50C 345.398,48.2672 345.065,46.2672 346.5,44C 353.482,43.572 360.149,42.072 366.5,39.5C 365.007,32.0567 365.341,24.7234 367.5,17.5 Z"/>
  <path opacity="0.883" fill="#353944" d="M 1144.5,17.5 C 1146.83,17.5 1149.17,17.5 1151.5,17.5C 1150.77,24.4756 1150.44,31.4756 1150.5,38.5C 1157.12,38.5857 1163.12,36.919 1168.5,33.5C 1173.15,34.2656 1174.65,36.9322 1173,41.5C 1172.25,42.1258 1171.42,42.6258 1170.5,43C 1163.74,44.1811 1157.07,45.6811 1150.5,47.5C 1151.07,57.1934 1152.07,66.8601 1153.5,76.5C 1153.17,80.9894 1150.83,82.4894 1146.5,81C 1145.87,80.2496 1145.37,79.4162 1145,78.5C 1143.4,68.2313 1142.4,57.8979 1142,47.5C 1136.01,50.0662 1129.85,50.7328 1123.5,49.5C 1122.24,47.6471 1122.24,45.8138 1123.5,44C 1129.6,43.2804 1135.6,42.1137 1141.5,40.5C 1142.33,33.8581 1142.83,27.1915 1143,20.5C 1143.51,19.4734 1144.01,18.4734 1144.5,17.5 Z"/>
  <path opacity="0.901" fill="#353844" d="M 117.5,28.5 C 128.956,27.4543 132.623,32.2877 128.5,43C 126.888,43.7203 125.388,43.5536 124,42.5C 123.505,40.5273 123.338,38.5273 123.5,36.5C 121.097,36.393 119.264,37.393 118,39.5C 110.864,49.067 107.697,59.7337 108.5,71.5C 110.55,72.6627 112.55,72.4961 114.5,71C 119.534,66.3012 124.2,61.3012 128.5,56C 130.473,55.5045 132.473,55.3379 134.5,55.5C 133.379,59.4736 131.546,63.1403 129,66.5C 125.167,70.3333 121.333,74.1667 117.5,78C 106.222,83.3622 99.8892,79.8622 98.5,67.5C 99.8173,51.8686 106.151,38.8686 117.5,28.5 Z"/>
  <path opacity="0.901" fill="#353844" d="M 329.5,28.5 C 340.956,27.4543 344.623,32.2877 340.5,43C 338.888,43.7203 337.388,43.5536 336,42.5C 335.505,40.5273 335.338,38.5273 335.5,36.5C 333.097,36.393 331.264,37.393 330,39.5C 322.864,49.067 319.697,59.7337 320.5,71.5C 322.55,72.6627 324.55,72.4961 326.5,71C 331.534,66.3012 336.2,61.3012 340.5,56C 342.473,55.5045 344.473,55.3379 346.5,55.5C 345.379,59.4736 343.546,63.1403 341,66.5C 337.167,70.3333 333.333,74.1667 329.5,78C 318.222,83.3622 311.889,79.8622 310.5,67.5C 311.817,51.8686 318.151,38.8686 329.5,28.5 Z"/>
  <path opacity="0.880" fill="#363944" d="M 755.5,28.5 C 766.484,27.3166 770.318,31.9833 767,42.5C 764.978,43.9909 763.312,43.6576 762,41.5C 762.441,34.3398 760.441,33.6731 756,39.5C 749.258,49.2165 746.091,59.8832 746.5,71.5C 747.723,72.6139 749.056,72.7805 750.5,72C 757.167,68 762.5,62.6667 766.5,56C 768.473,55.5045 770.473,55.3379 772.5,55.5C 771.824,59.1867 770.324,62.5201 768,65.5C 764.5,70.3333 760.333,74.5 755.5,78C 743.514,83.402 737.514,79.5687 737.5,66.5C 738.154,56.0373 741.321,46.3706 747,37.5C 749.362,33.9734 752.196,30.9734 755.5,28.5 Z"/>
  <path opacity="0.887" fill="#353844" d="M 822.5,28.5 C 824.527,28.3379 826.527,28.5045 828.5,29C 829.126,29.7504 829.626,30.5838 830,31.5C 831.082,42.4716 831.749,53.4716 832,64.5C 834.807,52.393 839.64,41.2263 846.5,31C 850.192,28.8408 853.692,29.0075 857,31.5C 858.407,37.755 859.407,44.0884 860,50.5C 861.346,44.4546 863.846,38.9546 867.5,34C 870.833,32 874.167,32 877.5,34C 879.58,37.2367 881.08,40.7367 882,44.5C 883.939,56.0999 884.606,67.7666 884,79.5C 881.865,81.2785 879.365,81.9452 876.5,81.5C 876.088,71.1659 875.588,60.8326 875,50.5C 874.844,46.8659 873.844,43.5326 872,40.5C 865.893,51.8178 861.56,63.8178 859,76.5C 856.581,79.7366 853.915,80.07 851,77.5C 851.595,64.8339 851.428,52.1673 850.5,39.5C 847.844,42.8012 845.678,46.4678 844,50.5C 840.137,60.4232 836.47,70.4232 833,80.5C 830.782,82.6187 828.282,82.952 825.5,81.5C 824.271,65.6846 822.938,49.8512 821.5,34C 821.581,32.0762 821.914,30.2429 822.5,28.5 Z"/>
  <path opacity="0.887" fill="#353844" d="M 1195.5,30.5 C 1199.17,30.5 1202.83,30.5 1206.5,30.5C 1206.95,33.3646 1206.28,35.8646 1204.5,38C 1197.87,37.5883 1191.87,39.255 1186.5,43C 1183.63,45.8402 1183.96,48.1735 1187.5,50C 1196.09,51.8973 1204.43,54.564 1212.5,58C 1216.69,65.891 1215.03,72.5576 1207.5,78C 1199.35,82.9641 1190.69,84.2974 1181.5,82C 1180.38,75.2826 1183.38,72.1159 1190.5,72.5C 1190.5,73.5 1190.5,74.5 1190.5,75.5C 1197.96,75.4403 1203.62,72.2737 1207.5,66C 1206.74,64.4878 1205.74,63.1545 1204.5,62C 1195.58,60.0852 1186.92,57.4185 1178.5,54C 1174.42,48.7972 1174.75,43.7972 1179.5,39C 1184.48,35.344 1189.82,32.5107 1195.5,30.5 Z"/>
  <path opacity="0.897" fill="#363844" d="M 36.5,30.5 C 41.814,29.7397 45.6473,31.7397 48,36.5C 49.7331,50.1926 50.7331,64.1926 51,78.5C 48.3333,81.1667 45.6667,81.1667 43,78.5C 42.5,76 42,73.5 41.5,71C 42.5127,66.5287 42.6794,62.0287 42,57.5C 36.8242,67.3767 29.3242,74.8767 19.5,80C 15.3749,80.8538 11.3749,80.5204 7.5,79C 4.64968,72.3199 5.14968,65.8199 9,59.5C 15.4823,47.1307 24.6489,37.4641 36.5,30.5 Z M 36.5,38.5 C 39.7343,38.2366 41.0676,39.7366 40.5,43C 36.9069,52.9448 31.2402,61.6114 23.5,69C 20.8524,71.0496 17.8524,72.2163 14.5,72.5C 14.2028,68.0888 15.3694,64.0888 18,60.5C 23.309,52.3651 29.4757,45.0318 36.5,38.5 Z"/>
  <path opacity="0.867" fill="#353944" d="M 82.5,30.5 C 86.7924,30.0349 90.7924,30.8682 94.5,33C 97.8203,37.9032 96.6537,41.0699 91,42.5C 88.4778,41.9824 86.4778,40.6491 85,38.5C 83.395,39.1007 82.0616,40.1007 81,41.5C 76.2498,48.4999 72.4164,55.9999 69.5,64C 70.5969,69.4599 70.7636,74.9599 70,80.5C 64.3948,82.6137 61.7282,80.6137 62,74.5C 61.5044,60.8158 61.1711,47.1491 61,33.5C 63.6667,32.1667 66.3333,32.1667 69,33.5C 69.3333,37.5 69.6667,41.5 70,45.5C 72.9311,39.4081 77.0978,34.4081 82.5,30.5 Z"/>
  <path opacity="0.909" fill="#353844" d="M 196.5,30.5 C 199.119,30.2317 201.619,30.565 204,31.5C 204.254,46.2013 205.088,60.8679 206.5,75.5C 206.167,77.5 205.833,79.5 205.5,81.5C 202.712,82.96 200.545,82.2933 199,79.5C 197.209,63.2176 196.376,46.8842 196.5,30.5 Z"/>
  <path opacity="0.897" fill="#353844" d="M 286.5,30.5 C 291.37,30.0316 296.036,30.6982 300.5,32.5C 304.163,39.2779 302.497,44.4445 295.5,48C 289.344,50.9955 283.011,53.4955 276.5,55.5C 275.151,59.8725 275.318,64.2058 277,68.5C 283.463,73.8871 289.463,73.2205 295,66.5C 298.005,62.4935 300.505,58.1602 302.5,53.5C 304.045,52.5481 305.712,52.2148 307.5,52.5C 306.201,67.9596 298.034,77.2929 283,80.5C 271.444,80.1089 265.944,74.1089 266.5,62.5C 267.12,47.9041 273.786,37.2374 286.5,30.5 Z M 287.5,37.5 C 290.073,37.1485 292.406,37.6485 294.5,39C 289.887,43.3066 284.554,45.9732 278.5,47C 281.029,43.3064 284.029,40.1397 287.5,37.5 Z"/>
  <path opacity="0.887" fill="#353844" d="M 431.5,30.5 C 433.827,30.6646 435.993,31.3313 438,32.5C 438.257,44.5255 438.924,56.5255 440,68.5C 440.473,70.779 441.473,72.779 443,74.5C 444.416,78.508 443.082,80.8413 439,81.5C 434.562,80.2789 432.228,77.2789 432,72.5C 431.333,65.8333 430.667,59.1667 430,52.5C 425.682,61.8077 420.182,70.3077 413.5,78C 410.081,80.8464 406.414,81.1798 402.5,79C 398.857,63.3833 400.357,48.2167 407,33.5C 409.153,31.5561 411.653,31.0561 414.5,32C 415.022,32.5613 415.355,33.228 415.5,34C 409.086,45.7398 406.919,58.2398 409,71.5C 419.135,59.2256 426.635,45.5589 431.5,30.5 Z"/>
  <path opacity="0.867" fill="#353944" d="M 472.5,30.5 C 476.792,30.0349 480.792,30.8682 484.5,33C 487.82,37.9032 486.654,41.0699 481,42.5C 478.478,41.9824 476.478,40.6491 475,38.5C 473.395,39.1007 472.062,40.1007 471,41.5C 466.25,48.4999 462.416,55.9999 459.5,64C 460.597,69.4599 460.764,74.9599 460,80.5C 454.395,82.6137 451.728,80.6137 452,74.5C 451.504,60.8158 451.171,47.1491 451,33.5C 453.667,32.1667 456.333,32.1667 459,33.5C 459.333,37.5 459.667,41.5 460,45.5C 462.931,39.4081 467.098,34.4081 472.5,30.5 Z"/>
  <path opacity="0.888" fill="#353844" d="M 511.5,30.5 C 515.967,30.1326 520.3,30.6326 524.5,32C 527.29,34.2103 528.123,37.0437 527,40.5C 524.833,44 522,46.8333 518.5,49C 512.793,51.5682 506.96,53.7348 501,55.5C 500.133,59.9558 500.466,64.2891 502,68.5C 505.478,72.6622 509.644,73.4956 514.5,71C 520.534,66.279 524.868,60.279 527.5,53C 530.237,51.9202 531.904,52.7536 532.5,55.5C 529.74,69.5939 521.406,77.9272 507.5,80.5C 499.698,80.3639 494.531,76.6972 492,69.5C 489.549,51.7346 496.049,38.7346 511.5,30.5 Z M 512.5,37.5 C 514.5,37.5 516.5,37.5 518.5,37.5C 518.67,38.8221 518.337,39.9887 517.5,41C 513.215,44.149 508.549,46.149 503.5,47C 506.029,43.3064 509.029,40.1397 512.5,37.5 Z"/>
  <path opacity="0.878" fill="#353844" d="M 595.5,30.5 C 600.023,30.1795 603.523,31.8462 606,35.5C 606.18,38.9555 606.847,42.2889 608,45.5C 608.19,56.2916 608.856,66.9582 610,77.5C 607.633,80.9318 604.966,81.2652 602,78.5C 600.74,71.6062 600.074,64.6062 600,57.5C 595.141,67.692 587.641,75.192 577.5,80C 569.445,82.7854 564.779,80.1187 563.5,72C 567.787,57.3565 575.787,45.0232 587.5,35C 590.099,33.205 592.766,31.705 595.5,30.5 Z M 595.5,38.5 C 599.225,38.7796 600.392,40.7796 599,44.5C 594.798,54.3774 588.631,62.8774 580.5,70C 578.091,71.7068 575.425,72.5402 572.5,72.5C 576.176,58.4863 583.843,47.153 595.5,38.5 Z"/>
  <path opacity="0.897" fill="#353844" d="M 1054.5,30.5 C 1059.37,30.0316 1064.04,30.6982 1068.5,32.5C 1072.16,39.2779 1070.5,44.4445 1063.5,48C 1057.34,50.9955 1051.01,53.4955 1044.5,55.5C 1043.15,59.8725 1043.32,64.2058 1045,68.5C 1051.46,73.8871 1057.46,73.2205 1063,66.5C 1066.01,62.4935 1068.51,58.1602 1070.5,53.5C 1072.05,52.5481 1073.71,52.2148 1075.5,52.5C 1074.2,67.9596 1066.03,77.2929 1051,80.5C 1039.44,80.1089 1033.94,74.1089 1034.5,62.5C 1035.12,47.9041 1041.79,37.2374 1054.5,30.5 Z M 1055.5,37.5 C 1058.07,37.1485 1060.41,37.6485 1062.5,39C 1057.89,43.3066 1052.55,45.9732 1046.5,47C 1049.03,43.3064 1052.03,40.1397 1055.5,37.5 Z"/>
  <path opacity="0.898" fill="#363944" d="M 621.5,31.5 C 624.238,30.9648 626.072,31.9648 627,34.5C 627.761,43.1594 628.428,51.826 629,60.5C 632.077,53.3478 635.41,46.3478 639,39.5C 642.462,34.2494 646.796,33.2494 652,36.5C 653.044,38.7148 653.71,41.0481 654,43.5C 654.667,56.1667 654.667,68.8333 654,81.5C 651.791,83.7064 649.291,84.0398 646.5,82.5C 646.343,69.1955 646.177,55.8622 646,42.5C 639.592,52.8759 634.426,63.8759 630.5,75.5C 628.211,77.5923 625.711,77.9256 623,76.5C 620.543,62.2678 619.21,47.9344 619,33.5C 619.995,32.9341 620.828,32.2674 621.5,31.5 Z"/>
  <path opacity="0.902" fill="#353844" d="M 902.5,31.5 C 906.241,30.5985 908.241,31.9319 908.5,35.5C 919.592,37.0288 929.426,41.3621 938,48.5C 941.82,55.7061 940.32,61.5394 933.5,66C 925.633,69.4379 917.466,71.6045 909,72.5C 908.608,75.1879 908.108,77.8546 907.5,80.5C 908.575,86.1343 908.742,91.8009 908,97.5C 905.619,98.435 903.119,98.7683 900.5,98.5C 900.5,89.8333 900.5,81.1667 900.5,72.5C 894.095,73.5938 891.762,70.9271 893.5,64.5C 895.833,64.5 898.167,64.5 900.5,64.5C 900.5,56.5 900.5,48.5 900.5,40.5C 894.504,41.6673 892.004,39.3339 893,33.5C 895.132,32.2203 897.298,32.2203 899.5,33.5C 900.739,33.0576 901.739,32.3909 902.5,31.5 Z M 907.5,41.5 C 913.651,43.1623 919.651,45.3289 925.5,48C 934.775,53.1265 934.441,57.7932 924.5,62C 919.292,63.8023 913.959,64.969 908.5,65.5C 908.558,57.4792 908.224,49.4792 907.5,41.5 Z"/>
  <path opacity="0.898" fill="#363944" d="M 1084.5,31.5 C 1087.24,30.9648 1089.07,31.9648 1090,34.5C 1090.76,43.1594 1091.43,51.826 1092,60.5C 1095.08,53.3478 1098.41,46.3478 1102,39.5C 1105.46,34.2494 1109.8,33.2494 1115,36.5C 1116.04,38.7148 1116.71,41.0481 1117,43.5C 1117.67,56.1667 1117.67,68.8333 1117,81.5C 1114.79,83.7064 1112.29,84.0398 1109.5,82.5C 1109.34,69.1955 1109.18,55.8622 1109,42.5C 1102.59,52.8759 1097.43,63.8759 1093.5,75.5C 1091.21,77.5923 1088.71,77.9256 1086,76.5C 1083.54,62.2678 1082.21,47.9344 1082,33.5C 1082.99,32.9341 1083.83,32.2674 1084.5,31.5 Z"/>
  <path opacity="0.901" fill="#353844" d="M 991.5,31.5 C 993.467,31.2606 995.301,31.5939 997,32.5C 997.959,41.5084 998.959,50.5084 1000,59.5C 1002.76,52.2077 1006.1,45.2077 1010,38.5C 1013.31,34.6481 1017.31,33.6481 1022,35.5C 1023.94,39.9435 1024.94,44.6101 1025,49.5C 1025.82,60.41 1025.65,71.2433 1024.5,82C 1022.04,83.6305 1019.54,83.7972 1017,82.5C 1016.42,72.8247 1016.59,63.1581 1017.5,53.5C 1017.58,50.0454 1017.08,46.7121 1016,43.5C 1013.16,47.1718 1010.83,51.1718 1009,55.5C 1006.33,62.1667 1003.67,68.8333 1001,75.5C 998.582,77.6801 995.916,78.0135 993,76.5C 991.201,62.1757 989.867,47.8424 989,33.5C 989.995,32.9341 990.828,32.2674 991.5,31.5 Z"/>
  <path opacity="0.886" fill="#353844" d="M 790.5,33.5 C 792.5,33.8333 794.5,34.1667 796.5,34.5C 796.714,36.1439 796.38,37.6439 795.5,39C 798.146,39.4974 800.813,39.6641 803.5,39.5C 805.289,43.812 808.123,47.4786 812,50.5C 815.724,63.2371 811.557,72.7371 799.5,79C 781.904,84.0626 774.07,77.5626 776,59.5C 777.201,53.2316 779.201,47.2316 782,41.5C 784.098,37.8972 786.932,35.2305 790.5,33.5 Z M 791.5,43.5 C 795.448,47.2726 799.614,50.9392 804,54.5C 806.037,58.3344 805.704,62.001 803,65.5C 800.262,69.7577 796.429,72.091 791.5,72.5C 785.776,72.5794 783.443,69.7461 784.5,64C 785.149,56.5513 787.483,49.7179 791.5,43.5 Z"/>
  <path opacity="0.903" fill="#353844" d="M 958.5,33.5 C 960.655,33.372 962.655,33.872 964.5,35C 965.711,36.1131 965.711,37.2798 964.5,38.5C 967.086,39.48 969.753,39.8134 972.5,39.5C 972.351,40.552 972.517,41.552 973,42.5C 985.143,52.695 985.643,63.5283 974.5,75C 967.212,80.512 959.212,81.8454 950.5,79C 948.094,77.378 946.261,75.2114 945,72.5C 943.495,60.6901 945.829,49.6901 952,39.5C 953.494,36.6865 955.66,34.6865 958.5,33.5 Z M 960.5,43.5 C 963.94,47.1597 967.774,50.4931 972,53.5C 975.258,60.0875 973.758,65.5875 967.5,70C 963.402,72.8857 959.069,73.219 954.5,71C 952.474,65.5596 952.641,60.0596 955,54.5C 956.847,50.8068 958.68,47.1401 960.5,43.5 Z"/>
</svg>