<svg viewBox="0 0 407 84" fill-rule="evenodd" clip-rule="evenodd" xmlns="http://www.w3.org/2000/svg">
  <path opacity="0.920" fill="#353944" d="M 347.5,2.5 C 351.949,2.25562 353.615,4.42229 352.5,9C 350.941,26.808 350.441,44.6414 351,62.5C 351.837,64.8383 352.67,67.1716 353.5,69.5C 351.52,73.7031 348.687,74.3698 345,71.5C 343.116,49.5409 343.116,27.5409 345,5.5C 345.698,4.30943 346.531,3.30943 347.5,2.5 Z"/>
  <path opacity="0.887" fill="#353944" d="M 30.5,4.5 C 40.6156,4.13747 50.2823,5.9708 59.5,10C 67.9013,17.3537 68.7347,25.5203 62,34.5C 60.1266,36.7089 57.96,38.5422 55.5,40C 47.9549,43.9394 40.2882,47.606 32.5,51C 45.8134,53.9935 58.8134,57.9935 71.5,63C 73.4118,67.1161 72.2452,69.9495 68,71.5C 56.1724,65.4471 43.8391,60.7804 31,57.5C 30.6949,64.1834 30.6949,70.8501 31,77.5C 29,78.8333 27,78.8333 25,77.5C 23.7446,70.9406 23.0779,64.274 23,57.5C 22.0657,54.8638 21.2324,52.1971 20.5,49.5C 22.0263,46.2404 22.6929,42.7404 22.5,39C 21.7639,30.1807 21.4305,21.3474 21.5,12.5C 15.7308,13.4237 10.0641,14.757 4.5,16.5C 4.23166,13.8806 4.565,11.3806 5.5,9C 13.8604,6.83068 22.1937,5.33068 30.5,4.5 Z M 28.5,11.5 C 36.7458,11.0411 44.7458,12.2078 52.5,15C 58.1114,17.7175 59.6114,21.8842 57,27.5C 49.7212,35.9181 40.5545,41.2514 29.5,43.5C 28.9566,32.8414 28.6233,22.1747 28.5,11.5 Z"/>
  <path opacity="0.912" fill="#353944" d="M 214.5,6.5 C 217.969,5.88722 219.969,7.22055 220.5,10.5C 229.129,9.19518 237.795,8.69518 246.5,9C 250.065,11.1775 250.399,13.8442 247.5,17C 238.904,16.036 230.404,16.536 222,18.5C 222.811,35.9777 222.644,53.4777 221.5,71C 219.775,73.4732 217.608,73.9732 215,72.5C 214.5,54.8365 214.333,37.1698 214.5,19.5C 205.582,20.2363 196.748,21.5697 188,23.5C 183.937,23.7245 181.437,21.8912 180.5,18C 181.093,16.1183 182.427,15.1183 184.5,15C 194.195,14.4128 203.862,13.5795 213.5,12.5C 213.325,10.3792 213.659,8.3792 214.5,6.5 Z"/>
  <path opacity="0.893" fill="#353944" d="M 116.5,20.5 C 119.785,20.2693 122.285,21.6026 124,24.5C 127.194,29.5545 129.861,34.8878 132,40.5C 135.468,35.0659 139.301,29.8992 143.5,25C 145.769,24.2419 147.936,24.4086 150,25.5C 150.667,26.8333 150.667,28.1667 150,29.5C 144.174,34.6322 139.674,40.7989 136.5,48C 138.88,53.9282 142.38,59.0949 147,63.5C 148.006,60.1102 150.006,59.1102 153,60.5C 153.299,65.2672 151.799,69.4339 148.5,73C 146.765,73.6514 145.098,73.4847 143.5,72.5C 139.172,67.1791 135.338,61.5125 132,55.5C 129.893,59.3806 128.059,63.3806 126.5,67.5C 127.689,68.4287 129.022,68.762 130.5,68.5C 129.951,73.5518 127.118,76.5518 122,77.5C 120.674,77.2451 119.674,76.5784 119,75.5C 118.333,72.8333 118.333,70.1667 119,67.5C 121.836,61.1616 124.669,54.8283 127.5,48.5C 124.53,41.2263 121.03,34.2263 117,27.5C 116.503,25.1902 116.337,22.8568 116.5,20.5 Z"/>
  <path opacity="0.871" fill="#353944" d="M 381.5,24.5 C 384.518,24.3354 387.518,24.502 390.5,25C 392.189,31.1467 390.022,33.3134 384,31.5C 377.449,32.5204 372.282,35.687 368.5,41C 369.167,42.3333 370.167,43.3333 371.5,44C 379.687,45.7133 387.687,48.0466 395.5,51C 401.868,59.834 400.201,67.1673 390.5,73C 383.178,76.9438 375.512,77.9438 367.5,76C 366.217,69.7678 368.884,66.6012 375.5,66.5C 375.5,67.5 375.5,68.5 375.5,69.5C 382.129,69.7673 387.629,67.434 392,62.5C 393.45,58.2756 391.95,55.7756 387.5,55C 379.985,53.6214 372.651,51.6214 365.5,49C 360.023,43.11 360.356,37.4433 366.5,32C 371.313,28.9267 376.313,26.4267 381.5,24.5 Z"/>
  <path opacity="0.889" fill="#353944" d="M 89.5,27.5 C 91.1172,28.038 92.7839,28.3713 94.5,28.5C 94.7135,30.1439 94.3802,31.6439 93.5,33C 96.146,33.4974 98.8127,33.6641 101.5,33.5C 103.289,37.812 106.123,41.4786 110,44.5C 113.724,57.2371 109.557,66.7371 97.5,73C 80.3933,77.5592 72.8933,71.0592 75,53.5C 76.2006,47.2316 78.2006,41.2316 81,35.5C 83.0982,31.8972 85.9315,29.2305 89.5,27.5 Z M 90.5,36.5 C 94.0846,40.9143 98.2513,44.9143 103,48.5C 105.037,52.3344 104.704,56.001 102,59.5C 97.1953,66.5968 91.0287,68.2635 83.5,64.5C 81.7158,54.1772 84.0492,44.8439 90.5,36.5 Z"/>
  <path opacity="0.898" fill="#353944" d="M 268.5,27.5 C 272.701,27.4258 274.035,29.2591 272.5,33C 275.482,33.498 278.482,33.6646 281.5,33.5C 281.343,34.8734 281.51,36.2068 282,37.5C 291.402,43.3781 293.736,51.3781 289,61.5C 281.699,73.5997 271.533,77.0997 258.5,72C 253.979,67.3767 252.479,61.8767 254,55.5C 254.98,47.2475 257.647,39.5809 262,32.5C 263.805,30.1743 265.972,28.5077 268.5,27.5 Z M 269.5,36.5 C 273.595,41.1539 278.095,45.4872 283,49.5C 283.187,61.9753 277.02,67.4753 264.5,66C 262.051,64.1367 261.051,61.6367 261.5,58.5C 262.475,50.5496 265.142,43.2162 269.5,36.5 Z"/>
  <path opacity="0.898" fill="#353944" d="M 311.5,27.5 C 315.701,27.4258 317.035,29.2591 315.5,33C 318.482,33.498 321.482,33.6646 324.5,33.5C 324.343,34.8734 324.51,36.2068 325,37.5C 334.402,43.3781 336.736,51.3781 332,61.5C 324.699,73.5997 314.533,77.0997 301.5,72C 296.979,67.3767 295.479,61.8767 297,55.5C 297.98,47.2475 300.647,39.5809 305,32.5C 306.805,30.1743 308.972,28.5077 311.5,27.5 Z M 312.5,36.5 C 316.595,41.1539 321.095,45.4872 326,49.5C 326.187,61.9753 320.02,67.4753 307.5,66C 305.051,64.1367 304.051,61.6367 304.5,58.5C 305.475,50.5496 308.142,43.2162 312.5,36.5 Z"/>
</svg>