<svg viewBox="0 0 287 62" fill-rule="evenodd" clip-rule="evenodd" xmlns="http://www.w3.org/2000/svg">
  <path opacity="0.924" fill="#333642" d="M 91.5,3.5 C 93.9477,3.08467 95.2811,4.08467 95.5,6.5C 94.7396,8.43659 93.7396,10.2699 92.5,12C 94.8098,12.4966 97.1432,12.6633 99.5,12.5C 99.5,14.1667 99.5,15.8333 99.5,17.5C 92.2806,17.6081 86.7806,20.6081 83,26.5C 79.9722,31.9227 77.9722,37.5894 77,43.5C 77.7175,44.4506 78.5509,44.6172 79.5,44C 83.2565,40.9142 86.2565,37.2475 88.5,33C 90.4731,32.4622 91.4731,33.2956 91.5,35.5C 89.1816,41.2792 85.5149,46.1126 80.5,50C 77.3307,50.9782 74.4973,50.4782 72,48.5C 71.3333,44.8333 71.3333,41.1667 72,37.5C 73.8932,32.7133 76.0598,28.0466 78.5,23.5C 77.3112,22.5713 75.9778,22.238 74.5,22.5C 74.3433,21.1266 74.51,19.7932 75,18.5C 77.7481,17.3144 80.5815,16.3144 83.5,15.5C 85.8003,11.2102 88.467,7.21017 91.5,3.5 Z"/>
  <path opacity="0.924" fill="#333642" d="M 195.5,3.5 C 197.948,3.08467 199.281,4.08467 199.5,6.5C 198.74,8.43659 197.74,10.2699 196.5,12C 198.81,12.4966 201.143,12.6633 203.5,12.5C 203.5,14.1667 203.5,15.8333 203.5,17.5C 196.281,17.6081 190.781,20.6081 187,26.5C 183.972,31.9227 181.972,37.5894 181,43.5C 181.718,44.4506 182.551,44.6172 183.5,44C 187.257,40.9142 190.257,37.2475 192.5,33C 194.473,32.4622 195.473,33.2956 195.5,35.5C 193.182,41.2792 189.515,46.1126 184.5,50C 181.331,50.9782 178.497,50.4782 176,48.5C 175.333,44.8333 175.333,41.1667 176,37.5C 177.893,32.7133 180.06,28.0466 182.5,23.5C 181.311,22.5713 179.978,22.238 178.5,22.5C 178.343,21.1266 178.51,19.7932 179,18.5C 181.748,17.3144 184.581,16.3144 187.5,15.5C 189.8,11.2102 192.467,7.21017 195.5,3.5 Z"/>
  <path opacity="0.928" fill="#333543" d="M 25.5,4.5 C 30.0685,4.08258 31.5685,6.08258 30,10.5C 28.2894,13.5797 25.7894,14.7464 22.5,14C 21.9415,13.2753 21.6082,12.4419 21.5,11.5C 22.0707,8.68734 23.4041,6.35401 25.5,4.5 Z"/>
  <path opacity="0.929" fill="#343643" d="M 214.5,4.5 C 216.167,4.5 217.833,4.5 219.5,4.5C 220.572,11.0806 217.905,14.414 211.5,14.5C 211.022,10.6625 212.022,7.32914 214.5,4.5 Z"/>
  <path opacity="0.901" fill="#343643" d="M 60.5,18.5 C 68.9772,16.1562 72.4772,19.1562 71,27.5C 67.9765,32.5956 63.4765,34.929 57.5,34.5C 57.2148,32.712 57.5481,31.0453 58.5,29.5C 61.6207,28.7739 64.2873,27.2739 66.5,25C 61.1641,23.6654 57.1641,25.6654 54.5,31C 57.1528,35.1708 59.1528,39.6708 60.5,44.5C 58.659,51.9244 53.9924,54.4244 46.5,52C 44.6667,51.5 43.5,50.3333 43,48.5C 42.0223,44.0998 42.5223,39.9331 44.5,36C 45.7932,35.51 47.1266,35.3433 48.5,35.5C 47.6239,38.7989 47.4572,42.1322 48,45.5C 50.7185,48.3817 52.8852,48.0484 54.5,44.5C 53.2602,41.0227 51.7602,37.6893 50,34.5C 49.2419,26.4167 52.7419,21.0833 60.5,18.5 Z"/>
  <path opacity="0.913" fill="#333642" d="M 271.5,18.5 C 282.617,16.4276 285.784,20.4276 281,30.5C 277.816,33.8444 273.982,35.0111 269.5,34C 268.14,32.0624 268.473,30.3957 270.5,29C 272.608,28.6401 274.608,27.9734 276.5,27C 277.833,26 277.833,25 276.5,24C 265.571,26.1748 263.738,31.6748 271,40.5C 272.209,50.6109 267.709,54.4443 257.5,52C 252.545,46.9748 252.212,41.6414 256.5,36C 257.448,35.5172 258.448,35.3505 259.5,35.5C 259.123,38.5248 258.956,41.5248 259,44.5C 261.191,47.4822 263.524,47.8155 266,45.5C 265.537,42.2296 264.204,39.2296 262,36.5C 260.528,30.9245 261.695,26.0911 265.5,22C 267.727,21.059 269.727,19.8923 271.5,18.5 Z"/>
  <path opacity="0.931" fill="#333642" d="M 223.5,19.5 C 225.792,19.2436 227.959,19.5769 230,20.5C 231.057,32.2216 227.224,42.055 218.5,50C 211.839,53.4552 208.172,51.6218 207.5,44.5C 209.08,33.6534 214.413,25.3201 223.5,19.5 Z M 224.5,25.5 C 225.367,28.9528 224.2,31.9528 221,34.5C 221.089,39.5622 218.922,43.2288 214.5,45.5C 214.062,37.0415 217.396,30.3748 224.5,25.5 Z"/>
  <path opacity="0.913" fill="#333542" d="M 115.5,20.5 C 117.948,20.0847 119.281,21.0847 119.5,23.5C 117.798,26.1987 115.798,28.6987 113.5,31C 116.521,30.5817 119.355,29.415 122,27.5C 123.44,28.9304 123.774,30.597 123,32.5C 119.117,37.0086 114.284,38.5086 108.5,37C 107.809,35.9326 107.309,34.7659 107,33.5C 101.505,38.6617 97.1715,44.6617 94,51.5C 92.6439,52.3802 91.1439,52.7135 89.5,52.5C 90.8137,41.0507 95.4804,31.2174 103.5,23C 104.793,22.51 106.127,22.3433 107.5,22.5C 107.193,24.4458 107.193,26.1125 107.5,27.5C 110.239,25.1492 112.905,22.8159 115.5,20.5 Z"/>
  <path opacity="0.910" fill="#333541" d="M 159.5,20.5 C 166,19.4987 168.5,22.1653 167,28.5C 166.05,31.7797 164.05,34.1131 161,35.5C 159.72,35.3865 158.887,34.7199 158.5,33.5C 159.253,31.2466 160.586,29.4133 162.5,28C 157.119,30.3939 153.285,34.5606 151,40.5C 149.614,46.1197 151.448,47.6197 156.5,45C 160.674,41.9917 164.341,38.4917 167.5,34.5C 169.283,35.3482 169.783,36.6815 169,38.5C 164.441,47.4352 157.274,51.6019 147.5,51C 144.106,46.8952 143.606,42.3952 146,37.5C 148.873,30.469 153.373,24.8024 159.5,20.5 Z"/>
  <path opacity="0.903" fill="#333642" d="M 17.5,21.5 C 20.6802,21.1762 21.8469,22.5096 21,25.5C 15.6692,33.1626 11.6692,41.4959 9,50.5C 7.89037,52.0368 6.39037,52.7035 4.5,52.5C 5.25999,40.6491 9.59333,30.3158 17.5,21.5 Z"/>
  <path opacity="0.893" fill="#343642" d="M 206.5,21.5 C 207.833,21.5 209.167,21.5 210.5,21.5C 208.846,27.146 206.346,32.4794 203,37.5C 200.89,42.0548 199.056,46.7215 197.5,51.5C 196.311,52.4287 194.978,52.762 193.5,52.5C 194.806,40.8896 199.139,30.5562 206.5,21.5 Z"/>
  <path opacity="0.908" fill="#343642" d="M 29.5,23.5 C 32.3289,23.3249 33.9955,24.6582 34.5,27.5C 37.2777,24.7094 40.611,23.376 44.5,23.5C 44.6602,25.1992 44.4935,26.8659 44,28.5C 39.3606,33.9463 36.1939,40.1129 34.5,47C 34.5838,49.5006 35.2505,51.834 36.5,54C 34.7031,57.146 32.5365,57.3127 30,54.5C 29.4212,52.3513 28.9212,50.1846 28.5,48C 29.4224,44.8341 29.9224,41.6675 30,38.5C 26.7956,42.4069 23.9623,46.5735 21.5,51C 19.0752,51.9859 17.4085,51.3193 16.5,49C 19.4031,39.6924 23.7365,31.1924 29.5,23.5 Z"/>
  <path opacity="0.906" fill="#333541" d="M 131.5,23.5 C 132.833,23.5 134.167,23.5 135.5,23.5C 135.66,25.1992 135.494,26.8659 135,28.5C 129.984,33.1479 127.317,38.8146 127,45.5C 132.431,39.6414 136.598,32.9748 139.5,25.5C 143.606,23.7702 145.106,25.1035 144,29.5C 141.754,33.4906 139.921,37.6573 138.5,42C 139.205,44.707 140.705,46.8736 143,48.5C 143.494,50.1341 143.66,51.8008 143.5,53.5C 137.484,54.3227 134.317,51.656 134,45.5C 131.647,50.4264 127.814,52.2598 122.5,51C 120.109,46.6559 119.942,42.1559 122,37.5C 124.435,32.2851 127.601,27.6185 131.5,23.5 Z"/>
  <path opacity="0.914" fill="#333642" d="M 240.5,23.5 C 243.766,23.4326 245.266,25.0992 245,28.5C 247.781,25.1951 251.281,23.5285 255.5,23.5C 255.776,28.4124 253.942,32.4124 250,35.5C 248.392,38.3821 247.059,41.3821 246,44.5C 245.563,48.6227 246.063,52.6227 247.5,56.5C 244.453,57.1446 242.287,56.1446 241,53.5C 240.24,47.9788 240.574,42.6455 242,37.5C 238.837,41.1559 236.171,45.1559 234,49.5C 232.556,51.1554 230.722,51.822 228.5,51.5C 230.286,41.2568 234.286,31.9235 240.5,23.5 Z"/>
</svg>