<svg width="54" height="54" viewBox="0 0 54 54" xmlns="http://www.w3.org/2000/svg" style="shape-rendering:geometricPrecision; text-rendering:geometricPrecision; image-rendering:optimizeQuality; fill-rule:evenodd; clip-rule:evenodd">
  <defs>
    <!-- background -->
    <linearGradient id="backgroundgrad" x1="0%" y1="0%" x2="100%" y2="0%">
      <stop offset="0%" style="stop-color:#004880;stop-opacity:0.25" />
      <stop offset="100%" style="stop-color:#004880;stop-opacity:0.75" />
    </linearGradient>

    <!-- border -->
    <linearGradient id="bordergrad" x1="0%" y1="0%" x2="100%" y2="0%">
      <stop offset="0%" style="stop-color:#004880;stop-opacity:0.75" />
      <stop offset="100%" style="stop-color:#004880;stop-opacity:0.25" />
    </linearGradient>
  </defs>

  <!-- background -->
  <rect x="1" y="1" rx="10" ry="10" width="52" height="52" style="fill:url(#backgroundgrad);stroke:url(#bordergrad);stroke-width:2;opacity:1" />

  <!-- image -->
  <svg x="5" y="5" width="48" height="48" viewBox="0 0 31 31">
    <path style="fill:#ffffff;stroke:#004880;" d="M19.52,5.65H12.84A6.91,6.91,0,0,0,5.9,12.57v6.68a6.91,6.91,0,0,0,6.91,6.91h6.68a6.91,6.91,0,0,0,6.91-6.92V12.57A6.91,6.91,0,0,0,19.52,5.65Zm-6.75,7.47A2,2,0,1,1,13,10.6,2,2,0,0,1,12.77,13.12Zm6.63,9.69a3.5,3.5,0,1,1,3.5-3.5A3.5,3.5,0,0,1,19.4,22.81Z"/>
    <circle style="fill:#ffffff;stroke:#004880;" cx="3.65" cy="4.06" r="2.75"/>
  </svg>
</svg>