<svg width="32" height="32" viewBox="0 0 100 100" xmlns="http://www.w3.org/2000/svg"><svg x="-6" y="-38" width="112" height="183" viewBox="0 0 100 100" preserveAspectRatio="none"><path fill="#60be92" d="M48,74c-1.101,0-2.152-0.453-2.908-1.254l-17-18c-1.517-1.605-1.444-4.138,0.162-5.654c1.605-1.516,4.137-1.445,5.654,0.162L47.98,64.153l38.093-40.88c1.507-1.616,4.038-1.705,5.653-0.2c1.616,1.507,1.706,4.037,0.2,5.653l-41,44c-0.754,0.809-1.809,1.27-2.913,1.273C48.009,74,48.005,74,48,74z"/><path fill="none" stroke="#a1d3a2" stroke-linecap="round" stroke-linejoin="round" stroke-width="8" d="M11 52L28 70 69 26"/><path fill="#1f212b" d="M81.767 35c-.122 0-.244-.044-.341-.134-.202-.188-.213-.505-.025-.707l2.733-2.934c.188-.201.505-.214.707-.025s.213.505.025.707l-2.733 2.934C82.034 34.946 81.9 35 81.767 35zM86.5 29.92c-.122 0-.244-.044-.341-.134-.202-.188-.213-.505-.025-.707l.857-.92c.188-.202.505-.214.707-.025s.213.505.025.707l-.857.92C86.768 29.866 86.634 29.92 86.5 29.92zM79.634 36.055L48.003 69.996l-5.14-5.442c-.188-.199-.507-.21-.707-.02-.2.189-.209.506-.02.707l5.132 5.434C47.455 70.882 47.722 71 48.01 71c.259 0 .52-.111.727-.319l31.63-33.944c.188-.202.177-.519-.025-.707C80.139 35.842 79.823 35.854 79.634 36.055z"/><path fill="#1f212b" d="M92.408,22.342c-2.018-1.881-5.187-1.767-7.066,0.25l-37.366,40.1l-3.188-3.374l27.87-29.909c1.879-2.017,1.767-5.187-0.25-7.066c-2.018-1.881-5.187-1.767-7.066,0.25L37.908,52.033l-3.272-3.465c-1.895-2.005-5.064-2.094-7.068-0.203c-0.971,0.917-1.527,2.157-1.565,3.493c-0.038,1.335,0.446,2.604,1.363,3.575l3.712,3.93l-3.102,3.329l-13.34-14.124c-1.894-2.005-5.063-2.094-7.068-0.203c-0.971,0.917-1.527,2.157-1.565,3.493c-0.038,1.335,0.446,2.604,1.363,3.575l16.999,18C25.305,74.429,26.63,75,28,75c0.001,0,0.016,0,0.018,0c1.375-0.005,2.702-0.585,3.641-1.592l6.299-6.76l6.407,6.785C45.305,74.429,46.63,75,48.018,75c1.375-0.005,2.702-0.585,3.641-1.592l41-44C94.537,27.392,94.425,24.222,92.408,22.342z M28.818,54.06c-0.55-0.582-0.84-1.345-0.817-2.146c0.023-0.801,0.356-1.545,0.939-2.095c1.205-1.136,3.105-1.08,4.241,0.121l3.36,3.558l-4.099,4.399L28.818,54.06z M30.195,72.045c-0.563,0.604-1.359,0.952-2.182,0.955H28c-0.822,0-1.617-0.343-2.182-0.94l-17-18c-0.55-0.582-0.84-1.345-0.817-2.146c0.023-0.801,0.356-1.545,0.939-2.095c0.579-0.547,1.319-0.817,2.059-0.817c0.798,0,1.593,0.314,2.183,0.938L27.254,64.84c0.188,0.2,0.451,0.313,0.727,0.313c0.001,0,0.002,0,0.003,0c0.276-0.001,0.54-0.116,0.729-0.318l38.093-40.88c1.129-1.212,3.029-1.277,4.24-0.15c1.21,1.128,1.277,3.03,0.15,4.24L30.195,72.045z M91.195,28.045l-41,44C49.632,72.648,48.836,72.997,48,73c-0.822,0-1.617-0.343-2.182-0.94l-6.495-6.877l4.099-4.399l3.832,4.057c0.188,0.2,0.451,0.313,0.727,0.313c0.001,0,0.002,0,0.003,0c0.276-0.001,0.54-0.116,0.729-0.318l38.093-40.88c1.129-1.212,3.029-1.277,4.24-0.15C92.255,24.933,92.322,26.835,91.195,28.045z"/><path fill="#1f212b" d="M31.634 66.104l-.983 1.056c-.188.202-.177.519.025.707C30.772 67.956 30.895 68 31.017 68c.134 0 .268-.054.366-.159l.983-1.056c.188-.202.177-.519-.025-.707C32.139 65.891 31.822 65.902 31.634 66.104zM56.634 39.274L33.445 64.159c-.188.202-.177.519.025.707C33.567 64.956 33.689 65 33.812 65c.134 0 .268-.054.366-.159l23.188-24.885c.188-.202.177-.519-.025-.707C57.139 39.062 56.823 39.073 56.634 39.274z"/></svg></svg>