<svg viewBox="0 0 268 211" fill-rule="evenodd" clip-rule="evenodd" xmlns="http://www.w3.org/2000/svg">
  <path fill="#feff00" opacity="0.9" d="M 213.5,2.5 C 218.833,2.5 224.167,2.5 229.5,2.5C 229.5,6.83333 229.5,11.1667 229.5,15.5C 220.041,13.3725 215.707,17.0392 216.5,26.5C 220.167,26.5 223.833,26.5 227.5,26.5C 227.5,30.5 227.5,34.5 227.5,38.5C 223.833,38.5 220.167,38.5 216.5,38.5C 216.5,50.8333 216.5,63.1667 216.5,75.5C 211.167,75.5 205.833,75.5 200.5,75.5C 200.5,63.1667 200.5,50.8333 200.5,38.5C 197.833,38.5 195.167,38.5 192.5,38.5C 192.5,34.5 192.5,30.5 192.5,26.5C 195.167,26.5 197.833,26.5 200.5,26.5C 198.64,14.8708 202.974,6.87082 213.5,2.5 Z"/>
  <path fill="#66ff32" opacity="0.869" d="M 34.5,7.5 C 39.7616,7.19532 44.9283,7.52865 50,8.5C 60.5,34.1667 71,59.8333 81.5,85.5C 76.2805,86.8042 71.1139,86.8042 66,85.5C 55.197,59.5842 44.697,33.5842 34.5,7.5 Z"/>
  <path fill="#feff00" opacity="0.888" d="M 174.5,11.5 C 175.833,11.5 177.167,11.5 178.5,11.5C 178.5,16.5 178.5,21.5 178.5,26.5C 182.167,26.5 185.833,26.5 189.5,26.5C 189.5,30.5 189.5,34.5 189.5,38.5C 185.833,38.5 182.167,38.5 178.5,38.5C 178.104,46.253 178.604,53.9196 180,61.5C 180.956,62.8941 182.289,63.5607 184,63.5C 185.825,63.0566 187.658,62.7233 189.5,62.5C 189.826,66.8839 189.492,71.2172 188.5,75.5C 181.305,77.1965 174.305,76.6965 167.5,74C 165.106,72.0478 163.606,69.5478 163,66.5C 162.5,57.1726 162.334,47.8393 162.5,38.5C 159.833,38.5 157.167,38.5 154.5,38.5C 154.5,34.5 154.5,30.5 154.5,26.5C 157.167,26.5 159.833,26.5 162.5,26.5C 162.335,22.8183 162.501,19.1516 163,15.5C 166.952,14.2394 170.786,12.906 174.5,11.5 Z"/>
  <path fill="#feff00" opacity="0.86" d="M 76.5,26.5 C 82.4254,26.1918 88.2588,26.5251 94,27.5C 95.8515,36.9275 98.0182,46.2608 100.5,55.5C 103.165,46.1723 105.832,36.839 108.5,27.5C 113.833,26.1667 119.167,26.1667 124.5,27.5C 127.063,37.1456 129.563,46.8122 132,56.5C 134.158,46.5457 135.991,36.5457 137.5,26.5C 142.833,26.5 148.167,26.5 153.5,26.5C 149.011,42.79 144.677,59.1233 140.5,75.5C 134.463,75.8293 128.463,75.4959 122.5,74.5C 119.999,65.8277 117.499,57.161 115,48.5C 112.667,57.1667 110.333,65.8333 108,74.5C 102.25,75.6406 96.4163,75.8072 90.5,75C 85.6023,58.9108 80.9357,42.7442 76.5,26.5 Z"/>
  <path fill="#bfbfbf" opacity="0.903" d="M 32.5,130.5 C 37.8333,130.5 43.1667,130.5 48.5,130.5C 48.3335,139.839 48.5002,149.173 49,158.5C 52.7401,153.881 57.5734,151.881 63.5,152.5C 73.8887,152.053 79.3887,157.053 80,167.5C 80.4999,179.162 80.6665,190.829 80.5,202.5C 74.8333,202.5 69.1667,202.5 63.5,202.5C 63.6665,191.828 63.4998,181.161 63,170.5C 59.9501,164.691 55.9501,164.025 51,168.5C 50.0266,170.392 49.3599,172.392 49,174.5C 48.5002,183.827 48.3335,193.161 48.5,202.5C 43.1667,202.5 37.8333,202.5 32.5,202.5C 32.5,178.5 32.5,154.5 32.5,130.5 Z"/>
  <path fill="#66ff32" opacity="0.886" d="M 230.5,133.5 C 237.589,133.116 244.589,133.616 251.5,135C 258.1,138.184 261.434,143.517 261.5,151C 261.086,155.077 259.919,158.91 258,162.5C 252.529,167.127 248.029,172.461 244.5,178.5C 245.046,180.135 245.38,181.801 245.5,183.5C 240.57,183.803 235.737,183.469 231,182.5C 230.209,178.074 230.543,173.741 232,169.5C 235.298,165.2 238.965,161.2 243,157.5C 245.625,151.419 243.625,148.085 237,147.5C 232.148,148.175 227.648,149.841 223.5,152.5C 222.167,147.167 222.167,141.833 223.5,136.5C 226.016,135.67 228.35,134.67 230.5,133.5 Z"/>
  <path fill="#bfbfbf" opacity="0.901" d="M 105.5,152.5 C 133.731,149.56 144.898,161.893 139,189.5C 136.167,195 132,199.167 126.5,202C 96.3469,208.51 83.8469,196.677 89,166.5C 92.5848,159.403 98.0848,154.736 105.5,152.5 Z M 110.5,165.5 C 119.128,164.79 123.795,168.79 124.5,177.5C 123.912,188.281 118.578,192.114 108.5,189C 106.513,187.681 105.346,185.848 105,183.5C 103.015,176.128 104.848,170.128 110.5,165.5 Z"/>
  <path fill="#bfbfbf" opacity="0.884" d="M 143.5,153.5 C 149.167,153.5 154.833,153.5 160.5,153.5C 162.218,163.589 164.385,173.589 167,183.5C 169.819,173.559 172.319,163.559 174.5,153.5C 180.167,153.5 185.833,153.5 191.5,153.5C 193.505,163.187 195.671,172.853 198,182.5C 200.731,173.02 202.897,163.353 204.5,153.5C 209.875,153.172 215.208,153.505 220.5,154.5C 215.901,169.798 211.401,185.132 207,200.5C 201.126,202.43 194.96,203.097 188.5,202.5C 186.496,193.484 184.329,184.484 182,175.5C 179.007,184.32 176.507,193.32 174.5,202.5C 168.5,202.5 162.5,202.5 156.5,202.5C 152.009,186.204 147.676,169.87 143.5,153.5 Z"/>
  <path fill="#65ff32" opacity="0.829" d="M 8.5,187.5 C 19.143,184.996 23.9764,188.996 23,199.5C 21.8333,200.667 20.6667,201.833 19.5,203C 8.85562,206 4.02228,202.167 5,191.5C 6.37561,190.295 7.54227,188.962 8.5,187.5 Z"/>
  <path fill="#66ff32" opacity="0.847" d="M 234.5,187.5 C 246.897,185.715 250.897,190.548 246.5,202C 240.986,204.365 235.819,203.865 231,200.5C 228.348,195.039 229.514,190.706 234.5,187.5 Z"/>
</svg>