<svg viewBox="0 0 455 93" fill-rule="evenodd" clip-rule="evenodd" xmlns="http://www.w3.org/2000/svg">
  <path fill="#feff00" opacity="0.893" d="M 181.5,4.5 C 187.167,4.5 192.833,4.5 198.5,4.5C 198.5,8.83333 198.5,13.1667 198.5,17.5C 188.897,15.1092 184.564,18.7759 185.5,28.5C 189.167,28.5 192.833,28.5 196.5,28.5C 196.5,32.5 196.5,36.5 196.5,40.5C 192.833,40.5 189.167,40.5 185.5,40.5C 185.5,52.8333 185.5,65.1667 185.5,77.5C 180.167,77.5 174.833,77.5 169.5,77.5C 169.5,65.1667 169.5,52.8333 169.5,40.5C 166.5,40.5 163.5,40.5 160.5,40.5C 160.5,36.5 160.5,32.5 160.5,28.5C 163.5,28.5 166.5,28.5 169.5,28.5C 167.181,17.1368 171.181,9.13682 181.5,4.5 Z"/>
  <path fill="#bfbfbf" opacity="0.902" d="M 223.5,5.5 C 228.833,5.5 234.167,5.5 239.5,5.5C 239.334,14.5062 239.5,23.5062 240,32.5C 246,27.7668 252.834,26.2668 260.5,28C 268.228,31.6088 271.728,37.7755 271,46.5C 271.5,56.828 271.666,67.1613 271.5,77.5C 265.833,77.5 260.167,77.5 254.5,77.5C 254.666,67.1613 254.5,56.828 254,46.5C 252.789,41.2897 249.623,39.4563 244.5,41C 242.19,42.6374 240.69,44.804 240,47.5C 239.5,57.4944 239.334,67.4944 239.5,77.5C 234.167,77.5 228.833,77.5 223.5,77.5C 223.5,53.5 223.5,29.5 223.5,5.5 Z"/>
  <path fill="#65ff33" opacity="0.882" d="M 421.5,8.5 C 427.176,8.33391 432.843,8.50058 438.5,9C 447.387,11.2171 451.721,16.8837 451.5,26C 451.507,29.2579 451.007,32.4245 450,35.5C 445.644,40.8536 440.977,45.8536 436,50.5C 435.289,52.8991 435.456,55.2324 436.5,57.5C 431.544,58.4941 426.544,58.8275 421.5,58.5C 420.908,52.8948 421.741,47.5614 424,42.5C 428.778,38.5603 432.612,33.8936 435.5,28.5C 434.706,24.0951 432.039,22.0951 427.5,22.5C 422.164,23.3439 417.164,25.0106 412.5,27.5C 412.334,22.4889 412.501,17.4889 413,12.5C 415.738,10.7112 418.572,9.37785 421.5,8.5 Z"/>
  <path fill="#65ff32" opacity="0.872" d="M 3.5,9.5 C 8.54396,9.17252 13.544,9.50585 18.5,10.5C 29.4161,36.3227 39.7495,62.3227 49.5,88.5C 44.456,88.8275 39.456,88.4941 34.5,87.5C 23.5839,61.6773 13.2505,35.6773 3.5,9.5 Z"/>
  <path fill="#feff00" opacity="0.889" d="M 143.5,13.5 C 144.833,13.5 146.167,13.5 147.5,13.5C 147.5,18.5 147.5,23.5 147.5,28.5C 151.167,28.5 154.833,28.5 158.5,28.5C 158.5,32.5 158.5,36.5 158.5,40.5C 154.833,40.5 151.167,40.5 147.5,40.5C 147.104,48.253 147.604,55.9196 149,63.5C 149.956,64.8941 151.289,65.5607 153,65.5C 154.825,65.0566 156.658,64.7233 158.5,64.5C 158.826,68.8839 158.492,73.2172 157.5,77.5C 150.305,79.1965 143.305,78.6965 136.5,76C 134.106,74.0478 132.606,71.5478 132,68.5C 131.5,59.1726 131.334,49.8393 131.5,40.5C 128.833,40.5 126.167,40.5 123.5,40.5C 123.5,36.5 123.5,32.5 123.5,28.5C 126.167,28.5 128.833,28.5 131.5,28.5C 131.335,24.8183 131.501,21.1516 132,17.5C 135.952,16.2394 139.786,14.906 143.5,13.5 Z"/>
  <path fill="#bebebe" opacity="0.901" d="M 296.5,27.5 C 322.319,23.8222 333.819,34.8222 331,60.5C 328.5,69.6667 322.667,75.5 313.5,78C 285.252,81.4212 274.086,69.2545 280,41.5C 283.54,34.4551 289.04,29.7884 296.5,27.5 Z M 301.5,40.5 C 307.731,39.3613 311.898,41.6946 314,47.5C 314.81,52.2574 314.476,56.9241 313,61.5C 302.635,68.4057 296.468,65.5723 294.5,53C 294.666,47.4911 296.999,43.3245 301.5,40.5 Z"/>
  <path fill="#feff00" opacity="0.861" d="M 45.5,28.5 C 51.2055,28.1712 56.8722,28.5046 62.5,29.5C 64.9796,39.4199 67.1462,49.4199 69,59.5C 71.6667,49.5 74.3333,39.5 77,29.5C 82.4066,28.5268 87.9066,28.1934 93.5,28.5C 95.5423,38.3374 98.0423,48.0041 101,57.5C 103.029,47.8574 104.862,38.1907 106.5,28.5C 111.833,28.5 117.167,28.5 122.5,28.5C 118.337,44.8223 113.67,60.989 108.5,77C 102.584,77.8072 96.7504,77.6406 91,76.5C 88.5107,67.5429 86.1774,58.5429 84,49.5C 81.6544,58.5499 79.1544,67.5499 76.5,76.5C 70.5368,77.4959 64.5368,77.8293 58.5,77.5C 54.324,61.1297 49.9907,44.7963 45.5,28.5 Z"/>
  <path fill="#bfbfbf" opacity="0.882" d="M 334.5,28.5 C 340.167,28.5 345.833,28.5 351.5,28.5C 352.846,38.4051 355.013,48.0718 358,57.5C 360.661,47.8572 363.161,38.1905 365.5,28.5C 371.093,28.1934 376.593,28.5268 382,29.5C 384.333,39.1667 386.667,48.8333 389,58.5C 391.231,48.842 393.398,39.1753 395.5,29.5C 400.456,28.5059 405.456,28.1725 410.5,28.5C 406.372,44.8838 402.039,61.2171 397.5,77.5C 391.5,77.5 385.5,77.5 379.5,77.5C 377.48,68.7539 375.147,60.0872 372.5,51.5C 369.355,59.9379 367.021,68.6046 365.5,77.5C 359.463,77.8293 353.463,77.4959 347.5,76.5C 342.539,60.6552 338.206,44.6552 334.5,28.5 Z"/>
  <path fill="#65ff33" opacity="0.855" d="M 199.5,62.5 C 202.85,62.335 206.183,62.5017 209.5,63C 215.259,66.8919 215.926,71.5586 211.5,77C 206.558,79.1207 201.725,78.954 197,76.5C 194.425,71.034 195.258,66.3673 199.5,62.5 Z"/>
  <path fill="#65ff32" opacity="0.841" d="M 424.5,62.5 C 435.143,59.9964 439.976,63.9964 439,74.5C 437.833,75.6667 436.667,76.8333 435.5,78C 424.856,80.9999 420.022,77.1666 421,66.5C 422.376,65.2949 423.542,63.9616 424.5,62.5 Z"/>
</svg>