<svg width="54" height="54" viewBox="0 0 54 54" fill-rule="evenodd" clip-rule="evenodd" xmlns="http://www.w3.org/2000/svg">
  <defs>
    <linearGradient id="bordergrad" x1="0%" y1="0%" x2="100%" y2="0%">
      <stop offset="0%" stop-color="#363945" />
      <stop offset="100%" stop-color="#b8bbc7" />
    </linearGradient>
  </defs>
  <rect x="1" y="1" rx="10" ry="10" width="52" height="52" fill="#F0EDE5" stroke="url(#bordergrad)" stroke-width="2" />
  <svg x="-5" y="-5" width="64" height="64" viewBox="0 0 100 100">
    <path style="opacity:0.990" fill="#919dc2" d="M 52.5,18.5 C 52.5,18.8333 52.5,19.1667 52.5,19.5C 50.8333,19.5 49.1667,19.5 47.5,19.5C 47.147,17.3652 47.9803,16.0319 50,15.5C 51.7491,15.7483 52.5824,16.7483 52.5,18.5 Z"/>
    <path style="opacity:0.935" fill="#242632" d="M 52.5,18.5 C 52.5824,16.7483 51.7491,15.7483 50,15.5C 47.9803,16.0319 47.147,17.3652 47.5,19.5C 49.1667,19.5 50.8333,19.5 52.5,19.5C 54.1667,19.5 55.8333,19.5 57.5,19.5C 57.6968,25.5451 57.3635,31.5451 56.5,37.5C 55.5655,38.5676 55.2322,39.901 55.5,41.5C 54.71,40.3915 54.21,39.0581 54,37.5C 53.3292,36.7476 52.4959,36.4142 51.5,36.5C 50.1667,36.5 48.8333,36.5 47.5,36.5C 47.7373,37.791 47.404,38.791 46.5,39.5C 46.719,38.325 46.3857,37.325 45.5,36.5C 44.645,38.6077 43.9784,40.7744 43.5,43C 43.1639,44.0299 42.4972,44.5299 41.5,44.5C 40.9569,44.44 40.6236,44.1067 40.5,43.5C 41.479,40.9173 42.1457,38.2506 42.5,35.5C 41.5018,30.5241 41.3352,25.5241 42,20.5C 43.0113,19.6634 44.1779,19.33 45.5,19.5C 46.0925,14.7376 48.5925,13.4043 53,15.5C 53.7401,16.7494 53.5735,17.7494 52.5,18.5 Z"/>
    <path style="opacity:1.000" fill="#6170a0" d="M 44.5,21.5 C 48.1667,21.5 51.8333,21.5 55.5,21.5C 55.6653,25.1817 55.4986,28.8484 55,32.5C 51.9965,36 48.6631,36.3333 45,33.5C 44.5012,29.5138 44.3345,25.5138 44.5,21.5 Z"/>
    <path style="opacity:1.000" fill="#454f6f" d="M 48.5,24.5 C 52.1612,24.3501 53.1612,25.8501 51.5,29C 47.7071,29.4866 46.7071,27.9866 48.5,24.5 Z"/>
    <path style="opacity:1.000" fill="#697398" d="M 51.5,36.5 C 52.4959,36.4142 53.3292,36.7476 54,37.5C 54.21,39.0581 54.71,40.3915 55.5,41.5C 57.6438,52.748 60.3104,63.748 63.5,74.5C 63.6633,76.8568 63.4966,79.1902 63,81.5C 62.0853,80.6721 61.4186,79.6721 61,78.5C 59.0956,70.4719 57.2623,62.4719 55.5,54.5C 54.3638,48.4323 53.0304,42.4323 51.5,36.5 Z"/>
    <path style="opacity:1.000" fill="#697499" d="M 46.5,39.5 C 43.7267,52.4715 41.0601,65.4715 38.5,78.5C 37.6851,79.4293 36.8518,80.4293 36,81.5C 36.8559,71.3823 38.6892,61.3823 41.5,51.5C 41.4573,50.5836 41.1239,49.9169 40.5,49.5C 40.5,49.1667 40.5,48.8333 40.5,48.5C 42.7957,48.1959 43.129,47.1959 41.5,45.5C 41.5,45.1667 41.5,44.8333 41.5,44.5C 42.4972,44.5299 43.1639,44.0299 43.5,43C 43.9784,40.7744 44.645,38.6077 45.5,36.5C 46.3857,37.325 46.719,38.325 46.5,39.5 Z"/>
    <path style="opacity:0.875" fill="#1f222d" d="M 56.5,37.5 C 58.0575,43.4447 59.5575,49.4447 61,55.5C 64.459,56.1334 67.959,56.8 71.5,57.5C 68.1667,58.1667 64.8333,58.8333 61.5,59.5C 62.6307,63.1648 63.6307,66.8315 64.5,70.5C 63.5655,71.5676 63.2322,72.901 63.5,74.5C 60.3104,63.748 57.6438,52.748 55.5,41.5C 55.2322,39.901 55.5655,38.5676 56.5,37.5 Z"/>
    <path style="opacity:0.905" fill="#21232e" d="M 51.5,36.5 C 53.0304,42.4323 54.3638,48.4323 55.5,54.5C 54.8333,54.5 54.1667,54.5 53.5,54.5C 52.1775,50.2763 50.8441,45.9429 49.5,41.5C 48.0414,46.1236 46.708,50.7902 45.5,55.5C 46.325,56.3857 47.325,56.719 48.5,56.5C 47.8333,57.1667 47.1667,57.8333 46.5,58.5C 45.3509,58.7911 44.6842,59.6244 44.5,61C 43.2595,67.7365 41.5928,74.2365 39.5,80.5C 39.1667,79.8333 38.8333,79.1667 38.5,78.5C 41.0601,65.4715 43.7267,52.4715 46.5,39.5C 47.404,38.791 47.7373,37.791 47.5,36.5C 48.8333,36.5 50.1667,36.5 51.5,36.5 Z"/>
    <path style="opacity:0.863" fill="#21242f" d="M 41.5,45.5 C 43.129,47.1959 42.7957,48.1959 40.5,48.5C 40.2627,47.209 40.596,46.209 41.5,45.5 Z"/>
    <path style="opacity:0.850" fill="#1e212b" d="M 40.5,49.5 C 41.1239,49.9169 41.4573,50.5836 41.5,51.5C 38.6892,61.3823 36.8559,71.3823 36,81.5C 36.8518,80.4293 37.6851,79.4293 38.5,78.5C 38.8333,79.1667 39.1667,79.8333 39.5,80.5C 38.6394,82.3863 37.6394,84.2196 36.5,86C 35.5509,86.6172 34.7175,86.4506 34,85.5C 33.1514,76.573 34.318,67.9064 37.5,59.5C 23.0654,57.5754 23.0654,56.4087 37.5,56C 38.1319,53.5848 39.1319,51.4181 40.5,49.5 Z"/>
    <path style="opacity:0.859" fill="#1f222c" d="M 53.5,54.5 C 54.1667,54.5 54.8333,54.5 55.5,54.5C 57.2623,62.4719 59.0956,70.4719 61,78.5C 61.4186,79.6721 62.0853,80.6721 63,81.5C 63.4966,79.1902 63.6633,76.8568 63.5,74.5C 63.2322,72.901 63.5655,71.5676 64.5,70.5C 65.4964,75.4626 65.6631,80.4626 65,85.5C 64,86.8333 63,86.8333 62,85.5C 57.8014,77.0262 55.3014,68.0262 54.5,58.5C 53.1667,58.5 51.8333,58.5 50.5,58.5C 50.6567,59.8734 50.49,61.2068 50,62.5C 49.2597,60.6813 48.0931,59.3479 46.5,58.5C 47.1667,57.8333 47.8333,57.1667 48.5,56.5C 49.1667,49.8333 49.8333,49.8333 50.5,56.5C 52.1788,56.7148 53.1788,56.0481 53.5,54.5 Z"/>
  </svg>
</svg>