<svg width="48" height="48" viewBox="0 0 48 48" fill-rule="evenodd" clip-rule="evenodd" xmlns="http://www.w3.org/2000/svg"><defs><linearGradient id="bordergrad" x1="0%" y1="0%" x2="100%" y2="0%"><stop offset="0%" stop-color="#b8bbc7" /><stop offset="100%" stop-color="#363945" /></linearGradient></defs><rect x="1" y="1" rx="8" ry="8" width="46" height="46" fill="#F0EDE5" stroke="url(#bordergrad)" stroke-width="2" /><svg x="5" y="5" width="38" height="38" viewBox="0 0 100 100"><svg x="-20" y="-21" width="140" height="140" viewBox="0 0 100 100"><path fill="#99a6cd" d="M46.882,20.228v-2.269c0-1.31,1.35-2.382,3-2.382h0c1.65,0,3,1.072,3,2.382v3.269"/><path fill="#7783ad" d="M48.84 37.543L39.49 79.078 35.78 85.273 35.166 78.078 44.831 35.826"/><path fill="#6474a6" d="M43.946,21.228c-0.021,0.191-0.064,0.376-0.064,0.571v9.714c0,3.143,2.831,5.714,6.29,5.714h0.419c3.46,0,6.29-2.571,6.29-5.714V21.8c0-0.196-0.042-0.381-0.064-0.571H43.946z"/><path fill="#1f212b" d="M50.592,38.228h-0.42c-4.02,0-7.29-3.012-7.29-6.714V21.8c0-0.182,0.022-0.357,0.049-0.532l0.021-0.151c0.058-0.506,0.485-0.888,0.994-0.888h12.873c0.509,0,0.937,0.382,0.994,0.888l0.021,0.151c0.026,0.175,0.049,0.351,0.049,0.532v9.715C57.882,35.217,54.611,38.228,50.592,38.228z M44.882,22.228v9.286c0,2.6,2.373,4.714,5.29,4.714h0.42c2.917,0,5.29-2.114,5.29-4.714v-9.286H44.882z"/><path fill="#1f212b" d="M50.382 30.228c-1.379 0-2.5-1.121-2.5-2.5s1.121-2.5 2.5-2.5 2.5 1.121 2.5 2.5S51.761 30.228 50.382 30.228zM50.382 26.228c-.827 0-1.5.673-1.5 1.5s.673 1.5 1.5 1.5 1.5-.673 1.5-1.5S51.209 26.228 50.382 26.228zM42.921 45.097c-.074 0-.149-.008-.224-.025-.539-.123-.875-.659-.752-1.197l1.893-8.271c.123-.539.665-.88 1.197-.752.539.123.875.659.752 1.197l-1.893 8.271C43.789 44.784 43.377 45.097 42.921 45.097zM42.004 49.108c-.074 0-.148-.008-.224-.025-.539-.123-.875-.659-.752-1.197l.103-.448c.123-.539.665-.88 1.197-.752.539.123.875.659.752 1.197l-.103.448C42.872 48.795 42.46 49.108 42.004 49.108z"/><path fill="#1f212b" d="M35.761 86.272c-.074 0-.15-.009-.226-.025-.423-.098-.734-.457-.771-.89l-.613-7.194c-.009-.104-.002-.207.021-.308l6.222-27.199c.123-.54.658-.879 1.197-.752.539.123.875.659.752 1.197l-6.187 27.047.337 3.954 2.037-3.4 9.314-41.378c.121-.54.659-.876 1.195-.756.539.121.877.656.756 1.195l-9.35 41.534c-.023.104-.063.203-.118.294l-3.711 6.194C36.436 86.093 36.106 86.272 35.761 86.272zM71.382 58.228h-11c-.276 0-.5-.224-.5-.5s.224-.5.5-.5h11c.276 0 .5.224.5.5S71.658 58.228 71.382 58.228z"/><path fill="#1f212b" d="M53.382 58.285c-.001 0-.002 0-.004 0l-8-.057c-.275-.002-.498-.228-.496-.504.002-.274.226-.496.5-.496.001 0 .002 0 .004 0l8 .057c.275.002.498.228.496.504C53.88 58.063 53.656 58.285 53.382 58.285zM40.382 58.228h-12c-.276 0-.5-.224-.5-.5s.224-.5.5-.5h12c.276 0 .5.224.5.5S40.658 58.228 40.382 58.228z"/><path fill="#1f212b" d="M50.382,62.228c-0.276,0-0.5-0.224-0.5-0.5v-9c0-0.276,0.224-0.5,0.5-0.5s0.5,0.224,0.5,0.5v9C50.882,62.005,50.658,62.228,50.382,62.228z"/><path fill="#7783ad" d="M51.179 37.543L60.529 79.078 64.239 85.273 64.852 78.078 55.187 35.826"/><path fill="#1f212b" d="M64.239 86.272c-.346 0-.675-.18-.857-.486l-3.711-6.194c-.055-.091-.095-.19-.118-.294l-9.35-41.534c-.121-.539.217-1.074.756-1.195.537-.119 1.074.217 1.195.756l9.314 41.378 2.037 3.4.337-3.954-9.63-42.1c-.123-.538.213-1.074.752-1.197.527-.128 1.074.213 1.197.752l9.665 42.252c.023.101.03.204.021.308l-.613 7.194c-.036.433-.348.792-.771.89C64.39 86.264 64.314 86.272 64.239 86.272zM47.382 21.228c-.276 0-.5-.224-.5-.5v-2.665c0-1.589 1.57-2.882 3.5-2.882s3.5 1.293 3.5 2.882c0 .276-.224.5-.5.5s-.5-.224-.5-.5c0-1.021-1.145-1.882-2.5-1.882s-2.5.861-2.5 1.882v2.665C47.882 21.005 47.658 21.228 47.382 21.228z"/></svg></svg></svg>