<svg width="588" height="128" viewBox="0 0 588 128" fill-rule="evenodd" clip-rule="evenodd" xmlns="http://www.w3.org/2000/svg"><svg x="-16" y="-16" width="160" height="160" viewBox="0 0 100 100"><path fill="#fefdef" d="M81.95,79.23l-42.88,6.79l-11.89,1.89c-3.27,0.52-6.35-1.69-6.87-4.94L13,37.56L79.62,27l7.31,45.41 C87.45,75.66,85.22,78.71,81.95,79.23z"/><path fill="#4e6e91" d="M77.273,16.333c-0.914-3.16-4.246-4.983-7.441-4.073l-53.49,15.234 c-3.196,0.91-5.045,4.21-4.131,7.369L13,37.558l65.062-18.53L77.273,16.333z"/><polygon fill="#4e6e91" points="79.62,27 72.37,36.75 62.84,38.26 70.08,28.51"/><polygon fill="#4e6e91" points="60.55,30.02 53.3,39.77 43.77,41.28 51.02,31.53"/><polygon fill="#4e6e91" points="41.39,33.06 34.18,42.8 24.71,44.3 31.95,34.56"/><polygon fill="#4e6e91" points="22.42,36.07 15.18,45.81 14.35,45.94 13,37.56"/><path fill="#fefdef" d="M78.06,19.03l-12.62-5.52l4.39-1.25c0.56-0.16,1.12-0.23,1.67-0.23c2.61,0,5.02,1.69,5.77,4.3 L78.06,19.03z"/><polygon fill="#fefdef" points="68.77,21.67 59.49,24.32 46.88,18.8 56.15,16.15 56.16,16.15"/><polygon fill="#fefdef" points="50.2,26.96 40.92,29.61 28.3,24.08 37.59,21.44"/><path fill="#fefdef" d="M31.64,32.25l-9.29,2.65l-9.76-4.28c0.72-1.47,2.04-2.64,3.75-3.13l2.68-0.76L31.64,32.25z"/><g><polygon fill="#f9e65c" points="50.88,61.38 22.02,65.1 19.3,48.2"/><path fill="#8cc78c" d="M50.88,61.38l-8.14,19.51l-16.23,2.57c-0.54,0.09-0.94-0.13-1.13-0.26 c-0.18-0.14-0.49-0.43-0.59-0.94l-0.01-0.04l-0.13-0.82L50.88,61.38z"/><polygon fill="#78a1d1" points="63.29,77.63 53.18,79.24 50.88,61.38"/><path fill="#ae5ca3" d="M82.46,73.5c-0.05,0.34-0.21,0.65-0.45,0.87L50.88,61.38l29.08-3.75l2.49,15.45L82.46,73.5z"/><path fill="#f05b6c" d="M77.76,40.87L50.88,61.38l8.41-20.03l17.6-2.79c0.27-0.04,0.53,0.15,0.57,0.42L77.76,40.87z"/><polygon fill="#f9b621" points="50.88,61.38 38.5,45.16 48.59,43.56"/><polygon fill="#ead032" points="50.88,61.38 19.3,48.2 38.5,45.16"/><polygon fill="#dce775" points="50.88,61.38 24.65,81.4 22.02,65.1"/><polygon fill="#60bd91" points="53.18,79.24 42.74,80.89 50.88,61.38"/><path fill="#c26dab" d="M82.01,74.37c-0.2,0.21-0.46,0.35-0.75,0.41l-17.97,2.85L50.88,61.38L82.01,74.37z"/><polygon fill="#ee4267" points="77.76,40.87 80.45,57.57 50.88,61.38"/><polygon fill="#f5905f" points="59.061,41.896 50.88,61.38 48.59,43.56"/></g><g><path fill="#fef598" d="M50.891,61.391L37.63,63.1c-0.087-0.606-0.13-1.222-0.13-1.85c0-1.785,0.357-3.494,0.984-5.04 L50.891,61.391z"/><path fill="#a6e6a7" d="M50.891,61.391l-5.073,12.158c-2.174-0.865-4.056-2.293-5.473-4.11L50.891,61.391z"/><path fill="#9dc4e8" d="M58.808,71.763c-1.774,1.374-3.905,2.293-6.241,2.618l-1.677-12.99L58.808,71.763z"/><path fill="#d476b9" d="M64,61.25c0,1.839-0.368,3.58-1.049,5.17l-12.06-5.03l13.023-1.677 C63.968,60.212,64,60.731,64,61.25z"/><path fill="#f27c7c" d="M61.404,53.365l-10.513,8.026l5.159-12.287C58.192,50.033,60.03,51.515,61.404,53.365z"/><path fill="#f9cf75" d="M50.891,61.391l-8.155-10.687c1.828-1.395,4.034-2.326,6.446-2.607L50.891,61.391z"/><path fill="#fae973" d="M50.891,61.391L38.484,56.21c0.909-2.196,2.38-4.099,4.251-5.505L50.891,61.391z"/><path fill="#e7f598" d="M50.891,61.391l-10.546,8.047c-1.428-1.785-2.39-3.959-2.715-6.338L50.891,61.391z"/><path fill="#84d6af" d="M52.567,74.381c-0.595,0.076-1.201,0.119-1.817,0.119c-1.741,0-3.407-0.335-4.932-0.952 l5.073-12.158L52.567,74.381z"/><path fill="#d485ba" d="M62.951,66.42c-0.898,2.12-2.336,3.959-4.143,5.343l-7.918-10.373L62.951,66.42z"/><path fill="#f27e97" d="M63.913,59.714l-13.023,1.677l10.513-8.026C62.745,55.171,63.643,57.345,63.913,59.714z"/><path fill="#fbb97f" d="M56.05,49.103l-5.159,12.287l-1.709-13.293C49.69,48.032,50.22,48,50.75,48 C52.643,48,54.428,48.389,56.05,49.103z"/></g><g><path fill="#fff9b8" d="M50.838,61.338l-8.257,1.064c-0.054-0.377-0.081-0.761-0.081-1.152c0-1.111,0.222-2.175,0.613-3.138 L50.838,61.338z"/><path fill="#beebbf" d="M50.838,61.338l-3.159,7.57c-1.354-0.539-2.526-1.428-3.408-2.559L50.838,61.338z"/><path fill="#c1ddf1" d="M55.767,67.796c-1.104,0.855-2.431,1.428-3.886,1.63l-1.044-8.088L55.767,67.796z"/><path fill="#e6a3ce" d="M59,61.25c0,1.145-0.229,2.229-0.653,3.219l-7.509-3.132l8.109-1.044 C58.98,60.603,59,60.927,59,61.25z"/><path fill="#f5b0b6" d="M57.384,56.34l-6.546,4.997l3.212-7.651C55.383,54.266,56.528,55.189,57.384,56.34z"/><path fill="#f9dea2" d="M50.838,61.338l-5.078-6.654c1.138-0.869,2.512-1.448,4.014-1.623L50.838,61.338z"/><path fill="#fef6aa" d="M50.838,61.338l-7.725-3.226c0.566-1.367,1.482-2.552,2.647-3.428L50.838,61.338z"/><path fill="#edf5bf" d="M50.838,61.338l-6.566,5.011c-0.889-1.111-1.488-2.465-1.69-3.947L50.838,61.338z"/><path fill="#aae6c8" d="M51.881,69.426c-0.37,0.047-0.748,0.074-1.131,0.074c-1.084,0-2.121-0.209-3.071-0.593l3.159-7.57 L51.881,69.426z"/><path fill="#e8acd5" d="M58.347,64.469c-0.559,1.32-1.455,2.465-2.579,3.327l-4.93-6.459L58.347,64.469z"/><path fill="#f2a0b2" d="M58.946,60.294l-8.109,1.044l6.546-4.997C58.219,57.465,58.778,58.819,58.946,60.294z"/><path fill="#fdd4b2" d="M54.05,53.687l-3.212,7.651l-1.064-8.277C50.09,53.02,50.42,53,50.75,53 C51.929,53,53.04,53.242,54.05,53.687z"/></g><g><path fill="#fefbd8" d="M50.784,61.284l-3.253,0.419c-0.021-0.149-0.032-0.3-0.032-0.454c0-0.438,0.088-0.857,0.241-1.236 L50.784,61.284z"/><path fill="#daf2dc" d="M50.784,61.284l-1.244,2.982c-0.533-0.212-0.995-0.562-1.342-1.008L50.784,61.284z"/><path fill="#d2e4f1" d="M52.727,63.829c-0.435,0.337-0.958,0.562-1.531,0.642l-0.411-3.186L52.727,63.829z"/><path fill="#edc6e0" d="M54,61.25c0,0.451-0.09,0.878-0.257,1.268l-2.958-1.234l3.194-0.411 C53.992,60.995,54,61.123,54,61.25z"/><path fill="#f3dddd" d="M53.363,59.316l-2.579,1.969l1.266-3.014C52.575,58.499,53.026,58.862,53.363,59.316z"/><path fill="#f9ebcc" d="M50.784,61.284l-2-2.621c0.448-0.342,0.99-0.57,1.581-0.639L50.784,61.284z"/><path fill="#fefad0" d="M50.784,61.284l-3.043-1.271c0.223-0.539,0.584-1.005,1.043-1.35L50.784,61.284z"/><path fill="#fdf8cd" d="M50.784,61.284l-2.587,1.974c-0.35-0.438-0.586-0.971-0.666-1.555L50.784,61.284z"/><path fill="#ccf0de" d="M51.196,64.471C51.05,64.489,50.901,64.5,50.75,64.5c-0.427,0-0.836-0.082-1.21-0.233l1.244-2.982 L51.196,64.471z"/><path fill="#e6cddc" d="M53.743,62.518c-0.22,0.52-0.573,0.971-1.016,1.311l-1.942-2.544L53.743,62.518z"/><path fill="#f7d0d4" d="M53.979,60.873l-3.194,0.411l2.579-1.969C53.692,59.759,53.912,60.292,53.979,60.873z"/><path fill="#fde8d5" d="M52.05,58.271l-1.266,3.014l-0.419-3.261C50.49,58.008,50.62,58,50.75,58 C51.214,58,51.652,58.096,52.05,58.271z"/></g><g><path fill="#1f212b" d="M26.227,88.983c-3.376,0-6.356-2.44-6.906-5.855l-7.311-45.41c-0.042-0.263,0.021-0.531,0.178-0.746 c0.155-0.215,0.391-0.359,0.653-0.4L79.46,26.013c0.543-0.093,1.056,0.284,1.144,0.828l7.311,45.41 c0.294,1.826-0.143,3.658-1.229,5.16c-1.098,1.515-2.725,2.511-4.58,2.805l-54.77,8.68C26.963,88.955,26.593,88.983,26.227,88.983z M14.144,38.39l7.151,44.42c0.435,2.7,3.017,4.544,5.727,4.111l54.771-8.68l0,0c1.327-0.211,2.489-0.922,3.272-2.004 c0.773-1.067,1.084-2.37,0.875-3.668l-7.152-44.426L14.144,38.39z"/><path fill="#1f212b" d="M13,38.559c-0.434,0-0.832-0.283-0.96-0.719l-0.789-2.695c-0.514-1.777-0.303-3.647,0.595-5.268 c0.908-1.64,2.408-2.828,4.222-3.345l53.491-15.234c3.717-1.058,7.609,1.073,8.674,4.756l0.79,2.693 c0.074,0.256,0.044,0.531-0.084,0.765c-0.129,0.233-0.346,0.405-0.603,0.479l-65.063,18.53C13.183,38.547,13.09,38.559,13,38.559z M71.497,13.026c-0.46,0-0.927,0.063-1.391,0.195L16.615,28.456c-1.298,0.37-2.371,1.219-3.02,2.391 c-0.638,1.151-0.789,2.479-0.424,3.738l0.509,1.74l63.139-17.982l-0.507-1.729c0-0.001,0-0.002-0.001-0.004 C75.685,14.441,73.677,13.026,71.497,13.026z"/><path fill="#1f212b" d="M62.84,38.76c-0.173,0-0.336-0.09-0.428-0.241c-0.105-0.174-0.095-0.394,0.026-0.557l7.24-9.75 c0.078-0.105,0.194-0.176,0.323-0.196l9.54-1.51c0.205-0.032,0.4,0.062,0.506,0.235s0.095,0.395-0.026,0.558l-7.25,9.75 c-0.078,0.104-0.194,0.175-0.323,0.195l-9.53,1.51C62.892,38.758,62.865,38.76,62.84,38.76z M70.359,28.972l-6.388,8.603 l8.119-1.286l6.396-8.603L70.359,28.972z"/><path fill="#1f212b" d="M43.77,41.78c-0.173,0-0.336-0.09-0.428-0.241c-0.105-0.174-0.095-0.394,0.026-0.558l7.25-9.75 c0.078-0.104,0.194-0.175,0.323-0.195l9.53-1.511c0.206-0.032,0.401,0.062,0.506,0.235c0.105,0.174,0.095,0.394-0.026,0.558 l-7.25,9.75c-0.078,0.104-0.194,0.175-0.323,0.195l-9.53,1.511C43.821,41.778,43.795,41.78,43.77,41.78z M51.299,31.992 l-6.396,8.603l8.118-1.287l6.396-8.603L51.299,31.992z"/><path fill="#1f212b" d="M24.71,44.8c-0.173,0-0.336-0.09-0.428-0.241c-0.105-0.174-0.095-0.394,0.026-0.557l7.24-9.74 c0.078-0.105,0.194-0.176,0.323-0.196l9.439-1.5c0.2-0.029,0.4,0.062,0.506,0.234c0.105,0.174,0.095,0.394-0.025,0.558l-7.21,9.74 c-0.078,0.104-0.194,0.176-0.324,0.196l-9.47,1.5C24.762,44.798,24.735,44.8,24.71,44.8z M32.229,35.021l-6.387,8.593l8.057-1.276 l6.36-8.593L32.229,35.021z"/><path fill="#1f212b" d="M14.349,46.44c-0.241,0-0.453-0.175-0.492-0.421l-1.35-8.381c-0.021-0.131,0.011-0.265,0.088-0.372 c0.078-0.108,0.196-0.18,0.327-0.201l9.42-1.489c0.205-0.029,0.4,0.062,0.506,0.235s0.095,0.394-0.026,0.557l-7.24,9.739 c-0.078,0.105-0.194,0.176-0.323,0.196l-0.83,0.131C14.401,46.438,14.375,46.44,14.349,46.44z M13.573,37.976l1.19,7.394 l0.137-0.021l6.387-8.592L13.573,37.976z"/><path fill="#1f212b" d="M78.06,19.53c-0.067,0-0.136-0.014-0.2-0.042L65.24,13.968c-0.193-0.085-0.313-0.281-0.299-0.492 c0.015-0.21,0.159-0.389,0.362-0.446l4.39-1.25c0.576-0.165,1.184-0.249,1.807-0.249c2.892,0,5.462,1.917,6.25,4.662l0.789,2.697 c0.055,0.187-0.003,0.388-0.149,0.516C78.297,19.487,78.179,19.53,78.06,19.53z M66.916,13.609l10.363,4.533l-0.489-1.672 c-0.667-2.321-2.842-3.94-5.29-3.94c-0.529,0-1.045,0.07-1.532,0.21L66.916,13.609z"/><path fill="#1f212b" d="M59.49,24.82c-0.068,0-0.137-0.014-0.2-0.042l-12.61-5.521c-0.193-0.085-0.313-0.281-0.299-0.491 c0.015-0.211,0.159-0.39,0.361-0.447l9.271-2.649c0.111-0.032,0.243-0.024,0.348,0.022l12.609,5.52 c0.193,0.085,0.313,0.281,0.299,0.491c-0.015,0.211-0.159,0.39-0.361,0.447l-9.279,2.65C59.583,24.813,59.536,24.82,59.49,24.82z M48.353,18.898l11.174,4.892l7.77-2.22l-11.175-4.892L48.353,18.898z"/><path fill="#1f212b" d="M40.92,30.11c-0.068,0-0.137-0.014-0.2-0.042l-12.621-5.53c-0.192-0.085-0.313-0.281-0.298-0.492 c0.015-0.21,0.159-0.389,0.362-0.447l9.29-2.64c0.111-0.032,0.231-0.024,0.337,0.023l12.61,5.52 c0.193,0.085,0.313,0.281,0.299,0.491c-0.015,0.211-0.159,0.39-0.361,0.447l-9.28,2.65C41.013,30.104,40.966,30.11,40.92,30.11z M29.775,24.181l11.181,4.899l7.771-2.22l-11.173-4.89L29.775,24.181z"/><path fill="#1f212b" d="M22.35,35.4c-0.068,0-0.137-0.014-0.201-0.042l-9.76-4.28c-0.124-0.055-0.222-0.158-0.269-0.286 s-0.039-0.27,0.021-0.392c0.807-1.646,2.286-2.882,4.062-3.391l2.681-0.761c0.111-0.032,0.23-0.024,0.337,0.023l12.62,5.52 c0.193,0.084,0.313,0.281,0.299,0.491c-0.015,0.211-0.159,0.39-0.362,0.447l-9.29,2.65C22.441,35.394,22.396,35.4,22.35,35.4z M13.291,30.382l9.095,3.988l7.779-2.22l-11.182-4.89l-2.507,0.711C15.144,28.354,14.007,29.22,13.291,30.382z"/><path fill="#1f212b" d="M26.263,83.981c-0.55,0-0.959-0.228-1.171-0.381c-0.251-0.18-0.691-0.59-0.806-1.304l-5.478-34.021 c-0.021-0.131,0.011-0.265,0.088-0.372c0.078-0.108,0.196-0.18,0.327-0.201l43.198-6.847c0.268-0.039,0.529,0.143,0.572,0.416 c0.043,0.272-0.144,0.528-0.416,0.572l-42.703,6.768l5.397,33.526c0.058,0.355,0.277,0.56,0.403,0.65 c0.128,0.092,0.395,0.239,0.753,0.179l54.688-8.666c0.266-0.042,0.499-0.186,0.658-0.403c0.158-0.216,0.222-0.48,0.18-0.742 l-2.829-17.577c-0.044-0.272,0.141-0.529,0.414-0.572c0.265-0.053,0.529,0.141,0.572,0.414l2.83,17.577 c0.085,0.524-0.042,1.052-0.355,1.484c-0.315,0.436-0.783,0.723-1.315,0.808l-54.686,8.666 C26.474,83.974,26.365,83.981,26.263,83.981z"/><path fill="#1f212b" d="M78.008,46c-0.241,0-0.453-0.175-0.492-0.421l-0.161-1c-0.044-0.272,0.141-0.528,0.414-0.572 c0.267-0.053,0.528,0.141,0.572,0.414l0.161,1c0.044,0.272-0.141,0.528-0.414,0.572C78.062,45.998,78.034,46,78.008,46z"/><path fill="#1f212b" d="M78.813,51c-0.241,0-0.453-0.175-0.493-0.421l-0.482-3c-0.043-0.272,0.143-0.529,0.415-0.573 c0.265-0.039,0.529,0.142,0.573,0.415l0.482,3c0.043,0.272-0.143,0.529-0.415,0.573C78.866,50.998,78.839,51,78.813,51z"/></g></svg><svg x="144" y="46" width="282" height="48" viewBox="0 0 642 110"><path opacity="0.966" fill="#353844" d="M 354.5,0.5 C 363.464,6.44832 372.464,12.4483 381.5,18.5C 363.633,36.4258 355.633,58.0925 357.5,83.5C 347.447,83.9503 337.447,83.9503 327.5,83.5C 313.141,64.7769 303.641,43.7769 299,20.5C 295.369,17.958 291.536,15.7914 287.5,14C 289.308,11.1615 291.642,8.99485 294.5,7.5C 311.744,13.5478 329.411,17.5478 347.5,19.5C 346.294,22.0794 344.961,24.5794 343.5,27C 338.821,26.928 334.154,26.428 329.5,25.5C 328.343,41.5413 332.176,56.208 341,69.5C 343,71.5 345,73.5 347,75.5C 346.105,59.1998 348.772,43.5331 355,28.5C 357.127,24.4106 359.627,20.5772 362.5,17C 358.545,14.7383 354.545,12.5716 350.5,10.5C 352.037,7.21751 353.37,3.88418 354.5,0.5 Z"/><path opacity="0.968" fill="#353844" d="M 15.5,2.5 C 22.3711,6.4037 29.7044,9.23704 37.5,11C 50.1552,12.3452 62.8219,12.1786 75.5,10.5C 91.7851,10.7881 98.2851,18.7881 95,34.5C 90.85,41.6349 84.6834,46.1349 76.5,48C 70.8973,49.1237 65.2306,49.7904 59.5,50C 62.4125,51.3726 65.2458,52.8726 68,54.5C 69.4039,56.6389 70.2372,58.9722 70.5,61.5C 64.7135,77.4844 69.7135,82.6511 85.5,77C 87.9962,75.9196 90.3295,74.5862 92.5,73C 89.0188,72.8605 85.5188,73.0271 82,73.5C 77.163,74.3373 73.9963,72.5039 72.5,68C 76.0589,60.2012 82.0589,55.2012 90.5,53C 103.384,51.5492 107.55,57.0492 103,69.5C 95.1618,82.5793 83.4951,88.246 68,86.5C 59.8203,87.8933 53.487,85.2266 49,78.5C 48.0721,69.7665 46.7388,61.0998 45,52.5C 43.3054,49.3055 40.8054,46.9722 37.5,45.5C 36.3391,49.7953 36.1725,54.1287 37,58.5C 38.0526,66.9282 39.5526,75.2615 41.5,83.5C 28.5,83.5 15.5,83.5 2.5,83.5C 2.29777,81.0108 2.79777,78.6775 4,76.5C 6.89898,76.0233 9.56565,75.0233 12,73.5C 13.0928,61.0909 14.7595,48.7576 17,36.5C 18.3744,29.7102 20.541,23.2102 23.5,17C 19.7665,16.9345 16.2665,16.1011 13,14.5C 13.4958,10.5047 14.3291,6.50469 15.5,2.5 Z M 49.5,21.5 C 59.4323,21.4216 68.2656,24.4216 76,30.5C 78.3831,35.2312 76.8831,38.0645 71.5,39C 58.2155,41.6766 46.0488,39.1766 35,31.5C 34.3333,29.8333 34.3333,28.1667 35,26.5C 39.5691,23.7003 44.4025,22.0336 49.5,21.5 Z"/><path opacity="0.969" fill="#353844" d="M 496.5,5.5 C 498.5,5.5 500.5,5.5 502.5,5.5C 503.723,10.3521 502.056,13.5188 497.5,15C 496.106,15.956 495.439,17.2894 495.5,19C 497.427,29.7587 497.927,40.5921 497,51.5C 496.353,57.2575 494.853,62.7575 492.5,68C 495.746,67.6835 499.08,67.5168 502.5,67.5C 503.468,72.1879 503.468,76.8545 502.5,81.5C 496.202,79.4261 489.868,79.5928 483.5,82C 480.741,83.2377 477.907,84.4043 475,85.5C 474.5,85.1667 474,84.8333 473.5,84.5C 474.851,81.8255 475.185,79.1588 474.5,76.5C 462.779,83.6671 450.446,85.1671 437.5,81C 431.854,77.8788 429.187,73.0455 429.5,66.5C 429.627,56.6208 432.46,47.6208 438,39.5C 444.886,32.9078 453.052,30.7412 462.5,33C 468.041,34.685 472.874,37.5183 477,41.5C 477.248,37.0635 476.581,32.7302 475,28.5C 472.094,22.4361 468.594,16.7694 464.5,11.5C 475.334,9.69694 486.001,7.69694 496.5,5.5 Z M 463.5,51.5 C 468.656,51.748 473.656,52.748 478.5,54.5C 479.848,56.6114 479.515,58.4447 477.5,60C 466.389,67.3865 454.889,68.2198 443,62.5C 442.289,60.6332 442.789,59.1332 444.5,58C 450.586,54.6944 456.92,52.5277 463.5,51.5 Z"/><path opacity="0.965" fill="#353945" d="M 398.5,7.5 C 405.921,7.10946 413.254,7.60946 420.5,9C 433.237,16.499 432.237,21.8323 417.5,25C 411.833,25.6667 406.167,25.6667 400.5,25C 393.527,22.7494 391.027,18.2494 393,11.5C 394.5,9.5313 396.333,8.19796 398.5,7.5 Z"/><path opacity="0.958" fill="#353845" d="M 208.5,25.5 C 209.675,25.281 210.675,25.6143 211.5,26.5C 212.407,29.0567 213.407,31.5567 214.5,34C 212.048,34.2895 209.715,34.9562 207.5,36C 209.974,39.7747 212.807,43.2747 216,46.5C 220.3,43.2019 224.3,39.5352 228,35.5C 228.63,33.0966 227.797,31.2633 225.5,30C 226.267,27.9471 227.6,26.4471 229.5,25.5C 236.939,28.0528 244.273,30.8861 251.5,34C 241.596,40.1122 232.263,46.9455 223.5,54.5C 230.148,62.3155 236.981,69.9822 244,77.5C 249.455,75.4365 251.955,77.4365 251.5,83.5C 238.745,84.4173 226.078,86.0839 213.5,88.5C 210.633,87.4879 208.633,85.4879 207.5,82.5C 209.882,80.9293 212.549,80.096 215.5,80C 216.357,79.3109 217.023,78.4776 217.5,77.5C 215.623,73.1197 212.79,69.4531 209,66.5C 204.967,70.8679 200.634,74.8679 196,78.5C 195.542,81.096 196.375,83.2627 198.5,85C 197.257,86.1545 196.257,87.4878 195.5,89C 187.158,87.7053 178.991,85.5386 171,82.5C 170.833,82.1667 170.667,81.8333 170.5,81.5C 181.012,74.0771 191.345,66.4105 201.5,58.5C 195.65,51.8163 189.317,45.6497 182.5,40C 180.331,39.5706 178.331,40.0706 176.5,41.5C 174.777,39.0535 174.277,36.3868 175,33.5C 186.624,32.4115 197.79,29.7448 208.5,25.5 Z"/><path opacity="0.968" fill="#353844" d="M 417.5,29.5 C 418.833,29.5 420.167,29.5 421.5,29.5C 418.903,42.0418 417.736,54.7085 418,67.5C 418.297,70.4381 419.797,72.4381 422.5,73.5C 424.747,72.6258 427.08,72.2924 429.5,72.5C 429.5,76.5 429.5,80.5 429.5,84.5C 412.769,83.3643 396.102,83.3643 379.5,84.5C 379.98,82.0514 380.98,79.8847 382.5,78C 385.696,77.6042 388.53,76.4375 391,74.5C 395.705,64.9047 397.038,54.9047 395,44.5C 392.271,42.6787 389.437,42.012 386.5,42.5C 385.054,40.3821 384.387,38.0488 384.5,35.5C 395.917,35.099 406.917,33.099 417.5,29.5 Z"/><path opacity="0.964" fill="#353845" d="M 528.5,29.5 C 536.84,29.3336 545.173,29.5003 553.5,30C 569.269,33.6849 575.269,43.5182 571.5,59.5C 556.891,57.0651 542.224,55.0651 527.5,53.5C 526.4,62.3946 527.9,70.7279 532,78.5C 536.855,83.5289 542.022,84.1956 547.5,80.5C 540.206,78.869 535.539,74.5357 533.5,67.5C 533.406,65.0884 534.406,63.255 536.5,62C 544.153,60.04 551.819,60.04 559.5,62C 567.408,64.7508 569.574,69.9175 566,77.5C 562.226,83.6411 556.726,87.1411 549.5,88C 517.717,91.5497 502.883,77.383 505,45.5C 506.211,42.2409 508.044,39.4075 510.5,37C 516.149,33.4023 522.149,30.9023 528.5,29.5 Z M 537.5,36.5 C 541.22,36.5642 544.886,37.0642 548.5,38C 553.802,39.8634 554.469,42.5301 550.5,46C 542.773,47.7449 535.107,47.4115 527.5,45C 525.167,43.7574 524.5,42.0907 525.5,40C 529.482,38.3295 533.482,37.1629 537.5,36.5 Z"/><path opacity="0.969" fill="#353845" d="M 136.5,30.5 C 167.607,25.6898 178.441,38.3564 169,68.5C 162.054,85.3877 149.554,91.8877 131.5,88C 113.048,82.9275 105.215,71.0942 108,52.5C 113.889,40.44 123.389,33.1067 136.5,30.5 Z M 140.5,49.5 C 147.371,49.6 154.037,50.7667 160.5,53C 164.152,56.1531 163.819,59.1531 159.5,62C 148.891,68.3234 137.558,70.3234 125.5,68C 116.766,66.6931 115.433,63.0264 121.5,57C 127.485,53.3305 133.819,50.8305 140.5,49.5 Z"/><path opacity="0.970" fill="#353845" d="M 602.5,30.5 C 636.878,26.2045 647.378,40.2045 634,72.5C 626.033,86.2283 614.2,91.395 598.5,88C 581.138,83.4082 572.971,72.2415 574,54.5C 579.125,41.2008 588.625,33.2008 602.5,30.5 Z M 607.5,49.5 C 614.371,49.6 621.037,50.7667 627.5,53C 630.034,55.5867 630.034,58.2533 627.5,61C 616.459,68.2441 604.459,70.5774 591.5,68C 583.597,66.0513 582.597,62.3846 588.5,57C 594.431,53.1955 600.764,50.6955 607.5,49.5 Z"/></svg><svg x="442" y="40" width="66" height="48" viewBox="0 0 150 110" fill-rule="evenodd" clip-rule="evenodd" xmlns="http://www.w3.org/2000/svg"><path opacity="0.941" fill="#353844" d="M 29.5,31.5 C 37.2382,31.1439 44.9048,31.6439 52.5,33C 61.709,38.8708 61.709,44.5374 52.5,50C 46.5692,51.4712 40.5692,51.8045 34.5,51C 32.3025,49.1217 32.1358,46.9551 34,44.5C 37.453,40.8549 41.6197,38.3549 46.5,37C 42.7677,33.9427 39.101,33.9427 35.5,37C 30.4229,44.7294 27.4229,53.2294 26.5,62.5C 29.1873,62.6641 31.854,62.4974 34.5,62C 35.0195,59.9742 35.3528,57.9742 35.5,56C 38.4318,55.0467 41.4318,54.5467 44.5,54.5C 42.5609,60.6881 41.0609,67.0215 40,73.5C 37.2809,74.4438 34.4475,74.7771 31.5,74.5C 32.5749,70.062 30.9083,68.062 26.5,68.5C 26.8895,74.0581 28.2229,79.3914 30.5,84.5C 22.578,85.7675 14.9113,87.7675 7.5,90.5C 7.68155,88.4086 7.34822,86.4086 6.5,84.5C 8.88217,82.9293 11.5488,82.096 14.5,82C 12.242,77.4706 11.0753,72.6372 11,67.5C 1.47201,71.5811 -0.694657,69.2477 4.5,60.5C 6.77129,59.6365 9.10462,59.6365 11.5,60.5C 10.7283,46.3343 16.7283,36.6676 29.5,31.5 Z"/><path opacity="0.941" fill="#353945" d="M 119.5,45.5 C 120.675,45.281 121.675,45.6143 122.5,46.5C 121.41,47.6086 121.41,48.6086 122.5,49.5C 129.46,47.091 136.46,46.9243 143.5,49C 147.367,52.6602 148.534,57.1602 147,62.5C 143.845,65.6673 140.012,67.5006 135.5,68C 131.167,68.6667 126.833,68.6667 122.5,68C 121.074,65.2886 121.408,62.7886 123.5,60.5C 126.764,57.0335 130.764,54.8668 135.5,54C 123.285,52.366 116.952,57.866 116.5,70.5C 116.833,72.1667 117.167,73.8333 117.5,75.5C 120.37,76.122 123.204,76.7887 126,77.5C 126.265,79.1626 125.765,80.6626 124.5,82C 112.808,83.002 101.141,84.1687 89.5,85.5C 89.2011,83.396 89.5344,81.396 90.5,79.5C 92.7105,78.8772 94.7105,77.8772 96.5,76.5C 99.7159,70.7357 102.383,64.7357 104.5,58.5C 102.86,56.4172 100.86,56.0838 98.5,57.5C 98.5751,54.7938 98.9084,52.1272 99.5,49.5C 106.723,50.8554 113.39,49.522 119.5,45.5 Z"/><path opacity="0.955" fill="#353945" d="M 73.5,49.5 C 98.1547,45.4941 103.655,53.8275 90,74.5C 81.9176,84.8616 71.4176,88.6949 58.5,86C 47.7829,80.6488 45.6162,72.8154 52,62.5C 57.9276,55.9598 65.0943,51.6265 73.5,49.5 Z M 74.5,62.5 C 78.1879,62.7811 81.8546,63.2811 85.5,64C 87.8073,65.8276 87.474,67.4943 84.5,69C 76.4399,72.7347 68.1065,73.7347 59.5,72C 57.0444,70.0875 57.3778,68.4208 60.5,67C 65.1271,64.9561 69.7938,63.4561 74.5,62.5 Z"/></svg><svg x="517" y="31" width="72" height="72" viewBox="0 0 128 128"><path fill="#3498db" opacity="0.982" d="M 32.5,7.5 C 53.1694,7.33338 73.836,7.50004 94.5,8C 96.3333,9.16667 97.8333,10.6667 99,12.5C 107.081,26.9972 115.414,41.3305 124,55.5C 125.52,59.3749 125.854,63.3749 125,67.5C 116.081,82.3365 107.414,97.3365 99,112.5C 97.8333,114.333 96.3333,115.833 94.5,117C 73.8333,117.667 53.1667,117.667 32.5,117C 30.6667,115.833 29.1667,114.333 28,112.5C 19.586,97.3365 10.9193,82.3365 2,67.5C 1.14625,63.3749 1.47958,59.3749 3,55.5C 11.5858,41.3305 19.9191,26.9972 28,12.5C 29.3657,10.6383 30.8657,8.97167 32.5,7.5 Z M 37.5,34.5 C 41.1064,34.2108 44.6064,34.5442 48,35.5C 52.8504,44.5368 57.6838,53.5368 62.5,62.5C 57.6439,71.7097 52.6439,80.8764 47.5,90C 44.1177,90.8236 40.7844,90.657 37.5,89.5C 42.7536,80.6611 47.7536,71.6611 52.5,62.5C 47.4429,53.1328 42.4429,43.7995 37.5,34.5 Z M 79.5,34.5 C 82.8984,34.1796 86.2317,34.513 89.5,35.5C 84.2464,44.3389 79.2464,53.3389 74.5,62.5C 79.2464,71.6611 84.2464,80.6611 89.5,89.5C 85.9553,90.7914 82.4553,90.7914 79,89.5C 74.1496,80.4632 69.3162,71.4632 64.5,62.5C 69.4954,53.1765 74.4954,43.8432 79.5,34.5 Z"/></svg></svg>