<svg viewBox="0 0 1212 172" fill-rule="evenodd" clip-rule="evenodd" xmlns="http://www.w3.org/2000/svg">
  <path opacity="0.944" fill="#353844" d="M 1075.5,4.5 C 1077.53,4.33788 1079.53,4.50454 1081.5,5C 1083.83,6.66667 1086.17,8.33333 1088.5,10C 1090,12.4168 1090.67,15.0835 1090.5,18C 1089.69,28.9282 1088.36,39.9282 1086.5,51C 1086.83,52 1087.17,53 1087.5,54C 1082.08,72.5949 1079.58,91.7616 1080,111.5C 1082.87,114.111 1085.37,116.944 1087.5,120C 1087.39,121.28 1086.72,122.113 1085.5,122.5C 1080.87,121.033 1077.7,118.033 1076,113.5C 1074.08,99.2102 1074.58,85.0436 1077.5,71C 1076.03,57.2636 1075.19,43.4303 1075,29.5C 1074.13,23.2851 1072.3,17.4518 1069.5,12C 1069.52,7.81907 1071.52,5.31907 1075.5,4.5 Z"/>
  <path opacity="0.951" fill="#363844" d="M 118.5,9.5 C 123.075,10.2059 127.241,11.8726 131,14.5C 131.515,19.2253 132.348,23.892 133.5,28.5C 131.326,34.8436 129.16,41.177 127,47.5C 125.761,53.4348 125.261,59.4348 125.5,65.5C 134.263,65.4687 142.596,67.302 150.5,71C 157.185,76.2722 159.352,83.1056 157,91.5C 156.251,94.7574 154.584,97.4241 152,99.5C 151.667,102.167 151.333,104.833 151,107.5C 147.397,110.453 143.23,112.287 138.5,113C 135.389,117.52 131.723,118.353 127.5,115.5C 134.158,108.005 140.658,100.338 147,92.5C 149.904,86.7738 148.738,82.2738 143.5,79C 138.572,77.5822 133.572,77.2489 128.5,78C 127.333,79.1667 126.167,80.3333 125,81.5C 122.705,96.7487 121.371,112.082 121,127.5C 120,128.833 119,128.833 118,127.5C 116.963,123.922 116.463,120.256 116.5,116.5C 117.36,106.796 117.527,97.1296 117,87.5C 113.261,85.7735 111.094,82.9402 110.5,79C 110.667,77.8333 110.833,76.6667 111,75.5C 115.885,71.1227 117.718,65.6227 116.5,59C 115.553,44.7813 114.22,30.6147 112.5,16.5C 113.143,12.866 115.143,10.5327 118.5,9.5 Z"/>
  <path opacity="0.951" fill="#353844" d="M 882.5,9.5 C 885.675,9.50292 888.508,10.5029 891,12.5C 897.231,10.5399 900.397,12.8732 900.5,19.5C 899.573,27.6948 897.739,35.6948 895,43.5C 893.666,65.5192 892.166,87.5192 890.5,109.5C 891.081,116.564 892.081,123.564 893.5,130.5C 892.187,134.449 890.687,134.449 889,130.5C 888.259,125.38 887.092,120.38 885.5,115.5C 869.375,123.916 857.541,119.916 850,103.5C 847.586,94.3185 849.086,85.8185 854.5,78C 859.06,75.8865 863.726,74.0531 868.5,72.5C 873.358,73.2141 878.025,74.5474 882.5,76.5C 882.833,76.1667 883.167,75.8333 883.5,75.5C 883.019,63.0774 883.019,50.5774 883.5,38C 882.672,31.3622 881.339,24.8622 879.5,18.5C 879.14,14.9904 880.14,11.9904 882.5,9.5 Z M 875.5,80.5 C 877.5,80.8333 879.5,81.1667 881.5,81.5C 882.866,87.0368 883.533,92.7035 883.5,98.5C 883.552,102.587 883.052,106.587 882,110.5C 878.638,110.417 875.138,110.25 871.5,110C 858.912,106.328 856.412,99.1614 864,88.5C 867.15,84.6893 870.983,82.0226 875.5,80.5 Z"/>
  <path opacity="0.944" fill="#363845" d="M 709.5,42.5 C 717.112,42.7789 721.112,46.7789 721.5,54.5C 721.163,57.1764 720.83,59.843 720.5,62.5C 727.049,62.2027 733.715,62.7027 740.5,64C 743.167,65.6667 743.167,67.3333 740.5,69C 734.539,69.9968 728.539,70.6635 722.5,71C 720.113,71.9761 718.946,73.8094 719,76.5C 716.611,90.3831 715.611,104.383 716,118.5C 716.707,120.081 717.54,121.581 718.5,123C 721.818,123.879 725.152,124.713 728.5,125.5C 728.291,126.086 727.957,126.586 727.5,127C 718.663,130.052 711.497,127.886 706,120.5C 705.246,116.649 704.412,112.816 703.5,109C 702.944,97.0555 702.944,84.8888 703.5,72.5C 700.199,72.6532 697.199,73.6532 694.5,75.5C 690.925,74.0061 690.591,71.8394 693.5,69C 696.793,68.1744 700.126,67.6744 703.5,67.5C 704.159,60.4897 704.493,53.4897 704.5,46.5C 706.21,45.1128 707.877,43.7794 709.5,42.5 Z"/>
  <path opacity="0.951" fill="#353845" d="M 272.5,67.5 C 271.778,67.9175 271.278,68.5842 271,69.5C 270.23,68.4019 269.397,68.4019 268.5,69.5C 262.855,70.1266 257.189,70.6266 251.5,71C 250.584,71.3742 249.75,71.8742 249,72.5C 248.129,77.8572 247.129,83.1905 246,88.5C 245.223,93.222 245.39,97.8887 246.5,102.5C 243.588,109.36 243.921,116.027 247.5,122.5C 250.705,123.865 254.039,124.865 257.5,125.5C 256.09,127.955 253.923,128.955 251,128.5C 243.933,128.307 238.6,125.307 235,119.5C 232.789,103.879 232.289,88.2119 233.5,72.5C 229.336,73.1155 225.336,74.1155 221.5,75.5C 221.244,73.2075 221.577,71.0408 222.5,69C 226.114,68.0642 229.78,67.5642 233.5,67.5C 233.378,60.8044 233.211,54.1377 233,47.5C 240.752,40.1184 246.752,41.4518 251,51.5C 251.473,54.9514 250.973,58.2848 249.5,61.5C 249.833,61.8333 250.167,62.1667 250.5,62.5C 257.789,62.3445 265.122,63.0111 272.5,64.5C 272.5,65.5 272.5,66.5 272.5,67.5 Z"/>
  <path opacity="0.945" fill="#353944" d="M 268.5,69.5 C 269.397,68.4019 270.23,68.4019 271,69.5C 271.278,68.5842 271.778,67.9175 272.5,67.5C 274.919,67.8051 277.586,67.8051 280.5,67.5C 280.378,60.8044 280.211,54.1377 280,47.5C 287.752,40.1184 293.752,41.4518 298,51.5C 298.473,54.9514 297.973,58.2848 296.5,61.5C 299.006,63.3107 301.839,63.644 305,62.5C 309.866,63.0285 314.699,63.6952 319.5,64.5C 319.5,65.8333 319.5,67.1667 319.5,68.5C 312.587,69.9171 305.587,70.7504 298.5,71C 297.333,71.5 296.5,72.3333 296,73.5C 293.254,83.0422 292.42,92.7089 293.5,102.5C 291.763,108.195 291.597,113.861 293,119.5C 295.532,123.907 299.365,125.574 304.5,124.5C 304.64,126.124 303.973,127.29 302.5,128C 293.739,129.639 286.905,126.806 282,119.5C 279.874,103.871 279.374,88.2043 280.5,72.5C 276.752,73.2074 273.086,74.2074 269.5,75.5C 269.5,76.5 269.5,77.5 269.5,78.5C 268.167,78.5 266.833,78.5 265.5,78.5C 265.5,77.1667 265.5,75.8333 265.5,74.5C 266.5,74.5 267.5,74.5 268.5,74.5C 268.5,72.8333 268.5,71.1667 268.5,69.5 Z"/>
  <path opacity="0.919" fill="#363844" d="M 859.5,56.5 C 861.936,56.317 864.103,56.9837 866,58.5C 866.653,63.4182 866.153,67.9182 864.5,72C 858.734,73.3684 856.401,71.0351 857.5,65C 857.278,61.8524 857.945,59.019 859.5,56.5 Z"/>
  <path opacity="0.953" fill="#363845" d="M 963.5,56.5 C 966.187,56.3359 968.854,56.5026 971.5,57C 975.95,59.9416 980.283,63.1083 984.5,66.5C 985.243,68.6378 985.91,70.8044 986.5,73C 985.399,75.0353 984.732,77.2019 984.5,79.5C 985.659,85.4548 986.492,91.4548 987,97.5C 990.689,89.4592 994.355,81.4592 998,73.5C 1000.21,71.6266 1002.04,69.46 1003.5,67C 1006.67,66.1667 1007.83,67.3333 1007,70.5C 996.959,85.2895 991.292,101.623 990,119.5C 986.477,123.701 983.477,123.368 981,118.5C 976.072,104.715 971.739,90.7147 968,76.5C 965.667,72.5 963.333,68.5 961,64.5C 960.388,61.3893 961.221,58.7226 963.5,56.5 Z"/>
  <path opacity="0.947" fill="#353845" d="M 1161.5,56.5 C 1165.1,56.6074 1168.6,57.2741 1172,58.5C 1173.57,61.0815 1175.4,63.4149 1177.5,65.5C 1184.13,62.3944 1190.46,62.8944 1196.5,67C 1205.37,78.0188 1206.87,89.8522 1201,102.5C 1194.73,108.71 1187.56,110.043 1179.5,106.5C 1177.41,104.211 1177.07,101.711 1178.5,99C 1179.45,98.5172 1180.45,98.3505 1181.5,98.5C 1180.92,102.176 1182.42,104.176 1186,104.5C 1193.38,103.117 1197.21,98.6167 1197.5,91C 1196.38,86.6994 1194.88,82.5327 1193,78.5C 1188.31,74.2659 1183.97,74.5992 1180,79.5C 1178.87,82.3771 1178.21,85.3771 1178,88.5C 1176.29,89.8782 1174.95,91.5448 1174,93.5C 1172.18,111.113 1168.84,128.447 1164,145.5C 1163.75,149.853 1163.75,154.187 1164,158.5C 1161.81,161.249 1160.14,160.915 1159,157.5C 1158.33,152.167 1158.33,146.833 1159,141.5C 1163.24,133.567 1164.4,125.234 1162.5,116.5C 1162.75,108.951 1163.42,101.451 1164.5,94C 1162.51,87.6052 1162.01,81.1052 1163,74.5C 1158.2,68.7338 1157.7,62.7338 1161.5,56.5 Z"/>
  <path opacity="0.951" fill="#353844" d="M 43.5,111.5 C 38.3314,116.011 32.3314,119.011 25.5,120.5C 14.3454,118.873 10.1787,112.539 13,101.5C 16.3965,94.7825 21.8965,91.2825 29.5,91C 32.5089,89.4956 35.5089,87.9956 38.5,86.5C 37.0278,83.1946 34.6945,80.6946 31.5,79C 23.5631,79.8746 15.5631,80.5412 7.5,81C 5.52185,78.5027 5.02185,75.6693 6,72.5C 12.9027,62.9618 22.0693,59.4618 33.5,62C 36.7591,63.2106 39.5925,65.0439 42,67.5C 46.3534,76.6612 48.6867,86.3279 49,96.5C 49.3242,98.5689 50.1575,98.9023 51.5,97.5C 51.8333,98 52.1667,98.5 52.5,99C 51.6057,100.396 50.9391,101.896 50.5,103.5C 51.8776,107.05 52.8776,110.717 53.5,114.5C 53.2718,116.397 52.2718,117.73 50.5,118.5C 48.166,115.837 46.3327,112.837 45,109.5C 44.2828,110.044 43.7828,110.711 43.5,111.5 Z M 33.5,96.5 C 35.8333,96.5 38.1667,96.5 40.5,96.5C 40.3441,99.8411 39.0108,102.674 36.5,105C 32.0788,108.63 27.0788,110.463 21.5,110.5C 21.0617,107.107 21.8951,104.107 24,101.5C 27.1737,99.7292 30.3404,98.0625 33.5,96.5 Z"/>
  <path opacity="0.942" fill="#353845" d="M 570.5,112.5 C 570.649,111.448 570.483,110.448 570,109.5C 564.261,115.121 557.427,118.788 549.5,120.5C 537.662,118.495 533.829,111.828 538,100.5C 539.793,97.7047 541.96,95.2047 544.5,93C 547.877,92.5483 551.211,91.8816 554.5,91C 556.818,89.0073 559.484,87.8406 562.5,87.5C 559.969,79.7308 554.635,76.8974 546.5,79C 543.022,80.3361 539.356,81.1695 535.5,81.5C 529.978,81.4186 528.144,78.7519 530,73.5C 539.588,59.9829 551.421,57.4829 565.5,66C 571.122,76.4256 573.955,87.5923 574,99.5C 575.099,96.9557 576.265,96.9557 577.5,99.5C 576.509,100.665 575.509,101.832 574.5,103C 576.857,107.588 577.69,112.422 577,117.5C 576.282,118.451 575.449,118.617 574.5,118C 573.023,116.188 571.69,114.355 570.5,112.5 Z M 558.5,96.5 C 560.5,96.5 562.5,96.5 564.5,96.5C 564.857,100.664 563.19,103.831 559.5,106C 556.353,107.99 553.019,109.49 549.5,110.5C 548.228,110.43 547.062,110.097 546,109.5C 545.679,105.968 546.846,102.968 549.5,100.5C 552.708,99.391 555.708,98.0577 558.5,96.5 Z"/>
  <path opacity="0.946" fill="#363845" d="M 182.5,65.5 C 196.335,63.6713 208.168,67.6713 218,77.5C 220.803,83.0565 219.303,86.8899 213.5,89C 206.351,90.5427 199.351,92.5427 192.5,95C 188.746,94.9138 185.079,95.0804 181.5,95.5C 181.338,97.5273 181.505,99.5273 182,101.5C 185.658,106.825 190.491,110.659 196.5,113C 200.584,113.118 204.584,112.451 208.5,111C 207.663,109.989 207.33,108.822 207.5,107.5C 208.5,107.5 209.5,107.5 210.5,107.5C 211.363,109.895 211.363,112.229 210.5,114.5C 202.475,120.436 194.142,120.936 185.5,116C 173.512,108.525 168.012,97.6918 169,83.5C 169.25,80.2464 170.25,77.2464 172,74.5C 175.085,70.9741 178.585,67.9741 182.5,65.5 Z M 190.5,75.5 C 194.54,75.5915 198.207,76.7581 201.5,79C 199.297,80.6234 196.797,81.4567 194,81.5C 190.172,80.959 186.339,80.459 182.5,80C 185.099,78.205 187.766,76.705 190.5,75.5 Z"/>
  <path opacity="0.940" fill="#363944" d="M 335.5,65.5 C 349.152,63.4404 360.985,67.107 371,76.5C 373.386,80.7936 372.886,84.6269 369.5,88C 361.8,90.2276 354.133,92.561 346.5,95C 343.77,95.7284 341.103,95.5617 338.5,94.5C 333.721,96.6385 333.221,99.6385 337,103.5C 343.421,111.919 351.587,114.586 361.5,111.5C 361.238,110.022 361.571,108.689 362.5,107.5C 364.208,109.271 365.041,111.271 365,113.5C 356.158,120.82 346.991,121.32 337.5,115C 328.229,108.637 322.895,99.8038 321.5,88.5C 322.029,83.9833 323.196,79.65 325,75.5C 328.369,71.9626 331.869,68.6293 335.5,65.5 Z M 344.5,75.5 C 348.445,75.4778 351.778,76.8112 354.5,79.5C 352.153,80.7119 349.653,81.3786 347,81.5C 334.484,81.7297 333.651,79.7297 344.5,75.5 Z"/>
  <path opacity="0.948" fill="#353844" d="M 920.5,65.5 C 934.152,63.4404 945.985,67.107 956,76.5C 958.386,80.7936 957.886,84.6269 954.5,88C 946.8,90.2276 939.133,92.561 931.5,95C 928.77,95.7284 926.103,95.5617 923.5,94.5C 921.503,94.9858 920.169,96.1525 919.5,98C 924.904,110.036 933.904,114.536 946.5,111.5C 946.238,110.022 946.571,108.689 947.5,107.5C 949.725,108.946 950.558,110.946 950,113.5C 941.187,120.865 932.021,121.365 922.5,115C 908.714,104.917 904.547,91.7504 910,75.5C 913.369,71.9626 916.869,68.6293 920.5,65.5 Z M 929.5,75.5 C 933.44,75.7576 937.107,76.9243 940.5,79C 937.918,80.5225 935.085,81.3558 932,81.5C 928.5,81 925,80.5 921.5,80C 924.099,78.205 926.766,76.705 929.5,75.5 Z"/>
  <path opacity="0.946" fill="#353845" d="M 1025.5,65.5 C 1039.14,63.5317 1050.97,67.1984 1061,76.5C 1064.54,83.7336 1062.38,88.2336 1054.5,90C 1048.26,90.8176 1042.26,92.4843 1036.5,95C 1032.41,94.9952 1028.41,95.1618 1024.5,95.5C 1024.3,97.9892 1024.8,100.323 1026,102.5C 1030.05,108.39 1035.55,112.057 1042.5,113.5C 1045.54,112.822 1048.54,111.989 1051.5,111C 1050.18,109.455 1050.51,108.289 1052.5,107.5C 1053.32,109.287 1054.32,110.954 1055.5,112.5C 1049.8,118.675 1042.8,120.842 1034.5,119C 1014.59,109.25 1008.42,94.0834 1016,73.5C 1019.36,70.9688 1022.52,68.3021 1025.5,65.5 Z M 1033.5,75.5 C 1037.76,75.4716 1041.42,76.805 1044.5,79.5C 1042.15,80.7119 1039.65,81.3786 1037,81.5C 1033.17,80.959 1029.34,80.459 1025.5,80C 1028.1,78.205 1030.77,76.705 1033.5,75.5 Z"/>
  <path opacity="0.948" fill="#353844" d="M 389.5,67.5 C 395.823,67.6809 398.489,71.0142 397.5,77.5C 401.559,75.979 405.559,74.1457 409.5,72C 412.5,71.3333 415.5,71.3333 418.5,72C 419.38,73.3561 419.714,74.8561 419.5,76.5C 407.313,77.5189 400.479,84.1855 399,96.5C 398.537,103.852 397.87,111.185 397,118.5C 395.309,122.213 392.475,123.379 388.5,122C 387.299,121.097 386.465,119.931 386,118.5C 385.734,107.824 385.734,97.1578 386,86.5C 384.247,82.9999 383.08,79.3333 382.5,75.5C 382.667,74.1667 382.833,72.8333 383,71.5C 385.013,69.7518 387.18,68.4185 389.5,67.5 Z"/>
  <path opacity="0.938" fill="#353844" d="M 524.5,66.5 C 526.439,67.0138 527.439,68.3472 527.5,70.5C 525.432,74.7344 523.599,79.0678 522,83.5C 520.31,96.9729 517.977,110.306 515,123.5C 513.599,125.192 511.766,125.859 509.5,125.5C 506.735,114.516 503.901,103.516 501,92.5C 500.085,91.6721 499.419,90.6721 499,89.5C 494.743,99.8569 491.41,110.524 489,121.5C 487.475,124.77 485.142,125.77 482,124.5C 478.549,113.455 476.549,102.122 476,90.5C 475.483,86.2701 473.816,82.6034 471,79.5C 470.132,69.2612 474.132,66.9279 483,72.5C 483.667,73.8333 484.333,75.1667 485,76.5C 486.108,83.1153 486.775,89.782 487,96.5C 487.249,97.624 487.749,98.624 488.5,99.5C 491.464,91.573 494.964,83.9064 499,76.5C 499.837,74.9926 501.004,74.4926 502.5,75C 504.774,86.1692 507.274,97.3358 510,108.5C 510.554,92.9147 515.388,78.9147 524.5,66.5 Z"/>
  <path opacity="0.934" fill="#363845" d="M 624.5,66.5 C 626.484,66.3832 628.15,67.0499 629.5,68.5C 631.671,71.5054 633.171,74.8388 634,78.5C 636.218,98.2314 635.884,117.898 633,137.5C 630.825,145.002 626.991,151.502 621.5,157C 613.025,163.526 604.025,164.192 594.5,159C 590.224,154.108 589.39,148.608 592,142.5C 592.667,141.167 593.333,141.167 594,142.5C 594.333,145.833 594.667,149.167 595,152.5C 595.833,153.333 596.667,154.167 597.5,155C 602.7,156.459 607.867,156.959 613,156.5C 620.77,151.062 625.77,143.728 628,134.5C 629.283,127.202 629.617,119.869 629,112.5C 627.375,108.953 625.542,109.12 623.5,113C 610.428,121.422 599.928,118.922 592,105.5C 590.74,99.0138 589.574,92.5138 588.5,86C 586.694,85.7778 585.027,84.9445 583.5,83.5C 584.263,82.2807 585.263,81.2807 586.5,80.5C 584.857,71.9745 588.191,68.8079 596.5,71C 602.248,77.0029 604.748,84.1696 604,92.5C 604.977,95.1024 606.144,97.6024 607.5,100C 608.729,100.781 610.062,101.281 611.5,101.5C 615.677,99.7444 620.01,98.5778 624.5,98C 626.833,96.6667 627.833,94.6667 627.5,92C 626.442,84.918 625.109,77.918 623.5,71C 623.605,69.4085 623.939,67.9085 624.5,66.5 Z"/>
  <path opacity="0.950" fill="#353844" d="M 1114.5,67.5 C 1121.66,66.4966 1124.5,69.4966 1123,76.5C 1119.37,81.9847 1116.87,87.9847 1115.5,94.5C 1117.72,105.139 1124.05,108.639 1134.5,105C 1140.04,100.607 1140.87,95.4407 1137,89.5C 1134.63,86.794 1131.96,84.4606 1129,82.5C 1128.77,80.2199 1127.93,78.2199 1126.5,76.5C 1126.81,75.6919 1127.31,75.0253 1128,74.5C 1132.03,77.4408 1136.2,80.2741 1140.5,83C 1147.46,90.8547 1148.29,99.3547 1143,108.5C 1138.23,114.299 1132.06,116.965 1124.5,116.5C 1114.27,116.422 1107.1,111.755 1103,102.5C 1102.61,99.8121 1102.11,97.1454 1101.5,94.5C 1102.34,86.7175 1104.51,79.3842 1108,72.5C 1109.97,70.4497 1112.13,68.783 1114.5,67.5 Z"/>
  <path opacity="0.952" fill="#353844" d="M 757.5,67.5 C 765.505,66.3421 768.339,69.6754 766,77.5C 760.583,83.827 758.583,91.1603 760,99.5C 763.715,104.986 768.882,107.152 775.5,106C 783.007,101.921 784.507,96.088 780,88.5C 777.667,86.5 775.333,84.5 773,82.5C 771.686,79.9107 771.019,77.2441 771,74.5C 774.531,77.3563 778.364,79.8563 782.5,82C 792.901,92.2513 792.901,102.585 782.5,113C 766.677,120.053 754.51,116.219 746,101.5C 744.872,91.377 746.706,81.877 751.5,73C 753.375,70.9549 755.375,69.1215 757.5,67.5 Z"/>
  <path opacity="0.618" fill="#32343e" d="M 515.5,72.5 C 517.344,73.2039 517.844,74.5372 517,76.5C 515.812,75.4366 515.312,74.1033 515.5,72.5 Z"/>
  <path opacity="0.614" fill="#353945" d="M 736.5,74.5 C 738.346,74.2222 739.68,74.8888 740.5,76.5C 739.68,78.1112 738.346,78.7778 736.5,78.5C 736.5,77.1667 736.5,75.8333 736.5,74.5 Z"/>
  <path opacity="0.593" fill="#353943" d="M 312.5,74.5 C 313.833,74.5 315.167,74.5 316.5,74.5C 316.5,75.8333 316.5,77.1667 316.5,78.5C 315.167,78.5 313.833,78.5 312.5,78.5C 312.5,77.1667 312.5,75.8333 312.5,74.5 Z"/>
  <path opacity="0.830" fill="#383a45" d="M 1092.5,85.5 C 1093.5,85.5 1094.5,85.5 1095.5,85.5C 1095.43,89.5412 1094.09,90.2079 1091.5,87.5C 1091.86,86.8165 1092.2,86.1499 1092.5,85.5 Z"/>
  <path opacity="0.859" fill="#3c3e49" d="M 1153.5,91.5 C 1154.5,91.5 1155.5,91.5 1156.5,91.5C 1156.5,92.8333 1156.5,94.1667 1156.5,95.5C 1155.5,95.5 1154.5,95.5 1153.5,95.5C 1153.5,94.1667 1153.5,92.8333 1153.5,91.5 Z"/>
  <path opacity="0.517" fill="#353843" d="M 43.5,111.5 C 44.5862,111.62 45.2528,112.287 45.5,113.5C 45.1667,114.167 44.8333,114.833 44.5,115.5C 43.5713,114.311 43.238,112.978 43.5,111.5 Z"/>
  <path opacity="0.673" fill="#33363f" d="M 570.5,112.5 C 570.5,113.5 570.5,114.5 570.5,115.5C 569.5,115.5 568.5,115.5 567.5,115.5C 567.146,112.506 568.146,111.506 570.5,112.5 Z"/>
  <path opacity="0.551" fill="#353845" d="M 122.5,114.5 C 123.586,114.62 124.253,115.287 124.5,116.5C 124.167,117.167 123.833,117.833 123.5,118.5C 122.571,117.311 122.238,115.978 122.5,114.5 Z"/>
  <path opacity="0.595" fill="#373a44" d="M 1157.5,130.5 C 1158.59,130.62 1159.25,131.287 1159.5,132.5C 1158.7,134.957 1157.7,134.957 1156.5,132.5C 1156.86,131.817 1157.2,131.15 1157.5,130.5 Z"/>
</svg>