<svg viewBox="0 0 850 160" fill-rule="evenodd" clip-rule="evenodd" xmlns="http://www.w3.org/2000/svg">
  <path opacity="0.694" fill="#363745" d="M 266.5,1.5 C 268.912,1.69408 269.912,3.02741 269.5,5.5C 268.167,5.5 266.833,5.5 265.5,5.5C 265.433,4.04125 265.766,2.70792 266.5,1.5 Z"/>
  <path opacity="0.966" fill="#353743" d="M 15.5,73.5 C 16.3149,72.5707 17.1482,71.5707 18,70.5C 20.7062,58.3036 22.3728,45.9702 23,33.5C 24.865,29.6489 26.6983,25.8156 28.5,22C 27.4672,18.1864 26.9672,14.3531 27,10.5C 29.3421,9.15245 31.6754,7.81912 34,6.5C 35.2259,6.64477 36.3926,6.9781 37.5,7.5C 38.8149,9.31585 40.3149,10.9825 42,12.5C 44.2894,19.7454 47.6227,26.4121 52,32.5C 56.3006,46.3624 60.3006,60.3624 64,74.5C 64.7504,75.1258 65.5838,75.6258 66.5,76C 70.1667,76.3333 73.8333,76.6667 77.5,77C 78.2529,78.487 79.0862,78.6537 80,77.5C 80.6924,78.0253 81.1924,78.6919 81.5,79.5C 77.0044,82.6102 72.3377,85.4436 67.5,88C 72.5342,101.232 77.7009,114.399 83,127.5C 83.5065,130.321 82.3398,131.488 79.5,131C 78.0404,127.911 76.207,125.078 74,122.5C 70.2001,109.392 63.7001,97.8924 54.5,88C 49.8198,86.5892 45.1532,86.9225 40.5,89C 36.226,93.2742 31.3927,96.7742 26,99.5C 24.1507,107.378 23.1507,115.378 23,123.5C 20.4733,131.987 14.9733,135.821 6.5,135C 7.97102,136.919 7.63769,137.919 5.5,138C 4.16667,136.667 4.16667,135.333 5.5,134C 2.01717,129.555 1.51717,124.721 4,119.5C 12.9561,109.6 14.7895,98.4333 9.5,86C 10.8223,81.5101 12.8223,77.3435 15.5,73.5 Z M 35.5,34.5 C 37.4741,36.428 38.9741,38.7613 40,41.5C 42.424,52.3524 45.5907,63.019 49.5,73.5C 47.9775,75.2825 45.9775,75.9492 43.5,75.5C 43.5,74.5 43.5,73.5 43.5,72.5C 38.6404,72.3227 33.9737,71.3227 29.5,69.5C 29.4686,57.6577 31.4686,45.991 35.5,34.5 Z"/>
  <path opacity="0.956" fill="#353844" d="M 142.5,6.5 C 151.304,5.64704 159.638,7.14704 167.5,11C 174.776,18.6502 178.443,27.8168 178.5,38.5C 177.406,45.587 175.906,52.587 174,59.5C 170.448,62.7191 166.615,65.5524 162.5,68C 161.941,68.7247 161.608,69.5581 161.5,70.5C 162.566,74.1974 163.732,77.8641 165,81.5C 171.604,93.7081 177.937,106.041 184,118.5C 186.964,122.466 190.297,126.133 194,129.5C 195.559,131.217 196.392,133.217 196.5,135.5C 191.38,134.94 187.046,132.773 183.5,129C 176.771,118.271 168.605,108.771 159,100.5C 154,93.8333 149,87.1667 144,80.5C 141.195,77.3475 137.695,75.6808 133.5,75.5C 130.283,90.3351 128.783,105.335 129,120.5C 132.762,126.737 131.095,129.07 124,127.5C 121.023,123.183 119.856,118.349 120.5,113C 124.042,84.4964 127.542,55.9964 131,27.5C 131.729,23.6227 131.562,19.7894 130.5,16C 130.934,13.6839 131.934,11.6839 133.5,10C 136.65,8.96437 139.65,7.7977 142.5,6.5 Z M 151.5,18.5 C 160.026,20.6695 161.693,25.3362 156.5,32.5C 157.99,33.8257 159.324,35.3257 160.5,37C 158.808,41.9854 157.642,47.1521 157,52.5C 155.269,54.6166 153.102,56.1166 150.5,57C 146.424,57.4758 142.59,58.6425 139,60.5C 137.412,56.6908 137.078,52.6908 138,48.5C 140.743,39.616 142.909,30.616 144.5,21.5C 146.875,20.3395 149.208,19.3395 151.5,18.5 Z"/>
  <path opacity="0.942" fill="#353743" d="M 286.5,6.5 C 295.21,6.96304 303.876,7.79637 312.5,9C 317.705,13.7425 320.372,19.7425 320.5,27C 319.692,40.2829 313.358,49.9495 301.5,56C 304.232,56.413 306.899,57.0797 309.5,58C 321.768,67.947 326.935,80.7803 325,96.5C 322.368,101.959 319.535,107.292 316.5,112.5C 314.833,113.833 313.167,113.833 311.5,112.5C 313.076,108.762 315.243,105.429 318,102.5C 323.642,87.7538 320.142,75.5872 307.5,66C 293.755,63.7489 280.922,66.2489 269,73.5C 268.333,79.5 268.333,85.5 269,91.5C 270.927,86.6587 273.427,86.4921 276.5,91C 274.593,94.6314 273.759,98.4647 274,102.5C 282.788,114.321 294.454,118.654 309,115.5C 310.28,115.613 311.113,116.28 311.5,117.5C 309.81,120.024 307.643,122.024 305,123.5C 301.255,122.703 297.421,122.203 293.5,122C 288.652,119.162 283.485,116.995 278,115.5C 271.563,118.318 265.063,121.152 258.5,124C 251.091,125.974 246.757,122.974 245.5,115C 245.885,111.272 247.385,108.106 250,105.5C 248.408,98.8671 250.075,93.2004 255,88.5C 255.667,78.1667 255.667,67.8333 255,57.5C 249.757,43.717 249.09,29.717 253,15.5C 254.48,12.3374 256.98,10.504 260.5,10C 269.417,9.63679 278.083,8.47013 286.5,6.5 Z M 297.5,14.5 C 308.429,13.0069 314.429,17.6736 315.5,28.5C 312.536,41.322 304.869,50.4886 292.5,56C 285.813,56.1517 279.313,57.3183 273,59.5C 271.774,59.3552 270.607,59.0219 269.5,58.5C 266.62,48.237 266.12,37.9036 268,27.5C 276.854,20.8205 286.687,16.4872 297.5,14.5 Z"/>
  <path opacity="0.948" fill="#353843" d="M 573.5,9.5 C 581.059,9.76951 586.392,13.2695 589.5,20C 589.22,21.395 588.553,22.5617 587.5,23.5C 580.873,23.2313 575.373,25.5647 571,30.5C 566.682,41.8379 565.516,53.5045 567.5,65.5C 572.675,66.1944 578.008,67.0278 583.5,68C 585.455,68.9533 587.122,70.2866 588.5,72C 590.134,72.4935 591.801,72.6602 593.5,72.5C 593.378,65.8044 593.211,59.1377 593,52.5C 602.368,44.9545 608.868,47.1212 612.5,59C 611.896,61.5238 611.229,64.0238 610.5,66.5C 610.833,66.8333 611.167,67.1667 611.5,67.5C 617.363,67.3497 623.363,67.8497 629.5,69C 634.214,70.056 634.547,71.7226 630.5,74C 624.539,74.9968 618.539,75.6635 612.5,76C 611.584,76.3742 610.75,76.8742 610,77.5C 609.256,82.5518 608.256,87.5518 607,92.5C 606.196,97.7513 606.363,102.918 607.5,108C 604.577,114.848 604.911,121.515 608.5,128C 611.911,128.909 615.245,129.909 618.5,131C 611.672,134.449 605.005,133.949 598.5,129.5C 597.139,127.972 595.972,126.305 595,124.5C 592.872,108.874 592.372,93.2078 593.5,77.5C 589.457,78.5886 585.457,79.5886 581.5,80.5C 581.662,78.4727 581.495,76.4727 581,74.5C 576.482,75.2131 572.149,76.5465 568,78.5C 566.874,92.8218 565.874,107.155 565,121.5C 561.311,130.796 559.645,140.462 560,150.5C 558.644,151.38 557.144,151.714 555.5,151.5C 555.603,137.993 557.103,124.659 560,111.5C 560.679,100.814 560.512,90.1477 559.5,79.5C 555.537,80.44 551.537,80.6067 547.5,80C 542.222,75.4915 542.222,71.1581 547.5,67C 550.758,66.7883 553.924,66.2883 557,65.5C 556.795,58.0095 556.295,50.5095 555.5,43C 555.603,38.4548 556.103,33.9548 557,29.5C 559.24,25.0241 560.906,20.3574 562,15.5C 565.308,12.2645 569.141,10.2645 573.5,9.5 Z"/>
  <path opacity="0.929" fill="#343743" d="M 471.5,18.5 C 473.655,18.372 475.655,18.872 477.5,20C 478.96,23.0887 480.793,25.9221 483,28.5C 484.706,31.9591 484.872,35.4591 483.5,39C 485.421,40.2408 485.754,41.7408 484.5,43.5C 480.3,45.527 477.966,44.1936 477.5,39.5C 474.54,38.4426 472.04,36.7759 470,34.5C 457.084,31.2071 448.251,35.7071 443.5,48C 444.131,51.5973 445.798,54.5973 448.5,57C 454.817,62.1591 461.484,66.8258 468.5,71C 480.359,82.5546 483.526,96.0546 478,111.5C 475.872,114.63 473.372,117.463 470.5,120C 465.969,121.171 461.469,122.338 457,123.5C 452.444,122.784 447.944,121.784 443.5,120.5C 443.559,113.892 445.559,113.058 449.5,118C 465.629,120.863 474.629,114.197 476.5,98C 474.755,92.342 472.588,86.842 470,81.5C 461.631,74.128 452.464,67.9613 442.5,63C 433.573,54.8028 432.073,45.3028 438,34.5C 443.798,26.5178 451.631,22.6845 461.5,23C 465.118,21.7879 468.452,20.2879 471.5,18.5 Z"/>
  <path opacity="0.930" fill="#343743" d="M 94.5,30.5 C 97.4081,33.5014 101.075,35.1681 105.5,35.5C 105.833,36.1667 106.167,36.8333 106.5,37.5C 105.289,38.8745 104.289,40.3745 103.5,42C 107.013,50.8242 104.013,54.8242 94.5,54C 88.0161,50.5307 85.8495,45.364 88,38.5C 89.7998,36.683 91.9664,35.5163 94.5,35C 93.2721,33.5098 93.2721,32.0098 94.5,30.5 Z"/>
  <path opacity="0.931" fill="#353843" d="M 93.5,64.5 C 97.316,65.4006 100.983,66.9006 104.5,69C 108.645,71.8721 108.478,74.3721 104,76.5C 100.525,94.8121 101.025,112.979 105.5,131C 104.478,133.316 102.978,133.816 101,132.5C 100.138,130.913 99.4709,129.246 99,127.5C 96.7456,116.959 95.4123,106.292 95,95.5C 92.391,93.892 91.0577,91.5587 91,88.5C 90.2073,84.577 90.374,80.7436 91.5,77C 88.1747,72.0258 88.8414,67.8591 93.5,64.5 Z"/>
  <path opacity="0.950" fill="#353743" d="M 710.5,65.5 C 725.546,65.7098 733.713,73.3764 735,88.5C 735.351,93.1976 735.851,97.8642 736.5,102.5C 741.124,103.611 741.457,105.445 737.5,108C 740.005,112.645 740.671,117.478 739.5,122.5C 736.744,123.633 734.911,122.633 734,119.5C 732.644,120.38 731.144,120.714 729.5,120.5C 729.649,119.448 729.483,118.448 729,117.5C 721.513,124.562 713.013,126.396 703.5,123C 696.574,114.505 697.241,106.505 705.5,99C 712.192,97.7141 718.526,95.5474 724.5,92.5C 722.342,84.8685 717.342,82.0352 709.5,84C 704.715,85.8736 699.715,86.5403 694.5,86C 691.793,84.1363 690.959,81.6363 692,78.5C 693.715,76.2406 695.548,74.0739 697.5,72C 701.394,68.7195 705.727,66.5528 710.5,65.5 Z M 721.5,101.5 C 723.167,101.5 724.833,101.5 726.5,101.5C 726.986,104.755 725.986,107.422 723.5,109.5C 719.264,113.453 714.264,115.453 708.5,115.5C 708.506,112.15 709.506,109.15 711.5,106.5C 714.727,104.436 718.06,102.77 721.5,101.5 Z M 730.5,116.5 C 731.623,115.243 732.289,115.576 732.5,117.5C 731.833,117.167 731.167,116.833 730.5,116.5 Z"/>
  <path opacity="0.639" fill="#353444" d="M 15.5,73.5 C 14.1667,73.5 12.8333,73.5 11.5,73.5C 11.1667,70.5 12.5,69.1667 15.5,69.5C 15.5,70.8333 15.5,72.1667 15.5,73.5 Z"/>
  <path opacity="0.946" fill="#353844" d="M 806.5,70.5 C 818.703,68.8005 829.703,71.6338 839.5,79C 846.195,84.8498 845.862,89.8498 838.5,94C 831.338,95.4703 824.338,97.4703 817.5,100C 814.06,100.178 810.727,100.345 807.5,100.5C 806.233,103.239 806.399,105.906 808,108.5C 814.318,117.498 822.485,119.998 832.5,116C 831.333,113.167 832.167,112.333 835,113.5C 836.205,115.534 836.372,117.534 835.5,119.5C 827.1,125.462 818.434,125.962 809.5,121C 794.379,110.636 789.879,96.8031 796,79.5C 799.692,76.6352 803.192,73.6352 806.5,70.5 Z M 815.5,80.5 C 819.399,80.631 822.732,81.9643 825.5,84.5C 823.153,85.7119 820.653,86.3786 818,86.5C 814.5,86 811,85.5 807.5,85C 810.099,83.205 812.766,81.705 815.5,80.5 Z"/>
  <path opacity="0.929" fill="#343642" d="M 686.5,71.5 C 688.818,71.8184 690.152,73.1517 690.5,75.5C 688.432,79.7344 686.599,84.0678 685,88.5C 683.551,102.396 681.051,116.062 677.5,129.5C 675.647,130.76 673.814,130.76 672,129.5C 668.918,118.084 665.584,106.751 662,95.5C 657.838,106.269 654.172,117.269 651,128.5C 649.087,130.187 646.92,130.687 644.5,130C 642.642,126.41 641.476,122.576 641,118.5C 639.891,110.18 638.891,101.846 638,93.5C 637.279,89.6578 635.613,86.3245 633,83.5C 632.258,75.2521 635.758,72.7521 643.5,76C 645.956,78.4075 647.789,81.2409 649,84.5C 649.121,91.2464 649.788,97.913 651,104.5C 653.72,95.326 657.887,86.9927 663.5,79.5C 664.167,79.8333 664.833,80.1667 665.5,80.5C 667.216,89.9072 669.382,99.2405 672,108.5C 673.006,99.1467 675.839,90.3133 680.5,82C 677.479,81.1512 676.979,79.6512 679,77.5C 679.915,78.3279 680.581,79.3279 681,80.5C 683.358,77.7777 685.191,74.7777 686.5,71.5 Z"/>
  <path opacity="0.946" fill="#353743" d="M 508.5,72.5 C 515.827,71.3293 518.994,74.3293 518,81.5C 514.344,86.999 511.844,92.999 510.5,99.5C 512.059,108.556 517.392,112.39 526.5,111C 534.447,106.323 535.614,100.156 530,92.5C 524.587,89.7671 521.92,85.4337 522,79.5C 526.414,82.624 530.914,85.624 535.5,88.5C 543.103,95.5759 544.27,103.576 539,112.5C 531.115,120.686 521.615,123.186 510.5,120C 499.601,115.369 495.101,107.203 497,95.5C 496.78,85.5813 500.613,77.9146 508.5,72.5 Z"/>
  <path opacity="0.938" fill="#353844" d="M 205.5,72.5 C 211.093,71.4506 214.426,73.6173 215.5,79C 212.775,84.4017 210.275,89.9017 208,95.5C 205.886,105.389 209.886,110.722 220,111.5C 229.984,109.202 232.65,103.535 228,94.5C 225.629,91.794 222.963,89.4606 220,87.5C 219.767,85.2199 218.934,83.2199 217.5,81.5C 225.192,82.612 231.359,86.612 236,93.5C 240.349,102.993 238.516,111.16 230.5,118C 217.258,124.248 205.758,122.082 196,111.5C 194.093,107.735 192.926,103.735 192.5,99.5C 193.678,93.0821 195.178,86.7488 197,80.5C 199.074,76.9231 201.907,74.2565 205.5,72.5 Z"/>
  <path opacity="0.945" fill="#353844" d="M 347.5,72.5 C 353.364,70.9547 356.698,73.1213 357.5,79C 354.779,84.3533 352.279,89.8533 350,95.5C 348.173,105.848 352.506,111.181 363,111.5C 370.464,109.702 373.464,105.036 372,97.5C 369.353,93.6865 366.187,90.3531 362.5,87.5C 361.877,85.2895 360.877,83.2895 359.5,81.5C 359.808,80.6919 360.308,80.0253 361,79.5C 365.08,82.457 369.247,85.2903 373.5,88C 383.029,98.2226 382.696,108.223 372.5,118C 359.831,124.027 348.664,122.194 339,112.5C 334.148,104.479 333.481,96.1459 337,87.5C 338.418,80.9354 341.918,75.9354 347.5,72.5 Z"/>
  <path opacity="0.953" fill="#343743" d="M 757.5,72.5 C 759.927,72.523 762.26,73.023 764.5,74C 765.693,76.8871 767.027,79.7204 768.5,82.5C 774.023,77.7314 780.357,75.8981 787.5,77C 788.167,78 788.833,79 789.5,80C 782.326,80.6709 776.492,83.8376 772,89.5C 770.875,92.7835 769.875,96.1169 769,99.5C 768.468,107.558 767.468,115.558 766,123.5C 763.947,127.292 760.781,128.458 756.5,127C 755.874,126.25 755.374,125.416 755,124.5C 754.667,112.833 754.333,101.167 754,89.5C 748.495,82.1815 749.661,76.5148 757.5,72.5 Z"/>
  <path opacity="0.450" fill="#32353c" d="M 625.5,79.5 C 628.95,78.7564 630.616,80.0897 630.5,83.5C 628.833,83.5 627.167,83.5 625.5,83.5C 625.5,82.1667 625.5,80.8333 625.5,79.5 Z"/>
  <path opacity="0.938" fill="#353743" d="M 291.5,83.5 C 294.287,84.7924 297.121,84.7924 300,83.5C 302.723,84.2084 303.723,85.8751 303,88.5C 301.764,89.3992 300.93,90.5659 300.5,92C 304.665,97.3262 308.332,102.993 311.5,109C 308.92,111.972 305.92,112.305 302.5,110C 292.943,105.051 287.777,97.2182 287,86.5C 288.652,85.6006 290.152,84.6006 291.5,83.5 Z"/>
  <path opacity="0.442" fill="#34334e" d="M 137.5,86.5 C 140.861,87.2032 141.194,88.5365 138.5,90.5C 136.358,89.5629 136.024,88.2296 137.5,86.5 Z"/>
  <path opacity="0.427" fill="#2f313b" d="M 1.5,111.5 C 3.91176,111.694 4.91176,113.027 4.5,115.5C 3.5,115.5 2.5,115.5 1.5,115.5C 1.5,114.167 1.5,112.833 1.5,111.5 Z"/>
  <path opacity="0.475" fill="#332f48" d="M 80.5,133.5 C 84.31,134.754 84.31,135.754 80.5,136.5C 80.5,135.5 80.5,134.5 80.5,133.5 Z"/>
</svg>