<svg width="634" height="128" viewBox="0 0 634 128" fill-rule="evenodd" clip-rule="evenodd" xmlns="http://www.w3.org/2000/svg"><svg x="-3" y="-5" width="138" height="138" viewBox="0 0 270 178"><path fill="#050506" d="M 251.5,119.5 C 228.167,119.5 204.833,119.5 181.5,119.5C 166.833,119.5 152.167,119.5 137.5,119.5C 126.833,119.5 116.167,119.5 105.5,119.5C 105.5,132.5 105.5,145.5 105.5,158.5C 104.833,159.5 104.167,160.5 103.5,161.5C 102.609,162.11 101.609,162.443 100.5,162.5C 80.5,162.5 60.5,162.5 40.5,162.5C 40.5,159.5 40.5,156.5 40.5,153.5C 60.3404,153.83 80.0071,153.497 99.5,152.5C 100.498,125.005 100.831,97.3384 100.5,69.5C 79.3267,69.1694 58.3267,69.5027 37.5,70.5C 36.5046,82.989 36.1713,95.6557 36.5,108.5C 35.1667,108.5 33.8333,108.5 32.5,108.5C 32.8278,97.6536 32.4944,86.9869 31.5,76.5C 30.5531,71.7775 31.8864,67.9442 35.5,65C 44.4938,64.5002 53.4938,64.3336 62.5,64.5C 65.1667,64.5 67.8333,64.5 70.5,64.5C 71.5,64.5 72.5,64.5 73.5,64.5C 82.5062,64.3336 91.5062,64.5002 100.5,65C 103.079,66.0757 104.746,67.909 105.5,70.5C 105.5,83.1667 105.5,95.8333 105.5,108.5C 105.5,110.167 105.5,111.833 105.5,113.5C 153.67,113.832 201.67,113.499 249.5,112.5C 249.5,105.833 249.5,99.1667 249.5,92.5C 249.5,65.8333 249.5,39.1667 249.5,12.5C 189.833,12.5 130.167,12.5 70.5,12.5C 69.5034,29.3251 69.1701,46.3251 69.5,63.5C 67.1667,63.5 64.8333,63.5 62.5,63.5C 62.3334,45.1636 62.5001,26.8303 63,8.5C 63.8333,7.66667 64.6667,6.83333 65.5,6C 128.167,5.33333 190.833,5.33333 253.5,6C 254.701,6.90252 255.535,8.06919 256,9.5C 256.667,45.1667 256.667,80.8333 256,116.5C 254.729,117.883 253.229,118.883 251.5,119.5 Z"/><path fill="#fdf1fd" d="M 192.5,44.5 C 208.5,44.5 224.5,44.5 240.5,44.5C 228.34,45.3308 216.007,45.8308 203.5,46C 203.833,46.3333 204.167,46.6667 204.5,47C 218.673,47.1689 232.673,47.6689 246.5,48.5C 248.161,62.9715 249.161,77.6382 249.5,92.5C 249.5,99.1667 249.5,105.833 249.5,112.5C 249.167,112.5 248.833,112.5 248.5,112.5C 248.657,111.127 248.49,109.793 248,108.5C 247.617,109.056 247.117,109.389 246.5,109.5C 246.5,109.167 246.5,108.833 246.5,108.5C 246.5,105.833 246.5,103.167 246.5,100.5C 227.007,99.5029 207.34,99.1696 187.5,99.5C 203.662,98.6685 219.995,98.1685 236.5,98C 198.338,97.1045 160.338,96.2712 122.5,95.5C 122.833,95.5 123.167,95.5 123.5,95.5C 148.167,95.5 172.833,95.5 197.5,95.5C 197.5,94.5 197.5,93.5 197.5,92.5C 198.496,92.5858 199.329,92.2524 200,91.5C 200.81,80.7865 200.643,70.1198 199.5,59.5C 200.632,54.9087 201.299,50.2421 201.5,45.5C 200.167,45.5 198.833,45.5 197.5,45.5C 197.5,46.5 197.5,47.5 197.5,48.5C 196.167,48.5 194.833,48.5 193.5,48.5C 169.833,48.5 146.167,48.5 122.5,48.5C 125.305,47.6805 128.305,47.1805 131.5,47C 151.407,46.1741 171.24,46.3408 191,47.5C 193.158,46.9498 193.658,45.9498 192.5,44.5 Z"/><path fill="#8b8887" d="M 70.5,12.5 C 70.5,29.8333 70.5,47.1667 70.5,64.5C 67.8333,64.5 65.1667,64.5 62.5,64.5C 62.5,64.1667 62.5,63.8333 62.5,63.5C 64.8333,63.5 67.1667,63.5 69.5,63.5C 69.1701,46.3251 69.5034,29.3251 70.5,12.5 Z"/><path fill="#e1b6e3" d="M 122.5,48.5 C 146.167,48.5 169.833,48.5 193.5,48.5C 193.38,49.5862 192.713,50.2528 191.5,50.5C 168.86,49.5206 146.193,49.1873 123.5,49.5C 123.5,64.8333 123.5,80.1667 123.5,95.5C 123.167,95.5 122.833,95.5 122.5,95.5C 122.5,79.8333 122.5,64.1667 122.5,48.5 Z"/><path fill="#f7f1f8" d="M 70.5,12.5 C 130.167,12.5 189.833,12.5 249.5,12.5C 249.5,39.1667 249.5,65.8333 249.5,92.5C 249.161,77.6382 248.161,62.9715 246.5,48.5C 232.673,47.6689 218.673,47.1689 204.5,47C 204.167,46.6667 203.833,46.3333 203.5,46C 216.007,45.8308 228.34,45.3308 240.5,44.5C 242.5,44.5 244.5,44.5 246.5,44.5C 246.827,34.6522 246.494,24.9856 245.5,15.5C 188.167,15.5 130.833,15.5 73.5,15.5C 73.1729,25.3478 73.5062,35.0144 74.5,44.5C 113.833,44.5 153.167,44.5 192.5,44.5C 193.658,45.9498 193.158,46.9498 191,47.5C 171.24,46.3408 151.407,46.1741 131.5,47C 128.305,47.1805 125.305,47.6805 122.5,48.5C 122.5,64.1667 122.5,79.8333 122.5,95.5C 160.338,96.2712 198.338,97.1045 236.5,98C 219.995,98.1685 203.662,98.6685 187.5,99.5C 165.833,99.5 144.167,99.5 122.5,99.5C 122.5,102.833 122.5,106.167 122.5,109.5C 163.833,109.5 205.167,109.5 246.5,109.5C 247.117,109.389 247.617,109.056 248,108.5C 248.49,109.793 248.657,111.127 248.5,112.5C 201.167,112.5 153.833,112.5 106.5,112.5C 106.5,111.5 106.5,110.5 106.5,109.5C 110.042,109.813 113.375,109.479 116.5,108.5C 117.497,88.6736 117.83,68.6736 117.5,48.5C 102.657,48.1707 87.9905,48.504 73.5,49.5C 73.5,53.1667 73.5,56.8333 73.5,60.5C 73.5,61.8333 73.5,63.1667 73.5,64.5C 72.5,64.5 71.5,64.5 70.5,64.5C 70.5,47.1667 70.5,29.8333 70.5,12.5 Z"/><path fill="#704396" d="M 245.5,15.5 C 246.494,24.9856 246.827,34.6522 246.5,44.5C 244.5,44.5 242.5,44.5 240.5,44.5C 224.5,44.5 208.5,44.5 192.5,44.5C 153.167,44.5 113.833,44.5 74.5,44.5C 74.5,44.1667 74.5,43.8333 74.5,43.5C 128.167,43.5 181.833,43.5 235.5,43.5C 237.5,43.5 239.5,43.5 241.5,43.5C 242.833,43.5 244.167,43.5 245.5,43.5C 245.5,34.5 245.5,25.5 245.5,16.5C 245.5,16.1667 245.5,15.8333 245.5,15.5 Z"/><path fill="#6f2fa5" d="M 245.5,16.5 C 245.5,25.5 245.5,34.5 245.5,43.5C 244.167,43.5 242.833,43.5 241.5,43.5C 241.5,38.5 241.5,33.5 241.5,28.5C 238.918,28.9746 236.918,28.3079 235.5,26.5C 182.167,26.5 128.833,26.5 75.5,26.5C 75.5,31.1667 75.5,35.8333 75.5,40.5C 128.833,40.5 182.167,40.5 235.5,40.5C 235.5,41.5 235.5,42.5 235.5,43.5C 181.833,43.5 128.167,43.5 74.5,43.5C 74.5,34.5 74.5,25.5 74.5,16.5C 131.5,16.5 188.5,16.5 245.5,16.5 Z"/><path fill="#70309f" d="M 235.5,26.5 C 236.918,28.3079 238.918,28.9746 241.5,28.5C 241.5,33.5 241.5,38.5 241.5,43.5C 239.5,43.5 237.5,43.5 235.5,43.5C 235.5,42.5 235.5,41.5 235.5,40.5C 182.167,40.5 128.833,40.5 75.5,40.5C 75.5,35.8333 75.5,31.1667 75.5,26.5C 128.833,26.5 182.167,26.5 235.5,26.5 Z"/><path fill="#71319b" d="M 235.5,26.5 C 235.67,25.1779 235.337,24.0113 234.5,23C 181.83,22.8333 129.164,22.3333 76.5,21.5C 131.398,20.5243 186.231,20.191 241,20.5C 242.769,21.3709 243.436,22.7043 243,24.5C 240.564,25.3547 238.064,26.0213 235.5,26.5 Z"/><path fill="#50237c" d="M 245.5,15.5 C 245.5,15.8333 245.5,16.1667 245.5,16.5C 188.5,16.5 131.5,16.5 74.5,16.5C 74.5,25.5 74.5,34.5 74.5,43.5C 74.5,43.8333 74.5,44.1667 74.5,44.5C 73.5062,35.0144 73.1729,25.3478 73.5,15.5C 130.833,15.5 188.167,15.5 245.5,15.5 Z"/><path fill="#e19de3" d="M 193.5,48.5 C 194.833,48.5 196.167,48.5 197.5,48.5C 197.5,63.1667 197.5,77.8333 197.5,92.5C 197.5,93.5 197.5,94.5 197.5,95.5C 172.833,95.5 148.167,95.5 123.5,95.5C 123.5,80.1667 123.5,64.8333 123.5,49.5C 146.193,49.1873 168.86,49.5206 191.5,50.5C 192.713,50.2528 193.38,49.5862 193.5,48.5 Z"/><path fill="#fcfbfc" d="M 197.5,92.5 C 197.5,77.8333 197.5,63.1667 197.5,48.5C 197.5,47.5 197.5,46.5 197.5,45.5C 198.833,45.5 200.167,45.5 201.5,45.5C 201.299,50.2421 200.632,54.9087 199.5,59.5C 200.643,70.1198 200.81,80.7865 200,91.5C 199.329,92.2524 198.496,92.5858 197.5,92.5 Z"/><path fill="#c946cb" d="M 73.5,49.5 C 87.8333,49.5 102.167,49.5 116.5,49.5C 116.5,69.1667 116.5,88.8333 116.5,108.5C 113.287,108.81 110.287,108.477 107.5,107.5C 107.5,93.1667 107.5,78.8333 107.5,64.5C 96.8313,63.9869 86.1646,63.3203 75.5,62.5C 75.1445,61.4777 74.4778,60.811 73.5,60.5C 73.5,56.8333 73.5,53.1667 73.5,49.5 Z"/><path fill="#e59bea" d="M 73.5,49.5 C 87.9905,48.504 102.657,48.1707 117.5,48.5C 117.83,68.6736 117.497,88.6736 116.5,108.5C 116.5,88.8333 116.5,69.1667 116.5,49.5C 102.167,49.5 87.8333,49.5 73.5,49.5 Z"/><path fill="#c677c6" d="M 246.5,48.5 C 246.5,48.8333 246.5,49.1667 246.5,49.5C 246.167,49.5 245.833,49.5 245.5,49.5C 231.5,49.5 217.5,49.5 203.5,49.5C 203.5,64.5 203.5,79.5 203.5,94.5C 203.5,94.8333 203.5,95.1667 203.5,95.5C 202.504,80.0089 202.17,64.3422 202.5,48.5C 217.167,48.5 231.833,48.5 246.5,48.5 Z"/><path fill="#ca47cd" d="M 245.5,49.5 C 245.5,64.5 245.5,79.5 245.5,94.5C 231.5,94.5 217.5,94.5 203.5,94.5C 203.5,79.5 203.5,64.5 203.5,49.5C 217.5,49.5 231.5,49.5 245.5,49.5 Z"/><path fill="#ac55ae" d="M 245.5,49.5 C 245.833,49.5 246.167,49.5 246.5,49.5C 246.5,64.8333 246.5,80.1667 246.5,95.5C 232.167,95.5 217.833,95.5 203.5,95.5C 203.5,95.1667 203.5,94.8333 203.5,94.5C 217.5,94.5 231.5,94.5 245.5,94.5C 245.5,79.5 245.5,64.5 245.5,49.5 Z"/><path fill="#fbf3fa" d="M 37.5,70.5 C 58.1667,70.5 78.8333,70.5 99.5,70.5C 99.5,97.8333 99.5,125.167 99.5,152.5C 79.5,152.5 59.5,152.5 39.5,152.5C 39.829,138.656 39.4957,124.99 38.5,111.5C 38.5,110.833 38.1667,110.5 37.5,110.5C 37.5,97.1667 37.5,83.8333 37.5,70.5 Z"/><path fill="#c46cc8" d="M 73.5,60.5 C 74.4778,60.811 75.1445,61.4777 75.5,62.5C 86.1646,63.3203 96.8313,63.9869 107.5,64.5C 107.5,78.8333 107.5,93.1667 107.5,107.5C 106.833,95.1667 106.167,82.8333 105.5,70.5C 104.746,67.909 103.079,66.0757 100.5,65C 91.5062,64.5002 82.5062,64.3336 73.5,64.5C 73.5,63.1667 73.5,61.8333 73.5,60.5 Z"/><path fill="#b197ca" d="M 96.5,72.5 C 97.4881,77.6405 97.8214,82.9738 97.5,88.5C 78.5,88.5 59.5,88.5 40.5,88.5C 40.5,82.8333 40.5,77.1667 40.5,71.5C 59.3408,71.1698 78.0075,71.5031 96.5,72.5 Z"/><path fill="#5a2b85" d="M 91.5,72.5 C 93.1667,72.5 94.8333,72.5 96.5,72.5C 96.5,77.5 96.5,82.5 96.5,87.5C 78.1667,87.5 59.8333,87.5 41.5,87.5C 41.5,86.1667 41.5,84.8333 41.5,83.5C 42.404,84.209 42.7373,85.209 42.5,86.5C 58.8367,86.6666 75.1701,86.4999 91.5,86C 92.5634,84.8118 93.8967,84.3118 95.5,84.5C 95.5,80.8333 95.5,77.1667 95.5,73.5C 93.901,73.7678 92.5676,73.4345 91.5,72.5 Z"/><path fill="#6e2e9e" d="M 91.5,72.5 C 92.5676,73.4345 93.901,73.7678 95.5,73.5C 95.5,77.1667 95.5,80.8333 95.5,84.5C 93.8967,84.3118 92.5634,84.8118 91.5,86C 75.1701,86.4999 58.8367,86.6666 42.5,86.5C 42.7373,85.209 42.404,84.209 41.5,83.5C 41.5,79.8333 41.5,76.1667 41.5,72.5C 58.1667,72.5 74.8333,72.5 91.5,72.5 Z"/><path fill="#323530" d="M 37.5,70.5 C 37.5,83.8333 37.5,97.1667 37.5,110.5C 35.6208,109.659 33.6208,109.325 31.5,109.5C 31.5,98.5 31.5,87.5 31.5,76.5C 32.4944,86.9869 32.8278,97.6536 32.5,108.5C 33.8333,108.5 35.1667,108.5 36.5,108.5C 36.1713,95.6557 36.5046,82.989 37.5,70.5 Z"/><path fill="#daaed9" d="M 42.5,90.5 C 41.3968,98.4515 41.2302,106.452 42,114.5C 42.8699,115.108 43.3699,115.941 43.5,117C 42.0006,119.398 41.3339,122.065 41.5,125C 41.5465,127.295 42.2132,129.129 43.5,130.5C 43.5,131.167 43.5,131.833 43.5,132.5C 42.5,132.5 41.5,132.5 40.5,132.5C 39.8509,118.127 40.5176,104.127 42.5,90.5 Z"/><path fill="#666769" d="M 37.5,70.5 C 58.3267,69.5027 79.3267,69.1694 100.5,69.5C 100.831,97.3384 100.498,125.005 99.5,152.5C 99.5,125.167 99.5,97.8333 99.5,70.5C 78.8333,70.5 58.1667,70.5 37.5,70.5 Z"/><path fill="#aa72ab" d="M 105.5,70.5 C 106.167,82.8333 106.833,95.1667 107.5,107.5C 110.287,108.477 113.287,108.81 116.5,108.5C 113.375,109.479 110.042,109.813 106.5,109.5C 106.5,108.833 106.167,108.5 105.5,108.5C 105.5,95.8333 105.5,83.1667 105.5,70.5 Z"/><path fill="#6e3097" d="M 124.5,100.5 C 160.838,102.098 197.504,103.432 234.5,104.5C 197.833,105.167 161.167,105.833 124.5,106.5C 164.161,107.5 203.828,107.833 243.5,107.5C 243.702,105.05 243.369,102.717 242.5,100.5C 243.833,100.5 245.167,100.5 246.5,100.5C 246.5,103.167 246.5,105.833 246.5,108.5C 205.5,108.5 164.5,108.5 123.5,108.5C 123.194,105.615 123.527,102.948 124.5,100.5 Z"/><path fill="#6f2ca4" d="M 124.5,100.5 C 163.833,100.5 203.167,100.5 242.5,100.5C 243.369,102.717 243.702,105.05 243.5,107.5C 203.828,107.833 164.161,107.5 124.5,106.5C 161.167,105.833 197.833,105.167 234.5,104.5C 197.504,103.432 160.838,102.098 124.5,100.5 Z"/><path fill="#e4badf" d="M 91.5,90.5 C 93.5,90.5 95.5,90.5 97.5,90.5C 97.6666,103.504 97.4999,116.504 97,129.5C 95.3005,130.406 93.4672,130.739 91.5,130.5C 92.5521,128.744 94.2188,128.077 96.5,128.5C 96.5,116.5 96.5,104.5 96.5,92.5C 94.2188,92.9227 92.5521,92.256 91.5,90.5 Z"/><path fill="#917baa" d="M 187.5,99.5 C 207.34,99.1696 227.007,99.5029 246.5,100.5C 245.167,100.5 243.833,100.5 242.5,100.5C 203.167,100.5 163.833,100.5 124.5,100.5C 123.527,102.948 123.194,105.615 123.5,108.5C 164.5,108.5 205.5,108.5 246.5,108.5C 246.5,108.833 246.5,109.167 246.5,109.5C 205.167,109.5 163.833,109.5 122.5,109.5C 122.5,106.167 122.5,102.833 122.5,99.5C 144.167,99.5 165.833,99.5 187.5,99.5 Z"/><path fill="#7c7c7e" d="M 105.5,108.5 C 106.167,108.5 106.5,108.833 106.5,109.5C 106.5,110.5 106.5,111.5 106.5,112.5C 153.833,112.5 201.167,112.5 248.5,112.5C 248.833,112.5 249.167,112.5 249.5,112.5C 201.67,113.499 153.67,113.832 105.5,113.5C 105.5,111.833 105.5,110.167 105.5,108.5 Z"/><path fill="#e29ce4" d="M 42.5,90.5 C 58.8333,90.5 75.1667,90.5 91.5,90.5C 92.5521,92.256 94.2188,92.9227 96.5,92.5C 96.5,104.5 96.5,116.5 96.5,128.5C 94.2188,128.077 92.5521,128.744 91.5,130.5C 75.5,130.5 59.5,130.5 43.5,130.5C 42.2132,129.129 41.5465,127.295 41.5,125C 41.3339,122.065 42.0006,119.398 43.5,117C 43.3699,115.941 42.8699,115.108 42,114.5C 41.2302,106.452 41.3968,98.4515 42.5,90.5 Z"/><path fill="#6b6b69" d="M 137.5,119.5 C 152.167,119.5 166.833,119.5 181.5,119.5C 181.5,120.5 181.5,121.5 181.5,122.5C 166.833,122.5 152.167,122.5 137.5,122.5C 137.5,121.833 137.5,121.167 137.5,120.5C 137.5,120.167 137.5,119.833 137.5,119.5 Z"/><path fill="#ababab" d="M 181.5,119.5 C 204.833,119.5 228.167,119.5 251.5,119.5C 228.673,120.498 205.673,120.831 182.5,120.5C 182.764,126.622 184.431,132.289 187.5,137.5C 187.833,138.167 188.167,138.833 188.5,139.5C 188.574,141.411 189.574,142.578 191.5,143C 210.253,142.934 228.92,144.1 247.5,146.5C 249.007,148.969 248.673,151.135 246.5,153C 217.872,155.005 189.206,156.172 160.5,156.5C 145.969,156.488 131.469,156.155 117,155.5C 115.699,155.639 114.866,156.305 114.5,157.5C 111.358,157.799 109.191,159.466 108,162.5C 106.612,162.786 105.112,162.452 103.5,161.5C 104.167,160.5 104.833,159.5 105.5,158.5C 109.711,157.444 110.377,155.444 107.5,152.5C 112.167,152.5 116.833,152.5 121.5,152.5C 146.833,152.5 172.167,152.5 197.5,152.5C 198.239,152.369 198.906,152.536 199.5,153C 198.167,153.333 196.833,153.667 195.5,154C 208.919,153.916 222.252,152.75 235.5,150.5C 235.5,149.5 235.5,148.5 235.5,147.5C 222.172,146.993 208.839,146.66 195.5,146.5C 195.167,146.5 194.833,146.5 194.5,146.5C 172.906,147.655 151.239,147.821 129.5,147C 127.699,146.683 127.366,146.016 128.5,145C 120.765,145.137 113.432,144.304 106.5,142.5C 113.841,142.666 121.174,142.5 128.5,142C 133.131,136.282 136.131,129.782 137.5,122.5C 152.167,122.5 166.833,122.5 181.5,122.5C 181.5,121.5 181.5,120.5 181.5,119.5 Z"/><path fill="#d48ddf" d="M 40.5,132.5 C 41.5,132.5 42.5,132.5 43.5,132.5C 51.8333,132.5 60.1667,132.5 68.5,132.5C 68.5,138.833 68.5,145.167 68.5,151.5C 59.3178,151.827 50.3178,151.493 41.5,150.5C 40.5104,144.69 40.1771,138.69 40.5,132.5 Z"/><path fill="#d891dd" d="M 70.5,133.5 C 79.3178,132.507 88.3178,132.173 97.5,132.5C 97.5,138.833 97.5,145.167 97.5,151.5C 88.3178,151.827 79.3178,151.493 70.5,150.5C 79.1667,150.5 87.8333,150.5 96.5,150.5C 96.8222,144.642 96.4889,138.975 95.5,133.5C 87.1667,133.5 78.8333,133.5 70.5,133.5 Z"/><path fill="#cb45cb" d="M 41.5,150.5 C 41.5,144.833 41.5,139.167 41.5,133.5C 50.1667,133.5 58.8333,133.5 67.5,133.5C 67.5,139.167 67.5,144.833 67.5,150.5C 58.8333,150.5 50.1667,150.5 41.5,150.5 Z"/><path fill="#989a99" d="M 137.5,119.5 C 137.5,119.833 137.5,120.167 137.5,120.5C 127.167,120.5 116.833,120.5 106.5,120.5C 106.5,127.833 106.5,135.167 106.5,142.5C 113.432,144.304 120.765,145.137 128.5,145C 127.366,146.016 127.699,146.683 129.5,147C 151.239,147.821 172.906,147.655 194.5,146.5C 183.353,147.832 171.853,148.499 160,148.5C 142.572,148.664 125.239,147.998 108,146.5C 107.505,148.473 107.338,150.473 107.5,152.5C 110.377,155.444 109.711,157.444 105.5,158.5C 105.5,145.5 105.5,132.5 105.5,119.5C 116.167,119.5 126.833,119.5 137.5,119.5 Z"/><path fill="#cc44ce" d="M 70.5,133.5 C 78.8333,133.5 87.1667,133.5 95.5,133.5C 95.5,138.5 95.5,143.5 95.5,148.5C 87.5341,149.365 79.5341,149.698 71.5,149.5C 72.7144,144.981 72.3811,140.648 70.5,136.5C 70.5,135.5 70.5,134.5 70.5,133.5 Z"/><path fill="#828282" d="M 194.5,146.5 C 194.833,146.5 195.167,146.5 195.5,146.5C 195.5,147.833 195.5,149.167 195.5,150.5C 170.477,149.843 145.811,150.51 121.5,152.5C 116.833,152.5 112.167,152.5 107.5,152.5C 107.338,150.473 107.505,148.473 108,146.5C 125.239,147.998 142.572,148.664 160,148.5C 171.853,148.499 183.353,147.832 194.5,146.5 Z"/><path fill="#b851b8" d="M 95.5,133.5 C 96.4889,138.975 96.8222,144.642 96.5,150.5C 87.8333,150.5 79.1667,150.5 70.5,150.5C 70.5,145.833 70.5,141.167 70.5,136.5C 72.3811,140.648 72.7144,144.981 71.5,149.5C 79.5341,149.698 87.5341,149.365 95.5,148.5C 95.5,143.5 95.5,138.5 95.5,133.5 Z"/><path fill="#606060" d="M 195.5,150.5 C 196.5,150.833 197.167,151.5 197.5,152.5C 172.167,152.5 146.833,152.5 121.5,152.5C 145.811,150.51 170.477,149.843 195.5,150.5 Z"/><path fill="#989898" d="M 195.5,146.5 C 208.839,146.66 222.172,146.993 235.5,147.5C 235.5,148.5 235.5,149.5 235.5,150.5C 222.252,152.75 208.919,153.916 195.5,154C 196.833,153.667 198.167,153.333 199.5,153C 198.906,152.536 198.239,152.369 197.5,152.5C 197.167,151.5 196.5,150.833 195.5,150.5C 195.5,149.167 195.5,147.833 195.5,146.5 Z"/><path fill="#110f12" d="M 31.5,109.5 C 33.6208,109.325 35.6208,109.659 37.5,110.5C 38.1667,110.5 38.5,110.833 38.5,111.5C 38.5,129.833 38.5,148.167 38.5,166.5C 38.5,168.5 37.5,169.5 35.5,169.5C 27.5,169.5 19.5,169.5 11.5,169.5C 10.1779,169.67 9.01127,169.337 8,168.5C 7.50005,149.836 7.33339,131.17 7.5,112.5C 7.41423,111.504 7.74756,110.671 8.5,110C 16.1594,109.5 23.8261,109.334 31.5,109.5 Z"/><path fill="#9a959a" d="M 9.5,113.5 C 18.6517,112.506 27.985,112.173 37.5,112.5C 37.5,129.167 37.5,145.833 37.5,162.5C 27.985,162.827 18.6517,162.494 9.5,161.5C 18.5,161.5 27.5,161.5 36.5,161.5C 36.5,145.5 36.5,129.5 36.5,113.5C 27.5,113.5 18.5,113.5 9.5,113.5 Z"/><path fill="#f9e2fa" d="M 9.5,113.5 C 18.5,113.5 27.5,113.5 36.5,113.5C 36.5,129.5 36.5,145.5 36.5,161.5C 27.5,161.5 18.5,161.5 9.5,161.5C 9.5,145.5 9.5,129.5 9.5,113.5 Z"/><path fill="#c171c0" d="M 11.5,154.5 C 11.5,156.167 11.5,157.833 11.5,159.5C 19.0191,159.825 26.3524,159.492 33.5,158.5C 34.1667,158.167 34.8333,157.833 35.5,157.5C 35.5,158.5 35.5,159.5 35.5,160.5C 27.1667,160.5 18.8333,160.5 10.5,160.5C 10.2053,158.265 10.5386,156.265 11.5,154.5 Z"/><path fill="#c951c8" d="M 11.5,154.5 C 19.5,154.5 27.5,154.5 35.5,154.5C 35.5,155.5 35.5,156.5 35.5,157.5C 34.8333,157.833 34.1667,158.167 33.5,158.5C 26.3524,159.492 19.0191,159.825 11.5,159.5C 11.5,157.833 11.5,156.167 11.5,154.5 Z"/><path fill="#d33ed0" d="M 33.5,158.5 C 26.5,158.5 19.5,158.5 12.5,158.5C 12.5,157.5 12.5,156.5 12.5,155.5C 19.5,155.5 26.5,155.5 33.5,155.5C 33.5,156.5 33.5,157.5 33.5,158.5 Z"/><path fill="#b87abd" d="M 35.5,148.5 C 27.8261,148.334 20.1594,148.5 12.5,149C 11.6634,150.011 11.33,151.178 11.5,152.5C 19.5,152.5 27.5,152.5 35.5,152.5C 27.3501,153.493 19.0168,153.826 10.5,153.5C 10.5,151.5 10.5,149.5 10.5,147.5C 19.0168,147.174 27.3501,147.507 35.5,148.5 Z"/><path fill="#cb4acd" d="M 35.5,148.5 C 35.5,149.833 35.5,151.167 35.5,152.5C 27.5,152.5 19.5,152.5 11.5,152.5C 11.33,151.178 11.6634,150.011 12.5,149C 20.1594,148.5 27.8261,148.334 35.5,148.5 Z"/><path fill="#dda3de" d="M 35.5,143.5 C 34.8334,137.321 34.1668,130.988 33.5,124.5C 32.914,124.291 32.414,123.957 32,123.5C 31.8078,125.577 31.3078,127.577 30.5,129.5C 28.0769,128.288 27.0769,126.288 27.5,123.5C 22.5,123.5 17.5,123.5 12.5,123.5C 12.5,130.833 12.5,138.167 12.5,145.5C 17.6946,145.179 22.6946,145.513 27.5,146.5C 22.1667,146.5 16.8333,146.5 11.5,146.5C 11.5,138.5 11.5,130.5 11.5,122.5C 19.5,122.5 27.5,122.5 35.5,122.5C 35.5,129.5 35.5,136.5 35.5,143.5 Z"/><path fill="#e39ce5" d="M 35.5,143.5 C 35.5,144.5 35.5,145.5 35.5,146.5C 32.8333,146.5 30.1667,146.5 27.5,146.5C 22.6946,145.513 17.6946,145.179 12.5,145.5C 12.5,138.167 12.5,130.833 12.5,123.5C 17.5,123.5 22.5,123.5 27.5,123.5C 27.0769,126.288 28.0769,128.288 30.5,129.5C 31.3078,127.577 31.8078,125.577 32,123.5C 32.414,123.957 32.914,124.291 33.5,124.5C 34.1668,130.988 34.8334,137.321 35.5,143.5 Z"/><path fill="#71389c" d="M 34.5,120.5 C 32.6948,118.803 30.3615,117.97 27.5,118C 22.5111,117.501 17.5111,117.334 12.5,117.5C 12.5,118.5 12.5,119.5 12.5,120.5C 10.6921,119.082 10.0254,117.082 10.5,114.5C 18.8333,114.5 27.1667,114.5 35.5,114.5C 35.7947,116.735 35.4614,118.735 34.5,120.5 Z"/><path fill="#6d24aa" d="M 34.5,120.5 C 27.1667,120.5 19.8333,120.5 12.5,120.5C 12.5,119.5 12.5,118.5 12.5,117.5C 17.5111,117.334 22.5111,117.501 27.5,118C 30.3615,117.97 32.6948,118.803 34.5,120.5 Z"/><path fill="#545452" d="M 38.5,111.5 C 39.4957,124.99 39.829,138.656 39.5,152.5C 59.5,152.5 79.5,152.5 99.5,152.5C 80.0071,153.497 60.3404,153.83 40.5,153.5C 40.5,156.5 40.5,159.5 40.5,162.5C 60.5,162.5 80.5,162.5 100.5,162.5C 80.3402,163.497 60.0069,163.83 39.5,163.5C 39.5,164.5 39.5,165.5 39.5,166.5C 39.1667,166.5 38.8333,166.5 38.5,166.5C 38.5,148.167 38.5,129.833 38.5,111.5 Z"/></svg><svg x="144" y="46" width="328" height="48" viewBox="0 0 750 110" fill="#353844"><path opacity="0.966" d="M 14.5,1.5 C 21.7779,5.20587 29.4446,8.0392 37.5,10C 49.984,11.2869 62.484,11.1202 75,9.5C 94.0814,10.5634 100.081,19.8967 93,37.5C 83.4978,45.8905 72.3311,49.7238 59.5,49C 62.4125,50.3726 65.2458,51.8726 68,53.5C 69.4039,55.6389 70.2372,57.9722 70.5,60.5C 69.4453,65.1472 68.9453,69.8139 69,74.5C 70.1911,76.9148 72.1911,78.2481 75,78.5C 81.0609,77.703 86.5609,75.5363 91.5,72C 88.1974,71.9405 84.8641,72.1071 81.5,72.5C 69.8364,70.9927 68.503,66.1594 77.5,58C 84.6579,51.9397 92.6579,50.273 101.5,53C 105.647,60.0453 105.147,66.8786 100,73.5C 91.2058,82.7125 80.3725,86.7125 67.5,85.5C 59.1437,87.0006 52.6437,84.334 48,77.5C 47.0721,68.7665 45.7388,60.0998 44,51.5C 42.3333,48.5 40,46.1667 37,44.5C 36.4473,57.0787 37.9473,69.412 41.5,81.5C 28.1667,81.8333 14.8333,82.1667 1.5,82.5C 1.29777,80.0108 1.79777,77.6775 3,75.5C 5.89898,75.0233 8.56565,74.0233 11,72.5C 12.0928,60.0909 13.7595,47.7576 16,35.5C 17.3744,28.7102 19.541,22.2102 22.5,16C 18.7665,15.9345 15.2665,15.1011 12,13.5C 12.4958,9.50469 13.3291,5.50469 14.5,1.5 Z M 49.5,20.5 C 59.0626,20.6311 67.5626,23.6311 75,29.5C 77.3831,34.2312 75.8831,37.0645 70.5,38C 57.5534,40.5815 45.7201,38.0815 35,30.5C 34.3333,28.8333 34.3333,27.1667 35,25.5C 39.5691,22.7003 44.4025,21.0336 49.5,20.5 Z"/><path opacity="0.970" d="M 287.5,6.5 C 302.284,7.25262 316.951,8.75262 331.5,11C 322.915,27.9216 319.748,45.7549 322,64.5C 324.493,71.151 329.326,74.4844 336.5,74.5C 342.167,74.1443 347.5,72.6443 352.5,70C 358.717,62.6637 357.717,60.6637 349.5,64C 343.245,65.1268 337.245,64.4601 331.5,62C 327.559,59.1866 326.725,55.6866 329,51.5C 338.629,41.837 349.629,39.5037 362,44.5C 366.652,58.7407 364.485,71.9074 355.5,84C 343.851,83.3584 332.184,82.5251 320.5,81.5C 311.439,81.5979 302.773,83.2646 294.5,86.5C 293.663,82.8293 293.163,79.1626 293,75.5C 296.411,74.7069 299.911,74.2069 303.5,74C 300.44,66.4873 298.607,58.654 298,50.5C 297.667,39.5 297.333,28.5 297,17.5C 296.5,16.3333 295.667,15.5 294.5,15C 288.631,15.2013 286.297,12.368 287.5,6.5 Z"/><path opacity="0.966" d="M 711.5,8.5 C 714.572,8.18259 717.572,8.51592 720.5,9.5C 717.356,15.6209 714.356,21.7876 711.5,28C 716.161,28.1694 720.828,28.0027 725.5,27.5C 725.238,24.4989 724.404,21.8322 723,19.5C 726.788,16.5069 730.955,15.5069 735.5,16.5C 734.969,25.1787 736.636,33.512 740.5,41.5C 733.304,47.8722 728.138,46.5388 725,37.5C 724.25,36.8742 723.416,36.3742 722.5,36C 718.167,35.3333 713.833,35.3333 709.5,36C 705.439,48.2593 704.606,60.7593 707,73.5C 709.393,78.2899 712.893,79.4566 717.5,77C 720.21,75.9848 722.543,74.4848 724.5,72.5C 718.794,70.8791 713.96,67.8791 710,63.5C 707.034,57.6148 708.534,53.4481 714.5,51C 724.615,49.4286 734.282,50.7619 743.5,55C 747.442,60.4899 747.276,65.9899 743,71.5C 735.951,78.4393 727.451,82.2726 717.5,83C 686.485,89.6554 674.985,77.8221 683,47.5C 684.113,43.4919 685.613,39.6586 687.5,36C 686,35.8333 684.5,35.6667 683,35.5C 677.1,36.476 671.267,36.8093 665.5,36.5C 662.711,46.5908 661.378,56.9241 661.5,67.5C 665.167,67.5 668.833,67.5 672.5,67.5C 672.508,70.5448 672.841,73.5448 673.5,76.5C 661.909,78.3635 650.909,82.0302 640.5,87.5C 639.833,87.1667 639.167,86.8333 638.5,86.5C 639.85,82.9228 640.35,79.2562 640,75.5C 630.529,84.877 619.362,87.7103 606.5,84C 602.835,82.332 600.668,79.4987 600,75.5C 599.289,66.6302 601.623,58.6302 607,51.5C 610.131,47.3672 613.631,43.5338 617.5,40C 611.188,40.108 604.855,40.2746 598.5,40.5C 599.071,37.5231 600.071,34.6897 601.5,32C 614.833,31.8887 628.166,32.222 641.5,33C 634.429,41.3089 629.595,50.8089 627,61.5C 625.902,65.5052 626.735,69.0052 629.5,72C 630.833,72.6667 632.167,72.6667 633.5,72C 642.572,57.5607 647.239,41.7273 647.5,24.5C 655.505,25.4603 663.338,27.1269 671,29.5C 671.333,28.1667 671.667,26.8333 672,25.5C 672.725,24.9415 673.558,24.6082 674.5,24.5C 678.723,25.9128 683.057,26.5795 687.5,26.5C 687.351,21.4246 686.685,16.4246 685.5,11.5C 694.342,10.8231 703.008,9.82313 711.5,8.5 Z"/><path opacity="0.972" d="M 440.5,22.5 C 442.167,22.5 443.833,22.5 445.5,22.5C 445.5,25.8333 445.5,29.1667 445.5,32.5C 442.901,32.5494 440.734,33.5494 439,35.5C 438.667,43.5 438.333,51.5 438,59.5C 437.75,62.8502 436.917,66.0169 435.5,69C 439.152,69.4986 442.818,69.6653 446.5,69.5C 447.468,74.1879 447.468,78.8545 446.5,83.5C 444.217,82.6791 441.884,82.0124 439.5,81.5C 430.589,82.6143 421.923,84.6143 413.5,87.5C 413.901,84.2521 414.568,81.0854 415.5,78C 412.525,78.9789 409.525,80.3122 406.5,82C 372.441,91.9411 360.607,80.1078 371,46.5C 377.139,33.5159 387.306,28.6826 401.5,32C 406.532,33.5982 411.032,36.0982 415,39.5C 414.849,36.0565 413.683,32.8899 411.5,30C 411.833,29.6667 412.167,29.3333 412.5,29C 422.154,27.64 431.487,25.4733 440.5,22.5 Z M 402.5,50.5 C 422.537,51.506 423.537,56.006 405.5,64C 397.359,65.9795 389.525,65.1462 382,61.5C 381.37,59.0966 382.203,57.2633 384.5,56C 390.294,53.2222 396.294,51.3889 402.5,50.5 Z"/><path opacity="0.960" d="M 207.5,24.5 C 208.978,24.238 210.311,24.5713 211.5,25.5C 212.407,28.0567 213.407,30.5567 214.5,33C 212.048,33.2895 209.715,33.9562 207.5,35C 209.82,38.4847 212.487,41.6513 215.5,44.5C 219.777,41.7265 223.61,38.3932 227,34.5C 227.63,32.0966 226.797,30.2633 224.5,29C 225.233,26.6749 226.733,25.1749 229,24.5C 236.653,26.909 244.153,29.7423 251.5,33C 241.596,39.1122 232.263,45.9455 223.5,53.5C 229.647,60.8151 235.981,67.9818 242.5,75C 245.095,75.2256 247.595,75.7256 250,76.5C 251.11,78.3969 251.276,80.2302 250.5,82C 237.959,83.5535 225.459,85.3868 213,87.5C 209.775,86.7761 207.608,84.7761 206.5,81.5C 208.882,79.9293 211.549,79.096 214.5,79C 215.357,78.3109 216.023,77.4776 216.5,76.5C 214.784,72.3972 212.117,69.0639 208.5,66.5C 204.427,70.2843 200.26,73.951 196,77.5C 195.542,80.096 196.375,82.2627 198.5,84C 197.257,85.1545 196.257,86.4878 195.5,88C 186.417,87.0614 177.75,84.5614 169.5,80.5C 180.012,73.0771 190.345,65.4105 200.5,57.5C 194.65,50.8163 188.317,44.6497 181.5,39C 179.243,39.4371 176.91,39.9371 174.5,40.5C 173.477,37.6075 173.477,34.7742 174.5,32C 186.042,31.3282 197.042,28.8282 207.5,24.5 Z"/><path opacity="0.966" d="M 500.5,28.5 C 511.698,28.7319 522.032,31.8986 531.5,38C 532.406,39.6995 532.739,41.5328 532.5,43.5C 530.116,43.5567 527.782,43.2234 525.5,42.5C 524.353,42.8178 523.519,43.4844 523,44.5C 521.333,56.5 519.667,68.5 518,80.5C 515.824,90.6756 509.658,96.8423 499.5,99C 490.5,99.6667 481.5,99.6667 472.5,99C 464.737,98.3041 457.904,95.4708 452,90.5C 444.231,75.0792 449.064,68.0792 466.5,69.5C 473.074,68.8607 479.074,70.3607 484.5,74C 487.941,80.0098 486.608,84.6765 480.5,88C 476.58,89.3134 472.58,90.3134 468.5,91C 478.002,93.7793 486.169,91.6126 493,84.5C 495.036,81.3981 496.036,78.0648 496,74.5C 484.59,65.5456 473.09,56.7122 461.5,48C 456.917,47.9418 452.583,49.1084 448.5,51.5C 447.34,47.5411 447.173,43.5411 448,39.5C 460.144,37.3383 471.978,34.005 483.5,29.5C 485.948,30.5197 487.614,32.3531 488.5,35C 486.713,37.1341 484.38,37.9675 481.5,37.5C 481.841,40.5158 483.007,43.1825 485,45.5C 490.298,50.6444 495.965,55.3111 502,59.5C 505.881,52.5243 509.381,45.3576 512.5,38C 507.5,37.6667 502.5,37.3333 497.5,37C 498.732,34.2344 499.732,31.401 500.5,28.5 Z"/><path opacity="0.970" d="M 135.5,29.5 C 167.27,24.0483 178.437,36.7149 169,67.5C 161.688,84.6188 148.854,91.1188 130.5,87C 118.063,83.5617 109.896,75.7284 106,63.5C 105.355,50.2951 110.855,40.4618 122.5,34C 126.846,32.164 131.179,30.664 135.5,29.5 Z M 140.5,48.5 C 147.028,48.6939 153.361,49.8605 159.5,52C 163.152,55.1531 162.819,58.1531 158.5,61C 148.217,67.2132 137.217,69.2132 125.5,67C 116.766,65.6931 115.433,62.0264 121.5,56C 127.485,52.3305 133.819,49.8305 140.5,48.5 Z"/><path opacity="0.971" d="M 558.5,29.5 C 591.436,23.9314 602.603,36.9314 592,68.5C 583.398,86.1364 569.564,91.9697 550.5,86C 530.61,77.7384 525.11,63.9051 534,44.5C 540.466,36.5263 548.632,31.5263 558.5,29.5 Z M 564.5,48.5 C 571.813,48.3741 578.646,50.0408 585,53.5C 585.667,54.8333 585.667,56.1667 585,57.5C 573.425,67.537 560.259,70.3703 545.5,66C 543.545,65.0467 541.878,63.7134 540.5,62C 542.126,59.3723 544.126,57.039 546.5,55C 552.267,51.9132 558.267,49.7466 564.5,48.5 Z"/></svg><svg x="488" y="40" width="66" height="48" viewBox="0 0 150 110"><path opacity="0.941" fill="#353844" d="M 29.5,31.5 C 37.2382,31.1439 44.9048,31.6439 52.5,33C 61.709,38.8708 61.709,44.5374 52.5,50C 46.5692,51.4712 40.5692,51.8045 34.5,51C 32.3025,49.1217 32.1358,46.9551 34,44.5C 37.453,40.8549 41.6197,38.3549 46.5,37C 42.7677,33.9427 39.101,33.9427 35.5,37C 30.4229,44.7294 27.4229,53.2294 26.5,62.5C 29.1873,62.6641 31.854,62.4974 34.5,62C 35.0195,59.9742 35.3528,57.9742 35.5,56C 38.4318,55.0467 41.4318,54.5467 44.5,54.5C 42.5609,60.6881 41.0609,67.0215 40,73.5C 37.2809,74.4438 34.4475,74.7771 31.5,74.5C 32.5749,70.062 30.9083,68.062 26.5,68.5C 26.8895,74.0581 28.2229,79.3914 30.5,84.5C 22.578,85.7675 14.9113,87.7675 7.5,90.5C 7.68155,88.4086 7.34822,86.4086 6.5,84.5C 8.88217,82.9293 11.5488,82.096 14.5,82C 12.242,77.4706 11.0753,72.6372 11,67.5C 1.47201,71.5811 -0.694657,69.2477 4.5,60.5C 6.77129,59.6365 9.10462,59.6365 11.5,60.5C 10.7283,46.3343 16.7283,36.6676 29.5,31.5 Z"/><path opacity="0.941" fill="#353945" d="M 119.5,45.5 C 120.675,45.281 121.675,45.6143 122.5,46.5C 121.41,47.6086 121.41,48.6086 122.5,49.5C 129.46,47.091 136.46,46.9243 143.5,49C 147.367,52.6602 148.534,57.1602 147,62.5C 143.845,65.6673 140.012,67.5006 135.5,68C 131.167,68.6667 126.833,68.6667 122.5,68C 121.074,65.2886 121.408,62.7886 123.5,60.5C 126.764,57.0335 130.764,54.8668 135.5,54C 123.285,52.366 116.952,57.866 116.5,70.5C 116.833,72.1667 117.167,73.8333 117.5,75.5C 120.37,76.122 123.204,76.7887 126,77.5C 126.265,79.1626 125.765,80.6626 124.5,82C 112.808,83.002 101.141,84.1687 89.5,85.5C 89.2011,83.396 89.5344,81.396 90.5,79.5C 92.7105,78.8772 94.7105,77.8772 96.5,76.5C 99.7159,70.7357 102.383,64.7357 104.5,58.5C 102.86,56.4172 100.86,56.0838 98.5,57.5C 98.5751,54.7938 98.9084,52.1272 99.5,49.5C 106.723,50.8554 113.39,49.522 119.5,45.5 Z"/><path opacity="0.955" fill="#353945" d="M 73.5,49.5 C 98.1547,45.4941 103.655,53.8275 90,74.5C 81.9176,84.8616 71.4176,88.6949 58.5,86C 47.7829,80.6488 45.6162,72.8154 52,62.5C 57.9276,55.9598 65.0943,51.6265 73.5,49.5 Z M 74.5,62.5 C 78.1879,62.7811 81.8546,63.2811 85.5,64C 87.8073,65.8276 87.474,67.4943 84.5,69C 76.4399,72.7347 68.1065,73.7347 59.5,72C 57.0444,70.0875 57.3778,68.4208 60.5,67C 65.1271,64.9561 69.7938,63.4561 74.5,62.5 Z"/></svg><svg x="563" y="31" width="72" height="72" viewBox="0 0 128 128"><path fill="#3498db" opacity="0.982" d="M 32.5,7.5 C 53.1694,7.33338 73.836,7.50004 94.5,8C 96.3333,9.16667 97.8333,10.6667 99,12.5C 107.081,26.9972 115.414,41.3305 124,55.5C 125.52,59.3749 125.854,63.3749 125,67.5C 116.081,82.3365 107.414,97.3365 99,112.5C 97.8333,114.333 96.3333,115.833 94.5,117C 73.8333,117.667 53.1667,117.667 32.5,117C 30.6667,115.833 29.1667,114.333 28,112.5C 19.586,97.3365 10.9193,82.3365 2,67.5C 1.14625,63.3749 1.47958,59.3749 3,55.5C 11.5858,41.3305 19.9191,26.9972 28,12.5C 29.3657,10.6383 30.8657,8.97167 32.5,7.5 Z M 37.5,34.5 C 41.1064,34.2108 44.6064,34.5442 48,35.5C 52.8504,44.5368 57.6838,53.5368 62.5,62.5C 57.6439,71.7097 52.6439,80.8764 47.5,90C 44.1177,90.8236 40.7844,90.657 37.5,89.5C 42.7536,80.6611 47.7536,71.6611 52.5,62.5C 47.4429,53.1328 42.4429,43.7995 37.5,34.5 Z M 79.5,34.5 C 82.8984,34.1796 86.2317,34.513 89.5,35.5C 84.2464,44.3389 79.2464,53.3389 74.5,62.5C 79.2464,71.6611 84.2464,80.6611 89.5,89.5C 85.9553,90.7914 82.4553,90.7914 79,89.5C 74.1496,80.4632 69.3162,71.4632 64.5,62.5C 69.4954,53.1765 74.4954,43.8432 79.5,34.5 Z"/></svg></svg>