<svg width="48" height="48" viewBox="0 0 48 48" fill-rule="evenodd" clip-rule="evenodd" xmlns="http://www.w3.org/2000/svg"><defs><linearGradient id="backgroundgrad" x1="0%" y1="0%" x2="100%" y2="0%"><stop offset="0%" stop-color="#0072B5" /><stop offset="100%" stop-color="#ccecff" /></linearGradient><linearGradient id="bordergrad" x1="0%" y1="0%" x2="100%" y2="0%"><stop offset="0%" stop-color="#ccecff" /><stop offset="100%" stop-color="#0072B5" /></linearGradient></defs><rect x="1" y="1" rx="8" ry="8" width="46" height="46" fill="url(#backgroundgrad)" stroke="url(#bordergrad)" stroke-width="2" /><svg x="5" y="5" width="38" height="38" viewBox="0 0 100 100"><svg x="-15" y="-15" width="130" height="130" viewBox="0 0 100 100"><path fill="#eba272" d="M82,29H63l-2.68-6.031C59.517,21.164,57.727,20,55.751,20H44.249c-1.976,0-3.767,1.164-4.569,2.969L37,29H18c-2.761,0-5,2.239-5,5v41c0,2.761,2.239,5,5,5h64c2.761,0,5-2.239,5-5V34C87,31.239,84.761,29,82,29z"/><path fill="#ceccbe" d="M87,42v-8c0-2.761-2.239-5-5-5H63l-2.68-6.031C59.517,21.164,57.727,20,55.751,20H44.249c-1.976,0-3.767,1.164-4.569,2.969L37,29H18c-2.761,0-5,2.239-5,5v8H87z"/><path fill="#ceccbe" d="M13,70v5c0,2.761,2.239,5,5,5h64c2.761,0,5-2.239,5-5v-5H13z"/><circle cx="50" cy="56" r="16" fill="#b2bdce"/><circle cx="50" cy="56" r="10.5" fill="#565fa1"/><rect width="11" height="6" x="20" y="23" fill="#b2bdce"/><rect width="9" height="4" x="68.5" y="33.5" fill="#d4dff2"/><circle cx="54" cy="53" r="2.5" fill="#fff"/><path fill="#1f212b" d="M50,73c-9.374,0-17-7.626-17-17s7.626-17,17-17s17,7.626,17,17S59.374,73,50,73z M50,41c-8.271,0-15,6.729-15,15s6.729,15,15,15s15-6.729,15-15S58.271,41,50,41z"/><path fill="#1f212b" d="M50,67c-6.065,0-11-4.935-11-11s4.935-11,11-11s11,4.935,11,11S56.065,67,50,67z M50,46c-5.514,0-10,4.486-10,10s4.486,10,10,10s10-4.486,10-10S55.514,46,50,46z"/><path fill="#1f212b" d="M42.5,71h-29c-0.276,0-0.5-0.224-0.5-0.5s0.224-0.5,0.5-0.5h29c0.276,0,0.5,0.224,0.5,0.5S42.776,71,42.5,71z"/><path fill="#1f212b" d="M82.5,71h-25c-0.276,0-0.5-0.224-0.5-0.5s0.224-0.5,0.5-0.5h25c0.276,0,0.5,0.224,0.5,0.5S82.776,71,82.5,71z"/><path fill="#1f212b" d="M42.5,42h-29c-0.276,0-0.5-0.224-0.5-0.5s0.224-0.5,0.5-0.5h29c0.276,0,0.5,0.224,0.5,0.5S42.776,42,42.5,42z"/><path fill="#1f212b" d="M69.5,42h-12c-0.276,0-0.5-0.224-0.5-0.5s0.224-0.5,0.5-0.5h12c0.276,0,0.5,0.224,0.5,0.5S69.776,42,69.5,42z"/><path fill="#1f212b" d="M82.5,42h-7c-0.276,0-0.5-0.224-0.5-0.5s0.224-0.5,0.5-0.5h7c0.276,0,0.5,0.224,0.5,0.5S82.776,42,82.5,42z"/><path fill="#1f212b" d="M31,30H20c-0.553,0-1-0.448-1-1v-6c0-0.552,0.447-1,1-1h11c0.553,0,1,0.448,1,1v6C32,29.552,31.553,30,31,30z M21,28h9v-4h-9V28z"/><path fill="#1f212b" d="M82,81H18c-3.309,0-6-2.691-6-6V34c0-3.309,2.691-6,6-6h18.351l2.416-5.437C39.728,20.399,41.88,19,44.249,19h11.502c2.369,0,4.521,1.399,5.482,3.563L63.649,28H82c3.309,0,6,2.691,6,6v41C88,78.309,85.309,81,82,81z M18,30c-2.206,0-4,1.794-4,4v41c0,2.206,1.794,4,4,4h64c2.206,0,4-1.794,4-4V34c0-2.206-1.794-4-4-4H63c-0.396,0-0.753-0.233-0.914-0.594l-2.681-6.031C58.765,21.932,57.33,21,55.751,21H44.249c-1.579,0-3.014,0.932-3.654,2.375l-2.681,6.031C37.753,29.767,37.396,30,37,30H18z"/><path fill="#1f212b" d="M51.5,30h-15c-0.276,0-0.5-0.224-0.5-0.5s0.224-0.5,0.5-0.5h15c0.276,0,0.5,0.224,0.5,0.5S51.776,30,51.5,30z"/><path fill="#1f212b" d="M57.5,30h-3c-0.276,0-0.5-0.224-0.5-0.5s0.224-0.5,0.5-0.5h3c0.276,0,0.5,0.224,0.5,0.5S57.776,30,57.5,30z"/><path fill="#1f212b" d="M77.5,38h-9c-0.276,0-0.5-0.224-0.5-0.5v-4c0-0.276,0.224-0.5,0.5-0.5h9c0.276,0,0.5,0.224,0.5,0.5v4C78,37.776,77.776,38,77.5,38z M69,37h8v-3h-8V37z"/><rect width="1" height="5" x="22" y="23.5" fill="#1f212b"/><rect width="1" height="5" x="24" y="23.5" fill="#1f212b"/><rect width="1" height="5" x="26" y="23.5" fill="#1f212b"/><rect width="1" height="5" x="28" y="23.5" fill="#1f212b"/><path fill="#1f212b" d="M54,56c-1.654,0-3-1.346-3-3s1.346-3,3-3s3,1.346,3,3S55.654,56,54,56z M54,51c-1.103,0-2,0.897-2,2s0.897,2,2,2s2-0.897,2-2S55.103,51,54,51z"/></svg></svg></svg>