<svg width="298" height="48" viewBox="0 0 298 48" fill-rule="evenodd" clip-rule="evenodd" xmlns="http://www.w3.org/2000/svg"><defs><linearGradient id="backgroundgrad" x1="0%" y1="0%" x2="100%" y2="0%"><stop offset="0%" stop-color="#0072B5" /><stop offset="50%" stop-color="#ccecff" /><stop offset="100%" stop-color="#ccecff" /></linearGradient><linearGradient id="bordergrad" x1="0%" y1="0%" x2="100%" y2="0%"><stop offset="0%" stop-color="#ccecff" /><stop offset="50%" stop-color="#0072B5" /><stop offset="100%" stop-color="#0072B5" /></linearGradient></defs><rect x="1" y="1" rx="8" ry="8" width="296" height="46" fill="url(#backgroundgrad)" stroke="url(#bordergrad)" stroke-width="2" /><svg x="5" y="5" width="38" height="38" viewBox="0 0 100 100"><svg x="-15" y="-15" width="130" height="130" viewBox="0 0 100 100"><path fill="#eba272" d="M82,29H63l-2.68-6.031C59.517,21.164,57.727,20,55.751,20H44.249c-1.976,0-3.767,1.164-4.569,2.969L37,29H18c-2.761,0-5,2.239-5,5v41c0,2.761,2.239,5,5,5h64c2.761,0,5-2.239,5-5V34C87,31.239,84.761,29,82,29z"/><path fill="#ceccbe" d="M87,42v-8c0-2.761-2.239-5-5-5H63l-2.68-6.031C59.517,21.164,57.727,20,55.751,20H44.249c-1.976,0-3.767,1.164-4.569,2.969L37,29H18c-2.761,0-5,2.239-5,5v8H87z"/><path fill="#ceccbe" d="M13,70v5c0,2.761,2.239,5,5,5h64c2.761,0,5-2.239,5-5v-5H13z"/><circle cx="50" cy="56" r="16" fill="#b2bdce"/><circle cx="50" cy="56" r="10.5" fill="#565fa1"/><rect width="11" height="6" x="20" y="23" fill="#b2bdce"/><rect width="9" height="4" x="68.5" y="33.5" fill="#d4dff2"/><circle cx="54" cy="53" r="2.5" fill="#fff"/><path fill="#1f212b" d="M50,73c-9.374,0-17-7.626-17-17s7.626-17,17-17s17,7.626,17,17S59.374,73,50,73z M50,41c-8.271,0-15,6.729-15,15s6.729,15,15,15s15-6.729,15-15S58.271,41,50,41z"/><path fill="#1f212b" d="M50,67c-6.065,0-11-4.935-11-11s4.935-11,11-11s11,4.935,11,11S56.065,67,50,67z M50,46c-5.514,0-10,4.486-10,10s4.486,10,10,10s10-4.486,10-10S55.514,46,50,46z"/><path fill="#1f212b" d="M42.5,71h-29c-0.276,0-0.5-0.224-0.5-0.5s0.224-0.5,0.5-0.5h29c0.276,0,0.5,0.224,0.5,0.5S42.776,71,42.5,71z"/><path fill="#1f212b" d="M82.5,71h-25c-0.276,0-0.5-0.224-0.5-0.5s0.224-0.5,0.5-0.5h25c0.276,0,0.5,0.224,0.5,0.5S82.776,71,82.5,71z"/><path fill="#1f212b" d="M42.5,42h-29c-0.276,0-0.5-0.224-0.5-0.5s0.224-0.5,0.5-0.5h29c0.276,0,0.5,0.224,0.5,0.5S42.776,42,42.5,42z"/><path fill="#1f212b" d="M69.5,42h-12c-0.276,0-0.5-0.224-0.5-0.5s0.224-0.5,0.5-0.5h12c0.276,0,0.5,0.224,0.5,0.5S69.776,42,69.5,42z"/><path fill="#1f212b" d="M82.5,42h-7c-0.276,0-0.5-0.224-0.5-0.5s0.224-0.5,0.5-0.5h7c0.276,0,0.5,0.224,0.5,0.5S82.776,42,82.5,42z"/><path fill="#1f212b" d="M31,30H20c-0.553,0-1-0.448-1-1v-6c0-0.552,0.447-1,1-1h11c0.553,0,1,0.448,1,1v6C32,29.552,31.553,30,31,30z M21,28h9v-4h-9V28z"/><path fill="#1f212b" d="M82,81H18c-3.309,0-6-2.691-6-6V34c0-3.309,2.691-6,6-6h18.351l2.416-5.437C39.728,20.399,41.88,19,44.249,19h11.502c2.369,0,4.521,1.399,5.482,3.563L63.649,28H82c3.309,0,6,2.691,6,6v41C88,78.309,85.309,81,82,81z M18,30c-2.206,0-4,1.794-4,4v41c0,2.206,1.794,4,4,4h64c2.206,0,4-1.794,4-4V34c0-2.206-1.794-4-4-4H63c-0.396,0-0.753-0.233-0.914-0.594l-2.681-6.031C58.765,21.932,57.33,21,55.751,21H44.249c-1.579,0-3.014,0.932-3.654,2.375l-2.681,6.031C37.753,29.767,37.396,30,37,30H18z"/><path fill="#1f212b" d="M51.5,30h-15c-0.276,0-0.5-0.224-0.5-0.5s0.224-0.5,0.5-0.5h15c0.276,0,0.5,0.224,0.5,0.5S51.776,30,51.5,30z"/><path fill="#1f212b" d="M57.5,30h-3c-0.276,0-0.5-0.224-0.5-0.5s0.224-0.5,0.5-0.5h3c0.276,0,0.5,0.224,0.5,0.5S57.776,30,57.5,30z"/><path fill="#1f212b" d="M77.5,38h-9c-0.276,0-0.5-0.224-0.5-0.5v-4c0-0.276,0.224-0.5,0.5-0.5h9c0.276,0,0.5,0.224,0.5,0.5v4C78,37.776,77.776,38,77.5,38z M69,37h8v-3h-8V37z"/><rect width="1" height="5" x="22" y="23.5" fill="#1f212b"/><rect width="1" height="5" x="24" y="23.5" fill="#1f212b"/><rect width="1" height="5" x="26" y="23.5" fill="#1f212b"/><rect width="1" height="5" x="28" y="23.5" fill="#1f212b"/><path fill="#1f212b" d="M54,56c-1.654,0-3-1.346-3-3s1.346-3,3-3s3,1.346,3,3S55.654,56,54,56z M54,51c-1.103,0-2,0.897-2,2s0.897,2,2,2s2-0.897,2-2S55.103,51,54,51z"/></svg></svg><svg x="50" y="11" width="242" height="32" viewBox="0 0 828 110"><path opacity="0.961" fill="#363944" d="M 20.5,7.5 C 27.175,7.33375 33.8417,7.50042 40.5,8C 46.3548,9.19419 50.3548,12.5275 52.5,18C 49.7801,22.3653 45.7801,24.6986 40.5,25C 34.5,25.6667 28.5,25.6667 22.5,25C 15.0735,22.646 12.5735,17.8127 15,10.5C 16.8761,9.39127 18.7095,8.39127 20.5,7.5 Z"/><path opacity="0.964" fill="#353844" d="M 584.5,7.5 C 593.016,6.88505 601.349,7.71838 609.5,10C 614.121,12.0768 615.955,15.5768 615,20.5C 611.488,22.7825 607.655,24.2825 603.5,25C 597.5,25.6667 591.5,25.6667 585.5,25C 578.951,22.7338 576.451,18.2338 578,11.5C 580.013,9.7518 582.18,8.41847 584.5,7.5 Z"/><path opacity="0.962" fill="#353844" d="M 235.5,9.5 C 238.572,9.18259 241.572,9.51592 244.5,10.5C 241.356,16.6209 238.356,22.7876 235.5,29C 240.161,29.1694 244.828,29.0027 249.5,28.5C 249.238,25.4989 248.404,22.8322 247,20.5C 250.788,17.5069 254.955,16.5069 259.5,17.5C 258.969,26.1787 260.636,34.512 264.5,42.5C 257.304,48.8722 252.138,47.5388 249,38.5C 248.25,37.8742 247.416,37.3742 246.5,37C 241.913,36.2009 237.413,36.3676 233,37.5C 229,50.4677 228.667,63.4677 232,76.5C 234.612,79.6661 237.779,80.1661 241.5,78C 244.21,76.9848 246.543,75.4848 248.5,73.5C 242.794,71.8791 237.96,68.8791 234,64.5C 231.034,58.6148 232.534,54.4481 238.5,52C 246.994,50.9343 255.328,51.601 263.5,54C 268.102,55.265 270.435,58.265 270.5,63C 269.652,68.6946 266.985,73.3612 262.5,77C 248.301,84.057 233.301,86.3903 217.5,84C 208.087,81.0341 203.754,74.5341 204.5,64.5C 204.88,54.8115 207.214,45.6449 211.5,37C 206.162,36.6849 200.828,36.8516 195.5,37.5C 195.207,33.5633 195.54,29.73 196.5,26C 201.434,26.6427 206.434,27.1427 211.5,27.5C 211.351,22.4246 210.685,17.4246 209.5,12.5C 218.342,11.8231 227.008,10.8231 235.5,9.5 Z"/><path opacity="0.962" fill="#353844" d="M 530.5,9.5 C 533.572,9.18259 536.572,9.51592 539.5,10.5C 536.356,16.6209 533.356,22.7876 530.5,29C 535.161,29.1694 539.828,29.0027 544.5,28.5C 544.238,25.4989 543.404,22.8322 542,20.5C 545.788,17.5069 549.955,16.5069 554.5,17.5C 553.969,26.1787 555.636,34.512 559.5,42.5C 552.304,48.8722 547.138,47.5388 544,38.5C 543.25,37.8742 542.416,37.3742 541.5,37C 536.913,36.2009 532.413,36.3676 528,37.5C 524,50.4677 523.667,63.4677 527,76.5C 529.612,79.6661 532.779,80.1661 536.5,78C 539.21,76.9848 541.543,75.4848 543.5,73.5C 537.794,71.8791 532.96,68.8791 529,64.5C 526.034,58.6148 527.534,54.4481 533.5,52C 541.994,50.9343 550.328,51.601 558.5,54C 563.102,55.265 565.435,58.265 565.5,63C 564.652,68.6946 561.985,73.3612 557.5,77C 543.301,84.057 528.301,86.3903 512.5,84C 503.087,81.0341 498.754,74.5341 499.5,64.5C 499.88,54.8115 502.214,45.6449 506.5,37C 501.162,36.6849 495.828,36.8516 490.5,37.5C 490.207,33.5633 490.54,29.73 491.5,26C 496.434,26.6427 501.434,27.1427 506.5,27.5C 506.351,22.4246 505.685,17.4246 504.5,12.5C 513.342,11.8231 522.008,10.8231 530.5,9.5 Z"/><path opacity="0.959" fill="#353844" d="M 422.5,69.5 C 422.5,72.1667 422.5,74.8333 422.5,77.5C 418.473,78.1389 414.473,78.9722 410.5,80C 403.17,82.9415 395.837,85.7748 388.5,88.5C 389.209,84.4732 389.709,80.4732 390,76.5C 381.17,85.1092 370.67,88.2758 358.5,86C 352.066,83.7415 349.066,79.2415 349.5,72.5C 349.915,64.756 352.415,57.756 357,51.5C 360.5,48 364,44.5 367.5,41C 360.823,41.4746 354.156,41.3079 347.5,40.5C 349.076,38.0207 350.076,35.354 350.5,32.5C 363.835,32.8889 377.168,33.3889 390.5,34C 381.32,44.5109 376.82,56.6776 377,70.5C 379.475,74.4054 382.142,74.4054 385,70.5C 392.75,56.4993 396.584,41.4993 396.5,25.5C 405.93,26.7525 415.263,28.5859 424.5,31C 425.423,33.0408 425.756,35.2075 425.5,37.5C 422.751,37.7261 420.084,37.3928 417.5,36.5C 416.252,37.0402 415.085,37.7069 414,38.5C 412.283,48.44 411.116,58.44 410.5,68.5C 414.6,68.2367 418.6,68.5701 422.5,69.5 Z"/><path opacity="0.962" fill="#353844" d="M 104.5,26.5 C 112.703,24.8614 117.536,28.1947 119,36.5C 119.878,40.7891 120.378,45.1224 120.5,49.5C 118.791,61.8306 118.457,74.1639 119.5,86.5C 122.392,86.7211 125.059,87.5544 127.5,89C 126.801,91.9086 124.967,93.4086 122,93.5C 112.654,92.1641 103.487,90.3308 94.5,88C 98.1379,80.9817 99.8046,73.4817 99.5,65.5C 99.3333,62.5 99.1667,59.5 99,56.5C 98.5917,54.5904 97.4251,53.5904 95.5,53.5C 86.9993,57.8276 83.1659,64.8276 84,74.5C 84.8659,78.2643 86.0326,81.931 87.5,85.5C 86.8333,85.8333 86.1667,86.1667 85.5,86.5C 75.2912,82.7981 64.9578,82.1315 54.5,84.5C 54.5,80.8333 54.5,77.1667 54.5,73.5C 57.5,73.5 60.5,73.5 63.5,73.5C 61.1564,61.9294 59.323,50.2628 58,38.5C 55.3788,37.0085 52.5455,36.3418 49.5,36.5C 49.0074,34.1944 48.6741,31.861 48.5,29.5C 61.1739,30.1544 73.8406,30.9877 86.5,32C 86.9574,32.414 87.2907,32.914 87.5,33.5C 84.4552,38.4593 82.9552,43.7927 83,49.5C 87.9734,39.6962 95.14,32.0295 104.5,26.5 Z"/><path opacity="0.961" fill="#353844" d="M 299.5,26.5 C 300.5,26.5 301.5,26.5 302.5,26.5C 301.637,28.8954 301.637,31.2287 302.5,33.5C 305.287,31.7725 308.287,30.6058 311.5,30C 318.914,29.1097 326.247,29.443 333.5,31C 341.752,34.1524 346.418,40.1524 347.5,49C 347.205,51.9234 345.871,54.2568 343.5,56C 333.228,60.7791 322.728,61.6125 312,58.5C 310.057,52.1512 311.89,46.9845 317.5,43C 320.618,41.107 323.951,39.7736 327.5,39C 319.35,35.4971 312.183,36.9971 306,43.5C 304.128,46.2054 303.295,49.2054 303.5,52.5C 304.156,59.2909 305.823,65.7909 308.5,72C 314.168,73.4267 319.835,74.7601 325.5,76C 324.76,77.7849 324.093,79.6183 323.5,81.5C 306.743,82.9096 290.076,84.7429 273.5,87C 271.963,84.6872 271.463,82.1872 272,79.5C 274.791,78.4381 277.457,77.1048 280,75.5C 282.019,65.5236 282.519,55.5236 281.5,45.5C 280.264,44.6433 278.931,43.9766 277.5,43.5C 275.802,44.6808 274.135,44.6808 272.5,43.5C 271.583,40.2423 271.249,36.909 271.5,33.5C 281.979,35.4738 291.312,33.1405 299.5,26.5 Z"/><path opacity="0.962" fill="#353844" d="M 735.5,26.5 C 743.703,24.8614 748.536,28.1947 750,36.5C 750.878,40.7891 751.378,45.1224 751.5,49.5C 749.791,61.8306 749.457,74.1639 750.5,86.5C 753.392,86.7211 756.059,87.5544 758.5,89C 757.801,91.9086 755.967,93.4086 753,93.5C 743.654,92.1641 734.487,90.3308 725.5,88C 729.138,80.9817 730.805,73.4817 730.5,65.5C 730.333,62.5 730.167,59.5 730,56.5C 729.592,54.5904 728.425,53.5904 726.5,53.5C 717.999,57.8276 714.166,64.8276 715,74.5C 715.866,78.2643 717.033,81.931 718.5,85.5C 717.833,85.8333 717.167,86.1667 716.5,86.5C 706.291,82.7981 695.958,82.1315 685.5,84.5C 685.5,80.8333 685.5,77.1667 685.5,73.5C 688.5,73.5 691.5,73.5 694.5,73.5C 692.156,61.9294 690.323,50.2628 689,38.5C 686.379,37.0085 683.545,36.3418 680.5,36.5C 680.007,34.1944 679.674,31.861 679.5,29.5C 692.174,30.1544 704.841,30.9877 717.5,32C 717.957,32.414 718.291,32.914 718.5,33.5C 715.455,38.4593 713.955,43.7927 714,49.5C 718.973,39.6962 726.14,32.0295 735.5,26.5 Z"/><path opacity="0.962" fill="#353944" d="M 39.5,29.5 C 40.8333,29.5 42.1667,29.5 43.5,29.5C 42.9956,36.8622 42.1623,44.1955 41,51.5C 40.1227,58.2494 40.456,64.9161 42,71.5C 43,72.1667 44,72.8333 45,73.5C 47.1385,72.2309 49.3052,72.2309 51.5,73.5C 52.4259,77.0938 52.7592,80.7604 52.5,84.5C 45.4871,84.0321 38.4871,83.3654 31.5,82.5C 21.493,83.5011 11.493,84.5011 1.5,85.5C 1.83802,83.146 2.33802,80.8127 3,78.5C 6.32049,77.8316 9.48715,76.6649 12.5,75C 16.0181,67.4186 18.0181,59.4186 18.5,51C 17.7912,44.4237 14.2912,41.5904 8,42.5C 7.02304,40.26 6.52304,37.9267 6.5,35.5C 17.9173,35.099 28.9173,33.099 39.5,29.5 Z"/><path opacity="0.959" fill="#353844" d="M 148.5,29.5 C 157.173,29.3336 165.84,29.5002 174.5,30C 184.141,30.9602 188.641,36.1268 188,45.5C 186.829,46.8932 185.329,47.7265 183.5,48C 175.089,48.9054 166.755,48.5721 158.5,47C 155.242,42.2326 156.242,38.5659 161.5,36C 164.272,35.4743 166.938,34.6409 169.5,33.5C 164.48,31.1596 159.48,31.3262 154.5,34C 148.89,41.5591 150.224,47.8924 158.5,53C 160.355,53.4221 162.189,53.9221 164,54.5C 171.129,53.3856 178.296,53.2189 185.5,54C 188.196,54.6898 190.363,56.1898 192,58.5C 195.369,67.3333 193.535,74.8333 186.5,81C 175.926,86.8192 164.593,89.3192 152.5,88.5C 144.027,89.3704 136.027,87.8704 128.5,84C 120.21,74.3177 122.21,67.9844 134.5,65C 141.167,64.3333 147.833,64.3333 154.5,65C 159.631,66.1619 161.465,69.3285 160,74.5C 155.436,78.9164 149.936,81.4164 143.5,82C 149.875,83.5706 156.208,83.2372 162.5,81C 168.392,77.9903 169.892,73.4903 167,67.5C 164.529,62.5941 160.529,59.9274 155,59.5C 148.538,60.6086 142.038,60.7752 135.5,60C 129.205,57.5748 127.038,53.0748 129,46.5C 132.26,37.0703 138.76,31.4036 148.5,29.5 Z"/><path opacity="0.962" fill="#353844" d="M 422.5,69.5 C 420.563,59.7625 421.73,50.4292 426,41.5C 431.697,34.4005 439.197,30.5671 448.5,30C 458.985,28.8666 469.318,29.5333 479.5,32C 490.883,35.7009 494.716,43.2009 491,54.5C 489.786,56.0488 488.286,57.2155 486.5,58C 479.916,59.544 473.249,59.8773 466.5,59C 454.06,55.7737 452.394,49.7737 461.5,41C 465.661,39.2625 469.995,38.2625 474.5,38C 467.227,33.5187 459.893,33.5187 452.5,38C 447.961,41.9432 445.961,46.9432 446.5,53C 446.441,60.3856 448.274,67.219 452,73.5C 456.503,76.997 461.336,77.497 466.5,75C 472.978,72.925 478.978,70.0917 484.5,66.5C 482.498,78.0021 475.831,85.1688 464.5,88C 455.77,88.8758 447.104,88.5425 438.5,87C 429.818,84.0786 424.485,78.2453 422.5,69.5 Z"/><path opacity="0.963" fill="#353844" d="M 602.5,29.5 C 604.167,29.5 605.833,29.5 607.5,29.5C 605.84,40.2879 604.507,51.1212 603.5,62C 603.486,66.5299 604.986,70.3633 608,73.5C 610.381,72.565 612.881,72.2317 615.5,72.5C 615.5,76.5 615.5,80.5 615.5,84.5C 608.827,83.966 602.16,83.2993 595.5,82.5C 585.157,83.612 574.823,84.4454 564.5,85C 565.198,82.5463 566.198,80.2129 567.5,78C 575.423,77.0744 579.59,72.5744 580,64.5C 581.33,58.5482 581.663,52.5482 581,46.5C 578.814,42.4937 575.647,41.4937 571.5,43.5C 570.833,40.8333 570.167,38.1667 569.5,35.5C 580.958,35.3145 591.958,33.3145 602.5,29.5 Z"/><path opacity="0.959" fill="#353844" d="M 779.5,29.5 C 788.173,29.3336 796.84,29.5002 805.5,30C 815.141,30.9602 819.641,36.1268 819,45.5C 817.829,46.8932 816.329,47.7265 814.5,48C 806.089,48.9054 797.755,48.5721 789.5,47C 786.242,42.2326 787.242,38.5659 792.5,36C 795.272,35.4743 797.938,34.6409 800.5,33.5C 795.48,31.1596 790.48,31.3262 785.5,34C 779.89,41.5591 781.224,47.8924 789.5,53C 791.355,53.4221 793.189,53.9221 795,54.5C 802.129,53.3856 809.296,53.2189 816.5,54C 819.196,54.6898 821.363,56.1898 823,58.5C 826.369,67.3333 824.535,74.8333 817.5,81C 806.926,86.8192 795.593,89.3192 783.5,88.5C 775.027,89.3704 767.027,87.8704 759.5,84C 751.21,74.3177 753.21,67.9844 765.5,65C 772.167,64.3333 778.833,64.3333 785.5,65C 790.631,66.1619 792.465,69.3285 791,74.5C 786.436,78.9164 780.936,81.4164 774.5,82C 780.875,83.5706 787.208,83.2372 793.5,81C 799.392,77.9903 800.892,73.4903 798,67.5C 795.529,62.5941 791.529,59.9274 786,59.5C 779.538,60.6086 773.038,60.7752 766.5,60C 760.205,57.5748 758.038,53.0748 760,46.5C 763.26,37.0703 769.76,31.4036 779.5,29.5 Z"/><path opacity="0.967" fill="#353844" d="M 644.5,30.5 C 677.436,24.9314 688.603,37.9314 678,69.5C 669.398,87.1364 655.564,92.9697 636.5,87C 616.61,78.7384 611.11,64.9051 620,45.5C 626.466,37.5263 634.632,32.5263 644.5,30.5 Z M 650.5,49.5 C 657.813,49.3741 664.646,51.0408 671,54.5C 671.667,55.8333 671.667,57.1667 671,58.5C 659.425,68.537 646.259,71.3703 631.5,67C 629.545,66.0467 627.878,64.7134 626.5,63C 628.126,60.3723 630.126,58.039 632.5,56C 638.305,52.914 644.305,50.7473 650.5,49.5 Z"/></svg></svg>