<svg viewBox="0 0 100 100" fill-rule="evenodd" clip-rule="evenodd" xmlns="http://www.w3.org/2000/svg">
  <path fill="#242630" opacity="0.988" d="M 40.5,18.5 C 46.5092,18.3338 52.5092,18.5005 58.5,19C 60.7733,21.0324 62.44,23.5324 63.5,26.5C 70.8108,27.3313 78.1441,27.8313 85.5,28C 86,28.5 86.5,29 87,29.5C 87.6667,45.8333 87.6667,62.1667 87,78.5C 86.5,79 86,79.5 85.5,80C 61.5,80.6667 37.5,80.6667 13.5,80C 13,79.5 12.5,79 12,78.5C 11.3333,62.1667 11.3333,45.8333 12,29.5C 13.7889,27.771 15.9556,27.1043 18.5,27.5C 18.5,25.5 18.5,23.5 18.5,21.5C 22.8333,21.5 27.1667,21.5 31.5,21.5C 31.5,23.5 31.5,25.5 31.5,27.5C 32.9778,27.762 34.3112,27.4287 35.5,26.5C 36.6913,23.432 38.358,20.7654 40.5,18.5 Z"/>
  <path fill="#cac8ba" d="M 85.5,41.5 C 80.1667,41.5 74.8333,41.5 69.5,41.5C 62.758,40.7801 55.9247,39.7801 49,38.5C 37.2896,40.3476 25.4563,41.0142 13.5,40.5C 13.3354,37.4816 13.502,34.4816 14,31.5C 14.5,31 15,30.5 15.5,30C 27.5,29.6667 39.5,29.3333 51.5,29C 46.8333,28.6667 42.1667,28.3333 37.5,28C 38.6498,25.5378 39.9831,23.2045 41.5,21C 46.8333,20.3333 52.1667,20.3333 57.5,21C 59.1101,23.3114 60.4435,25.8114 61.5,28.5C 68.8108,29.3313 76.1441,29.8313 83.5,30C 84,30.5 84.5,31 85,31.5C 85.4983,34.8168 85.665,38.1501 85.5,41.5 Z"/>
  <path fill="#20222c" d="M 67.5,32.5 C 70.8333,32.5 74.1667,32.5 77.5,32.5C 77.5,34.1667 77.5,35.8333 77.5,37.5C 74.1667,37.5 70.8333,37.5 67.5,37.5C 67.5,35.8333 67.5,34.1667 67.5,32.5 Z"/>
  <path fill="#d3dff1" d="M 68.5,33.5 C 71.1667,33.5 73.8333,33.5 76.5,33.5C 76.5,34.5 76.5,35.5 76.5,36.5C 73.8333,36.5 71.1667,36.5 68.5,36.5C 68.5,35.5 68.5,34.5 68.5,33.5 Z"/>
  <path fill="#e9a071" d="M 13.5,41.5 C 22.1731,41.3336 30.8397,41.5002 39.5,42C 30.3227,50.9487 30.3227,59.9487 39.5,69C 30.8397,69.4998 22.1731,69.6664 13.5,69.5C 13.5,60.1667 13.5,50.8333 13.5,41.5 Z"/>
  <path fill="#aab5c6" d="M 45.5,40.5 C 58.5134,39.6815 64.6801,45.6815 64,58.5C 60.2642,68.784 53.0976,72.284 42.5,69C 33.2568,61.6332 32.2568,53.2998 39.5,44C 41.4319,42.5415 43.4319,41.3748 45.5,40.5 Z"/>
  <path fill="#e9a171" d="M 69.5,41.5 C 74.8333,41.5 80.1667,41.5 85.5,41.5C 85.5,50.8333 85.5,60.1667 85.5,69.5C 84.5,69.5 83.5,69.5 82.5,69.5C 74.8261,69.6664 67.1594,69.4997 59.5,69C 68.7652,59.968 68.7652,50.968 59.5,42C 62.8168,41.5017 66.1501,41.335 69.5,41.5 Z"/>
  <path fill="#3a3d50" d="M 52.5,45.5 C 43.8333,45.5 39.5,49.8333 39.5,58.5C 37.4451,52.4257 39.4451,47.9257 45.5,45C 48.0385,44.2042 50.3718,44.3709 52.5,45.5 Z"/>
  <path fill="#545d9c" d="M 52.5,45.5 C 57.6983,48.2267 60.0316,52.56 59.5,58.5C 57.5,61.1667 55.1667,63.5 52.5,65.5C 50.5,66.8333 48.5,66.8333 46.5,65.5C 43.8333,63.5 41.5,61.1667 39.5,58.5C 39.5,49.8333 43.8333,45.5 52.5,45.5 Z"/>
  <path fill="#3b4053" d="M 52.5,45.5 C 59.3359,47.5086 61.6692,51.8419 59.5,58.5C 60.0316,52.56 57.6983,48.2267 52.5,45.5 Z"/>
  <path fill="#393b50" d="M 51.5,49.5 C 56.1585,49.0146 57.4919,50.848 55.5,55C 50.7282,55.8104 49.3948,53.9771 51.5,49.5 Z"/>
  <path fill="#f0f0f1" d="M 52.5,50.5 C 55.8606,51.2032 56.1939,52.5365 53.5,54.5C 51.3576,53.5629 51.0243,52.2296 52.5,50.5 Z"/>
  <path fill="#3c4055" d="M 39.5,58.5 C 41.5,61.1667 43.8333,63.5 46.5,65.5C 42.5,64.8333 40.1667,62.5 39.5,58.5 Z"/>
  <path fill="#3b4053" d="M 59.5,58.5 C 58.8333,62.5 56.5,64.8333 52.5,65.5C 55.1667,63.5 57.5,61.1667 59.5,58.5 Z"/>
  <path fill="#cdcbbd" d="M 82.5,69.5 C 83.5,69.5 84.5,69.5 85.5,69.5C 85.9804,72.6852 85.3137,75.5185 83.5,78C 60.8333,78.6667 38.1667,78.6667 15.5,78C 13.7215,75.8646 13.0548,73.3646 13.5,70.5C 25.4563,69.9858 37.2896,70.6524 49,72.5C 60.2512,71.0288 71.4179,70.0288 82.5,69.5 Z"/>
</svg>