<svg viewBox="0 0 460 522" fill-rule="evenodd" clip-rule="evenodd" xmlns="http://www.w3.org/2000/svg">
  <path fill="#d2d3ed" d="M 386.5,61.5 C 388.732,56.2642 392.399,52.2642 397.5,49.5C 398.386,48.675 398.719,47.675 398.5,46.5C 399.5,46.5 400.5,46.5 401.5,46.5C 401.343,45.1266 401.51,43.7932 402,42.5C 403.385,41.4495 404.385,40.1161 405,38.5C 406.506,36.8258 408.339,35.8258 410.5,35.5C 413.44,29.6464 416.94,23.9797 421,18.5C 421.483,17.552 421.649,16.552 421.5,15.5C 413.723,17.3884 406.723,20.8884 400.5,26C 398.564,26.813 396.564,27.313 394.5,27.5C 400.047,23.3047 406.047,19.8047 412.5,17C 413.167,16 413.833,15 414.5,14C 420.071,11.0542 425.071,7.38753 429.5,3C 430.483,2.40921 431.15,2.74254 431.5,4C 420.896,24.6055 407.23,42.9388 390.5,59C 389.264,60.0848 387.931,60.9181 386.5,61.5 Z"/>
  <path fill="#cecff7" d="M 386.5,61.5 C 378.249,70.9009 368.583,78.7342 357.5,85C 355.393,86.2635 354.393,88.0968 354.5,90.5C 350.929,85.0334 347.596,79.3668 344.5,73.5C 343.153,70.8068 341.82,68.1401 340.5,65.5C 340.5,64.1667 340.5,62.8333 340.5,61.5C 335.05,59.3441 335.217,57.3441 341,55.5C 341.333,55.8333 341.667,56.1667 342,56.5C 347.511,53.7415 353.011,50.9082 358.5,48C 361.882,47.8236 365.215,47.3236 368.5,46.5C 372.34,44.423 376.007,41.923 379.5,39C 383.189,37.4869 386.855,35.9869 390.5,34.5C 390.5,33.5 390.5,32.5 390.5,31.5C 392.041,30.3332 393.375,28.9999 394.5,27.5C 396.564,27.313 398.564,26.813 400.5,26C 406.723,20.8884 413.723,17.3884 421.5,15.5C 421.649,16.552 421.483,17.552 421,18.5C 416.94,23.9797 413.44,29.6464 410.5,35.5C 408.339,35.8258 406.506,36.8258 405,38.5C 404.385,40.1161 403.385,41.4495 402,42.5C 401.51,43.7932 401.343,45.1266 401.5,46.5C 400.5,46.5 399.5,46.5 398.5,46.5C 398.719,47.675 398.386,48.675 397.5,49.5C 392.399,52.2642 388.732,56.2642 386.5,61.5 Z"/>
  <path fill="#d2d3e9" d="M 390.5,31.5 C 390.5,32.5 390.5,33.5 390.5,34.5C 386.855,35.9869 383.189,37.4869 379.5,39C 376.007,41.923 372.34,44.423 368.5,46.5C 365.215,47.3236 361.882,47.8236 358.5,48C 353.011,50.9082 347.511,53.7415 342,56.5C 341.667,56.1667 341.333,55.8333 341,55.5C 335.217,57.3441 335.05,59.3441 340.5,61.5C 340.5,62.8333 340.5,64.1667 340.5,65.5C 339.833,65.5 339.5,65.8333 339.5,66.5C 338.833,66.1667 338.167,65.8333 337.5,65.5C 338.091,64.8485 338.757,64.1818 339.5,63.5C 339.167,63.1667 338.833,62.8333 338.5,62.5C 335.562,63.5748 332.562,63.7415 329.5,63C 328.944,62.6174 328.611,62.1174 328.5,61.5C 327.874,57.6246 329.541,55.7913 333.5,56C 332.619,55.2917 331.953,54.4584 331.5,53.5C 333.258,53.8769 334.925,54.5435 336.5,55.5C 343.352,53.8111 349.686,50.9778 355.5,47C 362.304,45.1672 368.638,42.1672 374.5,38C 378.893,37.6707 382.56,36.0041 385.5,33C 387.154,32.3923 388.821,31.8923 390.5,31.5 Z"/>
  <path fill="#f7f7f8" d="M 326.5,55.5 C 326.167,56.1667 325.833,56.8333 325.5,57.5C 324.662,57.8417 324.328,58.5084 324.5,59.5C 320.676,61.5763 316.676,63.4097 312.5,65C 300.717,67.9559 289.051,71.2892 277.5,75C 271.958,76.9258 268.625,75.0924 267.5,69.5C 270.059,69.8016 272.393,69.4682 274.5,68.5C 278.021,67.6931 281.688,67.0264 285.5,66.5C 290.267,66.3642 294.267,64.6975 297.5,61.5C 300.802,61.0884 303.469,59.755 305.5,57.5C 307.315,56.3702 309.315,55.7036 311.5,55.5C 316.653,54.3814 321.653,54.3814 326.5,55.5 Z"/>
  <path fill="#232332" d="M 325.5,57.5 C 326.978,58.4475 327.978,59.7809 328.5,61.5C 328.611,62.1174 328.944,62.6174 329.5,63C 332.562,63.7415 335.562,63.5748 338.5,62.5C 338.833,62.8333 339.167,63.1667 339.5,63.5C 338.757,64.1818 338.091,64.8485 337.5,65.5C 334.545,66.1587 331.545,66.4921 328.5,66.5C 325.905,64.9856 324.571,62.6523 324.5,59.5C 324.328,58.5084 324.662,57.8417 325.5,57.5 Z"/>
  <path fill="#adacab" d="M 297.5,61.5 C 294.267,64.6975 290.267,66.3642 285.5,66.5C 289.458,64.8441 293.458,63.1775 297.5,61.5 Z"/>
  <path fill="#272729" d="M 287.5,62.5 C 290.018,61.7362 292.351,60.7362 294.5,59.5C 300.337,56.5406 306.337,53.7073 312.5,51C 319.225,49.7593 325.558,50.5926 331.5,53.5C 331.953,54.4584 332.619,55.2917 333.5,56C 329.541,55.7913 327.874,57.6246 328.5,61.5C 327.978,59.7809 326.978,58.4475 325.5,57.5C 325.833,56.8333 326.167,56.1667 326.5,55.5C 327.043,55.44 327.376,55.1067 327.5,54.5C 325.333,54.1667 323.167,53.8333 321,53.5C 317.523,53.3275 314.356,53.9942 311.5,55.5C 309.315,55.7036 307.315,56.3702 305.5,57.5C 302.455,58.2794 299.789,59.6127 297.5,61.5C 293.458,63.1775 289.458,64.8441 285.5,66.5C 281.688,67.0264 278.021,67.6931 274.5,68.5C 268.131,68.653 261.797,68.3197 255.5,67.5C 248.399,64.4485 241.732,60.6152 235.5,56C 234.668,55.3123 234.002,55.479 233.5,56.5C 236.862,59.9398 240.362,63.2731 244,66.5C 247.408,72.4052 251.908,77.0719 257.5,80.5C 258.29,81.4013 259.29,82.0679 260.5,82.5C 259.047,82.9293 257.381,83.096 255.5,83C 256.693,84.0946 258.027,84.928 259.5,85.5C 260.694,86.2719 261.694,87.2719 262.5,88.5C 263.551,89.2223 264.218,90.2223 264.5,91.5C 260.813,91.1295 257.48,89.2961 254.5,86C 249.976,83.6079 245.309,81.7746 240.5,80.5C 242.981,79.7417 245.648,79.7417 248.5,80.5C 249.376,80.6309 250.043,80.2975 250.5,79.5C 241.799,70.2982 233.633,60.6315 226,50.5C 224.813,48.9556 224.48,47.2889 225,45.5C 234.282,53.8947 244.782,60.3947 256.5,65C 266.974,65.8663 277.308,65.0329 287.5,62.5 Z"/>
  <path fill="#878787" d="M 294.5,59.5 C 292.351,60.7362 290.018,61.7362 287.5,62.5C 289.176,60.1663 291.509,59.1663 294.5,59.5 Z"/>
  <path fill="#9a9a9a" d="M 305.5,57.5 C 303.469,59.755 300.802,61.0884 297.5,61.5C 299.789,59.6127 302.455,58.2794 305.5,57.5 Z"/>
  <path fill="#8c8d8a" d="M 326.5,55.5 C 321.653,54.3814 316.653,54.3814 311.5,55.5C 314.356,53.9942 317.523,53.3275 321,53.5C 323.167,53.8333 325.333,54.1667 327.5,54.5C 327.376,55.1067 327.043,55.44 326.5,55.5 Z"/>
  <path fill="#efefee" d="M 255.5,67.5 C 256.514,68.6737 257.847,69.3404 259.5,69.5C 259.665,72.8499 259.498,76.1832 259,79.5C 258.617,80.056 258.117,80.3893 257.5,80.5C 251.908,77.0719 247.408,72.4052 244,66.5C 240.362,63.2731 236.862,59.9398 233.5,56.5C 234.002,55.479 234.668,55.3123 235.5,56C 241.732,60.6152 248.399,64.4485 255.5,67.5 Z"/>
  <path fill="#83828c" d="M 255.5,67.5 C 261.797,68.3197 268.131,68.653 274.5,68.5C 272.393,69.4682 270.059,69.8016 267.5,69.5C 264.833,69.5 262.167,69.5 259.5,69.5C 257.847,69.3404 256.514,68.6737 255.5,67.5 Z"/>
  <path fill="#555576" d="M 340.5,65.5 C 341.82,68.1401 343.153,70.8068 344.5,73.5C 343.833,73.5 343.5,73.8333 343.5,74.5C 341.659,72.1515 340.326,69.4848 339.5,66.5C 339.5,65.8333 339.833,65.5 340.5,65.5 Z"/>
  <path fill="#1d1e2f" d="M 333.5,98.5 C 333.5,99.1667 333.5,99.8333 333.5,100.5C 333.737,101.791 333.404,102.791 332.5,103.5C 330.138,101.081 329.138,98.081 329.5,94.5C 330.736,92.1725 332.736,91.0058 335.5,91C 331.976,86.8133 328.476,82.6466 325,78.5C 320.498,80.8205 315.998,80.9872 311.5,79C 314.167,78.6667 316.833,78.3333 319.5,78C 321.394,76.5962 323.394,75.4295 325.5,74.5C 326.442,74.6082 327.275,74.9415 328,75.5C 332.031,81.366 335.864,87.366 339.5,93.5C 337.257,94.4742 334.924,94.8076 332.5,94.5C 332.232,96.099 332.566,97.4324 333.5,98.5 Z"/>
  <path fill="#d0d2f3" d="M 328.5,66.5 C 331.545,66.4921 334.545,66.1587 337.5,65.5C 338.167,65.8333 338.833,66.1667 339.5,66.5C 340.326,69.4848 341.659,72.1515 343.5,74.5C 346.167,80.5 348.833,86.5 351.5,92.5C 350.279,91.9717 349.113,91.305 348,90.5C 346.757,92.8329 345.091,93.4996 343,92.5C 340.774,94.8847 337.941,96.0514 334.5,96C 333.748,96.6708 333.414,97.5041 333.5,98.5C 332.566,97.4324 332.232,96.099 332.5,94.5C 334.924,94.8076 337.257,94.4742 339.5,93.5C 335.864,87.366 332.031,81.366 328,75.5C 327.275,74.9415 326.442,74.6082 325.5,74.5C 323.394,75.4295 321.394,76.5962 319.5,78C 316.833,78.3333 314.167,78.6667 311.5,79C 315.998,80.9872 320.498,80.8205 325,78.5C 328.476,82.6466 331.976,86.8133 335.5,91C 332.736,91.0058 330.736,92.1725 329.5,94.5C 329.06,96.8439 328.06,98.8439 326.5,100.5C 324.938,100.267 323.605,99.6005 322.5,98.5C 320.168,96.9045 317.501,95.7378 314.5,95C 312.098,94.1859 309.765,94.3526 307.5,95.5C 311.263,99.2521 314.596,103.252 317.5,107.5C 318.11,108.391 318.443,109.391 318.5,110.5C 317.85,110.196 317.183,109.863 316.5,109.5C 309.036,113.221 301.369,116.388 293.5,119C 292.244,119.417 291.577,120.25 291.5,121.5C 290.494,117.653 291.494,114.153 294.5,111C 290.414,111.787 288.414,114.453 288.5,119C 288.968,122.583 290.302,125.75 292.5,128.5C 291.536,132.005 292.202,135.339 294.5,138.5C 282.785,132.406 277.285,122.739 278,109.5C 279.442,105.725 281.942,102.892 285.5,101C 281.635,101.498 278.802,103.665 277,107.5C 274.791,116.02 276.125,124.02 281,131.5C 283.849,134.574 286.683,137.574 289.5,140.5C 291.885,143.579 294.051,146.912 296,150.5C 295.872,152.445 296.038,154.278 296.5,156C 294.711,156.914 292.877,157.747 291,158.5C 288.59,157.252 286.09,156.252 283.5,155.5C 283.703,157.638 284.703,159.305 286.5,160.5C 285.478,161.354 284.645,162.354 284,163.5C 283.305,167.533 282.472,171.533 281.5,175.5C 279.059,174.673 276.893,174.673 275,175.5C 274.692,174.692 274.192,174.025 273.5,173.5C 271.556,174.189 269.556,174.689 267.5,175C 266.748,175.671 266.414,176.504 266.5,177.5C 266.167,177.5 265.833,177.5 265.5,177.5C 264.493,176.172 263.16,175.172 261.5,174.5C 260.667,160.846 260.167,147.179 260,133.5C 259.682,131.939 258.849,130.772 257.5,130C 258.423,127.959 258.756,125.792 258.5,123.5C 255.794,123.575 253.127,123.908 250.5,124.5C 249.89,120.365 250.723,116.699 253,113.5C 254.085,114.293 255.252,114.96 256.5,115.5C 256.998,116.603 257.331,117.603 257.5,118.5C 258.298,116.922 258.798,115.256 259,113.5C 259.333,113.833 259.667,114.167 260,114.5C 261.257,112.321 262.757,110.321 264.5,108.5C 264.014,104.105 264.848,99.7714 267,95.5C 268.011,94.6634 269.178,94.33 270.5,94.5C 270.666,90.1539 270.499,85.8206 270,81.5C 267.626,78.7124 266.293,79.0458 266,82.5C 263.99,80.1755 264.324,78.1755 267,76.5C 268.546,78.2409 270.546,79.2409 273,79.5C 276.296,78.9369 279.462,77.9369 282.5,76.5C 283.554,76.6799 284.554,77.0133 285.5,77.5C 289.493,75.2802 293.826,74.1135 298.5,74C 300.65,70.6403 303.483,69.807 307,71.5C 312.648,68.5798 318.315,65.9131 324,63.5C 324.589,65.8633 326.089,66.8633 328.5,66.5 Z"/>
  <path fill="#808081" d="M 236.5,79.5 C 237.793,78.8418 239.293,78.5085 241,78.5C 243.821,78.4078 246.321,79.0744 248.5,80.5C 245.648,79.7417 242.981,79.7417 240.5,80.5C 239.833,80.5 239.167,80.5 238.5,80.5C 237.833,80.1667 237.167,79.8333 236.5,79.5 Z"/>
  <path fill="#21222e" d="M 236.5,79.5 C 237.167,79.8333 237.833,80.1667 238.5,80.5C 239.908,81.9108 240.908,83.5775 241.5,85.5C 240.474,88.8796 238.474,91.5463 235.5,93.5C 239.796,94.3275 244.129,94.8275 248.5,95C 258.272,97.0911 260.939,101.924 256.5,109.5C 256.802,106.941 256.468,104.607 255.5,102.5C 253.572,100.526 251.239,99.0259 248.5,98C 243.316,97.1837 238.316,97.3503 233.5,98.5C 232.167,98.5 230.833,98.5 229.5,98.5C 230.287,95.5923 231.62,92.9256 233.5,90.5C 236.861,88.9139 238.194,86.5806 237.5,83.5C 237.167,82.1667 236.833,80.8333 236.5,79.5 Z"/>
  <path fill="#464861" d="M 322.5,98.5 C 320.863,97.7822 319.197,97.6155 317.5,98C 318.056,98.3826 318.389,98.8826 318.5,99.5C 316.02,97.9503 313.353,97.1169 310.5,97C 313.343,99.6765 316.01,102.51 318.5,105.5C 317.662,105.842 317.328,106.508 317.5,107.5C 314.596,103.252 311.263,99.2521 307.5,95.5C 309.765,94.3526 312.098,94.1859 314.5,95C 317.501,95.7378 320.168,96.9045 322.5,98.5 Z"/>
  <path fill="#bbbcd3" d="M 318.5,99.5 C 321.205,101.512 323.872,103.512 326.5,105.5C 324.173,105.753 322.173,105.086 320.5,103.5C 319.708,104.7 319.708,106.033 320.5,107.5C 319.5,107.167 318.833,106.5 318.5,105.5C 316.01,102.51 313.343,99.6765 310.5,97C 313.353,97.1169 316.02,97.9503 318.5,99.5 Z"/>
  <path fill="#d8d7ef" d="M 187.5,117.5 C 186.685,116.571 185.852,115.571 185,114.5C 185.374,117.275 186.374,119.942 188,122.5C 194.412,129.679 200.579,137.012 206.5,144.5C 206.5,144.833 206.5,145.167 206.5,145.5C 205.85,145.196 205.183,144.863 204.5,144.5C 187.548,147.494 170.548,149.994 153.5,152C 153.85,154.982 155.183,157.815 157.5,160.5C 151.337,157.517 145.837,153.517 141,148.5C 141.451,150.52 142.284,152.52 143.5,154.5C 142.078,154.25 141.078,153.417 140.5,152C 137.118,151.176 133.784,151.343 130.5,152.5C 134.01,163.885 137.51,175.218 141,186.5C 141.942,189.271 142.108,191.938 141.5,194.5C 140.773,197.602 141.107,200.768 142.5,204C 142.138,205.434 141.472,206.601 140.5,207.5C 136.831,205.898 133.997,206.898 132,210.5C 131.333,213.833 131.333,217.167 132,220.5C 133.677,223.853 135.843,226.853 138.5,229.5C 136.955,230.452 135.288,230.785 133.5,230.5C 128.138,230.528 122.805,230.194 117.5,229.5C 114.318,229.052 111.651,227.718 109.5,225.5C 108.047,224.175 108.381,223.342 110.5,223C 108.392,222.64 106.392,221.973 104.5,221C 105.167,220.667 105.833,220.333 106.5,220C 105.044,219.577 104.544,218.744 105,217.5C 105.654,218.696 106.154,218.696 106.5,217.5C 105.5,216.167 104.5,214.833 103.5,213.5C 104.326,212.549 104.492,211.549 104,210.5C 103.346,211.696 102.846,211.696 102.5,210.5C 103.025,209.808 103.692,209.308 104.5,209C 102.997,205.531 102.33,201.864 102.5,198C 102.292,193.417 102.959,189.751 104.5,187C 102.801,176.178 103.468,165.511 106.5,155C 106.419,153.076 106.086,151.243 105.5,149.5C 106.492,142.352 106.825,135.019 106.5,127.5C 107.5,127.5 108.5,127.5 109.5,127.5C 109.652,122.919 108.152,121.919 105,124.5C 99.1156,123.254 92.949,122.42 86.5,122C 83.8953,121.974 82.7287,120.807 83,118.5C 85.7892,118.396 88.7892,118.729 92,119.5C 97.2338,118.304 102.234,117.304 107,116.5C 107.308,117.308 107.808,117.975 108.5,118.5C 109.187,116.726 110.02,115.059 111,113.5C 112.518,113.057 113.685,113.724 114.5,115.5C 117.422,114.213 119.255,115.213 120,118.5C 122.93,116.841 125.93,116.508 129,117.5C 134.073,111.996 140.24,109.996 147.5,111.5C 150.723,109.473 154.223,108.14 158,107.5C 160.528,109.508 162.861,109.508 165,107.5C 166.714,108.925 168.047,108.592 169,106.5C 169.333,107.167 169.667,107.833 170,108.5C 170.5,107.333 171.333,106.5 172.5,106C 177.781,104.513 183.114,103.346 188.5,102.5C 190.017,102.511 191.184,103.177 192,104.5C 194.386,102.909 197.053,101.909 200,101.5C 201.604,102.649 203.27,102.649 205,101.5C 207.247,103.602 209.08,102.936 210.5,99.5C 215.668,97.9578 220.334,95.6244 224.5,92.5C 227.925,92.9693 228.258,94.4693 225.5,97C 226.328,97.9147 227.328,98.5814 228.5,99C 227.151,99.7724 226.318,100.939 226,102.5C 224.214,100.326 222.047,99.1596 219.5,99C 217.875,99.8525 217.542,100.853 218.5,102C 217.139,103.584 216.472,105.418 216.5,107.5C 213.723,107.214 210.889,106.88 208,106.5C 207.338,109.961 207.838,112.461 209.5,114C 209.441,115.436 209.108,116.769 208.5,118C 211.167,118.667 211.167,119.333 208.5,120C 209.711,120.893 209.711,121.726 208.5,122.5C 207.575,123.641 206.741,123.641 206,122.5C 205.667,123.5 205.333,124.5 205,125.5C 204.355,124.354 203.522,123.354 202.5,122.5C 198.474,121.479 194.474,120.479 190.5,119.5C 190.649,118.448 190.483,117.448 190,116.5C 189.329,117.252 188.496,117.586 187.5,117.5 Z"/>
  <path fill="#acacb4" d="M 329.5,94.5 C 329.138,98.081 330.138,101.081 332.5,103.5C 333.861,105.527 335.527,107.194 337.5,108.5C 336.508,108.328 335.842,108.662 335.5,109.5C 332.14,106.806 329.14,103.806 326.5,100.5C 328.06,98.8439 329.06,96.8439 329.5,94.5 Z"/>
  <path fill="#1e1d24" d="M 322.5,98.5 C 323.605,99.6005 324.938,100.267 326.5,100.5C 329.14,103.806 332.14,106.806 335.5,109.5C 338.432,112.698 340.266,116.365 341,120.5C 336.663,114.997 331.83,109.997 326.5,105.5C 323.872,103.512 321.205,101.512 318.5,99.5C 318.389,98.8826 318.056,98.3826 317.5,98C 319.197,97.6155 320.863,97.7822 322.5,98.5 Z"/>
  <path fill="#222222" d="M 333.5,100.5 C 337.131,103.629 340.631,106.963 344,110.5C 345.422,113.03 345.755,115.697 345,118.5C 343.819,114.155 341.319,110.822 337.5,108.5C 335.527,107.194 333.861,105.527 332.5,103.5C 333.404,102.791 333.737,101.791 333.5,100.5 Z"/>
  <path fill="#f2f2f2" d="M 351.5,92.5 C 358.074,103.555 362.074,115.555 363.5,128.5C 363.214,135.738 359.881,141.071 353.5,144.5C 347.051,149.46 345.384,148.46 348.5,141.5C 349.633,131.956 345.299,126.956 335.5,126.5C 329.477,126.68 325.144,129.514 322.5,135C 315.954,140.912 308.287,143.078 299.5,141.5C 298.101,140.11 296.434,139.11 294.5,138.5C 292.202,135.339 291.536,132.005 292.5,128.5C 296.702,131.361 301.369,132.194 306.5,131C 313.006,129.341 318.173,125.841 322,120.5C 322.85,115.979 322.35,111.645 320.5,107.5C 319.708,106.033 319.708,104.7 320.5,103.5C 322.173,105.086 324.173,105.753 326.5,105.5C 331.83,109.997 336.663,114.997 341,120.5C 340.266,116.365 338.432,112.698 335.5,109.5C 335.842,108.662 336.508,108.328 337.5,108.5C 341.319,110.822 343.819,114.155 345,118.5C 345.755,115.697 345.422,113.03 344,110.5C 340.631,106.963 337.131,103.629 333.5,100.5C 333.5,99.8333 333.5,99.1667 333.5,98.5C 333.414,97.5041 333.748,96.6708 334.5,96C 337.941,96.0514 340.774,94.8847 343,92.5C 345.091,93.4996 346.757,92.8329 348,90.5C 349.113,91.305 350.279,91.9717 351.5,92.5 Z"/>
  <path fill="#f5f5f6" d="M 318.5,110.5 C 319.987,113.913 319.82,117.247 318,120.5C 312.245,127.037 305.078,129.203 296.5,127C 294.261,125.69 292.594,123.857 291.5,121.5C 291.577,120.25 292.244,119.417 293.5,119C 301.369,116.388 309.036,113.221 316.5,109.5C 317.183,109.863 317.85,110.196 318.5,110.5 Z"/>
  <path fill="#242426" d="M 318.5,105.5 C 318.833,106.5 319.5,107.167 320.5,107.5C 322.35,111.645 322.85,115.979 322,120.5C 318.173,125.841 313.006,129.341 306.5,131C 301.369,132.194 296.702,131.361 292.5,128.5C 290.302,125.75 288.968,122.583 288.5,119C 288.414,114.453 290.414,111.787 294.5,111C 291.494,114.153 290.494,117.653 291.5,121.5C 292.594,123.857 294.261,125.69 296.5,127C 305.078,129.203 312.245,127.037 318,120.5C 319.82,117.247 319.987,113.913 318.5,110.5C 318.443,109.391 318.11,108.391 317.5,107.5C 317.328,106.508 317.662,105.842 318.5,105.5 Z"/>
  <path fill="#212235" d="M 294.5,138.5 C 295.674,140.368 295.007,141.368 292.5,141.5C 291.609,140.89 290.609,140.557 289.5,140.5C 286.683,137.574 283.849,134.574 281,131.5C 276.125,124.02 274.791,116.02 277,107.5C 278.802,103.665 281.635,101.498 285.5,101C 281.942,102.892 279.442,105.725 278,109.5C 277.285,122.739 282.785,132.406 294.5,138.5 Z"/>
  <path fill="#dadbec" d="M 237.5,83.5 C 238.194,86.5806 236.861,88.9139 233.5,90.5C 229.93,90.6898 226.264,91.0231 222.5,91.5C 216.332,95.4079 209.999,97.2413 203.5,97C 202.774,98.3974 201.607,99.2308 200,99.5C 195.843,99.8159 192.01,100.816 188.5,102.5C 183.114,103.346 177.781,104.513 172.5,106C 171.333,106.5 170.5,107.333 170,108.5C 169.667,107.833 169.333,107.167 169,106.5C 168.047,108.592 166.714,108.925 165,107.5C 162.861,109.508 160.528,109.508 158,107.5C 154.223,108.14 150.723,109.473 147.5,111.5C 140.24,109.996 134.073,111.996 129,117.5C 125.93,116.508 122.93,116.841 120,118.5C 119.255,115.213 117.422,114.213 114.5,115.5C 113.685,113.724 112.518,113.057 111,113.5C 110.02,115.059 109.187,116.726 108.5,118.5C 107.808,117.975 107.308,117.308 107,116.5C 102.234,117.304 97.2338,118.304 92,119.5C 88.7892,118.729 85.7892,118.396 83,118.5C 82.7287,120.807 83.8953,121.974 86.5,122C 92.949,122.42 99.1156,123.254 105,124.5C 108.152,121.919 109.652,122.919 109.5,127.5C 108.5,127.5 107.5,127.5 106.5,127.5C 106.825,135.019 106.492,142.352 105.5,149.5C 104.922,148.453 104.256,148.62 103.5,150C 104.116,151.4 104.449,152.9 104.5,154.5C 103.015,161.359 102.015,168.359 101.5,175.5C 101.709,176.086 102.043,176.586 102.5,177C 101.679,187.423 101.179,197.923 101,208.5C 100.015,210.175 99.1814,211.842 98.5,213.5C 99.1481,191.816 100.148,170.149 101.5,148.5C 95.8277,148.133 90.161,147.633 84.5,147C 78.8977,145.468 73.231,144.134 67.5,143C 54.6388,138.268 41.6388,133.935 28.5,130C 21.4084,126.858 14.4084,123.525 7.5,120C 6.12794,118.758 5.12794,117.258 4.5,115.5C 26.8051,115.489 49.1384,115.323 71.5,115C 83.6852,115.118 95.6852,113.952 107.5,111.5C 110.603,95.7063 113.27,95.7063 115.5,111.5C 131.883,110.568 147.883,107.734 163.5,103C 170.606,102.718 177.606,101.718 184.5,100C 201.902,95.4351 219.236,90.6018 236.5,85.5C 237.298,85.0431 237.631,84.3764 237.5,83.5 Z"/>
  <path fill="#171823" d="M 218.5,106.5 C 219.167,106.5 219.5,106.833 219.5,107.5C 216.932,112.121 217.099,116.788 220,121.5C 223.111,123.828 224.611,126.661 224.5,130C 217.901,131.496 211.234,131.829 204.5,131C 201.101,129.542 197.768,128.208 194.5,127C 198.016,129.52 201.183,132.353 204,135.5C 206.81,138.464 208.976,141.798 210.5,145.5C 209.292,144.766 207.959,144.433 206.5,144.5C 200.579,137.012 194.412,129.679 188,122.5C 186.374,119.942 185.374,117.275 185,114.5C 185.852,115.571 186.685,116.571 187.5,117.5C 190.041,121.707 193.708,124.373 198.5,125.5C 202.74,127.908 207.407,128.908 212.5,128.5C 215.167,128.167 217.833,127.833 220.5,127.5C 220.376,126.893 220.043,126.56 219.5,126.5C 215.851,121.383 214.685,115.717 216,109.5C 216.852,108.429 217.685,107.429 218.5,106.5 Z"/>
  <path fill="#676976" d="M 198.5,125.5 C 203.057,126.793 207.723,127.459 212.5,127.5C 215.025,127.497 217.359,127.163 219.5,126.5C 220.043,126.56 220.376,126.893 220.5,127.5C 217.833,127.833 215.167,128.167 212.5,128.5C 207.407,128.908 202.74,127.908 198.5,125.5 Z"/>
  <path fill="#f8f8f9" d="M 257.5,176.5 C 256.153,173.807 254.82,171.14 253.5,168.5C 250.992,166.763 247.992,165.93 244.5,166C 245.337,164.989 245.67,163.822 245.5,162.5C 242.966,162.741 241.3,161.741 240.5,159.5C 240.427,157.973 241.094,156.973 242.5,156.5C 243.043,156.44 243.376,156.107 243.5,155.5C 239.384,153.719 235.051,153.053 230.5,153.5C 224.786,152.451 220.12,154.117 216.5,158.5C 214.917,156.492 213.917,154.159 213.5,151.5C 212.37,149.685 211.704,147.685 211.5,145.5C 211.414,144.504 211.748,143.671 212.5,143C 227.977,139.796 243.311,136.296 258.5,132.5C 258.829,147.343 258.496,162.01 257.5,176.5 Z"/>
  <path fill="#cfd1e9" d="M 324.5,59.5 C 324.571,62.6523 325.905,64.9856 328.5,66.5C 326.089,66.8633 324.589,65.8633 324,63.5C 318.315,65.9131 312.648,68.5798 307,71.5C 303.483,69.807 300.65,70.6403 298.5,74C 293.826,74.1135 289.493,75.2802 285.5,77.5C 284.554,77.0133 283.554,76.6799 282.5,76.5C 279.462,77.9369 276.296,78.9369 273,79.5C 270.546,79.2409 268.546,78.2409 267,76.5C 264.324,78.1755 263.99,80.1755 266,82.5C 266.293,79.0458 267.626,78.7124 270,81.5C 270.499,85.8206 270.666,90.1539 270.5,94.5C 269.178,94.33 268.011,94.6634 267,95.5C 264.848,99.7714 264.014,104.105 264.5,108.5C 262.757,110.321 261.257,112.321 260,114.5C 259.667,114.167 259.333,113.833 259,113.5C 258.798,115.256 258.298,116.922 257.5,118.5C 257.331,117.603 256.998,116.603 256.5,115.5C 255.252,114.96 254.085,114.293 253,113.5C 250.723,116.699 249.89,120.365 250.5,124.5C 253.127,123.908 255.794,123.575 258.5,123.5C 258.756,125.792 258.423,127.959 257.5,130C 258.849,130.772 259.682,131.939 260,133.5C 260.167,147.179 260.667,160.846 261.5,174.5C 263.16,175.172 264.493,176.172 265.5,177.5C 264.249,180.489 262.249,181.489 259.5,180.5C 259.267,178.938 258.6,177.605 257.5,176.5C 258.496,162.01 258.829,147.343 258.5,132.5C 243.311,136.296 227.977,139.796 212.5,143C 211.748,143.671 211.414,144.504 211.5,145.5C 211.167,145.5 210.833,145.5 210.5,145.5C 208.976,141.798 206.81,138.464 204,135.5C 201.183,132.353 198.016,129.52 194.5,127C 197.768,128.208 201.101,129.542 204.5,131C 211.234,131.829 217.901,131.496 224.5,130C 224.611,126.661 223.111,123.828 220,121.5C 217.099,116.788 216.932,112.121 219.5,107.5C 222.492,105.665 224.658,106.331 226,109.5C 226.502,106.285 225.002,104.619 221.5,104.5C 219.962,104.453 218.962,105.12 218.5,106.5C 217.685,107.429 216.852,108.429 216,109.5C 214.685,115.717 215.851,121.383 219.5,126.5C 217.359,127.163 215.025,127.497 212.5,127.5C 207.723,127.459 203.057,126.793 198.5,125.5C 193.708,124.373 190.041,121.707 187.5,117.5C 188.496,117.586 189.329,117.252 190,116.5C 190.483,117.448 190.649,118.448 190.5,119.5C 194.474,120.479 198.474,121.479 202.5,122.5C 203.522,123.354 204.355,124.354 205,125.5C 205.333,124.5 205.667,123.5 206,122.5C 206.741,123.641 207.575,123.641 208.5,122.5C 209.711,121.726 209.711,120.893 208.5,120C 211.167,119.333 211.167,118.667 208.5,118C 209.108,116.769 209.441,115.436 209.5,114C 207.838,112.461 207.338,109.961 208,106.5C 210.889,106.88 213.723,107.214 216.5,107.5C 216.472,105.418 217.139,103.584 218.5,102C 217.542,100.853 217.875,99.8525 219.5,99C 222.047,99.1596 224.214,100.326 226,102.5C 226.318,100.939 227.151,99.7724 228.5,99C 227.328,98.5814 226.328,97.9147 225.5,97C 228.258,94.4693 227.925,92.9693 224.5,92.5C 220.334,95.6244 215.668,97.9578 210.5,99.5C 209.08,102.936 207.247,103.602 205,101.5C 203.27,102.649 201.604,102.649 200,101.5C 197.053,101.909 194.386,102.909 192,104.5C 191.184,103.177 190.017,102.511 188.5,102.5C 192.01,100.816 195.843,99.8159 200,99.5C 201.607,99.2308 202.774,98.3974 203.5,97C 209.999,97.2413 216.332,95.4079 222.5,91.5C 226.264,91.0231 229.93,90.6898 233.5,90.5C 231.62,92.9256 230.287,95.5923 229.5,98.5C 230.833,98.5 232.167,98.5 233.5,98.5C 234.791,98.2627 235.791,98.596 236.5,99.5C 234.233,102.271 231.733,104.938 229,107.5C 228.51,108.793 228.343,110.127 228.5,111.5C 231.208,110.551 233.874,110.551 236.5,111.5C 231.445,113.055 228.278,116.388 227,121.5C 225.173,117.719 224.173,113.719 224,109.5C 222.075,114.439 222.741,119.106 226,123.5C 227.11,125.037 228.61,125.703 230.5,125.5C 230.337,123.143 230.503,120.81 231,118.5C 232.11,116.963 233.61,116.297 235.5,116.5C 235.611,121.445 238.111,123.779 243,123.5C 248.689,122.291 250.023,118.958 247,113.5C 242.74,110.692 238.24,108.359 233.5,106.5C 234.855,104.479 236.521,102.812 238.5,101.5C 245.835,101.274 251.835,103.941 256.5,109.5C 260.939,101.924 258.272,97.0911 248.5,95C 244.129,94.8275 239.796,94.3275 235.5,93.5C 238.474,91.5463 240.474,88.8796 241.5,85.5C 240.908,83.5775 239.908,81.9108 238.5,80.5C 239.167,80.5 239.833,80.5 240.5,80.5C 245.309,81.7746 249.976,83.6079 254.5,86C 257.48,89.2961 260.813,91.1295 264.5,91.5C 268.12,86.3214 266.787,83.3214 260.5,82.5C 259.29,82.0679 258.29,81.4013 257.5,80.5C 258.117,80.3893 258.617,80.056 259,79.5C 259.498,76.1832 259.665,72.8499 259.5,69.5C 262.167,69.5 264.833,69.5 267.5,69.5C 268.625,75.0924 271.958,76.9258 277.5,75C 289.051,71.2892 300.717,67.9559 312.5,65C 316.676,63.4097 320.676,61.5763 324.5,59.5 Z"/>
  <path fill="#1b1c2a" d="M 236.5,99.5 C 239.5,99.5 242.5,99.5 245.5,99.5C 243.167,100.167 240.833,100.833 238.5,101.5C 236.521,102.812 234.855,104.479 233.5,106.5C 238.24,108.359 242.74,110.692 247,113.5C 250.023,118.958 248.689,122.291 243,123.5C 238.111,123.779 235.611,121.445 235.5,116.5C 233.61,116.297 232.11,116.963 231,118.5C 230.503,120.81 230.337,123.143 230.5,125.5C 228.61,125.703 227.11,125.037 226,123.5C 222.741,119.106 222.075,114.439 224,109.5C 224.173,113.719 225.173,117.719 227,121.5C 228.278,116.388 231.445,113.055 236.5,111.5C 233.874,110.551 231.208,110.551 228.5,111.5C 228.343,110.127 228.51,108.793 229,107.5C 231.733,104.938 234.233,102.271 236.5,99.5 Z"/>
  <path fill="#babbc7" d="M 237.5,111.5 C 242.125,112.802 244.792,115.802 245.5,120.5C 243.396,120.799 241.396,120.466 239.5,119.5C 238.705,116.856 238.038,114.189 237.5,111.5 Z"/>
  <path fill="#6f7088" d="M 219.5,107.5 C 219.5,106.833 219.167,106.5 218.5,106.5C 218.962,105.12 219.962,104.453 221.5,104.5C 225.002,104.619 226.502,106.285 226,109.5C 224.658,106.331 222.492,105.665 219.5,107.5 Z"/>
  <path fill="#5c5c73" d="M 245.5,99.5 C 248.987,100.745 251.987,102.745 254.5,105.5C 255.386,104.675 255.719,103.675 255.5,102.5C 256.468,104.607 256.802,106.941 256.5,109.5C 251.835,103.941 245.835,101.274 238.5,101.5C 240.833,100.833 243.167,100.167 245.5,99.5 Z"/>
  <path fill="#9e9fae" d="M 233.5,98.5 C 238.316,97.3503 243.316,97.1837 248.5,98C 251.239,99.0259 253.572,100.526 255.5,102.5C 255.719,103.675 255.386,104.675 254.5,105.5C 251.987,102.745 248.987,100.745 245.5,99.5C 242.5,99.5 239.5,99.5 236.5,99.5C 235.791,98.596 234.791,98.2627 233.5,98.5 Z"/>
  <path fill="#737489" d="M 260.5,82.5 C 266.787,83.3214 268.12,86.3214 264.5,91.5C 264.218,90.2223 263.551,89.2223 262.5,88.5C 264.176,87.8166 264.843,86.4832 264.5,84.5C 262.585,84.2155 260.919,84.5489 259.5,85.5C 258.027,84.928 256.693,84.0946 255.5,83C 257.381,83.096 259.047,82.9293 260.5,82.5 Z"/>
  <path fill="#b6b7cb" d="M 262.5,88.5 C 261.694,87.2719 260.694,86.2719 259.5,85.5C 260.919,84.5489 262.585,84.2155 264.5,84.5C 264.843,86.4832 264.176,87.8166 262.5,88.5 Z"/>
  <path fill="#434446" d="M 294.5,138.5 C 296.434,139.11 298.101,140.11 299.5,141.5C 298.761,141.369 298.094,141.536 297.5,142C 298.623,143.044 299.956,143.71 301.5,144C 305.152,144.499 308.818,144.665 312.5,144.5C 307.645,145.691 302.645,145.691 297.5,144.5C 296.087,143.065 294.42,142.065 292.5,141.5C 295.007,141.368 295.674,140.368 294.5,138.5 Z"/>
  <path fill="#2a2a2a" d="M 348.5,141.5 C 347.833,139.167 347.167,136.833 346.5,134.5C 345.375,132.871 344.041,131.371 342.5,130C 338.833,129.333 335.167,129.333 331.5,130C 327.85,133.581 324.184,137.248 320.5,141C 317.929,142.454 315.262,143.62 312.5,144.5C 308.818,144.665 305.152,144.499 301.5,144C 299.956,143.71 298.623,143.044 297.5,142C 298.094,141.536 298.761,141.369 299.5,141.5C 308.287,143.078 315.954,140.912 322.5,135C 325.144,129.514 329.477,126.68 335.5,126.5C 345.299,126.956 349.633,131.956 348.5,141.5 Z"/>
  <path fill="#8d8d8d" d="M 346.5,134.5 C 347.167,136.833 347.833,139.167 348.5,141.5C 345.384,148.46 347.051,149.46 353.5,144.5C 353.5,145.167 353.833,145.5 354.5,145.5C 352.231,146.976 349.898,148.476 347.5,150C 346.056,150.781 344.723,150.614 343.5,149.5C 346.021,144.821 347.021,139.821 346.5,134.5 Z"/>
  <path fill="#f6f6f7" d="M 346.5,134.5 C 347.021,139.821 346.021,144.821 343.5,149.5C 344.723,150.614 346.056,150.781 347.5,150C 349.898,148.476 352.231,146.976 354.5,145.5C 356.142,144.133 357.808,143.799 359.5,144.5C 353.394,158.11 354.561,171.11 363,183.5C 373.66,196.493 385.326,208.493 398,219.5C 402.648,228.836 400.815,236.67 392.5,243C 387.813,245.699 383.147,248.366 378.5,251C 377.29,252.039 376.29,253.206 375.5,254.5C 374.833,256.167 374.167,257.833 373.5,259.5C 372.833,257.833 372.167,256.167 371.5,254.5C 371.715,252.821 371.048,251.821 369.5,251.5C 368.34,249.797 369.007,249.131 371.5,249.5C 371.785,247.712 371.452,246.045 370.5,244.5C 369.139,244.788 367.806,245.121 366.5,245.5C 363.57,244.701 360.57,244.368 357.5,244.5C 351.923,240.985 350.09,235.985 352,229.5C 353.371,227.959 354.871,226.625 356.5,225.5C 362.78,226.639 369.113,227.139 375.5,227C 371.449,225.938 367.449,224.772 363.5,223.5C 362.391,223.443 361.391,223.11 360.5,222.5C 359.726,221.853 358.726,221.52 357.5,221.5C 355.645,221.34 354.312,222.007 353.5,223.5C 349.132,226.274 347.465,230.274 348.5,235.5C 347.25,235.577 346.417,236.244 346,237.5C 345.667,240.167 345.333,242.833 345,245.5C 344.138,243.913 343.471,242.246 343,240.5C 342.292,241.381 341.458,242.047 340.5,242.5C 343.167,238.499 345.334,234.166 347,229.5C 347.499,225.179 347.666,220.846 347.5,216.5C 347.785,214.712 347.452,213.045 346.5,211.5C 345.516,214.428 345.183,217.428 345.5,220.5C 345.441,228.619 342.608,235.619 337,241.5C 331.585,245.125 326.085,248.625 320.5,252C 324.717,252.319 328.717,251.486 332.5,249.5C 331.434,251.519 330.268,253.519 329,255.5C 327.149,253.219 325.482,253.219 324,255.5C 320.869,253.834 319.369,254.834 319.5,258.5C 319.506,269.184 319.84,280.018 320.5,291C 320.562,295.683 321.228,300.183 322.5,304.5C 321.398,306.961 321.398,309.461 322.5,312C 322.149,315.104 321.649,314.937 321,311.5C 320.833,312.667 320.667,313.833 320.5,315C 320.814,319.195 320.814,323.362 320.5,327.5C 322.475,328.788 322.475,330.455 320.5,332.5C 321.585,333.784 322.252,335.284 322.5,337C 321.547,339.939 321.214,342.772 321.5,345.5C 320.694,342.116 320.361,338.783 320.5,335.5C 319.944,314.147 318.944,292.814 317.5,271.5C 317.5,269.833 317.5,268.167 317.5,266.5C 316.597,246.331 314.264,226.331 310.5,206.5C 313.447,205.679 316.447,205.179 319.5,205C 320.381,204.292 321.047,203.458 321.5,202.5C 323.641,201.188 325.308,199.355 326.5,197C 324.024,197.747 321.691,199.081 319.5,201C 316.854,201.497 314.187,201.664 311.5,201.5C 309.133,199.055 308.133,196.055 308.5,192.5C 312.055,192.867 315.055,191.867 317.5,189.5C 320.652,190.041 323.152,189.041 325,186.5C 326.846,183.431 327.846,180.098 328,176.5C 330.139,181.399 330.973,180.732 330.5,174.5C 331.258,171.648 331.258,168.981 330.5,166.5C 330.5,166.167 330.5,165.833 330.5,165.5C 330.004,162.228 329.004,159.895 327.5,158.5C 328.492,158.672 329.158,158.338 329.5,157.5C 335.582,155.248 338.082,150.914 337,144.5C 336.471,149.858 333.638,153.191 328.5,154.5C 324.802,154.448 321.135,154.114 317.5,153.5C 317.167,153.5 316.833,153.5 316.5,153.5C 313.36,152.359 310.027,152.192 306.5,153C 304.68,153.2 303.347,154.034 302.5,155.5C 301.833,155.5 301.167,155.5 300.5,155.5C 299.414,155.38 298.747,154.713 298.5,153.5C 297.911,150.978 297.245,148.478 296.5,146C 296.57,145.235 296.903,144.735 297.5,144.5C 302.645,145.691 307.645,145.691 312.5,144.5C 315.262,143.62 317.929,142.454 320.5,141C 324.184,137.248 327.85,133.581 331.5,130C 335.167,129.333 338.833,129.333 342.5,130C 344.041,131.371 345.375,132.871 346.5,134.5 Z"/>
  <path fill="#8c8c8d" d="M 316.5,153.5 C 311.673,153.221 307.007,153.887 302.5,155.5C 303.347,154.034 304.68,153.2 306.5,153C 310.027,152.192 313.36,152.359 316.5,153.5 Z"/>
  <path fill="#828282" d="M 230.5,153.5 C 235.051,153.053 239.384,153.719 243.5,155.5C 243.376,156.107 243.043,156.44 242.5,156.5C 238.601,155.068 234.601,154.068 230.5,153.5 Z"/>
  <path fill="#050505" d="M 206.5,145.5 C 206.5,145.167 206.5,144.833 206.5,144.5C 207.959,144.433 209.292,144.766 210.5,145.5C 210.833,145.5 211.167,145.5 211.5,145.5C 211.704,147.685 212.37,149.685 213.5,151.5C 213.183,154.572 213.516,157.572 214.5,160.5C 215.522,160.145 216.189,159.478 216.5,158.5C 220.12,154.117 224.786,152.451 230.5,153.5C 234.601,154.068 238.601,155.068 242.5,156.5C 241.094,156.973 240.427,157.973 240.5,159.5C 239.373,162.593 240.373,165.093 243.5,167C 246.919,167.248 250.253,167.748 253.5,168.5C 254.82,171.14 256.153,173.807 257.5,176.5C 258.6,177.605 259.267,178.938 259.5,180.5C 259.343,181.873 259.51,183.207 260,184.5C 260.414,184.043 260.914,183.709 261.5,183.5C 261.964,185.975 262.964,187.975 264.5,189.5C 265.5,191.5 266.5,193.5 267.5,195.5C 267.989,196.995 268.655,198.329 269.5,199.5C 275.217,208.486 278.217,218.319 278.5,229C 278.618,232.69 277.951,236.19 276.5,239.5C 272.709,242.118 269.043,244.951 265.5,248C 269.668,246.907 273.335,244.741 276.5,241.5C 273.911,248.101 272.245,254.934 271.5,262C 272.021,271.205 275.187,279.372 281,286.5C 289.729,295.724 298.229,305.057 306.5,314.5C 306.351,315.552 306.517,316.552 307,317.5C 309.333,319.535 311.5,321.702 313.5,324C 309.81,324.424 309.643,325.258 313,326.5C 313.333,326.167 313.667,325.833 314,325.5C 314.629,329.871 314.463,334.204 313.5,338.5C 309.825,338.754 306.991,340.42 305,343.5C 304.667,343.167 304.333,342.833 304,342.5C 303,343.833 302,345.167 301,346.5C 299.018,344.642 297.852,342.309 297.5,339.5C 296.575,338.438 295.575,338.438 294.5,339.5C 289.629,339.551 284.962,340.551 280.5,342.5C 282.631,343.169 284.631,343.835 286.5,344.5C 286.393,346.379 286.893,346.712 288,345.5C 291.011,347.941 294.511,349.107 298.5,349C 297.667,349.833 296.833,350.667 296,351.5C 294.817,350.269 293.651,350.269 292.5,351.5C 291.192,353.641 289.692,355.641 288,357.5C 287.617,356.944 287.117,356.611 286.5,356.5C 286.291,355.078 285.791,353.745 285,352.5C 284.199,355.367 284.366,358.034 285.5,360.5C 286.5,363.167 287.5,365.833 288.5,368.5C 288.539,369.583 288.873,370.583 289.5,371.5C 286.816,373.005 284.15,373.672 281.5,373.5C 279.679,374.728 278.679,376.394 278.5,378.5C 273.86,382.473 269.527,386.806 265.5,391.5C 263.025,392.687 262.025,394.687 262.5,397.5C 267.167,397.5 271.833,397.5 276.5,397.5C 279.171,398.298 282.004,398.965 285,399.5C 286.826,398.99 286.993,398.156 285.5,397C 286.793,396.51 288.127,396.343 289.5,396.5C 291.142,397.803 292.809,399.136 294.5,400.5C 298.769,407.028 298.436,413.194 293.5,419C 291.323,420.202 288.989,420.702 286.5,420.5C 282.061,415.887 277.727,411.054 273.5,406C 271.545,405.047 269.878,403.713 268.5,402C 266.598,400.699 264.598,400.032 262.5,400C 266.633,403.131 270.466,406.631 274,410.5C 276.412,414.916 279.578,418.749 283.5,422C 277.426,425.24 276.093,429.74 279.5,435.5C 284.625,449.317 281.625,460.817 270.5,470C 267.464,472.006 264.131,472.84 260.5,472.5C 248.49,472.456 236.49,472.123 224.5,471.5C 220.267,471.461 216.267,470.795 212.5,469.5C 208.097,467.592 203.43,466.259 198.5,465.5C 194.78,463.95 191.447,461.783 188.5,459C 187.5,458.333 186.5,458.333 185.5,459C 180.584,464.741 175.584,470.241 170.5,475.5C 166.064,476.414 162.064,478.081 158.5,480.5C 156.901,480.232 155.568,480.566 154.5,481.5C 150.307,481.953 146.307,483.119 142.5,485C 141.177,485.816 140.511,486.983 140.5,488.5C 135.366,493.805 130.366,499.305 125.5,505C 120.638,508.695 115.638,512.195 110.5,515.5C 109.386,514.277 109.219,512.944 110,511.5C 118.375,497.674 123.209,482.674 124.5,466.5C 125.66,454.34 125.827,442.007 125,429.5C 123.614,421.394 120.114,414.394 114.5,408.5C 114.957,407.702 115.624,407.369 116.5,407.5C 116.833,407.5 117.167,407.5 117.5,407.5C 125.434,413.143 133.767,418.309 142.5,423C 147.085,424.225 151.752,424.725 156.5,424.5C 154.062,415.998 151.896,407.331 150,398.5C 149.192,396.421 149.359,394.421 150.5,392.5C 156.904,400.763 163.904,408.597 171.5,416C 174.243,418.038 177.243,419.538 180.5,420.5C 192.651,428.35 194.318,426.683 185.5,415.5C 185.002,412.533 184.669,409.533 184.5,406.5C 185.501,400.849 186.001,395.182 186,389.5C 183.748,387.073 180.914,386.073 177.5,386.5C 177.215,388.288 177.548,389.955 178.5,391.5C 181.5,389.774 183.166,390.608 183.5,394C 183.187,397.311 181.353,398.811 178,398.5C 171.978,396.383 169.811,392.05 171.5,385.5C 172.723,382.602 174.723,380.269 177.5,378.5C 182.264,379.139 186.097,381.472 189,385.5C 187.591,379.779 186.091,374.112 184.5,368.5C 183.127,368.657 181.793,368.49 180.5,368C 175.431,365.816 170.431,363.483 165.5,361C 155.608,352.11 155.275,343.11 164.5,334C 167.593,332.974 169.927,333.807 171.5,336.5C 162.851,336.625 160.018,340.625 163,348.5C 166.636,354.177 171.803,356.01 178.5,354C 180.881,352.491 181.881,350.325 181.5,347.5C 178.324,330.96 168.657,324.627 152.5,328.5C 149.915,328.568 147.582,329.068 145.5,330C 135.673,317.203 131.507,302.703 133,286.5C 134.122,280.92 136.788,276.253 141,272.5C 139.032,281.008 138.365,289.674 139,298.5C 139.967,304.749 142.467,310.249 146.5,315C 147.5,315.667 148.5,315.667 149.5,315C 151.188,313.312 152.855,311.645 154.5,310C 148.515,298.932 146.349,287.099 148,274.5C 151.155,270.497 154.988,267.497 159.5,265.5C 160.043,265.44 160.376,265.107 160.5,264.5C 156.555,263.509 152.555,263.176 148.5,263.5C 146.016,261.455 145.016,258.788 145.5,255.5C 140.874,254.7 137.04,256.034 134,259.5C 131.628,265.246 128.962,270.913 126,276.5C 121.55,283.654 116.217,284.32 110,278.5C 106.776,273.638 105.776,268.304 107,262.5C 110.053,258.749 113.219,258.583 116.5,262C 113.118,266.788 114.284,269.622 120,270.5C 123.511,269.518 125.678,267.185 126.5,263.5C 127.16,262.036 127.493,260.369 127.5,258.5C 127.618,255.514 126.952,252.848 125.5,250.5C 123.945,247.06 122.112,243.727 120,240.5C 114.633,235.468 109.633,230.135 105,224.5C 104.333,223.833 104.333,223.167 105,222.5C 106.129,224.141 107.629,225.141 109.5,225.5C 111.651,227.718 114.318,229.052 117.5,229.5C 120.55,230.935 123.883,231.602 127.5,231.5C 129.696,231.495 131.696,231.162 133.5,230.5C 135.288,230.785 136.955,230.452 138.5,229.5C 135.843,226.853 133.677,223.853 132,220.5C 131.333,217.167 131.333,213.833 132,210.5C 133.997,206.898 136.831,205.898 140.5,207.5C 139.251,209.67 138.251,212.004 137.5,214.5C 137.801,216.422 138.467,218.088 139.5,219.5C 142.111,227.029 143.611,227.029 144,219.5C 145.715,216.603 148.215,215.269 151.5,215.5C 151.398,222.08 154.398,224.413 160.5,222.5C 162.13,219.104 161.463,216.271 158.5,214C 154.526,211.456 150.193,209.956 145.5,209.5C 150.103,200.948 156.77,199.114 165.5,204C 167.333,205.833 169.167,207.667 171,209.5C 173.678,204.534 172.512,200.867 167.5,198.5C 164.814,197.009 161.814,196.343 158.5,196.5C 156.304,196.505 154.304,196.838 152.5,197.5C 149.951,197.387 147.618,198.054 145.5,199.5C 144.893,199.376 144.56,199.043 144.5,198.5C 145.974,197.564 146.974,196.23 147.5,194.5C 151.631,192.246 153.797,188.912 154,184.5C 151.033,182.71 151.033,181.377 154,180.5C 163.361,181.88 171.361,185.88 178,192.5C 179.411,190.35 180.245,188.016 180.5,185.5C 171.402,184.456 164.402,180.122 159.5,172.5C 154.532,166.197 149.198,160.197 143.5,154.5C 142.284,152.52 141.451,150.52 141,148.5C 145.837,153.517 151.337,157.517 157.5,160.5C 160.515,162.674 163.849,164.341 167.5,165.5C 168.808,166.232 170.142,167.066 171.5,168C 177.681,168.819 183.681,168.653 189.5,167.5C 190.404,166.791 190.737,165.791 190.5,164.5C 191.404,165.209 191.737,166.209 191.5,167.5C 193.415,167.784 195.081,167.451 196.5,166.5C 197.492,166.672 198.158,166.338 198.5,165.5C 200.099,165.768 201.432,165.434 202.5,164.5C 205.09,164.082 207.423,163.082 209.5,161.5C 211.376,155.485 210.376,150.152 206.5,145.5 Z"/>
  <path fill="#1b1b1d" d="M 329.5,157.5 C 324.797,157.563 320.13,157.229 315.5,156.5C 309.958,155.772 304.958,156.772 300.5,159.5C 299.041,159.433 297.708,159.766 296.5,160.5C 296.062,160.565 295.728,160.399 295.5,160C 296.381,159.292 297.047,158.458 297.5,157.5C 298.5,156.833 299.5,156.167 300.5,155.5C 301.167,155.5 301.833,155.5 302.5,155.5C 307.007,153.887 311.673,153.221 316.5,153.5C 316.833,153.5 317.167,153.5 317.5,153.5C 321.044,155.569 324.71,155.902 328.5,154.5C 333.638,153.191 336.471,149.858 337,144.5C 338.082,150.914 335.582,155.248 329.5,157.5 Z"/>
  <path fill="#9a9a9a" d="M 317.5,153.5 C 321.135,154.114 324.802,154.448 328.5,154.5C 324.71,155.902 321.044,155.569 317.5,153.5 Z"/>
  <path fill="#999999" d="M 213.5,151.5 C 213.917,154.159 214.917,156.492 216.5,158.5C 216.189,159.478 215.522,160.145 214.5,160.5C 213.516,157.572 213.183,154.572 213.5,151.5 Z"/>
  <path fill="#6f6f6f" d="M 315.5,156.5 C 320.13,157.229 324.797,157.563 329.5,157.5C 329.158,158.338 328.492,158.672 327.5,158.5C 323.183,158.917 319.183,158.25 315.5,156.5 Z"/>
  <path fill="#dfdee0" d="M 315.5,156.5 C 319.183,158.25 323.183,158.917 327.5,158.5C 329.004,159.895 330.004,162.228 330.5,165.5C 327.358,161.519 323.191,159.853 318,160.5C 312.412,160.355 307.246,161.688 302.5,164.5C 300.744,163.448 300.077,161.781 300.5,159.5C 304.958,156.772 309.958,155.772 315.5,156.5 Z"/>
  <path fill="#2a2b43" d="M 297.5,157.5 C 297.047,158.458 296.381,159.292 295.5,160C 295.728,160.399 296.062,160.565 296.5,160.5C 292.939,163.944 290.106,167.944 288,172.5C 286.887,174.329 285.387,175.163 283.5,175C 286.629,171.248 289.129,167.081 291,162.5C 292.777,160.21 294.944,158.543 297.5,157.5 Z"/>
  <path fill="#414141" d="M 196.5,166.5 C 195.081,167.451 193.415,167.784 191.5,167.5C 191.737,166.209 191.404,165.209 190.5,164.5C 190.738,162.355 191.738,160.688 193.5,159.5C 193.833,159.833 194.167,160.167 194.5,160.5C 192.914,162.173 192.247,164.173 192.5,166.5C 193.833,166.5 195.167,166.5 196.5,166.5 Z"/>
  <path fill="#27272a" d="M 330.5,165.5 C 330.5,165.833 330.5,166.167 330.5,166.5C 330.649,167.552 330.483,168.552 330,169.5C 329.315,166.943 327.815,165.109 325.5,164C 318.433,162.807 311.767,163.64 305.5,166.5C 305.167,166.5 304.833,166.5 304.5,166.5C 302.02,168.05 299.353,168.883 296.5,169C 298.389,167.236 300.389,165.736 302.5,164.5C 307.246,161.688 312.412,160.355 318,160.5C 323.191,159.853 327.358,161.519 330.5,165.5 Z"/>
  <path fill="#7c7c7c" d="M 202.5,164.5 C 201.432,165.434 200.099,165.768 198.5,165.5C 199.045,163.407 199.878,161.407 201,159.5C 201.595,160.899 201.428,162.232 200.5,163.5C 200.957,164.298 201.624,164.631 202.5,164.5 Z"/>
  <path fill="#8d8d8d" d="M 240.5,159.5 C 241.3,161.741 242.966,162.741 245.5,162.5C 245.67,163.822 245.337,164.989 244.5,166C 247.992,165.93 250.992,166.763 253.5,168.5C 250.253,167.748 246.919,167.248 243.5,167C 240.373,165.093 239.373,162.593 240.5,159.5 Z"/>
  <path fill="#e8e7e8" d="M 315.5,166.5 C 311.616,167.724 307.95,169.391 304.5,171.5C 303.503,171.53 302.836,171.03 302.5,170C 302.978,168.697 303.645,167.531 304.5,166.5C 304.833,166.5 305.167,166.5 305.5,166.5C 311.717,164.732 318.05,164.232 324.5,165C 321.305,165.181 318.305,165.681 315.5,166.5 Z"/>
  <path fill="#24242a" d="M 315.5,166.5 C 318.167,166.5 320.833,166.5 323.5,166.5C 320.977,167.384 318.31,168.218 315.5,169C 313.937,169.759 312.937,170.926 312.5,172.5C 312.5,173.5 312.5,174.5 312.5,175.5C 313.791,175.263 314.791,175.596 315.5,176.5C 311.773,176.495 308.773,177.829 306.5,180.5C 302.479,181.483 301.145,183.816 302.5,187.5C 304.618,188.946 306.951,189.613 309.5,189.5C 309.918,190.222 310.584,190.722 311.5,191C 307.789,191.439 304.122,191.106 300.5,190C 297.96,188.96 296.293,187.126 295.5,184.5C 294.817,184.863 294.15,185.196 293.5,185.5C 292.833,185.5 292.5,185.167 292.5,184.5C 296.528,180.141 300.528,175.807 304.5,171.5C 307.95,169.391 311.616,167.724 315.5,166.5 Z"/>
  <path fill="#979797" d="M 167.5,165.5 C 174.621,167.295 181.954,167.962 189.5,167.5C 183.681,168.653 177.681,168.819 171.5,168C 170.142,167.066 168.808,166.232 167.5,165.5 Z"/>
  <path fill="#7d7d7d" d="M 323.5,166.5 C 324.756,166.461 325.756,166.961 326.5,168C 323.086,168.297 319.753,168.964 316.5,170C 320.025,170.179 323.359,170.679 326.5,171.5C 321.77,171.283 317.103,171.617 312.5,172.5C 312.937,170.926 313.937,169.759 315.5,169C 318.31,168.218 320.977,167.384 323.5,166.5 Z"/>
  <path fill="#c5c5c5" d="M 330.5,166.5 C 331.258,168.981 331.258,171.648 330.5,174.5C 329.167,173.5 327.833,172.5 326.5,171.5C 323.359,170.679 320.025,170.179 316.5,170C 319.753,168.964 323.086,168.297 326.5,168C 325.756,166.961 324.756,166.461 323.5,166.5C 320.833,166.5 318.167,166.5 315.5,166.5C 318.305,165.681 321.305,165.181 324.5,165C 318.05,164.232 311.717,164.732 305.5,166.5C 311.767,163.64 318.433,162.807 325.5,164C 327.815,165.109 329.315,166.943 330,169.5C 330.483,168.552 330.649,167.552 330.5,166.5 Z"/>
  <path fill="#101010" d="M 326.5,171.5 C 327.833,172.5 329.167,173.5 330.5,174.5C 330.973,180.732 330.139,181.399 328,176.5C 327.846,180.098 326.846,183.431 325,186.5C 323.152,189.041 320.652,190.041 317.5,189.5C 316.833,188.167 315.833,187.167 314.5,186.5C 313.859,185.518 313.193,184.518 312.5,183.5C 314.771,182.637 317.105,182.637 319.5,183.5C 318.615,180.939 317.282,178.606 315.5,176.5C 314.791,175.596 313.791,175.263 312.5,175.5C 312.5,174.5 312.5,173.5 312.5,172.5C 317.103,171.617 321.77,171.283 326.5,171.5 Z"/>
  <path fill="#c5c6e0" d="M 289.5,140.5 C 290.609,140.557 291.609,140.89 292.5,141.5C 294.42,142.065 296.087,143.065 297.5,144.5C 296.903,144.735 296.57,145.235 296.5,146C 297.245,148.478 297.911,150.978 298.5,153.5C 298.747,154.713 299.414,155.38 300.5,155.5C 299.5,156.167 298.5,156.833 297.5,157.5C 294.944,158.543 292.777,160.21 291,162.5C 289.129,167.081 286.629,171.248 283.5,175C 285.387,175.163 286.887,174.329 288,172.5C 290.106,167.944 292.939,163.944 296.5,160.5C 297.708,159.766 299.041,159.433 300.5,159.5C 300.077,161.781 300.744,163.448 302.5,164.5C 300.389,165.736 298.389,167.236 296.5,169C 299.353,168.883 302.02,168.05 304.5,166.5C 303.645,167.531 302.978,168.697 302.5,170C 302.836,171.03 303.503,171.53 304.5,171.5C 300.528,175.807 296.528,180.141 292.5,184.5C 291.406,182.164 290.073,182.164 288.5,184.5C 281.765,185.397 275.099,185.397 268.5,184.5C 265.845,187.534 265.845,190.534 268.5,193.5C 270.031,194.925 269.698,195.591 267.5,195.5C 266.5,193.5 265.5,191.5 264.5,189.5C 262.597,186.33 263.263,183.997 266.5,182.5C 273.298,181.935 279.965,181.601 286.5,181.5C 289.243,180.015 290.409,177.682 290,174.5C 289.293,176.081 288.46,177.581 287.5,179C 284.493,179.301 281.493,179.135 278.5,178.5C 274.702,177.517 270.702,177.183 266.5,177.5C 266.414,176.504 266.748,175.671 267.5,175C 269.556,174.689 271.556,174.189 273.5,173.5C 274.192,174.025 274.692,174.692 275,175.5C 276.893,174.673 279.059,174.673 281.5,175.5C 282.472,171.533 283.305,167.533 284,163.5C 284.645,162.354 285.478,161.354 286.5,160.5C 284.703,159.305 283.703,157.638 283.5,155.5C 286.09,156.252 288.59,157.252 291,158.5C 292.877,157.747 294.711,156.914 296.5,156C 296.038,154.278 295.872,152.445 296,150.5C 294.051,146.912 291.885,143.579 289.5,140.5 Z"/>
  <path fill="#d2d2d2" d="M 251.5,190.5 C 251.5,191.167 251.167,191.5 250.5,191.5C 246.485,187.644 242.985,183.311 240,178.5C 239.184,179.823 238.017,180.489 236.5,180.5C 235.494,180.062 235.494,179.396 236.5,178.5C 237.789,175.678 239.789,175.011 242.5,176.5C 245.526,181.184 248.526,185.851 251.5,190.5 Z"/>
  <path fill="#1c1d2d" d="M 265.5,177.5 C 265.833,177.5 266.167,177.5 266.5,177.5C 270.702,177.183 274.702,177.517 278.5,178.5C 281.087,179.749 283.754,180.749 286.5,181.5C 280.178,180.723 273.845,180.556 267.5,181C 266.944,181.383 266.611,181.883 266.5,182.5C 263.263,183.997 262.597,186.33 264.5,189.5C 262.964,187.975 261.964,185.975 261.5,183.5C 260.914,183.709 260.414,184.043 260,184.5C 259.51,183.207 259.343,181.873 259.5,180.5C 262.249,181.489 264.249,180.489 265.5,177.5 Z"/>
  <path fill="#969696" d="M 236.5,178.5 C 235.494,179.396 235.494,180.062 236.5,180.5C 223.396,181.206 223.396,180.539 236.5,178.5 Z"/>
  <path fill="#4f4f69" d="M 286.5,181.5 C 283.754,180.749 281.087,179.749 278.5,178.5C 281.493,179.135 284.493,179.301 287.5,179C 288.46,177.581 289.293,176.081 290,174.5C 290.409,177.682 289.243,180.015 286.5,181.5 Z"/>
  <path fill="#6e6f83" d="M 286.5,181.5 C 279.965,181.601 273.298,181.935 266.5,182.5C 266.611,181.883 266.944,181.383 267.5,181C 273.845,180.556 280.178,180.723 286.5,181.5 Z"/>
  <path fill="#2d2e40" d="M 288.5,184.5 C 289.043,184.56 289.376,184.893 289.5,185.5C 288.757,186.182 288.091,186.849 287.5,187.5C 285.244,188.923 282.744,189.59 280,189.5C 276.575,188.399 273.075,187.899 269.5,188C 268.272,189.49 268.272,190.99 269.5,192.5C 269.5,193.167 269.167,193.5 268.5,193.5C 265.845,190.534 265.845,187.534 268.5,184.5C 275.099,185.397 281.765,185.397 288.5,184.5 Z"/>
  <path fill="#b7b9c2" d="M 306.5,180.5 C 305.925,184.155 306.925,187.155 309.5,189.5C 306.951,189.613 304.618,188.946 302.5,187.5C 301.145,183.816 302.479,181.483 306.5,180.5 Z"/>
  <path fill="#efefef" d="M 315.5,176.5 C 317.282,178.606 318.615,180.939 319.5,183.5C 317.105,182.637 314.771,182.637 312.5,183.5C 313.193,184.518 313.859,185.518 314.5,186.5C 314.414,187.496 314.748,188.329 315.5,189C 313.527,189.495 311.527,189.662 309.5,189.5C 306.925,187.155 305.925,184.155 306.5,180.5C 308.773,177.829 311.773,176.495 315.5,176.5 Z"/>
  <path fill="#72728a" d="M 292.5,184.5 C 292.5,185.167 292.833,185.5 293.5,185.5C 292.01,187.28 290.01,187.946 287.5,187.5C 288.091,186.849 288.757,186.182 289.5,185.5C 289.376,184.893 289.043,184.56 288.5,184.5C 290.073,182.164 291.406,182.164 292.5,184.5 Z"/>
  <path fill="#616161" d="M 347.5,189.5 C 346.596,190.209 346.263,191.209 346.5,192.5C 345.2,189.976 345.2,187.309 346.5,184.5C 347.452,186.045 347.785,187.712 347.5,189.5 Z"/>
  <path fill="#232323" d="M 335.5,175.5 C 339.951,176.44 341.784,179.107 341,183.5C 336.941,187.056 333.441,191.056 330.5,195.5C 330.167,195 329.833,194.5 329.5,194C 330.53,191.44 331.697,188.94 333,186.5C 335.035,184.76 336.869,182.926 338.5,181C 337.259,179.269 336.259,177.436 335.5,175.5 Z"/>
  <path fill="#c5c7df" d="M 309.5,189.5 C 311.527,189.662 313.527,189.495 315.5,189C 314.748,188.329 314.414,187.496 314.5,186.5C 315.833,187.167 316.833,188.167 317.5,189.5C 315.055,191.867 312.055,192.867 308.5,192.5C 308.133,196.055 309.133,199.055 311.5,201.5C 310.833,201.5 310.167,201.5 309.5,201.5C 302.662,199.164 297.496,194.83 294,188.5C 294.025,190.92 294.691,193.253 296,195.5C 298.04,197.37 299.873,199.37 301.5,201.5C 300.175,202.953 299.342,202.619 299,200.5C 297.913,202.932 297.413,202.598 297.5,199.5C 296.325,199.719 295.325,199.386 294.5,198.5C 293.863,196.697 292.697,195.364 291,194.5C 290.517,193.552 290.351,192.552 290.5,191.5C 285.156,191.334 279.823,191.501 274.5,192C 273.364,193.145 272.364,194.312 271.5,195.5C 271.715,193.821 271.048,192.821 269.5,192.5C 268.272,190.99 268.272,189.49 269.5,188C 273.075,187.899 276.575,188.399 280,189.5C 282.744,189.59 285.244,188.923 287.5,187.5C 290.01,187.946 292.01,187.28 293.5,185.5C 294.15,185.196 294.817,184.863 295.5,184.5C 296.293,187.126 297.96,188.96 300.5,190C 304.122,191.106 307.789,191.439 311.5,191C 310.584,190.722 309.918,190.222 309.5,189.5 Z"/>
  <path fill="#878787" d="M 251.5,190.5 C 255.869,194.479 254.869,196.146 248.5,195.5C 248.918,194.778 249.584,194.278 250.5,194C 248.803,193.616 247.137,193.782 245.5,194.5C 245.5,194.167 245.5,193.833 245.5,193.5C 247.306,192.976 248.972,192.309 250.5,191.5C 251.167,191.5 251.5,191.167 251.5,190.5 Z"/>
  <path fill="#797c8f" d="M 269.5,192.5 C 271.048,192.821 271.715,193.821 271.5,195.5C 270.194,196.467 269.527,197.801 269.5,199.5C 268.655,198.329 267.989,196.995 267.5,195.5C 269.698,195.591 270.031,194.925 268.5,193.5C 269.167,193.5 269.5,193.167 269.5,192.5 Z"/>
  <path fill="#535353" d="M 152.5,197.5 C 154.304,196.838 156.304,196.505 158.5,196.5C 161.814,196.343 164.814,197.009 167.5,198.5C 162.537,197.746 157.537,197.413 152.5,197.5 Z"/>
  <path fill="#1e1e1e" d="M 347.5,189.5 C 351.318,196.799 354.818,204.132 358,211.5C 351.852,206.529 348.019,200.196 346.5,192.5C 346.263,191.209 346.596,190.209 347.5,189.5 Z"/>
  <path fill="#1c1d30" d="M 309.5,201.5 C 311.292,202.309 313.292,202.809 315.5,203C 312.518,203.498 309.518,203.665 306.5,203.5C 304.716,203.107 303.05,202.441 301.5,201.5C 299.873,199.37 298.04,197.37 296,195.5C 294.691,193.253 294.025,190.92 294,188.5C 297.496,194.83 302.662,199.164 309.5,201.5 Z"/>
  <path fill="#3a393b" d="M 321.5,202.5 C 316.566,204.662 311.566,204.995 306.5,203.5C 309.518,203.665 312.518,203.498 315.5,203C 313.292,202.809 311.292,202.309 309.5,201.5C 310.167,201.5 310.833,201.5 311.5,201.5C 314.187,201.664 316.854,201.497 319.5,201C 321.691,199.081 324.024,197.747 326.5,197C 325.308,199.355 323.641,201.188 321.5,202.5 Z"/>
  <path fill="#d0d3f5" d="M 301.5,201.5 C 301.5,202.5 301.5,203.5 301.5,204.5C 302.552,204.351 303.552,204.517 304.5,205C 304.167,205.333 303.833,205.667 303.5,206C 305.081,206.707 306.581,207.54 308,208.5C 310.905,226.963 313.239,245.63 315,264.5C 315.417,265.756 316.25,266.423 317.5,266.5C 317.5,268.167 317.5,269.833 317.5,271.5C 318.028,287.168 318.195,302.834 318,318.5C 316.583,319.078 315.75,320.078 315.5,321.5C 313.121,318.465 310.121,316.131 306.5,314.5C 298.229,305.057 289.729,295.724 281,286.5C 275.187,279.372 272.021,271.205 271.5,262C 272.245,254.934 273.911,248.101 276.5,241.5C 277.506,241.062 277.506,240.396 276.5,239.5C 277.951,236.19 278.618,232.69 278.5,229C 278.217,218.319 275.217,208.486 269.5,199.5C 269.527,197.801 270.194,196.467 271.5,195.5C 272.364,194.312 273.364,193.145 274.5,192C 279.823,191.501 285.156,191.334 290.5,191.5C 290.351,192.552 290.517,193.552 291,194.5C 292.697,195.364 293.863,196.697 294.5,198.5C 295.325,199.386 296.325,199.719 297.5,199.5C 297.413,202.598 297.913,202.932 299,200.5C 299.342,202.619 300.175,202.953 301.5,201.5 Z"/>
  <path fill="#c3c3c3" d="M 248.5,195.5 C 247.236,197.772 247.402,200.105 249,202.5C 252.333,204.667 255.166,207.334 257.5,210.5C 259.248,212.16 259.748,214.16 259,216.5C 255.667,211.833 251.667,207.833 247,204.5C 244.437,201.456 243.937,198.123 245.5,194.5C 247.137,193.782 248.803,193.616 250.5,194C 249.584,194.278 248.918,194.778 248.5,195.5 Z"/>
  <path fill="#c7c7c7" d="M 240.5,201.5 C 246.9,206.281 251.9,212.281 255.5,219.5C 255.376,220.107 255.043,220.44 254.5,220.5C 247.456,209.958 238.123,202.124 226.5,197C 231.758,196.648 236.425,198.148 240.5,201.5 Z"/>
  <path fill="#1b1b1b" d="M 245.5,193.5 C 245.5,193.833 245.5,194.167 245.5,194.5C 243.937,198.123 244.437,201.456 247,204.5C 251.667,207.833 255.667,211.833 259,216.5C 259.748,214.16 259.248,212.16 257.5,210.5C 258.496,210.586 259.329,210.252 260,209.5C 261.04,214.637 260.04,219.303 257,223.5C 255.955,222.627 255.122,221.627 254.5,220.5C 255.043,220.44 255.376,220.107 255.5,219.5C 251.9,212.281 246.9,206.281 240.5,201.5C 241.75,201.423 242.583,200.756 243,199.5C 243.305,197.443 243.305,195.443 243,193.5C 243.77,192.402 244.603,192.402 245.5,193.5 Z"/>
  <path fill="#878895" d="M 140.5,207.5 C 141.097,207.735 141.43,208.235 141.5,209C 139.739,212.225 139.072,215.725 139.5,219.5C 138.467,218.088 137.801,216.422 137.5,214.5C 138.251,212.004 139.251,209.67 140.5,207.5 Z"/>
  <path fill="#a0a0a0" d="M 192.5,219.5 C 191.596,220.209 191.263,221.209 191.5,222.5C 189.896,217.087 190.396,211.753 193,206.5C 193.837,204.993 195.004,204.493 196.5,205C 192.973,209.166 191.64,213.999 192.5,219.5 Z"/>
  <path fill="#1d1d1d" d="M 344.5,73.5 C 347.596,79.3668 350.929,85.0334 354.5,90.5C 357.638,97.4478 360.805,104.448 364,111.5C 366.05,118.382 366.717,125.382 366,132.5C 359.893,144.144 357.56,156.478 359,169.5C 361.479,175.125 364.479,180.458 368,185.5C 378,196.833 388.667,207.5 400,217.5C 405.871,227.915 404.371,237.082 395.5,245C 389.952,248.572 384.452,252.072 379,255.5C 379.278,262.485 382.278,268.152 388,272.5C 388.667,274.833 388.667,277.167 388,279.5C 385.084,284.42 381.418,288.753 377,292.5C 376.517,293.448 376.351,294.448 376.5,295.5C 375.508,295.328 374.842,295.662 374.5,296.5C 373.518,295.859 372.518,295.193 371.5,294.5C 371.002,295.603 370.669,296.603 370.5,297.5C 368.591,296.652 366.591,296.318 364.5,296.5C 364.167,296.5 363.833,296.5 363.5,296.5C 359.018,295.674 354.351,295.174 349.5,295C 351.058,294.79 352.391,294.29 353.5,293.5C 360.052,293.02 366.719,292.687 373.5,292.5C 373.177,288.774 373.511,285.107 374.5,281.5C 375.5,283.5 376.5,285.5 377.5,287.5C 380.577,284.591 383.077,281.258 385,277.5C 385.877,275.326 385.377,273.659 383.5,272.5C 381.626,271.715 379.626,271.048 377.5,270.5C 373.517,267.884 371.183,264.217 370.5,259.5C 370.216,257.585 370.549,255.919 371.5,254.5C 372.167,256.167 372.833,257.833 373.5,259.5C 374.214,262.593 375.714,265.26 378,267.5C 378.167,267.167 378.333,266.833 378.5,266.5C 376.268,262.804 375.268,258.804 375.5,254.5C 376.29,253.206 377.29,252.039 378.5,251C 383.147,248.366 387.813,245.699 392.5,243C 400.815,236.67 402.648,228.836 398,219.5C 385.326,208.493 373.66,196.493 363,183.5C 354.561,171.11 353.394,158.11 359.5,144.5C 357.808,143.799 356.142,144.133 354.5,145.5C 353.833,145.5 353.5,145.167 353.5,144.5C 359.881,141.071 363.214,135.738 363.5,128.5C 362.074,115.555 358.074,103.555 351.5,92.5C 348.833,86.5 346.167,80.5 343.5,74.5C 343.5,73.8333 343.833,73.5 344.5,73.5 Z"/>
  <path fill="#989898" d="M 347.5,216.5 C 346.833,217.833 346.167,219.167 345.5,220.5C 345.183,217.428 345.516,214.428 346.5,211.5C 347.452,213.045 347.785,214.712 347.5,216.5 Z"/>
  <path fill="#858585" d="M 360.5,222.5 C 358.097,222.448 355.764,222.781 353.5,223.5C 354.312,222.007 355.645,221.34 357.5,221.5C 358.726,221.52 359.726,221.853 360.5,222.5 Z"/>
  <path fill="#1c1c1c" d="M 360.5,222.5 C 361.391,223.11 362.391,223.443 363.5,223.5C 361.167,224.167 358.833,224.833 356.5,225.5C 354.871,226.625 353.371,227.959 352,229.5C 350.09,235.985 351.923,240.985 357.5,244.5C 358.263,245.268 359.263,245.768 360.5,246C 359.207,246.49 357.873,246.657 356.5,246.5C 351.656,244.499 348.989,240.832 348.5,235.5C 347.465,230.274 349.132,226.274 353.5,223.5C 355.764,222.781 358.097,222.448 360.5,222.5 Z"/>
  <path fill="#434343" d="M 363.5,223.5 C 367.449,224.772 371.449,225.938 375.5,227C 369.113,227.139 362.78,226.639 356.5,225.5C 358.833,224.833 361.167,224.167 363.5,223.5 Z"/>
  <path fill="#c5c5c5" d="M 227.5,229.5 C 222.759,231.317 217.759,231.984 212.5,231.5C 203.862,227.884 201.696,221.884 206,213.5C 206.837,211.993 208.004,211.493 209.5,212C 203.91,217.714 204.244,223.047 210.5,228C 219.795,229.929 227.629,227.429 234,220.5C 235.214,213.142 233.048,206.976 227.5,202C 227.833,201.833 228.167,201.667 228.5,201.5C 233.304,205.444 236.304,210.444 237.5,216.5C 236.798,222.923 233.465,227.256 227.5,229.5 Z"/>
  <path fill="#52515b" d="M 117.5,229.5 C 122.805,230.194 128.138,230.528 133.5,230.5C 131.696,231.162 129.696,231.495 127.5,231.5C 123.883,231.602 120.55,230.935 117.5,229.5 Z"/>
  <path fill="#989898" d="M 248.5,230.5 C 247.791,229.596 246.791,229.263 245.5,229.5C 245.611,228.883 245.944,228.383 246.5,228C 251.648,226.891 256.315,227.891 260.5,231C 263.751,235.514 264.251,240.347 262,245.5C 264.132,234.79 259.632,229.79 248.5,230.5 Z"/>
  <path fill="#fbfbfb" d="M 348.5,235.5 C 348.989,240.832 351.656,244.499 356.5,246.5C 359.897,247.198 363.397,247.865 367,248.5C 367.47,247.423 367.303,246.423 366.5,245.5C 367.806,245.121 369.139,244.788 370.5,244.5C 371.452,246.045 371.785,247.712 371.5,249.5C 369.007,249.131 368.34,249.797 369.5,251.5C 369.194,254.385 369.527,257.052 370.5,259.5C 371.183,264.217 373.517,267.884 377.5,270.5C 376.167,271.167 374.833,271.833 373.5,272.5C 371.692,272.491 370.025,272.991 368.5,274C 364.783,277.385 360.783,280.385 356.5,283C 353.577,285.416 351.243,288.25 349.5,291.5C 344.14,295.16 344.473,298.493 350.5,301.5C 356.732,307.119 362.399,313.285 367.5,320C 363.922,321.567 361.922,324.233 361.5,328C 362.121,332.651 363.288,337.151 365,341.5C 365.694,345.554 365.527,349.554 364.5,353.5C 357.809,352.399 351.143,351.232 344.5,350C 337.174,349.5 329.841,349.334 322.5,349.5C 321.766,348.292 321.433,346.959 321.5,345.5C 321.214,342.772 321.547,339.939 322.5,337C 322.252,335.284 321.585,333.784 320.5,332.5C 322.475,330.455 322.475,328.788 320.5,327.5C 320.814,323.362 320.814,319.195 320.5,315C 320.667,313.833 320.833,312.667 321,311.5C 321.649,314.937 322.149,315.104 322.5,312C 321.398,309.461 321.398,306.961 322.5,304.5C 321.228,300.183 320.562,295.683 320.5,291C 319.84,280.018 319.506,269.184 319.5,258.5C 319.369,254.834 320.869,253.834 324,255.5C 325.482,253.219 327.149,253.219 329,255.5C 330.268,253.519 331.434,251.519 332.5,249.5C 335.141,247.196 337.808,244.862 340.5,242.5C 341.458,242.047 342.292,241.381 343,240.5C 343.471,242.246 344.138,243.913 345,245.5C 345.333,242.833 345.667,240.167 346,237.5C 346.417,236.244 347.25,235.577 348.5,235.5 Z"/>
  <path fill="#d3d3eb" d="M 301.5,201.5 C 303.05,202.441 304.716,203.107 306.5,203.5C 311.566,204.995 316.566,204.662 321.5,202.5C 321.047,203.458 320.381,204.292 319.5,205C 316.447,205.179 313.447,205.679 310.5,206.5C 314.264,226.331 316.597,246.331 317.5,266.5C 316.25,266.423 315.417,265.756 315,264.5C 313.239,245.63 310.905,226.963 308,208.5C 306.581,207.54 305.081,206.707 303.5,206C 303.833,205.667 304.167,205.333 304.5,205C 303.552,204.517 302.552,204.351 301.5,204.5C 301.5,203.5 301.5,202.5 301.5,201.5 Z"/>
  <path fill="#d3d3d3" d="M 192.5,219.5 C 195.516,230.229 202.182,237.562 212.5,241.5C 215.186,242.991 218.186,243.657 221.5,243.5C 223.696,243.495 225.696,243.162 227.5,242.5C 233.795,240.051 238.795,235.884 242.5,230C 243.448,229.517 244.448,229.351 245.5,229.5C 246.791,229.263 247.791,229.596 248.5,230.5C 247.078,230.709 245.745,231.209 244.5,232C 240.396,238.619 234.729,243.119 227.5,245.5C 222.463,245.587 217.463,245.254 212.5,244.5C 201.457,241.119 194.457,233.785 191.5,222.5C 191.263,221.209 191.596,220.209 192.5,219.5 Z"/>
  <path fill="#484848" d="M 227.5,229.5 C 227.047,230.458 226.381,231.292 225.5,232C 220.98,232.814 216.646,232.647 212.5,231.5C 217.759,231.984 222.759,231.317 227.5,229.5 Z"/>
  <path fill="#232323" d="M 371.5,242.5 C 369.5,241.833 367.5,241.167 365.5,240.5C 370.241,238.692 375.241,238.192 380.5,239C 381.833,241 381.833,243 380.5,245C 377.794,243.679 374.794,242.846 371.5,242.5 Z"/>
  <path fill="#717171" d="M 365.5,240.5 C 367.5,241.167 369.5,241.833 371.5,242.5C 368.753,242.813 366.086,242.48 363.5,241.5C 363.957,240.702 364.624,240.369 365.5,240.5 Z"/>
  <path fill="#757575" d="M 212.5,241.5 C 217.463,242.254 222.463,242.587 227.5,242.5C 225.696,243.162 223.696,243.495 221.5,243.5C 218.186,243.657 215.186,242.991 212.5,241.5 Z"/>
  <path fill="#878787" d="M 212.5,244.5 C 217.463,245.254 222.463,245.587 227.5,245.5C 225.696,246.162 223.696,246.495 221.5,246.5C 218.186,246.657 215.186,245.991 212.5,244.5 Z"/>
  <path fill="#9d9d9d" d="M 357.5,244.5 C 360.57,244.368 363.57,244.701 366.5,245.5C 367.303,246.423 367.47,247.423 367,248.5C 363.397,247.865 359.897,247.198 356.5,246.5C 357.873,246.657 359.207,246.49 360.5,246C 359.263,245.768 358.263,245.268 357.5,244.5 Z"/>
  <path fill="#49494b" d="M 276.5,239.5 C 277.506,240.396 277.506,241.062 276.5,241.5C 273.335,244.741 269.668,246.907 265.5,248C 269.043,244.951 272.709,242.118 276.5,239.5 Z"/>
  <path fill="#252425" d="M 347.5,216.5 C 347.666,220.846 347.499,225.179 347,229.5C 345.334,234.166 343.167,238.499 340.5,242.5C 337.808,244.862 335.141,247.196 332.5,249.5C 328.717,251.486 324.717,252.319 320.5,252C 326.085,248.625 331.585,245.125 337,241.5C 342.608,235.619 345.441,228.619 345.5,220.5C 346.167,219.167 346.833,217.833 347.5,216.5 Z"/>
  <path fill="#757575" d="M 369.5,251.5 C 371.048,251.821 371.715,252.821 371.5,254.5C 370.549,255.919 370.216,257.585 370.5,259.5C 369.527,257.052 369.194,254.385 369.5,251.5 Z"/>
  <path fill="#696975" d="M 125.5,250.5 C 126.952,252.848 127.618,255.514 127.5,258.5C 127.493,260.369 127.16,262.036 126.5,263.5C 126.533,259.131 126.2,254.798 125.5,250.5 Z"/>
  <path fill="#bbbbbb" d="M 218.5,259.5 C 210.714,261.113 205.547,265.779 203,273.5C 200.645,276.13 200.145,275.797 201.5,272.5C 204.251,263.915 209.918,258.081 218.5,255C 227.266,254.581 235.933,254.914 244.5,256C 248.798,254.23 251.298,251.063 252,246.5C 251.794,254.707 247.46,259.041 239,259.5C 234.786,258.236 230.453,257.569 226,257.5C 223.223,257.631 220.723,258.298 218.5,259.5 Z"/>
  <path fill="#717171" d="M 235.5,263.5 C 230.797,263.437 226.13,263.771 221.5,264.5C 224.017,263.027 226.85,262.36 230,262.5C 232.033,262.506 233.866,262.839 235.5,263.5 Z"/>
  <path fill="#828282" d="M 375.5,254.5 C 375.268,258.804 376.268,262.804 378.5,266.5C 378.333,266.833 378.167,267.167 378,267.5C 375.714,265.26 374.214,262.593 373.5,259.5C 374.167,257.833 374.833,256.167 375.5,254.5 Z"/>
  <path fill="#5a5a5c" d="M 148.5,263.5 C 152.555,263.176 156.555,263.509 160.5,264.5C 160.376,265.107 160.043,265.44 159.5,265.5C 155.833,264.833 152.167,264.167 148.5,263.5 Z"/>
  <path fill="#161616" d="M 218.5,259.5 C 218.649,260.552 218.483,261.552 218,262.5C 217.346,261.304 216.846,261.304 216.5,262.5C 217.005,263.919 218.005,264.585 219.5,264.5C 216.958,266.419 214.291,268.252 211.5,270C 216.231,269.151 220.898,267.984 225.5,266.5C 229.514,266.334 233.514,266.501 237.5,267C 240.212,267.639 242.212,269.139 243.5,271.5C 242.167,272.833 242.167,274.167 243.5,275.5C 241.89,278.203 240.89,281.203 240.5,284.5C 241.001,279.847 240.334,275.514 238.5,271.5C 239.332,270.671 238.999,269.838 237.5,269C 233.194,268.088 229.194,268.588 225.5,270.5C 219.741,272.735 214.908,276.401 211,281.5C 209.878,283.624 208.378,285.457 206.5,287C 212.587,283.626 218.254,279.292 223.5,274C 226.432,272.855 229.432,272.022 232.5,271.5C 233.167,271.5 233.833,271.5 234.5,271.5C 231.098,272.635 227.765,273.968 224.5,275.5C 220.413,278.888 216.746,282.722 213.5,287C 213.645,287.772 213.978,288.439 214.5,289C 216.723,289.566 218.723,290.4 220.5,291.5C 219.127,291.343 217.793,291.51 216.5,292C 216.986,294.027 216.986,296.193 216.5,298.5C 213.832,296.664 211.666,294.331 210,291.5C 209.421,292.928 209.588,294.262 210.5,295.5C 209.005,295.585 208.005,294.919 207.5,293.5C 209.043,289.071 207.376,287.404 202.5,288.5C 203.85,287.35 203.684,286.683 202,286.5C 200.042,287.051 198.042,287.385 196,287.5C 192.811,286.955 189.811,285.955 187,284.5C 181.621,285.756 180.288,288.756 183,293.5C 183.399,288.817 185.899,287.317 190.5,289C 191.056,289.383 191.389,289.883 191.5,290.5C 185.193,288.136 183.527,289.803 186.5,295.5C 186.152,297.848 184.818,299.182 182.5,299.5C 183.66,297.797 182.993,297.131 180.5,297.5C 175.849,296.826 174.349,294.159 176,289.5C 179.176,281.847 184.676,279.513 192.5,282.5C 196.713,284.27 200.547,283.604 204,280.5C 205.856,275.397 205.356,275.231 202.5,280C 200.19,280.497 197.857,280.663 195.5,280.5C 194.833,280.5 194.5,280.167 194.5,279.5C 200.032,280.065 201.032,278.232 197.5,274C 198.317,271.628 199.65,271.128 201.5,272.5C 200.145,275.797 200.645,276.13 203,273.5C 205.547,265.779 210.714,261.113 218.5,259.5 Z"/>
  <path fill="#d0d0d0" d="M 235.5,263.5 C 235.918,264.222 236.584,264.722 237.5,265C 233.312,265.176 229.312,265.676 225.5,266.5C 220.898,267.984 216.231,269.151 211.5,270C 214.291,268.252 216.958,266.419 219.5,264.5C 220.167,264.5 220.833,264.5 221.5,264.5C 226.13,263.771 230.797,263.437 235.5,263.5 Z"/>
  <path fill="#999999" d="M 235.5,263.5 C 240.167,264.167 242.833,266.833 243.5,271.5C 242.212,269.139 240.212,267.639 237.5,267C 233.514,266.501 229.514,266.334 225.5,266.5C 229.312,265.676 233.312,265.176 237.5,265C 236.584,264.722 235.918,264.222 235.5,263.5 Z"/>
  <path fill="#808080" d="M 238.5,271.5 C 237.167,271.5 235.833,271.5 234.5,271.5C 233.833,271.5 233.167,271.5 232.5,271.5C 233.609,270.71 234.942,270.21 236.5,270C 232.812,269.55 229.146,269.717 225.5,270.5C 229.194,268.588 233.194,268.088 237.5,269C 238.999,269.838 239.332,270.671 238.5,271.5 Z"/>
  <path fill="#9d9d9d" d="M 377.5,270.5 C 379.626,271.048 381.626,271.715 383.5,272.5C 380.308,272.405 377.308,273.071 374.5,274.5C 376.031,273.075 375.698,272.409 373.5,272.5C 374.833,271.833 376.167,271.167 377.5,270.5 Z"/>
  <path fill="#cecece" d="M 232.5,271.5 C 229.432,272.022 226.432,272.855 223.5,274C 218.254,279.292 212.587,283.626 206.5,287C 208.378,285.457 209.878,283.624 211,281.5C 214.908,276.401 219.741,272.735 225.5,270.5C 229.146,269.717 232.812,269.55 236.5,270C 234.942,270.21 233.609,270.71 232.5,271.5 Z"/>
  <path fill="#e8e8e8" d="M 224.5,275.5 C 229.741,276.409 233.075,279.409 234.5,284.5C 228.63,283.335 227.964,285.002 232.5,289.5C 232.291,290.086 231.957,290.586 231.5,291C 227.848,291.499 224.182,291.665 220.5,291.5C 218.723,290.4 216.723,289.566 214.5,289C 213.978,288.439 213.645,287.772 213.5,287C 216.746,282.722 220.413,278.888 224.5,275.5 Z"/>
  <path fill="#8b8b8b" d="M 192.5,279.5 C 188.102,279.294 183.768,279.627 179.5,280.5C 179.611,279.883 179.944,279.383 180.5,279C 184.689,278.188 188.689,278.355 192.5,279.5 Z"/>
  <path fill="#dddddd" d="M 243.5,275.5 C 245.348,280.084 244.515,284.084 241,287.5C 240.517,286.552 240.351,285.552 240.5,284.5C 240.89,281.203 241.89,278.203 243.5,275.5 Z"/>
  <path fill="#7b7b7b" d="M 192.5,282.5 C 194.527,282.662 196.527,282.495 198.5,282C 197.263,281.768 196.263,281.268 195.5,280.5C 197.857,280.663 200.19,280.497 202.5,280C 205.356,275.231 205.856,275.397 204,280.5C 200.547,283.604 196.713,284.27 192.5,282.5 Z"/>
  <path fill="#242424" d="M 373.5,272.5 C 375.698,272.409 376.031,273.075 374.5,274.5C 370.294,275.776 366.961,278.276 364.5,282C 359.952,285.388 355.286,288.555 350.5,291.5C 350.167,291.5 349.833,291.5 349.5,291.5C 351.243,288.25 353.577,285.416 356.5,283C 360.783,280.385 364.783,277.385 368.5,274C 370.025,272.991 371.692,272.491 373.5,272.5 Z"/>
  <path fill="#cacaca" d="M 192.5,279.5 C 193.167,279.5 193.833,279.5 194.5,279.5C 194.5,280.167 194.833,280.5 195.5,280.5C 196.263,281.268 197.263,281.768 198.5,282C 196.527,282.495 194.527,282.662 192.5,282.5C 184.676,279.513 179.176,281.847 176,289.5C 174.349,294.159 175.849,296.826 180.5,297.5C 179.432,298.434 178.099,298.768 176.5,298.5C 172.35,295.287 171.517,291.287 174,286.5C 175.331,284.004 177.164,282.004 179.5,280.5C 183.768,279.627 188.102,279.294 192.5,279.5 Z"/>
  <path fill="#efefef" d="M 383.5,272.5 C 385.377,273.659 385.877,275.326 385,277.5C 383.077,281.258 380.577,284.591 377.5,287.5C 376.5,285.5 375.5,283.5 374.5,281.5C 373.511,285.107 373.177,288.774 373.5,292.5C 366.719,292.687 360.052,293.02 353.5,293.5C 352.127,293.657 350.793,293.49 349.5,293C 350.056,292.617 350.389,292.117 350.5,291.5C 355.286,288.555 359.952,285.388 364.5,282C 366.961,278.276 370.294,275.776 374.5,274.5C 377.308,273.071 380.308,272.405 383.5,272.5 Z"/>
  <path fill="#d6d5ea" d="M 105.5,149.5 C 106.086,151.243 106.419,153.076 106.5,155C 103.468,165.511 102.801,176.178 104.5,187C 102.959,189.751 102.292,193.417 102.5,198C 102.33,201.864 102.997,205.531 104.5,209C 103.692,209.308 103.025,209.808 102.5,210.5C 102.846,211.696 103.346,211.696 104,210.5C 104.492,211.549 104.326,212.549 103.5,213.5C 104.5,214.833 105.5,216.167 106.5,217.5C 106.154,218.696 105.654,218.696 105,217.5C 104.544,218.744 105.044,219.577 106.5,220C 105.833,220.333 105.167,220.667 104.5,221C 106.392,221.973 108.392,222.64 110.5,223C 108.381,223.342 108.047,224.175 109.5,225.5C 107.629,225.141 106.129,224.141 105,222.5C 104.333,223.167 104.333,223.833 105,224.5C 109.633,230.135 114.633,235.468 120,240.5C 122.112,243.727 123.945,247.06 125.5,250.5C 126.2,254.798 126.533,259.131 126.5,263.5C 125.678,267.185 123.511,269.518 120,270.5C 114.284,269.622 113.118,266.788 116.5,262C 113.219,258.583 110.053,258.749 107,262.5C 105.776,268.304 106.776,273.638 110,278.5C 116.217,284.32 121.55,283.654 126,276.5C 128.962,270.913 131.628,265.246 134,259.5C 137.04,256.034 140.874,254.7 145.5,255.5C 145.016,258.788 146.016,261.455 148.5,263.5C 152.167,264.167 155.833,264.833 159.5,265.5C 154.988,267.497 151.155,270.497 148,274.5C 146.349,287.099 148.515,298.932 154.5,310C 152.855,311.645 151.188,313.312 149.5,315C 148.5,315.667 147.5,315.667 146.5,315C 142.467,310.249 139.967,304.749 139,298.5C 138.365,289.674 139.032,281.008 141,272.5C 136.788,276.253 134.122,280.92 133,286.5C 131.507,302.703 135.673,317.203 145.5,330C 147.582,329.068 149.915,328.568 152.5,328.5C 153.478,350.121 153.811,371.788 153.5,393.5C 154.873,393.657 156.207,393.49 157.5,393C 161.826,389.834 166.493,387.334 171.5,385.5C 169.811,392.05 171.978,396.383 178,398.5C 181.353,398.811 183.187,397.311 183.5,394C 183.166,390.608 181.5,389.774 178.5,391.5C 177.548,389.955 177.215,388.288 177.5,386.5C 180.914,386.073 183.748,387.073 186,389.5C 186.001,395.182 185.501,400.849 184.5,406.5C 184.669,409.533 185.002,412.533 185.5,415.5C 185.662,417.527 185.495,419.527 185,421.5C 183.644,420.62 182.144,420.286 180.5,420.5C 177.243,419.538 174.243,418.038 171.5,416C 163.904,408.597 156.904,400.763 150.5,392.5C 149.359,394.421 149.192,396.421 150,398.5C 151.896,407.331 154.062,415.998 156.5,424.5C 151.752,424.725 147.085,424.225 142.5,423C 133.767,418.309 125.434,413.143 117.5,407.5C 125.37,405.779 133.037,403.279 140.5,400C 141.578,399.326 142.245,398.326 142.5,397C 137.867,388.842 133.034,380.675 128,372.5C 127.897,367.517 126.23,363.184 123,359.5C 110.29,327.327 102.623,293.994 100,259.5C 99.0134,244.181 98.5134,228.848 98.5,213.5C 99.1814,211.842 100.015,210.175 101,208.5C 101.179,197.923 101.679,187.423 102.5,177C 102.043,176.586 101.709,176.086 101.5,175.5C 102.015,168.359 103.015,161.359 104.5,154.5C 104.449,152.9 104.116,151.4 103.5,150C 104.256,148.62 104.922,148.453 105.5,149.5 Z"/>
  <path fill="#c1c1c1" d="M 202.5,288.5 C 198.985,289.919 195.319,290.586 191.5,290.5C 191.389,289.883 191.056,289.383 190.5,289C 185.899,287.317 183.399,288.817 183,293.5C 180.288,288.756 181.621,285.756 187,284.5C 189.811,285.955 192.811,286.955 196,287.5C 198.042,287.385 200.042,287.051 202,286.5C 203.684,286.683 203.85,287.35 202.5,288.5 Z"/>
  <path fill="#cccccc" d="M 250.5,278.5 C 252.153,277.201 253.653,277.534 255,279.5C 255.667,281.5 255.667,283.5 255,285.5C 251.297,288.867 247.964,292.534 245,296.5C 245.025,294.08 245.691,291.747 247,289.5C 249.735,287.268 251.902,284.601 253.5,281.5C 252.812,280.145 251.812,279.145 250.5,278.5 Z"/>
  <path fill="#434343" d="M 374.5,296.5 C 374.842,295.662 375.508,295.328 376.5,295.5C 378.017,295.511 379.184,296.177 380,297.5C 384.461,304.547 384.628,311.714 380.5,319C 378.231,321.023 375.564,321.856 372.5,321.5C 372.918,320.778 373.584,320.278 374.5,320C 373.263,319.768 372.263,319.268 371.5,318.5C 377.007,319.895 380.507,317.895 382,312.5C 382.954,306.36 381.121,301.36 376.5,297.5C 376.158,296.662 375.492,296.328 374.5,296.5 Z"/>
  <path fill="#828282" d="M 374.5,296.5 C 375.492,296.328 376.158,296.662 376.5,297.5C 372.249,298.973 368.249,298.639 364.5,296.5C 366.591,296.318 368.591,296.652 370.5,297.5C 370.669,296.603 371.002,295.603 371.5,294.5C 372.518,295.193 373.518,295.859 374.5,296.5 Z"/>
  <path fill="#f2f2f2" d="M 363.5,296.5 C 363.833,296.5 364.167,296.5 364.5,296.5C 368.249,298.639 372.249,298.973 376.5,297.5C 381.121,301.36 382.954,306.36 382,312.5C 380.507,317.895 377.007,319.895 371.5,318.5C 366.18,313.739 361.18,308.572 356.5,303C 354.922,301.906 353.255,301.072 351.5,300.5C 350.77,299.288 349.77,298.288 348.5,297.5C 353.456,296.506 358.456,296.173 363.5,296.5 Z"/>
  <path fill="#696969" d="M 180.5,297.5 C 182.993,297.131 183.66,297.797 182.5,299.5C 180.265,299.795 178.265,299.461 176.5,298.5C 178.099,298.768 179.432,298.434 180.5,297.5 Z"/>
  <path fill="#cdcdcd" d="M 260.5,287.5 C 264.618,295.401 268.451,303.401 272,311.5C 264.663,305.16 260.83,297.16 260.5,287.5 Z"/>
  <path fill="#646464" d="M 349.5,291.5 C 349.833,291.5 350.167,291.5 350.5,291.5C 350.389,292.117 350.056,292.617 349.5,293C 350.793,293.49 352.127,293.657 353.5,293.5C 352.391,294.29 351.058,294.79 349.5,295C 354.351,295.174 359.018,295.674 363.5,296.5C 358.456,296.173 353.456,296.506 348.5,297.5C 349.77,298.288 350.77,299.288 351.5,300.5C 350.833,300.5 350.5,300.833 350.5,301.5C 344.473,298.493 344.14,295.16 349.5,291.5 Z"/>
  <path fill="#cacaca" d="M 216.5,298.5 C 218.579,300.873 221.246,302.206 224.5,302.5C 227.5,303.167 230.5,303.833 233.5,304.5C 229.253,305.602 224.92,305.768 220.5,305C 216.666,302.332 213.333,299.165 210.5,295.5C 209.588,294.262 209.421,292.928 210,291.5C 211.666,294.331 213.832,296.664 216.5,298.5 Z"/>
  <path fill="#9d9d9d" d="M 233.5,304.5 C 230.5,303.833 227.5,303.167 224.5,302.5C 229.609,303.197 234.276,302.197 238.5,299.5C 239.521,300.002 239.688,300.668 239,301.5C 237.494,303.174 235.661,304.174 233.5,304.5 Z"/>
  <path fill="#1d1d1e" d="M 350.5,301.5 C 350.5,300.833 350.833,300.5 351.5,300.5C 353.255,301.072 354.922,301.906 356.5,303C 361.18,308.572 366.18,313.739 371.5,318.5C 372.263,319.268 373.263,319.768 374.5,320C 373.584,320.278 372.918,320.778 372.5,321.5C 364.941,322.785 362.441,327.118 365,334.5C 367.996,339.77 369.162,345.437 368.5,351.5C 367.5,353.5 366.5,355.5 365.5,357.5C 365.062,356.494 364.396,356.494 363.5,357.5C 363.833,356.167 364.167,354.833 364.5,353.5C 365.527,349.554 365.694,345.554 365,341.5C 363.288,337.151 362.121,332.651 361.5,328C 361.922,324.233 363.922,321.567 367.5,320C 362.399,313.285 356.732,307.119 350.5,301.5 Z"/>
  <path fill="#747474" d="M 261.5,327.5 C 261.768,325.901 261.434,324.568 260.5,323.5C 260.336,320.813 260.503,318.146 261,315.5C 262.714,319.563 262.88,323.563 261.5,327.5 Z"/>
  <path fill="#cbcbcb" d="M 284.5,326.5 C 283.432,327.434 282.099,327.768 280.5,327.5C 269.261,323.905 264.761,327.905 267,339.5C 268.179,342.26 270.012,344.26 272.5,345.5C 273.263,346.268 274.263,346.768 275.5,347C 273.866,347.494 272.199,347.66 270.5,347.5C 263.715,342.3 261.882,335.633 265,327.5C 266.709,324.613 269.209,323.279 272.5,323.5C 276.683,323.879 280.683,324.879 284.5,326.5 Z"/>
  <path fill="#3b3b3b" d="M 284.5,326.5 C 286.167,326.5 287.833,326.5 289.5,326.5C 289.5,327.5 289.5,328.5 289.5,329.5C 286.219,329.58 283.219,328.913 280.5,327.5C 282.099,327.768 283.432,327.434 284.5,326.5 Z"/>
  <path fill="#4e4d5d" d="M 315.5,322.5 C 316.952,324.848 317.618,327.514 317.5,330.5C 317.493,332.369 317.16,334.036 316.5,335.5C 316.533,331.131 316.2,326.798 315.5,322.5 Z"/>
  <path fill="#ccccde" d="M 317.5,271.5 C 318.944,292.814 319.944,314.147 320.5,335.5C 317.944,338.668 316.944,342.334 317.5,346.5C 316.768,345.192 315.934,343.858 315,342.5C 313.67,343.582 312.17,344.249 310.5,344.5C 313.255,341.987 315.255,338.987 316.5,335.5C 317.16,334.036 317.493,332.369 317.5,330.5C 317.618,327.514 316.952,324.848 315.5,322.5C 315.5,322.167 315.5,321.833 315.5,321.5C 315.75,320.078 316.583,319.078 318,318.5C 318.195,302.834 318.028,287.168 317.5,271.5 Z"/>
  <path fill="#c7c7c7" d="M 260.5,323.5 C 261.434,324.568 261.768,325.901 261.5,327.5C 259.198,341.302 251.365,350.302 238,354.5C 234.987,353.955 234.821,352.789 237.5,351C 251.19,346.814 258.857,337.647 260.5,323.5 Z"/>
  <path fill="#b6b4c0" d="M 294.5,339.5 C 295.768,341.67 295.768,343.837 294.5,346C 292.098,344.954 289.432,344.454 286.5,344.5C 284.631,343.835 282.631,343.169 280.5,342.5C 284.962,340.551 289.629,339.551 294.5,339.5 Z"/>
  <path fill="#100f18" d="M 306.5,314.5 C 310.121,316.131 313.121,318.465 315.5,321.5C 315.5,321.833 315.5,322.167 315.5,322.5C 316.2,326.798 316.533,331.131 316.5,335.5C 315.255,338.987 313.255,341.987 310.5,344.5C 305.221,347.476 299.888,350.476 294.5,353.5C 290.366,358.832 291.032,363.499 296.5,367.5C 296.737,368.791 296.404,369.791 295.5,370.5C 290.995,366.828 287.995,362.161 286.5,356.5C 287.117,356.611 287.617,356.944 288,357.5C 289.692,355.641 291.192,353.641 292.5,351.5C 293.651,350.269 294.817,350.269 296,351.5C 296.833,350.667 297.667,349.833 298.5,349C 294.511,349.107 291.011,347.941 288,345.5C 286.893,346.712 286.393,346.379 286.5,344.5C 289.432,344.454 292.098,344.954 294.5,346C 295.768,343.837 295.768,341.67 294.5,339.5C 295.575,338.438 296.575,338.438 297.5,339.5C 297.852,342.309 299.018,344.642 301,346.5C 302,345.167 303,343.833 304,342.5C 304.333,342.833 304.667,343.167 305,343.5C 306.991,340.42 309.825,338.754 313.5,338.5C 314.463,334.204 314.629,329.871 314,325.5C 313.667,325.833 313.333,326.167 313,326.5C 309.643,325.258 309.81,324.424 313.5,324C 311.5,321.702 309.333,319.535 307,317.5C 306.517,316.552 306.351,315.552 306.5,314.5 Z"/>
  <path fill="#444444" d="M 272.5,345.5 C 274.527,345.338 276.527,345.505 278.5,346C 278.957,346.414 279.291,346.914 279.5,347.5C 276.355,348.803 273.355,348.803 270.5,347.5C 272.199,347.66 273.866,347.494 275.5,347C 274.263,346.768 273.263,346.268 272.5,345.5 Z"/>
  <path fill="#cccef0" d="M 317.5,346.5 C 319.877,355.065 324.543,362.232 331.5,368C 332.167,368.667 332.833,368.667 333.5,368C 328.426,362.687 324.759,356.52 322.5,349.5C 329.841,349.334 337.174,349.5 344.5,350C 351.143,351.232 357.809,352.399 364.5,353.5C 364.167,354.833 363.833,356.167 363.5,357.5C 359.049,367.243 351.383,371.576 340.5,370.5C 325.74,370.578 311.073,369.578 296.5,367.5C 291.032,363.499 290.366,358.832 294.5,353.5C 299.888,350.476 305.221,347.476 310.5,344.5C 312.17,344.249 313.67,343.582 315,342.5C 315.934,343.858 316.768,345.192 317.5,346.5 Z"/>
  <path fill="#636368" d="M 286.5,356.5 C 285.566,357.568 285.232,358.901 285.5,360.5C 284.366,358.034 284.199,355.367 285,352.5C 285.791,353.745 286.291,355.078 286.5,356.5 Z"/>
  <path fill="#1f2030" d="M 320.5,335.5 C 320.361,338.783 320.694,342.116 321.5,345.5C 321.433,346.959 321.766,348.292 322.5,349.5C 324.759,356.52 328.426,362.687 333.5,368C 332.833,368.667 332.167,368.667 331.5,368C 324.543,362.232 319.877,355.065 317.5,346.5C 316.944,342.334 317.944,338.668 320.5,335.5 Z"/>
  <path fill="#b0b2c1" d="M 286.5,356.5 C 287.995,362.161 290.995,366.828 295.5,370.5C 296.506,371.396 296.506,372.062 295.5,372.5C 292.705,371.937 290.372,370.604 288.5,368.5C 287.5,365.833 286.5,363.167 285.5,360.5C 285.232,358.901 285.566,357.568 286.5,356.5 Z"/>
  <path fill="#5f607b" d="M 296.5,367.5 C 311.073,369.578 325.74,370.578 340.5,370.5C 335.833,371.167 331.167,371.833 326.5,372.5C 316.683,372.35 307.016,371.516 297.5,370C 298.381,370.708 299.047,371.542 299.5,372.5C 298.039,373.686 296.705,373.686 295.5,372.5C 296.506,372.062 296.506,371.396 295.5,370.5C 296.404,369.791 296.737,368.791 296.5,367.5 Z"/>
  <path fill="#2b2c45" d="M 365.5,357.5 C 363.473,363.697 359.473,368.197 353.5,371C 344.546,372.264 335.546,372.764 326.5,372.5C 331.167,371.833 335.833,371.167 340.5,370.5C 351.383,371.576 359.049,367.243 363.5,357.5C 364.396,356.494 365.062,356.494 365.5,357.5 Z"/>
  <path fill="#d7d7d7" d="M 184.5,368.5 C 186.091,374.112 187.591,379.779 189,385.5C 186.097,381.472 182.264,379.139 177.5,378.5C 181.294,376.264 183.627,372.931 184.5,368.5 Z"/>
  <path fill="#0f0f15" d="M 288.5,368.5 C 290.372,370.604 292.705,371.937 295.5,372.5C 296.705,373.686 298.039,373.686 299.5,372.5C 300.117,372.611 300.617,372.944 301,373.5C 301.667,375.833 301.667,378.167 301,380.5C 298.716,384.614 295.883,388.28 292.5,391.5C 291.917,388.759 290.917,386.092 289.5,383.5C 288.252,386.506 288.252,389.506 289.5,392.5C 281.938,394.202 274.271,394.869 266.5,394.5C 265.761,394.631 265.094,394.464 264.5,394C 265.416,393.722 266.082,393.222 266.5,392.5C 272.351,387.811 278.018,382.977 283.5,378C 286.167,376.667 288.833,375.333 291.5,374C 286.61,373.773 282.277,375.273 278.5,378.5C 278.679,376.394 279.679,374.728 281.5,373.5C 284.15,373.672 286.816,373.005 289.5,371.5C 288.873,370.583 288.539,369.583 288.5,368.5 Z"/>
  <path fill="#a5a4b1" d="M 266.5,392.5 C 265.833,392.5 265.5,392.167 265.5,391.5C 269.527,386.806 273.86,382.473 278.5,378.5C 282.277,375.273 286.61,373.773 291.5,374C 288.833,375.333 286.167,376.667 283.5,378C 278.018,382.977 272.351,387.811 266.5,392.5 Z"/>
  <path fill="#d0d0ec" d="M 368.5,351.5 C 368.33,352.822 368.663,353.989 369.5,355C 381.724,358.452 393.724,362.452 405.5,367C 406.257,368.512 407.257,369.846 408.5,371C 414.801,374.152 420.801,377.818 426.5,382C 429.039,384.37 431.372,386.87 433.5,389.5C 440.972,394.384 447.306,400.384 452.5,407.5C 452,407.833 451.5,408.167 451,408.5C 439.964,405.057 429.13,401.223 418.5,397C 414.246,395.686 409.913,394.853 405.5,394.5C 403.511,392.839 401.178,391.672 398.5,391C 381.227,388.752 363.894,388.085 346.5,389C 338.255,390.874 329.922,392.208 321.5,393C 319.334,394.002 317.667,395.502 316.5,397.5C 315.818,401.138 315.318,404.805 315,408.5C 314.051,406.907 312.885,405.574 311.5,404.5C 310.067,402.442 309.4,400.108 309.5,397.5C 304.523,398.327 299.523,398.994 294.5,399.5C 294.649,398.448 294.483,397.448 294,396.5C 293.346,397.696 292.846,397.696 292.5,396.5C 293.535,394.872 293.535,393.205 292.5,391.5C 295.883,388.28 298.716,384.614 301,380.5C 301.667,378.167 301.667,375.833 301,373.5C 300.617,372.944 300.117,372.611 299.5,372.5C 299.047,371.542 298.381,370.708 297.5,370C 307.016,371.516 316.683,372.35 326.5,372.5C 335.546,372.764 344.546,372.264 353.5,371C 359.473,368.197 363.473,363.697 365.5,357.5C 366.5,355.5 367.5,353.5 368.5,351.5 Z"/>
  <path fill="#cfd1f7" d="M 368.5,360.5 C 368.665,362.827 369.331,364.993 370.5,367C 368.586,371.858 367.919,377.025 368.5,382.5C 366.856,382.714 365.356,382.38 364,381.5C 363.505,379.527 363.338,377.527 363.5,375.5C 356.16,375.294 355.16,377.294 360.5,381.5C 358.157,382.725 356.323,382.059 355,379.5C 354.517,380.448 354.351,381.448 354.5,382.5C 350.105,383.119 346.105,383.785 342.5,384.5C 343.991,385.244 345.491,385.91 347,386.5C 350.55,385.408 354.217,384.741 358,384.5C 364.668,385.339 371.168,385.672 377.5,385.5C 369.186,386.166 360.852,386.833 352.5,387.5C 351.446,387.32 350.446,386.987 349.5,386.5C 342.616,387.713 335.782,389.046 329,390.5C 328.667,390.167 328.333,389.833 328,389.5C 323.755,390.27 319.588,391.437 315.5,393C 314.283,394.648 313.45,396.481 313,398.5C 309.071,393.146 304.238,391.812 298.5,394.5C 298.646,396.942 297.813,397.609 296,396.5C 295.504,394.965 295.67,393.465 296.5,392C 298.5,390.333 300.5,388.667 302.5,387C 304.381,383.05 305.048,379.05 304.5,375C 307.783,371.917 311.283,371.751 315,374.5C 326.819,373.801 338.652,373.135 350.5,372.5C 352.693,373.554 354.193,373.22 355,371.5C 357.184,372.108 359.184,371.441 361,369.5C 361.333,369.833 361.667,370.167 362,370.5C 362.935,367.898 364.602,365.898 367,364.5C 367.333,362.5 367.667,360.5 368,358.5C 368.464,359.094 368.631,359.761 368.5,360.5 Z"/>
  <path fill="#cccefa" d="M 433.5,389.5 C 434.85,395.517 438.517,399.183 444.5,400.5C 435.47,400.929 427.137,398.762 419.5,394C 414.279,393.728 409.279,392.728 404.5,391C 403.672,390.085 402.672,389.419 401.5,389C 393.224,388.618 385.224,387.451 377.5,385.5C 371.168,385.672 364.668,385.339 358,384.5C 354.217,384.741 350.55,385.408 347,386.5C 345.491,385.91 343.991,385.244 342.5,384.5C 346.105,383.785 350.105,383.119 354.5,382.5C 354.351,381.448 354.517,380.448 355,379.5C 356.323,382.059 358.157,382.725 360.5,381.5C 355.16,377.294 356.16,375.294 363.5,375.5C 363.338,377.527 363.505,379.527 364,381.5C 365.356,382.38 366.856,382.714 368.5,382.5C 367.919,377.025 368.586,371.858 370.5,367C 369.331,364.993 368.665,362.827 368.5,360.5C 374.948,357.368 380.615,358.535 385.5,364C 388.5,364.333 391.5,364.667 394.5,365C 395.833,365.667 395.833,366.333 394.5,367C 399.303,369.226 404.303,371.226 409.5,373C 411.418,376.462 414.418,378.129 418.5,378C 422.029,380.83 425.363,383.83 428.5,387C 430.078,388.094 431.745,388.928 433.5,389.5 Z"/>
  <path fill="#6a6a73" d="M 265.5,391.5 C 265.5,392.167 265.833,392.5 266.5,392.5C 266.082,393.222 265.416,393.722 264.5,394C 265.094,394.464 265.761,394.631 266.5,394.5C 266.082,395.222 265.416,395.722 264.5,396C 268.688,396.176 272.688,396.676 276.5,397.5C 271.833,397.5 267.167,397.5 262.5,397.5C 262.025,394.687 263.025,392.687 265.5,391.5 Z"/>
  <path fill="#b6b6c6" d="M 292.5,391.5 C 293.535,393.205 293.535,394.872 292.5,396.5C 292.846,397.696 293.346,397.696 294,396.5C 294.483,397.448 294.649,398.448 294.5,399.5C 294.5,399.833 294.5,400.167 294.5,400.5C 292.809,399.136 291.142,397.803 289.5,396.5C 288.726,395.853 287.726,395.52 286.5,395.5C 283.297,396.892 279.964,397.559 276.5,397.5C 272.688,396.676 268.688,396.176 264.5,396C 265.416,395.722 266.082,395.222 266.5,394.5C 274.271,394.869 281.938,394.202 289.5,392.5C 288.252,389.506 288.252,386.506 289.5,383.5C 290.917,386.092 291.917,388.759 292.5,391.5 Z"/>
  <path fill="#717183" d="M 289.5,396.5 C 288.127,396.343 286.793,396.51 285.5,397C 286.993,398.156 286.826,398.99 285,399.5C 282.004,398.965 279.171,398.298 276.5,397.5C 279.964,397.559 283.297,396.892 286.5,395.5C 287.726,395.52 288.726,395.853 289.5,396.5 Z"/>
  <path fill="#cccccc" d="M 286.5,420.5 C 284.856,423.751 282.69,426.751 280,429.5C 279.505,431.473 279.338,433.473 279.5,435.5C 276.093,429.74 277.426,425.24 283.5,422C 279.578,418.749 276.412,414.916 274,410.5C 270.466,406.631 266.633,403.131 262.5,400C 264.598,400.032 266.598,400.699 268.5,402C 269.878,403.713 271.545,405.047 273.5,406C 277.727,411.054 282.061,415.887 286.5,420.5 Z"/>
  <path fill="#ababb4" d="M 185.5,415.5 C 194.318,426.683 192.651,428.35 180.5,420.5C 182.144,420.286 183.644,420.62 185,421.5C 185.495,419.527 185.662,417.527 185.5,415.5 Z"/>
  <path fill="#d8d8eb" d="M 116.5,407.5 C 115.624,407.369 114.957,407.702 114.5,408.5C 120.114,414.394 123.614,421.394 125,429.5C 125.827,442.007 125.66,454.34 124.5,466.5C 124.5,459.833 124.5,453.167 124.5,446.5C 100.954,453.348 77.6209,461.015 54.5,469.5C 54.1667,469 53.8333,468.5 53.5,468C 58.8993,461.596 64.7326,455.429 71,449.5C 75.0521,443.439 79.8855,437.939 85.5,433C 95.1468,425.509 105.147,418.509 115.5,412C 113.808,410.599 113.141,408.766 113.5,406.5C 114.791,406.263 115.791,406.596 116.5,407.5 Z"/>
  <path fill="#c9c9c9" d="M 234.5,437.5 C 235.324,441.312 235.824,445.312 236,449.5C 239.163,456.17 242.496,462.503 246,468.5C 238.325,462.46 233.825,454.627 232.5,445C 232.739,442.365 233.406,439.865 234.5,437.5 Z"/>
  <path fill="#777777" d="M 198.5,465.5 C 203.43,466.259 208.097,467.592 212.5,469.5C 207.46,469.15 202.794,467.816 198.5,465.5 Z"/>
  <path fill="#7a7a7a" d="M 224.5,471.5 C 236.49,472.123 248.49,472.456 260.5,472.5C 256.347,473.166 252.013,473.499 247.5,473.5C 239.619,473.576 231.953,472.909 224.5,471.5 Z"/>
  <path fill="#909090" d="M 170.5,475.5 C 166.936,477.919 162.936,479.586 158.5,480.5C 162.064,478.081 166.064,476.414 170.5,475.5 Z"/>
  <path fill="#a4a4a4" d="M 154.5,481.5 C 149.662,483.449 144.995,485.782 140.5,488.5C 140.511,486.983 141.177,485.816 142.5,485C 146.307,483.119 150.307,481.953 154.5,481.5 Z"/>
</svg>