<svg viewBox="0 0 100 100" fill-rule="evenodd" clip-rule="evenodd" xmlns="http://www.w3.org/2000/svg">
  <path fill="#22242f" opacity="0.883" d="M 17.5,11.5 C 27.9201,14.6503 38.5868,16.6503 49.5,17.5C 59.4831,17.0367 69.1498,15.0367 78.5,11.5C 79.7716,11.5698 80.9383,11.9032 82,12.5C 83.4568,15.366 83.7901,18.366 83,21.5C 78.6845,24.2734 74.0179,26.2734 69,27.5C 68.3333,42.1667 68.3333,56.8333 69,71.5C 74.0179,72.7266 78.6845,74.7266 83,77.5C 85.0248,84.7004 82.5248,87.8671 75.5,87C 57.1523,79.9922 38.819,80.1588 20.5,87.5C 19.2284,87.4302 18.0617,87.0968 17,86.5C 15.5432,83.634 15.2099,80.634 16,77.5C 20.3155,74.7266 24.9821,72.7266 30,71.5C 30.6667,56.8333 30.6667,42.1667 30,27.5C 24.9821,26.2734 20.3155,24.2734 16,21.5C 15.1529,17.9277 15.6529,14.5943 17.5,11.5 Z M 41.5,28.5 C 46.8333,28.5 52.1667,28.5 57.5,28.5C 57.5,42.5 57.5,56.5 57.5,70.5C 52.1667,70.5 46.8333,70.5 41.5,70.5C 41.5,56.5 41.5,42.5 41.5,28.5 Z"/>
  <path fill="#a4a3cd" d="M 19.5,13.5 C 38.926,21.4238 58.426,21.4238 78,13.5C 81.9115,15.313 82.4115,17.813 79.5,21C 75.2547,22.3769 71.0881,23.8769 67,25.5C 66.3333,41.5 66.3333,57.5 67,73.5C 71.0881,75.1231 75.2547,76.6231 79.5,78C 82.1667,80.3333 82.1667,82.6667 79.5,85C 74.6568,83.5373 69.6568,82.204 64.5,81C 49.4239,77.8407 34.9239,79.3407 21,85.5C 17.0885,83.687 16.5885,81.187 19.5,78C 23.6182,76.2945 27.7848,74.7945 32,73.5C 32.6667,57.5 32.6667,41.5 32,25.5C 27.7848,24.2055 23.6182,22.7055 19.5,21C 16.9142,18.506 16.9142,16.006 19.5,13.5 Z M 41.5,28.5 C 41.5,42.5 41.5,56.5 41.5,70.5C 46.8333,70.5 52.1667,70.5 57.5,70.5C 57.5,56.5 57.5,42.5 57.5,28.5C 52.1667,28.5 46.8333,28.5 41.5,28.5 Z"/>
  <path fill="#1f212b" opacity="0.991" d="M 39.5,26.5 C 46.1667,26.5 52.8333,26.5 59.5,26.5C 59.5,41.8333 59.5,57.1667 59.5,72.5C 52.8333,72.5 46.1667,72.5 39.5,72.5C 39.5,57.1667 39.5,41.8333 39.5,26.5 Z M 41.5,28.5 C 41.5,42.5 41.5,56.5 41.5,70.5C 46.8333,70.5 52.1667,70.5 57.5,70.5C 57.5,56.5 57.5,42.5 57.5,28.5C 52.1667,28.5 46.8333,28.5 41.5,28.5 Z"/>
</svg>