<svg viewBox="0 0 1878 72" fill-rule="evenodd" clip-rule="evenodd" xmlns="http://www.w3.org/2000/svg">
  <path opacity="0.892" fill="#000000" d="M 114.5,0.5 C 115.748,1.3339 116.415,2.66723 116.5,4.5C 116.167,5.83333 115.833,7.16667 115.5,8.5C 113.259,9.03177 111.759,10.3651 111,12.5C 110.333,27.5 110.333,42.5 111,57.5C 111.875,60.2146 113.708,61.5479 116.5,61.5C 116.5,64.1667 116.5,66.8333 116.5,69.5C 96.5841,67.4096 86.5841,56.2429 86.5,36C 86.9685,16.7406 96.3018,4.90727 114.5,0.5 Z"/>
  <path opacity="0.779" fill="#000000" d="M 118.5,0.5 C 122.83,1.33236 126.997,2.6657 131,4.5C 132.864,1.79283 135.364,0.959499 138.5,2C 139.648,10.0876 139.815,18.2543 139,26.5C 137.582,28.3632 135.749,28.8632 133.5,28C 131.662,21.1357 128.329,15.1357 123.5,10C 121.975,8.99136 120.308,8.49136 118.5,8.5C 118.5,5.83333 118.5,3.16667 118.5,0.5 Z"/>
  <path opacity="0.903" fill="#000000" d="M 168.5,0.5 C 169.748,1.3339 170.415,2.66723 170.5,4.5C 170.367,7.41375 169.2,9.74708 167,11.5C 166.333,27.1667 166.333,42.8333 167,58.5C 169.2,60.2529 170.367,62.5862 170.5,65.5C 170.167,66.8333 169.833,68.1667 169.5,69.5C 151.658,65.3125 142.658,53.9791 142.5,35.5C 142.27,16.8733 150.937,5.20665 168.5,0.5 Z"/>
  <path opacity="0.879" fill="#000000" d="M 173.5,0.5 C 192.794,3.64865 202.127,15.1486 201.5,35C 202.189,54.7979 192.855,66.2979 173.5,69.5C 172.715,65.3604 173.881,62.027 177,59.5C 177.667,43.1667 177.667,26.8333 177,10.5C 173.881,7.97296 172.715,4.63963 173.5,0.5 Z"/>
  <path opacity="0.883" fill="#000000" d="M 417.5,0.5 C 418.5,0.5 419.5,0.5 420.5,0.5C 421.285,4.59626 420.118,7.9296 417,10.5C 416.333,26.8333 416.333,43.1667 417,59.5C 420.449,62.0904 421.282,65.4237 419.5,69.5C 401.326,65.3682 392.326,53.8682 392.5,35C 392.347,17.0306 400.68,5.53059 417.5,0.5 Z"/>
  <path opacity="0.894" fill="#000000" d="M 423.5,0.5 C 442.249,4.10762 451.249,15.6076 450.5,35C 451.42,53.8938 442.754,65.3938 424.5,69.5C 423.009,68.6519 422.342,67.3186 422.5,65.5C 424.615,62.8635 426.115,59.8635 427,56.5C 427.667,41.8333 427.667,27.1667 427,12.5C 425.664,9.68331 424.164,7.01664 422.5,4.5C 422.623,3.07546 422.957,1.74213 423.5,0.5 Z"/>
  <path opacity="0.942" fill="#fe0000" d="M 1683.5,0.5 C 1684.5,0.5 1685.5,0.5 1686.5,0.5C 1686.5,2.83333 1686.5,5.16667 1686.5,7.5C 1681.22,8.29302 1679.39,11.293 1681,16.5C 1682.17,17.6667 1683.33,18.8333 1684.5,20C 1693.56,22.9404 1701.39,27.7738 1708,34.5C 1714.28,54.269 1707.11,65.6023 1686.5,68.5C 1686.5,66.1667 1686.5,63.8333 1686.5,61.5C 1693.01,60.793 1695.18,57.4597 1693,51.5C 1685.28,46.814 1677.44,42.314 1669.5,38C 1662.52,29.1176 1661.69,19.6176 1667,9.5C 1671.52,4.49527 1677.02,1.49527 1683.5,0.5 Z"/>
  <path opacity="0.895" fill="#fe0000" d="M 1689.5,1.5 C 1693.56,1.57608 1697.4,2.57608 1701,4.5C 1702.99,2.37173 1705.49,1.37173 1708.5,1.5C 1708.67,8.8409 1708.5,16.1742 1708,23.5C 1706.33,24.8333 1704.67,24.8333 1703,23.5C 1701.45,16.0471 1697.29,10.7138 1690.5,7.5C 1689.53,5.60395 1689.2,3.60395 1689.5,1.5 Z"/>
  <path opacity="0.916" fill="#000000" d="M 1797.5,1.5 C 1809.4,0.26033 1814.23,5.59366 1812,17.5C 1808.41,26.8637 1806.24,36.5304 1805.5,46.5C 1803.53,46.7394 1801.7,46.4061 1800,45.5C 1798.76,36.2208 1796.43,27.2208 1793,18.5C 1791.27,11.8404 1792.77,6.17378 1797.5,1.5 Z"/>
  <path opacity="0.904" fill="#000000" d="M 24.5,2.5 C 31.1998,2.16998 37.8665,2.50331 44.5,3.5C 48.9973,22.1562 53.4973,40.8229 58,59.5C 59.1545,60.7433 60.4878,61.7433 62,62.5C 62.7203,64.1124 62.5536,65.6124 61.5,67C 51.8333,67.6667 42.1667,67.6667 32.5,67C 31.6433,66.3109 30.9767,65.4776 30.5,64.5C 31.9364,62.4864 33.2697,60.4864 34.5,58.5C 34,56.5 33.5,54.5 33,52.5C 28.4031,51.9682 23.9031,51.1349 19.5,50C 20.1667,48.3333 20.8333,46.6667 21.5,45C 24.8333,44.6667 28.1667,44.3333 31.5,44C 28.313,31.9038 25.313,19.7371 22.5,7.5C 23.1744,5.80452 23.8411,4.13785 24.5,2.5 Z"/>
  <path opacity="0.908" fill="#000000" d="M 207.5,2.5 C 216.525,2.16849 225.525,2.50182 234.5,3.5C 242.333,17.1667 250.167,30.8333 258,44.5C 258.5,52.1594 258.666,59.8261 258.5,67.5C 253.57,67.8025 248.737,67.4692 244,66.5C 234,49.1667 224,31.8333 214,14.5C 212.305,11.3055 209.805,8.97216 206.5,7.5C 205.288,5.57161 205.621,3.90494 207.5,2.5 Z"/>
  <path opacity="0.789" fill="#000000" d="M 246.5,2.5 C 252.833,2.5 259.167,2.5 265.5,2.5C 265.799,4.60395 265.466,6.60395 264.5,8.5C 261.716,10.1142 259.882,12.4476 259,15.5C 258.667,23.5 258.333,31.5 258,39.5C 256.088,37.3428 254.421,35.0094 253,32.5C 252.84,25.4371 252.173,18.4371 251,11.5C 249.622,9.78663 247.955,8.4533 246,7.5C 245.36,5.73498 245.527,4.06831 246.5,2.5 Z"/>
  <path opacity="0.783" fill="#000000" d="M 268.5,2.5 C 273.167,2.5 277.833,2.5 282.5,2.5C 282.663,4.85684 282.497,7.19018 282,9.5C 277.792,13.5848 275.459,18.5848 275,24.5C 273,25.8333 271,25.8333 269,24.5C 268.5,17.1742 268.334,9.8409 268.5,2.5 Z"/>
  <path opacity="0.93" fill="#000000" d="M 284.5,2.5 C 291.833,2.5 299.167,2.5 306.5,2.5C 306.333,21.5029 306.5,40.5029 307,59.5C 308.441,60.2598 309.941,60.9264 311.5,61.5C 312.631,63.0745 312.798,64.7412 312,66.5C 301.577,67.6524 291.077,67.8191 280.5,67C 277.984,62.9527 279.318,60.786 284.5,60.5C 284.5,41.1667 284.5,21.8333 284.5,2.5 Z"/>
  <path opacity="0.84" fill="#000000" d="M 309.5,2.5 C 313.833,2.5 318.167,2.5 322.5,2.5C 322.5,10.1667 322.5,17.8333 322.5,25.5C 319.956,25.8957 317.789,25.229 316,23.5C 315.539,18.1003 313.539,13.4336 310,9.5C 309.503,7.19018 309.337,4.85684 309.5,2.5 Z"/>
  <path opacity="0.894" fill="#000000" d="M 328.5,2.5 C 337.167,2.5 345.833,2.5 354.5,2.5C 354.333,21.5029 354.5,40.5029 355,59.5C 356.419,60.4601 357.919,61.2935 359.5,62C 360.833,63.6667 360.833,65.3333 359.5,67C 349.167,67.6667 338.833,67.6667 328.5,67C 326.818,63.9078 327.651,61.7411 331,60.5C 331.833,43.4902 331.666,26.4902 330.5,9.5C 327.497,7.82189 326.831,5.48856 328.5,2.5 Z"/>
  <path opacity="0.87" fill="#000000" d="M 356.5,2.5 C 363.391,1.90129 370.058,2.73462 376.5,5C 378.667,6.5 380.5,8.33333 382,10.5C 383.563,15.7175 383.896,21.0509 383,26.5C 381.233,30.9686 378.066,33.9686 373.5,35.5C 377.535,36.7565 380.702,39.0899 383,42.5C 383.172,47.2018 383.672,51.8685 384.5,56.5C 386.409,55.6518 388.409,55.3184 390.5,55.5C 391.245,61.8429 388.578,66.0096 382.5,68C 375.436,69.7452 369.269,68.2452 364,63.5C 363.138,61.913 362.471,60.2464 362,58.5C 361.667,52.8333 361.333,47.1667 361,41.5C 355,38.1667 355,34.8333 361,31.5C 361.667,24.8333 361.667,18.1667 361,11.5C 359.846,10.2567 358.512,9.25668 357,8.5C 356.505,6.5273 356.338,4.5273 356.5,2.5 Z"/>
  <path opacity="0.894" fill="#000000" d="M 456.5,2.5 C 467.082,2.18009 477.582,2.51343 488,3.5C 488.748,7.43471 487.081,9.76804 483,10.5C 482.5,29.4971 482.333,48.4971 482.5,67.5C 473.582,67.8172 464.749,67.4839 456,66.5C 454.925,63.4691 455.925,61.4691 459,60.5C 459.833,43.4902 459.666,26.4902 458.5,9.5C 455.497,7.82189 454.831,5.48856 456.5,2.5 Z"/>
  <path opacity="0.894" fill="#000000" d="M 507.5,2.5 C 518.082,2.18009 528.582,2.51343 539,3.5C 539.748,7.43471 538.081,9.76804 534,10.5C 533.5,29.4971 533.333,48.4971 533.5,67.5C 524.582,67.8172 515.749,67.4839 507,66.5C 505.925,63.4691 506.925,61.4691 510,60.5C 510.833,43.4902 510.666,26.4902 509.5,9.5C 506.497,7.82189 505.831,5.48856 507.5,2.5 Z"/>
  <path opacity="0.929" fill="#000000" d="M 558.5,2.5 C 567.167,2.5 575.833,2.5 584.5,2.5C 584.5,24.1667 584.5,45.8333 584.5,67.5C 575.582,67.8172 566.749,67.4839 558,66.5C 557.333,65.1667 557.333,63.8333 558,62.5C 559.512,61.7433 560.846,60.7433 562,59.5C 562.667,43.1667 562.667,26.8333 562,10.5C 560.846,9.25668 559.512,8.25668 558,7.5C 557.36,5.73498 557.527,4.06831 558.5,2.5 Z"/>
  <path opacity="0.82" fill="#000000" d="M 587.5,2.5 C 594.167,2.5 600.833,2.5 607.5,2.5C 607.5,9.16667 607.5,15.8333 607.5,22.5C 602.811,23.3163 600.311,21.3163 600,16.5C 596.898,12.2004 592.731,9.86711 587.5,9.5C 587.5,7.16667 587.5,4.83333 587.5,2.5 Z"/>
  <path opacity="0.93" fill="#000000" d="M 615.5,2.5 C 623.833,2.5 632.167,2.5 640.5,2.5C 640.333,21.1696 640.5,39.8363 641,58.5C 642.066,60.0995 643.566,61.0995 645.5,61.5C 646.76,63.3529 646.76,65.1862 645.5,67C 635.5,67.6667 625.5,67.6667 615.5,67C 613.017,64.2041 613.683,62.0374 617.5,60.5C 618.833,43.5 618.833,26.5 617.5,9.5C 613.502,7.88798 612.836,5.55465 615.5,2.5 Z"/>
  <path opacity="0.876" fill="#000000" d="M 643.5,2.5 C 652.952,0.738074 661.119,3.07141 668,9.5C 673.214,20.5253 670.714,29.192 660.5,35.5C 663.937,36.6361 666.771,38.6361 669,41.5C 669.998,46.4562 670.831,51.4562 671.5,56.5C 677.446,54.8246 678.946,56.8246 676,62.5C 670.72,68.1702 664.22,70.0035 656.5,68C 653.829,66.75 651.663,64.9167 650,62.5C 648.749,56.2752 648.083,49.9418 648,43.5C 647.333,41.5 646,40.1667 644,39.5C 643.333,37.5 643.333,35.5 644,33.5C 645.676,32.9389 647.009,31.9389 648,30.5C 648.667,24.5 648.667,18.5 648,12.5C 647.411,10.1367 645.911,9.13673 643.5,9.5C 643.5,7.16667 643.5,4.83333 643.5,2.5 Z"/>
  <path opacity="0.905" fill="#000000" d="M 704.5,2.5 C 714.19,2.16825 723.856,2.50158 733.5,3.5C 733.833,4.16667 734.167,4.83333 734.5,5.5C 733.525,7.79525 732.192,9.79525 730.5,11.5C 733.346,22.5495 736.346,33.5495 739.5,44.5C 737.5,51.8333 735.5,59.1667 733.5,66.5C 729.555,67.4909 725.555,67.8242 721.5,67.5C 716.816,48.7653 711.816,30.0987 706.5,11.5C 704.991,9.81958 703.657,7.98625 702.5,6C 702.978,4.69736 703.645,3.53069 704.5,2.5 Z"/>
  <path opacity="0.897" fill="#000000" d="M 742.5,2.5 C 746.673,1.95636 750.506,2.62303 754,4.5C 757.501,18.3357 761.001,32.169 764.5,46C 762.751,53.1627 761.084,60.3294 759.5,67.5C 755.445,67.8242 751.445,67.4909 747.5,66.5C 743.047,52.3258 739.547,37.9925 737,23.5C 738.686,16.4224 740.519,9.42238 742.5,2.5 Z"/>
  <path opacity="0.73" fill="#000000" d="M 761.5,2.5 C 767.509,2.33385 773.509,2.50051 779.5,3C 780.833,4.66667 780.833,6.33333 779.5,8C 776,8.83333 773.833,11 773,14.5C 770.511,22.7889 768.178,31.1222 766,39.5C 764.063,36.0857 762.896,32.419 762.5,28.5C 763.521,23.0828 764.854,17.7494 766.5,12.5C 765.051,10.1822 763.218,8.18224 761,6.5C 760.805,5.1807 760.972,3.84736 761.5,2.5 Z"/>
  <path opacity="0.925" fill="#000000" d="M 785.5,2.5 C 795.416,2.18105 805.25,2.51438 815,3.5C 815.952,7.11484 814.619,9.44818 811,10.5C 810.333,26.8333 810.333,43.1667 811,59.5C 814.637,60.878 816.137,63.5446 815.5,67.5C 805.494,67.6665 795.494,67.4998 785.5,67C 783.017,64.2041 783.683,62.0374 787.5,60.5C 788.833,43.5 788.833,26.5 787.5,9.5C 783.502,7.88798 782.836,5.55465 785.5,2.5 Z"/>
  <path opacity="0.763" fill="#000000" d="M 820.5,2.5 C 824.833,2.5 829.167,2.5 833.5,2.5C 833.813,5.24688 833.48,7.91355 832.5,10.5C 828.878,14.4162 826.878,19.0829 826.5,24.5C 824.051,25.9097 821.884,25.5763 820,23.5C 819.205,16.4197 819.372,9.41974 820.5,2.5 Z"/>
  <path opacity="0.894" fill="#000000" d="M 836.5,2.5 C 843.833,2.5 851.167,2.5 858.5,2.5C 858.333,21.5029 858.5,40.5029 859,59.5C 861.391,60.4291 863.225,61.9291 864.5,64C 864.265,64.8732 863.931,65.7065 863.5,66.5C 852.849,67.6657 842.182,67.8324 831.5,67C 829.725,63.629 830.725,61.4623 834.5,60.5C 835.178,41.1022 835.845,21.7689 836.5,2.5 Z"/>
  <path opacity="0.78" fill="#000000" d="M 860.5,2.5 C 865.167,2.5 869.833,2.5 874.5,2.5C 874.666,9.8409 874.5,17.1742 874,24.5C 872,25.8333 870,25.8333 868,24.5C 867.575,18.5363 865.242,13.5363 861,9.5C 860.503,7.19018 860.337,4.85684 860.5,2.5 Z"/>
  <path opacity="0.926" fill="#000000" d="M 881.5,2.5 C 891.416,2.18105 901.25,2.51438 911,3.5C 911.861,6.99355 910.528,9.32689 907,10.5C 906.333,26.8333 906.333,43.1667 907,59.5C 911.022,60.8149 912.189,63.3149 910.5,67C 900.833,67.6667 891.167,67.6667 881.5,67C 879.017,64.2041 879.683,62.0374 883.5,60.5C 884.833,43.5 884.833,26.5 883.5,9.5C 879.502,7.88798 878.836,5.55465 881.5,2.5 Z"/>
  <path opacity="0.893" fill="#000000" d="M 913.5,2.5 C 923.506,2.33352 933.506,2.50019 943.5,3C 945.31,7.03307 943.976,9.19973 939.5,9.5C 939.167,26.5131 939.501,43.5131 940.5,60.5C 943.499,61.5037 944.666,63.5037 944,66.5C 933.667,67.8333 923.333,67.8333 913,66.5C 911.925,63.4691 912.925,61.4691 916,60.5C 916.5,52.8406 916.666,45.1739 916.5,37.5C 914.167,37.5 911.833,37.5 909.5,37.5C 909.5,35.5 909.5,33.5 909.5,31.5C 911.833,31.5 914.167,31.5 916.5,31.5C 916.831,24.1365 916.497,16.8032 915.5,9.5C 912.497,7.82189 911.831,5.48856 913.5,2.5 Z"/>
  <path opacity="0.907" fill="#fe0000" d="M 976.5,2.5 C 985.751,2.18215 994.917,2.51549 1004,3.5C 1012,17.5 1020,31.5 1028,45.5C 1028.5,52.8258 1028.67,60.1591 1028.5,67.5C 1023.46,67.8275 1018.46,67.4941 1013.5,66.5C 1000.55,44.786 988.22,23.4527 976.5,2.5 Z"/>
  <path opacity="0.75" fill="#fe0000" d="M 1015.5,2.5 C 1022.09,2.189 1028.59,2.52234 1035,3.5C 1035.67,4.83333 1035.67,6.16667 1035,7.5C 1032.33,8.83333 1030.33,10.8333 1029,13.5C 1028.83,22.1858 1028.33,30.8525 1027.5,39.5C 1025.43,37.0445 1023.6,34.3778 1022,31.5C 1021.67,25.5 1021.33,19.5 1021,13.5C 1019.69,11.0243 1017.86,9.02433 1015.5,7.5C 1014.46,5.87162 1014.46,4.20495 1015.5,2.5 Z"/>
  <path opacity="0.929" fill="#000000" d="M 1123.5,2.5 C 1130.5,2.5 1137.5,2.5 1144.5,2.5C 1148.35,20.8896 1152.51,39.2229 1157,57.5C 1158.4,59.7694 1159.9,61.936 1161.5,64C 1161.41,65.1074 1161.08,66.1074 1160.5,67C 1150.83,67.6667 1141.17,67.6667 1131.5,67C 1130.64,66.3109 1129.98,65.4776 1129.5,64.5C 1130.94,62.4864 1132.27,60.4864 1133.5,58.5C 1133,56.5 1132.5,54.5 1132,52.5C 1127.4,51.9682 1122.9,51.1349 1118.5,50C 1119.17,48.3333 1119.83,46.6667 1120.5,45C 1123.83,44.6667 1127.17,44.3333 1130.5,44C 1127.31,31.9038 1124.31,19.7371 1121.5,7.5C 1122.17,5.80452 1122.84,4.13785 1123.5,2.5 Z"/>
  <path opacity="0.93" fill="#000000" d="M 1165.5,2.5 C 1174.17,2.5 1182.83,2.5 1191.5,2.5C 1191.67,23.8359 1191.5,45.1693 1191,66.5C 1182.58,67.649 1174.08,67.8157 1165.5,67C 1163.02,64.2041 1163.68,62.0374 1167.5,60.5C 1168.83,43.5 1168.83,26.5 1167.5,9.5C 1163.5,7.88798 1162.84,5.55465 1165.5,2.5 Z"/>
  <path opacity="0.905" fill="#000000" d="M 1193.5,2.5 C 1201.97,1.65356 1209.14,4.32022 1215,10.5C 1225.16,27.034 1224.83,43.3673 1214,59.5C 1208.62,65.7957 1201.78,68.4624 1193.5,67.5C 1193.34,65.4727 1193.5,63.4727 1194,61.5C 1195.68,60.9389 1197.01,59.9389 1198,58.5C 1198.67,42.8333 1198.67,27.1667 1198,11.5C 1196.85,10.2567 1195.51,9.25668 1194,8.5C 1193.5,6.5273 1193.34,4.5273 1193.5,2.5 Z"/>
  <path opacity="0.935" fill="#000000" d="M 1227.5,2.5 C 1236.17,2.5 1244.83,2.5 1253.5,2.5C 1253.5,24.1667 1253.5,45.8333 1253.5,67.5C 1244.83,67.6664 1236.16,67.4998 1227.5,67C 1226.64,66.3109 1225.98,65.4776 1225.5,64.5C 1226.53,62.6385 1228.03,61.3052 1230,60.5C 1230.83,43.4902 1230.67,26.4902 1229.5,9.5C 1225.47,7.84356 1224.81,5.51023 1227.5,2.5 Z"/>
  <path opacity="0.891" fill="#000000" d="M 1255.5,2.5 C 1269.74,2.20252 1278.91,8.86919 1283,22.5C 1286.37,35.4402 1284.37,47.4402 1277,58.5C 1271.52,65.4879 1264.36,68.4879 1255.5,67.5C 1254.45,63.2214 1255.95,60.5548 1260,59.5C 1260.67,43.5 1260.67,27.5 1260,11.5C 1258.85,10.2567 1257.51,9.25668 1256,8.5C 1255.5,6.5273 1255.34,4.5273 1255.5,2.5 Z"/>
  <path opacity="0.935" fill="#000000" d="M 1289.5,2.5 C 1298.17,2.5 1306.83,2.5 1315.5,2.5C 1315.5,23.8333 1315.5,45.1667 1315.5,66.5C 1306.6,67.5625 1297.77,67.5625 1289,66.5C 1287.93,63.4691 1288.93,61.4691 1292,60.5C 1292.83,43.4902 1292.67,26.4902 1291.5,9.5C 1288.5,7.82189 1287.83,5.48856 1289.5,2.5 Z"/>
  <path opacity="0.955" fill="#000000" d="M 1319.5,2.5 C 1325.83,2.5 1332.17,2.5 1338.5,2.5C 1338.5,8.83333 1338.5,15.1667 1338.5,21.5C 1336.83,21.5 1335.17,21.5 1333.5,21.5C 1332.05,13.7215 1327.39,9.38818 1319.5,8.5C 1319.5,6.5 1319.5,4.5 1319.5,2.5 Z"/>
  <path opacity="0.949" fill="#000000" d="M 1346.5,2.5 C 1355.17,2.5 1363.83,2.5 1372.5,2.5C 1372.5,23.8333 1372.5,45.1667 1372.5,66.5C 1363.58,66.8172 1354.75,66.4839 1346,65.5C 1345.33,64.5 1345.33,63.5 1346,62.5C 1347.51,61.7433 1348.85,60.7433 1350,59.5C 1350.67,42.8333 1350.67,26.1667 1350,9.5C 1346.21,8.26713 1345.05,5.93379 1346.5,2.5 Z"/>
  <path opacity="0.94" fill="#000000" d="M 1375.5,2.5 C 1388.25,2.40275 1396.75,8.40275 1401,20.5C 1403,29.5 1403,38.5 1401,47.5C 1397.15,60.1969 1388.65,66.5303 1375.5,66.5C 1375.5,64.5 1375.5,62.5 1375.5,60.5C 1377.39,60.7035 1378.89,60.0368 1380,58.5C 1380.67,42.8333 1380.67,27.1667 1380,11.5C 1379.41,9.13673 1377.91,8.13673 1375.5,8.5C 1375.5,6.5 1375.5,4.5 1375.5,2.5 Z"/>
  <path opacity="0.958" fill="#fe0000" d="M 1432.5,2.5 C 1441.17,2.5 1449.83,2.5 1458.5,2.5C 1458.5,23.8333 1458.5,45.1667 1458.5,66.5C 1449.83,66.6664 1441.16,66.4998 1432.5,66C 1431.44,63.2899 1432.44,61.4565 1435.5,60.5C 1436.5,43.1795 1436.83,25.8461 1436.5,8.5C 1432.27,8.28482 1430.93,6.28482 1432.5,2.5 Z"/>
  <path opacity="0.942" fill="#fe0000" d="M 1461.5,2.5 C 1469.19,1.73571 1476.52,2.90238 1483.5,6C 1489.7,12.001 1490.87,18.8343 1487,26.5C 1484.09,29.705 1480.59,32.0383 1476.5,33.5C 1488.93,37.6952 1492.76,46.0286 1488,58.5C 1480.78,65.9149 1471.94,68.5815 1461.5,66.5C 1461.34,64.8008 1461.51,63.1341 1462,61.5C 1463.89,60.87 1465.56,59.87 1467,58.5C 1467.67,52.1667 1467.67,45.8333 1467,39.5C 1465.74,37.393 1463.9,36.393 1461.5,36.5C 1461.5,34.5 1461.5,32.5 1461.5,30.5C 1463.48,30.6168 1465.15,29.9501 1466.5,28.5C 1467.83,22.5 1467.83,16.5 1466.5,10.5C 1465.15,9.04988 1463.48,8.38321 1461.5,8.5C 1461.5,6.5 1461.5,4.5 1461.5,2.5 Z"/>
  <path opacity="0.943" fill="#000000" d="M 1496.5,2.5 C 1506.5,2.5 1516.5,2.5 1526.5,2.5C 1526.92,5.28823 1525.92,7.28823 1523.5,8.5C 1522.33,25.1567 1522.17,41.8233 1523,58.5C 1524.15,59.7433 1525.49,60.7433 1527,61.5C 1527.5,63.8098 1527.66,66.1432 1527.5,68.5C 1521.31,68.3021 1515.31,67.1354 1509.5,65C 1506.33,63.1667 1503.83,60.6667 1502,57.5C 1500.71,41.5668 1500.05,25.5668 1500,9.5C 1496.21,8.26713 1495.05,5.93379 1496.5,2.5 Z"/>
  <path opacity="0.868" fill="#000000" d="M 1535.5,2.5 C 1541.84,2.33379 1548.18,2.50046 1554.5,3C 1555.02,3.5613 1555.36,4.22797 1555.5,5C 1553.03,7.14231 1550.86,9.64231 1549,12.5C 1548.85,26.8649 1548.18,41.1983 1547,55.5C 1544.3,62.767 1539.14,67.1003 1531.5,68.5C 1530.17,66.1667 1530.17,63.8333 1531.5,61.5C 1537.54,60.2921 1541.04,56.6255 1542,50.5C 1542.67,38.5 1542.67,26.5 1542,14.5C 1541.12,11.4476 1539.28,9.11423 1536.5,7.5C 1535.55,5.95467 1535.21,4.28801 1535.5,2.5 Z"/>
  <path opacity="0.953" fill="#000000" d="M 1561.5,2.5 C 1572.08,2.18009 1582.58,2.51343 1593,3.5C 1593.27,6.91517 1591.6,8.91517 1588,9.5C 1587.5,28.4971 1587.33,47.4971 1587.5,66.5C 1578.83,66.5 1570.17,66.5 1561.5,66.5C 1561.08,63.7118 1562.08,61.7118 1564.5,60.5C 1565.83,43.1667 1565.83,25.8333 1564.5,8.5C 1562.08,7.28823 1561.08,5.28823 1561.5,2.5 Z"/>
  <path opacity="0.988" fill="#000000" d="M 1613.5,2.5 C 1623.75,2.18055 1633.92,2.51389 1644,3.5C 1644.78,4.94371 1644.61,6.27704 1643.5,7.5C 1641.57,7.90054 1640.07,8.90054 1639,10.5C 1638.5,29.1637 1638.33,47.8304 1638.5,66.5C 1629.91,66.8166 1621.41,66.4832 1613,65.5C 1612.62,62.5189 1613.95,60.5189 1617,59.5C 1617.67,42.8333 1617.67,26.1667 1617,9.5C 1613.11,8.37936 1611.94,6.04603 1613.5,2.5 Z"/>
  <path opacity="0.986" fill="#000000" d="M 1719.5,2.5 C 1729.42,2.18105 1739.25,2.51438 1749,3.5C 1749.38,6.48111 1748.05,8.48111 1745,9.5C 1744.33,26.1667 1744.33,42.8333 1745,59.5C 1748.54,60.6426 1749.7,62.8093 1748.5,66C 1738.59,66.8181 1728.76,66.6515 1719,65.5C 1718.62,62.5189 1719.95,60.5189 1723,59.5C 1723.67,42.8333 1723.67,26.1667 1723,9.5C 1719.11,8.37936 1717.94,6.04603 1719.5,2.5 Z"/>
  <path opacity="0.954" fill="#000000" d="M 1751.5,2.5 C 1761.51,2.33352 1771.51,2.50019 1781.5,3C 1782.82,6.53723 1781.48,8.37056 1777.5,8.5C 1777.17,25.8461 1777.5,43.1795 1778.5,60.5C 1781.56,61.4565 1782.56,63.2899 1781.5,66C 1771.51,66.4998 1761.51,66.6665 1751.5,66.5C 1751.08,63.7118 1752.08,61.7118 1754.5,60.5C 1755.5,52.5277 1755.83,44.5277 1755.5,36.5C 1753.17,36.5 1750.83,36.5 1748.5,36.5C 1748.5,34.8333 1748.5,33.1667 1748.5,31.5C 1750.83,31.5 1753.17,31.5 1755.5,31.5C 1755.5,23.8333 1755.5,16.1667 1755.5,8.5C 1751.93,8.24066 1750.6,6.24066 1751.5,2.5 Z"/>
  <path opacity="0.906" fill="#000000" d="M 1820.5,2.5 C 1824.83,2.5 1829.17,2.5 1833.5,2.5C 1833.66,4.5273 1833.5,6.5273 1833,8.5C 1829.14,12.7256 1826.81,17.7256 1826,23.5C 1824.3,24.4061 1822.47,24.7394 1820.5,24.5C 1820.5,17.1667 1820.5,9.83333 1820.5,2.5 Z"/>
  <path opacity="0.952" fill="#000000" d="M 1836.5,2.5 C 1843.83,2.5 1851.17,2.5 1858.5,2.5C 1858.5,21.8333 1858.5,41.1667 1858.5,60.5C 1862.45,60.4877 1864.11,62.4877 1863.5,66.5C 1852.59,66.8203 1841.75,66.487 1831,65.5C 1830.33,64.5 1830.33,63.5 1831,62.5C 1832.67,61.5 1834.33,60.5 1836,59.5C 1836.5,40.5029 1836.67,21.5029 1836.5,2.5 Z"/>
  <path opacity="0.871" fill="#000000" d="M 1861.5,2.5 C 1865.83,2.5 1870.17,2.5 1874.5,2.5C 1874.67,9.50793 1874.5,16.5079 1874,23.5C 1872,24.8333 1870,24.8333 1868,23.5C 1867.93,17.955 1865.93,13.2883 1862,9.5C 1861.5,7.19018 1861.34,4.85684 1861.5,2.5 Z"/>
  <path opacity="0.74" fill="#000000" d="M 21.5,14.5 C 23.1765,17.6902 24.1765,21.1902 24.5,25C 21.9368,35.5235 19.2702,46.0235 16.5,56.5C 16.3279,59.3314 17.6612,60.9981 20.5,61.5C 21.4656,63.396 21.7989,65.396 21.5,67.5C 15.1579,67.6662 8.82458,67.4995 2.5,67C 1.16667,65.3333 1.16667,63.6667 2.5,62C 6.33333,60.8333 8.83333,58.3333 10,54.5C 13.3434,40.976 17.1768,27.6427 21.5,14.5 Z"/>
  <path opacity="0.786" fill="#000000" d="M 1120.5,14.5 C 1121.12,14.6107 1121.62,14.944 1122,15.5C 1122.68,18.5499 1123.51,21.5499 1124.5,24.5C 1121.19,35.072 1118.19,45.7386 1115.5,56.5C 1116.44,59.2729 1118.27,61.2729 1121,62.5C 1121.67,63.5 1121.67,64.5 1121,65.5C 1117.94,66.7832 1114.6,67.4499 1111,67.5C 1107.83,67.3333 1104.67,67.1667 1101.5,67C 1099.71,63.0854 1101.04,60.7521 1105.5,60C 1107.04,58.4207 1108.21,56.5873 1109,54.5C 1112.34,40.976 1116.18,27.6427 1120.5,14.5 Z"/>
  <path opacity="0.734" fill="#000000" d="M 213.5,19.5 C 215.47,21.6467 217.303,23.98 219,26.5C 219.333,36.5 219.667,46.5 220,56.5C 221.333,59.1667 223.333,61.1667 226,62.5C 226.72,64.1124 226.554,65.6124 225.5,67C 219.5,67.6667 213.5,67.6667 207.5,67C 206.643,66.3109 205.977,65.4776 205.5,64.5C 208.006,62.4936 210.173,60.1603 212,57.5C 212.186,44.7582 212.686,32.0915 213.5,19.5 Z"/>
  <path opacity="0.74" fill="#fe0000" d="M 982.5,19.5 C 985.176,21.0263 987.009,23.3596 988,26.5C 988.333,36.1667 988.667,45.8333 989,55.5C 989.697,58.5734 991.53,60.5734 994.5,61.5C 995.466,63.396 995.799,65.396 995.5,67.5C 988.91,67.811 982.41,67.4777 976,66.5C 975.333,65.1667 975.333,63.8333 976,62.5C 977.955,61.5467 979.622,60.2134 981,58.5C 981.185,45.425 981.685,32.425 982.5,19.5 Z"/>
  <path opacity="0.775" fill="#000000" d="M 594.5,21.5 C 596.167,21.5 597.833,21.5 599.5,21.5C 599.5,30.1667 599.5,38.8333 599.5,47.5C 597.801,47.6602 596.134,47.4935 594.5,47C 592.523,42.3904 589.857,38.3904 586.5,35C 589.727,30.9148 592.394,26.4148 594.5,21.5 Z"/>
  <path opacity="0.898" fill="#000000" d="M 1325.5,21.5 C 1327.17,21.5 1328.83,21.5 1330.5,21.5C 1330.5,29.8333 1330.5,38.1667 1330.5,46.5C 1328.83,46.5 1327.17,46.5 1325.5,46.5C 1325.28,41.6639 1322.94,38.6639 1318.5,37.5C 1317.54,33.1892 1319.04,30.1892 1323,28.5C 1324.41,26.3496 1325.24,24.0163 1325.5,21.5 Z"/>
  <path opacity="0.87" fill="#fe0000" d="M 1051.5,22.5 C 1053.17,22.5 1054.83,22.5 1056.5,22.5C 1054.95,29.9738 1054.28,37.6405 1054.5,45.5C 1054.28,53.3595 1054.95,61.0262 1056.5,68.5C 1043.76,66.5859 1037.09,59.0859 1036.5,46C 1036.64,34.85 1041.64,27.0166 1051.5,22.5 Z"/>
  <path opacity="0.877" fill="#fe0000" d="M 1057.5,22.5 C 1070.9,23.7459 1077.57,31.2459 1077.5,45C 1077.37,54.5984 1073.37,61.9317 1065.5,67C 1062.94,68.0793 1060.27,68.5793 1057.5,68.5C 1057.34,65.8129 1058.17,63.4796 1060,61.5C 1060.67,50.8333 1060.67,40.1667 1060,29.5C 1058.17,27.5204 1057.34,25.1871 1057.5,22.5 Z"/>
  <path opacity="0.894" fill="#fe0000" d="M 1664.5,43.5 C 1665.87,43.3433 1667.21,43.51 1668.5,44C 1670.19,50.3559 1673.52,55.6893 1678.5,60C 1680.02,61.0086 1681.69,61.5086 1683.5,61.5C 1683.5,63.8333 1683.5,66.1667 1683.5,68.5C 1679.05,68.0138 1674.89,66.6804 1671,64.5C 1668.83,66.4644 1666.5,66.7978 1664,65.5C 1663.2,58.0869 1663.37,50.7535 1664.5,43.5 Z"/>
  <path opacity="0.79" fill="#000000" d="M 499.5,44.5 C 500.833,44.5 502.167,44.5 503.5,44.5C 504.398,52.1244 504.731,59.7911 504.5,67.5C 497.833,67.5 491.167,67.5 484.5,67.5C 484.338,65.4727 484.505,63.4727 485,61.5C 488.654,60.5045 491.654,58.5045 494,55.5C 495.862,51.7757 497.696,48.109 499.5,44.5 Z"/>
  <path opacity="0.79" fill="#000000" d="M 550.5,44.5 C 551.833,44.5 553.167,44.5 554.5,44.5C 555.398,52.1244 555.731,59.7911 555.5,67.5C 548.833,67.5 542.167,67.5 535.5,67.5C 535.338,65.4727 535.505,63.4727 536,61.5C 539.654,60.5045 542.654,58.5045 545,55.5C 546.862,51.7757 548.696,48.109 550.5,44.5 Z"/>
  <path opacity="0.897" fill="#000000" d="M 1604.5,44.5 C 1606.14,44.2865 1607.64,44.6198 1609,45.5C 1609.5,52.4921 1609.67,59.4921 1609.5,66.5C 1603.17,66.5 1596.83,66.5 1590.5,66.5C 1590.5,64.5 1590.5,62.5 1590.5,60.5C 1594.03,60.6541 1596.86,59.3208 1599,56.5C 1601.51,52.8005 1603.34,48.8005 1604.5,44.5 Z"/>
  <path opacity="0.905" fill="#000000" d="M 1655.5,44.5 C 1657.17,44.5 1658.83,44.5 1660.5,44.5C 1660.5,51.8333 1660.5,59.1667 1660.5,66.5C 1654.17,66.5 1647.83,66.5 1641.5,66.5C 1641.5,64.5 1641.5,62.5 1641.5,60.5C 1645.55,60.5589 1648.71,58.8922 1651,55.5C 1653.07,52.0395 1654.57,48.3728 1655.5,44.5 Z"/>
  <path opacity="0.81" fill="#000000" d="M 603.5,46.5 C 605.144,46.2865 606.644,46.6198 608,47.5C 608.5,54.1583 608.666,60.825 608.5,67.5C 601.5,67.5 594.5,67.5 587.5,67.5C 587.338,65.4727 587.505,63.4727 588,61.5C 596.282,59.7178 601.449,54.7178 603.5,46.5 Z"/>
  <path opacity="0.91" fill="#000000" d="M 1334.5,46.5 C 1336.17,46.5 1337.83,46.5 1339.5,46.5C 1339.5,53.1667 1339.5,59.8333 1339.5,66.5C 1332.83,66.5 1326.17,66.5 1319.5,66.5C 1319.5,64.5 1319.5,62.5 1319.5,60.5C 1327.68,59.3275 1332.68,54.6608 1334.5,46.5 Z"/>
  <path opacity="0.718" fill="#000000" d="M 134.5,48.5 C 137.59,47.83 139.257,48.9967 139.5,52C 136.757,62.4175 130.091,68.0841 119.5,69C 118.409,66.9361 118.242,64.7695 119,62.5C 122.355,61.3824 125.522,59.8824 128.5,58C 130.636,54.8896 132.636,51.7229 134.5,48.5 Z"/>
  <path opacity="0.903" fill="#000000" d="M 1797.5,49.5 C 1808.16,47.6581 1812.66,51.9915 1811,62.5C 1810.53,63.9308 1809.7,65.0975 1808.5,66C 1798.12,69.9397 1792.96,66.4397 1793,55.5C 1794.33,53.34 1795.83,51.34 1797.5,49.5 Z"/>
</svg>