<svg viewBox="0 0 1252 74" fill-rule="evenodd" clip-rule="evenodd" xmlns="http://www.w3.org/2000/svg">
  <path opacity="0.888" fill="#fe0000" d="M 191.5,1.5 C 192.675,1.28099 193.675,1.61432 194.5,2.5C 195.374,4.7466 195.708,7.07994 195.5,9.5C 189.546,10.6946 188.046,14.0279 191,19.5C 197.786,23.143 204.62,26.643 211.5,30C 223.705,42.3559 223.372,54.3559 210.5,66C 205.503,68.6993 200.17,70.1993 194.5,70.5C 194.337,68.1432 194.503,65.8098 195,63.5C 203.759,60.3134 204.592,55.8134 197.5,50C 188.955,47.1481 181.455,42.6481 175,36.5C 167.793,18.5574 173.293,6.8907 191.5,1.5 Z"/>
  <path opacity="0.883" fill="#000000" d="M 269.5,1.5 C 273.143,2.3822 274.31,4.71553 273,8.5C 268.145,10.2109 266.478,13.5442 268,18.5C 275.451,22.8077 282.951,26.9744 290.5,31C 298.372,39.9765 299.539,49.8099 294,60.5C 288.177,66.6609 281.01,69.9943 272.5,70.5C 272.337,68.1432 272.503,65.8098 273,63.5C 275.686,62.3241 278.019,60.6575 280,58.5C 280.359,55.3799 279.192,52.8799 276.5,51C 267.472,48.003 259.639,43.1697 253,36.5C 246.872,24.19 249.039,13.69 259.5,5C 262.85,3.51368 266.184,2.34702 269.5,1.5 Z"/>
  <path opacity="0.872" fill="#000000" d="M 548.5,1.5 C 549.898,2.7767 550.564,4.44337 550.5,6.5C 549.697,8.99529 548.197,10.9953 546,12.5C 545.333,28.5 545.333,44.5 546,60.5C 550.126,62.2023 551.46,65.2023 550,69.5C 534.529,69.7243 525.196,62.0576 522,46.5C 519.321,33.2232 521.988,21.2232 530,10.5C 535.276,5.44428 541.442,2.44428 548.5,1.5 Z"/>
  <path opacity="0.786" fill="#000000" d="M 552.5,1.5 C 556.83,2.33236 560.997,3.6657 565,5.5C 566.933,2.61454 569.433,1.94787 572.5,3.5C 573.636,11.7845 573.803,20.1178 573,28.5C 571.274,29.5762 569.441,29.7429 567.5,29C 566.013,21.0143 562.013,14.6809 555.5,10C 554.552,9.51722 553.552,9.35055 552.5,9.5C 552.5,6.83333 552.5,4.16667 552.5,1.5 Z"/>
  <path opacity="0.884" fill="#000000" d="M 684.5,1.5 C 687.247,2.97276 688.081,5.30609 687,8.5C 684.667,9.5 683,11.1667 682,13.5C 681.333,28.8333 681.333,44.1667 682,59.5C 682.791,61.6036 684.291,62.937 686.5,63.5C 688.325,66.7784 687.658,69.1117 684.5,70.5C 672.756,69.2421 664.589,63.2421 660,52.5C 655.618,38.3465 657.285,25.0132 665,12.5C 670.359,6.57643 676.859,2.90976 684.5,1.5 Z"/>
  <path opacity="0.768" fill="#000000" d="M 689.5,1.5 C 693.691,2.73034 697.858,4.06367 702,5.5C 704.367,2.06816 707.034,1.73483 710,4.5C 710.667,12.1667 710.667,19.8333 710,27.5C 708.246,29.25 706.079,29.9167 703.5,29.5C 702.673,20.5025 698.339,13.8358 690.5,9.5C 689.52,6.91355 689.187,4.24688 689.5,1.5 Z"/>
  <path opacity="0.895" fill="#000000" d="M 738.5,1.5 C 741.309,1.58776 742.642,3.08776 742.5,6C 740.619,8.22687 739.119,10.7269 738,13.5C 737.333,28.8333 737.333,44.1667 738,59.5C 745.561,69.6708 743.394,72.5042 731.5,68C 718.788,61.2491 713.121,50.5824 714.5,36C 713.563,17.9784 721.563,6.47836 738.5,1.5 Z"/>
  <path opacity="0.883" fill="#000000" d="M 744.5,1.5 C 763.304,5.32781 772.638,16.9945 772.5,36.5C 773.022,55.4778 764.022,66.8111 745.5,70.5C 743.718,66.4237 744.551,63.0904 748,60.5C 748.667,44.1667 748.667,27.8333 748,11.5C 744.882,8.9296 743.715,5.59626 744.5,1.5 Z"/>
  <path opacity="0.872" fill="#000000" d="M 988.5,1.5 C 991.247,2.97276 992.081,5.30609 991,8.5C 990,9.16667 989,9.83333 988,10.5C 987.333,27.5 987.333,44.5 988,61.5C 991.832,64.1365 992.332,67.1365 989.5,70.5C 971.231,66.3807 962.564,54.8807 963.5,36C 962.553,17.4852 970.887,5.98516 988.5,1.5 Z"/>
  <path opacity="0.908" fill="#000000" d="M 993.5,1.5 C 1006.76,2.8822 1015.59,9.8822 1020,22.5C 1023.04,35.0568 1021.71,47.0568 1016,58.5C 1010.38,65.2297 1003.21,69.2297 994.5,70.5C 992.638,66.5953 993.472,63.5953 997,61.5C 997.333,60.1667 997.667,58.8333 998,57.5C 998.667,42.8333 998.667,28.1667 998,13.5C 997.773,10.9405 996.44,9.27382 994,8.5C 993.503,6.19018 993.337,3.85684 993.5,1.5 Z"/>
  <path opacity="0.748" fill="#fe0000" d="M 197.5,2.5 C 202.163,2.24618 206.329,3.57951 210,6.5C 212.329,1.73864 214.995,1.4053 218,5.5C 218.667,11.8333 218.667,18.1667 218,24.5C 216.116,26.5763 213.949,26.9097 211.5,25.5C 209.96,17.3011 205.294,11.9678 197.5,9.5C 197.5,7.16667 197.5,4.83333 197.5,2.5 Z"/>
  <path opacity="0.774" fill="#000000" d="M 275.5,2.5 C 280.083,2.52771 284.25,3.86104 288,6.5C 288.956,5.42138 289.789,4.25471 290.5,3C 291.944,2.21948 293.277,2.38615 294.5,3.5C 295.632,10.7833 295.799,18.1166 295,25.5C 293.274,26.5762 291.441,26.7429 289.5,26C 288.166,17.5111 283.5,12.0111 275.5,9.5C 275.5,7.16667 275.5,4.83333 275.5,2.5 Z"/>
  <path opacity="0.908" fill="#fe0000" d="M 3.5,3.5 C 12.5062,3.33356 21.5062,3.50023 30.5,4C 39.3998,18.5756 47.8998,33.409 56,48.5C 56.4996,55.1583 56.6663,61.825 56.5,68.5C 51.4889,68.6659 46.4889,68.4993 41.5,68C 28.3317,46.4401 15.665,24.9401 3.5,3.5 Z"/>
  <path opacity="0.741" fill="#fe0000" d="M 43.5,3.5 C 49.5092,3.33385 55.5092,3.50051 61.5,4C 62.5742,4.73869 63.2409,5.73869 63.5,7C 61.3997,9.10028 59.2331,11.2669 57,13.5C 56.6667,22.1667 56.3333,30.8333 56,39.5C 55.586,39.9574 55.086,40.2907 54.5,40.5C 53,38.1667 51.5,35.8333 50,33.5C 49.8855,26.4211 49.2189,19.4211 48,12.5C 46.3333,11.1667 44.6667,9.83333 43,8.5C 42.3603,6.73498 42.5269,5.06831 43.5,3.5 Z"/>
  <path opacity="0.899" fill="#fe0000" d="M 108.5,3.5 C 117.418,3.18277 126.251,3.5161 135,4.5C 135.5,25.8307 135.667,47.1641 135.5,68.5C 126.249,68.8178 117.083,68.4845 108,67.5C 107.334,64.5037 108.501,62.5037 111.5,61.5C 112.499,44.5131 112.833,27.5131 112.5,10.5C 107.812,10.1084 106.478,7.77502 108.5,3.5 Z"/>
  <path opacity="0.884" fill="#fe0000" d="M 137.5,3.5 C 145.185,2.73571 152.519,3.90238 159.5,7C 167.266,14.1909 168.099,22.0243 162,30.5C 159.293,32.9363 156.127,34.4363 152.5,35C 165.72,39.6167 169.553,48.45 164,61.5C 161.222,64.8071 157.722,66.9738 153.5,68C 148.177,68.4994 142.844,68.666 137.5,68.5C 137.338,66.4727 137.505,64.4727 138,62.5C 139.892,61.87 141.559,60.87 143,59.5C 143.667,53.5 143.667,47.5 143,41.5C 141.736,39.393 139.903,38.393 137.5,38.5C 137.5,36.1667 137.5,33.8333 137.5,31.5C 139.484,31.6168 141.15,30.9501 142.5,29.5C 143.833,23.8333 143.833,18.1667 142.5,12.5C 141.15,11.0499 139.484,10.3832 137.5,10.5C 137.5,8.16667 137.5,5.83333 137.5,3.5 Z"/>
  <path opacity="0.929" fill="#000000" d="M 304.5,3.5 C 313.167,3.5 321.833,3.5 330.5,3.5C 330.5,25.1667 330.5,46.8333 330.5,68.5C 321.582,68.8172 312.749,68.4839 304,67.5C 303.333,66.1667 303.333,64.8333 304,63.5C 305.512,62.7433 306.846,61.7433 308,60.5C 308.667,44.1667 308.667,27.8333 308,11.5C 303.814,10.0492 302.647,7.38258 304.5,3.5 Z"/>
  <path opacity="0.814" fill="#000000" d="M 333.5,3.5 C 340.167,3.5 346.833,3.5 353.5,3.5C 353.5,10.1667 353.5,16.8333 353.5,23.5C 351.801,23.6602 350.134,23.4935 348.5,23C 346.037,15.6968 341.037,11.5301 333.5,10.5C 333.5,8.16667 333.5,5.83333 333.5,3.5 Z"/>
  <path opacity="0.896" fill="#000000" d="M 360.5,3.5 C 369.418,3.18277 378.251,3.5161 387,4.5C 387.167,23.5088 387.667,42.5088 388.5,61.5C 392.069,62.3469 393.402,64.3469 392.5,67.5C 381.854,68.4987 371.187,68.832 360.5,68.5C 359.971,65.3959 360.971,63.0625 363.5,61.5C 364.833,44.5 364.833,27.5 363.5,10.5C 360.971,8.93748 359.971,6.60414 360.5,3.5 Z"/>
  <path opacity="0.876" fill="#000000" d="M 389.5,3.5 C 397.45,2.41438 404.783,3.91438 411.5,8C 416.282,13.6165 417.782,20.1165 416,27.5C 413.642,31.3582 410.475,34.3582 406.5,36.5C 415.255,40.6759 418.755,47.6759 417,57.5C 421.9,55.662 423.9,57.3287 423,62.5C 417.727,69.0922 410.894,71.2589 402.5,69C 399.417,68.214 397.251,66.3807 396,63.5C 394.837,56.8966 394.17,50.2299 394,43.5C 388,39.5 388,35.5 394,31.5C 394.667,25.1667 394.667,18.8333 394,12.5C 390.226,10.775 388.726,7.775 389.5,3.5 Z"/>
  <path opacity="0.904" fill="#000000" d="M 425.5,3.5 C 435.522,3.16814 445.522,3.50148 455.5,4.5C 456.428,5.76779 456.595,7.10112 456,8.5C 454.647,9.68529 453.48,11.0186 452.5,12.5C 456.478,25.7457 460.145,39.0791 463.5,52.5C 462.573,57.6128 461.24,62.6128 459.5,67.5C 454.615,68.8023 449.782,68.8023 445,67.5C 438.724,45.6353 432.224,24.3019 425.5,3.5 Z"/>
  <path opacity="0.723" fill="#000000" d="M 462.5,3.5 C 468.509,3.33385 474.509,3.50051 480.5,4C 481.574,4.73869 482.241,5.73869 482.5,7C 479.202,9.25913 476.369,12.0925 474,15.5C 471.178,25.1225 468.511,34.7892 466,44.5C 465.586,44.9574 465.086,45.2907 464.5,45.5C 462.963,42.5223 461.963,39.3557 461.5,36C 463.344,28.6252 465.344,21.2919 467.5,14C 466.644,11.6459 464.977,10.1459 462.5,9.5C 461.306,7.48436 461.306,5.48436 462.5,3.5 Z"/>
  <path opacity="0.895" fill="#000000" d="M 485.5,3.5 C 495.506,3.33352 505.506,3.50019 515.5,4C 518.49,7.20113 517.823,9.3678 513.5,10.5C 512.334,27.4902 512.167,44.4902 513,61.5C 516.079,62.6764 517.245,64.6764 516.5,67.5C 506.188,68.4986 495.855,68.8319 485.5,68.5C 484.971,65.3959 485.971,63.0625 488.5,61.5C 489.833,44.5 489.833,27.5 488.5,10.5C 485.971,8.93748 484.971,6.60414 485.5,3.5 Z"/>
  <path opacity="0.929" fill="#000000" d="M 580.5,3.5 C 589.085,3.18344 597.585,3.51677 606,4.5C 606.5,25.8307 606.667,47.1641 606.5,68.5C 597.582,68.8172 588.749,68.4839 580,67.5C 579.139,64.0064 580.472,61.6731 584,60.5C 584.667,44.1667 584.667,27.8333 584,11.5C 579.922,10.0514 578.755,7.38475 580.5,3.5 Z"/>
  <path opacity="0.816" fill="#000000" d="M 609.5,3.5 C 615.842,3.33379 622.175,3.50046 628.5,4C 629.478,10.4102 629.811,16.9102 629.5,23.5C 627.5,23.5 625.5,23.5 623.5,23.5C 622.054,15.7215 617.388,11.3882 609.5,10.5C 609.5,8.16667 609.5,5.83333 609.5,3.5 Z"/>
  <path opacity="0.912" fill="#000000" d="M 777.5,3.5 C 786.751,3.18215 795.917,3.51549 805,4.5C 813,18.5 821,32.5 829,46.5C 829.5,53.8258 829.666,61.1591 829.5,68.5C 824.456,68.8275 819.456,68.4941 814.5,67.5C 803.878,48.4205 792.878,29.5872 781.5,11C 776.851,10.1978 775.517,7.69783 777.5,3.5 Z"/>
  <path opacity="0.779" fill="#000000" d="M 816.5,3.5 C 823.09,3.189 829.59,3.52234 836,4.5C 836.952,8.11484 835.619,10.4482 832,11.5C 831.138,13.087 830.471,14.7536 830,16.5C 829.968,24.6646 829.302,32.6646 828,40.5C 826.414,38.3295 825.08,35.9962 824,33.5C 823.879,26.7536 823.212,20.087 822,13.5C 820.649,11.981 819.149,10.6477 817.5,9.5C 816.534,7.60395 816.201,5.60395 816.5,3.5 Z"/>
  <path opacity="0.786" fill="#000000" d="M 839.5,3.5 C 843.846,3.33432 848.179,3.50098 852.5,4C 853.591,6.06385 853.758,8.23052 853,10.5C 848.768,14.4917 846.435,19.4917 846,25.5C 843.959,26.4231 841.792,26.7564 839.5,26.5C 839.5,18.8333 839.5,11.1667 839.5,3.5 Z"/>
  <path opacity="0.929" fill="#000000" d="M 855.5,3.5 C 862.833,3.5 870.167,3.5 877.5,3.5C 877.5,22.8333 877.5,42.1667 877.5,61.5C 882.143,61.622 883.809,63.7887 882.5,68C 871.59,68.8196 860.757,68.6529 850,67.5C 849.333,66.1667 849.333,64.8333 850,63.5C 851.667,62.5 853.333,61.5 855,60.5C 855.5,41.5029 855.667,22.5029 855.5,3.5 Z"/>
  <path opacity="0.817" fill="#000000" d="M 880.5,3.5 C 884.833,3.5 889.167,3.5 893.5,3.5C 893.5,11.1667 893.5,18.8333 893.5,26.5C 891.208,26.7564 889.041,26.4231 887,25.5C 886.933,19.955 884.933,15.2883 881,11.5C 880.503,8.85397 880.336,6.1873 880.5,3.5 Z"/>
  <path opacity="0.896" fill="#000000" d="M 898.5,3.5 C 907.418,3.18277 916.251,3.5161 925,4.5C 925.167,23.5088 925.667,42.5088 926.5,61.5C 930.069,62.3469 931.402,64.3469 930.5,67.5C 919.854,68.4987 909.187,68.832 898.5,68.5C 897.971,65.3959 898.971,63.0625 901.5,61.5C 902.833,44.5 902.833,27.5 901.5,10.5C 898.971,8.93748 897.971,6.60414 898.5,3.5 Z"/>
  <path opacity="0.876" fill="#000000" d="M 927.5,3.5 C 935.45,2.41438 942.783,3.91438 949.5,8C 954.282,13.6165 955.782,20.1165 954,27.5C 951.642,31.3582 948.475,34.3582 944.5,36.5C 953.255,40.6759 956.755,47.6759 955,57.5C 959.9,55.662 961.9,57.3287 961,62.5C 955.727,69.0922 948.894,71.2589 940.5,69C 937.417,68.214 935.251,66.3807 934,63.5C 932.837,56.8966 932.17,50.2299 932,43.5C 926,39.5 926,35.5 932,31.5C 932.667,25.1667 932.667,18.8333 932,12.5C 928.226,10.775 926.726,7.775 927.5,3.5 Z"/>
  <path opacity="0.895" fill="#000000" d="M 1026.5,3.5 C 1036.84,3.33351 1047.17,3.50017 1057.5,4C 1058.29,5.08524 1058.96,6.2519 1059.5,7.5C 1057.97,9.18809 1056.14,10.5214 1054,11.5C 1053.5,30.4971 1053.33,49.4971 1053.5,68.5C 1044.5,68.5 1035.5,68.5 1026.5,68.5C 1025.97,65.3959 1026.97,63.0625 1029.5,61.5C 1030.83,44.5 1030.83,27.5 1029.5,10.5C 1026.97,8.93748 1025.97,6.60414 1026.5,3.5 Z"/>
  <path opacity="0.926" fill="#000000" d="M 1078.5,3.5 C 1088.51,3.33352 1098.51,3.50019 1108.5,4C 1110.21,5.13318 1110.71,6.63318 1110,8.5C 1108.33,9.5 1106.67,10.5 1105,11.5C 1104.5,30.4971 1104.33,49.4971 1104.5,68.5C 1095.58,68.8172 1086.75,68.4839 1078,67.5C 1077.14,64.0064 1078.47,61.6731 1082,60.5C 1082.67,44.1667 1082.67,27.8333 1082,11.5C 1077.92,10.0514 1076.75,7.38475 1078.5,3.5 Z"/>
  <path opacity="0.929" fill="#000000" d="M 1129.5,3.5 C 1138.09,3.18344 1146.59,3.51677 1155,4.5C 1155.5,25.8307 1155.67,47.1641 1155.5,68.5C 1146.58,68.8172 1137.75,68.4839 1129,67.5C 1128.14,64.0064 1129.47,61.6731 1133,60.5C 1133.67,44.1667 1133.67,27.8333 1133,11.5C 1128.92,10.0514 1127.75,7.38475 1129.5,3.5 Z"/>
  <path opacity="0.816" fill="#000000" d="M 1158.5,3.5 C 1164.84,3.33379 1171.18,3.50046 1177.5,4C 1178.48,10.4102 1178.81,16.9102 1178.5,23.5C 1176.5,23.5 1174.5,23.5 1172.5,23.5C 1171.05,15.7215 1166.39,11.3882 1158.5,10.5C 1158.5,8.16667 1158.5,5.83333 1158.5,3.5 Z"/>
  <path opacity="0.925" fill="#000000" d="M 1185.5,3.5 C 1194.17,3.5 1202.83,3.5 1211.5,3.5C 1211.33,22.5029 1211.5,41.5029 1212,60.5C 1214.85,61.3465 1216.68,63.1798 1217.5,66C 1217.36,66.772 1217.02,67.4387 1216.5,68C 1206.17,68.6667 1195.83,68.6667 1185.5,68C 1184.94,67.2753 1184.61,66.4419 1184.5,65.5C 1185.32,63.3132 1186.82,61.6466 1189,60.5C 1189.67,44.1667 1189.67,27.8333 1189,11.5C 1184.81,10.0492 1183.65,7.38258 1185.5,3.5 Z"/>
  <path opacity="0.884" fill="#000000" d="M 1214.5,3.5 C 1225.26,1.46779 1233.76,4.80112 1240,13.5C 1243.74,24.135 1240.57,31.8017 1230.5,36.5C 1239.52,40.5291 1243.35,47.5291 1242,57.5C 1247.62,56.1188 1249.28,58.1188 1247,63.5C 1245.06,66.1059 1242.56,67.9392 1239.5,69C 1234.38,69.888 1229.38,69.5547 1224.5,68C 1222.19,66.3626 1220.69,64.196 1220,61.5C 1219.67,55.8333 1219.33,50.1667 1219,44.5C 1218.41,42.1367 1216.91,41.1367 1214.5,41.5C 1214.5,38.8333 1214.5,36.1667 1214.5,33.5C 1216.91,33.8633 1218.41,32.8633 1219,30.5C 1219.67,25.1667 1219.67,19.8333 1219,14.5C 1218.36,12.6969 1217.2,11.3636 1215.5,10.5C 1214.53,8.25731 1214.19,5.92397 1214.5,3.5 Z"/>
  <path opacity="0.756" fill="#fe0000" d="M 9.5,20.5 C 12.3462,22.4747 14.5129,25.1413 16,28.5C 16.3333,38.5 16.6667,48.5 17,58.5C 19.5316,60.6828 21.6983,63.1828 23.5,66C 23.3552,66.772 23.0219,67.4387 22.5,68C 16.1754,68.4995 9.84209,68.6662 3.5,68.5C 3.2011,66.396 3.53443,64.396 4.5,62.5C 6.14869,61.3523 7.64869,60.019 9,58.5C 9.49988,45.8377 9.66655,33.1711 9.5,20.5 Z"/>
  <path opacity="0.738" fill="#000000" d="M 783.5,20.5 C 786.134,22.9964 788.3,25.9964 790,29.5C 790.333,39.5 790.667,49.5 791,59.5C 793.185,60.9284 795.185,62.5951 797,64.5C 797.684,65.7839 797.517,66.9505 796.5,68C 789.918,68.81 783.418,68.6433 777,67.5C 776.333,66.1667 776.333,64.8333 777,63.5C 779.667,62.1667 781.667,60.1667 783,57.5C 783.5,45.1712 783.667,32.8378 783.5,20.5 Z"/>
  <path opacity="0.801" fill="#000000" d="M 340.5,22.5 C 342.144,22.2865 343.644,22.6198 345,23.5C 345.5,31.8267 345.666,40.16 345.5,48.5C 343.533,48.7394 341.699,48.4061 340,47.5C 339.4,43.9599 337.566,41.2932 334.5,39.5C 332.742,34.8558 333.909,31.1892 338,28.5C 338.573,26.3594 339.406,24.3594 340.5,22.5 Z"/>
  <path opacity="0.764" fill="#000000" d="M 615.5,22.5 C 617.766,22.1412 619.599,22.8078 621,24.5C 621.667,32.1667 621.667,39.8333 621,47.5C 619.301,48.4061 617.467,48.7394 615.5,48.5C 615.276,43.6639 612.943,40.6639 608.5,39.5C 607.443,34.8844 608.943,31.551 613,29.5C 614.411,27.3496 615.245,25.0163 615.5,22.5 Z"/>
  <path opacity="0.764" fill="#000000" d="M 1164.5,22.5 C 1166.77,22.1412 1168.6,22.8078 1170,24.5C 1170.67,32.1667 1170.67,39.8333 1170,47.5C 1168.3,48.4061 1166.47,48.7394 1164.5,48.5C 1164.28,43.6639 1161.94,40.6639 1157.5,39.5C 1156.44,34.8844 1157.94,31.551 1162,29.5C 1163.41,27.3496 1164.24,25.0163 1164.5,22.5 Z"/>
  <path opacity="0.833" fill="#fe0000" d="M 78.5,23.5 C 84.6818,22.9902 85.8484,24.9902 82,29.5C 81.3333,40.8333 81.3333,52.1667 82,63.5C 84.0386,64.9783 84.8719,66.9783 84.5,69.5C 70.851,68.1712 64.1843,60.5045 64.5,46.5C 64.3967,35.6711 69.0634,28.0044 78.5,23.5 Z"/>
  <path opacity="0.871" fill="#fe0000" d="M 85.5,23.5 C 93.0033,24.1712 98.5033,27.8379 102,34.5C 105.552,43.6487 105.219,52.6487 101,61.5C 97.0533,66.6313 91.8867,69.2979 85.5,69.5C 85.1437,66.4359 85.9771,63.7693 88,61.5C 88.6667,51.5 88.6667,41.5 88,31.5C 85.9771,29.2307 85.1437,26.5641 85.5,23.5 Z"/>
  <path opacity="0.783" fill="#fe0000" d="M 172.5,44.5 C 174.288,44.2148 175.955,44.5481 177.5,45.5C 179.059,49.6194 180.893,53.6194 183,57.5C 186.078,60.2523 189.411,62.5856 193,64.5C 193.743,66.4406 193.576,68.2739 192.5,70C 188.053,70.0119 183.886,68.8452 180,66.5C 177.688,68.4641 175.188,68.7974 172.5,67.5C 171.169,59.8035 171.169,52.1368 172.5,44.5 Z"/>
  <path opacity="0.791" fill="#000000" d="M 250.5,44.5 C 251.873,44.3433 253.207,44.51 254.5,45C 256.515,48.695 258.349,52.5284 260,56.5C 262.47,59.8066 265.637,62.14 269.5,63.5C 270.78,65.7016 270.78,67.8683 269.5,70C 265.078,69.9777 260.912,68.8111 257,66.5C 254.925,68.6483 252.592,68.9817 250,67.5C 249.202,59.754 249.369,52.0873 250.5,44.5 Z"/>
  <path opacity="0.78" fill="#000000" d="M 1069.5,45.5 C 1072.86,44.7904 1074.69,46.1238 1075,49.5C 1075.5,55.8246 1075.67,62.1579 1075.5,68.5C 1068.83,68.5 1062.17,68.5 1055.5,68.5C 1055.5,66.1667 1055.5,63.8333 1055.5,61.5C 1059.03,61.6541 1061.86,60.3208 1064,57.5C 1066.51,53.8005 1068.34,49.8005 1069.5,45.5 Z"/>
  <path opacity="0.781" fill="#000000" d="M 1120.5,45.5 C 1122.77,45.1412 1124.6,45.8078 1126,47.5C 1126.5,54.4921 1126.67,61.4921 1126.5,68.5C 1119.83,68.5 1113.17,68.5 1106.5,68.5C 1106.5,66.1667 1106.5,63.8333 1106.5,61.5C 1110.55,61.5589 1113.71,59.8922 1116,56.5C 1118.07,53.0395 1119.57,49.3728 1120.5,45.5 Z"/>
  <path opacity="0.795" fill="#000000" d="M 348.5,47.5 C 350.766,47.1412 352.599,47.8078 354,49.5C 354.5,55.8246 354.666,62.1579 354.5,68.5C 347.5,68.5 340.5,68.5 333.5,68.5C 333.5,66.1667 333.5,63.8333 333.5,61.5C 341.675,60.3275 346.675,55.6608 348.5,47.5 Z"/>
  <path opacity="0.785" fill="#000000" d="M 624.5,47.5 C 626.766,47.1412 628.599,47.8078 630,49.5C 630.5,55.8246 630.666,62.1579 630.5,68.5C 623.5,68.5 616.5,68.5 609.5,68.5C 609.5,66.1667 609.5,63.8333 609.5,61.5C 617.675,60.3275 622.675,55.6608 624.5,47.5 Z"/>
  <path opacity="0.785" fill="#000000" d="M 1173.5,47.5 C 1175.77,47.1412 1177.6,47.8078 1179,49.5C 1179.5,55.8246 1179.67,62.1579 1179.5,68.5C 1172.5,68.5 1165.5,68.5 1158.5,68.5C 1158.5,66.1667 1158.5,63.8333 1158.5,61.5C 1166.68,60.3275 1171.68,55.6608 1173.5,47.5 Z"/>
  <path opacity="0.701" fill="#000000" d="M 567.5,49.5 C 572.659,49.1363 574.492,51.4696 573,56.5C 569.004,65.3303 562.171,69.997 552.5,70.5C 552.5,67.8333 552.5,65.1667 552.5,62.5C 560.938,62.0583 565.938,57.725 567.5,49.5 Z"/>
  <path opacity="0.699" fill="#000000" d="M 704.5,49.5 C 707.864,48.8728 709.864,50.2061 710.5,53.5C 707.444,63.3679 700.778,69.0346 690.5,70.5C 689.52,67.9135 689.187,65.2469 689.5,62.5C 697.259,61.411 702.259,57.0777 704.5,49.5 Z"/>
</svg>