<svg width="48" height="48" viewBox="0 0 48 48" fill-rule="evenodd" clip-rule="evenodd" xmlns="http://www.w3.org/2000/svg"><defs><linearGradient id="backgroundgrad" x1="0%" y1="0%" x2="100%" y2="0%"><stop offset="0%" stop-color="#f96714" /><stop offset="100%" stop-color="#fdcfb4" /></linearGradient><linearGradient id="bordergrad" x1="0%" y1="0%" x2="100%" y2="0%"><stop offset="0%" stop-color="#fdcfb4" /><stop offset="100%" stop-color="#f96714" /></linearGradient></defs><rect x="1" y="1" rx="8" ry="8" width="46" height="46" fill="url(#backgroundgrad)" stroke="url(#bordergrad)" stroke-width="2" /><svg x="5" y="5" width="38" height="38" viewBox="0 0 100 100"><svg x="-12" y="-12" width="124" height="124" viewBox="0 0 100 100"><path fill="#6693c1" d="M63,84H17c-3.314,0-6-2.686-6-6V51c0-3.314,2.686-6,6-6h46c3.314,0,6,2.686,6,6v27 C69,81.314,66.314,84,63,84z"/><polyline fill="#6693c1" points="69,72 76,72 89,81 89,48 76,57 69,57"/><polygon fill="#5c769b" points="76.5,56.654 76,57 69,57 69,72 76,72 76.5,72.346"/><circle cx="54.5" cy="30.5" r="14.5" fill="#4e6e91"/><circle cx="54.5" cy="30.5" r="7" fill="#78a1d1"/><circle cx="54.5" cy="30.5" r="3" fill="#c6dff1"/><circle cx="25.5" cy="30.5" r="14.5" fill="#4e6e91"/><path fill="#bad3e9" d="M28.5,30.5c0-1.657-1.343-3-3-3h-11c-1.657,0-3,1.343-3,3c0,1.657,1.343,3,3,3h11 C27.157,33.5,28.5,32.157,28.5,30.5z"/><circle cx="14.5" cy="30.5" r="3" fill="#c6dff1"/><circle cx="14.5" cy="30.5" r="3" fill="#c6dff1"/><path fill="#78a1d1" d="M25.5,23.5c-2.791,0-5.193,1.637-6.317,4H25.5c1.657,0,3,1.343,3,3c0,1.657-1.343,3-3,3h-6.317 c1.124,2.363,3.527,4,6.317,4c3.866,0,7-3.134,7-7S29.366,23.5,25.5,23.5z"/><g><path fill="#1f212b" d="M63,85H17c-3.859,0-7-3.14-7-7V51c0-3.86,3.141-7,7-7h46c3.859,0,7,3.14,7,7v27 C70,81.86,66.859,85,63,85z M17,46c-2.757,0-5,2.243-5,5v27c0,2.757,2.243,5,5,5h46c2.757,0,5-2.243,5-5V51c0-2.757-2.243-5-5-5H17 z"/><path fill="#1f212b" d="M89,82c-0.2,0-0.398-0.06-0.569-0.178L75.688,73H69v-2h7c0.203,0,0.402,0.062,0.569,0.178L88,79.091 V49.909l-11.431,7.914C76.402,57.938,76.203,58,76,58h-7v-2h6.688l12.743-8.822c0.307-0.212,0.704-0.237,1.033-0.063 C89.794,47.287,90,47.628,90,48v33c0,0.372-0.206,0.713-0.536,0.886C89.318,81.962,89.159,82,89,82z"/><path fill="#1f212b" d="M76.5,73c-0.276,0-0.5-0.224-0.5-0.5v-16c0-0.276,0.224-0.5,0.5-0.5s0.5,0.224,0.5,0.5v16 C77,72.776,76.776,73,76.5,73z"/><path fill="#1f212b" d="M54.5,46C45.953,46,39,39.047,39,30.5S45.953,15,54.5,15S70,21.953,70,30.5S63.047,46,54.5,46z M54.5,17C47.056,17,41,23.056,41,30.5S47.056,44,54.5,44S68,37.944,68,30.5S61.944,17,54.5,17z"/><path fill="#1f212b" d="M54.5,38c-4.136,0-7.5-3.364-7.5-7.5s3.364-7.5,7.5-7.5s7.5,3.364,7.5,7.5S58.636,38,54.5,38z M54.5,24c-3.584,0-6.5,2.916-6.5,6.5s2.916,6.5,6.5,6.5s6.5-2.916,6.5-6.5S58.084,24,54.5,24z"/><path fill="#1f212b" d="M54.5,34c-1.93,0-3.5-1.57-3.5-3.5s1.57-3.5,3.5-3.5s3.5,1.57,3.5,3.5S56.43,34,54.5,34z M54.5,28 c-1.379,0-2.5,1.122-2.5,2.5s1.121,2.5,2.5,2.5s2.5-1.122,2.5-2.5S55.879,28,54.5,28z"/><path fill="#1f212b" d="M25.5,46C16.953,46,10,39.047,10,30.5S16.953,15,25.5,15S41,21.953,41,30.5S34.047,46,25.5,46z M25.5,17C18.056,17,12,23.056,12,30.5S18.056,44,25.5,44S39,37.944,39,30.5S32.944,17,25.5,17z"/><path fill="#1f212b" d="M14.5,34c-1.93,0-3.5-1.57-3.5-3.5s1.57-3.5,3.5-3.5s3.5,1.57,3.5,3.5S16.43,34,14.5,34z M14.5,28 c-1.379,0-2.5,1.122-2.5,2.5s1.121,2.5,2.5,2.5s2.5-1.122,2.5-2.5S15.879,28,14.5,28z"/><path fill="#1f212b" d="M25.5,34h-11c-1.93,0-3.5-1.57-3.5-3.5s1.57-3.5,3.5-3.5h11c1.93,0,3.5,1.57,3.5,3.5 S27.43,34,25.5,34z M14.5,28c-1.379,0-2.5,1.122-2.5,2.5s1.121,2.5,2.5,2.5h11c1.379,0,2.5-1.122,2.5-2.5S26.879,28,25.5,28H14.5z"/><path fill="#1f212b" d="M25.5,38c-2.874,0-5.53-1.682-6.769-4.285c-0.074-0.155-0.063-0.337,0.028-0.482 S19.011,33,19.183,33H25.5c1.379,0,2.5-1.122,2.5-2.5S26.879,28,25.5,28h-6.317c-0.172,0-0.331-0.088-0.423-0.233 s-0.103-0.327-0.028-0.482C19.97,24.682,22.626,23,25.5,23c4.136,0,7.5,3.364,7.5,7.5S29.636,38,25.5,38z M20.031,34 c1.186,1.845,3.253,3,5.469,3c3.584,0,6.5-2.916,6.5-6.5S29.084,24,25.5,24c-2.216,0-4.283,1.155-5.469,3H25.5 c1.93,0,3.5,1.57,3.5,3.5S27.43,34,25.5,34H20.031z"/><path fill="#1f212b" d="M60.5,80h-41c-2.481,0-4.5-2.019-4.5-4.5v-22c0-2.481,2.019-4.5,4.5-4.5h26 c0.276,0,0.5,0.224,0.5,0.5S45.776,50,45.5,50h-26c-1.93,0-3.5,1.57-3.5,3.5v22c0,1.93,1.57,3.5,3.5,3.5h41 c1.93,0,3.5-1.57,3.5-3.5v-7c0-0.276,0.224-0.5,0.5-0.5s0.5,0.224,0.5,0.5v7C65,77.981,62.981,80,60.5,80z"/><path fill="#1f212b" d="M64.5,59c-0.276,0-0.5-0.224-0.5-0.5v-1c0-0.276,0.224-0.5,0.5-0.5s0.5,0.224,0.5,0.5v1 C65,58.776,64.776,59,64.5,59z"/><path fill="#1f212b" d="M64.5,65c-0.276,0-0.5-0.224-0.5-0.5v-3c0-0.276,0.224-0.5,0.5-0.5s0.5,0.224,0.5,0.5v3 C65,64.776,64.776,65,64.5,65z"/></g></svg></svg></svg>