<svg viewBox="0 0 100 100" fill-rule="evenodd" clip-rule="evenodd" xmlns="http://www.w3.org/2000/svg">
  <path fill="#20222d" opacity="0.954" d="M 19.5,14.5 C 28.0038,12.757 34.6704,15.4236 39.5,22.5C 45.9201,14.1058 53.9201,12.2724 63.5,17C 69.1151,21.9683 70.9484,28.135 69,35.5C 67.9392,38.5616 66.1059,41.0616 63.5,43C 65.8477,43.3459 67.6811,44.5125 69,46.5C 69.498,49.4816 69.6646,52.4816 69.5,55.5C 75.2363,54.6319 80.2363,52.1319 84.5,48C 86.0249,46.9914 87.6916,46.4914 89.5,46.5C 89.5,58.1667 89.5,69.8333 89.5,81.5C 87.6916,81.5086 86.0249,81.0086 84.5,80C 80.2363,75.8681 75.2363,73.3681 69.5,72.5C 69.6646,75.5184 69.498,78.5184 69,81.5C 68.1667,82.3333 67.3333,83.1667 66.5,84C 48.5,84.6667 30.5,84.6667 12.5,84C 11.6667,83.1667 10.8333,82.3333 10,81.5C 9.33333,69.8333 9.33333,58.1667 10,46.5C 11.3189,44.5125 13.1523,43.3459 15.5,43C 8.95742,36.402 7.79076,28.902 12,20.5C 14.1141,17.8792 16.6141,15.8792 19.5,14.5 Z M 38.5,37.5 C 46.689,43.285 45.3557,45.1183 34.5,43C 36.4641,41.549 37.7974,39.7157 38.5,37.5 Z"/>
  <path fill="#496686" d="M 19.5,34.5 C 22.971,37.0897 26.471,37.0897 30,34.5C 32.5545,27.388 30.0545,23.888 22.5,24C 21.6195,24.7083 20.9528,25.5416 20.5,26.5C 18.0428,26.2077 15.3761,26.2077 12.5,26.5C 14.0406,20.3752 18.0406,17.0419 24.5,16.5C 38.2607,19.359 41.7607,27.0257 35,39.5C 28.3027,44.7568 21.6361,44.7568 15,39.5C 13.4412,37.7834 12.6079,35.7834 12.5,33.5C 14.9496,33.298 17.283,33.6314 19.5,34.5 Z"/>
  <path fill="#496687" d="M 49.5,16.5 C 63.766,16.0574 69.266,22.7241 66,36.5C 59.9576,44.2359 52.7909,45.4026 44.5,40C 37.9356,30.2952 39.6023,22.4619 49.5,16.5 Z"/>
  <path fill="#344054" d="M 60.5,27.5 C 59.0384,26.5423 57.7051,25.3756 56.5,24C 54.4024,23.3224 52.4024,23.4891 50.5,24.5C 49.2617,24.19 49.2617,23.69 50.5,23C 55.4571,21.317 58.7905,22.817 60.5,27.5 Z"/>
  <path fill="#7298c5" d="M 19.5,34.5 C 21.9686,33.6829 24.6353,33.1829 27.5,33C 29.0779,30.6612 28.7446,28.8278 26.5,27.5C 24.7354,26.5386 22.7354,26.2053 20.5,26.5C 20.9528,25.5416 21.6195,24.7083 22.5,24C 30.0545,23.888 32.5545,27.388 30,34.5C 26.471,37.0897 22.971,37.0897 19.5,34.5 Z"/>
  <path fill="#6c8fba" d="M 60.5,27.5 C 61.1723,34.3295 58.1723,37.1628 51.5,36C 46.6235,32.4792 46.2902,28.6458 50.5,24.5C 52.4024,23.4891 54.4024,23.3224 56.5,24C 57.7051,25.3756 59.0384,26.5423 60.5,27.5 Z"/>
  <path fill="#b3cbe0" d="M 16.5,28.5 C 19.6248,27.5206 22.9581,27.1872 26.5,27.5C 27.4132,29.0861 27.4132,30.5861 26.5,32C 22.9733,32.8075 19.6399,32.6408 16.5,31.5C 17.8333,30.5 17.8333,29.5 16.5,28.5 Z"/>
  <path fill="#a3b7c8" d="M 16.5,28.5 C 17.8333,29.5 17.8333,30.5 16.5,31.5C 14.1666,33.1106 12.4999,32.6106 11.5,30C 12.4999,27.3894 14.1666,26.8894 16.5,28.5 Z"/>
  <path fill="#b8d0e1" d="M 56.5,28.5 C 56.8333,31.5 55.5,32.8333 52.5,32.5C 50.8333,28.1667 52.1667,26.8333 56.5,28.5 Z"/>
  <path fill="#3f4d63" d="M 56.5,28.5 C 57.5983,29.6009 57.765,30.9343 57,32.5C 55.3845,33.8009 53.8845,33.8009 52.5,32.5C 55.5,32.8333 56.8333,31.5 56.5,28.5 Z"/>
  <path fill="#6592c0" d="M 14.5,45.5 C 31.5474,45.181 48.5474,45.5143 65.5,46.5C 66.1924,47.0253 66.6924,47.6919 67,48.5C 67.8098,59.2135 67.6431,69.8802 66.5,80.5C 65.9747,81.1924 65.3081,81.6924 64.5,82C 47.4559,82.8188 30.4559,82.6521 13.5,81.5C 12.8076,80.9747 12.3076,80.3081 12,79.5C 11.3333,69.1667 11.3333,58.8333 12,48.5C 12.6979,47.3094 13.5313,46.3094 14.5,45.5 Z"/>
  <path fill="#6591be" d="M 86.5,49.5 C 87.658,58.9911 87.8246,68.6578 87,78.5C 83.9223,76.0446 80.7556,73.7113 77.5,71.5C 76.1667,66.5 76.1667,61.5 77.5,56.5C 80.75,54.3884 83.75,52.0551 86.5,49.5 Z"/>
  <path fill="#222632" d="M 16.5,48.5 C 26.1724,48.3335 35.8391,48.5002 45.5,49C 36.1667,49.3333 26.8333,49.6667 17.5,50C 17,50.5 16.5,51 16,51.5C 15.3333,59.8333 15.3333,68.1667 16,76.5C 16.5,77 17,77.5 17.5,78C 32.1667,78.6667 46.8333,78.6667 61.5,78C 62,77.5 62.5,77 63,76.5C 63.3333,73.5 63.6667,70.5 64,67.5C 64.6667,70.8333 64.6667,74.1667 64,77.5C 63.5,78 63,78.5 62.5,79C 47.1667,79.6667 31.8333,79.6667 16.5,79C 16,78.5 15.5,78 15,77.5C 14.3333,68.5 14.3333,59.5 15,50.5C 15.7172,49.9558 16.2172,49.2891 16.5,48.5 Z"/>
  <path fill="#5c769b" d="M 69.5,57.5 C 71.5,57.5 73.5,57.5 75.5,57.5C 75.5,61.8333 75.5,66.1667 75.5,70.5C 73.5,70.5 71.5,70.5 69.5,70.5C 69.5,66.1667 69.5,61.8333 69.5,57.5 Z"/>
</svg>