<svg width="634" height="128" viewBox="0 0 634 128" fill-rule="evenodd" clip-rule="evenodd" xmlns="http://www.w3.org/2000/svg"><svg x="-3" y="-5" width="138" height="138" viewBox="0 0 270 178"><path fill="#050506" d="M 251.5,119.5 C 228.167,119.5 204.833,119.5 181.5,119.5C 166.833,119.5 152.167,119.5 137.5,119.5C 126.833,119.5 116.167,119.5 105.5,119.5C 105.5,132.5 105.5,145.5 105.5,158.5C 104.833,159.5 104.167,160.5 103.5,161.5C 102.609,162.11 101.609,162.443 100.5,162.5C 80.5,162.5 60.5,162.5 40.5,162.5C 40.5,159.5 40.5,156.5 40.5,153.5C 60.3404,153.83 80.0071,153.497 99.5,152.5C 100.498,125.005 100.831,97.3384 100.5,69.5C 79.3267,69.1694 58.3267,69.5027 37.5,70.5C 36.5046,82.989 36.1713,95.6557 36.5,108.5C 35.1667,108.5 33.8333,108.5 32.5,108.5C 32.8278,97.6536 32.4944,86.9869 31.5,76.5C 30.5531,71.7775 31.8864,67.9442 35.5,65C 44.4938,64.5002 53.4938,64.3336 62.5,64.5C 65.1667,64.5 67.8333,64.5 70.5,64.5C 71.5,64.5 72.5,64.5 73.5,64.5C 82.5062,64.3336 91.5062,64.5002 100.5,65C 103.079,66.0757 104.746,67.909 105.5,70.5C 105.5,83.1667 105.5,95.8333 105.5,108.5C 105.5,110.167 105.5,111.833 105.5,113.5C 153.67,113.832 201.67,113.499 249.5,112.5C 249.5,105.833 249.5,99.1667 249.5,92.5C 249.5,65.8333 249.5,39.1667 249.5,12.5C 189.833,12.5 130.167,12.5 70.5,12.5C 69.5034,29.3251 69.1701,46.3251 69.5,63.5C 67.1667,63.5 64.8333,63.5 62.5,63.5C 62.3334,45.1636 62.5001,26.8303 63,8.5C 63.8333,7.66667 64.6667,6.83333 65.5,6C 128.167,5.33333 190.833,5.33333 253.5,6C 254.701,6.90252 255.535,8.06919 256,9.5C 256.667,45.1667 256.667,80.8333 256,116.5C 254.729,117.883 253.229,118.883 251.5,119.5 Z"/><path fill="#fdf1fd" d="M 192.5,44.5 C 208.5,44.5 224.5,44.5 240.5,44.5C 228.34,45.3308 216.007,45.8308 203.5,46C 203.833,46.3333 204.167,46.6667 204.5,47C 218.673,47.1689 232.673,47.6689 246.5,48.5C 248.161,62.9715 249.161,77.6382 249.5,92.5C 249.5,99.1667 249.5,105.833 249.5,112.5C 249.167,112.5 248.833,112.5 248.5,112.5C 248.657,111.127 248.49,109.793 248,108.5C 247.617,109.056 247.117,109.389 246.5,109.5C 246.5,109.167 246.5,108.833 246.5,108.5C 246.5,105.833 246.5,103.167 246.5,100.5C 227.007,99.5029 207.34,99.1696 187.5,99.5C 203.662,98.6685 219.995,98.1685 236.5,98C 198.338,97.1045 160.338,96.2712 122.5,95.5C 122.833,95.5 123.167,95.5 123.5,95.5C 148.167,95.5 172.833,95.5 197.5,95.5C 197.5,94.5 197.5,93.5 197.5,92.5C 198.496,92.5858 199.329,92.2524 200,91.5C 200.81,80.7865 200.643,70.1198 199.5,59.5C 200.632,54.9087 201.299,50.2421 201.5,45.5C 200.167,45.5 198.833,45.5 197.5,45.5C 197.5,46.5 197.5,47.5 197.5,48.5C 196.167,48.5 194.833,48.5 193.5,48.5C 169.833,48.5 146.167,48.5 122.5,48.5C 125.305,47.6805 128.305,47.1805 131.5,47C 151.407,46.1741 171.24,46.3408 191,47.5C 193.158,46.9498 193.658,45.9498 192.5,44.5 Z"/><path fill="#8b8887" d="M 70.5,12.5 C 70.5,29.8333 70.5,47.1667 70.5,64.5C 67.8333,64.5 65.1667,64.5 62.5,64.5C 62.5,64.1667 62.5,63.8333 62.5,63.5C 64.8333,63.5 67.1667,63.5 69.5,63.5C 69.1701,46.3251 69.5034,29.3251 70.5,12.5 Z"/><path fill="#e1b6e3" d="M 122.5,48.5 C 146.167,48.5 169.833,48.5 193.5,48.5C 193.38,49.5862 192.713,50.2528 191.5,50.5C 168.86,49.5206 146.193,49.1873 123.5,49.5C 123.5,64.8333 123.5,80.1667 123.5,95.5C 123.167,95.5 122.833,95.5 122.5,95.5C 122.5,79.8333 122.5,64.1667 122.5,48.5 Z"/><path fill="#f7f1f8" d="M 70.5,12.5 C 130.167,12.5 189.833,12.5 249.5,12.5C 249.5,39.1667 249.5,65.8333 249.5,92.5C 249.161,77.6382 248.161,62.9715 246.5,48.5C 232.673,47.6689 218.673,47.1689 204.5,47C 204.167,46.6667 203.833,46.3333 203.5,46C 216.007,45.8308 228.34,45.3308 240.5,44.5C 242.5,44.5 244.5,44.5 246.5,44.5C 246.827,34.6522 246.494,24.9856 245.5,15.5C 188.167,15.5 130.833,15.5 73.5,15.5C 73.1729,25.3478 73.5062,35.0144 74.5,44.5C 113.833,44.5 153.167,44.5 192.5,44.5C 193.658,45.9498 193.158,46.9498 191,47.5C 171.24,46.3408 151.407,46.1741 131.5,47C 128.305,47.1805 125.305,47.6805 122.5,48.5C 122.5,64.1667 122.5,79.8333 122.5,95.5C 160.338,96.2712 198.338,97.1045 236.5,98C 219.995,98.1685 203.662,98.6685 187.5,99.5C 165.833,99.5 144.167,99.5 122.5,99.5C 122.5,102.833 122.5,106.167 122.5,109.5C 163.833,109.5 205.167,109.5 246.5,109.5C 247.117,109.389 247.617,109.056 248,108.5C 248.49,109.793 248.657,111.127 248.5,112.5C 201.167,112.5 153.833,112.5 106.5,112.5C 106.5,111.5 106.5,110.5 106.5,109.5C 110.042,109.813 113.375,109.479 116.5,108.5C 117.497,88.6736 117.83,68.6736 117.5,48.5C 102.657,48.1707 87.9905,48.504 73.5,49.5C 73.5,53.1667 73.5,56.8333 73.5,60.5C 73.5,61.8333 73.5,63.1667 73.5,64.5C 72.5,64.5 71.5,64.5 70.5,64.5C 70.5,47.1667 70.5,29.8333 70.5,12.5 Z"/><path fill="#704396" d="M 245.5,15.5 C 246.494,24.9856 246.827,34.6522 246.5,44.5C 244.5,44.5 242.5,44.5 240.5,44.5C 224.5,44.5 208.5,44.5 192.5,44.5C 153.167,44.5 113.833,44.5 74.5,44.5C 74.5,44.1667 74.5,43.8333 74.5,43.5C 128.167,43.5 181.833,43.5 235.5,43.5C 237.5,43.5 239.5,43.5 241.5,43.5C 242.833,43.5 244.167,43.5 245.5,43.5C 245.5,34.5 245.5,25.5 245.5,16.5C 245.5,16.1667 245.5,15.8333 245.5,15.5 Z"/><path fill="#6f2fa5" d="M 245.5,16.5 C 245.5,25.5 245.5,34.5 245.5,43.5C 244.167,43.5 242.833,43.5 241.5,43.5C 241.5,38.5 241.5,33.5 241.5,28.5C 238.918,28.9746 236.918,28.3079 235.5,26.5C 182.167,26.5 128.833,26.5 75.5,26.5C 75.5,31.1667 75.5,35.8333 75.5,40.5C 128.833,40.5 182.167,40.5 235.5,40.5C 235.5,41.5 235.5,42.5 235.5,43.5C 181.833,43.5 128.167,43.5 74.5,43.5C 74.5,34.5 74.5,25.5 74.5,16.5C 131.5,16.5 188.5,16.5 245.5,16.5 Z"/><path fill="#70309f" d="M 235.5,26.5 C 236.918,28.3079 238.918,28.9746 241.5,28.5C 241.5,33.5 241.5,38.5 241.5,43.5C 239.5,43.5 237.5,43.5 235.5,43.5C 235.5,42.5 235.5,41.5 235.5,40.5C 182.167,40.5 128.833,40.5 75.5,40.5C 75.5,35.8333 75.5,31.1667 75.5,26.5C 128.833,26.5 182.167,26.5 235.5,26.5 Z"/><path fill="#71319b" d="M 235.5,26.5 C 235.67,25.1779 235.337,24.0113 234.5,23C 181.83,22.8333 129.164,22.3333 76.5,21.5C 131.398,20.5243 186.231,20.191 241,20.5C 242.769,21.3709 243.436,22.7043 243,24.5C 240.564,25.3547 238.064,26.0213 235.5,26.5 Z"/><path fill="#50237c" d="M 245.5,15.5 C 245.5,15.8333 245.5,16.1667 245.5,16.5C 188.5,16.5 131.5,16.5 74.5,16.5C 74.5,25.5 74.5,34.5 74.5,43.5C 74.5,43.8333 74.5,44.1667 74.5,44.5C 73.5062,35.0144 73.1729,25.3478 73.5,15.5C 130.833,15.5 188.167,15.5 245.5,15.5 Z"/><path fill="#e19de3" d="M 193.5,48.5 C 194.833,48.5 196.167,48.5 197.5,48.5C 197.5,63.1667 197.5,77.8333 197.5,92.5C 197.5,93.5 197.5,94.5 197.5,95.5C 172.833,95.5 148.167,95.5 123.5,95.5C 123.5,80.1667 123.5,64.8333 123.5,49.5C 146.193,49.1873 168.86,49.5206 191.5,50.5C 192.713,50.2528 193.38,49.5862 193.5,48.5 Z"/><path fill="#fcfbfc" d="M 197.5,92.5 C 197.5,77.8333 197.5,63.1667 197.5,48.5C 197.5,47.5 197.5,46.5 197.5,45.5C 198.833,45.5 200.167,45.5 201.5,45.5C 201.299,50.2421 200.632,54.9087 199.5,59.5C 200.643,70.1198 200.81,80.7865 200,91.5C 199.329,92.2524 198.496,92.5858 197.5,92.5 Z"/><path fill="#c946cb" d="M 73.5,49.5 C 87.8333,49.5 102.167,49.5 116.5,49.5C 116.5,69.1667 116.5,88.8333 116.5,108.5C 113.287,108.81 110.287,108.477 107.5,107.5C 107.5,93.1667 107.5,78.8333 107.5,64.5C 96.8313,63.9869 86.1646,63.3203 75.5,62.5C 75.1445,61.4777 74.4778,60.811 73.5,60.5C 73.5,56.8333 73.5,53.1667 73.5,49.5 Z"/><path fill="#e59bea" d="M 73.5,49.5 C 87.9905,48.504 102.657,48.1707 117.5,48.5C 117.83,68.6736 117.497,88.6736 116.5,108.5C 116.5,88.8333 116.5,69.1667 116.5,49.5C 102.167,49.5 87.8333,49.5 73.5,49.5 Z"/><path fill="#c677c6" d="M 246.5,48.5 C 246.5,48.8333 246.5,49.1667 246.5,49.5C 246.167,49.5 245.833,49.5 245.5,49.5C 231.5,49.5 217.5,49.5 203.5,49.5C 203.5,64.5 203.5,79.5 203.5,94.5C 203.5,94.8333 203.5,95.1667 203.5,95.5C 202.504,80.0089 202.17,64.3422 202.5,48.5C 217.167,48.5 231.833,48.5 246.5,48.5 Z"/><path fill="#ca47cd" d="M 245.5,49.5 C 245.5,64.5 245.5,79.5 245.5,94.5C 231.5,94.5 217.5,94.5 203.5,94.5C 203.5,79.5 203.5,64.5 203.5,49.5C 217.5,49.5 231.5,49.5 245.5,49.5 Z"/><path fill="#ac55ae" d="M 245.5,49.5 C 245.833,49.5 246.167,49.5 246.5,49.5C 246.5,64.8333 246.5,80.1667 246.5,95.5C 232.167,95.5 217.833,95.5 203.5,95.5C 203.5,95.1667 203.5,94.8333 203.5,94.5C 217.5,94.5 231.5,94.5 245.5,94.5C 245.5,79.5 245.5,64.5 245.5,49.5 Z"/><path fill="#fbf3fa" d="M 37.5,70.5 C 58.1667,70.5 78.8333,70.5 99.5,70.5C 99.5,97.8333 99.5,125.167 99.5,152.5C 79.5,152.5 59.5,152.5 39.5,152.5C 39.829,138.656 39.4957,124.99 38.5,111.5C 38.5,110.833 38.1667,110.5 37.5,110.5C 37.5,97.1667 37.5,83.8333 37.5,70.5 Z"/><path fill="#c46cc8" d="M 73.5,60.5 C 74.4778,60.811 75.1445,61.4777 75.5,62.5C 86.1646,63.3203 96.8313,63.9869 107.5,64.5C 107.5,78.8333 107.5,93.1667 107.5,107.5C 106.833,95.1667 106.167,82.8333 105.5,70.5C 104.746,67.909 103.079,66.0757 100.5,65C 91.5062,64.5002 82.5062,64.3336 73.5,64.5C 73.5,63.1667 73.5,61.8333 73.5,60.5 Z"/><path fill="#b197ca" d="M 96.5,72.5 C 97.4881,77.6405 97.8214,82.9738 97.5,88.5C 78.5,88.5 59.5,88.5 40.5,88.5C 40.5,82.8333 40.5,77.1667 40.5,71.5C 59.3408,71.1698 78.0075,71.5031 96.5,72.5 Z"/><path fill="#5a2b85" d="M 91.5,72.5 C 93.1667,72.5 94.8333,72.5 96.5,72.5C 96.5,77.5 96.5,82.5 96.5,87.5C 78.1667,87.5 59.8333,87.5 41.5,87.5C 41.5,86.1667 41.5,84.8333 41.5,83.5C 42.404,84.209 42.7373,85.209 42.5,86.5C 58.8367,86.6666 75.1701,86.4999 91.5,86C 92.5634,84.8118 93.8967,84.3118 95.5,84.5C 95.5,80.8333 95.5,77.1667 95.5,73.5C 93.901,73.7678 92.5676,73.4345 91.5,72.5 Z"/><path fill="#6e2e9e" d="M 91.5,72.5 C 92.5676,73.4345 93.901,73.7678 95.5,73.5C 95.5,77.1667 95.5,80.8333 95.5,84.5C 93.8967,84.3118 92.5634,84.8118 91.5,86C 75.1701,86.4999 58.8367,86.6666 42.5,86.5C 42.7373,85.209 42.404,84.209 41.5,83.5C 41.5,79.8333 41.5,76.1667 41.5,72.5C 58.1667,72.5 74.8333,72.5 91.5,72.5 Z"/><path fill="#323530" d="M 37.5,70.5 C 37.5,83.8333 37.5,97.1667 37.5,110.5C 35.6208,109.659 33.6208,109.325 31.5,109.5C 31.5,98.5 31.5,87.5 31.5,76.5C 32.4944,86.9869 32.8278,97.6536 32.5,108.5C 33.8333,108.5 35.1667,108.5 36.5,108.5C 36.1713,95.6557 36.5046,82.989 37.5,70.5 Z"/><path fill="#daaed9" d="M 42.5,90.5 C 41.3968,98.4515 41.2302,106.452 42,114.5C 42.8699,115.108 43.3699,115.941 43.5,117C 42.0006,119.398 41.3339,122.065 41.5,125C 41.5465,127.295 42.2132,129.129 43.5,130.5C 43.5,131.167 43.5,131.833 43.5,132.5C 42.5,132.5 41.5,132.5 40.5,132.5C 39.8509,118.127 40.5176,104.127 42.5,90.5 Z"/><path fill="#666769" d="M 37.5,70.5 C 58.3267,69.5027 79.3267,69.1694 100.5,69.5C 100.831,97.3384 100.498,125.005 99.5,152.5C 99.5,125.167 99.5,97.8333 99.5,70.5C 78.8333,70.5 58.1667,70.5 37.5,70.5 Z"/><path fill="#aa72ab" d="M 105.5,70.5 C 106.167,82.8333 106.833,95.1667 107.5,107.5C 110.287,108.477 113.287,108.81 116.5,108.5C 113.375,109.479 110.042,109.813 106.5,109.5C 106.5,108.833 106.167,108.5 105.5,108.5C 105.5,95.8333 105.5,83.1667 105.5,70.5 Z"/><path fill="#6e3097" d="M 124.5,100.5 C 160.838,102.098 197.504,103.432 234.5,104.5C 197.833,105.167 161.167,105.833 124.5,106.5C 164.161,107.5 203.828,107.833 243.5,107.5C 243.702,105.05 243.369,102.717 242.5,100.5C 243.833,100.5 245.167,100.5 246.5,100.5C 246.5,103.167 246.5,105.833 246.5,108.5C 205.5,108.5 164.5,108.5 123.5,108.5C 123.194,105.615 123.527,102.948 124.5,100.5 Z"/><path fill="#6f2ca4" d="M 124.5,100.5 C 163.833,100.5 203.167,100.5 242.5,100.5C 243.369,102.717 243.702,105.05 243.5,107.5C 203.828,107.833 164.161,107.5 124.5,106.5C 161.167,105.833 197.833,105.167 234.5,104.5C 197.504,103.432 160.838,102.098 124.5,100.5 Z"/><path fill="#e4badf" d="M 91.5,90.5 C 93.5,90.5 95.5,90.5 97.5,90.5C 97.6666,103.504 97.4999,116.504 97,129.5C 95.3005,130.406 93.4672,130.739 91.5,130.5C 92.5521,128.744 94.2188,128.077 96.5,128.5C 96.5,116.5 96.5,104.5 96.5,92.5C 94.2188,92.9227 92.5521,92.256 91.5,90.5 Z"/><path fill="#917baa" d="M 187.5,99.5 C 207.34,99.1696 227.007,99.5029 246.5,100.5C 245.167,100.5 243.833,100.5 242.5,100.5C 203.167,100.5 163.833,100.5 124.5,100.5C 123.527,102.948 123.194,105.615 123.5,108.5C 164.5,108.5 205.5,108.5 246.5,108.5C 246.5,108.833 246.5,109.167 246.5,109.5C 205.167,109.5 163.833,109.5 122.5,109.5C 122.5,106.167 122.5,102.833 122.5,99.5C 144.167,99.5 165.833,99.5 187.5,99.5 Z"/><path fill="#7c7c7e" d="M 105.5,108.5 C 106.167,108.5 106.5,108.833 106.5,109.5C 106.5,110.5 106.5,111.5 106.5,112.5C 153.833,112.5 201.167,112.5 248.5,112.5C 248.833,112.5 249.167,112.5 249.5,112.5C 201.67,113.499 153.67,113.832 105.5,113.5C 105.5,111.833 105.5,110.167 105.5,108.5 Z"/><path fill="#e29ce4" d="M 42.5,90.5 C 58.8333,90.5 75.1667,90.5 91.5,90.5C 92.5521,92.256 94.2188,92.9227 96.5,92.5C 96.5,104.5 96.5,116.5 96.5,128.5C 94.2188,128.077 92.5521,128.744 91.5,130.5C 75.5,130.5 59.5,130.5 43.5,130.5C 42.2132,129.129 41.5465,127.295 41.5,125C 41.3339,122.065 42.0006,119.398 43.5,117C 43.3699,115.941 42.8699,115.108 42,114.5C 41.2302,106.452 41.3968,98.4515 42.5,90.5 Z"/><path fill="#6b6b69" d="M 137.5,119.5 C 152.167,119.5 166.833,119.5 181.5,119.5C 181.5,120.5 181.5,121.5 181.5,122.5C 166.833,122.5 152.167,122.5 137.5,122.5C 137.5,121.833 137.5,121.167 137.5,120.5C 137.5,120.167 137.5,119.833 137.5,119.5 Z"/><path fill="#ababab" d="M 181.5,119.5 C 204.833,119.5 228.167,119.5 251.5,119.5C 228.673,120.498 205.673,120.831 182.5,120.5C 182.764,126.622 184.431,132.289 187.5,137.5C 187.833,138.167 188.167,138.833 188.5,139.5C 188.574,141.411 189.574,142.578 191.5,143C 210.253,142.934 228.92,144.1 247.5,146.5C 249.007,148.969 248.673,151.135 246.5,153C 217.872,155.005 189.206,156.172 160.5,156.5C 145.969,156.488 131.469,156.155 117,155.5C 115.699,155.639 114.866,156.305 114.5,157.5C 111.358,157.799 109.191,159.466 108,162.5C 106.612,162.786 105.112,162.452 103.5,161.5C 104.167,160.5 104.833,159.5 105.5,158.5C 109.711,157.444 110.377,155.444 107.5,152.5C 112.167,152.5 116.833,152.5 121.5,152.5C 146.833,152.5 172.167,152.5 197.5,152.5C 198.239,152.369 198.906,152.536 199.5,153C 198.167,153.333 196.833,153.667 195.5,154C 208.919,153.916 222.252,152.75 235.5,150.5C 235.5,149.5 235.5,148.5 235.5,147.5C 222.172,146.993 208.839,146.66 195.5,146.5C 195.167,146.5 194.833,146.5 194.5,146.5C 172.906,147.655 151.239,147.821 129.5,147C 127.699,146.683 127.366,146.016 128.5,145C 120.765,145.137 113.432,144.304 106.5,142.5C 113.841,142.666 121.174,142.5 128.5,142C 133.131,136.282 136.131,129.782 137.5,122.5C 152.167,122.5 166.833,122.5 181.5,122.5C 181.5,121.5 181.5,120.5 181.5,119.5 Z"/><path fill="#d48ddf" d="M 40.5,132.5 C 41.5,132.5 42.5,132.5 43.5,132.5C 51.8333,132.5 60.1667,132.5 68.5,132.5C 68.5,138.833 68.5,145.167 68.5,151.5C 59.3178,151.827 50.3178,151.493 41.5,150.5C 40.5104,144.69 40.1771,138.69 40.5,132.5 Z"/><path fill="#d891dd" d="M 70.5,133.5 C 79.3178,132.507 88.3178,132.173 97.5,132.5C 97.5,138.833 97.5,145.167 97.5,151.5C 88.3178,151.827 79.3178,151.493 70.5,150.5C 79.1667,150.5 87.8333,150.5 96.5,150.5C 96.8222,144.642 96.4889,138.975 95.5,133.5C 87.1667,133.5 78.8333,133.5 70.5,133.5 Z"/><path fill="#cb45cb" d="M 41.5,150.5 C 41.5,144.833 41.5,139.167 41.5,133.5C 50.1667,133.5 58.8333,133.5 67.5,133.5C 67.5,139.167 67.5,144.833 67.5,150.5C 58.8333,150.5 50.1667,150.5 41.5,150.5 Z"/><path fill="#989a99" d="M 137.5,119.5 C 137.5,119.833 137.5,120.167 137.5,120.5C 127.167,120.5 116.833,120.5 106.5,120.5C 106.5,127.833 106.5,135.167 106.5,142.5C 113.432,144.304 120.765,145.137 128.5,145C 127.366,146.016 127.699,146.683 129.5,147C 151.239,147.821 172.906,147.655 194.5,146.5C 183.353,147.832 171.853,148.499 160,148.5C 142.572,148.664 125.239,147.998 108,146.5C 107.505,148.473 107.338,150.473 107.5,152.5C 110.377,155.444 109.711,157.444 105.5,158.5C 105.5,145.5 105.5,132.5 105.5,119.5C 116.167,119.5 126.833,119.5 137.5,119.5 Z"/><path fill="#cc44ce" d="M 70.5,133.5 C 78.8333,133.5 87.1667,133.5 95.5,133.5C 95.5,138.5 95.5,143.5 95.5,148.5C 87.5341,149.365 79.5341,149.698 71.5,149.5C 72.7144,144.981 72.3811,140.648 70.5,136.5C 70.5,135.5 70.5,134.5 70.5,133.5 Z"/><path fill="#828282" d="M 194.5,146.5 C 194.833,146.5 195.167,146.5 195.5,146.5C 195.5,147.833 195.5,149.167 195.5,150.5C 170.477,149.843 145.811,150.51 121.5,152.5C 116.833,152.5 112.167,152.5 107.5,152.5C 107.338,150.473 107.505,148.473 108,146.5C 125.239,147.998 142.572,148.664 160,148.5C 171.853,148.499 183.353,147.832 194.5,146.5 Z"/><path fill="#b851b8" d="M 95.5,133.5 C 96.4889,138.975 96.8222,144.642 96.5,150.5C 87.8333,150.5 79.1667,150.5 70.5,150.5C 70.5,145.833 70.5,141.167 70.5,136.5C 72.3811,140.648 72.7144,144.981 71.5,149.5C 79.5341,149.698 87.5341,149.365 95.5,148.5C 95.5,143.5 95.5,138.5 95.5,133.5 Z"/><path fill="#606060" d="M 195.5,150.5 C 196.5,150.833 197.167,151.5 197.5,152.5C 172.167,152.5 146.833,152.5 121.5,152.5C 145.811,150.51 170.477,149.843 195.5,150.5 Z"/><path fill="#989898" d="M 195.5,146.5 C 208.839,146.66 222.172,146.993 235.5,147.5C 235.5,148.5 235.5,149.5 235.5,150.5C 222.252,152.75 208.919,153.916 195.5,154C 196.833,153.667 198.167,153.333 199.5,153C 198.906,152.536 198.239,152.369 197.5,152.5C 197.167,151.5 196.5,150.833 195.5,150.5C 195.5,149.167 195.5,147.833 195.5,146.5 Z"/><path fill="#110f12" d="M 31.5,109.5 C 33.6208,109.325 35.6208,109.659 37.5,110.5C 38.1667,110.5 38.5,110.833 38.5,111.5C 38.5,129.833 38.5,148.167 38.5,166.5C 38.5,168.5 37.5,169.5 35.5,169.5C 27.5,169.5 19.5,169.5 11.5,169.5C 10.1779,169.67 9.01127,169.337 8,168.5C 7.50005,149.836 7.33339,131.17 7.5,112.5C 7.41423,111.504 7.74756,110.671 8.5,110C 16.1594,109.5 23.8261,109.334 31.5,109.5 Z"/><path fill="#9a959a" d="M 9.5,113.5 C 18.6517,112.506 27.985,112.173 37.5,112.5C 37.5,129.167 37.5,145.833 37.5,162.5C 27.985,162.827 18.6517,162.494 9.5,161.5C 18.5,161.5 27.5,161.5 36.5,161.5C 36.5,145.5 36.5,129.5 36.5,113.5C 27.5,113.5 18.5,113.5 9.5,113.5 Z"/><path fill="#f9e2fa" d="M 9.5,113.5 C 18.5,113.5 27.5,113.5 36.5,113.5C 36.5,129.5 36.5,145.5 36.5,161.5C 27.5,161.5 18.5,161.5 9.5,161.5C 9.5,145.5 9.5,129.5 9.5,113.5 Z"/><path fill="#c171c0" d="M 11.5,154.5 C 11.5,156.167 11.5,157.833 11.5,159.5C 19.0191,159.825 26.3524,159.492 33.5,158.5C 34.1667,158.167 34.8333,157.833 35.5,157.5C 35.5,158.5 35.5,159.5 35.5,160.5C 27.1667,160.5 18.8333,160.5 10.5,160.5C 10.2053,158.265 10.5386,156.265 11.5,154.5 Z"/><path fill="#c951c8" d="M 11.5,154.5 C 19.5,154.5 27.5,154.5 35.5,154.5C 35.5,155.5 35.5,156.5 35.5,157.5C 34.8333,157.833 34.1667,158.167 33.5,158.5C 26.3524,159.492 19.0191,159.825 11.5,159.5C 11.5,157.833 11.5,156.167 11.5,154.5 Z"/><path fill="#d33ed0" d="M 33.5,158.5 C 26.5,158.5 19.5,158.5 12.5,158.5C 12.5,157.5 12.5,156.5 12.5,155.5C 19.5,155.5 26.5,155.5 33.5,155.5C 33.5,156.5 33.5,157.5 33.5,158.5 Z"/><path fill="#b87abd" d="M 35.5,148.5 C 27.8261,148.334 20.1594,148.5 12.5,149C 11.6634,150.011 11.33,151.178 11.5,152.5C 19.5,152.5 27.5,152.5 35.5,152.5C 27.3501,153.493 19.0168,153.826 10.5,153.5C 10.5,151.5 10.5,149.5 10.5,147.5C 19.0168,147.174 27.3501,147.507 35.5,148.5 Z"/><path fill="#cb4acd" d="M 35.5,148.5 C 35.5,149.833 35.5,151.167 35.5,152.5C 27.5,152.5 19.5,152.5 11.5,152.5C 11.33,151.178 11.6634,150.011 12.5,149C 20.1594,148.5 27.8261,148.334 35.5,148.5 Z"/><path fill="#dda3de" d="M 35.5,143.5 C 34.8334,137.321 34.1668,130.988 33.5,124.5C 32.914,124.291 32.414,123.957 32,123.5C 31.8078,125.577 31.3078,127.577 30.5,129.5C 28.0769,128.288 27.0769,126.288 27.5,123.5C 22.5,123.5 17.5,123.5 12.5,123.5C 12.5,130.833 12.5,138.167 12.5,145.5C 17.6946,145.179 22.6946,145.513 27.5,146.5C 22.1667,146.5 16.8333,146.5 11.5,146.5C 11.5,138.5 11.5,130.5 11.5,122.5C 19.5,122.5 27.5,122.5 35.5,122.5C 35.5,129.5 35.5,136.5 35.5,143.5 Z"/><path fill="#e39ce5" d="M 35.5,143.5 C 35.5,144.5 35.5,145.5 35.5,146.5C 32.8333,146.5 30.1667,146.5 27.5,146.5C 22.6946,145.513 17.6946,145.179 12.5,145.5C 12.5,138.167 12.5,130.833 12.5,123.5C 17.5,123.5 22.5,123.5 27.5,123.5C 27.0769,126.288 28.0769,128.288 30.5,129.5C 31.3078,127.577 31.8078,125.577 32,123.5C 32.414,123.957 32.914,124.291 33.5,124.5C 34.1668,130.988 34.8334,137.321 35.5,143.5 Z"/><path fill="#71389c" d="M 34.5,120.5 C 32.6948,118.803 30.3615,117.97 27.5,118C 22.5111,117.501 17.5111,117.334 12.5,117.5C 12.5,118.5 12.5,119.5 12.5,120.5C 10.6921,119.082 10.0254,117.082 10.5,114.5C 18.8333,114.5 27.1667,114.5 35.5,114.5C 35.7947,116.735 35.4614,118.735 34.5,120.5 Z"/><path fill="#6d24aa" d="M 34.5,120.5 C 27.1667,120.5 19.8333,120.5 12.5,120.5C 12.5,119.5 12.5,118.5 12.5,117.5C 17.5111,117.334 22.5111,117.501 27.5,118C 30.3615,117.97 32.6948,118.803 34.5,120.5 Z"/><path fill="#545452" d="M 38.5,111.5 C 39.4957,124.99 39.829,138.656 39.5,152.5C 59.5,152.5 79.5,152.5 99.5,152.5C 80.0071,153.497 60.3404,153.83 40.5,153.5C 40.5,156.5 40.5,159.5 40.5,162.5C 60.5,162.5 80.5,162.5 100.5,162.5C 80.3402,163.497 60.0069,163.83 39.5,163.5C 39.5,164.5 39.5,165.5 39.5,166.5C 39.1667,166.5 38.8333,166.5 38.5,166.5C 38.5,148.167 38.5,129.833 38.5,111.5 Z"/></svg><svg x="144" y="46" width="328" height="48" viewBox="0 0 750 110" fill="#353844"><path opacity="0.966" d="M 14.5,1.5 C 21.7779,5.20587 29.4446,8.0392 37.5,10C 49.984,11.2869 62.484,11.1202 75,9.5C 94.0814,10.5634 100.081,19.8967 93,37.5C 83.4978,45.8905 72.3311,49.7238 59.5,49C 62.4125,50.3726 65.2458,51.8726 68,53.5C 69.4039,55.6389 70.2372,57.9722 70.5,60.5C 69.4453,65.1472 68.9453,69.8139 69,74.5C 70.1911,76.9148 72.1911,78.2481 75,78.5C 81.0609,77.703 86.5609,75.5363 91.5,72C 88.1974,71.9405 84.8641,72.1071 81.5,72.5C 69.8364,70.9927 68.503,66.1594 77.5,58C 84.6579,51.9397 92.6579,50.273 101.5,53C 105.647,60.0453 105.147,66.8786 100,73.5C 91.2058,82.7125 80.3725,86.7125 67.5,85.5C 59.1437,87.0006 52.6437,84.334 48,77.5C 47.0721,68.7665 45.7388,60.0998 44,51.5C 42.3333,48.5 40,46.1667 37,44.5C 36.4473,57.0787 37.9473,69.412 41.5,81.5C 28.1667,81.8333 14.8333,82.1667 1.5,82.5C 1.29777,80.0108 1.79777,77.6775 3,75.5C 5.89898,75.0233 8.56565,74.0233 11,72.5C 12.0928,60.0909 13.7595,47.7576 16,35.5C 17.3744,28.7102 19.541,22.2102 22.5,16C 18.7665,15.9345 15.2665,15.1011 12,13.5C 12.4958,9.50469 13.3291,5.50469 14.5,1.5 Z M 49.5,20.5 C 59.0626,20.6311 67.5626,23.6311 75,29.5C 77.3831,34.2312 75.8831,37.0645 70.5,38C 57.5534,40.5815 45.7201,38.0815 35,30.5C 34.3333,28.8333 34.3333,27.1667 35,25.5C 39.5691,22.7003 44.4025,21.0336 49.5,20.5 Z"/><path opacity="0.970" d="M 287.5,6.5 C 302.284,7.25262 316.951,8.75262 331.5,11C 322.915,27.9216 319.748,45.7549 322,64.5C 324.493,71.151 329.326,74.4844 336.5,74.5C 342.167,74.1443 347.5,72.6443 352.5,70C 358.717,62.6637 357.717,60.6637 349.5,64C 343.245,65.1268 337.245,64.4601 331.5,62C 327.559,59.1866 326.725,55.6866 329,51.5C 338.629,41.837 349.629,39.5037 362,44.5C 366.652,58.7407 364.485,71.9074 355.5,84C 343.851,83.3584 332.184,82.5251 320.5,81.5C 311.439,81.5979 302.773,83.2646 294.5,86.5C 293.663,82.8293 293.163,79.1626 293,75.5C 296.411,74.7069 299.911,74.2069 303.5,74C 300.44,66.4873 298.607,58.654 298,50.5C 297.667,39.5 297.333,28.5 297,17.5C 296.5,16.3333 295.667,15.5 294.5,15C 288.631,15.2013 286.297,12.368 287.5,6.5 Z"/><path opacity="0.966" d="M 711.5,8.5 C 714.572,8.18259 717.572,8.51592 720.5,9.5C 717.356,15.6209 714.356,21.7876 711.5,28C 716.161,28.1694 720.828,28.0027 725.5,27.5C 725.238,24.4989 724.404,21.8322 723,19.5C 726.788,16.5069 730.955,15.5069 735.5,16.5C 734.969,25.1787 736.636,33.512 740.5,41.5C 733.304,47.8722 728.138,46.5388 725,37.5C 724.25,36.8742 723.416,36.3742 722.5,36C 718.167,35.3333 713.833,35.3333 709.5,36C 705.439,48.2593 704.606,60.7593 707,73.5C 709.393,78.2899 712.893,79.4566 717.5,77C 720.21,75.9848 722.543,74.4848 724.5,72.5C 718.794,70.8791 713.96,67.8791 710,63.5C 707.034,57.6148 708.534,53.4481 714.5,51C 724.615,49.4286 734.282,50.7619 743.5,55C 747.442,60.4899 747.276,65.9899 743,71.5C 735.951,78.4393 727.451,82.2726 717.5,83C 686.485,89.6554 674.985,77.8221 683,47.5C 684.113,43.4919 685.613,39.6586 687.5,36C 686,35.8333 684.5,35.6667 683,35.5C 677.1,36.476 671.267,36.8093 665.5,36.5C 662.711,46.5908 661.378,56.9241 661.5,67.5C 665.167,67.5 668.833,67.5 672.5,67.5C 672.508,70.5448 672.841,73.5448 673.5,76.5C 661.909,78.3635 650.909,82.0302 640.5,87.5C 639.833,87.1667 639.167,86.8333 638.5,86.5C 639.85,82.9228 640.35,79.2562 640,75.5C 630.529,84.877 619.362,87.7103 606.5,84C 602.835,82.332 600.668,79.4987 600,75.5C 599.289,66.6302 601.623,58.6302 607,51.5C 610.131,47.3672 613.631,43.5338 617.5,40C 611.188,40.108 604.855,40.2746 598.5,40.5C 599.071,37.5231 600.071,34.6897 601.5,32C 614.833,31.8887 628.166,32.222 641.5,33C 634.429,41.3089 629.595,50.8089 627,61.5C 625.902,65.5052 626.735,69.0052 629.5,72C 630.833,72.6667 632.167,72.6667 633.5,72C 642.572,57.5607 647.239,41.7273 647.5,24.5C 655.505,25.4603 663.338,27.1269 671,29.5C 671.333,28.1667 671.667,26.8333 672,25.5C 672.725,24.9415 673.558,24.6082 674.5,24.5C 678.723,25.9128 683.057,26.5795 687.5,26.5C 687.351,21.4246 686.685,16.4246 685.5,11.5C 694.342,10.8231 703.008,9.82313 711.5,8.5 Z"/><path opacity="0.972" d="M 440.5,22.5 C 442.167,22.5 443.833,22.5 445.5,22.5C 445.5,25.8333 445.5,29.1667 445.5,32.5C 442.901,32.5494 440.734,33.5494 439,35.5C 438.667,43.5 438.333,51.5 438,59.5C 437.75,62.8502 436.917,66.0169 435.5,69C 439.152,69.4986 442.818,69.6653 446.5,69.5C 447.468,74.1879 447.468,78.8545 446.5,83.5C 444.217,82.6791 441.884,82.0124 439.5,81.5C 430.589,82.6143 421.923,84.6143 413.5,87.5C 413.901,84.2521 414.568,81.0854 415.5,78C 412.525,78.9789 409.525,80.3122 406.5,82C 372.441,91.9411 360.607,80.1078 371,46.5C 377.139,33.5159 387.306,28.6826 401.5,32C 406.532,33.5982 411.032,36.0982 415,39.5C 414.849,36.0565 413.683,32.8899 411.5,30C 411.833,29.6667 412.167,29.3333 412.5,29C 422.154,27.64 431.487,25.4733 440.5,22.5 Z M 402.5,50.5 C 422.537,51.506 423.537,56.006 405.5,64C 397.359,65.9795 389.525,65.1462 382,61.5C 381.37,59.0966 382.203,57.2633 384.5,56C 390.294,53.2222 396.294,51.3889 402.5,50.5 Z"/><path opacity="0.960" d="M 207.5,24.5 C 208.978,24.238 210.311,24.5713 211.5,25.5C 212.407,28.0567 213.407,30.5567 214.5,33C 212.048,33.2895 209.715,33.9562 207.5,35C 209.82,38.4847 212.487,41.6513 215.5,44.5C 219.777,41.7265 223.61,38.3932 227,34.5C 227.63,32.0966 226.797,30.2633 224.5,29C 225.233,26.6749 226.733,25.1749 229,24.5C 236.653,26.909 244.153,29.7423 251.5,33C 241.596,39.1122 232.263,45.9455 223.5,53.5C 229.647,60.8151 235.981,67.9818 242.5,75C 245.095,75.2256 247.595,75.7256 250,76.5C 251.11,78.3969 251.276,80.2302 250.5,82C 237.959,83.5535 225.459,85.3868 213,87.5C 209.775,86.7761 207.608,84.7761 206.5,81.5C 208.882,79.9293 211.549,79.096 214.5,79C 215.357,78.3109 216.023,77.4776 216.5,76.5C 214.784,72.3972 212.117,69.0639 208.5,66.5C 204.427,70.2843 200.26,73.951 196,77.5C 195.542,80.096 196.375,82.2627 198.5,84C 197.257,85.1545 196.257,86.4878 195.5,88C 186.417,87.0614 177.75,84.5614 169.5,80.5C 180.012,73.0771 190.345,65.4105 200.5,57.5C 194.65,50.8163 188.317,44.6497 181.5,39C 179.243,39.4371 176.91,39.9371 174.5,40.5C 173.477,37.6075 173.477,34.7742 174.5,32C 186.042,31.3282 197.042,28.8282 207.5,24.5 Z"/><path opacity="0.966" d="M 500.5,28.5 C 511.698,28.7319 522.032,31.8986 531.5,38C 532.406,39.6995 532.739,41.5328 532.5,43.5C 530.116,43.5567 527.782,43.2234 525.5,42.5C 524.353,42.8178 523.519,43.4844 523,44.5C 521.333,56.5 519.667,68.5 518,80.5C 515.824,90.6756 509.658,96.8423 499.5,99C 490.5,99.6667 481.5,99.6667 472.5,99C 464.737,98.3041 457.904,95.4708 452,90.5C 444.231,75.0792 449.064,68.0792 466.5,69.5C 473.074,68.8607 479.074,70.3607 484.5,74C 487.941,80.0098 486.608,84.6765 480.5,88C 476.58,89.3134 472.58,90.3134 468.5,91C 478.002,93.7793 486.169,91.6126 493,84.5C 495.036,81.3981 496.036,78.0648 496,74.5C 484.59,65.5456 473.09,56.7122 461.5,48C 456.917,47.9418 452.583,49.1084 448.5,51.5C 447.34,47.5411 447.173,43.5411 448,39.5C 460.144,37.3383 471.978,34.005 483.5,29.5C 485.948,30.5197 487.614,32.3531 488.5,35C 486.713,37.1341 484.38,37.9675 481.5,37.5C 481.841,40.5158 483.007,43.1825 485,45.5C 490.298,50.6444 495.965,55.3111 502,59.5C 505.881,52.5243 509.381,45.3576 512.5,38C 507.5,37.6667 502.5,37.3333 497.5,37C 498.732,34.2344 499.732,31.401 500.5,28.5 Z"/><path opacity="0.970" d="M 135.5,29.5 C 167.27,24.0483 178.437,36.7149 169,67.5C 161.688,84.6188 148.854,91.1188 130.5,87C 118.063,83.5617 109.896,75.7284 106,63.5C 105.355,50.2951 110.855,40.4618 122.5,34C 126.846,32.164 131.179,30.664 135.5,29.5 Z M 140.5,48.5 C 147.028,48.6939 153.361,49.8605 159.5,52C 163.152,55.1531 162.819,58.1531 158.5,61C 148.217,67.2132 137.217,69.2132 125.5,67C 116.766,65.6931 115.433,62.0264 121.5,56C 127.485,52.3305 133.819,49.8305 140.5,48.5 Z"/><path opacity="0.971" d="M 558.5,29.5 C 591.436,23.9314 602.603,36.9314 592,68.5C 583.398,86.1364 569.564,91.9697 550.5,86C 530.61,77.7384 525.11,63.9051 534,44.5C 540.466,36.5263 548.632,31.5263 558.5,29.5 Z M 564.5,48.5 C 571.813,48.3741 578.646,50.0408 585,53.5C 585.667,54.8333 585.667,56.1667 585,57.5C 573.425,67.537 560.259,70.3703 545.5,66C 543.545,65.0467 541.878,63.7134 540.5,62C 542.126,59.3723 544.126,57.039 546.5,55C 552.267,51.9132 558.267,49.7466 564.5,48.5 Z"/></svg><svg x="488" y="40" width="66" height="48" viewBox="0 0 150 110"><path opacity="0.941" fill="#353844" d="M 29.5,31.5 C 37.2382,31.1439 44.9048,31.6439 52.5,33C 61.709,38.8708 61.709,44.5374 52.5,50C 46.5692,51.4712 40.5692,51.8045 34.5,51C 32.3025,49.1217 32.1358,46.9551 34,44.5C 37.453,40.8549 41.6197,38.3549 46.5,37C 42.7677,33.9427 39.101,33.9427 35.5,37C 30.4229,44.7294 27.4229,53.2294 26.5,62.5C 29.1873,62.6641 31.854,62.4974 34.5,62C 35.0195,59.9742 35.3528,57.9742 35.5,56C 38.4318,55.0467 41.4318,54.5467 44.5,54.5C 42.5609,60.6881 41.0609,67.0215 40,73.5C 37.2809,74.4438 34.4475,74.7771 31.5,74.5C 32.5749,70.062 30.9083,68.062 26.5,68.5C 26.8895,74.0581 28.2229,79.3914 30.5,84.5C 22.578,85.7675 14.9113,87.7675 7.5,90.5C 7.68155,88.4086 7.34822,86.4086 6.5,84.5C 8.88217,82.9293 11.5488,82.096 14.5,82C 12.242,77.4706 11.0753,72.6372 11,67.5C 1.47201,71.5811 -0.694657,69.2477 4.5,60.5C 6.77129,59.6365 9.10462,59.6365 11.5,60.5C 10.7283,46.3343 16.7283,36.6676 29.5,31.5 Z"/><path opacity="0.941" fill="#353945" d="M 119.5,45.5 C 120.675,45.281 121.675,45.6143 122.5,46.5C 121.41,47.6086 121.41,48.6086 122.5,49.5C 129.46,47.091 136.46,46.9243 143.5,49C 147.367,52.6602 148.534,57.1602 147,62.5C 143.845,65.6673 140.012,67.5006 135.5,68C 131.167,68.6667 126.833,68.6667 122.5,68C 121.074,65.2886 121.408,62.7886 123.5,60.5C 126.764,57.0335 130.764,54.8668 135.5,54C 123.285,52.366 116.952,57.866 116.5,70.5C 116.833,72.1667 117.167,73.8333 117.5,75.5C 120.37,76.122 123.204,76.7887 126,77.5C 126.265,79.1626 125.765,80.6626 124.5,82C 112.808,83.002 101.141,84.1687 89.5,85.5C 89.2011,83.396 89.5344,81.396 90.5,79.5C 92.7105,78.8772 94.7105,77.8772 96.5,76.5C 99.7159,70.7357 102.383,64.7357 104.5,58.5C 102.86,56.4172 100.86,56.0838 98.5,57.5C 98.5751,54.7938 98.9084,52.1272 99.5,49.5C 106.723,50.8554 113.39,49.522 119.5,45.5 Z"/><path opacity="0.955" fill="#353945" d="M 73.5,49.5 C 98.1547,45.4941 103.655,53.8275 90,74.5C 81.9176,84.8616 71.4176,88.6949 58.5,86C 47.7829,80.6488 45.6162,72.8154 52,62.5C 57.9276,55.9598 65.0943,51.6265 73.5,49.5 Z M 74.5,62.5 C 78.1879,62.7811 81.8546,63.2811 85.5,64C 87.8073,65.8276 87.474,67.4943 84.5,69C 76.4399,72.7347 68.1065,73.7347 59.5,72C 57.0444,70.0875 57.3778,68.4208 60.5,67C 65.1271,64.9561 69.7938,63.4561 74.5,62.5 Z"/></svg><svg x="560" y="24" width="80" height="80" viewBox="0 0 419 404" transform="scale(-1, 1)"><path fill="#8f76e3" d="M 203.5,30.5 C 205.604,32.3718 206.937,34.7052 207.5,37.5C 207.5,38.5 207.5,39.5 207.5,40.5C 206.694,43.4456 205.361,46.1123 203.5,48.5C 200.365,50.0233 197.032,50.69 193.5,50.5C 184.825,47.8163 181.991,42.1496 185,33.5C 190.312,26.8168 196.478,25.8168 203.5,30.5 Z"/><path fill="#a0a0a1" d="M 207.5,37.5 C 210.614,38.0913 213.114,39.758 215,42.5C 216.022,48.2691 216.855,53.9357 217.5,59.5C 217.158,60.3382 216.492,60.6716 215.5,60.5C 214.167,59.8333 213.167,58.8333 212.5,57.5C 212.666,52.8215 212.499,48.1548 212,43.5C 210.871,41.8588 209.371,40.8588 207.5,40.5C 207.5,39.5 207.5,38.5 207.5,37.5 Z"/><path fill="#747475" d="M 207.5,40.5 C 209.371,40.8588 210.871,41.8588 212,43.5C 212.499,48.1548 212.666,52.8215 212.5,57.5C 210.833,56.8333 209.167,56.1667 207.5,55.5C 206.404,52.9684 205.071,50.6351 203.5,48.5C 205.361,46.1123 206.694,43.4456 207.5,40.5 Z"/><path fill="#cbc0ee" d="M 203.5,48.5 C 205.071,50.6351 206.404,52.9684 207.5,55.5C 203.301,55.4355 199.634,56.7689 196.5,59.5C 196.235,56.1629 195.235,53.1629 193.5,50.5C 197.032,50.69 200.365,50.0233 203.5,48.5 Z"/><path fill="#cec4f1" d="M 147.5,52.5 C 148.176,54.8591 149.009,57.1924 150,59.5C 152.612,56.4241 155.779,55.7575 159.5,57.5C 161.659,59.9544 161.992,62.6211 160.5,65.5C 159.833,65.5 159.5,65.8333 159.5,66.5C 159.167,67.1667 158.833,67.8333 158.5,68.5C 155.833,70.8333 153.167,73.1667 150.5,75.5C 148.881,64.8555 142.881,61.0222 132.5,64C 130.266,66.0627 128.266,68.2294 126.5,70.5C 123.239,65.6795 122.906,60.6795 125.5,55.5C 129.004,54.7944 132.171,53.4611 135,51.5C 139.165,51.5062 143.332,51.8395 147.5,52.5 Z"/><path fill="#d6d6d6" d="M 203.5,30.5 C 213.277,30.1004 219.11,34.7671 221,44.5C 221.219,49.5824 221.719,54.5824 222.5,59.5C 220.833,59.5 219.167,59.5 217.5,59.5C 216.855,53.9357 216.022,48.2691 215,42.5C 213.114,39.758 210.614,38.0913 207.5,37.5C 206.937,34.7052 205.604,32.3718 203.5,30.5 Z"/><path fill="#e8e8e9" d="M 147.5,52.5 C 150.518,52.3354 153.518,52.502 156.5,53C 162.116,55.8671 167.783,58.5338 173.5,61C 175.487,62.3189 176.654,64.1523 177,66.5C 177.308,70.7382 177.475,74.7382 177.5,78.5C 167.741,89.0166 161.408,101.35 158.5,115.5C 154.852,110.51 153.685,104.843 155,98.5C 158.97,89.1959 163.804,80.3625 169.5,72C 169.355,70.7741 169.022,69.6074 168.5,68.5C 166.19,66.5175 163.523,65.5175 160.5,65.5C 161.992,62.6211 161.659,59.9544 159.5,57.5C 155.779,55.7575 152.612,56.4241 150,59.5C 149.009,57.1924 148.176,54.8591 147.5,52.5 Z"/><path fill="#937ce4" d="M 217.5,59.5 C 219.167,59.5 220.833,59.5 222.5,59.5C 230.744,59.5407 238.744,60.874 246.5,63.5C 256.527,67.5151 265.193,73.5151 272.5,81.5C 278.45,88.4023 283.117,96.0689 286.5,104.5C 286.5,105.833 286.5,107.167 286.5,108.5C 285.5,108.5 284.5,108.5 283.5,108.5C 281.833,108.5 280.167,108.5 278.5,108.5C 277.533,95.9061 271.867,85.9061 261.5,78.5C 251.869,70.6792 240.869,66.5126 228.5,66C 227.62,67.3561 227.286,68.8561 227.5,70.5C 205.243,78.0006 196.743,93.3339 202,116.5C 204.577,122.551 208.077,127.884 212.5,132.5C 212.253,135.939 212.586,139.272 213.5,142.5C 213.5,143.5 213.5,144.5 213.5,145.5C 210.272,141.444 206.439,137.777 202,134.5C 186.421,113.742 186.921,93.4082 203.5,73.5C 206.92,70.0684 210.587,67.0684 214.5,64.5C 216.493,63.5284 216.826,62.1951 215.5,60.5C 216.492,60.6716 217.158,60.3382 217.5,59.5 Z"/><path fill="#6b4bda" d="M 207.5,55.5 C 209.167,56.1667 210.833,56.8333 212.5,57.5C 213.167,58.8333 214.167,59.8333 215.5,60.5C 216.826,62.1951 216.493,63.5284 214.5,64.5C 208.388,66.1939 202.388,68.1939 196.5,70.5C 194.824,69.8166 194.157,68.4832 194.5,66.5C 194.767,64.0347 195.434,61.7014 196.5,59.5C 199.634,56.7689 203.301,55.4355 207.5,55.5 Z"/><path fill="#927be4" d="M 150.5,75.5 C 149.841,80.8277 147.174,84.8277 142.5,87.5C 137.765,88.0376 133.431,87.0376 129.5,84.5C 126.909,80.2305 125.909,75.5639 126.5,70.5C 128.266,68.2294 130.266,66.0627 132.5,64C 142.881,61.0222 148.881,64.8555 150.5,75.5 Z"/><path fill="#8064df" d="M 194.5,66.5 C 194.157,68.4832 194.824,69.8166 196.5,70.5C 193.603,71.5581 191.436,73.5581 190,76.5C 181.884,91.5335 180.384,107.2 185.5,123.5C 184.425,122.438 183.425,122.438 182.5,123.5C 185.229,128.802 183.729,132.469 178,134.5C 172.937,132.955 170.437,129.621 170.5,124.5C 166.682,123.286 163.015,121.62 159.5,119.5C 158.833,119.5 158.5,119.167 158.5,118.5C 158.5,117.5 158.5,116.5 158.5,115.5C 161.408,101.35 167.741,89.0166 177.5,78.5C 182.612,73.7224 188.279,69.7224 194.5,66.5 Z"/><path fill="#bdade2" d="M 261.5,78.5 C 261.84,80.679 262.84,82.5123 264.5,84C 264.018,85.0084 263.852,86.175 264,87.5C 253.757,77.6273 241.59,71.9606 227.5,70.5C 227.286,68.8561 227.62,67.3561 228.5,66C 240.869,66.5126 251.869,70.6792 261.5,78.5 Z"/><path fill="#856be1" d="M 214.5,64.5 C 210.587,67.0684 206.92,70.0684 203.5,73.5C 186.921,93.4082 186.421,113.742 202,134.5C 206.439,137.777 210.272,141.444 213.5,145.5C 215.676,147.031 218.176,147.697 221,147.5C 239.833,146.095 258.666,144.762 277.5,143.5C 277.768,141.901 277.434,140.568 276.5,139.5C 279.305,138.935 281.972,137.935 284.5,136.5C 285.259,138.436 286.259,140.269 287.5,142C 285.32,146.517 283.32,151.017 281.5,155.5C 277.366,154.515 273.032,154.182 268.5,154.5C 268.5,153.5 268.5,152.5 268.5,151.5C 262.139,151.603 255.806,152.103 249.5,153C 248.663,154.011 248.33,155.178 248.5,156.5C 243.507,156.916 238.507,157.249 233.5,157.5C 229.519,158.021 225.519,158.354 221.5,158.5C 208.51,159.5 195.51,160 182.5,160C 180.291,158.127 178.458,155.96 177,153.5C 174.848,156.033 174.348,158.7 175.5,161.5C 173.5,161.5 171.5,161.5 169.5,161.5C 165.692,155.551 162.692,149.217 160.5,142.5C 159.85,140.565 159.517,138.565 159.5,136.5C 159.47,135.503 159.97,134.836 161,134.5C 162.766,135.233 164.599,135.567 166.5,135.5C 169.944,145.22 176.277,147.72 185.5,143C 192.126,136.469 192.126,129.969 185.5,123.5C 180.384,107.2 181.884,91.5335 190,76.5C 191.436,73.5581 193.603,71.5581 196.5,70.5C 202.388,68.1939 208.388,66.1939 214.5,64.5 Z"/><path fill="#a08be7" d="M 227.5,70.5 C 241.59,71.9606 253.757,77.6273 264,87.5C 263.852,86.175 264.018,85.0084 264.5,84C 262.84,82.5123 261.84,80.679 261.5,78.5C 271.867,85.9061 277.533,95.9061 278.5,108.5C 280.167,108.5 281.833,108.5 283.5,108.5C 283.5,108.833 283.5,109.167 283.5,109.5C 260.146,110.608 236.813,112.108 213.5,114C 212.056,115.126 211.39,116.626 211.5,118.5C 212.315,123.132 212.648,127.799 212.5,132.5C 208.077,127.884 204.577,122.551 202,116.5C 196.743,93.3339 205.243,78.0006 227.5,70.5 Z"/><path fill="#d3d3d4" d="M 246.5,63.5 C 254.613,63.7239 261.279,66.8906 266.5,73C 268.608,73.3599 270.608,74.0266 272.5,75C 283.144,83.4783 290.978,93.9783 296,106.5C 296.689,107.357 297.522,108.023 298.5,108.5C 299.332,118.483 299.832,128.483 300,138.5C 301.172,141.129 302.672,143.462 304.5,145.5C 301.461,144.99 298.461,144.323 295.5,143.5C 294.714,133.213 294.214,122.879 294,112.5C 293.333,109.833 292.667,107.167 292,104.5C 287.218,96.5916 281.718,89.2583 275.5,82.5C 274.583,81.8728 273.583,81.5394 272.5,81.5C 265.193,73.5151 256.527,67.5151 246.5,63.5 Z"/><path fill="#8d8d8d" d="M 159.5,66.5 C 165.224,66.9212 167.724,69.9212 167,75.5C 165.01,77.6558 162.843,79.6558 160.5,81.5C 157.5,86.9841 154.334,92.3174 151,97.5C 149.992,103.41 150.492,109.077 152.5,114.5C 151.167,113.5 149.833,112.5 148.5,111.5C 148.5,110.833 148.167,110.5 147.5,110.5C 147.5,110.167 147.5,109.833 147.5,109.5C 148.325,105.353 148.825,101.019 149,96.5C 153.672,88.8485 158.672,81.5152 164,74.5C 164.323,70.7084 162.489,68.7084 158.5,68.5C 158.833,67.8333 159.167,67.1667 159.5,66.5 Z"/><path fill="#6f6f70" d="M 158.5,68.5 C 162.489,68.7084 164.323,70.7084 164,74.5C 158.672,81.5152 153.672,88.8485 149,96.5C 148.825,101.019 148.325,105.353 147.5,109.5C 143.386,102.803 141.72,95.4696 142.5,87.5C 147.174,84.8277 149.841,80.8277 150.5,75.5C 153.167,73.1667 155.833,70.8333 158.5,68.5 Z"/><path fill="#9c9c9d" d="M 272.5,81.5 C 273.583,81.5394 274.583,81.8728 275.5,82.5C 281.718,89.2583 287.218,96.5916 292,104.5C 292.667,107.167 293.333,109.833 294,112.5C 294.214,122.879 294.714,133.213 295.5,143.5C 294.391,143.443 293.391,143.11 292.5,142.5C 291.559,140.95 290.893,139.284 290.5,137.5C 290.666,129.16 290.5,120.827 290,112.5C 289.422,109.428 288.255,106.761 286.5,104.5C 283.117,96.0689 278.45,88.4023 272.5,81.5 Z"/><path fill="#b9b3ed" d="M 129.5,84.5 C 133.431,87.0376 137.765,88.0376 142.5,87.5C 141.72,95.4696 143.386,102.803 147.5,109.5C 147.5,109.833 147.5,110.167 147.5,110.5C 142.983,110.946 138.983,112.279 135.5,114.5C 132.583,109.49 130.583,104.157 129.5,98.5C 129.5,93.8333 129.5,89.1667 129.5,84.5 Z"/><path fill="#cfc4f1" d="M 363.5,103.5 C 365.081,105.142 365.747,107.142 365.5,109.5C 365.5,109.833 365.5,110.167 365.5,110.5C 364.167,111.167 363.167,112.167 362.5,113.5C 361.5,113.833 360.833,114.5 360.5,115.5C 357.167,118.5 353.833,121.5 350.5,124.5C 352.075,112.079 346.742,106.245 334.5,107C 328.076,109.678 325.076,114.511 325.5,121.5C 322.022,116.566 318.522,111.566 315,106.5C 313.183,99.1444 316.017,96.311 323.5,98C 325.62,100.409 327.62,102.909 329.5,105.5C 333.41,100.563 337.744,100.23 342.5,104.5C 346.221,102.757 349.388,103.424 352,106.5C 355.081,101.671 358.914,100.671 363.5,103.5 Z"/><path fill="#ecebed" d="M 129.5,98.5 C 130.583,104.157 132.583,109.49 135.5,114.5C 136.167,115.833 136.833,117.167 137.5,118.5C 138.32,120.812 139.153,123.146 140,125.5C 143.5,127.667 146.333,130.5 148.5,134C 152.675,136.689 156.675,139.523 160.5,142.5C 162.692,149.217 165.692,155.551 169.5,161.5C 172.123,165.791 175.456,169.457 179.5,172.5C 181.379,175.115 183.712,177.281 186.5,179C 184.627,180.704 182.96,182.537 181.5,184.5C 181.167,185.5 180.5,186.167 179.5,186.5C 175.498,181.324 171.664,175.991 168,170.5C 164.951,164.026 162.284,157.36 160,150.5C 155.454,146.286 150.621,142.453 145.5,139C 134.602,127.824 129.268,114.324 129.5,98.5 Z"/><path fill="#9078e3" d="M 350.5,124.5 C 347.767,128.871 343.767,131.204 338.5,131.5C 333.004,131.66 329.004,129.327 326.5,124.5C 326.443,123.391 326.11,122.391 325.5,121.5C 325.076,114.511 328.076,109.678 334.5,107C 346.742,106.245 352.075,112.079 350.5,124.5 Z"/><path fill="#a18ce8" d="M 147.5,110.5 C 148.167,110.5 148.5,110.833 148.5,111.5C 146.832,113.34 145.332,115.34 144,117.5C 142.871,119.141 141.371,120.141 139.5,120.5C 139.167,119.5 138.5,118.833 137.5,118.5C 136.833,117.167 136.167,115.833 135.5,114.5C 138.983,112.279 142.983,110.946 147.5,110.5 Z"/><path fill="#b1b1b1" d="M 159.5,66.5 C 159.5,65.8333 159.833,65.5 160.5,65.5C 163.523,65.5175 166.19,66.5175 168.5,68.5C 169.022,69.6074 169.355,70.7741 169.5,72C 163.804,80.3625 158.97,89.1959 155,98.5C 153.685,104.843 154.852,110.51 158.5,115.5C 158.5,116.5 158.5,117.5 158.5,118.5C 155.802,118.155 153.802,116.822 152.5,114.5C 150.492,109.077 149.992,103.41 151,97.5C 154.334,92.3174 157.5,86.9841 160.5,81.5C 162.843,79.6558 165.01,77.6558 167,75.5C 167.724,69.9212 165.224,66.9212 159.5,66.5 Z"/><path fill="#efeeef" d="M 283.5,109.5 C 284.44,117.779 284.773,126.112 284.5,134.5C 284.5,135.167 284.5,135.833 284.5,136.5C 281.972,137.935 279.305,138.935 276.5,139.5C 275.167,139.5 273.833,139.5 272.5,139.5C 271.127,139.657 269.793,139.49 268.5,139C 266.007,136.92 263.341,135.086 260.5,133.5C 256.77,136.252 253.103,138.919 249.5,141.5C 239.786,141.459 230.119,142.125 220.5,143.5C 218.079,143.44 215.746,143.107 213.5,142.5C 212.586,139.272 212.253,135.939 212.5,132.5C 212.648,127.799 212.315,123.132 211.5,118.5C 211.39,116.626 212.056,115.126 213.5,114C 236.813,112.108 260.146,110.608 283.5,109.5 Z"/><path fill="#706f72" d="M 286.5,104.5 C 288.255,106.761 289.422,109.428 290,112.5C 290.5,120.827 290.666,129.16 290.5,137.5C 288.784,135.975 286.784,134.975 284.5,134.5C 284.773,126.112 284.44,117.779 283.5,109.5C 283.5,109.167 283.5,108.833 283.5,108.5C 284.5,108.5 285.5,108.5 286.5,108.5C 286.5,107.167 286.5,105.833 286.5,104.5 Z"/><path fill="#b7b2ed" d="M 148.5,111.5 C 149.833,112.5 151.167,113.5 152.5,114.5C 153.802,116.822 155.802,118.155 158.5,118.5C 158.5,119.167 158.833,119.5 159.5,119.5C 157.5,123.167 155.5,126.833 153.5,130.5C 147.993,128.323 143.326,124.99 139.5,120.5C 141.371,120.141 142.871,119.141 144,117.5C 145.332,115.34 146.832,113.34 148.5,111.5 Z"/><path fill="#5833d5" d="M 278.5,118.5 C 272.658,119.881 271.991,122.714 276.5,127C 277.448,127.483 278.448,127.649 279.5,127.5C 277.432,133.722 274.599,134.056 271,128.5C 270.333,125.167 270.333,121.833 271,118.5C 273.64,114.543 276.14,114.543 278.5,118.5 Z"/><path fill="#8166e0" d="M 278.5,118.5 C 279.94,119.946 280.607,121.779 280.5,124C 280.486,125.385 280.152,126.551 279.5,127.5C 278.448,127.649 277.448,127.483 276.5,127C 271.991,122.714 272.658,119.881 278.5,118.5 Z"/><path fill="#5c37d5" d="M 236.5,120.5 C 232.207,122.674 231.54,125.674 234.5,129.5C 235.736,130.246 237.07,130.579 238.5,130.5C 237.359,135.328 234.859,136.328 231,133.5C 227.788,128.8 227.788,124.133 231,119.5C 233.235,118.02 235.068,118.353 236.5,120.5 Z"/><path fill="#8166df" d="M 236.5,120.5 C 237.966,121.347 238.8,122.68 239,124.5C 239.789,126.712 239.622,128.712 238.5,130.5C 237.07,130.579 235.736,130.246 234.5,129.5C 231.54,125.674 232.207,122.674 236.5,120.5 Z"/><path fill="#9991e6" d="M 159.5,119.5 C 163.015,121.62 166.682,123.286 170.5,124.5C 166.991,127.239 165.657,130.906 166.5,135.5C 164.599,135.567 162.766,135.233 161,134.5C 159.97,134.836 159.47,135.503 159.5,136.5C 158.732,135.737 158.232,134.737 158,133.5C 156.122,132.947 154.622,131.947 153.5,130.5C 155.5,126.833 157.5,123.167 159.5,119.5 Z"/><path fill="#757576" d="M 360.5,115.5 C 363.167,115.5 365.833,115.5 368.5,115.5C 369.34,119.539 368.007,122.539 364.5,124.5C 363.573,126.113 362.739,127.779 362,129.5C 358.541,133.315 354.374,135.815 349.5,137C 346.965,139.037 344.298,140.87 341.5,142.5C 336.911,151.205 331.244,159.038 324.5,166C 317.7,166.776 311.033,166.109 304.5,164C 300.5,163.333 296.5,163.333 292.5,164C 283.958,170.374 276.625,177.874 270.5,186.5C 268.847,186.34 267.514,185.674 266.5,184.5C 270.492,180.069 274.658,175.735 279,171.5C 280.366,169.63 281.533,167.63 282.5,165.5C 286.906,163.091 291.239,160.591 295.5,158C 294.584,157.722 293.918,157.222 293.5,156.5C 298.833,157.833 304.166,159.166 309.5,160.5C 315.135,162.178 319.468,160.511 322.5,155.5C 328.313,147.891 333.646,139.891 338.5,131.5C 343.767,131.204 347.767,128.871 350.5,124.5C 353.833,121.5 357.167,118.5 360.5,115.5 Z"/><path fill="#a28de8" d="M 272.5,139.5 C 265,140.396 257.333,141.063 249.5,141.5C 253.103,138.919 256.77,136.252 260.5,133.5C 263.341,135.086 266.007,136.92 268.5,139C 269.793,139.49 271.127,139.657 272.5,139.5 Z"/><path fill="#5c39d6" d="M 284.5,134.5 C 286.784,134.975 288.784,135.975 290.5,137.5C 290.893,139.284 291.559,140.95 292.5,142.5C 293.336,147.594 292.002,151.927 288.5,155.5C 286.118,157.046 283.451,157.713 280.5,157.5C 280.833,156.833 281.167,156.167 281.5,155.5C 283.32,151.017 285.32,146.517 287.5,142C 286.259,140.269 285.259,138.436 284.5,136.5C 284.5,135.833 284.5,135.167 284.5,134.5 Z"/><path fill="#5b38d6" d="M 185.5,123.5 C 192.126,129.969 192.126,136.469 185.5,143C 176.277,147.72 169.944,145.22 166.5,135.5C 165.657,130.906 166.991,127.239 170.5,124.5C 170.437,129.621 172.937,132.955 178,134.5C 183.729,132.469 185.229,128.802 182.5,123.5C 183.425,122.438 184.425,122.438 185.5,123.5 Z"/><path fill="#cdc2f1" d="M 326.5,124.5 C 329.004,129.327 333.004,131.66 338.5,131.5C 333.646,139.891 328.313,147.891 322.5,155.5C 318.981,152.579 315.314,149.913 311.5,147.5C 317.244,140.354 322.244,132.687 326.5,124.5 Z"/><path fill="#bcbbbc" d="M 137.5,118.5 C 138.5,118.833 139.167,119.5 139.5,120.5C 143.326,124.99 147.993,128.323 153.5,130.5C 154.622,131.947 156.122,132.947 158,133.5C 158.232,134.737 158.732,135.737 159.5,136.5C 159.517,138.565 159.85,140.565 160.5,142.5C 156.675,139.523 152.675,136.689 148.5,134C 146.333,130.5 143.5,127.667 140,125.5C 139.153,123.146 138.32,120.812 137.5,118.5 Z"/><path fill="#5d39d7" d="M 272.5,139.5 C 273.833,139.5 275.167,139.5 276.5,139.5C 277.434,140.568 277.768,141.901 277.5,143.5C 258.666,144.762 239.833,146.095 221,147.5C 218.176,147.697 215.676,147.031 213.5,145.5C 213.5,144.5 213.5,143.5 213.5,142.5C 215.746,143.107 218.079,143.44 220.5,143.5C 230.119,142.125 239.786,141.459 249.5,141.5C 257.333,141.063 265,140.396 272.5,139.5 Z"/><path fill="#b5b0ed" d="M 292.5,142.5 C 293.391,143.11 294.391,143.443 295.5,143.5C 298.461,144.323 301.461,144.99 304.5,145.5C 306.746,146.455 309.079,147.122 311.5,147.5C 310.465,151.739 309.799,156.072 309.5,160.5C 304.166,159.166 298.833,157.833 293.5,156.5C 291.883,155.962 290.216,155.629 288.5,155.5C 292.002,151.927 293.336,147.594 292.5,142.5 Z"/><path fill="#9f8be4" d="M 311.5,147.5 C 315.314,149.913 318.981,152.579 322.5,155.5C 319.468,160.511 315.135,162.178 309.5,160.5C 309.799,156.072 310.465,151.739 311.5,147.5 Z"/><path fill="#5631d5" d="M 268.5,154.5 C 268.5,157.5 268.5,160.5 268.5,163.5C 268.575,166.206 268.908,168.873 269.5,171.5C 269.167,171.5 268.833,171.5 268.5,171.5C 262.185,172.11 255.851,172.443 249.5,172.5C 249.5,171.167 249.5,169.833 249.5,168.5C 248.728,164.548 248.395,160.548 248.5,156.5C 248.33,155.178 248.663,154.011 249.5,153C 255.806,152.103 262.139,151.603 268.5,151.5C 268.5,152.5 268.5,153.5 268.5,154.5 Z"/><path fill="#cbc0f0" d="M 268.5,154.5 C 273.032,154.182 277.366,154.515 281.5,155.5C 281.167,156.167 280.833,156.833 280.5,157.5C 278.88,161.082 276.547,164.082 273.5,166.5C 272.167,166.5 270.833,166.5 269.5,166.5C 269.737,165.209 269.404,164.209 268.5,163.5C 268.5,160.5 268.5,157.5 268.5,154.5 Z"/><path fill="#5f5f60" d="M 288.5,155.5 C 290.216,155.629 291.883,155.962 293.5,156.5C 293.918,157.222 294.584,157.722 295.5,158C 291.239,160.591 286.906,163.091 282.5,165.5C 281.533,167.63 280.366,169.63 279,171.5C 274.658,175.735 270.492,180.069 266.5,184.5C 263.298,183.953 260.298,182.953 257.5,181.5C 261.734,178.868 265.401,175.534 268.5,171.5C 268.833,171.5 269.167,171.5 269.5,171.5C 271.543,170.421 272.876,168.754 273.5,166.5C 276.547,164.082 278.88,161.082 280.5,157.5C 283.451,157.713 286.118,157.046 288.5,155.5 Z"/><path fill="#cabff1" d="M 248.5,156.5 C 248.395,160.548 248.728,164.548 249.5,168.5C 246.833,168.5 244.167,168.5 241.5,168.5C 238.833,168.5 236.167,168.5 233.5,168.5C 233.5,164.833 233.5,161.167 233.5,157.5C 238.507,157.249 243.507,156.916 248.5,156.5 Z"/><path fill="#b5a6ec" d="M 233.5,157.5 C 233.5,161.167 233.5,164.833 233.5,168.5C 236.167,168.5 238.833,168.5 241.5,168.5C 237.03,169.486 232.363,169.819 227.5,169.5C 225.5,169.5 223.5,169.5 221.5,169.5C 221.5,165.833 221.5,162.167 221.5,158.5C 225.519,158.354 229.519,158.021 233.5,157.5 Z"/><path fill="#a18de7" d="M 221.5,158.5 C 221.5,162.167 221.5,165.833 221.5,169.5C 223.5,169.5 225.5,169.5 227.5,169.5C 224.695,170.319 221.695,170.819 218.5,171C 217.364,172.145 216.364,173.312 215.5,174.5C 212.538,171.036 209.371,167.703 206,164.5C 204.167,166.333 202.333,168.167 200.5,170C 203.432,173.442 206.765,176.275 210.5,178.5C 210.167,179.5 209.5,180.167 208.5,180.5C 205.834,177.001 202.667,174.001 199,171.5C 196.963,173.706 194.797,175.706 192.5,177.5C 189.553,172.9 185.219,171.233 179.5,172.5C 175.456,169.457 172.123,165.791 169.5,161.5C 171.5,161.5 173.5,161.5 175.5,161.5C 174.348,158.7 174.848,156.033 177,153.5C 178.458,155.96 180.291,158.127 182.5,160C 195.51,160 208.51,159.5 221.5,158.5 Z"/><path fill="#b5a4ec" d="M 256.5,159.5 C 257.991,159.901 259.658,160.068 261.5,160C 261.167,161 260.833,162 260.5,163C 262.595,163.556 262.762,164.056 261,164.5C 260.055,164.095 259.388,163.428 259,162.5C 257.846,164.957 256.512,164.957 255,162.5C 254.237,165.063 253.737,165.063 253.5,162.5C 253.824,160.431 254.658,160.098 256,161.5C 256.464,160.906 256.631,160.239 256.5,159.5 Z"/><path fill="#d4ccf3" d="M 262.5,160.5 C 262.56,159.957 262.893,159.624 263.5,159.5C 264.631,161.074 264.798,162.741 264,164.5C 263.79,162.942 263.29,161.609 262.5,160.5 Z"/><path fill="#cdc2f2" d="M 215.5,174.5 C 213.833,175.833 212.167,177.167 210.5,178.5C 206.765,176.275 203.432,173.442 200.5,170C 202.333,168.167 204.167,166.333 206,164.5C 209.371,167.703 212.538,171.036 215.5,174.5 Z"/><path fill="#8067d5" d="M 268.5,163.5 C 269.404,164.209 269.737,165.209 269.5,166.5C 270.833,166.5 272.167,166.5 273.5,166.5C 272.876,168.754 271.543,170.421 269.5,171.5C 268.908,168.873 268.575,166.206 268.5,163.5 Z"/><path fill="#b7b7b7" d="M 365.5,110.5 C 368.652,109.959 371.152,110.959 373,113.5C 373.817,116.964 373.483,120.298 372,123.5C 363.204,132.473 353.704,140.473 343.5,147.5C 342.333,152.15 340.5,156.484 338,160.5C 334.806,163.694 331.64,166.86 328.5,170C 321.452,171.968 314.452,171.635 307.5,169C 302.5,168.333 297.5,168.333 292.5,169C 285.752,174.558 280.418,181.058 276.5,188.5C 275.209,188.737 274.209,188.404 273.5,187.5C 279.65,179.85 286.317,172.683 293.5,166C 300.084,164.859 306.417,165.526 312.5,168C 318.461,169.109 324.128,168.442 329.5,166C 333.996,159.659 338.33,153.159 342.5,146.5C 351.73,140.442 360.23,133.442 368,125.5C 369.904,122.378 370.571,119.045 370,115.5C 367.865,113.722 365.365,113.055 362.5,113.5C 363.167,112.167 364.167,111.167 365.5,110.5 Z"/><path fill="#8065de" d="M 241.5,168.5 C 244.167,168.5 246.833,168.5 249.5,168.5C 249.5,169.833 249.5,171.167 249.5,172.5C 255.851,172.443 262.185,172.11 268.5,171.5C 265.401,175.534 261.734,178.868 257.5,181.5C 252.098,183.872 246.765,186.205 241.5,188.5C 235.396,189.656 229.229,190.322 223,190.5C 216.09,190.03 209.257,189.03 202.5,187.5C 202.5,187.167 202.5,186.833 202.5,186.5C 204.833,184.833 206.833,182.833 208.5,180.5C 209.5,180.167 210.167,179.5 210.5,178.5C 212.167,177.167 213.833,175.833 215.5,174.5C 216.364,173.312 217.364,172.145 218.5,171C 221.695,170.819 224.695,170.319 227.5,169.5C 232.363,169.819 237.03,169.486 241.5,168.5 Z"/><path fill="#fdd38e" d="M 168.5,202.5 C 170.297,203.73 172.297,204.396 174.5,204.5C 178.203,206.679 182.203,208.345 186.5,209.5C 189.979,211.403 193.646,213.07 197.5,214.5C 198.391,215.11 199.391,215.443 200.5,215.5C 200.842,216.338 201.508,216.672 202.5,216.5C 220.538,224.686 238.205,233.686 255.5,243.5C 263.759,247.768 271.759,252.434 279.5,257.5C 284.585,261.256 289.918,264.589 295.5,267.5C 299.462,270.488 303.462,273.488 307.5,276.5C 311.134,279.984 315.134,282.984 319.5,285.5C 330.134,294.467 340.134,304.134 349.5,314.5C 360.169,326.497 368.836,339.831 375.5,354.5C 375.863,356.911 374.863,358.411 372.5,359C 354.64,362.808 336.64,363.474 318.5,361C 291.672,357.006 265.672,350.173 240.5,340.5C 238.491,338.622 238.158,336.456 239.5,334C 241.833,333.333 244.167,333.333 246.5,334C 252.661,336.751 258.994,338.917 265.5,340.5C 268.842,340.767 270.509,339.267 270.5,336C 270.091,333.679 269.257,331.513 268,329.5C 260.905,321.9 253.405,314.9 245.5,308.5C 283.047,318.596 320.547,328.929 358,339.5C 358.5,339.167 359,338.833 359.5,338.5C 357.815,336.429 356.148,334.429 354.5,332.5C 350.559,326.226 345.892,320.56 340.5,315.5C 337.167,311.5 333.5,307.833 329.5,304.5C 302.014,279.738 271.68,258.905 238.5,242C 182.331,212.666 123.331,191.166 61.5,177.5C 57.3493,177.851 55.6827,180.185 56.5,184.5C 54.429,179.627 55.7623,175.794 60.5,173C 64.8333,172.333 69.1667,172.333 73.5,173C 105.93,180.522 137.597,190.355 168.5,202.5 Z"/><path fill="#e3e3e3" d="M 365.5,110.5 C 365.5,110.167 365.5,109.833 365.5,109.5C 375.928,108.638 379.428,113.305 376,123.5C 370.838,129.662 365.338,135.495 359.5,141C 358.167,141.333 356.833,141.667 355.5,142C 346.378,151.779 338.044,162.113 330.5,173C 327.711,175.652 324.377,176.819 320.5,176.5C 312.834,174.998 305.167,173.831 297.5,173C 296.5,173.333 295.5,173.667 294.5,174C 291.631,177.204 288.465,180.037 285,182.5C 283.568,185.002 283.402,187.502 284.5,190C 290.525,191.922 295.359,195.422 299,200.5C 298.124,212.765 297.457,225.098 297,237.5C 294.984,240.815 294.651,244.148 296,247.5C 302.503,250.164 309.003,252.998 315.5,256C 318.928,258.691 320.928,262.191 321.5,266.5C 320.017,271.084 319.517,275.751 320,280.5C 324.175,283.345 328.341,286.178 332.5,289C 347.098,303.263 361.265,317.763 375,332.5C 378.755,336.76 380.755,341.76 381,347.5C 384.173,350.684 387.006,354.184 389.5,358C 390.517,360.787 390.684,363.62 390,366.5C 386.355,373.415 380.522,376.915 372.5,377C 357.833,377.667 343.167,377.667 328.5,377C 321.764,376.645 315.431,375.145 309.5,372.5C 330.069,375.323 350.735,376.156 371.5,375C 377.901,374.981 383.068,372.481 387,367.5C 387.667,364.5 387.667,361.5 387,358.5C 383.425,353.154 379.592,348.154 375.5,343.5C 375.477,341.073 374.977,338.74 374,336.5C 363.354,325.518 353.021,314.185 343,302.5C 338.466,298.997 334.299,295.164 330.5,291C 326.543,289.688 322.876,287.855 319.5,285.5C 317.971,282.979 316.971,280.146 316.5,277C 317.333,272.512 317.5,268.012 317,263.5C 313.999,260.584 310.499,258.584 306.5,257.5C 307.706,256.12 307.373,254.953 305.5,254C 299.743,251.45 294.077,248.95 288.5,246.5C 288.771,241.411 290.271,236.744 293,232.5C 293.815,222.168 294.148,211.835 294,201.5C 291.341,199.754 288.508,198.42 285.5,197.5C 284.452,192.791 281.452,190.125 276.5,189.5C 276.5,189.167 276.5,188.833 276.5,188.5C 280.418,181.058 285.752,174.558 292.5,169C 297.5,168.333 302.5,168.333 307.5,169C 314.452,171.635 321.452,171.968 328.5,170C 331.64,166.86 334.806,163.694 338,160.5C 340.5,156.484 342.333,152.15 343.5,147.5C 353.704,140.473 363.204,132.473 372,123.5C 373.483,120.298 373.817,116.964 373,113.5C 371.152,110.959 368.652,109.959 365.5,110.5 Z"/><path fill="#cec3ef" d="M 208.5,180.5 C 206.833,182.833 204.833,184.833 202.5,186.5C 201.833,186.167 201.167,185.833 200.5,185.5C 198.14,182.473 195.473,179.806 192.5,177.5C 194.797,175.706 196.963,173.706 199,171.5C 202.667,174.001 205.834,177.001 208.5,180.5 Z"/><path fill="#7557dc" d="M 179.5,172.5 C 185.219,171.233 189.553,172.9 192.5,177.5C 195.473,179.806 198.14,182.473 200.5,185.5C 198.043,191.728 193.709,193.561 187.5,191C 184.918,189.256 182.918,187.09 181.5,184.5C 182.96,182.537 184.627,180.704 186.5,179C 183.712,177.281 181.379,175.115 179.5,172.5 Z"/><path fill="#989898" d="M 362.5,113.5 C 365.365,113.055 367.865,113.722 370,115.5C 370.571,119.045 369.904,122.378 368,125.5C 360.23,133.442 351.73,140.442 342.5,146.5C 338.33,153.159 333.996,159.659 329.5,166C 324.128,168.442 318.461,169.109 312.5,168C 306.417,165.526 300.084,164.859 293.5,166C 286.317,172.683 279.65,179.85 273.5,187.5C 272.209,187.737 271.209,187.404 270.5,186.5C 276.625,177.874 283.958,170.374 292.5,164C 296.5,163.333 300.5,163.333 304.5,164C 311.033,166.109 317.7,166.776 324.5,166C 331.244,159.038 336.911,151.205 341.5,142.5C 344.298,140.87 346.965,139.037 349.5,137C 354.374,135.815 358.541,133.315 362,129.5C 362.739,127.779 363.573,126.113 364.5,124.5C 368.007,122.539 369.34,119.539 368.5,115.5C 365.833,115.5 363.167,115.5 360.5,115.5C 360.833,114.5 361.5,113.833 362.5,113.5 Z"/><path fill="#f7b549" d="M 329.5,304.5 C 329.265,305.097 328.765,305.43 328,305.5C 290.189,294.922 252.355,284.422 214.5,274C 213.944,273.617 213.611,273.117 213.5,272.5C 213.938,269.107 213.105,266.107 211,263.5C 201.35,256.166 190.517,251.333 178.5,249C 168.851,247.597 159.184,246.431 149.5,245.5C 144.015,244.673 138.348,244.173 132.5,244C 119.167,240.333 105.833,236.667 92.5,233C 93.7932,232.51 95.1266,232.343 96.5,232.5C 105.833,233.167 115.167,233.833 124.5,234.5C 124.714,232.856 124.38,231.356 123.5,230C 108.722,222.277 93.7221,215.11 78.5,208.5C 70.8271,209.918 63.1605,211.418 55.5,213C 54.9781,213.561 54.6448,214.228 54.5,215C 55.34,216.767 56.6734,218.101 58.5,219C 63.5266,221.513 68.5266,224.013 73.5,226.5C 73.2648,227.097 72.7648,227.43 72,227.5C 62.257,224.44 52.4237,221.773 42.5,219.5C 38.3516,214.828 38.6849,210.328 43.5,206C 47.5894,203.873 51.4228,201.373 55,198.5C 56.3789,193.964 56.8789,189.297 56.5,184.5C 55.6827,180.185 57.3493,177.851 61.5,177.5C 123.331,191.166 182.331,212.666 238.5,242C 271.68,258.905 302.014,279.738 329.5,304.5 Z"/><path fill="#b5afeb" d="M 257.5,181.5 C 260.298,182.953 263.298,183.953 266.5,184.5C 267.514,185.674 268.847,186.34 270.5,186.5C 271.209,187.404 272.209,187.737 273.5,187.5C 274.209,188.404 275.209,188.737 276.5,188.5C 276.5,188.833 276.5,189.167 276.5,189.5C 275.25,189.577 274.417,190.244 274,191.5C 272.273,194.618 271.439,197.951 271.5,201.5C 275.833,201.5 280.167,201.5 284.5,201.5C 282.965,205.437 281.632,209.437 280.5,213.5C 276.371,211.718 272.038,210.718 267.5,210.5C 268.441,208.95 269.107,207.284 269.5,205.5C 270.404,204.791 270.737,203.791 270.5,202.5C 270.719,201.325 270.386,200.325 269.5,199.5C 263.443,197.151 257.443,194.817 251.5,192.5C 247.951,191.726 244.618,190.393 241.5,188.5C 246.765,186.205 252.098,183.872 257.5,181.5 Z"/><path fill="#613fd7" d="M 181.5,184.5 C 182.918,187.09 184.918,189.256 187.5,191C 193.709,193.561 198.043,191.728 200.5,185.5C 201.167,185.833 201.833,186.167 202.5,186.5C 202.5,186.833 202.5,187.167 202.5,187.5C 202.66,189.199 202.494,190.866 202,192.5C 199.317,195.016 196.817,197.683 194.5,200.5C 193.264,201.246 191.93,201.579 190.5,201.5C 186.846,199.669 183.513,197.336 180.5,194.5C 179.4,193.395 178.733,192.062 178.5,190.5C 178.433,189.041 178.766,187.708 179.5,186.5C 180.5,186.167 181.167,185.5 181.5,184.5 Z"/><path fill="#646466" d="M 202.5,187.5 C 209.257,189.03 216.09,190.03 223,190.5C 229.229,190.322 235.396,189.656 241.5,188.5C 244.618,190.393 247.951,191.726 251.5,192.5C 250.737,193.268 249.737,193.768 248.5,194C 239.322,194.627 230.156,194.46 221,193.5C 217.742,193.493 214.575,193.993 211.5,195C 208.061,199.443 204.227,203.61 200,207.5C 199.616,210.06 198.783,212.394 197.5,214.5C 193.646,213.07 189.979,211.403 186.5,209.5C 188.42,207.254 189.753,204.587 190.5,201.5C 191.93,201.579 193.264,201.246 194.5,200.5C 196.817,197.683 199.317,195.016 202,192.5C 202.494,190.866 202.66,189.199 202.5,187.5 Z"/><path fill="#a18de8" d="M 276.5,189.5 C 281.452,190.125 284.452,192.791 285.5,197.5C 285.5,198.167 285.5,198.833 285.5,199.5C 284.662,199.842 284.328,200.508 284.5,201.5C 280.167,201.5 275.833,201.5 271.5,201.5C 271.439,197.951 272.273,194.618 274,191.5C 274.417,190.244 275.25,189.577 276.5,189.5 Z"/><path fill="#866be0" d="M 178.5,190.5 C 178.733,192.062 179.4,193.395 180.5,194.5C 179.5,194.5 178.5,194.5 177.5,194.5C 176.499,197.838 175.499,201.171 174.5,204.5C 172.297,204.396 170.297,203.73 168.5,202.5C 171.486,198.183 174.82,194.183 178.5,190.5 Z"/><path fill="#9e89e6" d="M 180.5,194.5 C 183.513,197.336 186.846,199.669 190.5,201.5C 189.753,204.587 188.42,207.254 186.5,209.5C 182.203,208.345 178.203,206.679 174.5,204.5C 175.499,201.171 176.499,197.838 177.5,194.5C 178.5,194.5 179.5,194.5 180.5,194.5 Z"/><path fill="#909090" d="M 251.5,192.5 C 257.443,194.817 263.443,197.151 269.5,199.5C 270.386,200.325 270.719,201.325 270.5,202.5C 266.429,201.644 262.429,200.477 258.5,199C 243.167,198.333 227.833,198.333 212.5,199C 209.299,204.022 205.466,208.522 201,212.5C 200.517,213.448 200.351,214.448 200.5,215.5C 199.391,215.443 198.391,215.11 197.5,214.5C 198.783,212.394 199.616,210.06 200,207.5C 204.227,203.61 208.061,199.443 211.5,195C 214.575,193.993 217.742,193.493 221,193.5C 230.156,194.46 239.322,194.627 248.5,194C 249.737,193.768 250.737,193.268 251.5,192.5 Z"/><path fill="#b2b2b2" d="M 270.5,202.5 C 270.737,203.791 270.404,204.791 269.5,205.5C 261.831,202.355 253.831,200.689 245.5,200.5C 235.171,201.359 224.838,201.525 214.5,201C 210.946,204.554 207.446,208.054 204,211.5C 202.991,213.025 202.491,214.692 202.5,216.5C 201.508,216.672 200.842,216.338 200.5,215.5C 200.351,214.448 200.517,213.448 201,212.5C 205.466,208.522 209.299,204.022 212.5,199C 227.833,198.333 243.167,198.333 258.5,199C 262.429,200.477 266.429,201.644 270.5,202.5 Z"/><path fill="#b5b5b5" d="M 285.5,197.5 C 288.508,198.42 291.341,199.754 294,201.5C 294.148,211.835 293.815,222.168 293,232.5C 290.271,236.744 288.771,241.411 288.5,246.5C 288.167,246.5 287.833,246.5 287.5,246.5C 289.693,234.133 291.36,221.633 292.5,209C 292.919,203.693 290.586,200.526 285.5,199.5C 285.5,198.833 285.5,198.167 285.5,197.5 Z"/><path fill="#fed48f" d="M 96.5,232.5 C 90.9696,231.725 85.3029,230.891 79.5,230C 77.3083,229.074 75.3083,227.907 73.5,226.5C 68.5266,224.013 63.5266,221.513 58.5,219C 56.6734,218.101 55.34,216.767 54.5,215C 54.6448,214.228 54.9781,213.561 55.5,213C 63.1605,211.418 70.8271,209.918 78.5,208.5C 93.7221,215.11 108.722,222.277 123.5,230C 124.38,231.356 124.714,232.856 124.5,234.5C 115.167,233.833 105.833,233.167 96.5,232.5 Z"/><path fill="#7456dc" d="M 266.5,210.5 C 266.833,210.5 267.167,210.5 267.5,210.5C 272.038,210.718 276.371,211.718 280.5,213.5C 281.167,213.5 281.5,213.833 281.5,214.5C 276.024,225.92 270.024,226.253 263.5,215.5C 263.273,213.067 264.273,211.401 266.5,210.5 Z"/><path fill="#949494" d="M 285.5,199.5 C 290.586,200.526 292.919,203.693 292.5,209C 291.36,221.633 289.693,234.133 287.5,246.5C 286.5,246.5 285.5,246.5 284.5,246.5C 284.167,246.5 283.833,246.5 283.5,246.5C 283.38,244.266 283.713,242.099 284.5,240C 286.32,238.193 287.487,236.027 288,233.5C 288.634,223.824 288.967,214.157 289,204.5C 288.092,202.561 286.592,201.561 284.5,201.5C 284.328,200.508 284.662,199.842 285.5,199.5 Z"/><path fill="#f8bc58" d="M 42.5,219.5 C 52.4237,221.773 62.257,224.44 72,227.5C 72.7648,227.43 73.2648,227.097 73.5,226.5C 75.3083,227.907 77.3083,229.074 79.5,230C 85.3029,230.891 90.9696,231.725 96.5,232.5C 95.1266,232.343 93.7932,232.51 92.5,233C 105.833,236.667 119.167,240.333 132.5,244C 138.348,244.173 144.015,244.673 149.5,245.5C 126.103,244.248 103.103,246.581 80.5,252.5C 69.2063,243.177 57.873,233.844 46.5,224.5C 44.4131,223.415 43.0798,221.749 42.5,219.5 Z"/><path fill="#6340d8" d="M 281.5,214.5 C 282.117,214.611 282.617,214.944 283,215.5C 283.427,221.961 281.593,227.628 277.5,232.5C 273.1,231.698 268.767,230.698 264.5,229.5C 263.71,228.599 262.71,227.932 261.5,227.5C 260.851,223.395 261.517,219.395 263.5,215.5C 270.024,226.253 276.024,225.92 281.5,214.5 Z"/><path fill="#69696c" d="M 284.5,201.5 C 286.592,201.561 288.092,202.561 289,204.5C 288.967,214.157 288.634,223.824 288,233.5C 287.487,236.027 286.32,238.193 284.5,240C 283.713,242.099 283.38,244.266 283.5,246.5C 282.041,246.567 280.708,246.234 279.5,245.5C 278.319,241.257 277.652,236.924 277.5,232.5C 281.593,227.628 283.427,221.961 283,215.5C 282.617,214.944 282.117,214.611 281.5,214.5C 281.5,213.833 281.167,213.5 280.5,213.5C 281.632,209.437 282.965,205.437 284.5,201.5 Z"/><path fill="#8166df" d="M 261.5,227.5 C 262.71,227.932 263.71,228.599 264.5,229.5C 263.212,232.597 263.712,235.597 266,238.5C 269.921,242.043 274.421,244.377 279.5,245.5C 280.708,246.234 282.041,246.567 283.5,246.5C 283.833,246.5 284.167,246.5 284.5,246.5C 285.263,247.268 286.263,247.768 287.5,248C 286.692,250.088 285.692,252.088 284.5,254C 285.056,254.383 285.389,254.883 285.5,255.5C 282.918,255.025 280.918,255.692 279.5,257.5C 271.759,252.434 263.759,247.768 255.5,243.5C 255.833,242.167 256.167,240.833 256.5,239.5C 258.167,235.5 259.833,231.5 261.5,227.5 Z"/><path fill="#9e89e7" d="M 264.5,229.5 C 268.767,230.698 273.1,231.698 277.5,232.5C 277.652,236.924 278.319,241.257 279.5,245.5C 274.421,244.377 269.921,242.043 266,238.5C 263.712,235.597 263.212,232.597 264.5,229.5 Z"/><path fill="#e2e2e2" d="M 269.5,205.5 C 269.107,207.284 268.441,208.95 267.5,210.5C 267.167,210.5 266.833,210.5 266.5,210.5C 264.424,208.286 261.758,206.786 258.5,206C 243.858,204.294 229.192,204.127 214.5,205.5C 211.795,207.707 209.629,210.374 208,213.5C 207.37,215.903 208.203,217.737 210.5,219C 215.397,220.12 220.064,221.786 224.5,224C 226.754,224.624 228.421,225.957 229.5,228C 231.167,228.333 232.833,228.667 234.5,229C 241.768,232.592 249.102,236.092 256.5,239.5C 256.167,240.833 255.833,242.167 255.5,243.5C 238.205,233.686 220.538,224.686 202.5,216.5C 202.491,214.692 202.991,213.025 204,211.5C 207.446,208.054 210.946,204.554 214.5,201C 224.838,201.525 235.171,201.359 245.5,200.5C 253.831,200.689 261.831,202.355 269.5,205.5 Z"/><path fill="#b4b3b0" d="M 46.5,224.5 C 57.873,233.844 69.2063,243.177 80.5,252.5C 73.2764,254.004 67.9431,251.338 64.5,244.5C 59.1978,239.941 54.0311,235.274 49,230.5C 47.878,228.593 47.0447,226.593 46.5,224.5 Z"/><path fill="#ffedd2" d="M 162.5,240.5 C 163.833,240.5 165.167,240.5 166.5,240.5C 166.5,241.5 166.5,242.5 166.5,243.5C 164.027,243.912 162.694,242.912 162.5,240.5 Z"/><path fill="#fef7ec" d="M 174.5,241.5 C 176.167,241.5 177.833,241.5 179.5,241.5C 179.5,242.5 179.5,243.5 179.5,244.5C 177.801,244.66 176.134,244.494 174.5,244C 173.402,243.23 173.402,242.397 174.5,241.5 Z"/><path fill="#fef9f1" d="M 187.5,243.5 C 190.346,243.03 192.679,243.863 194.5,246C 192.728,247.487 190.728,247.82 188.5,247C 187.663,245.989 187.33,244.822 187.5,243.5 Z"/><path fill="#ccc1f0" d="M 284.5,246.5 C 285.5,246.5 286.5,246.5 287.5,246.5C 287.833,246.5 288.167,246.5 288.5,246.5C 294.077,248.95 299.743,251.45 305.5,254C 307.373,254.953 307.706,256.12 306.5,257.5C 305.833,259.167 305.167,260.833 304.5,262.5C 304.068,263.71 303.401,264.71 302.5,265.5C 302.719,264.325 302.386,263.325 301.5,262.5C 296.141,260.152 290.807,257.819 285.5,255.5C 285.389,254.883 285.056,254.383 284.5,254C 285.692,252.088 286.692,250.088 287.5,248C 286.263,247.768 285.263,247.268 284.5,246.5 Z"/><path fill="#c8e0f4" d="M 240.5,363.5 C 236.154,363.666 231.821,363.499 227.5,363C 207.134,357.879 187.801,350.213 169.5,340C 145.247,324.765 120.247,310.765 94.5,298C 79.1258,291.492 63.1258,287.992 46.5,287.5C 44.901,287.232 43.5676,287.566 42.5,288.5C 41.0413,288.567 39.7079,288.234 38.5,287.5C 36.9382,287.267 35.6049,286.6 34.5,285.5C 32.3764,278.726 34.7097,273.893 41.5,271C 85.531,251.454 131.198,246.121 178.5,255C 187.116,257.205 195.449,260.205 203.5,264C 205.211,265.133 205.711,266.633 205,268.5C 198.253,268.733 191.419,268.9 184.5,269C 182.032,270.588 181.866,272.422 184,274.5C 188.899,278.699 194.066,282.532 199.5,286C 213.165,293.497 226.498,301.497 239.5,310C 245.036,314.504 250.203,319.337 255,324.5C 256.24,327.906 255.073,329.573 251.5,329.5C 246.739,327.857 241.906,326.523 237,325.5C 229.094,326.544 227.427,330.544 232,337.5C 237.333,343.5 242.667,349.5 248,355.5C 248.667,357.167 248.667,358.833 248,360.5C 245.52,361.812 243.02,362.812 240.5,363.5 Z"/><path fill="#5731d3" d="M 285.5,255.5 C 290.807,257.819 296.141,260.152 301.5,262.5C 302.386,263.325 302.719,264.325 302.5,265.5C 300.485,266.924 298.152,267.59 295.5,267.5C 289.918,264.589 284.585,261.256 279.5,257.5C 280.918,255.692 282.918,255.025 285.5,255.5 Z"/><path fill="#e1eefa" d="M 223.5,308.5 C 223.489,310.017 222.823,311.184 221.5,312C 202.363,325.06 181.696,328.06 159.5,321C 132.948,309.082 118.282,288.582 115.5,259.5C 136.925,257.661 158.259,258.494 179.5,262C 180.308,262.308 180.975,262.808 181.5,263.5C 176.839,264.411 172.505,266.078 168.5,268.5C 167.123,271.577 167.29,274.577 169,277.5C 172.867,281.846 177.367,285.346 182.5,288C 196.7,293.996 210.367,300.829 223.5,308.5 Z"/><path fill="#6f6e70" d="M 304.5,262.5 C 309.552,262.934 311.385,265.601 310,270.5C 309.434,272.723 308.6,274.723 307.5,276.5C 303.462,273.488 299.462,270.488 295.5,267.5C 298.152,267.59 300.485,266.924 302.5,265.5C 303.401,264.71 304.068,263.71 304.5,262.5 Z"/><path fill="#f9be5d" d="M 213.5,272.5 C 213.611,273.117 213.944,273.617 214.5,274C 252.355,284.422 290.189,294.922 328,305.5C 328.765,305.43 329.265,305.097 329.5,304.5C 333.5,307.833 337.167,311.5 340.5,315.5C 340.265,316.097 339.765,316.43 339,316.5C 312.144,309.078 285.311,301.578 258.5,294C 259.737,293.768 260.737,293.268 261.5,292.5C 259.739,288.411 256.739,287.078 252.5,288.5C 253.605,290.611 255.271,291.945 257.5,292.5C 255.374,293.103 253.041,293.103 250.5,292.5C 243.95,289.058 237.283,285.891 230.5,283C 228.613,282.22 226.946,282.387 225.5,283.5C 225.265,284.097 224.765,284.43 224,284.5C 215.213,281.928 206.379,279.595 197.5,277.5C 196.596,276.791 196.263,275.791 196.5,274.5C 202.388,275.012 208.055,274.345 213.5,272.5 Z"/><path fill="#c2c1c1" d="M 306.5,257.5 C 310.499,258.584 313.999,260.584 317,263.5C 317.5,268.012 317.333,272.512 316.5,277C 316.971,280.146 317.971,282.979 319.5,285.5C 315.134,282.984 311.134,279.984 307.5,276.5C 308.6,274.723 309.434,272.723 310,270.5C 311.385,265.601 309.552,262.934 304.5,262.5C 305.167,260.833 305.833,259.167 306.5,257.5 Z"/><path fill="#fffbf6" d="M 225.5,283.5 C 226.946,282.387 228.613,282.22 230.5,283C 237.283,285.891 243.95,289.058 250.5,292.5C 256.059,295.377 261.393,298.71 266.5,302.5C 268.415,304.071 269.415,306.071 269.5,308.5C 267.119,309.83 264.786,309.664 262.5,308C 251.134,298.321 238.801,290.154 225.5,283.5 Z"/><path fill="#fef9f2" d="M 261.5,292.5 C 260.167,292.5 258.833,292.5 257.5,292.5C 255.271,291.945 253.605,290.611 252.5,288.5C 256.739,287.078 259.739,288.411 261.5,292.5 Z"/><path fill="#fbc56c" d="M 250.5,292.5 C 253.041,293.103 255.374,293.103 257.5,292.5C 258.833,292.5 260.167,292.5 261.5,292.5C 260.737,293.268 259.737,293.768 258.5,294C 285.311,301.578 312.144,309.078 339,316.5C 339.765,316.43 340.265,316.097 340.5,315.5C 345.892,320.56 350.559,326.226 354.5,332.5C 326.768,325.394 298.768,317.894 270.5,310C 269.944,309.617 269.611,309.117 269.5,308.5C 269.415,306.071 268.415,304.071 266.5,302.5C 261.393,298.71 256.059,295.377 250.5,292.5 Z"/><path fill="#fccb7a" d="M 197.5,277.5 C 206.379,279.595 215.213,281.928 224,284.5C 224.765,284.43 225.265,284.097 225.5,283.5C 238.801,290.154 251.134,298.321 262.5,308C 264.786,309.664 267.119,309.83 269.5,308.5C 269.611,309.117 269.944,309.617 270.5,310C 298.768,317.894 326.768,325.394 354.5,332.5C 356.148,334.429 357.815,336.429 359.5,338.5C 359,338.833 358.5,339.167 358,339.5C 320.547,328.929 283.047,318.596 245.5,308.5C 229.152,298.662 213.152,288.329 197.5,277.5 Z"/><path fill="#d6e8f7" d="M 115.5,259.5 C 118.282,288.582 132.948,309.082 159.5,321C 181.696,328.06 202.363,325.06 221.5,312C 222.823,311.184 223.489,310.017 223.5,308.5C 229.727,311.73 235.393,315.73 240.5,320.5C 239.833,320.833 239.167,321.167 238.5,321.5C 232.53,319.223 226.53,319.057 220.5,321C 216.621,326.197 216.621,331.53 220.5,337C 213.645,340.618 206.478,343.452 199,345.5C 179.195,336.362 160.361,325.529 142.5,313C 129.482,305.49 116.149,298.49 102.5,292C 97.8901,282.726 95.5568,272.893 95.5,262.5C 102.113,261.173 108.78,260.173 115.5,259.5 Z"/><path fill="#d2d1d1" d="M 38.5,287.5 C 39.7079,288.234 41.0413,288.567 42.5,288.5C 43.5392,290.901 44.8726,293.235 46.5,295.5C 54.4193,296.995 62.4193,297.829 70.5,298C 83.9598,299.149 95.9598,303.816 106.5,312C 113.2,314.676 119.867,317.342 126.5,320C 127.71,321.039 128.71,322.206 129.5,323.5C 121.986,321.601 114.986,318.434 108.5,314C 100.972,312.16 93.9721,309.16 87.5,305C 73.3681,301.567 59.0348,299.567 44.5,299C 42.9825,297.315 41.3159,295.815 39.5,294.5C 38.6258,292.253 38.2924,289.92 38.5,287.5 Z"/><path fill="#fffaf2" d="M 264.5,316.5 C 268.693,316.362 271.027,318.362 271.5,322.5C 267.75,322.129 265.417,320.129 264.5,316.5 Z"/><path fill="#a9a9a9" d="M 42.5,288.5 C 43.5676,287.566 44.901,287.232 46.5,287.5C 44.9829,289.936 45.3162,292.102 47.5,294C 68.3083,294.302 88.3083,298.302 107.5,306C 125.674,316.585 143.674,327.418 161.5,338.5C 160.127,338.657 158.793,338.49 157.5,338C 148.695,331.915 139.361,327.082 129.5,323.5C 128.71,322.206 127.71,321.039 126.5,320C 119.867,317.342 113.2,314.676 106.5,312C 95.9598,303.816 83.9598,299.149 70.5,298C 62.4193,297.829 54.4193,296.995 46.5,295.5C 44.8726,293.235 43.5392,290.901 42.5,288.5 Z"/><path fill="#848485" d="M 46.5,287.5 C 63.1258,287.992 79.1258,291.492 94.5,298C 120.247,310.765 145.247,324.765 169.5,340C 187.801,350.213 207.134,357.879 227.5,363C 231.821,363.499 236.154,363.666 240.5,363.5C 246.545,363.697 252.545,363.363 258.5,362.5C 260.28,363.99 260.946,365.99 260.5,368.5C 251.868,369.578 243.202,369.744 234.5,369C 228.708,367.054 222.708,365.72 216.5,365C 198.425,357.241 180.758,348.741 163.5,339.5C 162.508,339.672 161.842,339.338 161.5,338.5C 143.674,327.418 125.674,316.585 107.5,306C 88.3083,298.302 68.3083,294.302 47.5,294C 45.3162,292.102 44.9829,289.936 46.5,287.5 Z"/><path fill="#b5b5b5" d="M 319.5,285.5 C 322.876,287.855 326.543,289.688 330.5,291C 334.299,295.164 338.466,298.997 343,302.5C 353.021,314.185 363.354,325.518 374,336.5C 374.977,338.74 375.477,341.073 375.5,343.5C 376.106,348.455 378.439,352.455 382.5,355.5C 383.657,358.784 383.824,362.118 383,365.5C 380.695,367.022 379.195,369.022 378.5,371.5C 351.919,374.813 325.586,373.313 299.5,367C 290.253,364.212 280.92,361.712 271.5,359.5C 270.558,359.608 269.725,359.941 269,360.5C 268.667,363.5 268.333,366.5 268,369.5C 267.329,370.252 266.496,370.586 265.5,370.5C 265.184,366.475 265.017,362.475 265,358.5C 266.062,357.903 267.228,357.57 268.5,357.5C 282.188,359.088 295.521,362.255 308.5,367C 316.241,367.439 323.908,368.439 331.5,370C 342.833,370.667 354.167,370.667 365.5,370C 370.657,369.197 375.657,367.864 380.5,366C 381.783,363.205 381.783,360.372 380.5,357.5C 375.49,348.013 370.323,338.68 365,329.5C 360.133,324.968 355.633,320.134 351.5,315C 350.906,314.536 350.239,314.369 349.5,314.5C 340.134,304.134 330.134,294.467 319.5,285.5 Z"/><path fill="#9c9c9c" d="M 349.5,314.5 C 350.239,314.369 350.906,314.536 351.5,315C 355.633,320.134 360.133,324.968 365,329.5C 370.323,338.68 375.49,348.013 380.5,357.5C 381.783,360.372 381.783,363.205 380.5,366C 375.657,367.864 370.657,369.197 365.5,370C 354.167,370.667 342.833,370.667 331.5,370C 323.908,368.439 316.241,367.439 308.5,367C 295.521,362.255 282.188,359.088 268.5,357.5C 267.228,357.57 266.062,357.903 265,358.5C 265.017,362.475 265.184,366.475 265.5,370.5C 239.596,375.049 215.596,370.216 193.5,356C 181.905,353.203 171.905,347.703 163.5,339.5C 180.758,348.741 198.425,357.241 216.5,365C 222.708,365.72 228.708,367.054 234.5,369C 243.202,369.744 251.868,369.578 260.5,368.5C 260.946,365.99 260.28,363.99 258.5,362.5C 260.113,361.162 260.613,359.495 260,357.5C 258.27,355.598 256.437,353.931 254.5,352.5C 264.022,351.974 273.022,353.808 281.5,358C 304.327,363.749 327.493,367.249 351,368.5C 359.078,368.613 367.078,367.946 375,366.5C 378.073,364.252 379.073,361.252 378,357.5C 377.623,356.058 376.79,355.058 375.5,354.5C 368.836,339.831 360.169,326.497 349.5,314.5 Z"/><path fill="#737272" d="M 240.5,340.5 C 265.672,350.173 291.672,357.006 318.5,361C 336.64,363.474 354.64,362.808 372.5,359C 374.863,358.411 375.863,356.911 375.5,354.5C 376.79,355.058 377.623,356.058 378,357.5C 379.073,361.252 378.073,364.252 375,366.5C 367.078,367.946 359.078,368.613 351,368.5C 327.493,367.249 304.327,363.749 281.5,358C 273.022,353.808 264.022,351.974 254.5,352.5C 249.048,349.437 244.382,345.437 240.5,340.5 Z"/><path fill="#d1d1d1" d="M 129.5,323.5 C 139.361,327.082 148.695,331.915 157.5,338C 158.793,338.49 160.127,338.657 161.5,338.5C 161.842,339.338 162.508,339.672 163.5,339.5C 171.905,347.703 181.905,353.203 193.5,356C 215.596,370.216 239.596,375.049 265.5,370.5C 266.496,370.586 267.329,370.252 268,369.5C 268.333,366.5 268.667,363.5 269,360.5C 269.725,359.941 270.558,359.608 271.5,359.5C 280.92,361.712 290.253,364.212 299.5,367C 325.586,373.313 351.919,374.813 378.5,371.5C 379.195,369.022 380.695,367.022 383,365.5C 383.824,362.118 383.657,358.784 382.5,355.5C 378.439,352.455 376.106,348.455 375.5,343.5C 379.592,348.154 383.425,353.154 387,358.5C 387.667,361.5 387.667,364.5 387,367.5C 383.068,372.481 377.901,374.981 371.5,375C 350.735,376.156 330.069,375.323 309.5,372.5C 298.292,369.905 287.126,366.905 276,363.5C 274.893,363.585 273.893,363.919 273,364.5C 272.883,369.902 270.383,373.736 265.5,376C 256.242,377.584 246.909,377.917 237.5,377C 236.672,376.085 235.672,375.419 234.5,375C 223.833,372 213.167,369 202.5,366C 197.167,362.667 191.833,359.333 186.5,356C 181.237,353.857 175.904,352.024 170.5,350.5C 170.703,348.61 170.037,347.11 168.5,346C 164.053,342.609 159.053,340.609 153.5,340C 148.636,336.486 143.636,333.153 138.5,330C 133.646,330.238 130.646,328.071 129.5,323.5 Z"/></svg></svg>