<svg width="48" height="48" viewBox="0 0 48 48" fill-rule="evenodd" clip-rule="evenodd" xmlns="http://www.w3.org/2000/svg"><defs><radialGradient id="backgroundgrad" cx="50%" cy="50%" r="50%" fx="50%" fy="50%"><stop offset="35%" stop-color="#ffffff" /><stop offset="100%" stop-color="#ccecff" /></radialGradient></defs><rect x="1" y="1" rx="8" ry="8" width="46" height="46" fill="url(#backgroundgrad)" stroke="#0072B5" stroke-width="2" /><svg x="5" y="5" width="38" height="38" viewBox="0 0 250 250"><svg x="-16" y="-21" width="282" height="282" viewBox="0 0 240 240"><g fill="#0072B5" stroke="none" transform="translate(0,240) scale(0.1,-0.1)"><path d="M1715 2163 c-36 -9 -1389 -523 -1423 -541 -53 -27 -113 -83 -128 -119 -29 -69 -12 -179 46 -293 28 -55 350 -563 457 -720 127 -186 195 -225 398 -225 l120 0 405 154 c223 84 421 161 440 171 60 31 146 129 182 205 44 95 47 155 14 330 -85 450 -150 760 -173 828 -32 94 -101 186 -153 204 -35 12 -147 15 -185 6z m-22 -127 c99 -42 171 -171 212 -381 8 -44 19 -96 25 -115 10 -38 82 -364 99 -448 6 -29 14 -90 17 -135 6 -75 4 -88 -22 -152 -21 -52 -42 -84 -84 -125 -60 -60 -91 -75 -385 -185 -77 -29 -196 -74 -265 -101 -117 -46 -131 -49 -215 -48 -80 0 -97 3 -155 31 -75 36 -137 93 -188 172 -19 31 -52 81 -72 111 -20 30 -72 114 -115 185 -42 72 -96 159 -120 195 -118 181 -171 307 -163 392 5 44 11 56 59 104 32 33 71 61 99 71 25 9 50 20 55 24 6 4 35 14 65 23 58 17 267 100 277 110 4 3 14 6 23 6 9 0 45 12 81 26 35 14 111 43 169 64 58 21 139 52 180 68 41 17 113 45 160 63 47 17 101 38 120 45 46 17 103 17 143 0z m323 -174 c27 -18 35 -51 19 -82 -13 -26 -21 -30 -57 -30 -25 0 -49 7 -60 17 -25 23 -23 68 4 87 23 17 75 21 94 8z m61 -224 c33 -31 30 -70 -8 -102 -17 -14 -41 -26 -54 -26 -31 0 -75 47 -75 79 0 63 89 95 137 49z" /><path d="M1045 1781 c-3 -12 -4 -29 0 -40 3 -10 2 -28 -3 -40 l-8 -22 -26 20 c-31 25 -38 26 -38 7 0 -8 8 -17 18 -20 16 -6 52 -64 52 -84 0 -10 -87 -72 -101 -72 -36 0 -177 -174 -199 -245 -6 -22 -17 -53 -23 -70 -6 -16 -12 -65 -15 -108 -3 -67 1 -90 29 -175 28 -83 40 -105 86 -153 29 -31 51 -58 48 -61 -13 -13 118 -98 152 -98 8 0 30 -12 49 -26 30 -23 34 -32 34 -73 0 -26 6 -55 13 -65 12 -16 14 -15 24 20 6 22 14 53 18 70 l6 31 85 6 c51 4 93 12 106 22 13 8 35 15 50 15 28 0 97 41 111 66 4 8 13 14 19 14 6 0 20 8 30 17 16 14 23 15 38 5 28 -17 31 -15 25 11 -5 17 5 43 30 86 42 71 67 139 85 233 11 56 11 77 0 125 -7 32 -17 62 -22 68 -4 5 -8 19 -8 31 0 79 -126 236 -215 269 -27 10 -54 22 -59 27 -6 4 -17 8 -25 8 -8 0 -34 9 -58 21 -34 16 -54 20 -91 15 -143 -19 -152 -19 -178 5 -22 21 -25 30 -22 96 2 74 -5 101 -17 64z m378 -247 c40 -19 79 -42 88 -50 8 -8 22 -14 31 -14 8 0 25 -11 37 -24 l22 -24 -33 -25 c-18 -13 -44 -30 -58 -37 -14 -7 -47 -29 -75 -49 -27 -20 -64 -41 -82 -47 l-32 -11 -67 108 c-37 60 -70 109 -73 109 -10 0 -71 88 -71 102 0 8 34 9 121 4 111 -6 127 -9 192 -42z m-389 -111 c3 -71 11 -166 17 -213 13 -97 -2 -166 -39 -185 -11 -6 -32 -25 -47 -43 -15 -18 -43 -36 -64 -42 -20 -5 -50 -23 -66 -40 -33 -34 -55 -39 -55 -11 0 10 -7 38 -16 62 -8 24 -19 82 -23 129 -7 70 -5 95 10 145 10 33 19 68 19 78 0 32 219 247 251 247 4 0 9 -57 13 -127z m132 -8 c66 -114 92 -165 99 -197 6 -24 2 -30 -48 -62 -31 -20 -59 -41 -62 -46 -5 -8 -11 -7 -21 1 -10 8 -14 34 -14 83 0 48 -5 79 -15 92 -10 13 -14 46 -15 110 0 134 8 136 76 19z m481 -64 c3 -11 11 -22 18 -25 7 -2 16 -22 20 -43 4 -21 10 -42 15 -48 4 -5 3 -77 -4 -160 -12 -154 -27 -205 -74 -264 l-19 -23 -51 93 c-27 52 -66 111 -84 131 -43 45 -106 167 -90 176 5 4 33 21 61 37 29 17 51 37 51 47 0 17 38 48 95 79 41 23 56 22 62 0z m-320 -223 c11 -13 30 -40 42 -61 13 -21 30 -45 39 -53 20 -21 72 -97 72 -107 0 -4 18 -35 41 -68 38 -57 40 -61 25 -84 -37 -56 -148 -125 -202 -125 -12 0 -26 -4 -29 -10 -3 -5 -26 -10 -50 -10 -24 0 -47 5 -50 10 -3 6 -19 10 -35 10 -38 0 -47 19 -51 104 -3 49 0 71 9 73 15 6 17 120 1 159 -16 45 -4 67 66 117 36 26 65 51 65 57 0 18 36 10 57 -12z m-260 -323 l2 -155 -35 0 c-20 0 -51 7 -69 16 -32 15 -155 143 -155 161 0 17 67 60 120 76 30 10 69 26 85 37 17 11 35 20 40 20 6 0 11 -60 12 -155z" /></g></svg></svg></svg>