<svg viewBox="0 0 250 250" fill-rule="evenodd" clip-rule="evenodd" xmlns="http://www.w3.org/2000/svg">
  <defs>
	<radialGradient id="radgrad" cx="50%" cy="50%" r="50%" fx="50%" fy="50%">
      <stop offset="15%" stop-color="#ccecff" />
      <stop offset="53%" stop-color="#0072B5" />
      <stop offset="73%" stop-color="#0072B5" />
      <stop offset="100%" stop-color="#0072B5" stop-opacity="0" />
    </radialGradient>
  </defs>

  <rect x="12" y="16" width="218" height="226" fill="url(#radgrad)" />
  <svg x="8" y="8" width="234" height="234" viewBox="0 0 234 215">
    <path fill="Yellow" opacity="0" d="M -0.5,-0.5 C 41.8333,-0.5 84.1667,-0.5 126.5,-0.5C 126.611,0.117425 126.944,0.617425 127.5,1C 126.231,0.891484 125.231,1.05815 124.5,1.5C 122.226,0.048351 120.726,0.715018 120,3.5C 119.667,3.16667 119.333,2.83333 119,2.5C 118.804,4.28613 117.971,5.61946 116.5,6.5C 114.606,5.39887 113.939,4.06554 114.5,2.5C 111.265,4.96584 107.932,6.46584 104.5,7C 105.097,8.06171 105.43,9.22838 105.5,10.5C 104.708,16.3813 103.375,22.2146 101.5,28C 102.416,28.3742 103.25,28.8742 104,29.5C 105.516,26.9485 106.349,27.2819 106.5,30.5C 103.951,30.6126 101.618,29.9459 99.5,28.5C 83.5421,31.8122 69.5421,38.8122 57.5,49.5C 54.5282,51.6411 52.0282,54.3078 50,57.5C 47.2399,63.3565 44.2399,69.0232 41,74.5C 40.023,76.74 39.523,79.0733 39.5,81.5C 35.5698,87.9581 33.9031,94.9581 34.5,102.5C 33.3948,108.098 32.0614,113.598 30.5,119C 30.8333,119.333 31.1667,119.667 31.5,120C 30.3284,120.353 29.1618,120.187 28,119.5C 24.4629,120.72 20.9629,121.887 17.5,123C 15.1902,123.497 12.8568,123.663 10.5,123.5C 7.55147,124.013 4.71814,124.013 2,123.5C 1.83333,123.833 1.66667,124.167 1.5,124.5C 2.37598,125.251 3.37598,125.751 4.5,126C 3.32791,126.419 2.32791,127.085 1.5,128C 4.42333,130.045 7.25667,132.212 10,134.5C 10.3333,133.833 10.6667,133.167 11,132.5C 13.221,134.714 15.3877,137.047 17.5,139.5C 14.1559,141.585 10.8225,143.585 7.5,145.5C 6.26899,146.651 6.26899,147.817 7.5,149C 11.1991,149.334 14.6991,149.501 18,149.5C 19.3086,147.109 20.3086,147.109 21,149.5C 21.7724,148.151 22.9391,147.318 24.5,147C 28.7727,145.97 33.106,145.303 37.5,145C 38.8882,144.111 38.7215,143.611 37,143.5C 34.5947,144.012 32.0947,144.345 29.5,144.5C 26.3522,143.86 26.0188,142.86 28.5,141.5C 29.944,142.981 30.6106,142.648 30.5,140.5C 33.214,140.25 35.8806,140.083 38.5,140C 37.2888,140.893 37.2888,141.726 38.5,142.5C 39.1924,141.975 39.6924,141.308 40,140.5C 40.7845,142.286 41.9512,143.786 43.5,145C 42.7476,145.671 42.4142,146.504 42.5,147.5C 41.2101,146.942 40.3768,145.942 40,144.5C 39.5,145.5 39,146.5 38.5,147.5C 38.8457,148.696 39.3457,148.696 40,147.5C 40.941,149.727 42.1077,151.727 43.5,153.5C 45.14,156.149 46.8067,158.816 48.5,161.5C 49.1408,162.482 49.8075,163.482 50.5,164.5C 47.1187,169.31 45.1187,174.643 44.5,180.5C 41.696,187.577 38.696,194.577 35.5,201.5C 34.0937,201.973 33.427,202.973 33.5,204.5C 33.8442,207.562 34.5109,210.562 35.5,213.5C 37.1667,212.167 38.8333,210.833 40.5,209.5C 41.1924,210.025 41.6924,210.692 42,211.5C 42.6979,210.309 43.5313,209.309 44.5,208.5C 45.6697,206.721 47.3364,205.721 49.5,205.5C 49.3398,207.199 49.5065,208.866 50,210.5C 51.4813,211.471 52.3146,212.804 52.5,214.5C 34.8333,214.5 17.1667,214.5 -0.5,214.5C -0.5,142.833 -0.5,71.1667 -0.5,-0.5 Z"/>
    <path fill="Yellow" opacity="0" d="M 126.5,-0.5 C 162.167,-0.5 197.833,-0.5 233.5,-0.5C 233.5,35.1667 233.5,70.8333 233.5,106.5C 233.167,106.5 232.833,106.5 232.5,106.5C 229.034,104.908 225.367,104.242 221.5,104.5C 218.001,104.741 217.668,103.908 220.5,102C 219.289,100.887 219.289,99.7202 220.5,98.5C 218.653,97.1696 217.153,97.503 216,99.5C 213,98.1667 210,98.1667 207,99.5C 207.208,94.7018 205.042,92.8685 200.5,94C 201.872,94.4017 203.205,94.9017 204.5,95.5C 205.583,96.365 205.749,97.365 205,98.5C 204.667,98.1667 204.333,97.8333 204,97.5C 202.5,98.6667 201,99.8333 199.5,101C 200.833,101.333 202.167,101.667 203.5,102C 200.479,102.673 197.479,103.007 194.5,103C 195.167,102.667 195.833,102.333 196.5,102C 195.207,101.51 193.873,101.343 192.5,101.5C 191.943,99.0509 191.943,96.7175 192.5,94.5C 196.207,92.9761 199.873,91.4761 203.5,90C 199.322,90.2379 195.322,91.4046 191.5,93.5C 190.817,93.1373 190.15,92.8039 189.5,92.5C 188.033,83.2591 184.699,74.9257 179.5,67.5C 175.227,62.5342 171.227,57.2009 167.5,51.5C 165.481,50.0195 163.481,48.6861 161.5,47.5C 157.215,45.7455 153.549,42.9122 150.5,39C 145.177,36.2235 139.511,34.7235 133.5,34.5C 133.5,33.5 133.5,32.5 133.5,31.5C 132.68,27.2245 131.347,23.2245 129.5,19.5C 129.231,14.7363 127.898,10.403 125.5,6.5C 124.962,4.88277 124.629,3.2161 124.5,1.5C 125.231,1.05815 126.231,0.891484 127.5,1C 126.944,0.617425 126.611,0.117425 126.5,-0.5 Z"/>
    <path fill="#a9a9a9" d="M 129.5,19.5 C 131.347,23.2245 132.68,27.2245 133.5,31.5C 132.732,32.2625 132.232,33.2625 132,34.5C 131.768,33.2625 131.268,32.2625 130.5,31.5C 129.3,26.3735 127.633,21.3735 125.5,16.5C 125.833,16.1667 126.167,15.8333 126.5,15.5C 127.521,16.9014 128.521,18.2347 129.5,19.5 Z"/>
    <path fill="#eaeaea" d="M 103.5,32.5 C 102.086,34.1385 102.42,35.4718 104.5,36.5C 103.198,39.7079 102.531,43.0412 102.5,46.5C 102.336,48.151 101.336,49.8177 99.5,51.5C 99.4455,50.4699 99.1122,49.3033 98.5,48C 94.2067,49.2559 93.54,48.0893 96.5,44.5C 96.1667,44.1667 95.8333,43.8333 95.5,43.5C 93.5174,46.9914 90.5174,48.6581 86.5,48.5C 84.6916,48.5086 83.0249,48.0086 81.5,47C 83.0399,45.1489 84.5399,43.9822 86,43.5C 86.414,43.9574 86.914,44.2907 87.5,44.5C 88.2283,42.8068 89.2283,41.3068 90.5,40C 89.7248,38.7705 88.7248,38.4372 87.5,39C 86.5206,41.4031 85.0206,42.2364 83,41.5C 82,42.5 81,43.5 80,44.5C 79.8333,44.1667 79.6667,43.8333 79.5,43.5C 81.2166,41.1304 82.8833,38.797 84.5,36.5C 85.6819,34.9005 87.0153,34.5672 88.5,35.5C 92.9734,34.9288 96.9734,33.2622 100.5,30.5C 101.696,30.8457 101.696,31.3457 100.5,32C 101.448,32.4828 102.448,32.6495 103.5,32.5 Z"/>
    <path fill="#acacac" d="M 133.5,34.5 C 139.511,34.7235 145.177,36.2235 150.5,39C 153.549,42.9122 157.215,45.7455 161.5,47.5C 159.738,47.3573 158.071,47.6906 156.5,48.5C 153.828,45.3287 150.828,42.4954 147.5,40C 143.756,38.9825 140.089,37.8159 136.5,36.5C 135.5,35.8333 134.5,35.1667 133.5,34.5 Z"/>
    <path fill="#d5d5d5" d="M 117.5,64.5 C 116.561,61.8943 114.894,59.8943 112.5,58.5C 115.005,56.8141 115.838,54.4807 115,51.5C 114.623,52.9423 113.79,53.9423 112.5,54.5C 111.699,52.9582 111.366,51.2915 111.5,49.5C 110.022,49.238 108.689,49.5713 107.5,50.5C 106.917,52.0016 106.084,53.3349 105,54.5C 105.172,51.6487 106.339,49.1487 108.5,47C 106.866,46.5065 105.199,46.3398 103.5,46.5C 103.167,46.5 102.833,46.5 102.5,46.5C 102.531,43.0412 103.198,39.7079 104.5,36.5C 102.42,35.4718 102.086,34.1385 103.5,32.5C 104.117,32.3893 104.617,32.056 105,31.5C 105.236,33.1193 106.069,34.1193 107.5,34.5C 106.658,37.4981 106.158,40.4981 106,43.5C 107.439,40.3974 109.273,37.5641 111.5,35C 109,34.1667 108.833,33 111,31.5C 112,32.8333 113,32.8333 114,31.5C 114.5,32.6667 115.333,33.5 116.5,34C 115.234,34.3095 114.067,34.8095 113,35.5C 111.914,37.798 110.414,39.798 108.5,41.5C 109.902,42.8425 109.569,43.6758 107.5,44C 111.972,44.7328 116.305,44.2328 120.5,42.5C 121.485,40.9017 121.651,39.235 121,37.5C 120.667,38.5 120.333,39.5 120,40.5C 118.943,38.7806 118.11,36.9472 117.5,35C 121.5,34.3333 121.5,33.6667 117.5,33C 118.76,31.887 119.927,31.7203 121,32.5C 121.155,30.144 121.155,27.8107 121,25.5C 122.399,28.3634 123.399,31.3634 124,34.5C 124.903,35.7014 126.069,36.5348 127.5,37C 126.833,37.3333 126.167,37.6667 125.5,38C 127.037,40.3128 127.537,42.8128 127,45.5C 126.185,43.3772 125.185,41.3772 124,39.5C 123.137,41.7489 123.637,43.5822 125.5,45C 124.874,45.7504 124.374,46.5838 124,47.5C 123.138,45.913 122.471,44.2464 122,42.5C 121.585,44.2909 120.585,45.6243 119,46.5C 116.5,46.3333 114,46.1667 111.5,46C 112.833,46.6667 112.833,47.3333 111.5,48C 113.101,48.2734 114.601,48.7734 116,49.5C 116.333,49.1667 116.667,48.8333 117,48.5C 119.819,50.5195 122.652,51.6862 125.5,52C 124.773,53.3988 124.273,54.8988 124,56.5C 120.999,56.5758 120.833,55.4091 123.5,53C 121.466,51.7947 119.466,51.628 117.5,52.5C 119.385,53.1973 119.718,54.1973 118.5,55.5C 121.487,59.8073 121.153,62.8073 117.5,64.5 Z"/>
    <path fill="#aaaaaa" d="M 124.5,1.5 C 124.629,3.2161 124.962,4.88277 125.5,6.5C 124.681,9.30536 124.181,12.3054 124,15.5C 123.299,12.6728 122.299,10.0062 121,7.5C 119.837,9.2852 119.17,11.2852 119,13.5C 117.488,7.71622 113.988,6.04955 108.5,8.5C 108.626,13.0113 108.96,17.5113 109.5,22C 109.143,26.2296 108.477,30.3963 107.5,34.5C 106.069,34.1193 105.236,33.1193 105,31.5C 104.617,32.056 104.117,32.3893 103.5,32.5C 102.448,32.6495 101.448,32.4828 100.5,32C 101.696,31.3457 101.696,30.8457 100.5,30.5C 96.9734,33.2622 92.9734,34.9288 88.5,35.5C 87.0153,34.5672 85.6819,34.9005 84.5,36.5C 81.1461,36.7475 78.1461,37.7475 75.5,39.5C 72.6181,40.6966 70.4514,42.6966 69,45.5C 68.6667,45.1667 68.3333,44.8333 68,44.5C 65,48.1667 62,51.8333 59,55.5C 57.6778,53.5256 58.1778,51.6922 60.5,50C 59.552,49.5172 58.552,49.3505 57.5,49.5C 69.5421,38.8122 83.5421,31.8122 99.5,28.5C 101.618,29.9459 103.951,30.6126 106.5,30.5C 106.349,27.2819 105.516,26.9485 104,29.5C 103.25,28.8742 102.416,28.3742 101.5,28C 103.375,22.2146 104.708,16.3813 105.5,10.5C 105.43,9.22838 105.097,8.06171 104.5,7C 107.932,6.46584 111.265,4.96584 114.5,2.5C 113.939,4.06554 114.606,5.39887 116.5,6.5C 117.971,5.61946 118.804,4.28613 119,2.5C 119.333,2.83333 119.667,3.16667 120,3.5C 120.726,0.715018 122.226,0.048351 124.5,1.5 Z"/>
    <path fill="#d3d3d3" d="M 84.5,36.5 C 82.8833,38.797 81.2166,41.1304 79.5,43.5C 79.6667,43.8333 79.8333,44.1667 80,44.5C 81,43.5 82,42.5 83,41.5C 85.0206,42.2364 86.5206,41.4031 87.5,39C 88.7248,38.4372 89.7248,38.7705 90.5,40C 89.2283,41.3068 88.2283,42.8068 87.5,44.5C 86.914,44.2907 86.414,43.9574 86,43.5C 84.5399,43.9822 83.0399,45.1489 81.5,47C 83.0249,48.0086 84.6916,48.5086 86.5,48.5C 86.1667,49.8333 85.8333,51.1667 85.5,52.5C 82.4965,53.4178 79.6632,54.7511 77,56.5C 76.4926,55.0039 76.9926,53.8373 78.5,53C 80.6079,52.6401 82.6079,51.9734 84.5,51C 81.7682,50.8462 79.1015,51.3462 76.5,52.5C 75.798,50.5331 75.798,48.8665 76.5,47.5C 74.9539,48.684 73.2873,49.684 71.5,50.5C 72.8905,50.1086 73.8905,50.9419 74.5,53C 72.6951,53.972 71.0284,55.1387 69.5,56.5C 69.6236,57.1067 69.9569,57.44 70.5,57.5C 68.6932,58.8362 67.1932,60.5029 66,62.5C 65.3333,61.1667 64.6667,59.8333 64,58.5C 61.8931,60.8092 60.7264,63.1425 60.5,65.5C 59.2719,64.6935 58.2719,63.6935 57.5,62.5C 58.684,59.1393 60.5173,56.1393 63,53.5C 63.3076,54.3081 63.8076,54.9747 64.5,55.5C 68.6749,50.1621 73.0082,44.9954 77.5,40C 76.9056,39.5357 76.2389,39.369 75.5,39.5C 78.1461,37.7475 81.1461,36.7475 84.5,36.5 Z"/>
    <path fill="#f4f4f4" d="M 136.5,36.5 C 140.089,37.8159 143.756,38.9825 147.5,40C 150.828,42.4954 153.828,45.3287 156.5,48.5C 158.071,47.6906 159.738,47.3573 161.5,47.5C 161.804,48.1499 162.137,48.8165 162.5,49.5C 161.758,51.3497 160.758,52.0164 159.5,51.5C 160.145,52.646 160.978,53.646 162,54.5C 162.749,55.635 162.583,56.635 161.5,57.5C 157.278,55.4459 154.278,52.2793 152.5,48C 148.827,46.8962 145.827,44.7296 143.5,41.5C 142.914,41.7093 142.414,42.0426 142,42.5C 139.411,40.7888 136.911,38.9555 134.5,37C 135.094,36.5357 135.761,36.369 136.5,36.5 Z"/>
    <path fill="Yellow" opacity="0" d="M 85.5,77.5 C 80.48,85.8852 76.8133,94.8852 74.5,104.5C 72.713,107.968 71.3796,111.635 70.5,115.5C 68.7839,115.629 67.1172,115.962 65.5,116.5C 60.9677,116.182 56.6344,116.515 52.5,117.5C 50.9942,113.405 49.9942,109.071 49.5,104.5C 50.0671,102.018 50.7337,99.6843 51.5,97.5C 52.4972,97.5299 53.1639,97.0299 53.5,96C 54.0682,94.1284 54.7349,92.2951 55.5,90.5C 54.8333,90.1667 54.1667,89.8333 53.5,89.5C 55.904,84.4562 58.404,79.4562 61,74.5C 61.6838,73.2161 61.5171,72.0495 60.5,71C 61.8764,68.4575 63.043,68.2908 64,70.5C 64.7172,69.9558 65.2172,69.2891 65.5,68.5C 66.7911,69.5417 66.7911,70.7083 65.5,72C 66.6667,72.5 67.5,73.3333 68,74.5C 70.2954,71.2026 72.962,68.2026 76,65.5C 76.3333,66.1667 76.6667,66.8333 77,67.5C 80.683,60.991 86.183,55.6577 93.5,51.5C 93.369,52.2389 93.5357,52.9056 94,53.5C 95,52.1667 96,50.8333 97,49.5C 97.1667,49.8333 97.3333,50.1667 97.5,50.5C 95.6775,54.4604 94.1775,58.4604 93,62.5C 95,59.8333 97,57.1667 99,54.5C 99.1088,59.4684 97.6088,63.9684 94.5,68C 95.0219,68.5613 95.3552,69.228 95.5,70C 93.2886,77.6513 90.1219,84.8179 86,91.5C 85.22,90.1791 84.72,88.6791 84.5,87C 85.6667,84.1667 86.8333,81.3333 88,78.5C 88.3333,79.1667 88.6667,79.8333 89,80.5C 90.654,76.6976 92.154,72.8642 93.5,69C 92.376,68.7508 91.376,68.2508 90.5,67.5C 91.3256,66.549 91.4922,65.549 91,64.5C 88.9009,67.3042 88.0676,70.3042 88.5,73.5C 88.1543,74.6956 87.6543,74.6956 87,73.5C 86.2086,74.745 85.7086,76.0783 85.5,77.5 Z"/>
    <path fill="#e2e2e2" d="M 85.5,52.5 C 87.228,51.621 89.0614,50.9543 91,50.5C 92.0698,50.528 92.9032,50.8614 93.5,51.5C 86.183,55.6577 80.683,60.991 77,67.5C 76.6667,66.8333 76.3333,66.1667 76,65.5C 72.962,68.2026 70.2954,71.2026 68,74.5C 67.5,73.3333 66.6667,72.5 65.5,72C 66.7911,70.7083 66.7911,69.5417 65.5,68.5C 64.3473,67.6868 64.3473,66.6868 65.5,65.5C 68.9582,62.5437 72.2916,59.3771 75.5,56C 73.5048,55.3872 71.8381,55.8872 70.5,57.5C 69.9569,57.44 69.6236,57.1067 69.5,56.5C 71.0284,55.1387 72.6951,53.972 74.5,53C 73.8905,50.9419 72.8905,50.1086 71.5,50.5C 73.2873,49.684 74.9539,48.684 76.5,47.5C 75.798,48.8665 75.798,50.5331 76.5,52.5C 79.1015,51.3462 81.7682,50.8462 84.5,51C 82.6079,51.9734 80.6079,52.6401 78.5,53C 76.9926,53.8373 76.4926,55.0039 77,56.5C 79.6632,54.7511 82.4965,53.4178 85.5,52.5 Z"/>
    <path fill="#a0a0a0" d="M 141.5,52.5 C 145.792,52.4274 148.459,54.7607 149.5,59.5C 152.5,59.5 155.5,59.5 158.5,59.5C 159.309,63.5245 161.309,67.0245 164.5,70C 163.316,71.1455 163.316,72.3121 164.5,73.5C 161.335,69.7983 158.669,65.6317 156.5,61C 154.126,61.4024 151.793,61.2357 149.5,60.5C 147.118,57.4517 144.452,54.7851 141.5,52.5 Z"/>
    <path fill="#d6d6d6" d="M 130.5,31.5 C 131.268,32.2625 131.768,33.2625 132,34.5C 132.232,33.2625 132.732,32.2625 133.5,31.5C 133.5,32.5 133.5,33.5 133.5,34.5C 134.5,35.1667 135.5,35.8333 136.5,36.5C 135.761,36.369 135.094,36.5357 134.5,37C 136.911,38.9555 139.411,40.7888 142,42.5C 142.414,42.0426 142.914,41.7093 143.5,41.5C 145.827,44.7296 148.827,46.8962 152.5,48C 154.278,52.2793 157.278,55.4459 161.5,57.5C 162.583,56.635 162.749,55.635 162,54.5C 160.978,53.646 160.145,52.646 159.5,51.5C 160.758,52.0164 161.758,51.3497 162.5,49.5C 162.137,48.8165 161.804,48.1499 161.5,47.5C 163.481,48.6861 165.481,50.0195 167.5,51.5C 171.227,57.2009 175.227,62.5342 179.5,67.5C 178.762,69.7171 178.429,71.8837 178.5,74C 180.829,78.8202 183.663,83.3202 187,87.5C 188.801,93.37 189.635,99.37 189.5,105.5C 187.78,107.658 186.947,110.325 187,113.5C 185.946,111.246 184.446,110.913 182.5,112.5C 180.239,109.906 178.072,109.906 176,112.5C 175.282,111.549 174.449,111.383 173.5,112C 174.696,112.654 174.696,113.154 173.5,113.5C 172.859,111.704 171.859,110.204 170.5,109C 171.5,108.5 172.5,108 173.5,107.5C 173.669,108.397 174.002,109.397 174.5,110.5C 177.313,109.781 180.146,109.114 183,108.5C 185.557,111.181 186.724,110.515 186.5,106.5C 185.07,106.421 183.736,106.754 182.5,107.5C 181.015,103.863 181.515,103.196 184,105.5C 184.818,102.773 184.652,100.106 183.5,97.5C 182.232,98.4279 180.899,98.5946 179.5,98C 181.935,97.147 184.269,96.147 186.5,95C 184.351,93.848 182.518,92.348 181,90.5C 180.667,90.8333 180.333,91.1667 180,91.5C 179.529,89.7536 178.862,88.087 178,86.5C 176.908,88.1309 176.075,89.7975 175.5,91.5C 173.862,90.2954 173.529,88.9621 174.5,87.5C 175.252,84.8213 175.419,82.1546 175,79.5C 174.167,78.5 173.333,77.5 172.5,76.5C 172.167,77.1667 171.833,77.8333 171.5,78.5C 169.957,75.6095 167.624,73.9429 164.5,73.5C 163.316,72.3121 163.316,71.1455 164.5,70C 161.309,67.0245 159.309,63.5245 158.5,59.5C 155.5,59.5 152.5,59.5 149.5,59.5C 148.459,54.7607 145.792,52.4274 141.5,52.5C 138.743,50.9143 135.743,49.9143 132.5,49.5C 133.952,48.6981 135.618,48.1981 137.5,48C 135.109,46.6914 135.109,45.6914 137.5,45C 136.124,42.4575 134.957,42.2908 134,44.5C 133.316,43.2161 133.483,42.0495 134.5,41C 132.956,40.7104 131.623,40.0437 130.5,39C 131.167,38.6667 131.833,38.3333 132.5,38C 130.618,35.8918 128.285,34.5585 125.5,34C 127.744,33.9504 129.411,33.1171 130.5,31.5 Z"/>
    <path fill="Yellow" opacity="0" d="M 132.5,49.5 C 135.743,49.9143 138.743,50.9143 141.5,52.5C 144.452,54.7851 147.118,57.4517 149.5,60.5C 151.793,61.2357 154.126,61.4024 156.5,61C 158.669,65.6317 161.335,69.7983 164.5,73.5C 167.873,76.5255 171.039,79.8589 174,83.5C 174.49,84.7932 174.657,86.1266 174.5,87.5C 173.529,88.9621 173.862,90.2954 175.5,91.5C 176.973,95.3882 177.473,99.3882 177,103.5C 174.323,105.066 172.99,104.4 173,101.5C 173.75,100.874 174.584,100.374 175.5,100C 171.694,99.5748 169.86,97.4081 170,93.5C 169.313,95.5675 169.48,97.5675 170.5,99.5C 169.91,100.799 168.91,101.632 167.5,102C 168.793,102.49 170.127,102.657 171.5,102.5C 171.5,103.5 171.5,104.5 171.5,105.5C 169.708,105.634 168.042,105.301 166.5,104.5C 166.53,103.503 166.03,102.836 165,102.5C 163.27,103.649 161.604,103.649 160,102.5C 159.283,103.044 158.783,103.711 158.5,104.5C 155.888,105.371 153.221,106.037 150.5,106.5C 143.192,91.4708 138.359,75.4708 136,58.5C 134.047,55.7449 132.88,52.7449 132.5,49.5 Z"/>
    <path fill="#b1b1b1" d="M 57.5,49.5 C 57.067,52.2853 55.7337,54.6187 53.5,56.5C 54.5,56.5 55.5,56.5 56.5,56.5C 50.4538,62.8662 46.1205,70.1996 43.5,78.5C 41.8595,79.147 40.5261,80.147 39.5,81.5C 39.523,79.0733 40.023,76.74 41,74.5C 44.2399,69.0232 47.2399,63.3565 50,57.5C 52.0282,54.3078 54.5282,51.6411 57.5,49.5 Z"/>
    <path fill="#ededed" d="M 75.5,39.5 C 76.2389,39.369 76.9056,39.5357 77.5,40C 73.0082,44.9954 68.6749,50.1621 64.5,55.5C 63.8076,54.9747 63.3076,54.3081 63,53.5C 60.5173,56.1393 58.684,59.1393 57.5,62.5C 55.5397,65.0993 53.5397,67.7659 51.5,70.5C 51.0894,69.7376 50.9227,68.7376 51,67.5C 48.8333,71 46.6667,74.5 44.5,78C 44.8333,78.3333 45.1667,78.6667 45.5,79C 44.5632,79.6917 43.8966,79.525 43.5,78.5C 46.1205,70.1996 50.4538,62.8662 56.5,56.5C 55.5,56.5 54.5,56.5 53.5,56.5C 55.7337,54.6187 57.067,52.2853 57.5,49.5C 58.552,49.3505 59.552,49.5172 60.5,50C 58.1778,51.6922 57.6778,53.5256 59,55.5C 62,51.8333 65,48.1667 68,44.5C 68.3333,44.8333 68.6667,45.1667 69,45.5C 70.4514,42.6966 72.6181,40.6966 75.5,39.5 Z"/>
    <path fill="#eeeeee" d="M 125.5,6.5 C 127.898,10.403 129.231,14.7363 129.5,19.5C 128.521,18.2347 127.521,16.9014 126.5,15.5C 126.167,15.8333 125.833,16.1667 125.5,16.5C 127.633,21.3735 129.3,26.3735 130.5,31.5C 129.411,33.1171 127.744,33.9504 125.5,34C 128.285,34.5585 130.618,35.8918 132.5,38C 131.833,38.3333 131.167,38.6667 130.5,39C 131.623,40.0437 132.956,40.7104 134.5,41C 133.483,42.0495 133.316,43.2161 134,44.5C 134.957,42.2908 136.124,42.4575 137.5,45C 135.109,45.6914 135.109,46.6914 137.5,48C 135.618,48.1981 133.952,48.6981 132.5,49.5C 131.781,51.0913 130.781,52.5913 129.5,54C 131.04,55.8511 132.54,57.0178 134,57.5C 136.04,71.6257 139.873,85.459 145.5,99C 145.355,99.772 145.022,100.439 144.5,101C 146.058,103.052 147.392,105.219 148.5,107.5C 146.539,107.269 144.539,107.935 142.5,109.5C 140.561,107.878 140.228,106.044 141.5,104C 138.976,100.878 138.309,97.3779 139.5,93.5C 138.833,93.1667 138.167,92.8333 137.5,92.5C 135.738,86.8623 133.904,80.8623 132,74.5C 131.219,75.7287 130.719,77.062 130.5,78.5C 131.628,83.8837 132.961,89.217 134.5,94.5C 134.24,96.1871 133.573,97.6871 132.5,99C 133.744,99.4561 134.577,98.9561 135,97.5C 136.487,99.272 136.82,101.272 136,103.5C 135.421,99.6137 134.588,99.6137 133.5,103.5C 135.679,105.283 135.679,107.283 133.5,109.5C 133.846,110.696 134.346,110.696 135,109.5C 136.735,102.946 138.235,102.946 139.5,109.5C 119.575,115.975 119.909,116.975 140.5,112.5C 142.478,117.387 144.311,122.387 146,127.5C 145.711,123.112 144.877,118.778 143.5,114.5C 146.167,114.833 148.833,115.167 151.5,115.5C 151.612,119.339 152.279,119.339 153.5,115.5C 154.729,114.719 156.062,114.219 157.5,114C 154.456,113.641 154.122,112.974 156.5,112C 154.5,111.333 152.5,110.667 150.5,110C 154.121,108.856 157.455,107.189 160.5,105C 159.906,104.536 159.239,104.369 158.5,104.5C 158.783,103.711 159.283,103.044 160,102.5C 161.604,103.649 163.27,103.649 165,102.5C 166.03,102.836 166.53,103.503 166.5,104.5C 164.049,105.894 161.382,106.728 158.5,107C 163.562,107.243 168.562,106.743 173.5,105.5C 174.5,106 175.5,106.5 176.5,107C 175.304,107.654 175.304,108.154 176.5,108.5C 178.006,104.31 179.006,99.9764 179.5,95.5C 178.902,94.2054 178.402,92.8721 178,91.5C 177.23,92.5981 176.397,92.5981 175.5,91.5C 176.075,89.7975 176.908,88.1309 178,86.5C 178.862,88.087 179.529,89.7536 180,91.5C 180.333,91.1667 180.667,90.8333 181,90.5C 182.518,92.348 184.351,93.848 186.5,95C 184.269,96.147 181.935,97.147 179.5,98C 180.899,98.5946 182.232,98.4279 183.5,97.5C 184.652,100.106 184.818,102.773 184,105.5C 181.515,103.196 181.015,103.863 182.5,107.5C 183.736,106.754 185.07,106.421 186.5,106.5C 186.724,110.515 185.557,111.181 183,108.5C 180.146,109.114 177.313,109.781 174.5,110.5C 174.002,109.397 173.669,108.397 173.5,107.5C 172.5,108 171.5,108.5 170.5,109C 171.859,110.204 172.859,111.704 173.5,113.5C 174.696,113.154 174.696,112.654 173.5,112C 174.449,111.383 175.282,111.549 176,112.5C 178.072,109.906 180.239,109.906 182.5,112.5C 184.446,110.913 185.946,111.246 187,113.5C 186.947,110.325 187.78,107.658 189.5,105.5C 192.899,106.82 196.399,106.82 200,105.5C 204.524,107.035 209.024,107.368 213.5,106.5C 213.119,107.931 212.119,108.764 210.5,109C 211.167,109.167 211.833,109.333 212.5,109.5C 218.113,107.925 223.78,107.091 229.5,107C 227.142,108.276 224.808,109.442 222.5,110.5C 222.167,110.5 221.833,110.5 221.5,110.5C 216.114,111.182 210.781,111.182 205.5,110.5C 203.78,111.934 201.78,112.767 199.5,113C 202.507,113.301 205.507,113.135 208.5,112.5C 207.001,114.49 206.168,116.823 206,119.5C 205.667,118.167 205.333,116.833 205,115.5C 202.959,116.423 200.792,116.756 198.5,116.5C 198.5,118.167 198.5,119.833 198.5,121.5C 197.167,121.5 195.833,121.5 194.5,121.5C 193.804,132.941 189.804,142.941 182.5,151.5C 184.298,146.333 185.631,141 186.5,135.5C 188.094,129.051 190.094,122.718 192.5,116.5C 194.541,115.764 196.541,114.931 198.5,114C 195.901,111.956 193.901,112.289 192.5,115C 191.552,115.483 190.552,115.649 189.5,115.5C 188.557,120.866 187.224,126.2 185.5,131.5C 183.203,137.369 180.87,143.369 178.5,149.5C 177.348,145.946 177.515,142.28 179,138.5C 179.333,139.5 179.667,140.5 180,141.5C 181.798,134.251 182.465,126.918 182,119.5C 181.415,124.511 180.749,129.511 180,134.5C 179.581,135.672 178.915,136.672 178,137.5C 177.919,131.406 178.752,125.406 180.5,119.5C 180,117.5 179.5,115.5 179,113.5C 178.667,114.833 178.333,116.167 178,117.5C 177.617,116.944 177.117,116.611 176.5,116.5C 175.504,116.586 174.671,116.252 174,115.5C 170.255,116.297 166.421,116.797 162.5,117C 160.509,117.374 158.842,118.207 157.5,119.5C 153.664,120.37 153.164,121.703 156,123.5C 159.44,130.874 161.94,138.54 163.5,146.5C 162.566,147.568 162.232,148.901 162.5,150.5C 161.325,150.281 160.325,150.614 159.5,151.5C 160.842,154.456 162.508,156.456 164.5,157.5C 163.752,159.332 162.752,160.999 161.5,162.5C 160.667,161.5 159.833,160.5 159,159.5C 155.056,149.944 151.389,140.277 148,130.5C 148.285,134.212 149.118,137.879 150.5,141.5C 150.281,142.938 149.781,144.271 149,145.5C 148.346,144.304 147.846,144.304 147.5,145.5C 148.167,146.833 148.833,148.167 149.5,149.5C 148.559,149.489 147.892,149.989 147.5,151C 148.634,151.316 149.634,152.149 150.5,153.5C 151.942,156.028 152.442,158.695 152,161.5C 145.355,152.257 141.021,141.924 139,130.5C 137.893,129.288 137.393,129.621 137.5,131.5C 136.073,129.852 135.24,127.852 135,125.5C 133.867,123.789 132.367,123.289 130.5,124C 133.982,128.142 135.982,132.975 136.5,138.5C 134.956,135.064 133.123,131.731 131,128.5C 128.282,129.013 125.449,129.013 122.5,128.5C 124.294,127.143 126.294,125.977 128.5,125C 124.714,125.39 121.047,125.556 117.5,125.5C 116.062,125.281 114.729,124.781 113.5,124C 115.424,122.095 117.757,120.928 120.5,120.5C 121.532,122.04 122.865,122.54 124.5,122C 123.3,120.969 121.966,120.135 120.5,119.5C 117.456,120.178 114.456,121.011 111.5,122C 109.776,122.448 109.109,123.282 109.5,124.5C 107.591,123.652 105.591,123.318 103.5,123.5C 103.5,124.5 103.5,125.5 103.5,126.5C 104.552,126.649 105.552,126.483 106.5,126C 105.304,125.346 105.304,124.846 106.5,124.5C 107.795,125.098 109.128,125.598 110.5,126C 103.266,128.265 95.9324,129.098 88.5,128.5C 86.4311,128.176 86.0977,127.342 87.5,126C 90.8333,125 94.1667,124 97.5,123C 94.4053,122.687 91.4053,123.187 88.5,124.5C 88.0894,123.738 87.9227,122.738 88,121.5C 86.8118,122.563 86.3118,123.897 86.5,125.5C 85.1779,125.33 84.0113,125.663 83,126.5C 82.6466,125.328 82.8132,124.162 83.5,123C 82.8333,122.333 82.1667,121.667 81.5,121C 82.4023,116.365 83.7356,111.865 85.5,107.5C 85.2907,106.914 84.9574,106.414 84.5,106C 86.259,104.992 87.4257,103.492 88,101.5C 88.0924,104.547 87.5924,107.547 86.5,110.5C 86.8457,111.696 87.3457,111.696 88,110.5C 92.634,88.6423 97.8006,67.3089 103.5,46.5C 105.199,46.3398 106.866,46.5065 108.5,47C 106.339,49.1487 105.172,51.6487 105,54.5C 106.084,53.3349 106.917,52.0016 107.5,50.5C 108.689,49.5713 110.022,49.238 111.5,49.5C 111.366,51.2915 111.699,52.9582 112.5,54.5C 110.277,60.715 107.61,66.715 104.5,72.5C 101.187,77.4332 99.52,82.7666 99.5,88.5C 95.8823,97.6382 92.8823,106.972 90.5,116.5C 96.9429,116.155 103.276,115.155 109.5,113.5C 110.554,113.68 111.554,114.013 112.5,114.5C 114.173,112.914 116.173,112.247 118.5,112.5C 120.451,112.227 121.951,112.893 123,114.5C 123.359,111.456 124.026,111.122 125,113.5C 125.589,111.137 127.089,110.137 129.5,110.5C 128.412,105.397 127.412,100.397 126.5,95.5C 125.296,88.8114 123.962,82.1447 122.5,75.5C 123.735,73.2271 123.402,71.3938 121.5,70C 121.833,69.6667 122.167,69.3333 122.5,69C 121.773,67.6012 121.273,66.1012 121,64.5C 119.989,65.3366 118.822,65.67 117.5,65.5C 117.5,65.1667 117.5,64.8333 117.5,64.5C 121.153,62.8073 121.487,59.8073 118.5,55.5C 119.718,54.1973 119.385,53.1973 117.5,52.5C 119.466,51.628 121.466,51.7947 123.5,53C 120.833,55.4091 120.999,56.5758 124,56.5C 124.273,54.8988 124.773,53.3988 125.5,52C 122.652,51.6862 119.819,50.5195 117,48.5C 116.667,48.8333 116.333,49.1667 116,49.5C 114.601,48.7734 113.101,48.2734 111.5,48C 112.833,47.3333 112.833,46.6667 111.5,46C 114,46.1667 116.5,46.3333 119,46.5C 120.585,45.6243 121.585,44.2909 122,42.5C 122.471,44.2464 123.138,45.913 124,47.5C 124.374,46.5838 124.874,45.7504 125.5,45C 123.637,43.5822 123.137,41.7489 124,39.5C 125.185,41.3772 126.185,43.3772 127,45.5C 127.537,42.8128 127.037,40.3128 125.5,38C 126.167,37.6667 126.833,37.3333 127.5,37C 126.069,36.5348 124.903,35.7014 124,34.5C 123.399,31.3634 122.399,28.3634 121,25.5C 121.155,27.8107 121.155,30.144 121,32.5C 119.927,31.7203 118.76,31.887 117.5,33C 121.5,33.6667 121.5,34.3333 117.5,35C 118.11,36.9472 118.943,38.7806 120,40.5C 120.333,39.5 120.667,38.5 121,37.5C 121.651,39.235 121.485,40.9017 120.5,42.5C 116.305,44.2328 111.972,44.7328 107.5,44C 109.569,43.6758 109.902,42.8425 108.5,41.5C 110.414,39.798 111.914,37.798 113,35.5C 114.067,34.8095 115.234,34.3095 116.5,34C 115.333,33.5 114.5,32.6667 114,31.5C 113,32.8333 112,32.8333 111,31.5C 108.833,33 109,34.1667 111.5,35C 109.273,37.5641 107.439,40.3974 106,43.5C 106.158,40.4981 106.658,37.4981 107.5,34.5C 108.477,30.3963 109.143,26.2296 109.5,22C 108.96,17.5113 108.626,13.0113 108.5,8.5C 113.988,6.04955 117.488,7.71622 119,13.5C 119.17,11.2852 119.837,9.2852 121,7.5C 122.299,10.0062 123.299,12.6728 124,15.5C 124.181,12.3054 124.681,9.30536 125.5,6.5 Z"/>
    <path fill="#999999" d="M 112.5,58.5 C 109.884,64.0626 107.551,69.7292 105.5,75.5C 104.596,74.791 104.263,73.791 104.5,72.5C 107.61,66.715 110.277,60.715 112.5,54.5C 113.79,53.9423 114.623,52.9423 115,51.5C 115.838,54.4807 115.005,56.8141 112.5,58.5 Z"/>
    <path fill="Yellow" opacity="0" d="M 112.5,58.5 C 114.894,59.8943 116.561,61.8943 117.5,64.5C 117.5,64.8333 117.5,65.1667 117.5,65.5C 118.269,78.7441 119.936,91.5774 122.5,104C 122.662,106.502 121.995,108.669 120.5,110.5C 113.959,110.808 107.626,112.142 101.5,114.5C 100.833,114.167 100.167,113.833 99.5,113.5C 100.506,112.604 100.506,111.938 99.5,111.5C 97.5,112.5 95.5,113.5 93.5,114.5C 93.1667,114 92.8333,113.5 92.5,113C 94.9463,104.523 97.9463,96.356 101.5,88.5C 102.434,87.4324 102.768,86.099 102.5,84.5C 103.924,82.4855 104.59,80.1522 104.5,77.5C 104.833,76.8333 105.167,76.1667 105.5,75.5C 107.551,69.7292 109.884,64.0626 112.5,58.5 Z"/>
    <path fill="#a5a5a5" d="M 164.5,73.5 C 167.624,73.9429 169.957,75.6095 171.5,78.5C 171.833,77.8333 172.167,77.1667 172.5,76.5C 173.333,77.5 174.167,78.5 175,79.5C 175.419,82.1546 175.252,84.8213 174.5,87.5C 174.657,86.1266 174.49,84.7932 174,83.5C 171.039,79.8589 167.873,76.5255 164.5,73.5 Z"/>
    <path fill="#7c7c7c" d="M 104.5,77.5 C 104.59,80.1522 103.924,82.4855 102.5,84.5C 102.41,81.8478 103.076,79.5145 104.5,77.5 Z"/>
    <path fill="#a7a7a7" d="M 122.5,75.5 C 123.962,82.1447 125.296,88.8114 126.5,95.5C 124.192,91.9532 123.025,87.9532 123,83.5C 121.984,82.3659 121.317,82.6992 121,84.5C 120.333,80.1667 120.333,75.8333 121,71.5C 121.21,73.0581 121.71,74.3915 122.5,75.5 Z"/>
    <path fill="#c8c8c8" d="M 104.5,72.5 C 104.263,73.791 104.596,74.791 105.5,75.5C 105.167,76.1667 104.833,76.8333 104.5,77.5C 103.076,79.5145 102.41,81.8478 102.5,84.5C 102.768,86.099 102.434,87.4324 101.5,88.5C 101.631,87.7611 101.464,87.0944 101,86.5C 100.722,87.4158 100.222,88.0825 99.5,88.5C 99.52,82.7666 101.187,77.4332 104.5,72.5 Z"/>
    <path fill="#b3b3b3" d="M 179.5,67.5 C 184.699,74.9257 188.033,83.2591 189.5,92.5C 190.66,96.7666 191.327,100.933 191.5,105C 195.177,105.453 198.844,105.286 202.5,104.5C 206.37,104.809 210.037,105.476 213.5,106.5C 209.024,107.368 204.524,107.035 200,105.5C 196.399,106.82 192.899,106.82 189.5,105.5C 189.635,99.37 188.801,93.37 187,87.5C 183.663,83.3202 180.829,78.8202 178.5,74C 178.429,71.8837 178.762,69.7171 179.5,67.5 Z"/>
    <path fill="#cfcfcf" d="M 122.5,75.5 C 121.71,74.3915 121.21,73.0581 121,71.5C 120.333,75.8333 120.333,80.1667 121,84.5C 121.317,82.6992 121.984,82.3659 123,83.5C 123.025,87.9532 124.192,91.9532 126.5,95.5C 127.412,100.397 128.412,105.397 129.5,110.5C 127.089,110.137 125.589,111.137 125,113.5C 124.026,111.122 123.359,111.456 123,114.5C 121.951,112.893 120.451,112.227 118.5,112.5C 119.263,111.732 120.263,111.232 121.5,111C 121.272,110.601 120.938,110.435 120.5,110.5C 121.995,108.669 122.662,106.502 122.5,104C 119.936,91.5774 118.269,78.7441 117.5,65.5C 118.822,65.67 119.989,65.3366 121,64.5C 121.273,66.1012 121.773,67.6012 122.5,69C 122.167,69.3333 121.833,69.6667 121.5,70C 123.402,71.3938 123.735,73.2271 122.5,75.5 Z"/>
    <path fill="#c7c7c7" d="M 65.5,68.5 C 65.2172,69.2891 64.7172,69.9558 64,70.5C 63.043,68.2908 61.8764,68.4575 60.5,71C 61.5171,72.0495 61.6838,73.2161 61,74.5C 58.404,79.4562 55.904,84.4562 53.5,89.5C 54.1667,89.8333 54.8333,90.1667 55.5,90.5C 54.7349,92.2951 54.0682,94.1284 53.5,96C 53.1639,97.0299 52.4972,97.5299 51.5,97.5C 52.3799,95.6112 52.3799,93.6112 51.5,91.5C 51.6621,89.4727 51.4955,87.4727 51,85.5C 47.9669,89.8919 45.8002,94.5586 44.5,99.5C 44.6605,93.8906 44.1605,89.2239 43,85.5C 41.1598,87.4904 39.9931,87.4904 39.5,85.5C 39.5,84.1667 39.5,82.8333 39.5,81.5C 40.5261,80.147 41.8595,79.147 43.5,78.5C 43.8966,79.525 44.5632,79.6917 45.5,79C 45.1667,78.6667 44.8333,78.3333 44.5,78C 46.6667,74.5 48.8333,71 51,67.5C 50.9227,68.7376 51.0894,69.7376 51.5,70.5C 53.5397,67.7659 55.5397,65.0993 57.5,62.5C 56.1408,66.8816 53.9741,70.8816 51,74.5C 50.3162,75.7839 50.4829,76.9505 51.5,78C 49.6667,78.5 48.5,79.6667 48,81.5C 47.3311,78.9722 46.4978,78.9722 45.5,81.5C 47.7313,84.9499 49.898,84.6166 52,80.5C 52.6667,81.8333 53.3333,81.8333 54,80.5C 54.7065,78.9194 55.5399,77.4194 56.5,76C 55.2575,75.6886 54.2575,76.1886 53.5,77.5C 53.1667,77.1667 52.8333,76.8333 52.5,76.5C 53.4909,74.6769 54.8243,73.1769 56.5,72C 55.7203,70.927 55.887,69.7604 57,68.5C 58.1451,67.3636 59.3117,66.3636 60.5,65.5C 60.7264,63.1425 61.8931,60.8092 64,58.5C 64.6667,59.8333 65.3333,61.1667 66,62.5C 67.1932,60.5029 68.6932,58.8362 70.5,57.5C 71.8381,55.8872 73.5048,55.3872 75.5,56C 72.2916,59.3771 68.9582,62.5437 65.5,65.5C 64.3473,66.6868 64.3473,67.6868 65.5,68.5 Z"/>
    <path fill="#ededed" d="M 57.5,62.5 C 58.2719,63.6935 59.2719,64.6935 60.5,65.5C 59.3117,66.3636 58.1451,67.3636 57,68.5C 55.887,69.7604 55.7203,70.927 56.5,72C 54.8243,73.1769 53.4909,74.6769 52.5,76.5C 52.8333,76.8333 53.1667,77.1667 53.5,77.5C 54.2575,76.1886 55.2575,75.6886 56.5,76C 55.5399,77.4194 54.7065,78.9194 54,80.5C 53.3333,81.8333 52.6667,81.8333 52,80.5C 49.898,84.6166 47.7313,84.9499 45.5,81.5C 46.4978,78.9722 47.3311,78.9722 48,81.5C 48.5,79.6667 49.6667,78.5 51.5,78C 50.4829,76.9505 50.3162,75.7839 51,74.5C 53.9741,70.8816 56.1408,66.8816 57.5,62.5 Z"/>
    <path fill="#bfbfbf" d="M 102.5,46.5 C 102.833,46.5 103.167,46.5 103.5,46.5C 97.8006,67.3089 92.634,88.6423 88,110.5C 87.3457,111.696 86.8457,111.696 86.5,110.5C 87.5924,107.547 88.0924,104.547 88,101.5C 87.4257,103.492 86.259,104.992 84.5,106C 84.9574,106.414 85.2907,106.914 85.5,107.5C 83.7356,111.865 82.4023,116.365 81.5,121C 82.1667,121.667 82.8333,122.333 83.5,123C 82.8132,124.162 82.6466,125.328 83,126.5C 84.0113,125.663 85.1779,125.33 86.5,125.5C 86.3118,123.897 86.8118,122.563 88,121.5C 87.9227,122.738 88.0894,123.738 88.5,124.5C 91.4053,123.187 94.4053,122.687 97.5,123C 94.1667,124 90.8333,125 87.5,126C 86.0977,127.342 86.4311,128.176 88.5,128.5C 95.9324,129.098 103.266,128.265 110.5,126C 109.128,125.598 107.795,125.098 106.5,124.5C 105.304,124.846 105.304,125.346 106.5,126C 105.552,126.483 104.552,126.649 103.5,126.5C 103.5,125.5 103.5,124.5 103.5,123.5C 105.591,123.318 107.591,123.652 109.5,124.5C 109.109,123.282 109.776,122.448 111.5,122C 114.456,121.011 117.456,120.178 120.5,119.5C 121.966,120.135 123.3,120.969 124.5,122C 122.865,122.54 121.532,122.04 120.5,120.5C 117.757,120.928 115.424,122.095 113.5,124C 114.729,124.781 116.062,125.281 117.5,125.5C 121.047,125.556 124.714,125.39 128.5,125C 126.294,125.977 124.294,127.143 122.5,128.5C 116.79,129.459 111.29,131.125 106,133.5C 103.551,133.139 101.218,132.472 99,131.5C 98.0094,132.939 96.676,133.939 95,134.5C 93.3547,134.307 91.5213,134.14 89.5,134C 91.7173,132.725 94.0506,131.725 96.5,131C 95.8333,130.833 95.1667,130.667 94.5,130.5C 90.3978,131.387 86.7311,133.054 83.5,135.5C 83.8146,133.774 83.9813,132.107 84,130.5C 83.3333,131.167 82.6667,131.833 82,132.5C 81.1072,131.289 80.2739,131.289 79.5,132.5C 77.4807,135.538 76.314,138.871 76,142.5C 75.3333,141.167 74.6667,141.167 74,142.5C 73,145.833 72,149.167 71,152.5C 70.6667,151.5 70.3333,150.5 70,149.5C 69.5983,150.872 69.0983,152.205 68.5,153.5C 68.8457,154.696 69.3457,154.696 70,153.5C 71.9338,155.419 71.7671,156.919 69.5,158C 70.8398,160.179 70.5065,160.679 68.5,159.5C 68.6567,158.127 68.49,156.793 68,155.5C 67.6667,156.167 67.3333,156.833 67,157.5C 67.8448,150.112 70.1781,143.112 74,136.5C 78.4603,123.618 82.627,110.618 86.5,97.5C 86.3333,96.8333 86.1667,96.1667 86,95.5C 85.0266,97.3921 84.3599,99.3921 84,101.5C 83.5814,100.328 82.9147,99.3279 82,98.5C 80.7533,101.329 79.2533,103.995 77.5,106.5C 77.7605,108.187 78.4272,109.687 79.5,111C 77.6667,111.5 76.5,112.667 76,114.5C 75.1475,112.875 74.1475,112.542 73,113.5C 71.8755,116.784 70.8755,120.117 70,123.5C 68.1153,122.687 67.4487,121.353 68,119.5C 68.3333,120.167 68.6667,120.833 69,121.5C 69.9819,120.241 70.3152,118.908 70,117.5C 68.8831,117.665 67.7164,117.998 66.5,118.5C 65.7025,118.043 65.3691,117.376 65.5,116.5C 67.1172,115.962 68.7839,115.629 70.5,115.5C 71.3796,111.635 72.713,107.968 74.5,104.5C 74.3932,106.379 74.8932,106.712 76,105.5C 76.9279,99.6442 79.4279,94.6442 83.5,90.5C 83.1667,89.8333 82.8333,89.1667 82.5,88.5C 83.7043,85.2606 85.0376,82.094 86.5,79C 85.944,78.6174 85.6107,78.1174 85.5,77.5C 85.7086,76.0783 86.2086,74.745 87,73.5C 87.6543,74.6956 88.1543,74.6956 88.5,73.5C 88.0676,70.3042 88.9009,67.3042 91,64.5C 91.4922,65.549 91.3256,66.549 90.5,67.5C 91.376,68.2508 92.376,68.7508 93.5,69C 92.154,72.8642 90.654,76.6976 89,80.5C 88.6667,79.8333 88.3333,79.1667 88,78.5C 86.8333,81.3333 85.6667,84.1667 84.5,87C 84.72,88.6791 85.22,90.1791 86,91.5C 90.1219,84.8179 93.2886,77.6513 95.5,70C 95.3552,69.228 95.0219,68.5613 94.5,68C 97.6088,63.9684 99.1088,59.4684 99,54.5C 97,57.1667 95,59.8333 93,62.5C 94.1775,58.4604 95.6775,54.4604 97.5,50.5C 97.3333,50.1667 97.1667,49.8333 97,49.5C 96,50.8333 95,52.1667 94,53.5C 93.5357,52.9056 93.369,52.2389 93.5,51.5C 92.9032,50.8614 92.0698,50.528 91,50.5C 89.0614,50.9543 87.228,51.621 85.5,52.5C 85.8333,51.1667 86.1667,49.8333 86.5,48.5C 90.5174,48.6581 93.5174,46.9914 95.5,43.5C 95.8333,43.8333 96.1667,44.1667 96.5,44.5C 93.54,48.0893 94.2067,49.2559 98.5,48C 99.1122,49.3033 99.4455,50.4699 99.5,51.5C 101.336,49.8177 102.336,48.151 102.5,46.5 Z"/>
    <path fill="#a3a3a3" d="M 132.5,49.5 C 132.88,52.7449 134.047,55.7449 136,58.5C 138.359,75.4708 143.192,91.4708 150.5,106.5C 149.994,108.105 149.327,108.439 148.5,107.5C 147.392,105.219 146.058,103.052 144.5,101C 145.022,100.439 145.355,99.772 145.5,99C 139.873,85.459 136.04,71.6257 134,57.5C 132.54,57.0178 131.04,55.8511 129.5,54C 130.781,52.5913 131.781,51.0913 132.5,49.5 Z"/>
    <path fill="#d2d2d2" d="M 148.5,107.5 C 149.327,108.439 149.994,108.105 150.5,106.5C 153.221,106.037 155.888,105.371 158.5,104.5C 159.239,104.369 159.906,104.536 160.5,105C 157.455,107.189 154.121,108.856 150.5,110C 152.5,110.667 154.5,111.333 156.5,112C 154.122,112.974 154.456,113.641 157.5,114C 156.062,114.219 154.729,114.719 153.5,115.5C 152.279,119.339 151.612,119.339 151.5,115.5C 148.833,115.167 146.167,114.833 143.5,114.5C 144.877,118.778 145.711,123.112 146,127.5C 144.311,122.387 142.478,117.387 140.5,112.5C 119.909,116.975 119.575,115.975 139.5,109.5C 138.235,102.946 136.735,102.946 135,109.5C 134.346,110.696 133.846,110.696 133.5,109.5C 135.679,107.283 135.679,105.283 133.5,103.5C 134.588,99.6137 135.421,99.6137 136,103.5C 136.82,101.272 136.487,99.272 135,97.5C 134.577,98.9561 133.744,99.4561 132.5,99C 133.573,97.6871 134.24,96.1871 134.5,94.5C 132.961,89.217 131.628,83.8837 130.5,78.5C 130.719,77.062 131.219,75.7287 132,74.5C 133.904,80.8623 135.738,86.8623 137.5,92.5C 138.167,92.8333 138.833,93.1667 139.5,93.5C 138.309,97.3779 138.976,100.878 141.5,104C 140.228,106.044 140.561,107.878 142.5,109.5C 144.539,107.935 146.539,107.269 148.5,107.5 Z"/>
    <path fill="#dfdfdf" d="M 85.5,77.5 C 85.6107,78.1174 85.944,78.6174 86.5,79C 85.0376,82.094 83.7043,85.2606 82.5,88.5C 82.8333,89.1667 83.1667,89.8333 83.5,90.5C 79.4279,94.6442 76.9279,99.6442 76,105.5C 74.8932,106.712 74.3932,106.379 74.5,104.5C 76.8133,94.8852 80.48,85.8852 85.5,77.5 Z"/>
    <path fill="#a3a3a3" d="M 51.5,91.5 C 52.3799,93.6112 52.3799,95.6112 51.5,97.5C 50.7337,99.6843 50.0671,102.018 49.5,104.5C 49.9942,109.071 50.9942,113.405 52.5,117.5C 56.1817,117.335 59.8484,117.501 63.5,118C 59.4899,118.501 55.4899,119.001 51.5,119.5C 50.1347,116.264 49.1347,112.931 48.5,109.5C 47.7,103.248 48.7,97.2479 51.5,91.5 Z"/>
    <path fill="#bfbfbf" d="M 175.5,91.5 C 176.397,92.5981 177.23,92.5981 178,91.5C 178.402,92.8721 178.902,94.2054 179.5,95.5C 179.006,99.9764 178.006,104.31 176.5,108.5C 175.304,108.154 175.304,107.654 176.5,107C 175.5,106.5 174.5,106 173.5,105.5C 168.562,106.743 163.562,107.243 158.5,107C 161.382,106.728 164.049,105.894 166.5,104.5C 168.042,105.301 169.708,105.634 171.5,105.5C 171.5,104.5 171.5,103.5 171.5,102.5C 170.127,102.657 168.793,102.49 167.5,102C 168.91,101.632 169.91,100.799 170.5,99.5C 169.48,97.5675 169.313,95.5675 170,93.5C 169.86,97.4081 171.694,99.5748 175.5,100C 174.584,100.374 173.75,100.874 173,101.5C 172.99,104.4 174.323,105.066 177,103.5C 177.473,99.3882 176.973,95.3882 175.5,91.5 Z"/>
    <path fill="#eaeaea" d="M 221.5,104.5 C 219.162,106.04 216.495,106.706 213.5,106.5C 210.037,105.476 206.37,104.809 202.5,104.5C 198.844,105.286 195.177,105.453 191.5,105C 191.327,100.933 190.66,96.7666 189.5,92.5C 190.15,92.8039 190.817,93.1373 191.5,93.5C 195.322,91.4046 199.322,90.2379 203.5,90C 199.873,91.4761 196.207,92.9761 192.5,94.5C 191.943,96.7175 191.943,99.0509 192.5,101.5C 193.873,101.343 195.207,101.51 196.5,102C 195.833,102.333 195.167,102.667 194.5,103C 197.479,103.007 200.479,102.673 203.5,102C 202.167,101.667 200.833,101.333 199.5,101C 201,99.8333 202.5,98.6667 204,97.5C 204.333,97.8333 204.667,98.1667 205,98.5C 205.749,97.365 205.583,96.365 204.5,95.5C 203.205,94.9017 201.872,94.4017 200.5,94C 205.042,92.8685 207.208,94.7018 207,99.5C 210,98.1667 213,98.1667 216,99.5C 217.153,97.503 218.653,97.1696 220.5,98.5C 219.289,99.7202 219.289,100.887 220.5,102C 217.668,103.908 218.001,104.741 221.5,104.5 Z"/>
    <path fill="#f0f0f0" d="M 51.5,91.5 C 48.7,97.2479 47.7,103.248 48.5,109.5C 47.6587,110.009 47.1587,109.343 47,107.5C 46.4415,110.285 45.1082,112.618 43,114.5C 42.8333,113.667 42.6667,112.833 42.5,112C 44.6585,107.892 45.3252,103.726 44.5,99.5C 45.8002,94.5586 47.9669,89.8919 51,85.5C 51.4955,87.4727 51.6621,89.4727 51.5,91.5 Z"/>
    <path fill="#b2b2b2" d="M 221.5,104.5 C 225.367,104.242 229.034,104.908 232.5,106.5C 229.9,109.46 226.567,110.794 222.5,110.5C 224.808,109.442 227.142,108.276 229.5,107C 223.78,107.091 218.113,107.925 212.5,109.5C 211.833,109.333 211.167,109.167 210.5,109C 212.119,108.764 213.119,107.931 213.5,106.5C 216.495,106.706 219.162,106.04 221.5,104.5 Z"/>
    <path fill="Yellow" opacity="0" d="M 232.5,106.5 C 232.833,106.5 233.167,106.5 233.5,106.5C 233.5,142.5 233.5,178.5 233.5,214.5C 217.167,214.5 200.833,214.5 184.5,214.5C 185.278,213.844 185.944,213.011 186.5,212C 186.164,210.97 185.497,210.47 184.5,210.5C 184.423,209.25 183.756,208.417 182.5,208C 182.471,205.74 182.804,203.407 183.5,201C 180.243,189.472 176.91,177.972 173.5,166.5C 176.777,161.602 179.777,156.602 182.5,151.5C 189.804,142.941 193.804,132.941 194.5,121.5C 195.833,121.5 197.167,121.5 198.5,121.5C 198.5,119.833 198.5,118.167 198.5,116.5C 200.792,116.756 202.959,116.423 205,115.5C 205.333,116.833 205.667,118.167 206,119.5C 206.168,116.823 207.001,114.49 208.5,112.5C 213.076,112.562 217.409,111.895 221.5,110.5C 221.833,110.5 222.167,110.5 222.5,110.5C 226.567,110.794 229.9,109.46 232.5,106.5 Z"/>
    <path fill="#9e9e9e" d="M 221.5,110.5 C 217.409,111.895 213.076,112.562 208.5,112.5C 205.507,113.135 202.507,113.301 199.5,113C 201.78,112.767 203.78,111.934 205.5,110.5C 210.781,111.182 216.114,111.182 221.5,110.5 Z"/>
    <path fill="#9c9c9c" d="M 39.5,81.5 C 39.5,82.8333 39.5,84.1667 39.5,85.5C 38.0549,90.0089 36.7216,94.6756 35.5,99.5C 35.8971,100.986 36.2305,102.486 36.5,104C 35.2036,109.829 34.2036,115.662 33.5,121.5C 29.0661,122.019 24.8994,123.353 21,125.5C 19.1722,124.248 17.3388,124.248 15.5,125.5C 12.9339,125.344 10.4339,125.678 8,126.5C 7.5,126.167 7,125.833 6.5,125.5C 7.94916,124.828 9.2825,124.161 10.5,123.5C 12.8568,123.663 15.1902,123.497 17.5,123C 20.9629,121.887 24.4629,120.72 28,119.5C 29.1618,120.187 30.3284,120.353 31.5,120C 31.1667,119.667 30.8333,119.333 30.5,119C 32.0614,113.598 33.3948,108.098 34.5,102.5C 33.9031,94.9581 35.5698,87.9581 39.5,81.5 Z"/>
    <path fill="#a7a7a7" d="M 101.5,88.5 C 97.9463,96.356 94.9463,104.523 92.5,113C 92.8333,113.5 93.1667,114 93.5,114.5C 95.5,113.5 97.5,112.5 99.5,111.5C 100.506,111.938 100.506,112.604 99.5,113.5C 100.167,113.833 100.833,114.167 101.5,114.5C 107.626,112.142 113.959,110.808 120.5,110.5C 120.938,110.435 121.272,110.601 121.5,111C 120.263,111.232 119.263,111.732 118.5,112.5C 116.173,112.247 114.173,112.914 112.5,114.5C 111.554,114.013 110.554,113.68 109.5,113.5C 103.276,115.155 96.9429,116.155 90.5,116.5C 92.8823,106.972 95.8823,97.6382 99.5,88.5C 100.222,88.0825 100.722,87.4158 101,86.5C 101.464,87.0944 101.631,87.7611 101.5,88.5 Z"/>
    <path fill="#a2a2a2" d="M 176.5,116.5 C 176.662,118.527 176.495,120.527 176,122.5C 175.517,121.552 175.351,120.552 175.5,119.5C 174.486,118.235 172.986,117.569 171,117.5C 166.481,118.104 161.981,118.771 157.5,119.5C 158.842,118.207 160.509,117.374 162.5,117C 166.421,116.797 170.255,116.297 174,115.5C 174.671,116.252 175.504,116.586 176.5,116.5 Z"/>
    <path fill="Yellow" opacity="0" d="M 175.5,119.5 C 174.504,119.414 173.671,119.748 173,120.5C 172.502,123.817 172.335,127.15 172.5,130.5C 172.116,136.441 169.949,141.774 166,146.5C 163.872,142.11 162.539,137.443 162,132.5C 160.17,129.018 158.336,125.518 156.5,122C 157.252,121.329 157.586,120.496 157.5,119.5C 161.981,118.771 166.481,118.104 171,117.5C 172.986,117.569 174.486,118.235 175.5,119.5 Z"/>
    <path fill="#969696" d="M 186.5,135.5 C 185.566,134.432 185.232,133.099 185.5,131.5C 187.224,126.2 188.557,120.866 189.5,115.5C 190.552,115.649 191.552,115.483 192.5,115C 193.901,112.289 195.901,111.956 198.5,114C 196.541,114.931 194.541,115.764 192.5,116.5C 190.094,122.718 188.094,129.051 186.5,135.5 Z"/>
    <path fill="#dadada" d="M 39.5,85.5 C 39.9931,87.4904 41.1598,87.4904 43,85.5C 44.1605,89.2239 44.6605,93.8906 44.5,99.5C 45.3252,103.726 44.6585,107.892 42.5,112C 42.6667,112.833 42.8333,113.667 43,114.5C 45.1082,112.618 46.4415,110.285 47,107.5C 47.1587,109.343 47.6587,110.009 48.5,109.5C 49.1347,112.931 50.1347,116.264 51.5,119.5C 50.9462,122.562 50.4462,125.562 50,128.5C 51.5259,123.373 52.5259,123.373 53,128.5C 53.7175,127.549 54.5509,127.383 55.5,128C 51.4097,134.367 51.9097,134.867 57,129.5C 57.7202,131.056 58.8868,132.056 60.5,132.5C 60.5,133.5 60.5,134.5 60.5,135.5C 57.3979,135.154 54.5645,135.821 52,137.5C 51.6667,136.5 51.3333,135.5 51,134.5C 50.5983,135.872 50.0983,137.205 49.5,138.5C 49.8457,139.696 50.3457,139.696 51,138.5C 51.49,139.793 51.6567,141.127 51.5,142.5C 51.8956,145.482 51.2289,148.149 49.5,150.5C 50.2531,152.753 51.5864,154.587 53.5,156C 52.3157,157.145 52.3157,158.312 53.5,159.5C 53.6882,161.103 53.1882,162.437 52,163.5C 51.1841,162.177 50.0174,161.511 48.5,161.5C 46.8067,158.816 45.14,156.149 43.5,153.5C 43.4828,151.435 43.1495,149.435 42.5,147.5C 42.4142,146.504 42.7476,145.671 43.5,145C 41.9512,143.786 40.7845,142.286 40,140.5C 39.6924,141.308 39.1924,141.975 38.5,142.5C 37.2888,141.726 37.2888,140.893 38.5,140C 35.8806,140.083 33.214,140.25 30.5,140.5C 30.3932,138.621 30.8932,138.288 32,139.5C 33.7337,138.751 35.567,138.251 37.5,138C 40.1327,137.577 42.2994,136.41 44,134.5C 44.6667,129.167 44.6667,123.833 44,118.5C 42.7869,120.13 41.9536,121.964 41.5,124C 42.562,127.789 42.7287,131.623 42,135.5C 40.7637,133.693 40.4303,131.693 41,129.5C 40.3964,131.686 39.2297,131.852 37.5,130C 38.6721,129.581 39.6721,128.915 40.5,128C 40.0563,126.467 39.723,124.967 39.5,123.5C 37.5917,127.651 35.425,131.651 33,135.5C 32.7898,132.731 33.6231,130.231 35.5,128C 35.1667,127.833 34.8333,127.667 34.5,127.5C 32.6395,129.888 31.3061,132.554 30.5,135.5C 29.9984,136.521 29.3317,136.688 28.5,136C 30.4069,131.441 32.4069,126.941 34.5,122.5C 34.3764,121.893 34.0431,121.56 33.5,121.5C 34.2036,115.662 35.2036,109.829 36.5,104C 36.2305,102.486 35.8971,100.986 35.5,99.5C 36.7216,94.6756 38.0549,90.0089 39.5,85.5 Z"/>
    <path fill="Yellow" opacity="0" d="M 122.5,128.5 C 125.449,129.013 128.282,129.013 131,128.5C 133.123,131.731 134.956,135.064 136.5,138.5C 138.725,146.83 141.059,155.163 143.5,163.5C 144.171,164.847 144.171,166.014 143.5,167C 129.741,173.356 115.075,174.856 99.5,171.5C 98.3984,169.908 99.065,169.075 101.5,169C 99.765,168.349 98.0983,168.515 96.5,169.5C 95.1841,166.972 94.0174,166.972 93,169.5C 89.7574,168.128 86.5907,166.628 83.5,165C 80.9595,163.96 79.2929,162.126 78.5,159.5C 77.914,159.709 77.414,160.043 77,160.5C 76.51,159.207 76.3433,157.873 76.5,156.5C 78.1832,149.724 80.8499,143.39 84.5,137.5C 84.1373,136.817 83.8039,136.15 83.5,135.5C 86.7311,133.054 90.3978,131.387 94.5,130.5C 95.1667,130.667 95.8333,130.833 96.5,131C 94.0506,131.725 91.7173,132.725 89.5,134C 91.5213,134.14 93.3547,134.307 95,134.5C 96.676,133.939 98.0094,132.939 99,131.5C 101.218,132.472 103.551,133.139 106,133.5C 111.29,131.125 116.79,129.459 122.5,128.5 Z"/>
    <path fill="#acacac" d="M 157.5,119.5 C 157.586,120.496 157.252,121.329 156.5,122C 158.336,125.518 160.17,129.018 162,132.5C 162.539,137.443 163.872,142.11 166,146.5C 169.949,141.774 172.116,136.441 172.5,130.5C 174.13,128.974 174.963,126.974 175,124.5C 175.311,126.556 175.811,128.556 176.5,130.5C 175.109,130.109 174.109,130.942 173.5,133C 174.056,133.383 174.389,133.883 174.5,134.5C 173.235,138.733 171.568,142.733 169.5,146.5C 167.589,146.574 166.422,147.574 166,149.5C 165.623,148.058 164.79,147.058 163.5,146.5C 161.94,138.54 159.44,130.874 156,123.5C 153.164,121.703 153.664,120.37 157.5,119.5 Z"/>
    <path fill="#ededed" d="M 30.5,140.5 C 29.2502,140.423 28.4169,139.756 28,138.5C 25.0822,142.537 24.0822,142.203 25,137.5C 24,140.167 23,140.167 22,137.5C 21.6924,138.308 21.1924,138.975 20.5,139.5C 19.6433,138.264 18.9766,136.931 18.5,135.5C 14.8409,134.66 11.8409,132.827 9.5,130C 8.28882,129.107 8.28882,128.274 9.5,127.5C 11.6568,126.95 13.6568,126.283 15.5,125.5C 17.3388,124.248 19.1722,124.248 21,125.5C 24.8994,123.353 29.0661,122.019 33.5,121.5C 34.0431,121.56 34.3764,121.893 34.5,122.5C 32.4069,126.941 30.4069,131.441 28.5,136C 29.3317,136.688 29.9984,136.521 30.5,135.5C 31.3061,132.554 32.6395,129.888 34.5,127.5C 34.8333,127.667 35.1667,127.833 35.5,128C 33.6231,130.231 32.7898,132.731 33,135.5C 35.425,131.651 37.5917,127.651 39.5,123.5C 39.723,124.967 40.0563,126.467 40.5,128C 39.6721,128.915 38.6721,129.581 37.5,130C 39.2297,131.852 40.3964,131.686 41,129.5C 40.4303,131.693 40.7637,133.693 42,135.5C 42.7287,131.623 42.562,127.789 41.5,124C 41.9536,121.964 42.7869,120.13 44,118.5C 44.6667,123.833 44.6667,129.167 44,134.5C 42.2994,136.41 40.1327,137.577 37.5,138C 35.567,138.251 33.7337,138.751 32,139.5C 30.8932,138.288 30.3932,138.621 30.5,140.5 Z"/>
    <path fill="#e0e0e0" d="M 178.5,149.5 C 177.976,151.306 177.309,152.972 176.5,154.5C 176.66,152.801 176.494,151.134 176,149.5C 175.667,150.167 175.333,150.833 175,151.5C 175.061,145.419 174.894,139.752 174.5,134.5C 174.389,133.883 174.056,133.383 173.5,133C 174.109,130.942 175.109,130.109 176.5,130.5C 175.811,128.556 175.311,126.556 175,124.5C 174.963,126.974 174.13,128.974 172.5,130.5C 172.335,127.15 172.502,123.817 173,120.5C 173.671,119.748 174.504,119.414 175.5,119.5C 175.351,120.552 175.517,121.552 176,122.5C 176.495,120.527 176.662,118.527 176.5,116.5C 177.117,116.611 177.617,116.944 178,117.5C 178.333,116.167 178.667,114.833 179,113.5C 179.5,115.5 180,117.5 180.5,119.5C 178.752,125.406 177.919,131.406 178,137.5C 178.915,136.672 179.581,135.672 180,134.5C 180.749,129.511 181.415,124.511 182,119.5C 182.465,126.918 181.798,134.251 180,141.5C 179.667,140.5 179.333,139.5 179,138.5C 177.515,142.28 177.348,145.946 178.5,149.5 Z"/>
    <path fill="#b3b3b3" d="M 51.5,142.5 C 51.6567,141.127 51.49,139.793 51,138.5C 50.3457,139.696 49.8457,139.696 49.5,138.5C 50.0983,137.205 50.5983,135.872 51,134.5C 51.3333,135.5 51.6667,136.5 52,137.5C 54.5645,135.821 57.3979,135.154 60.5,135.5C 60.5,134.5 60.5,133.5 60.5,132.5C 61.7899,131.942 62.6232,130.942 63,129.5C 63.6667,132.167 64.3333,132.167 65,129.5C 66.0674,130.191 67.2341,130.691 68.5,131C 66.5,131.667 64.5,132.333 62.5,133C 64.1124,133.72 65.6124,133.554 67,132.5C 67.2324,135.914 66.3991,136.581 64.5,134.5C 60.915,140 57.0816,145.333 53,150.5C 52.6053,148.821 52.772,147.155 53.5,145.5C 53.5466,143.962 52.8799,142.962 51.5,142.5 Z"/>
    <path fill="#b2b2b2" d="M 10.5,123.5 C 9.2825,124.161 7.94916,124.828 6.5,125.5C 7,125.833 7.5,126.167 8,126.5C 10.4339,125.678 12.9339,125.344 15.5,125.5C 13.6568,126.283 11.6568,126.95 9.5,127.5C 8.28882,128.274 8.28882,129.107 9.5,130C 11.8409,132.827 14.8409,134.66 18.5,135.5C 18.9766,136.931 19.6433,138.264 20.5,139.5C 21.1924,138.975 21.6924,138.308 22,137.5C 23,140.167 24,140.167 25,137.5C 24.0822,142.203 25.0822,142.537 28,138.5C 28.4169,139.756 29.2502,140.423 30.5,140.5C 30.6106,142.648 29.944,142.981 28.5,141.5C 26.0188,142.86 26.3522,143.86 29.5,144.5C 32.0947,144.345 34.5947,144.012 37,143.5C 38.7215,143.611 38.8882,144.111 37.5,145C 33.106,145.303 28.7727,145.97 24.5,147C 22.9391,147.318 21.7724,148.151 21,149.5C 20.3086,147.109 19.3086,147.109 18,149.5C 14.6991,149.501 11.1991,149.334 7.5,149C 6.26899,147.817 6.26899,146.651 7.5,145.5C 10.8225,143.585 14.1559,141.585 17.5,139.5C 15.3877,137.047 13.221,134.714 11,132.5C 10.6667,133.167 10.3333,133.833 10,134.5C 7.25667,132.212 4.42333,130.045 1.5,128C 2.32791,127.085 3.32791,126.419 4.5,126C 3.37598,125.751 2.37598,125.251 1.5,124.5C 1.66667,124.167 1.83333,123.833 2,123.5C 4.71814,124.013 7.55147,124.013 10.5,123.5 Z"/>
    <path fill="#989898" d="M 137.5,131.5 C 138.07,138.377 139.57,145.043 142,151.5C 145.587,153.394 146.42,156.227 144.5,160C 146.185,163.638 146.851,167.471 146.5,171.5C 146.444,174.517 146.11,174.85 145.5,172.5C 143.719,169.716 142.053,169.883 140.5,173C 139.167,173.667 137.833,173.667 136.5,173C 138.443,171.445 140.61,170.278 143,169.5C 143.772,169.645 144.439,169.978 145,170.5C 145.667,168.5 145.667,166.5 145,164.5C 144.617,163.944 144.117,163.611 143.5,163.5C 141.059,155.163 138.725,146.83 136.5,138.5C 135.982,132.975 133.982,128.142 130.5,124C 132.367,123.289 133.867,123.789 135,125.5C 135.24,127.852 136.073,129.852 137.5,131.5 Z"/>
    <path fill="#dddddd" d="M 19.5,140.5 C 20.2216,140.918 20.7216,141.584 21,142.5C 21.3076,141.692 21.8076,141.025 22.5,140.5C 23.5,141.5 24.5,142.5 25.5,143.5C 24.7261,144.711 23.8928,144.711 23,143.5C 21.3161,145.066 19.3161,146.066 17,146.5C 14.6483,146.265 12.1483,146.099 9.5,146C 11.5155,145.576 13.3488,144.742 15,143.5C 17.5133,144.537 19.0133,143.537 19.5,140.5 Z"/>
    <path fill="#e5e5e5" d="M 68.5,159.5 C 67.1457,163.524 65.4791,167.524 63.5,171.5C 63.1667,171 62.8333,170.5 62.5,170C 64.3854,166.692 65.2187,163.192 65,159.5C 64.4169,161.002 63.5836,162.335 62.5,163.5C 59.4401,171.094 57.4401,176.761 56.5,180.5C 57.5,180.5 58.5,180.5 59.5,180.5C 56.2579,187.566 54.0912,194.899 53,202.5C 53.7697,201.402 54.603,201.402 55.5,202.5C 54.1862,204.737 53.0195,207.071 52,209.5C 52.1953,207.874 52.1953,206.207 52,204.5C 51.3333,203.167 50.6667,203.167 50,204.5C 49.6667,203.833 49.3333,203.167 49,202.5C 46.1261,203.532 44.6261,205.532 44.5,208.5C 41.5178,208.104 38.8511,208.771 36.5,210.5C 35.2888,209.726 35.2888,208.893 36.5,208C 35.3636,206.855 34.3636,205.688 33.5,204.5C 33.427,202.973 34.0937,201.973 35.5,201.5C 37.3,200.395 38.4666,201.061 39,203.5C 40.0386,202.756 40.5386,201.756 40.5,200.5C 43.1604,196.039 45.1604,191.206 46.5,186C 47.0085,184.831 47.8419,183.998 49,183.5C 51.4127,176.094 53.9127,168.761 56.5,161.5C 57.552,161.649 58.552,161.483 59.5,161C 57.6667,159.833 56.1667,158.333 55,156.5C 54.7679,157.737 54.2679,158.737 53.5,159.5C 52.3157,158.312 52.3157,157.145 53.5,156C 51.5864,154.587 50.2531,152.753 49.5,150.5C 51.2289,148.149 51.8956,145.482 51.5,142.5C 52.8799,142.962 53.5466,143.962 53.5,145.5C 52.772,147.155 52.6053,148.821 53,150.5C 57.0816,145.333 60.915,140 64.5,134.5C 66.3991,136.581 67.2324,135.914 67,132.5C 65.6124,133.554 64.1124,133.72 62.5,133C 64.5,132.333 66.5,131.667 68.5,131C 67.2341,130.691 66.0674,130.191 65,129.5C 64.3333,132.167 63.6667,132.167 63,129.5C 62.6232,130.942 61.7899,131.942 60.5,132.5C 58.8868,132.056 57.7202,131.056 57,129.5C 51.9097,134.867 51.4097,134.367 55.5,128C 54.5509,127.383 53.7175,127.549 53,128.5C 52.5259,123.373 51.5259,123.373 50,128.5C 50.4462,125.562 50.9462,122.562 51.5,119.5C 55.4899,119.001 59.4899,118.501 63.5,118C 59.8484,117.501 56.1817,117.335 52.5,117.5C 56.6344,116.515 60.9677,116.182 65.5,116.5C 65.3691,117.376 65.7025,118.043 66.5,118.5C 67.7164,117.998 68.8831,117.665 70,117.5C 70.3152,118.908 69.9819,120.241 69,121.5C 68.6667,120.833 68.3333,120.167 68,119.5C 67.4487,121.353 68.1153,122.687 70,123.5C 70.8755,120.117 71.8755,116.784 73,113.5C 74.1475,112.542 75.1475,112.875 76,114.5C 76.5,112.667 77.6667,111.5 79.5,111C 78.4272,109.687 77.7605,108.187 77.5,106.5C 79.2533,103.995 80.7533,101.329 82,98.5C 82.9147,99.3279 83.5814,100.328 84,101.5C 84.3599,99.3921 85.0266,97.3921 86,95.5C 86.1667,96.1667 86.3333,96.8333 86.5,97.5C 82.627,110.618 78.4603,123.618 74,136.5C 70.1781,143.112 67.8448,150.112 67,157.5C 67.3333,156.833 67.6667,156.167 68,155.5C 68.49,156.793 68.6567,158.127 68.5,159.5 Z"/>
    <path fill="#a8a8a8" d="M 42.5,147.5 C 43.1495,149.435 43.4828,151.435 43.5,153.5C 42.1077,151.727 40.941,149.727 40,147.5C 39.3457,148.696 38.8457,148.696 38.5,147.5C 39,146.5 39.5,145.5 40,144.5C 40.3768,145.942 41.2101,146.942 42.5,147.5 Z"/>
    <path fill="#8e8e8e" d="M 83.5,135.5 C 83.8039,136.15 84.1373,136.817 84.5,137.5C 80.8499,143.39 78.1832,149.724 76.5,156.5C 75.8321,159.245 74.4988,161.745 72.5,164C 75.3553,166.031 78.022,168.197 80.5,170.5C 76.9453,169.269 73.9453,167.269 71.5,164.5C 74.2489,158.342 76.4155,152.009 78,145.5C 80.1287,142.233 81.962,138.899 83.5,135.5 Z"/>
    <path fill="#a7a7a7" d="M 185.5,131.5 C 185.232,133.099 185.566,134.432 186.5,135.5C 185.631,141 184.298,146.333 182.5,151.5C 179.777,156.602 176.777,161.602 173.5,166.5C 176.91,177.972 180.243,189.472 183.5,201C 182.804,203.407 182.471,205.74 182.5,208C 183.756,208.417 184.423,209.25 184.5,210.5C 183.25,210.577 182.417,211.244 182,212.5C 180.504,197.479 177.004,182.813 171.5,168.5C 171.5,167.833 171.167,167.5 170.5,167.5C 171.706,162.757 173.706,158.423 176.5,154.5C 177.309,152.972 177.976,151.306 178.5,149.5C 180.87,143.369 183.203,137.369 185.5,131.5 Z"/>
    <path fill="#d8d8d8" d="M 163.5,146.5 C 164.79,147.058 165.623,148.058 166,149.5C 166.422,147.574 167.589,146.574 169.5,146.5C 168.59,151.503 168.923,156.503 170.5,161.5C 170.154,162.696 169.654,162.696 169,161.5C 168.489,159.122 167.822,156.788 167,154.5C 166.056,155.263 165.556,156.263 165.5,157.5C 166,159.5 166.5,161.5 167,163.5C 168.486,164.698 169.653,166.031 170.5,167.5C 171.167,167.5 171.5,167.833 171.5,168.5C 169.519,170.144 167.519,171.81 165.5,173.5C 166.634,175.462 166.634,177.462 165.5,179.5C 166.812,183.112 167.812,186.779 168.5,190.5C 167.662,190.842 167.328,191.508 167.5,192.5C 167.5,193.167 167.167,193.5 166.5,193.5C 165.442,194.6 164.608,195.934 164,197.5C 163.365,196.034 162.531,194.7 161.5,193.5C 161.624,192.893 161.957,192.56 162.5,192.5C 163.363,193.463 164.03,193.463 164.5,192.5C 163.572,191.232 163.405,189.899 164,188.5C 165.183,189.731 166.349,189.731 167.5,188.5C 165.735,184.373 164.069,180.207 162.5,176C 162.759,174.739 163.426,173.739 164.5,173C 163.874,172.25 163.374,171.416 163,170.5C 162.692,171.308 162.192,171.975 161.5,172.5C 160.719,171.271 160.219,169.938 160,168.5C 159.346,169.696 158.846,169.696 158.5,168.5C 158.931,167.707 159.265,166.873 159.5,166C 157.347,158.533 154.514,151.366 151,144.5C 150.258,150.375 151.758,155.542 155.5,160C 154.495,161.507 153.162,162.673 151.5,163.5C 151.709,164.086 152.043,164.586 152.5,165C 150.925,164.621 149.425,164.788 148,165.5C 148.615,167.756 148.948,170.089 149,172.5C 148.658,170.381 147.825,170.047 146.5,171.5C 146.851,167.471 146.185,163.638 144.5,160C 146.42,156.227 145.587,153.394 142,151.5C 139.57,145.043 138.07,138.377 137.5,131.5C 137.393,129.621 137.893,129.288 139,130.5C 141.021,141.924 145.355,152.257 152,161.5C 152.442,158.695 151.942,156.028 150.5,153.5C 149.634,152.149 148.634,151.316 147.5,151C 147.892,149.989 148.559,149.489 149.5,149.5C 148.833,148.167 148.167,146.833 147.5,145.5C 147.846,144.304 148.346,144.304 149,145.5C 149.781,144.271 150.281,142.938 150.5,141.5C 149.118,137.879 148.285,134.212 148,130.5C 151.389,140.277 155.056,149.944 159,159.5C 159.833,160.5 160.667,161.5 161.5,162.5C 162.752,160.999 163.752,159.332 164.5,157.5C 162.508,156.456 160.842,154.456 159.5,151.5C 160.325,150.614 161.325,150.281 162.5,150.5C 162.232,148.901 162.566,147.568 163.5,146.5 Z"/>
    <path fill="#f3f3f3" d="M 174.5,134.5 C 174.894,139.752 175.061,145.419 175,151.5C 175.333,150.833 175.667,150.167 176,149.5C 176.494,151.134 176.66,152.801 176.5,154.5C 173.706,158.423 171.706,162.757 170.5,167.5C 169.653,166.031 168.486,164.698 167,163.5C 166.5,161.5 166,159.5 165.5,157.5C 165.556,156.263 166.056,155.263 167,154.5C 167.822,156.788 168.489,159.122 169,161.5C 169.654,162.696 170.154,162.696 170.5,161.5C 168.923,156.503 168.59,151.503 169.5,146.5C 171.568,142.733 173.235,138.733 174.5,134.5 Z"/>
    <path fill="#bdbdbd" d="M 68.5,159.5 C 68.1459,161.541 68.1459,163.374 68.5,165C 66.7716,168.962 65.105,172.796 63.5,176.5C 63.762,175.022 63.4287,173.689 62.5,172.5C 60.7134,174.858 59.7134,177.525 59.5,180.5C 58.5,180.5 57.5,180.5 56.5,180.5C 57.4401,176.761 59.4401,171.094 62.5,163.5C 63.5836,162.335 64.4169,161.002 65,159.5C 65.2187,163.192 64.3854,166.692 62.5,170C 62.8333,170.5 63.1667,171 63.5,171.5C 65.4791,167.524 67.1457,163.524 68.5,159.5 Z"/>
    <path fill="#efefef" d="M 83.5,135.5 C 81.962,138.899 80.1287,142.233 78,145.5C 76.4155,152.009 74.2489,158.342 71.5,164.5C 73.9453,167.269 76.9453,169.269 80.5,170.5C 78.022,168.197 75.3553,166.031 72.5,164C 74.4988,161.745 75.8321,159.245 76.5,156.5C 76.3433,157.873 76.51,159.207 77,160.5C 77.414,160.043 77.914,159.709 78.5,159.5C 79.2929,162.126 80.9595,163.96 83.5,165C 86.5907,166.628 89.7574,168.128 93,169.5C 94.0174,166.972 95.1841,166.972 96.5,169.5C 98.0983,168.515 99.765,168.349 101.5,169C 99.065,169.075 98.3984,169.908 99.5,171.5C 98.7611,171.369 98.0944,171.536 97.5,172C 103.384,173.647 109.384,174.647 115.5,175C 114.737,175.944 113.737,176.444 112.5,176.5C 108.63,176.435 104.63,176.102 100.5,175.5C 99.1266,175.343 97.7932,175.51 96.5,176C 99.2373,177.076 101.904,178.243 104.5,179.5C 103.209,180.473 103.209,181.473 104.5,182.5C 108.462,182.942 112.129,184.109 115.5,186C 114.833,186.333 114.167,186.667 113.5,187C 115.698,187.373 117.865,187.873 120,188.5C 123.225,187.742 126.391,187.409 129.5,187.5C 130.931,187.977 132.264,188.643 133.5,189.5C 126.913,191.318 120.247,192.818 113.5,194C 114.094,194.464 114.761,194.631 115.5,194.5C 114.122,195.234 112.622,195.901 111,196.5C 109.301,195.594 107.467,195.261 105.5,195.5C 107.498,194.852 109.498,194.019 111.5,193C 107.519,193.821 103.519,193.655 99.5,192.5C 97.649,190.131 96.3157,187.465 95.5,184.5C 98.1411,185.263 100.808,185.43 103.5,185C 100.414,183.907 97.9141,182.074 96,179.5C 94.2859,180.925 92.9525,180.592 92,178.5C 90.3851,179.656 90.3851,180.989 92,182.5C 93.8402,181.167 94.3402,181.334 93.5,183C 94.0471,185.367 95.0471,187.533 96.5,189.5C 92.914,191.971 90.5807,190.971 89.5,186.5C 88.0695,186.421 86.7362,186.754 85.5,187.5C 83.2695,186.097 80.9361,184.93 78.5,184C 78.201,182.68 78.0343,181.18 78,179.5C 77.2825,180.451 76.4491,180.617 75.5,180C 76.0611,178.324 77.0611,176.991 78.5,176C 76.0888,174.045 73.5888,172.211 71,170.5C 70.9856,172.471 71.3189,174.471 72,176.5C 72.2063,172.869 73.373,172.535 75.5,175.5C 75.0133,176.446 74.6799,177.446 74.5,178.5C 74.2668,179.932 73.6001,180.432 72.5,180C 70.945,178.417 69.7783,176.584 69,174.5C 67.9914,176.025 67.4914,177.692 67.5,179.5C 65.3812,179.532 64.0478,178.532 63.5,176.5C 65.105,172.796 66.7716,168.962 68.5,165C 68.1459,163.374 68.1459,161.541 68.5,159.5C 70.5065,160.679 70.8398,160.179 69.5,158C 71.7671,156.919 71.9338,155.419 70,153.5C 69.3457,154.696 68.8457,154.696 68.5,153.5C 69.0983,152.205 69.5983,150.872 70,149.5C 70.3333,150.5 70.6667,151.5 71,152.5C 72,149.167 73,145.833 74,142.5C 74.6667,141.167 75.3333,141.167 76,142.5C 76.314,138.871 77.4807,135.538 79.5,132.5C 80.2739,131.289 81.1072,131.289 82,132.5C 82.6667,131.833 83.3333,131.167 84,130.5C 83.9813,132.107 83.8146,133.774 83.5,135.5 Z"/>
    <path fill="#a5a5a5" d="M 80.5,170.5 C 82.4412,170.869 84.2745,171.536 86,172.5C 86.3333,171.833 86.6667,171.167 87,170.5C 89.5957,172.549 92.429,174.215 95.5,175.5C 89.6577,176.441 84.6577,174.775 80.5,170.5 Z"/>
    <path fill="#d9d9d9" d="M 143.5,163.5 C 144.117,163.611 144.617,163.944 145,164.5C 145.667,166.5 145.667,168.5 145,170.5C 144.439,169.978 143.772,169.645 143,169.5C 140.61,170.278 138.443,171.445 136.5,173C 137.833,173.667 139.167,173.667 140.5,173C 142.053,169.883 143.719,169.716 145.5,172.5C 142.326,172.952 141.993,173.952 144.5,175.5C 142.525,176.578 140.692,176.245 139,174.5C 138.517,175.448 138.351,176.448 138.5,177.5C 136.345,177.372 134.345,177.872 132.5,179C 133.5,179.333 134.5,179.667 135.5,180C 134.833,180.167 134.167,180.333 133.5,180.5C 125.603,179.397 125.603,179.897 133.5,182C 132.944,182.383 132.611,182.883 132.5,183.5C 132.719,184.675 132.386,185.675 131.5,186.5C 129.596,185.74 127.596,185.74 125.5,186.5C 120.26,184.586 114.926,182.753 109.5,181C 110.448,180.517 111.448,180.351 112.5,180.5C 114.608,181.237 116.775,181.904 119,182.5C 120.964,181.148 123.131,180.314 125.5,180C 124.833,179.667 124.167,179.333 123.5,179C 125.332,178.252 126.999,177.252 128.5,176C 126.177,176.306 123.844,176.972 121.5,178C 120.333,178.5 119.5,179.333 119,180.5C 116.884,180.571 114.717,180.238 112.5,179.5C 108.308,178.784 104.308,177.451 100.5,175.5C 104.63,176.102 108.63,176.435 112.5,176.5C 113.737,176.444 114.737,175.944 115.5,175C 109.384,174.647 103.384,173.647 97.5,172C 98.0944,171.536 98.7611,171.369 99.5,171.5C 115.075,174.856 129.741,173.356 143.5,167C 144.171,166.014 144.171,164.847 143.5,163.5 Z"/>
    <path fill="#ececec" d="M 162.5,192.5 C 161.133,189.868 160.299,190.202 160,193.5C 157.595,189.204 154.429,186.537 150.5,185.5C 151.209,184.596 152.209,184.263 153.5,184.5C 153.649,183.448 153.483,182.448 153,181.5C 150.551,182.523 148.051,183.023 145.5,183C 147.309,180.762 149.642,179.595 152.5,179.5C 152.392,177.217 151.559,175.217 150,173.5C 149.749,175.433 149.249,177.266 148.5,179C 146.043,181.257 143.376,182.257 140.5,182C 141.634,183.016 141.301,183.683 139.5,184C 143.98,184.293 144.313,185.126 140.5,186.5C 137.652,185.28 134.985,184.28 132.5,183.5C 132.611,182.883 132.944,182.383 133.5,182C 125.603,179.897 125.603,179.397 133.5,180.5C 134.167,180.333 134.833,180.167 135.5,180C 134.5,179.667 133.5,179.333 132.5,179C 134.345,177.872 136.345,177.372 138.5,177.5C 138.351,176.448 138.517,175.448 139,174.5C 140.692,176.245 142.525,176.578 144.5,175.5C 141.993,173.952 142.326,172.952 145.5,172.5C 146.11,174.85 146.444,174.517 146.5,171.5C 147.825,170.047 148.658,170.381 149,172.5C 148.948,170.089 148.615,167.756 148,165.5C 149.425,164.788 150.925,164.621 152.5,165C 152.043,164.586 151.709,164.086 151.5,163.5C 153.162,162.673 154.495,161.507 155.5,160C 151.758,155.542 150.258,150.375 151,144.5C 154.514,151.366 157.347,158.533 159.5,166C 159.265,166.873 158.931,167.707 158.5,168.5C 158.846,169.696 159.346,169.696 160,168.5C 160.219,169.938 160.719,171.271 161.5,172.5C 162.192,171.975 162.692,171.308 163,170.5C 163.374,171.416 163.874,172.25 164.5,173C 163.426,173.739 162.759,174.739 162.5,176C 164.069,180.207 165.735,184.373 167.5,188.5C 166.349,189.731 165.183,189.731 164,188.5C 163.405,189.899 163.572,191.232 164.5,192.5C 164.03,193.463 163.363,193.463 162.5,192.5 Z"/>
    <path fill="#8d8d8d" d="M 100.5,175.5 C 104.308,177.451 108.308,178.784 112.5,179.5C 109.624,179.792 106.957,179.792 104.5,179.5C 101.904,178.243 99.2373,177.076 96.5,176C 97.7932,175.51 99.1266,175.343 100.5,175.5 Z"/>
    <path fill="#f6f6f6" d="M 63.5,176.5 C 60.3895,184.581 57.7228,192.914 55.5,201.5C 55.5,201.833 55.5,202.167 55.5,202.5C 54.603,201.402 53.7697,201.402 53,202.5C 54.0912,194.899 56.2579,187.566 59.5,180.5C 59.7134,177.525 60.7134,174.858 62.5,172.5C 63.4287,173.689 63.762,175.022 63.5,176.5 Z"/>
    <path fill="#989898" d="M 40.5,200.5 C 40.5386,201.756 40.0386,202.756 39,203.5C 38.4666,201.061 37.3,200.395 35.5,201.5C 38.696,194.577 41.696,187.577 44.5,180.5C 45.6207,178.259 46.7874,175.925 48,173.5C 48.1667,174 48.3333,174.5 48.5,175C 44.9354,182.567 42.2688,190.067 40.5,197.5C 39.6043,196.494 38.9377,196.494 38.5,197.5C 40.3022,198.275 40.9689,199.275 40.5,200.5 Z"/>
    <path fill="#dbdbdb" d="M 99.5,192.5 C 99.8333,193.167 100.167,193.833 100.5,194.5C 99.1932,195.153 97.8599,195.82 96.5,196.5C 94.1097,193.615 91.6097,193.282 89,195.5C 87.2729,195.354 87.1062,194.687 88.5,193.5C 86.2549,192.792 84.2549,191.792 82.5,190.5C 83.937,189.278 85.437,189.278 87,190.5C 88.7215,190.389 88.8882,189.889 87.5,189C 79.9215,187.124 72.7549,184.291 66,180.5C 64.395,181.101 63.0616,182.101 62,183.5C 61.4987,187.51 60.9987,191.51 60.5,195.5C 59.31,197.869 57.6433,199.869 55.5,201.5C 57.7228,192.914 60.3895,184.581 63.5,176.5C 64.0478,178.532 65.3812,179.532 67.5,179.5C 67.4914,177.692 67.9914,176.025 69,174.5C 69.7783,176.584 70.945,178.417 72.5,180C 73.6001,180.432 74.2668,179.932 74.5,178.5C 74.6799,177.446 75.0133,176.446 75.5,175.5C 73.373,172.535 72.2063,172.869 72,176.5C 71.3189,174.471 70.9856,172.471 71,170.5C 73.5888,172.211 76.0888,174.045 78.5,176C 77.0611,176.991 76.0611,178.324 75.5,180C 76.4491,180.617 77.2825,180.451 78,179.5C 78.0343,181.18 78.201,182.68 78.5,184C 80.9361,184.93 83.2695,186.097 85.5,187.5C 86.7362,186.754 88.0695,186.421 89.5,186.5C 90.5807,190.971 92.914,191.971 96.5,189.5C 95.0471,187.533 94.0471,185.367 93.5,183C 94.3402,181.334 93.8402,181.167 92,182.5C 90.3851,180.989 90.3851,179.656 92,178.5C 92.9525,180.592 94.2859,180.925 96,179.5C 97.9141,182.074 100.414,183.907 103.5,185C 100.808,185.43 98.1411,185.263 95.5,184.5C 96.3157,187.465 97.649,190.131 99.5,192.5 Z"/>
    <path fill="#a4a4a4" d="M 112.5,180.5 C 112.5,180.167 112.5,179.833 112.5,179.5C 114.717,180.238 116.884,180.571 119,180.5C 119.5,179.333 120.333,178.5 121.5,178C 123.844,176.972 126.177,176.306 128.5,176C 126.999,177.252 125.332,178.252 123.5,179C 124.167,179.333 124.833,179.667 125.5,180C 123.131,180.314 120.964,181.148 119,182.5C 116.775,181.904 114.608,181.237 112.5,180.5 Z"/>
    <path fill="#c2c2c2" d="M 150.5,185.5 C 149.417,185.461 148.417,185.127 147.5,184.5C 137.909,191.297 127.242,194.63 115.5,194.5C 114.761,194.631 114.094,194.464 113.5,194C 120.247,192.818 126.913,191.318 133.5,189.5C 132.264,188.643 130.931,187.977 129.5,187.5C 126.391,187.409 123.225,187.742 120,188.5C 117.865,187.873 115.698,187.373 113.5,187C 114.167,186.667 114.833,186.333 115.5,186C 112.129,184.109 108.462,182.942 104.5,182.5C 103.209,181.473 103.209,180.473 104.5,179.5C 106.957,179.792 109.624,179.792 112.5,179.5C 112.5,179.833 112.5,180.167 112.5,180.5C 111.448,180.351 110.448,180.517 109.5,181C 114.926,182.753 120.26,184.586 125.5,186.5C 127.596,185.74 129.596,185.74 131.5,186.5C 132.386,185.675 132.719,184.675 132.5,183.5C 134.985,184.28 137.652,185.28 140.5,186.5C 144.313,185.126 143.98,184.293 139.5,184C 141.301,183.683 141.634,183.016 140.5,182C 143.376,182.257 146.043,181.257 148.5,179C 149.249,177.266 149.749,175.433 150,173.5C 151.559,175.217 152.392,177.217 152.5,179.5C 149.642,179.595 147.309,180.762 145.5,183C 148.051,183.023 150.551,182.523 153,181.5C 153.483,182.448 153.649,183.448 153.5,184.5C 152.209,184.263 151.209,184.596 150.5,185.5 Z"/>
    <path fill="Yellow" opacity="0" d="M 82.5,190.5 C 84.2549,191.792 86.2549,192.792 88.5,193.5C 87.1062,194.687 87.2729,195.354 89,195.5C 91.6097,193.282 94.1097,193.615 96.5,196.5C 97.8599,195.82 99.1932,195.153 100.5,194.5C 101.919,195.451 103.585,195.784 105.5,195.5C 107.467,195.261 109.301,195.594 111,196.5C 112.622,195.901 114.122,195.234 115.5,194.5C 127.242,194.63 137.909,191.297 147.5,184.5C 148.417,185.127 149.417,185.461 150.5,185.5C 154.449,191.954 158.615,198.287 163,204.5C 162.805,202.874 162.805,201.207 163,199.5C 164,201.5 165,203.5 166,205.5C 166.499,201.514 166.666,197.514 166.5,193.5C 167.167,193.5 167.5,193.167 167.5,192.5C 168.936,192.755 170.436,193.088 172,193.5C 174.433,197.367 176.6,201.367 178.5,205.5C 178.421,206.93 178.754,208.264 179.5,209.5C 178.737,210.719 177.737,211.719 176.5,212.5C 177.243,213.182 177.909,213.849 178.5,214.5C 136.833,214.5 95.1667,214.5 53.5,214.5C 54.6382,211.281 55.4715,207.947 56,204.5C 58.5711,202.024 60.0711,199.024 60.5,195.5C 62.059,192.132 62.8923,188.465 63,184.5C 64,183.5 65,182.5 66,181.5C 71.1195,185.155 76.6195,188.155 82.5,190.5 Z"/>
    <path fill="#ababab" d="M 82.5,190.5 C 76.6195,188.155 71.1195,185.155 66,181.5C 65,182.5 64,183.5 63,184.5C 62.8923,188.465 62.059,192.132 60.5,195.5C 60.9987,191.51 61.4987,187.51 62,183.5C 63.0616,182.101 64.395,181.101 66,180.5C 72.7549,184.291 79.9215,187.124 87.5,189C 88.8882,189.889 88.7215,190.389 87,190.5C 85.437,189.278 83.937,189.278 82.5,190.5 Z"/>
    <path fill="#ebebeb" d="M 171.5,168.5 C 177.004,182.813 180.504,197.479 182,212.5C 182.417,211.244 183.25,210.577 184.5,210.5C 185.497,210.47 186.164,210.97 186.5,212C 185.944,213.011 185.278,213.844 184.5,214.5C 182.5,214.5 180.5,214.5 178.5,214.5C 177.909,213.849 177.243,213.182 176.5,212.5C 177.737,211.719 178.737,210.719 179.5,209.5C 178.754,208.264 178.421,206.93 178.5,205.5C 180.132,208.209 180.632,207.875 180,204.5C 177.731,200.962 175.731,197.295 174,193.5C 172.512,191.84 170.679,190.84 168.5,190.5C 167.812,186.779 166.812,183.112 165.5,179.5C 166.634,177.462 166.634,175.462 165.5,173.5C 167.519,171.81 169.519,170.144 171.5,168.5 Z"/>
    <path fill="#c5c5c5" d="M 40.5,200.5 C 40.9689,199.275 40.3022,198.275 38.5,197.5C 38.9377,196.494 39.6043,196.494 40.5,197.5C 42.2688,190.067 44.9354,182.567 48.5,175C 48.3333,174.5 48.1667,174 48,173.5C 46.7874,175.925 45.6207,178.259 44.5,180.5C 45.1187,174.643 47.1187,169.31 50.5,164.5C 49.8075,163.482 49.1408,162.482 48.5,161.5C 50.0174,161.511 51.1841,162.177 52,163.5C 53.1882,162.437 53.6882,161.103 53.5,159.5C 54.2679,158.737 54.7679,157.737 55,156.5C 56.1667,158.333 57.6667,159.833 59.5,161C 58.552,161.483 57.552,161.649 56.5,161.5C 53.9127,168.761 51.4127,176.094 49,183.5C 47.8419,183.998 47.0085,184.831 46.5,186C 45.1604,191.206 43.1604,196.039 40.5,200.5 Z"/>
    <path fill="#9f9f9f" d="M 99.5,192.5 C 103.519,193.655 107.519,193.821 111.5,193C 109.498,194.019 107.498,194.852 105.5,195.5C 103.585,195.784 101.919,195.451 100.5,194.5C 100.167,193.833 99.8333,193.167 99.5,192.5 Z"/>
    <path fill="#959595" d="M 168.5,190.5 C 170.679,190.84 172.512,191.84 174,193.5C 175.731,197.295 177.731,200.962 180,204.5C 180.632,207.875 180.132,208.209 178.5,205.5C 176.6,201.367 174.433,197.367 172,193.5C 170.436,193.088 168.936,192.755 167.5,192.5C 167.328,191.508 167.662,190.842 168.5,190.5 Z"/>
    <path fill="#a4a4a4" d="M 150.5,185.5 C 154.429,186.537 157.595,189.204 160,193.5C 160.299,190.202 161.133,189.868 162.5,192.5C 161.957,192.56 161.624,192.893 161.5,193.5C 162.531,194.7 163.365,196.034 164,197.5C 164.608,195.934 165.442,194.6 166.5,193.5C 166.666,197.514 166.499,201.514 166,205.5C 165,203.5 164,201.5 163,199.5C 162.805,201.207 162.805,202.874 163,204.5C 158.615,198.287 154.449,191.954 150.5,185.5 Z"/>
    <path fill="#9c9c9c" d="M 33.5,204.5 C 34.3636,205.688 35.3636,206.855 36.5,208C 35.2888,208.893 35.2888,209.726 36.5,210.5C 38.8511,208.771 41.5178,208.104 44.5,208.5C 43.5313,209.309 42.6979,210.309 42,211.5C 41.6924,210.692 41.1924,210.025 40.5,209.5C 38.8333,210.833 37.1667,212.167 35.5,213.5C 34.5109,210.562 33.8442,207.562 33.5,204.5 Z"/>
    <path fill="#a2a2a2" d="M 60.5,195.5 C 60.0711,199.024 58.5711,202.024 56,204.5C 55.4715,207.947 54.6382,211.281 53.5,214.5C 53.1667,214.5 52.8333,214.5 52.5,214.5C 52.3146,212.804 51.4813,211.471 50,210.5C 49.5065,208.866 49.3398,207.199 49.5,205.5C 47.3364,205.721 45.6697,206.721 44.5,208.5C 44.6261,205.532 46.1261,203.532 49,202.5C 49.3333,203.167 49.6667,203.833 50,204.5C 50.6667,203.167 51.3333,203.167 52,204.5C 52.1953,206.207 52.1953,207.874 52,209.5C 53.0195,207.071 54.1862,204.737 55.5,202.5C 55.5,202.167 55.5,201.833 55.5,201.5C 57.6433,199.869 59.31,197.869 60.5,195.5 Z"/>
  </svg>
</svg>