<svg viewBox="0 0 962 97" fill-rule="evenodd" clip-rule="evenodd" xmlns="http://www.w3.org/2000/svg">
  <path opacity="0.867" fill="#aeaaaa" d="M 107.5,5.5 C 112.741,4.13999 115.408,6.13999 115.5,11.5C 112.808,24.7937 110.308,38.1271 108,51.5C 107.001,56.8127 106.668,62.146 107,67.5C 112.159,61.1831 116.826,54.5165 121,47.5C 136.785,31.5779 142.618,34.5779 138.5,56.5C 137.888,61.7117 139.888,65.3784 144.5,67.5C 149.819,66.5602 154.819,64.7269 159.5,62C 161.103,49.7947 166.437,39.4614 175.5,31C 184.883,25.6782 190.55,28.1782 192.5,38.5C 192.215,42.9835 190.715,46.9835 188,50.5C 182.59,56.4149 176.757,61.7482 170.5,66.5C 174.501,73.7727 180.168,75.2727 187.5,71C 197.508,65.001 206.341,57.501 214,48.5C 214.405,40.4029 218.072,38.4029 225,42.5C 225.516,48.2182 225.516,53.8849 225,59.5C 230.745,46.5511 240.579,40.7178 254.5,42C 256.325,43.4659 256.825,45.2992 256,47.5C 243.615,50.1878 234.615,57.1878 229,68.5C 227.053,74.8161 224.886,80.9828 222.5,87C 219.937,87.9181 217.77,87.4181 216,85.5C 215.667,76.1667 215.333,66.8333 215,57.5C 206.856,67.9791 196.69,75.8124 184.5,81C 179.833,81.6667 175.167,81.6667 170.5,81C 168.413,80.2078 166.579,79.0412 165,77.5C 163.585,75.0392 162.085,72.7059 160.5,70.5C 137.08,83.2745 126.914,76.2745 130,49.5C 121.922,59.9839 114.589,70.9839 108,82.5C 105.387,85.5192 102.221,86.1859 98.5,84.5C 97.8636,80.3846 97.5302,76.2179 97.5,72C 97.8007,63.7813 98.3007,55.6146 99,47.5C 93.6363,53.0612 87.1363,54.8945 79.5,53C 77.481,52.5503 75.6477,51.717 74,50.5C 73.3333,51.1667 72.6667,51.8333 72,52.5C 69.3333,61.1667 66.6667,69.8333 64,78.5C 60.0133,86.5823 54.6799,87.5823 48,81.5C 44.2182,74.8169 41.2182,67.8169 39,60.5C 27.1377,98.0783 16.471,97.745 7,59.5C 6.17636,56.2152 5.67636,52.8818 5.5,49.5C 4.59973,44.9084 6.43306,42.5751 11,42.5C 12.6581,42.6752 13.9914,43.3418 15,44.5C 16.2512,51.504 17.5846,58.504 19,65.5C 21.0861,76.9561 24.0861,77.2894 28,66.5C 30.7497,58.5856 34.0831,50.919 38,43.5C 40.0639,42.4086 42.2305,42.2419 44.5,43C 46.6146,51.884 49.1146,60.7173 52,69.5C 54.8886,74.9135 57.222,74.5801 59,68.5C 61,61.1667 63,53.8333 65,46.5C 66.3463,42.487 69.013,39.8203 73,38.5C 77.3659,41.0181 81.8659,43.3514 86.5,45.5C 92.3044,43.206 97.1378,39.5393 101,34.5C 103.398,25.661 105.065,16.661 106,7.5C 106.717,6.9558 107.217,6.28913 107.5,5.5 Z M 179.5,38.5 C 183.84,38.8538 184.673,40.8538 182,44.5C 178.702,48.7998 175.035,52.7998 171,56.5C 171.924,49.649 174.758,43.649 179.5,38.5 Z"/>
  <path opacity="0.862" fill="#aeaaaa" d="M 431.5,5.5 C 433.792,5.24358 435.959,5.57692 438,6.5C 438.667,10.1667 438.667,13.8333 438,17.5C 434.782,32.0156 433.449,46.6823 434,61.5C 437.234,69.1854 442.401,70.6854 449.5,66C 452.912,64.5455 456.079,62.7121 459,60.5C 459.577,47.1642 465.41,36.9975 476.5,30C 484.885,27.5139 489.551,30.5139 490.5,39C 490.176,43.308 488.676,47.1414 486,50.5C 480.624,55.5443 474.958,60.211 469,64.5C 469.654,69.4753 472.654,72.142 478,72.5C 491.385,68.8082 502.718,61.8082 512,51.5C 519.434,37.5226 530.601,32.5226 545.5,36.5C 546.851,38.4545 547.518,40.6212 547.5,43C 546.883,47.75 545.883,52.4166 544.5,57C 545.024,61.5663 547.358,64.7329 551.5,66.5C 563.516,62.9824 572.35,55.6491 578,44.5C 580.139,41.0607 582.639,37.894 585.5,35C 595.08,31.6685 597.58,34.5018 593,43.5C 590.5,46 588,48.5 585.5,51C 590.279,55.7792 595.113,60.6126 600,65.5C 603.011,79.5395 597.344,88.2062 583,91.5C 581.56,90.8524 580.06,90.5191 578.5,90.5C 578.336,87.8127 578.503,85.146 579,82.5C 582.055,81.0859 585.222,79.9193 588.5,79C 590.562,77.4675 591.896,75.4675 592.5,73C 588.333,67.5 583.5,62.6667 578,58.5C 572.184,65.8173 565.018,71.3173 556.5,75C 548.481,77.3313 542.148,75.1647 537.5,68.5C 533.648,72.1863 529.648,75.6863 525.5,79C 512.062,86.7003 505.229,82.867 505,67.5C 494.308,78.6205 481.475,82.4538 466.5,79C 463.09,76.7015 460.757,73.5349 459.5,69.5C 451.424,75.4691 442.424,77.6358 432.5,76C 426.896,70.794 424.396,64.294 425,56.5C 418.417,65.085 410.584,72.2517 401.5,78C 397.259,79.4573 392.926,79.7907 388.5,79C 386.032,76.7717 384.865,73.9383 385,70.5C 380.068,75.4347 374.568,79.6014 368.5,83C 360.008,85.66 353.841,83.16 350,75.5C 346.488,63.6837 346.822,52.017 351,40.5C 353.565,38.8207 356.398,38.154 359.5,38.5C 358.477,47.4846 357.977,56.4846 358,65.5C 358.592,73.8746 362.425,76.0412 369.5,72C 381.048,64.7855 390.215,55.2855 397,43.5C 401.278,36.5483 407.278,31.8816 415,29.5C 422.01,30.308 424.844,33.9747 423.5,40.5C 419.757,43.4822 416.757,42.8155 414.5,38.5C 411.567,39.93 409.067,41.93 407,44.5C 401.802,51.5588 397.636,59.2255 394.5,67.5C 395.145,68.646 395.978,69.646 397,70.5C 406.997,65.0101 415.33,57.6768 422,48.5C 424.133,44.7684 425.466,40.7684 426,36.5C 427.439,27.5503 428.439,18.5503 429,9.5C 429.662,8.01608 430.496,6.68275 431.5,5.5 Z M 477.5,38.5 C 480.68,38.1762 481.847,39.5096 481,42.5C 478.694,47.3062 475.194,50.9729 470.5,53.5C 470.167,53.1667 469.833,52.8333 469.5,52.5C 471.153,47.1861 473.82,42.5195 477.5,38.5 Z M 534.5,42.5 C 535.496,42.4142 536.329,42.7476 537,43.5C 537.929,57.1415 532.095,66.6415 519.5,72C 514.917,72.9337 513.417,71.1004 515,66.5C 518.11,55.5745 524.61,47.5745 534.5,42.5 Z"/>
  <path opacity="0.849" fill="#aeaaaa" d="M 358.5,9.5 C 366.672,7.50495 369.506,10.505 367,18.5C 366.167,19.3333 365.333,20.1667 364.5,21C 352.244,22.6964 350.244,18.8631 358.5,9.5 Z"/>
  <path opacity="0.864" fill="#aeaaaa" d="M 818.5,9.5 C 820.857,9.33669 823.19,9.50335 825.5,10C 826.573,11.3129 827.24,12.8129 827.5,14.5C 819.693,32.0075 816.193,50.3408 817,69.5C 818.573,74.6262 821.74,75.7929 826.5,73C 834.667,67.5 841.5,60.6667 847,52.5C 847.333,48.8333 847.667,45.1667 848,41.5C 850.76,39.297 853.76,38.9637 857,40.5C 856.65,52.7551 858.983,64.4217 864,75.5C 870.618,66.0973 875.785,55.9306 879.5,45C 882.429,44.2228 885.263,44.3895 888,45.5C 888.155,51.494 889.988,56.8273 893.5,61.5C 896.685,63.8395 900.019,64.0062 903.5,62C 905.333,61.5 906.5,60.3333 907,58.5C 907.641,46.7113 912.808,37.5446 922.5,31C 927.801,28.8461 932.968,29.0127 938,31.5C 940.729,35.3328 941.062,39.3328 939,43.5C 933.534,52.2309 926.201,58.8976 917,63.5C 917.494,67.834 919.994,70.5006 924.5,71.5C 934.643,69.7625 942.977,64.9291 949.5,57C 952.237,55.9202 953.904,56.7536 954.5,59.5C 950.269,68.8945 943.269,75.3945 933.5,79C 927.92,80.5174 922.253,80.8508 916.5,80C 911.297,77.4467 908.13,73.28 907,67.5C 900.097,70.3025 893.264,70.1358 886.5,67C 885.12,65.0748 883.62,63.2415 882,61.5C 878.171,69.163 873.837,76.4963 869,83.5C 866.705,86.0648 863.872,87.7314 860.5,88.5C 858.399,88.3684 856.899,87.3684 856,85.5C 855.083,77.0817 852.749,69.0817 849,61.5C 842.656,71.5148 834.156,79.0148 823.5,84C 813.979,86.6622 808.479,83.1622 807,73.5C 806.669,65.4845 806.669,57.4845 807,49.5C 800.91,50.9051 794.743,52.0718 788.5,53C 789.638,64.541 785.305,73.2076 775.5,79C 755.976,89.7681 747.476,84.2681 750,62.5C 750.642,60.2381 751.475,58.0715 752.5,56C 748.137,55.7095 743.804,55.2095 739.5,54.5C 738.833,54.8333 738.167,55.1667 737.5,55.5C 733.272,64.9553 728.772,74.2887 724,83.5C 721.529,87.3568 718.195,88.3568 714,86.5C 713.616,82.3466 712.616,78.3466 711,74.5C 708.058,68.2819 705.391,61.9485 703,55.5C 694.843,67.0001 684.343,75.5001 671.5,81C 655.951,84.7646 647.951,78.7646 647.5,63C 647.484,53.2254 650.317,44.392 656,36.5C 660.568,29.9634 666.735,27.4634 674.5,29C 679.317,35.0307 679.817,41.5307 676,48.5C 670.302,54.5325 664.302,60.1991 658,65.5C 657.821,70.4931 660.321,73.1598 665.5,73.5C 671.642,72.0958 677.309,69.5958 682.5,66C 688.969,60.5323 695.136,54.699 701,48.5C 701.333,46.1667 701.667,43.8333 702,41.5C 705.006,37.9275 708.339,37.5941 712,40.5C 712.186,44.5159 712.186,48.5159 712,52.5C 714.074,59.723 716.741,66.723 720,73.5C 724.318,63.5304 728.818,53.6971 733.5,44C 735.833,43.3333 738.167,43.3333 740.5,44C 745.737,48.8025 751.404,49.4691 757.5,46C 761.547,35.9766 768.88,32.3099 779.5,35C 781.874,37.039 783.874,39.3723 785.5,42C 793.24,43.5416 800.907,43.0416 808.5,40.5C 810.521,33.2334 812.354,25.9001 814,18.5C 814.986,15.1943 816.486,12.1943 818.5,9.5 Z M 927.5,37.5 C 930.902,38.5577 931.402,40.5577 929,43.5C 925.942,47.0617 922.442,50.0617 918.5,52.5C 918.167,52 917.833,51.5 917.5,51C 919.173,45.1751 922.506,40.6751 927.5,37.5 Z M 666.5,38.5 C 667.5,38.5 668.5,38.5 669.5,38.5C 669.702,40.9892 669.202,43.3225 668,45.5C 665.333,49.5 662,52.8333 658,55.5C 658.68,48.8072 661.513,43.1405 666.5,38.5 Z M 772.5,43.5 C 778.252,48.0861 780.086,54.0861 778,61.5C 774.935,68.7078 769.602,73.3744 762,75.5C 757.129,73.027 756.129,69.3604 759,64.5C 761.035,55.7258 765.535,48.7258 772.5,43.5 Z"/>
  <path opacity="0.859" fill="#aeaaaa" d="M 276.5,29.5 C 284.638,27.2534 289.638,30.0867 291.5,38C 289.862,44.9337 286.195,50.6003 280.5,55C 276.333,57.8333 272.167,60.6667 268,63.5C 268.494,67.834 270.994,70.5006 275.5,71.5C 285.643,69.7625 293.977,64.9291 300.5,57C 303.237,55.9202 304.904,56.7536 305.5,59.5C 300.771,70.0554 292.771,76.8887 281.5,80C 265.808,83.6651 257.808,77.4985 257.5,61.5C 257.754,46.9597 264.087,36.293 276.5,29.5 Z M 278.5,37.5 C 281.902,38.5577 282.402,40.5577 280,43.5C 276.942,47.0617 273.442,50.0617 269.5,52.5C 269.167,52 268.833,51.5 268.5,51C 270.173,45.1751 273.506,40.6751 278.5,37.5 Z"/>
</svg>