<svg viewBox="0 0 896 91" fill-rule="evenodd" clip-rule="evenodd" xmlns="http://www.w3.org/2000/svg">
  <path opacity="0.92" fill="#767070" d="M 783.5,2.5 C 785.527,2.33788 787.527,2.50454 789.5,3C 790.122,4.56912 790.456,6.23579 790.5,8C 786.956,21.6762 784.123,35.5095 782,49.5C 781.227,59.6903 781.394,69.857 782.5,80C 781.893,85.6083 778.893,87.6083 773.5,86C 772.874,85.2496 772.374,84.4162 772,83.5C 770.724,57.7645 773.39,32.4312 780,7.5C 780.997,5.67694 782.164,4.01027 783.5,2.5 Z"/>
  <path opacity="0.921" fill="#767171" d="M 409.5,2.5 C 411.924,2.19244 414.257,2.52577 416.5,3.5C 417.077,5.10557 417.41,6.77224 417.5,8.5C 411.686,26.5915 407.686,45.0915 405.5,64C 405.762,66.5472 406.262,69.0472 407,71.5C 407.893,72.0814 408.893,72.4148 410,72.5C 412.601,70.847 415.435,70.347 418.5,71C 418.794,76.4298 416.128,80.0965 410.5,82C 407.5,82.6667 404.5,82.6667 401.5,82C 399.741,80.992 398.574,79.492 398,77.5C 397.118,74.2105 396.452,70.8772 396,67.5C 391.346,74.4889 385.179,79.6555 377.5,83C 366.678,85.5188 361.011,81.1854 360.5,70C 362.281,55.7685 368.948,44.4352 380.5,36C 386.984,32.9705 393.484,32.8039 400,35.5C 402.704,26.3297 405.037,16.9963 407,7.5C 407.366,5.54826 408.199,3.88159 409.5,2.5 Z M 390.5,41.5 C 394.046,42.0435 396.379,44.0435 397.5,47.5C 392.926,59.9013 384.759,68.9013 373,74.5C 370.55,71.6218 369.884,68.2885 371,64.5C 374.271,53.8766 380.771,46.2099 390.5,41.5 Z"/>
  <path opacity="0.91" fill="#767171" d="M 98.5,4.5 C 105.244,3.4114 108.244,6.24473 107.5,13C 104.238,29.5367 101.071,46.0367 98,62.5C 103.073,53.5266 109.24,45.3599 116.5,38C 120.218,35.7016 124.218,35.0349 128.5,36C 130.487,37.3189 131.654,39.1523 132,41.5C 133.252,49.1792 134.585,56.8459 136,64.5C 137.413,67.6612 139.08,70.6612 141,73.5C 141.825,75.7008 141.325,77.5341 139.5,79C 131.327,80.5138 126.827,77.0138 126,68.5C 125.327,61.7783 124.327,55.1117 123,48.5C 122.439,47.9781 121.772,47.6448 121,47.5C 117.346,49.8209 114.346,52.8209 112,56.5C 106.559,65.6044 100.726,74.4378 94.5,83C 86.4925,84.6549 83.6591,81.4883 86,73.5C 90.091,52.6209 93.4243,31.6209 96,10.5C 96.5725,8.35943 97.4058,6.35943 98.5,4.5 Z"/>
  <path opacity="0.908" fill="#767171" d="M 351.5,4.5 C 354.187,4.33591 356.854,4.50258 359.5,5C 360.804,5.80399 361.471,6.97065 361.5,8.5C 360.945,12.0537 359.779,15.387 358,18.5C 350.968,22.2558 347.468,20.0891 347.5,12C 347.43,8.63354 348.763,6.13354 351.5,4.5 Z"/>
  <path opacity="0.916" fill="#777272" d="M 552.5,27.5 C 556.514,27.3345 560.514,27.5012 564.5,28C 566.478,30.4973 566.978,33.3307 566,36.5C 559.054,36.6174 552.554,38.4508 546.5,42C 544.787,43.3782 543.453,45.0448 542.5,47C 543.453,48.9552 544.787,50.6218 546.5,52C 552.914,54.6197 558.747,58.1197 564,62.5C 566.61,68.6081 565.776,74.1081 561.5,79C 551.874,84.6567 541.54,86.6567 530.5,85C 527.204,82.1994 526.871,79.1994 529.5,76C 533.045,75.2829 536.545,75.4496 540,76.5C 546.185,75.9193 551.685,73.7527 556.5,70C 548.913,64.9568 541.413,59.7901 534,54.5C 532.646,48.3323 533.646,42.6656 537,37.5C 541.84,33.5068 547.006,30.1735 552.5,27.5 Z"/>
  <path opacity="0.903" fill="#767171" d="M 169.5,29.5 C 182.443,26.9406 187.277,31.9406 184,44.5C 182.262,48.2413 179.762,51.408 176.5,54C 170.268,58.5611 163.768,62.7278 157,66.5C 157.036,71.383 159.536,74.383 164.5,75.5C 173.029,73.9021 180.029,69.7355 185.5,63C 186.793,62.51 188.127,62.3433 189.5,62.5C 189.789,65.6492 189.289,68.6492 188,71.5C 180.086,82.2075 169.586,86.3742 156.5,84C 148.937,80.7185 145.603,74.8852 146.5,66.5C 147.346,49.7859 155.013,37.4526 169.5,29.5 Z M 159.5,54.5 C 161.393,48.102 165.06,42.9353 170.5,39C 172.134,38.5065 173.801,38.3398 175.5,38.5C 172.535,46.1319 167.202,51.4652 159.5,54.5 Z"/>
  <path opacity="0.909" fill="#767171" d="M 268.5,29.5 C 284.122,28.0557 288.288,34.389 281,48.5C 273.811,55.8432 265.644,61.8432 256.5,66.5C 256.027,71.5597 258.527,74.5597 264,75.5C 272.325,73.7554 279.158,69.5887 284.5,63C 286.134,62.5065 287.801,62.3398 289.5,62.5C 290.021,66.7189 288.854,70.3855 286,73.5C 277.846,82.7736 267.68,86.2736 255.5,84C 248.6,80.5459 245.267,74.8793 245.5,67C 246.707,50.3982 254.374,37.8982 268.5,29.5 Z M 272.5,37.5 C 274.942,39.1393 275.109,41.1393 273,43.5C 268.835,49.0413 263.668,52.8746 257.5,55C 260.582,47.4255 265.582,41.5921 272.5,37.5 Z"/>
  <path opacity="0.915" fill="#767171" d="M 448.5,29.5 C 460.786,26.6996 465.619,31.3662 463,43.5C 461.561,46.6026 459.727,49.4359 457.5,52C 450.765,57.4525 443.598,62.2858 436,66.5C 435.3,71.9796 437.8,74.9796 443.5,75.5C 451.57,73.629 458.237,69.4623 463.5,63C 465.134,62.5065 466.801,62.3398 468.5,62.5C 468.789,65.6492 468.289,68.6492 467,71.5C 459.086,82.2075 448.586,86.3742 435.5,84C 428.089,80.8589 424.756,75.1922 425.5,67C 426.224,50.0195 433.891,37.5195 448.5,29.5 Z M 449.5,38.5 C 455.202,38.3797 456.035,40.3797 452,44.5C 447.62,48.548 442.954,52.2147 438,55.5C 439.821,48.5399 443.654,42.8732 449.5,38.5 Z"/>
  <path opacity="0.909" fill="#767171" d="M 633.5,29.5 C 649.122,28.0557 653.288,34.389 646,48.5C 638.811,55.8432 630.644,61.8432 621.5,66.5C 621.027,71.5597 623.527,74.5597 629,75.5C 637.325,73.7554 644.158,69.5887 649.5,63C 651.134,62.5065 652.801,62.3398 654.5,62.5C 655.021,66.7189 653.854,70.3855 651,73.5C 642.846,82.7736 632.68,86.2736 620.5,84C 613.6,80.5459 610.267,74.8793 610.5,67C 611.707,50.3982 619.374,37.8982 633.5,29.5 Z M 637.5,37.5 C 639.942,39.1393 640.109,41.1393 638,43.5C 633.835,49.0413 628.668,52.8746 622.5,55C 625.582,47.4255 630.582,41.5921 637.5,37.5 Z"/>
  <path opacity="0.915" fill="#767171" d="M 870.5,29.5 C 882.786,26.6996 887.619,31.3662 885,43.5C 883.561,46.6026 881.727,49.4359 879.5,52C 872.765,57.4525 865.598,62.2858 858,66.5C 857.3,71.9796 859.8,74.9796 865.5,75.5C 873.57,73.629 880.237,69.4623 885.5,63C 887.134,62.5065 888.801,62.3398 890.5,62.5C 890.789,65.6492 890.289,68.6492 889,71.5C 881.086,82.2075 870.586,86.3742 857.5,84C 850.089,80.8589 846.756,75.1922 847.5,67C 848.224,50.0195 855.891,37.5195 870.5,29.5 Z M 871.5,38.5 C 877.202,38.3797 878.035,40.3797 874,44.5C 869.62,48.548 864.954,52.2147 860,55.5C 861.821,48.5399 865.654,42.8732 871.5,38.5 Z"/>
  <path opacity="0.923" fill="#767171" d="M 75.5,30.5 C 77.924,30.1924 80.2573,30.5258 82.5,31.5C 82.9867,32.4461 83.3201,33.4461 83.5,34.5C 80.6848,40.1304 77.8515,45.7971 75,51.5C 71.7502,61.5866 67.9168,71.4199 63.5,81C 58.5626,82.3694 54.396,81.2027 51,77.5C 46.886,69.8243 43.5526,61.8243 41,53.5C 36.5236,63.1197 31.5236,72.4531 26,81.5C 22.9159,85.8467 19.2492,86.5134 15,83.5C 7.40089,68.7693 3.73422,53.1026 4,36.5C 6.51798,31.2477 10.1846,30.2477 15,33.5C 13.7467,42.9581 14.4133,52.2914 17,61.5C 17.7589,64.7846 19.0922,67.7846 21,70.5C 27.586,59.6633 33.9194,48.6633 40,37.5C 42.1277,34.5422 44.7944,33.8756 48,35.5C 47.9087,47.5578 51.242,58.5578 58,68.5C 61.8533,59.2794 65.52,49.9461 69,40.5C 70.9282,36.9677 73.0948,33.6344 75.5,30.5 Z"/>
  <path opacity="0.905" fill="#767171" d="M 502.5,30.5 C 505.85,30.335 509.183,30.5017 512.5,31C 514.551,34.0531 517.385,35.8865 521,36.5C 519.132,48.0648 518.465,59.7314 519,71.5C 520.64,74.6353 522.473,77.6353 524.5,80.5C 522.766,85.1822 519.433,86.6822 514.5,85C 513.692,84.6924 513.025,84.1924 512.5,83.5C 510.083,79.176 508.583,74.5093 508,69.5C 503.308,75.531 497.475,80.031 490.5,83C 478.584,85.4179 473.417,80.5846 475,68.5C 478.588,51.6049 487.755,38.9382 502.5,30.5 Z M 503.5,39.5 C 508.051,38.5537 510.384,40.387 510.5,45C 507.362,55.8233 501.362,64.8233 492.5,72C 490.323,73.2022 487.989,73.7022 485.5,73.5C 486.185,59.4678 492.185,48.1344 503.5,39.5 Z"/>
  <path opacity="0.907" fill="#767171" d="M 840.5,30.5 C 846.499,30.002 848.666,32.6687 847,38.5C 834.207,51.4138 823.874,66.0804 816,82.5C 813.624,86.5521 810.457,87.3854 806.5,85C 800.848,70.2105 796.515,55.0439 793.5,39.5C 792.644,34.8562 794.477,32.1895 799,31.5C 801.034,31.4322 802.534,32.2655 803.5,34C 804.062,46.6882 806.895,58.8548 812,70.5C 818.082,59.9997 824.416,49.6663 831,39.5C 833.406,35.5915 836.572,32.5915 840.5,30.5 Z"/>
  <path opacity="0.915" fill="#767171" d="M 204.5,31.5 C 207.119,31.2317 209.619,31.565 212,32.5C 211.343,40.4839 210.676,48.4839 210,56.5C 214.376,46.2311 221.209,38.0644 230.5,32C 238.812,29.189 244.145,31.8556 246.5,40C 246.212,43.1035 244.545,44.6035 241.5,44.5C 239.312,44.6927 237.645,43.8594 236.5,42C 234.833,41.3333 233.167,41.3333 231.5,42C 219.197,53.1046 212.03,66.9379 210,83.5C 206.958,86.082 203.958,86.082 201,83.5C 199.067,67.4865 199.4,51.4865 202,35.5C 202.662,34.0161 203.496,32.6828 204.5,31.5 Z"/>
  <path opacity="0.915" fill="#767171" d="M 706.5,30.5 C 712.157,30.3244 714.324,32.991 713,38.5C 707.656,42.8452 702.989,47.8452 699,53.5C 692.292,64.4177 685.458,75.251 678.5,86C 674.834,87.271 672.334,86.1044 671,82.5C 667.672,71.849 664.339,61.1823 661,50.5C 659.173,44.4493 659.173,38.4493 661,32.5C 663.916,30.9865 666.582,31.3199 669,33.5C 669.759,46.0998 672.759,58.0998 678,69.5C 683.749,59.6656 689.749,49.9989 696,40.5C 698.762,36.2339 702.262,32.9006 706.5,30.5 Z"/>
  <path opacity="0.911" fill="#767171" d="M 735.5,31.5 C 747.307,28.981 755.14,33.3144 759,44.5C 761.23,63.2059 753.73,76.3726 736.5,84C 718.577,86.4078 711.077,78.5745 714,60.5C 716.535,47.1662 723.702,37.4995 735.5,31.5 Z M 740.5,39.5 C 746.761,41.133 750.095,45.2997 750.5,52C 748.718,64.4449 741.884,72.6116 730,76.5C 723.486,72.0205 721.819,66.0205 725,58.5C 727.23,49.4656 732.397,43.1323 740.5,39.5 Z"/>
  <path opacity="0.918" fill="#757070" d="M 343.5,33.5 C 345.857,33.3367 348.19,33.5034 350.5,34C 351.894,34.956 352.561,36.2894 352.5,38C 350.46,45.7868 348.626,53.6202 347,61.5C 346.586,68.857 346.586,76.1903 347,83.5C 344.24,85.703 341.24,86.0363 338,84.5C 336.921,81.2879 336.421,77.9546 336.5,74.5C 337.448,60.4768 339.781,46.8101 343.5,33.5 Z"/>
</svg>