<svg viewBox="0 0 1192 107" fill-rule="evenodd" clip-rule="evenodd" xmlns="http://www.w3.org/2000/svg">
  <path opacity="0.849" fill="#757070" d="M 657.5,6.5 C 660.247,6.18665 662.914,6.51998 665.5,7.5C 666.427,12.1143 664.76,15.6143 660.5,18C 657.167,18.6667 653.833,18.6667 650.5,18C 649.328,16.1316 649.495,14.2983 651,12.5C 653.063,10.2659 655.229,8.26589 657.5,6.5 Z"/>
  <path opacity="0.959" fill="#767171" d="M 156.5,12.5 C 176.503,12.3334 196.503,12.5 216.5,13C 230.668,16.5024 234.834,25.0024 229,38.5C 227.859,40.6089 226.359,42.4422 224.5,44C 218.471,47.6782 212.471,51.3449 206.5,55C 208.697,59.8944 211.03,64.7277 213.5,69.5C 218.456,70.4941 223.456,70.8275 228.5,70.5C 226.343,57.9609 231.343,50.1275 243.5,47C 264.167,46.6667 284.833,46.3333 305.5,46C 307.304,40.9203 309.304,35.9203 311.5,31C 317.491,30.5005 323.491,30.3338 329.5,30.5C 325.777,43.6692 321.444,56.6692 316.5,69.5C 321.491,70.0059 326.491,69.5059 331.5,68C 335.064,66.6038 337.398,64.1038 338.5,60.5C 336.215,57.1481 335.049,53.4814 335,49.5C 340.474,45.755 345.807,41.755 351,37.5C 354.412,30.5697 352.245,26.7363 344.5,26C 325.503,25.5001 306.503,25.3334 287.5,25.5C 288.941,21.2855 290.941,17.2855 293.5,13.5C 315.826,12.3336 338.159,12.1669 360.5,13C 371.528,15.0384 375.695,21.5384 373,32.5C 371.92,34.9962 370.586,37.3295 369,39.5C 364.148,43.0257 359.314,46.5257 354.5,50C 359.807,63.7171 355.474,72.7171 341.5,77C 338.529,77.7943 335.529,78.461 332.5,79C 319.838,79.4999 307.171,79.6666 294.5,79.5C 296.864,71.5736 299.531,63.7402 302.5,56C 292.5,55.3333 282.5,55.3333 272.5,56C 276.593,66.3822 273.593,74.0488 263.5,79C 256.247,80.557 248.914,80.8903 241.5,80C 237.839,79.171 234.505,77.671 231.5,75.5C 229.972,76.8613 228.305,78.028 226.5,79C 217.167,79.6667 207.833,79.6667 198.5,79C 193.557,70.6905 188.89,62.1905 184.5,53.5C 181.6,62.0339 178.6,70.5339 175.5,79C 169.509,79.4995 163.509,79.6662 157.5,79.5C 161.794,63.1184 166.794,46.9517 172.5,31C 178.859,30.1694 185.193,30.3361 191.5,31.5C 188.926,37.7097 187.093,44.0431 186,50.5C 192.438,48.2436 198.604,45.4103 204.5,42C 212.076,34.3018 210.742,28.9684 200.5,26C 183.49,25.8329 166.49,25.3329 149.5,24.5C 151.888,20.4656 154.222,16.4656 156.5,12.5 Z M 250.5,55.5 C 253.247,55.1866 255.914,55.52 258.5,56.5C 256.53,62.1053 254.197,67.4386 251.5,72.5C 248.853,72.0713 246.853,70.7379 245.5,68.5C 246.979,64.0596 248.645,59.7263 250.5,55.5 Z"/>
  <path opacity="0.959" fill="#767171" d="M 880.5,12.5 C 891.27,12.0471 901.937,12.5471 912.5,14C 917.685,18.9472 918.851,24.7806 916,31.5C 914.457,33.3783 912.624,34.8783 910.5,36C 898.247,39.0596 891.58,34.3929 890.5,22C 886.688,21.5044 884.355,23.1711 883.5,27C 885.86,34.8846 888.36,42.7179 891,50.5C 893.569,60.3376 891.069,68.5042 883.5,75C 873.796,80.8078 863.296,83.3078 852,82.5C 839.574,83.3944 828.241,80.3944 818,73.5C 810.262,59.486 814.095,50.6527 829.5,47C 839.828,46.5002 850.161,46.3335 860.5,46.5C 860.924,49.354 861.924,52.0207 863.5,54.5C 856.143,55.197 848.81,56.0304 841.5,57C 836.254,58.2371 834.42,61.4038 836,66.5C 847.349,76.072 858.349,75.7386 869,65.5C 870.504,61.9613 870.837,58.2946 870,54.5C 867.993,48.4902 865.993,42.4902 864,36.5C 861.905,28.7375 863.739,22.2375 869.5,17C 873.157,15.1776 876.824,13.6776 880.5,12.5 Z"/>
  <path opacity="0.96" fill="#767171" d="M 88.5,12.5 C 96.8333,12.5 105.167,12.5 113.5,12.5C 109.833,23.8333 106.167,35.1667 102.5,46.5C 114.518,46.1677 126.518,46.501 138.5,47.5C 135.927,55.0545 133.26,62.5545 130.5,70C 136.825,70.4995 143.158,70.6662 149.5,70.5C 149.276,74.5616 147.276,77.395 143.5,79C 133.5,79.6667 123.5,79.6667 113.5,79C 112.106,77.2605 111.439,75.2605 111.5,73C 112.768,67.1979 114.435,61.5312 116.5,56C 110.509,55.5005 104.509,55.3338 98.5,55.5C 96.2391,63.2817 93.5724,70.9484 90.5,78.5C 84.2015,79.4963 77.8682,79.8297 71.5,79.5C 73.7609,71.7183 76.4276,64.0516 79.5,56.5C 75.5411,55.3401 71.5411,55.1735 67.5,56C 57.866,69.3055 45.1993,78.3055 29.5,83C 21.9546,84.1263 14.6212,83.4596 7.5,81C 5.95118,79.786 4.78451,78.286 4,76.5C 2.0516,69.135 3.88494,62.9683 9.5,58C 18.0809,51.5825 27.7476,47.9158 38.5,47C 45.8333,46.6667 53.1667,46.3333 60.5,46C 69.9604,34.8948 79.2937,23.7282 88.5,12.5 Z M 88.5,29.5 C 86.9669,34.9076 85.1336,40.2409 83,45.5C 80.5991,46.6023 78.0991,46.769 75.5,46C 79.6971,40.3133 84.0304,34.8133 88.5,29.5 Z M 50.5,55.5 C 51.552,55.3505 52.552,55.5172 53.5,56C 46.8943,63.8813 38.7276,69.3813 29,72.5C 25.6493,70.8256 24.9826,68.4923 27,65.5C 33.4837,58.7672 41.317,55.4339 50.5,55.5 Z"/>
  <path opacity="0.937" fill="#767171" d="M 125.5,16.5 C 129.514,16.3345 133.514,16.5012 137.5,17C 146.257,22.1157 147.59,28.7824 141.5,37C 136.43,39.4242 131.097,40.0909 125.5,39C 119.092,35.6772 116.925,30.5105 119,23.5C 120.694,20.6424 122.861,18.309 125.5,16.5 Z"/>
  <path opacity="0.939" fill="#757070" d="M 1083.5,16.5 C 1087.18,16.3347 1090.85,16.5014 1094.5,17C 1103.42,22.0857 1104.75,28.7524 1098.5,37C 1091.3,40.7087 1084.47,40.2087 1078,35.5C 1073.49,27.2202 1075.32,20.8869 1083.5,16.5 Z"/>
  <path opacity="0.958" fill="#767171" d="M 1048.5,21.5 C 1054.83,21.5 1061.17,21.5 1067.5,21.5C 1062.91,37.6089 1057.91,53.6089 1052.5,69.5C 1058.13,70.4954 1063.79,70.8288 1069.5,70.5C 1071.22,62.6657 1073.56,54.9991 1076.5,47.5C 1082.83,46.1667 1089.17,46.1667 1095.5,47.5C 1092.96,55.1195 1090.63,62.7861 1088.5,70.5C 1093.5,70.5 1098.5,70.5 1103.5,70.5C 1101.4,60.1978 1105.07,52.6978 1114.5,48C 1138.45,46.5398 1162.45,46.0398 1186.5,46.5C 1186.28,50.5616 1184.28,53.395 1180.5,55C 1169.5,55.3333 1158.5,55.6667 1147.5,56C 1151.01,65.1494 1148.67,72.4827 1140.5,78C 1131.28,80.9193 1121.95,81.2526 1112.5,79C 1109.9,78.1166 1107.73,76.6166 1106,74.5C 1104.46,76.3783 1102.62,77.8783 1100.5,79C 1090.83,79.6667 1081.17,79.6667 1071.5,79C 1070.33,78.5 1069.5,77.6667 1069,76.5C 1068.1,77.7014 1066.93,78.5348 1065.5,79C 1055.5,79.6667 1045.5,79.6667 1035.5,79C 1034.67,78.1667 1033.83,77.3333 1033,76.5C 1027.07,80.2986 1020.57,81.4653 1013.5,80C 1010.92,79.2178 1008.92,77.7178 1007.5,75.5C 1006.31,76.853 1004.98,78.0197 1003.5,79C 993.167,79.6667 982.833,79.6667 972.5,79C 970.941,77.2443 969.274,77.2443 967.5,79C 961.167,79.6667 954.833,79.6667 948.5,79C 946.667,78.5 945.5,77.3333 945,75.5C 943.786,77.0488 942.286,78.2155 940.5,79C 928.5,79.6667 916.5,79.6667 904.5,79C 903.02,77.7009 902.354,76.0342 902.5,74C 904.068,67.7967 905.735,61.6301 907.5,55.5C 905.5,55.5 903.5,55.5 901.5,55.5C 901.737,52.3527 902.57,49.3527 904,46.5C 913.84,44.162 920.34,38.162 923.5,28.5C 927.5,27.1667 931.5,27.1667 935.5,28.5C 933.794,34.4509 931.794,40.2842 929.5,46C 933.152,46.4986 936.818,46.6653 940.5,46.5C 938.901,53.9798 934.234,56.9798 926.5,55.5C 925.167,60.5 923.833,65.5 922.5,70.5C 929.863,70.8306 937.197,70.4973 944.5,69.5C 947.572,61.9484 950.239,54.2817 952.5,46.5C 958.833,46.5 965.167,46.5 971.5,46.5C 969.178,54.4847 966.845,62.4847 964.5,70.5C 966.833,70.5 969.167,70.5 971.5,70.5C 973.761,62.7183 976.428,55.0516 979.5,47.5C 985.798,46.5037 992.132,46.1703 998.5,46.5C 996.239,54.2817 993.572,61.9484 990.5,69.5C 995.456,70.4941 1000.46,70.8275 1005.5,70.5C 1005.12,57.743 1011.12,49.9096 1023.5,47C 1029.49,46.5005 1035.49,46.3338 1041.5,46.5C 1043.99,38.2111 1046.32,29.8778 1048.5,21.5 Z M 1029.5,55.5 C 1032.52,55.3354 1035.52,55.502 1038.5,56C 1036.74,60.4447 1035.07,64.9447 1033.5,69.5C 1029.58,71.4208 1026.91,70.4208 1025.5,66.5C 1026.45,62.6573 1027.78,58.9906 1029.5,55.5 Z M 1124.5,55.5 C 1127.52,55.3354 1130.52,55.502 1133.5,56C 1131.65,61.7213 1129.32,67.2213 1126.5,72.5C 1124.88,71.846 1123.22,71.346 1121.5,71C 1120.94,70.2753 1120.61,69.4419 1120.5,68.5C 1122.13,64.2413 1123.47,59.9079 1124.5,55.5 Z"/>
  <path opacity="0.896" fill="#767171" d="M 524.5,2.5 C 526.5,2.5 528.5,2.5 530.5,2.5C 530.663,4.85684 530.497,7.19018 530,9.5C 522.788,23.2573 516.121,37.2573 510,51.5C 508.723,55.0969 508.39,58.7636 509,62.5C 509.7,64.032 510.866,65.032 512.5,65.5C 519.941,64.0192 526.941,61.3525 533.5,57.5C 538.813,45.027 547.146,35.1937 558.5,28C 572.31,23.8148 576.144,28.3148 570,41.5C 561.561,49.7166 552.228,56.7166 542,62.5C 541.361,66.8736 543.361,69.2069 548,69.5C 563.729,65.3857 577.896,58.219 590.5,48C 594.406,40.7594 599.739,34.7594 606.5,30C 608.81,29.5034 611.143,29.3367 613.5,29.5C 613.662,31.5273 613.495,33.5273 613,35.5C 608.971,38.9064 605.137,42.4064 601.5,46C 604.604,50.7751 608.104,55.2751 612,59.5C 622.136,52.8433 631.636,45.3433 640.5,37C 643.014,35.7475 645.68,35.2475 648.5,35.5C 645.024,45.1295 641.524,54.7962 638,64.5C 637.031,67.3285 637.697,69.6618 640,71.5C 658.13,64.5111 673.63,53.6777 686.5,39C 693.107,33.4449 700.607,29.9449 709,28.5C 715.68,27.4671 718.346,30.1338 717,36.5C 710.608,51.6179 703.941,66.6179 697,81.5C 693.601,87.5675 689.435,93.0675 684.5,98C 676.008,103.542 667.341,103.875 658.5,99C 653.162,95.4909 651.328,90.6576 653,84.5C 653.561,83.9781 654.228,83.6448 655,83.5C 658.231,87.3975 662.064,90.5641 666.5,93C 675.137,95.418 681.637,92.5847 686,84.5C 688.667,79.1667 691.333,73.8333 694,68.5C 694.749,67.365 694.583,66.365 693.5,65.5C 684.975,71.4569 675.642,73.4569 665.5,71.5C 664.719,70.2713 664.219,68.938 664,67.5C 658.253,71.9595 652.086,75.7928 645.5,79C 640.924,80.4764 636.257,80.8098 631.5,80C 629.951,78.786 628.785,77.286 628,75.5C 627.402,69.0384 627.735,62.705 629,56.5C 615.433,67.033 601.6,77.1996 587.5,87C 584.446,87.8214 581.446,87.6548 578.5,86.5C 577.339,84.7763 577.505,83.1096 579,81.5C 585.085,77.8735 591.252,74.3735 597.5,71C 601.983,67.5962 602.483,63.7629 599,59.5C 596.357,58.0237 594.19,56.0237 592.5,53.5C 580.55,63.6433 567.217,71.4766 552.5,77C 547.5,77.6667 542.5,77.6667 537.5,77C 533.447,74.7202 531.114,71.2202 530.5,66.5C 522.011,72.2735 512.678,74.4402 502.5,73C 501.667,72.1667 500.833,71.3333 500,70.5C 499.495,65.1156 499.495,59.7822 500,54.5C 490.592,63.7898 479.758,70.9564 467.5,76C 464.167,76.6667 460.833,76.6667 457.5,76C 455.556,73.8471 455.056,71.3471 456,68.5C 464.728,51.1047 477.562,37.6047 494.5,28C 501.544,24.9391 506.044,27.1058 508,34.5C 513.053,24.6702 517.72,14.6702 522,4.5C 522.995,3.93406 523.828,3.26739 524.5,2.5 Z M 506.5,36.5 C 496.842,50.6456 484.009,60.979 468,67.5C 467.5,67 467,66.5 466.5,66C 474.615,53.8953 484.615,43.7286 496.5,35.5C 499.34,40.4699 502.673,40.8032 506.5,36.5 Z M 560.5,35.5 C 561.552,35.3505 562.552,35.5172 563.5,36C 559.739,42.3038 554.573,47.1371 548,50.5C 550.776,44.5386 554.942,39.5386 560.5,35.5 Z M 677.5,63.5 C 682.542,52.9551 690.209,44.7884 700.5,39C 702.365,37.6986 704.365,37.3653 706.5,38C 704.463,44.7422 701.13,50.7422 696.5,56C 690.821,60.1706 684.487,62.6706 677.5,63.5 Z"/>
  <path opacity="0.895" fill="#767171" d="M 733.5,32.5 C 736.167,32.5 738.833,32.5 741.5,32.5C 741.66,34.1992 741.494,35.8659 741,37.5C 737.061,44.3708 733.728,51.3708 731,58.5C 737.833,53 744.667,47.5 751.5,42C 755.208,39.8682 759.208,39.0349 763.5,39.5C 762.259,45.3261 760.425,50.9927 758,56.5C 755.751,63.2391 758.085,67.2391 765,68.5C 771.058,66.8739 776.892,64.8739 782.5,62.5C 781.578,68.9309 777.911,73.0976 771.5,75C 765.92,76.5174 760.253,76.8508 754.5,76C 749.676,74.0371 747.342,70.3705 747.5,65C 748.476,61.1753 748.976,57.342 749,53.5C 739.869,60.9619 731.036,68.7952 722.5,77C 719.854,77.4974 717.187,77.6641 714.5,77.5C 714.337,75.1432 714.503,72.8098 715,70.5C 721.283,57.7768 727.449,45.1101 733.5,32.5 Z"/>
  <path opacity="0.959" fill="#767171" d="M 378.5,46.5 C 401.167,46.5 423.833,46.5 446.5,46.5C 446.276,50.5616 444.276,53.395 440.5,55C 429.5,55.3333 418.5,55.6667 407.5,56C 411.006,65.1494 408.673,72.4827 400.5,78C 389.682,81.5835 379.015,81.2502 368.5,77C 360.318,67.5056 360.985,58.5056 370.5,50C 373.158,48.522 375.825,47.3554 378.5,46.5 Z M 384.5,55.5 C 387.518,55.3354 390.518,55.502 393.5,56C 391.65,61.7213 389.316,67.2213 386.5,72.5C 384.885,71.846 383.218,71.346 381.5,71C 380.941,70.2753 380.608,69.4419 380.5,68.5C 382.132,64.2413 383.466,59.9079 384.5,55.5 Z"/>
  <path opacity="0.96" fill="#767171" d="M 436.5,63.5 C 448.864,62.3809 452.53,67.5475 447.5,79C 434.182,83.0163 429.682,78.5163 434,65.5C 434.995,64.9341 435.828,64.2674 436.5,63.5 Z"/>
</svg>