<svg viewBox="0 0 1194 108" fill-rule="evenodd" clip-rule="evenodd" xmlns="http://www.w3.org/2000/svg">
  <path opacity="0.920" fill="#aeaaaa" d="M 523.5,2.5 C 525.5,2.5 527.5,2.5 529.5,2.5C 529.663,4.85684 529.497,7.19018 529,9.5C 521.18,24.139 514.18,39.139 508,54.5C 506.734,57.6695 506.734,60.6695 508,63.5C 509.194,64.4303 510.527,65.0969 512,65.5C 519.267,64.1888 526.1,61.6888 532.5,58C 537.607,46.8959 544.94,37.5626 554.5,30C 569.513,22.0625 574.346,25.8958 569,41.5C 560.814,49.5206 551.647,56.1872 541.5,61.5C 539.896,66.5893 541.896,69.2559 547.5,69.5C 559.47,66.8479 570.47,62.0146 580.5,55C 583.99,52.0887 587.656,49.422 591.5,47C 594.648,39.7057 599.648,34.0391 606.5,30C 611.667,28.5 613.5,30.3333 612,35.5C 607.803,38.7007 603.97,42.2007 600.5,46C 603.615,50.9487 607.282,55.4487 611.5,59.5C 621.558,53.6034 630.558,46.4368 638.5,38C 641.206,36.0924 644.206,35.259 647.5,35.5C 643.736,44.7019 640.236,54.0353 637,63.5C 635.832,66.8926 636.666,69.5592 639.5,71.5C 658.041,64.0554 674.041,52.8888 687.5,38C 690.672,36.2481 693.672,34.2481 696.5,32C 701.777,28.8384 707.443,27.8384 713.5,29C 716.087,30.5251 716.92,32.6917 716,35.5C 709.013,54.1282 700.68,72.1282 691,89.5C 686.004,97.1795 679.004,101.513 670,102.5C 660.328,102.164 654.162,97.3305 651.5,88C 651.645,86.7741 651.978,85.6074 652.5,84.5C 653.002,83.479 653.668,83.3123 654.5,84C 666.12,98.4613 676.953,97.9613 687,82.5C 690.559,76.4006 693.226,70.0672 695,63.5C 686.327,70.3914 676.494,73.2247 665.5,72C 664.751,70.2663 664.251,68.433 664,66.5C 657.768,71.0611 651.268,75.2278 644.5,79C 640.259,80.4573 635.926,80.7907 631.5,80C 629.667,79.5 628.5,78.3333 628,76.5C 627.278,69.3592 627.611,62.3592 629,55.5C 615.5,65.6667 602,75.8333 588.5,86C 585.041,87.7055 581.541,87.8722 578,86.5C 577.676,82.4539 579.509,79.6206 583.5,78C 590.395,75.7694 596.229,71.9361 601,66.5C 601.667,65.1667 601.667,63.8333 601,62.5C 597.63,59.465 594.63,56.1317 592,52.5C 581.61,61.6176 570.11,69.1176 557.5,75C 550.232,77.7399 542.898,78.0733 535.5,76C 532.288,73.2689 530.788,69.7689 531,65.5C 522.434,71.6908 512.934,74.1908 502.5,73C 500.052,70.7455 498.719,67.9121 498.5,64.5C 499.446,60.8344 499.946,57.1677 500,53.5C 490.176,62.9893 479.009,70.4893 466.5,76C 456.604,78.4399 453.437,74.9399 457,65.5C 466.167,49.6667 478.667,37.1667 494.5,28C 499.527,25.3803 503.36,26.547 506,31.5C 506.167,36.6667 503.667,39.1667 498.5,39C 497.663,37.9887 497.33,36.8221 497.5,35.5C 492.799,36.3509 488.799,38.5176 485.5,42C 480.3,46.8653 475.467,52.0319 471,57.5C 468.49,60.1992 466.824,63.1992 466,66.5C 466.414,66.9574 466.914,67.2907 467.5,67.5C 481.113,61.7243 492.946,53.391 503,42.5C 510.317,29.3576 517.15,16.0243 523.5,2.5 Z M 561.5,34.5 C 562.709,36.4346 562.542,38.4346 561,40.5C 556.355,44.6553 551.355,48.3219 546,51.5C 548.855,43.8377 554.021,38.171 561.5,34.5 Z M 703.5,36.5 C 704.695,36.8656 705.361,37.699 705.5,39C 701.225,54.4629 691.225,62.6296 675.5,63.5C 682.266,51.732 691.599,42.732 703.5,36.5 Z"/>
  <path opacity="0.892" fill="#aeaaaa" d="M 657.5,6.5 C 659.833,6.5 662.167,6.5 664.5,6.5C 664.477,16.0246 659.811,19.858 650.5,18C 649.251,15.7904 649.418,13.6237 651,11.5C 652.965,9.44965 655.132,7.78299 657.5,6.5 Z"/>
  <path opacity="0.948" fill="#757171" d="M 88.5,12.5 C 96.5277,12.169 104.528,12.5023 112.5,13.5C 108.593,24.3885 104.593,35.2219 100.5,46C 112.495,46.4999 124.495,46.6665 136.5,46.5C 134.672,54.485 132.338,62.3183 129.5,70C 135.825,70.4995 142.158,70.6662 148.5,70.5C 147.947,74.7605 145.613,77.5939 141.5,79C 132.167,79.6667 122.833,79.6667 113.5,79C 111.477,75.8169 110.977,72.3169 112,68.5C 113.308,64.2405 114.808,60.0738 116.5,56C 110.141,55.1694 103.807,55.3361 97.5,56.5C 94.4276,64.0516 91.7609,71.7183 89.5,79.5C 83.5,79.5 77.5,79.5 71.5,79.5C 73.3663,71.5681 76.033,63.9015 79.5,56.5C 75.2047,55.3391 70.8713,55.1725 66.5,56C 59.1074,64.3919 50.7741,71.7253 41.5,78C 30.5776,83.9737 19.2443,84.9737 7.5,81C 1.37847,75.0572 0.878469,68.5572 6,61.5C 14.7668,53.0352 25.2668,48.2018 37.5,47C 45.1667,46.6667 52.8333,46.3333 60.5,46C 69.6681,34.6679 79.0015,23.5012 88.5,12.5 Z M 88.5,28.5 C 86.9053,34.2825 84.9053,39.9492 82.5,45.5C 79.8333,46.8333 77.1667,46.8333 74.5,45.5C 78.9465,39.5788 83.6132,33.9121 88.5,28.5 Z M 49.5,55.5 C 52.9067,55.1253 53.4067,56.1253 51,58.5C 44.647,65.0216 37.147,69.6883 28.5,72.5C 25.0019,71.8139 23.8353,69.8139 25,66.5C 26.5,63.6667 28.6667,61.5 31.5,60C 37.3947,57.5293 43.3947,56.0293 49.5,55.5 Z"/>
  <path opacity="0.958" fill="#757070" d="M 156.5,12.5 C 176.169,12.3334 195.836,12.5 215.5,13C 229.574,16.5289 233.741,25.0289 228,38.5C 221.762,46.039 213.929,51.2056 204.5,54C 207.438,59.2095 210.105,64.5428 212.5,70C 217.823,70.4994 223.156,70.666 228.5,70.5C 226.401,60.1978 230.068,52.6978 239.5,48C 261.458,46.8763 283.458,46.043 305.5,45.5C 307.771,40.6863 309.438,35.6863 310.5,30.5C 316.5,30.5 322.5,30.5 328.5,30.5C 324.177,43.818 319.844,57.1513 315.5,70.5C 321.673,70.2135 327.673,69.0468 333.5,67C 335.741,65.2609 337.408,63.0942 338.5,60.5C 335.833,56.86 334.666,52.86 335,48.5C 340.855,45.5741 346.188,41.9074 351,37.5C 354.412,30.5697 352.245,26.7363 344.5,26C 325.158,25.833 305.825,25.333 286.5,24.5C 288.708,20.5834 291.041,16.75 293.5,13C 315.5,12.3333 337.5,12.3333 359.5,13C 367.886,14.2188 372.22,19.0521 372.5,27.5C 372.224,34.2144 369.224,39.3811 363.5,43C 359.833,45.1667 356.167,47.3333 352.5,49.5C 357.524,58.481 356.19,66.3143 348.5,73C 343.184,75.9941 337.518,77.9941 331.5,79C 319.171,79.4999 306.838,79.6665 294.5,79.5C 296.464,71.4419 299.131,63.6086 302.5,56C 292.167,55.3333 281.833,55.3333 271.5,56C 275.324,68.349 270.991,76.349 258.5,80C 249.832,81.3364 241.498,80.3364 233.5,77C 232.667,76.1667 231.833,75.3333 231,74.5C 229.457,76.3783 227.624,77.8783 225.5,79C 216.5,79.6667 207.5,79.6667 198.5,79C 192.822,70.6475 188.155,61.6475 184.5,52C 184.645,51.228 184.978,50.5613 185.5,50C 192.209,48.1431 198.543,45.4764 204.5,42C 212.14,34.2666 210.806,28.9333 200.5,26C 183.49,25.8329 166.49,25.3329 149.5,24.5C 151.845,20.4725 154.178,16.4725 156.5,12.5 Z M 248.5,55.5 C 251.85,55.335 255.183,55.5017 258.5,56C 256.757,61.9192 254.257,67.4192 251,72.5C 249.189,71.9221 247.355,71.4221 245.5,71C 244.941,70.2753 244.608,69.4419 244.5,68.5C 246.132,64.2413 247.466,59.9079 248.5,55.5 Z"/>
  <path opacity="0.954" fill="#767171" d="M 880.5,12.5 C 889.839,12.3335 899.173,12.5002 908.5,13C 915.974,16.1204 918.474,21.6204 916,29.5C 914.5,32.3333 912.333,34.5 909.5,36C 897.518,38.5143 891.185,33.681 890.5,21.5C 886.248,21.2746 883.581,23.1079 882.5,27C 884.995,35.1534 887.495,43.3201 890,51.5C 892.486,65.0326 887.319,74.1992 874.5,79C 857.728,83.9158 841.061,83.5824 824.5,78C 814.087,72.5316 811.254,64.3649 816,53.5C 819.532,50.1504 823.699,47.9838 828.5,47C 838.5,46.3333 848.5,46.3333 858.5,47C 860.196,49.5875 861.196,52.4208 861.5,55.5C 854.437,55.2122 847.437,55.7122 840.5,57C 832.331,60.3041 831.664,64.6375 838.5,70C 849.19,75.3232 859.023,74.1565 868,66.5C 869.552,64.2318 870.385,61.7318 870.5,59C 868.202,50.4402 865.702,41.9402 863,33.5C 862.135,20.868 867.969,13.868 880.5,12.5 Z"/>
  <path opacity="0.926" fill="#757171" d="M 125.5,16.5 C 138.322,14.4956 144.156,19.8289 143,32.5C 138.983,39.1375 133.15,41.3042 125.5,39C 119.092,35.6772 116.925,30.5105 119,23.5C 120.694,20.6424 122.861,18.309 125.5,16.5 Z"/>
  <path opacity="0.920" fill="#757171" d="M 1083.5,16.5 C 1089.32,15.5884 1094.49,16.9218 1099,20.5C 1103.8,34.7101 1098.64,40.8767 1083.5,39C 1075.28,34.8074 1073.44,28.6407 1078,20.5C 1079.81,19.0229 1081.65,17.6896 1083.5,16.5 Z"/>
  <path opacity="0.956" fill="#757070" d="M 1048.5,21.5 C 1054.5,21.5 1060.5,21.5 1066.5,21.5C 1061.91,37.6089 1056.91,53.6089 1051.5,69.5C 1057.46,70.4959 1063.46,70.8293 1069.5,70.5C 1071.22,62.6657 1073.56,54.9991 1076.5,47.5C 1082.5,46.1667 1088.5,46.1667 1094.5,47.5C 1091.96,55.1195 1089.63,62.7861 1087.5,70.5C 1092.83,70.5 1098.17,70.5 1103.5,70.5C 1101.4,60.1978 1105.07,52.6978 1114.5,48C 1138.11,46.5404 1161.78,46.0404 1185.5,46.5C 1185.28,50.5616 1183.28,53.395 1179.5,55C 1168.5,55.3333 1157.5,55.6667 1146.5,56C 1150.01,65.1494 1147.67,72.4827 1139.5,78C 1130.61,80.9145 1121.61,81.2478 1112.5,79C 1109.83,77.9986 1107.49,76.4986 1105.5,74.5C 1103.64,76.1924 1101.64,77.6924 1099.5,79C 1090.17,79.6667 1080.83,79.6667 1071.5,79C 1070.35,78.3551 1069.35,77.5217 1068.5,76.5C 1067.3,77.5312 1065.97,78.3645 1064.5,79C 1054.83,79.6667 1045.17,79.6667 1035.5,79C 1034.65,77.9783 1033.65,77.1449 1032.5,76.5C 1025.12,81.1427 1017.45,81.6427 1009.5,78C 1008.79,76.7453 1007.96,75.5786 1007,74.5C 1005.83,76.3333 1004.33,77.8333 1002.5,79C 992.5,79.6667 982.5,79.6667 972.5,79C 971.874,78.2496 971.374,77.4162 971,76.5C 969.581,77.4601 968.081,78.2935 966.5,79C 960.5,79.6667 954.5,79.6667 948.5,79C 946.697,78.3632 945.364,77.1965 944.5,75.5C 942.972,76.8613 941.305,78.028 939.5,79C 927.833,79.6667 916.167,79.6667 904.5,79C 902.496,76.1592 901.996,72.9926 903,69.5C 904.401,65.1292 905.901,60.7959 907.5,56.5C 905.604,55.5344 903.604,55.2011 901.5,55.5C 901.618,52.3117 902.451,49.3117 904,46.5C 913.211,43.4559 919.711,37.4559 923.5,28.5C 926.768,27.513 930.102,27.1796 933.5,27.5C 932.546,33.8604 930.88,40.0271 928.5,46C 932.152,46.4986 935.818,46.6653 939.5,46.5C 939.358,49.617 938.024,52.117 935.5,54C 932.23,54.9948 928.897,55.8281 925.5,56.5C 923.554,61.0042 922.22,65.6709 921.5,70.5C 929.196,70.8308 936.862,70.4975 944.5,69.5C 947.572,61.9484 950.239,54.2817 952.5,46.5C 958.5,46.5 964.5,46.5 970.5,46.5C 968.178,54.4847 965.845,62.4847 963.5,70.5C 966.167,70.5 968.833,70.5 971.5,70.5C 973.761,62.7183 976.428,55.0516 979.5,47.5C 985.463,46.5041 991.463,46.1707 997.5,46.5C 995.239,54.2817 992.572,61.9484 989.5,69.5C 994.792,70.4948 1000.13,70.8282 1005.5,70.5C 1005.12,57.743 1011.12,49.9096 1023.5,47C 1029.49,46.5005 1035.49,46.3338 1041.5,46.5C 1043.99,38.2111 1046.32,29.8778 1048.5,21.5 Z M 1028.5,55.5 C 1031.85,55.335 1035.18,55.5017 1038.5,56C 1036.74,60.4447 1035.07,64.9447 1033.5,69.5C 1031.24,70.6474 1028.9,70.8141 1026.5,70C 1025.2,69.196 1024.53,68.0293 1024.5,66.5C 1025.45,62.6573 1026.78,58.9906 1028.5,55.5 Z M 1123.5,55.5 C 1126.85,55.335 1130.18,55.5017 1133.5,56C 1131.76,61.9192 1129.26,67.4192 1126,72.5C 1124.19,71.9221 1122.36,71.4221 1120.5,71C 1119.94,70.2753 1119.61,69.4419 1119.5,68.5C 1121.13,64.2413 1122.47,59.9079 1123.5,55.5 Z"/>
  <path opacity="0.954" fill="#767171" d="M 171.5,30.5 C 177.5,30.5 183.5,30.5 189.5,30.5C 185.383,46.3541 180.549,62.0208 175,77.5C 172.106,78.7797 168.939,79.4464 165.5,79.5C 162.5,79.1667 159.5,78.8333 156.5,78.5C 161.909,62.6089 166.909,46.6089 171.5,30.5 Z"/>
  <path opacity="0.929" fill="#aeaaaa" d="M 733.5,32.5 C 735.833,32.5 738.167,32.5 740.5,32.5C 740.66,34.1992 740.494,35.8659 740,37.5C 735.472,44.8848 731.805,52.5514 729,60.5C 737.262,52.9017 746.095,46.0684 755.5,40C 757.81,39.5034 760.143,39.3367 762.5,39.5C 761.259,45.3261 759.425,50.9927 757,56.5C 754.816,63.4751 757.316,67.4751 764.5,68.5C 770.521,67.2722 776.188,65.2722 781.5,62.5C 781.559,66.548 779.892,69.7146 776.5,72C 769.706,76.1659 762.373,77.4993 754.5,76C 749.676,74.0371 747.342,70.3705 747.5,65C 748.167,61.6667 748.833,58.3333 749.5,55C 749.167,54.5 748.833,54 748.5,53.5C 739.056,60.7737 730.056,68.607 721.5,77C 719.19,77.4966 716.857,77.6633 714.5,77.5C 714.337,75.1432 714.503,72.8098 715,70.5C 721.283,57.7768 727.449,45.1101 733.5,32.5 Z"/>
  <path opacity="0.952" fill="#757070" d="M 378.5,46.5 C 400.833,46.5 423.167,46.5 445.5,46.5C 445.276,50.5616 443.276,53.395 439.5,55C 428.485,55.1676 417.485,55.6676 406.5,56.5C 410.168,68.6596 405.834,76.4929 393.5,80C 387.5,80.6667 381.5,80.6667 375.5,80C 363.272,75.6641 359.772,67.4974 365,55.5C 368.528,50.8341 373.028,47.8341 378.5,46.5 Z M 383.5,55.5 C 386.5,55.5 389.5,55.5 392.5,55.5C 391.395,61.6585 389.229,67.3251 386,72.5C 384.189,71.9221 382.355,71.4221 380.5,71C 379.941,70.2753 379.608,69.4419 379.5,68.5C 380.84,64.1489 382.173,59.8156 383.5,55.5 Z"/>
  <path opacity="0.931" fill="#767171" d="M 436.5,63.5 C 448.189,63.0207 451.522,68.1873 446.5,79C 438.496,82.7358 433.496,80.4024 431.5,72C 432.055,68.3717 433.722,65.5384 436.5,63.5 Z"/>
</svg>