<svg viewBox="0 0 1284 53" fill-rule="evenodd" clip-rule="evenodd" xmlns="http://www.w3.org/2000/svg">
  <path opacity="0.879" fill="#bdbdbd" d="M 108.5,0.5 C 112.5,0.5 116.5,0.5 120.5,0.5C 120.334,9.17307 120.5,17.8397 121,26.5C 123.041,22.9162 125.208,19.4162 127.5,16C 132.202,15.1717 136.869,15.3384 141.5,16.5C 138.198,21.6027 134.531,26.436 130.5,31C 134.211,36.2558 138.045,41.4225 142,46.5C 142.182,43.7737 142.682,41.1071 143.5,38.5C 148.185,41.9552 152.851,42.1218 157.5,39C 151.959,37.315 147.126,34.4817 143,30.5C 140.701,23.2636 142.868,18.0969 149.5,15C 154.5,14.3333 159.5,14.3333 164.5,15C 166.344,17.8037 167.011,20.9703 166.5,24.5C 163.656,23.9421 160.822,23.2755 158,22.5C 156.029,22.4683 154.529,23.3016 153.5,25C 158.328,26.9399 162.828,29.4399 167,32.5C 170.1,44.5832 165.267,50.2498 152.5,49.5C 144.5,49 136.5,48.5 128.5,48C 125.627,44.4228 123.127,40.5894 121,36.5C 120.501,40.4862 120.334,44.4862 120.5,48.5C 116.5,48.5 112.5,48.5 108.5,48.5C 108.5,32.5 108.5,16.5 108.5,0.5 Z"/>
  <path opacity="0.954" fill="#bfbfbf" d="M 172.5,0.5 C 176.167,0.5 179.833,0.5 183.5,0.5C 183.5,16.5 183.5,32.5 183.5,48.5C 179.833,48.5 176.167,48.5 172.5,48.5C 172.5,32.5 172.5,16.5 172.5,0.5 Z"/>
  <path opacity="0.938" fill="#bebebe" d="M 253.5,0.5 C 257.167,0.5 260.833,0.5 264.5,0.5C 264.334,6.17645 264.501,11.8431 265,17.5C 265.903,16.2986 267.069,15.4652 268.5,15C 272.167,14.3333 275.833,14.3333 279.5,15C 282.381,16.2506 284.214,18.4173 285,21.5C 285.5,30.4938 285.666,39.4938 285.5,48.5C 281.833,48.5 278.167,48.5 274.5,48.5C 274.896,40.747 274.396,33.0804 273,25.5C 268.619,22.6873 265.952,24.0206 265,29.5C 264.5,35.8246 264.334,42.1579 264.5,48.5C 260.833,48.5 257.167,48.5 253.5,48.5C 253.5,32.5 253.5,16.5 253.5,0.5 Z"/>
  <path opacity="0.924" fill="#bebebe" d="M 471.5,0.5 C 475.167,0.5 478.833,0.5 482.5,0.5C 482.5,16.5 482.5,32.5 482.5,48.5C 478.327,49.0436 474.494,48.377 471,46.5C 465.018,50.3285 458.851,50.4952 452.5,47C 445.721,36.7773 446.054,26.7773 453.5,17C 459.286,13.9265 465.12,13.7598 471,16.5C 471.499,11.1771 471.666,5.84372 471.5,0.5 Z M 463.5,23.5 C 468.825,23.4914 471.491,26.1581 471.5,31.5C 471.727,36.0599 469.727,39.0599 465.5,40.5C 461.589,39.3724 459.589,36.7058 459.5,32.5C 459.686,28.9232 461.02,25.9232 463.5,23.5 Z"/>
  <path opacity="0.955" fill="#bebebe" d="M 838.5,0.5 C 842.167,0.5 845.833,0.5 849.5,0.5C 849.5,16.5 849.5,32.5 849.5,48.5C 845.833,48.5 842.167,48.5 838.5,48.5C 838.5,32.5 838.5,16.5 838.5,0.5 Z"/>
  <path opacity="0.823" fill="#b9b9b9" d="M 1176.5,0.5 C 1184.58,-1.41497 1188.08,1.58503 1187,9.5C 1183.82,11.5234 1180.32,12.0234 1176.5,11C 1173.88,7.50188 1173.88,4.00188 1176.5,0.5 Z"/>
  <path opacity="0.917" fill="#65ff33" d="M 3.5,2.5 C 11.5069,2.33362 19.5069,2.50029 27.5,3C 35.8775,5.05886 38.7108,10.2255 36,18.5C 35.0267,20.64 33.5267,22.3067 31.5,23.5C 38.5376,28.2257 40.371,34.5591 37,42.5C 35.4571,44.3783 33.6238,45.8783 31.5,47C 22.2479,48.4172 12.9146,48.9172 3.5,48.5C 3.5,33.1667 3.5,17.8333 3.5,2.5 Z M 15.5,11.5 C 17.5273,11.3379 19.5273,11.5045 21.5,12C 25.0374,13.8265 25.3707,16.1598 22.5,19C 20.26,19.977 17.9267,20.477 15.5,20.5C 15.5,17.5 15.5,14.5 15.5,11.5 Z M 15.5,29.5 C 20.5827,28.3858 24.2494,30.0525 26.5,34.5C 24.2494,38.9475 20.5827,40.6142 15.5,39.5C 15.5,36.1667 15.5,32.8333 15.5,29.5 Z"/>
  <path opacity="0.831" fill="#feff00" d="M 305.5,2.5 C 309.833,2.5 314.167,2.5 318.5,2.5C 320.222,11.9423 322.388,21.2756 325,30.5C 327.812,21.2336 330.312,11.9002 332.5,2.5C 336.833,2.5 341.167,2.5 345.5,2.5C 347.364,11.6209 349.697,20.6209 352.5,29.5C 355.011,20.6107 357.011,11.6107 358.5,2.5C 362.5,2.5 366.5,2.5 370.5,2.5C 366.833,17.8333 363.167,33.1667 359.5,48.5C 354.833,48.5 350.167,48.5 345.5,48.5C 343.77,39.2412 341.27,30.2412 338,21.5C 335.671,30.4837 333.504,39.4837 331.5,48.5C 326.57,48.8025 321.737,48.4692 317,47.5C 313.057,32.5096 309.224,17.5096 305.5,2.5 Z"/>
  <path opacity="0.836" fill="#feff00" d="M 635.5,2.5 C 647.833,2.5 660.167,2.5 672.5,2.5C 672.5,5.83333 672.5,9.16667 672.5,12.5C 668.167,12.5 663.833,12.5 659.5,12.5C 659.5,24.5 659.5,36.5 659.5,48.5C 655.5,48.5 651.5,48.5 647.5,48.5C 647.5,36.5 647.5,24.5 647.5,12.5C 643.5,12.5 639.5,12.5 635.5,12.5C 635.5,9.16667 635.5,5.83333 635.5,2.5 Z"/>
  <path opacity="0.835" fill="#feff00" d="M 874.5,2.5 C 883.833,2.5 893.167,2.5 902.5,2.5C 902.5,5.83333 902.5,9.16667 902.5,12.5C 897.167,12.5 891.833,12.5 886.5,12.5C 886.5,15.5 886.5,18.5 886.5,21.5C 891.5,21.5 896.5,21.5 901.5,21.5C 901.5,24.8333 901.5,28.1667 901.5,31.5C 896.5,31.5 891.5,31.5 886.5,31.5C 886.5,37.1667 886.5,42.8333 886.5,48.5C 882.5,48.5 878.5,48.5 874.5,48.5C 874.5,33.1667 874.5,17.8333 874.5,2.5 Z"/>
  <path opacity="0.877" fill="#bcbcbc" d="M 1074.5,5.5 C 1076.17,5.5 1077.83,5.5 1079.5,5.5C 1079.5,8.83333 1079.5,12.1667 1079.5,15.5C 1081.83,15.5 1084.17,15.5 1086.5,15.5C 1086.5,18.5 1086.5,21.5 1086.5,24.5C 1084.17,24.5 1081.83,24.5 1079.5,24.5C 1079.33,29.5111 1079.5,34.5111 1080,39.5C 1082.04,40.4231 1084.21,40.7564 1086.5,40.5C 1086.5,43.5 1086.5,46.5 1086.5,49.5C 1081.82,49.6658 1077.15,49.4992 1072.5,49C 1070.19,47.8906 1068.69,46.0573 1068,43.5C 1067.5,37.1754 1067.33,30.8421 1067.5,24.5C 1065.83,24.5 1064.17,24.5 1062.5,24.5C 1062.5,21.5 1062.5,18.5 1062.5,15.5C 1064.17,15.5 1065.83,15.5 1067.5,15.5C 1067.5,12.8333 1067.5,10.1667 1067.5,7.5C 1070.07,7.27852 1072.4,6.61185 1074.5,5.5 Z"/>
  <path opacity="0.877" fill="#bcbcbc" d="M 1099.5,5.5 C 1101.17,5.5 1102.83,5.5 1104.5,5.5C 1104.5,8.83333 1104.5,12.1667 1104.5,15.5C 1106.83,15.5 1109.17,15.5 1111.5,15.5C 1111.5,18.5 1111.5,21.5 1111.5,24.5C 1109.17,24.5 1106.83,24.5 1104.5,24.5C 1104.33,29.5111 1104.5,34.5111 1105,39.5C 1107.04,40.4231 1109.21,40.7564 1111.5,40.5C 1111.5,43.5 1111.5,46.5 1111.5,49.5C 1106.82,49.6658 1102.15,49.4992 1097.5,49C 1095.19,47.8906 1093.69,46.0573 1093,43.5C 1092.5,37.1754 1092.33,30.8421 1092.5,24.5C 1090.83,24.5 1089.17,24.5 1087.5,24.5C 1087.5,21.5 1087.5,18.5 1087.5,15.5C 1089.17,15.5 1090.83,15.5 1092.5,15.5C 1092.5,12.8333 1092.5,10.1667 1092.5,7.5C 1095.07,7.27852 1097.4,6.61185 1099.5,5.5 Z"/>
  <path opacity="0.881" fill="#bebebe" d="M 49.5,14.5 C 54.1785,14.3342 58.8452,14.5008 63.5,15C 67.3333,16.1667 69.8333,18.6667 71,22.5C 71.4998,31.1603 71.6664,39.8269 71.5,48.5C 67.5633,48.7935 63.73,48.4601 60,47.5C 54.9398,49.9583 49.7732,50.125 44.5,48C 39.9433,42.8789 39.4433,37.3789 43,31.5C 44.7998,29.683 46.9664,28.5163 49.5,28C 53.1864,27.4412 56.853,26.7745 60.5,26C 59.4026,23.7001 57.5692,22.5334 55,22.5C 51.444,23.4089 47.944,24.4089 44.5,25.5C 44.3354,22.4816 44.502,19.4816 45,16.5C 46.6225,15.9011 48.1225,15.2344 49.5,14.5 Z M 54.5,34.5 C 56.5,34.5 58.5,34.5 60.5,34.5C 60.3786,38.1269 58.5453,40.4602 55,41.5C 50.601,39.3204 50.4344,36.987 54.5,34.5 Z"/>
  <path opacity="0.875" fill="#bebebe" d="M 87.5,14.5 C 92.5649,14.219 97.5649,14.5524 102.5,15.5C 103.487,18.7683 103.82,22.1016 103.5,25.5C 95.2066,21.3164 89.8733,23.6498 87.5,32.5C 87.6279,36.0847 89.2946,38.5847 92.5,40C 96.3225,40.5849 99.9892,40.0849 103.5,38.5C 104.029,42.3506 103.362,45.8506 101.5,49C 81.8669,52.0339 73.7002,43.8673 77,24.5C 79.1059,19.5573 82.6059,16.224 87.5,14.5 Z"/>
  <path opacity="0.886" fill="#bebebe" d="M 196.5,14.5 C 201.179,14.3342 205.845,14.5008 210.5,15C 213.196,15.6898 215.363,17.1898 217,19.5C 218.42,29.0862 218.92,38.7529 218.5,48.5C 214.563,48.7935 210.73,48.4601 207,47.5C 192.861,53.1074 186.861,48.4407 189,33.5C 190.167,31.6667 191.667,30.1667 193.5,29C 198.197,27.9397 202.864,26.773 207.5,25.5C 206.33,23.7453 204.663,22.7453 202.5,22.5C 198.759,23.3512 195.092,24.3512 191.5,25.5C 191.183,22.4281 191.516,19.4281 192.5,16.5C 194.026,16.0057 195.359,15.339 196.5,14.5 Z M 201.5,34.5 C 203.5,34.5 205.5,34.5 207.5,34.5C 207.57,38.3718 205.737,40.7051 202,41.5C 198.932,39.4107 198.766,37.0773 201.5,34.5 Z"/>
  <path opacity="0.852" fill="#bdbdbd" d="M 230.5,14.5 C 235.897,14.2154 241.23,14.5488 246.5,15.5C 247.484,18.4281 247.817,21.4281 247.5,24.5C 244.42,24.2523 241.42,23.5856 238.5,22.5C 236.893,22.637 235.559,23.3036 234.5,24.5C 238.253,26.9341 242.253,29.1008 246.5,31C 251.518,38.9095 249.852,44.9095 241.5,49C 235.13,49.7056 228.797,49.5389 222.5,48.5C 222.5,45.1667 222.5,41.8333 222.5,38.5C 225.944,39.5911 229.444,40.5911 233,41.5C 234.812,41.5066 236.312,40.84 237.5,39.5C 233.747,37.0659 229.747,34.8992 225.5,33C 220.869,25.0164 222.536,18.8498 230.5,14.5 Z"/>
  <path opacity="0.893" fill="#bebebe" d="M 381.5,14.5 C 401.49,12.3199 409.324,20.9866 405,40.5C 402.993,44.5933 399.827,47.4267 395.5,49C 376,52.1667 367.833,44 371,24.5C 373.106,19.5573 376.606,16.224 381.5,14.5 Z M 386.5,23.5 C 392.158,23.1578 394.824,25.8244 394.5,31.5C 395.087,36.674 392.92,39.674 388,40.5C 383.864,39.5228 381.697,36.8561 381.5,32.5C 381.911,28.6666 383.578,25.6666 386.5,23.5 Z"/>
  <path opacity="0.936" fill="#bebebe" d="M 426.5,14.5 C 430.182,14.3347 433.848,14.5014 437.5,15C 440.381,16.2506 442.214,18.4173 443,21.5C 443.5,30.4938 443.666,39.4938 443.5,48.5C 439.833,48.5 436.167,48.5 432.5,48.5C 432.896,40.747 432.396,33.0804 431,25.5C 427.102,22.7723 424.435,23.7723 423,28.5C 422.5,35.1583 422.334,41.825 422.5,48.5C 418.833,48.5 415.167,48.5 411.5,48.5C 411.5,37.5 411.5,26.5 411.5,15.5C 415.673,14.9564 419.506,15.623 423,17.5C 424.145,16.3636 425.312,15.3636 426.5,14.5 Z"/>
  <path opacity="0.868" fill="#bcbcbc" d="M 504.5,14.5 C 507.167,14.5 509.833,14.5 512.5,14.5C 512.5,18.1667 512.5,21.8333 512.5,25.5C 508.255,23.5271 504.755,24.5271 502,28.5C 501.5,35.1583 501.334,41.825 501.5,48.5C 497.5,48.5 493.5,48.5 489.5,48.5C 489.5,37.5 489.5,26.5 489.5,15.5C 493.767,15.203 497.934,15.5363 502,16.5C 502.995,15.9341 503.828,15.2674 504.5,14.5 Z"/>
  <path opacity="0.887" fill="#bdbdbd" d="M 524.5,14.5 C 545.463,12.9656 552.963,22.2989 547,42.5C 540.584,49.2209 532.75,51.3875 523.5,49C 515.822,45.979 512.156,40.3123 512.5,32C 512.71,23.373 516.71,17.5396 524.5,14.5 Z M 529.5,23.5 C 534.681,23.8499 537.348,26.6832 537.5,32C 536.447,40.4562 532.614,42.2895 526,37.5C 523.445,31.7824 524.612,27.1158 529.5,23.5 Z"/>
  <path opacity="0.864" fill="#bcbcbc" d="M 598.5,14.5 C 603.565,14.219 608.565,14.5524 613.5,15.5C 614.484,18.4281 614.817,21.4281 614.5,24.5C 611.656,23.9421 608.822,23.2755 606,22.5C 604.338,22.3875 603.171,23.0542 602.5,24.5C 606.851,26.7661 611.018,29.4328 615,32.5C 618.659,40.4252 616.492,45.9252 608.5,49C 602.463,49.6971 596.463,49.5304 590.5,48.5C 590.5,45.1667 590.5,41.8333 590.5,38.5C 593.822,39.4919 597.155,40.4919 600.5,41.5C 602.688,41.6927 604.355,40.8594 605.5,39C 601.938,37.1864 598.271,35.5197 594.5,34C 589.582,28.8081 589.248,23.3081 593.5,17.5C 595.145,16.3037 596.811,15.3037 598.5,14.5 Z"/>
  <path opacity="0.886" fill="#bebebe" d="M 678.5,14.5 C 694.596,12.2615 701.929,19.2615 700.5,35.5C 693.492,35.3337 686.492,35.5004 679.5,36C 680.954,39.5471 683.62,41.3804 687.5,41.5C 690.782,40.5123 694.115,39.8457 697.5,39.5C 697.664,42.1873 697.497,44.854 697,47.5C 672.404,53.9033 663.737,44.9033 671,20.5C 673.114,17.8792 675.614,15.8792 678.5,14.5 Z M 683.5,22.5 C 687.167,22.8333 689.167,24.8333 689.5,28.5C 686.5,28.5 683.5,28.5 680.5,28.5C 680.615,26.0532 681.615,24.0532 683.5,22.5 Z"/>
  <path opacity="0.875" fill="#bebebe" d="M 809.5,14.5 C 814.511,14.3341 819.511,14.5007 824.5,15C 828.944,17.1107 831.444,20.6107 832,25.5C 832.5,33.1594 832.666,40.8261 832.5,48.5C 828.327,49.0436 824.494,48.377 821,46.5C 818.521,48.9168 815.521,49.9168 812,49.5C 804.883,49.7163 801.383,46.2163 801.5,39C 801.296,34.7414 802.963,31.408 806.5,29C 811.197,27.9397 815.864,26.773 820.5,25.5C 819.663,23.4947 818.163,22.4947 816,22.5C 812.074,23.2728 808.241,24.2728 804.5,25.5C 804.183,22.4281 804.516,19.4281 805.5,16.5C 807.026,16.0057 808.359,15.339 809.5,14.5 Z M 820.5,33.5 C 821.431,38.0902 819.431,40.5902 814.5,41C 812.789,39.8668 812.289,38.3668 813,36.5C 815.378,35.0331 817.878,34.0331 820.5,33.5 Z"/>
  <path opacity="0.88" fill="#bcbcbc" d="M 916.5,14.5 C 935.454,11.6213 943.621,19.6213 941,38.5C 939.813,42.7092 937.313,45.8759 933.5,48C 913.057,53.8731 903.89,46.3731 906,25.5C 907.711,19.9588 911.211,16.2921 916.5,14.5 Z M 921.5,23.5 C 927.402,23.2363 930.069,26.0696 929.5,32C 929.22,39.7157 925.72,41.8824 919,38.5C 916.389,32.7589 917.223,27.7589 921.5,23.5 Z"/>
  <path opacity="0.916" fill="#bebebe" d="M 960.5,14.5 C 963.167,14.5 965.833,14.5 968.5,14.5C 968.5,18.1667 968.5,21.8333 968.5,25.5C 964.666,23.9833 961.5,24.9833 959,28.5C 957.671,35.092 957.171,41.7586 957.5,48.5C 953.833,48.5 950.167,48.5 946.5,48.5C 946.5,37.5 946.5,26.5 946.5,15.5C 950.673,14.9564 954.506,15.623 958,17.5C 959.045,16.6266 959.878,15.6266 960.5,14.5 Z"/>
  <path opacity="0.905" fill="#bdbdbd" d="M 987.5,14.5 C 991.182,14.3347 994.848,14.5014 998.5,15C 1000.29,15.7845 1001.79,16.9512 1003,18.5C 1004.21,16.9512 1005.71,15.7845 1007.5,15C 1011.96,14.1327 1016.29,14.4661 1020.5,16C 1022.32,17.7998 1023.48,19.9664 1024,22.5C 1024.5,31.1603 1024.67,39.8269 1024.5,48.5C 1020.5,48.5 1016.5,48.5 1012.5,48.5C 1012.67,40.8261 1012.5,33.1594 1012,25.5C 1009.37,22.8076 1007.03,23.141 1005,26.5C 1004.5,33.8258 1004.33,41.1591 1004.5,48.5C 1000.5,48.5 996.5,48.5 992.5,48.5C 992.666,41.1591 992.5,33.8258 992,26.5C 988.246,22.1907 985.579,22.8574 984,28.5C 983.5,35.1583 983.334,41.825 983.5,48.5C 979.833,48.5 976.167,48.5 972.5,48.5C 972.5,37.5 972.5,26.5 972.5,15.5C 976.673,14.9564 980.506,15.623 984,17.5C 985.145,16.3636 986.312,15.3636 987.5,14.5 Z"/>
  <path opacity="0.886" fill="#bebebe" d="M 1036.5,14.5 C 1041.18,14.3342 1045.85,14.5008 1050.5,15C 1053.2,15.6898 1055.36,17.1898 1057,19.5C 1058.42,29.0862 1058.92,38.7529 1058.5,48.5C 1054.56,48.7935 1050.73,48.4601 1047,47.5C 1032.86,53.1074 1026.86,48.4407 1029,33.5C 1030.17,31.6667 1031.67,30.1667 1033.5,29C 1038.2,27.9397 1042.86,26.773 1047.5,25.5C 1046.33,23.7453 1044.66,22.7453 1042.5,22.5C 1038.76,23.3512 1035.09,24.3512 1031.5,25.5C 1031.18,22.4281 1031.52,19.4281 1032.5,16.5C 1034.03,16.0057 1035.36,15.339 1036.5,14.5 Z M 1041.5,34.5 C 1043.5,34.5 1045.5,34.5 1047.5,34.5C 1047.57,38.3718 1045.74,40.7051 1042,41.5C 1038.93,39.4107 1038.77,37.0773 1041.5,34.5 Z"/>
  <path opacity="0.883" fill="#bebebe" d="M 1123.5,14.5 C 1139.25,12.5773 1146.58,19.5773 1145.5,35.5C 1138.47,35.1697 1131.47,35.503 1124.5,36.5C 1126.03,39.5207 1128.53,41.1874 1132,41.5C 1135.45,40.5106 1138.95,39.8439 1142.5,39.5C 1142.66,42.1873 1142.5,44.854 1142,47.5C 1119.56,54.3849 1110.23,46.3849 1114,23.5C 1116.43,19.5657 1119.6,16.5657 1123.5,14.5 Z M 1128.5,22.5 C 1131.9,22.731 1133.9,24.5643 1134.5,28C 1131.12,28.8236 1127.78,28.657 1124.5,27.5C 1125.16,25.1853 1126.49,23.5186 1128.5,22.5 Z"/>
  <path opacity="0.916" fill="#bebebe" d="M 1163.5,14.5 C 1166.17,14.5 1168.83,14.5 1171.5,14.5C 1171.5,18.1667 1171.5,21.8333 1171.5,25.5C 1167.67,23.9833 1164.5,24.9833 1162,28.5C 1160.67,35.092 1160.17,41.7586 1160.5,48.5C 1156.83,48.5 1153.17,48.5 1149.5,48.5C 1149.5,37.5 1149.5,26.5 1149.5,15.5C 1153.67,14.9564 1157.51,15.623 1161,17.5C 1162.04,16.6266 1162.88,15.6266 1163.5,14.5 Z"/>
  <path opacity="0.882" fill="#bebebe" d="M 1232.5,14.5 C 1248.27,12.5983 1255.6,19.5983 1254.5,35.5C 1247.47,35.1697 1240.47,35.503 1233.5,36.5C 1235.22,39.6336 1237.88,41.3003 1241.5,41.5C 1244.78,40.5123 1248.11,39.8457 1251.5,39.5C 1251.66,42.1873 1251.5,44.854 1251,47.5C 1229.15,54.6074 1219.82,46.9407 1223,24.5C 1225.02,19.98 1228.19,16.6467 1232.5,14.5 Z M 1237.5,22.5 C 1240.67,22.6617 1242.67,24.3284 1243.5,27.5C 1240.22,28.657 1236.88,28.8236 1233.5,28C 1234.66,26.0083 1236,24.175 1237.5,22.5 Z"/>
  <path opacity="0.868" fill="#bcbcbc" d="M 1273.5,14.5 C 1276.17,14.5 1278.83,14.5 1281.5,14.5C 1281.5,18.1667 1281.5,21.8333 1281.5,25.5C 1277.25,23.5271 1273.75,24.5271 1271,28.5C 1270.5,35.1583 1270.33,41.825 1270.5,48.5C 1266.5,48.5 1262.5,48.5 1258.5,48.5C 1258.5,37.5 1258.5,26.5 1258.5,15.5C 1262.77,15.203 1266.93,15.5363 1271,16.5C 1271.99,15.9341 1272.83,15.2674 1273.5,14.5 Z"/>
  <path opacity="0.902" fill="#bdbdbd" d="M 553.5,15.5 C 557.167,15.5 560.833,15.5 564.5,15.5C 564.104,23.253 564.604,30.9196 566,38.5C 569.488,41.4615 572.155,40.7948 574,36.5C 574.5,29.5079 574.666,22.5079 574.5,15.5C 578.5,15.5 582.5,15.5 586.5,15.5C 586.5,26.5 586.5,37.5 586.5,48.5C 582.003,49.0555 577.836,48.3888 574,46.5C 573.097,47.7014 571.931,48.5348 570.5,49C 566.044,49.8673 561.711,49.5339 557.5,48C 555.959,46.4207 554.792,44.5873 554,42.5C 553.5,33.5062 553.334,24.5062 553.5,15.5 Z"/>
  <path opacity="0.869" fill="#bcbcbc" d="M 749.5,5.5 C 751.167,5.5 752.833,5.5 754.5,5.5C 754.5,8.83333 754.5,12.1667 754.5,15.5C 756.833,15.5 759.167,15.5 761.5,15.5C 761.5,18.5 761.5,21.5 761.5,24.5C 759.167,24.5 756.833,24.5 754.5,24.5C 754.334,29.5111 754.501,34.5111 755,39.5C 757.041,40.4231 759.208,40.7564 761.5,40.5C 761.5,43.5 761.5,46.5 761.5,49.5C 756.821,49.6658 752.155,49.4992 747.5,49C 745.185,47.8906 743.685,46.0573 743,43.5C 742.5,37.1754 742.334,30.8421 742.5,24.5C 740.833,24.5 739.167,24.5 737.5,24.5C 737.663,22.1432 737.497,19.8098 737,17.5C 733.638,22.0298 730.471,26.6965 727.5,31.5C 730.833,36.8333 734.167,42.1667 737.5,47.5C 732.833,48.8333 728.167,48.8333 723.5,47.5C 722.253,44.6714 720.753,42.0048 719,39.5C 717.627,42.4125 716.127,45.2458 714.5,48C 709.798,48.8283 705.131,48.6616 700.5,47.5C 704.044,42.2455 707.71,37.0788 711.5,32C 708.042,26.9184 704.709,21.7517 701.5,16.5C 705.795,15.3391 710.129,15.1725 714.5,16C 715.96,19.0887 717.793,21.9221 720,24.5C 721.247,21.6714 722.747,19.0048 724.5,16.5C 730.463,15.5041 736.463,15.1707 742.5,15.5C 742.5,12.8333 742.5,10.1667 742.5,7.5C 745.067,7.27852 747.401,6.61185 749.5,5.5 Z"/>
  <path opacity="0.887" fill="#bebebe" d="M 764.5,15.5 C 768.5,15.5 772.5,15.5 776.5,15.5C 776.334,23.1739 776.5,30.8406 777,38.5C 779.966,41.2652 782.633,40.9318 785,37.5C 785.5,30.1742 785.666,22.8409 785.5,15.5C 789.5,15.5 793.5,15.5 797.5,15.5C 797.5,26.5 797.5,37.5 797.5,48.5C 793.003,49.0555 788.836,48.3888 785,46.5C 784.097,47.7014 782.931,48.5348 781.5,49C 777.044,49.8673 772.711,49.5339 768.5,48C 766.683,46.2002 765.516,44.0336 765,41.5C 764.5,32.8397 764.334,24.1731 764.5,15.5 Z"/>
  <path opacity="0.946" fill="#bebebe" d="M 1175.5,15.5 C 1179.17,15.5 1182.83,15.5 1186.5,15.5C 1186.5,26.5 1186.5,37.5 1186.5,48.5C 1182.83,48.5 1179.17,48.5 1175.5,48.5C 1175.5,37.5 1175.5,26.5 1175.5,15.5 Z"/>
  <path opacity="0.86" fill="#bdbdbd" d="M 1191.5,15.5 C 1201.17,15.5 1210.83,15.5 1220.5,15.5C 1220.66,17.8568 1220.5,20.1902 1220,22.5C 1215.59,27.6521 1211.43,32.9855 1207.5,38.5C 1211.46,39.3265 1215.46,39.8265 1219.5,40C 1220.44,42.7191 1220.78,45.5525 1220.5,48.5C 1210.17,48.5 1199.83,48.5 1189.5,48.5C 1189.34,46.4727 1189.5,44.4727 1190,42.5C 1194.5,36.8333 1199,31.1667 1203.5,25.5C 1199.55,24.5091 1195.55,24.1758 1191.5,24.5C 1191.5,21.5 1191.5,18.5 1191.5,15.5 Z"/>
</svg>