<svg viewBox="0 0 203 92" fill-rule="evenodd" clip-rule="evenodd" xmlns="http://www.w3.org/2000/svg">
  <path fill="#feff00" opacity="0.893" d="M 180.5,2.5 C 186.167,2.5 191.833,2.5 197.5,2.5C 197.5,6.83333 197.5,11.1667 197.5,15.5C 187.897,13.1092 183.564,16.7759 184.5,26.5C 188.167,26.5 191.833,26.5 195.5,26.5C 195.5,30.5 195.5,34.5 195.5,38.5C 191.833,38.5 188.167,38.5 184.5,38.5C 184.5,50.8333 184.5,63.1667 184.5,75.5C 179.167,75.5 173.833,75.5 168.5,75.5C 168.5,63.1667 168.5,50.8333 168.5,38.5C 165.5,38.5 162.5,38.5 159.5,38.5C 159.5,34.5 159.5,30.5 159.5,26.5C 162.5,26.5 165.5,26.5 168.5,26.5C 166.181,15.1368 170.181,7.13682 180.5,2.5 Z"/>
  <path fill="#66ff32" opacity="0.889" d="M 2.5,7.5 C 7.54396,7.17252 12.544,7.50585 17.5,8.5C 28.4161,34.3227 38.7495,60.3227 48.5,86.5C 43.456,86.8275 38.456,86.4941 33.5,85.5C 22.5839,59.6773 12.2505,33.6773 2.5,7.5 Z"/>
  <path fill="#feff00" opacity="0.889" d="M 142.5,11.5 C 143.833,11.5 145.167,11.5 146.5,11.5C 146.5,16.5 146.5,21.5 146.5,26.5C 150.167,26.5 153.833,26.5 157.5,26.5C 157.5,30.5 157.5,34.5 157.5,38.5C 153.833,38.5 150.167,38.5 146.5,38.5C 146.104,46.253 146.604,53.9196 148,61.5C 148.956,62.8941 150.289,63.5607 152,63.5C 153.825,63.0566 155.658,62.7233 157.5,62.5C 157.826,66.8839 157.492,71.2172 156.5,75.5C 149.305,77.1965 142.305,76.6965 135.5,74C 133.106,72.0478 131.606,69.5478 131,66.5C 130.5,57.1726 130.334,47.8393 130.5,38.5C 127.833,38.5 125.167,38.5 122.5,38.5C 122.5,34.5 122.5,30.5 122.5,26.5C 125.167,26.5 127.833,26.5 130.5,26.5C 130.335,22.8183 130.501,19.1516 131,15.5C 134.952,14.2394 138.786,12.906 142.5,11.5 Z"/>
  <path fill="#feff00" opacity="0.861" d="M 44.5,26.5 C 50.2055,26.1712 55.8722,26.5046 61.5,27.5C 63.9796,37.4199 66.1462,47.4199 68,57.5C 70.6667,47.5 73.3333,37.5 76,27.5C 81.4066,26.5268 86.9066,26.1934 92.5,26.5C 94.5423,36.3374 97.0423,46.0041 100,55.5C 102.029,45.8574 103.862,36.1907 105.5,26.5C 110.833,26.5 116.167,26.5 121.5,26.5C 117.337,42.8223 112.67,58.989 107.5,75C 101.584,75.8072 95.7504,75.6406 90,74.5C 87.5107,65.5429 85.1774,56.5429 83,47.5C 80.6544,56.5499 78.1544,65.5499 75.5,74.5C 69.5368,75.4959 63.5368,75.8293 57.5,75.5C 53.324,59.1297 48.9907,42.7963 44.5,26.5 Z"/>
</svg>