<svg viewBox="0 0 1446 164" fill-rule="evenodd" clip-rule="evenodd" xmlns="http://www.w3.org/2000/svg">
  <path opacity="0.957" fill="#353844" d="M 1124.5,4.5 C 1132.51,4.4984 1138.17,8.16507 1141.5,15.5C 1139.77,35.0152 1136.94,54.3485 1133,73.5C 1131.42,83.1188 1130.26,92.7855 1129.5,102.5C 1129.48,105.924 1129.98,109.257 1131,112.5C 1133.55,114.716 1135.72,117.216 1137.5,120C 1137.33,121.5 1136.5,122.333 1135,122.5C 1129.9,120.994 1126.57,117.661 1125,112.5C 1123.34,98.6031 1123.84,84.7698 1126.5,71C 1125.05,56.8868 1124.22,42.7202 1124,28.5C 1122.73,22.6267 1120.89,16.96 1118.5,11.5C 1118.67,10.5 1118.83,9.5 1119,8.5C 1120.81,7.02294 1122.65,5.6896 1124.5,4.5 Z"/>
  <path opacity="0.949" fill="#353744" d="M 126.5,4.5 C 129.649,4.21138 132.649,4.71138 135.5,6C 137.667,8.16667 139.833,10.3333 142,12.5C 142.167,14.3333 142.333,16.1667 142.5,18C 141.675,29.0522 140.341,40.2189 138.5,51.5C 138.931,52.2935 139.265,53.1268 139.5,54C 134.191,72.6078 131.691,91.7744 132,111.5C 134.5,114.5 137,117.5 139.5,120.5C 139.113,121.72 138.28,122.387 137,122.5C 132.168,121.174 128.835,118.174 127,113.5C 125.273,99.0902 125.773,84.7569 128.5,70.5C 127.014,56.9022 126.181,43.2355 126,29.5C 125.129,23.2851 123.296,17.4518 120.5,12C 120.869,8.13641 122.869,5.63641 126.5,4.5 Z"/>
  <path opacity="0.958" fill="#353844" d="M 572.5,6.5 C 579.696,4.7001 584.863,7.03343 588,13.5C 586.404,22.6839 585.238,32.0172 584.5,41.5C 585.274,49.8052 585.774,58.1385 586,66.5C 587.214,64.9512 588.714,63.7845 590.5,63C 600.587,60.9938 608.42,64.1604 614,72.5C 615.927,87.7654 617.093,103.099 617.5,118.5C 617.664,123.333 615.331,125.333 610.5,124.5C 612.45,117.611 612.45,110.611 610.5,103.5C 610.608,102.558 610.941,101.725 611.5,101C 609.36,98.9336 608.693,96.6002 609.5,94C 608.736,91.9307 608.236,89.764 608,87.5C 605.454,84.9627 603.788,81.9627 603,78.5C 600.096,75.0973 596.763,74.7639 593,77.5C 588.291,86.175 586.124,95.5083 586.5,105.5C 587.665,113.479 588.165,121.479 588,129.5C 586.64,132.551 584.473,133.218 581.5,131.5C 577.023,101.022 573.023,70.3553 569.5,39.5C 569.987,38.5539 570.32,37.5539 570.5,36.5C 568.427,30.3253 567.094,23.992 566.5,17.5C 567.724,13.3838 569.724,9.71711 572.5,6.5 Z"/>
  <path opacity="0.954" fill="#353844" d="M 867.5,6.5 C 874.696,4.7001 879.863,7.03343 883,13.5C 881.404,22.6941 880.237,32.0274 879.5,41.5C 880.274,49.8052 880.774,58.1385 881,66.5C 885.135,62.8086 889.969,61.6419 895.5,63C 901.7,63.8423 906.2,67.0089 909,72.5C 910.923,87.934 912.09,103.434 912.5,119C 912.418,123.575 910.085,125.408 905.5,124.5C 905.715,122.226 906.382,120.059 907.5,118C 906.247,107.553 904.747,97.3867 903,87.5C 900.54,84.8753 898.706,81.8753 897.5,78.5C 894.094,74.7816 890.594,74.7816 887,78.5C 883.173,87.2287 881.34,96.3954 881.5,106C 882.459,113.495 882.959,120.995 883,128.5C 881.969,132.1 879.802,133.1 876.5,131.5C 872.023,101.019 868.023,70.3519 864.5,39.5C 864.987,38.5539 865.32,37.5539 865.5,36.5C 862.924,29.3765 861.757,22.0431 862,14.5C 864.08,11.9348 865.913,9.26817 867.5,6.5 Z"/>
  <path opacity="0.952" fill="#353844" d="M 38.5,9.5 C 41.5212,10.0049 44.5212,10.6716 47.5,11.5C 50.2792,10.8417 52.9459,11.5084 55.5,13.5C 56.7638,15.2915 57.4305,17.2915 57.5,19.5C 55.6361,28.8975 53.4694,38.2309 51,47.5C 50.3875,68.2028 49.2208,88.8694 47.5,109.5C 48.0102,117.297 48.8435,124.964 50,132.5C 48.0624,133.86 46.3957,133.527 45,131.5C 44.1502,126.416 42.9835,121.416 41.5,116.5C 19.8062,124.232 7.47286,116.565 4.5,93.5C 5.34372,87.3186 7.67705,81.8186 11.5,77C 15.8284,75.5033 20.1618,74.0033 24.5,72.5C 29.2315,73.2877 33.8982,74.2877 38.5,75.5C 38.6496,63.174 38.9829,50.8407 39.5,38.5C 38.5984,31.5495 37.2651,24.7162 35.5,18C 35.0506,14.561 36.0506,11.7276 38.5,9.5 Z M 37.5,109.5 C 27.2764,112.552 20.2764,109.218 16.5,99.5C 18.2841,89.886 23.7841,83.5526 33,80.5C 34.4728,80.9031 35.8061,81.5697 37,82.5C 40.1629,91.4524 40.3295,100.452 37.5,109.5 Z"/>
  <path opacity="0.938" fill="#353844" d="M 156.5,26.5 C 159.463,26.1507 161.796,27.1507 163.5,29.5C 165.403,28.6469 167.403,28.6469 169.5,29.5C 170.041,32.6516 169.041,35.1516 166.5,37C 169.458,41.5518 168.791,45.5518 164.5,49C 156.657,49.5 151.991,45.8334 150.5,38C 151.018,33.8116 153.351,31.1449 157.5,30C 156.663,28.9887 156.33,27.8221 156.5,26.5 Z"/>
  <path opacity="0.944" fill="#353844" d="M 334.5,25.5 C 336.532,26.0478 337.532,27.3812 337.5,29.5C 340.187,29.3359 342.854,29.5026 345.5,30C 346.022,30.5613 346.355,31.228 346.5,32C 345.5,33.6667 344.5,35.3333 343.5,37C 346.461,45.7947 343.461,49.7947 334.5,49C 328.977,46.1168 326.477,41.6168 327,35.5C 328.033,32.9673 329.867,31.3006 332.5,30.5C 333.322,28.8614 333.989,27.1947 334.5,25.5 Z"/>
  <path opacity="0.946" fill="#353845" d="M 784.5,25.5 C 786.532,26.0478 787.532,27.3812 787.5,29.5C 790.187,29.3359 792.854,29.5026 795.5,30C 796.022,30.5613 796.355,31.228 796.5,32C 795.5,33.6667 794.5,35.3333 793.5,37C 796.461,45.7947 793.461,49.7947 784.5,49C 778.977,46.1168 776.477,41.6168 777,35.5C 778.033,32.9673 779.867,31.3006 782.5,30.5C 783.322,28.8614 783.989,27.1947 784.5,25.5 Z"/>
  <path opacity="0.956" fill="#353845" d="M 1260.5,26.5 C 1261.87,26.3433 1263.21,26.51 1264.5,27C 1265.83,27.6667 1265.83,28.3333 1264.5,29C 1266.77,29.7581 1268.94,29.5914 1271,28.5C 1274.11,31.3168 1273.95,34.1502 1270.5,37C 1274,45.8335 1271,49.8335 1261.5,49C 1254.37,44.948 1252.7,39.2813 1256.5,32C 1258.09,31.1376 1259.75,30.4709 1261.5,30C 1260.66,28.9887 1260.33,27.8221 1260.5,26.5 Z"/>
  <path opacity="0.968" fill="#353944" d="M 1220.5,42.5 C 1228.55,42.0418 1233.22,45.8751 1234.5,54C 1234.07,56.5684 1233.4,59.0684 1232.5,61.5C 1240.2,62.348 1247.87,63.348 1255.5,64.5C 1255.5,65.8333 1255.5,67.1667 1255.5,68.5C 1248.59,69.9171 1241.59,70.7504 1234.5,71C 1233.58,71.3742 1232.75,71.8742 1232,72.5C 1230.27,85.9827 1228.77,99.4827 1227.5,113C 1227.74,121.406 1232.07,125.573 1240.5,125.5C 1240.02,126.478 1239.36,127.311 1238.5,128C 1229.34,129.843 1222.18,127.01 1217,119.5C 1214.79,103.879 1214.29,88.2119 1215.5,72.5C 1211.65,74.0884 1207.65,75.0884 1203.5,75.5C 1203.24,73.2075 1203.58,71.0408 1204.5,69C 1208.11,68.0642 1211.78,67.5642 1215.5,67.5C 1215.38,60.8044 1215.21,54.1377 1215,47.5C 1217.19,46.1666 1219.02,44.5 1220.5,42.5 Z"/>
  <path opacity="0.941" fill="#353844" d="M 533.5,42.5 C 541.83,42.1597 546.496,46.1597 547.5,54.5C 547.239,56.9498 546.572,59.2831 545.5,61.5C 546.242,62.2868 547.075,62.9535 548,63.5C 554.832,62.4631 561.665,62.7964 568.5,64.5C 568.773,66.451 568.107,67.951 566.5,69C 560.207,70.0226 553.874,70.6893 547.5,71C 546.667,71.8333 545.833,72.6667 545,73.5C 543.289,86.8293 541.789,100.163 540.5,113.5C 540.876,121.877 545.209,125.544 553.5,124.5C 553.64,126.124 552.973,127.29 551.5,128C 542.347,129.844 535.181,127.011 530,119.5C 527.874,103.871 527.374,88.204 528.5,72.5C 524.654,74.0884 520.654,75.0884 516.5,75.5C 516.244,73.2075 516.577,71.0408 517.5,69C 521.114,68.0642 524.78,67.5642 528.5,67.5C 528.441,60.7972 528.274,54.1305 528,47.5C 530.191,46.1666 532.024,44.5 533.5,42.5 Z"/>
  <path opacity="0.900" fill="#353844" d="M 934.5,42.5 C 942.597,42.093 947.264,45.9264 948.5,54C 948.066,56.5684 947.4,59.0684 946.5,61.5C 947.242,62.2868 948.075,62.9535 949,63.5C 955.832,62.4631 962.665,62.7964 969.5,64.5C 969.863,66.9115 968.863,68.4115 966.5,69C 960.539,69.9968 954.539,70.6635 948.5,71C 947.584,71.3742 946.75,71.8742 946,72.5C 945.129,77.8572 944.129,83.1905 943,88.5C 943.469,96.9668 942.969,105.3 941.5,113.5C 941.717,121.798 946.05,125.798 954.5,125.5C 953.91,126.799 952.91,127.632 951.5,128C 942.698,129.628 935.865,126.795 931,119.5C 928.789,103.879 928.289,88.2119 929.5,72.5C 925.457,73.5886 921.457,74.5886 917.5,75.5C 917.244,73.2075 917.577,71.0408 918.5,69C 922.114,68.0642 925.78,67.5642 929.5,67.5C 929.378,60.8044 929.211,54.1377 929,47.5C 931.191,46.1666 933.024,44.5 934.5,42.5 Z"/>
  <path opacity="0.925" fill="#353843" d="M 14.5,56.5 C 21.327,55.8253 24.1603,58.8253 23,65.5C 22.088,67.6585 21.2546,69.8252 20.5,72C 15.2744,73.8554 12.6078,72.0221 12.5,66.5C 13.1692,63.148 13.8358,59.8146 14.5,56.5 Z"/>
  <path opacity="0.952" fill="#353844" d="M 179.5,56.5 C 183.273,56.2633 186.94,56.7633 190.5,58C 194,60.8333 197.5,63.6667 201,66.5C 203.068,70.6311 202.901,74.6311 200.5,78.5C 201.255,83.6546 202.422,88.6546 204,93.5C 206.977,83.3783 212.144,74.545 219.5,67C 220.793,66.51 222.127,66.3433 223.5,66.5C 223.66,68.1992 223.494,69.8659 223,71.5C 213.177,85.9658 207.51,101.966 206,119.5C 201.77,123.778 198.437,123.112 196,117.5C 191.071,103.711 186.738,89.711 183,75.5C 181.005,72.2035 179.005,68.8702 177,65.5C 175.93,61.8579 176.764,58.8579 179.5,56.5 Z"/>
  <path opacity="0.965" fill="#353844" d="M 1041.5,59.5 C 1047.87,58.7702 1052.71,61.1035 1056,66.5C 1057.16,70.3458 1055.99,73.1792 1052.5,75C 1047.39,75.1091 1042.39,75.7758 1037.5,77C 1035.2,78.2633 1034.37,80.0966 1035,82.5C 1040.81,86.3028 1046.65,90.1362 1052.5,94C 1055.93,96.4253 1057.27,99.7586 1056.5,104C 1056.38,114.784 1050.88,120.284 1040,120.5C 1033.31,120.287 1027.14,118.453 1021.5,115C 1018.87,110.867 1018.87,106.701 1021.5,102.5C 1022.72,101.386 1024.06,101.219 1025.5,102C 1025.42,104.953 1025.76,107.953 1026.5,111C 1030.41,112.47 1034.41,113.637 1038.5,114.5C 1043.54,113.281 1047.2,110.447 1049.5,106C 1049.14,104.775 1048.64,103.609 1048,102.5C 1040.6,96.7166 1032.43,92.3833 1023.5,89.5C 1019.21,84.422 1018.38,78.7553 1021,72.5C 1023.17,67.6667 1026.67,64.1667 1031.5,62C 1035.09,61.6894 1038.42,60.856 1041.5,59.5 Z"/>
  <path opacity="0.952" fill="#353844" d="M 1422.5,59.5 C 1428.06,59.1973 1432.56,61.1973 1436,65.5C 1437.38,69.4755 1436.21,72.3088 1432.5,74C 1426.91,73.9052 1421.58,74.9052 1416.5,77C 1415.71,78.0852 1415.04,79.2519 1414.5,80.5C 1421.5,85.9945 1428.67,91.3278 1436,96.5C 1439.82,107.059 1436.65,114.559 1426.5,119C 1417.76,120.313 1409.76,118.48 1402.5,113.5C 1399.85,109.746 1400.02,106.079 1403,102.5C 1404.01,101.663 1405.18,101.33 1406.5,101.5C 1403.73,107.877 1405.73,111.71 1412.5,113C 1419.38,115.595 1425.22,114.095 1430,108.5C 1430.98,105.331 1430.48,102.497 1428.5,100C 1421.23,95.5314 1413.56,91.8647 1405.5,89C 1401.7,84.9089 1400.53,80.0755 1402,74.5C 1403.89,68.5507 1407.73,64.384 1413.5,62C 1416.8,61.7963 1419.8,60.963 1422.5,59.5 Z"/>
  <path opacity="0.919" fill="#343743" d="M 156.5,59.5 C 158.199,59.3398 159.866,59.5065 161.5,60C 163.221,61.5272 165.221,62.5272 167.5,63C 169.357,64.1824 170.357,65.849 170.5,68C 166.909,71.8691 165.576,76.3691 166.5,81.5C 165.727,84.4649 165.061,87.4649 164.5,90.5C 165.781,93.6757 165.781,96.8424 164.5,100C 165.959,102.642 166.292,105.309 165.5,108C 166.734,114.489 167.567,120.989 168,127.5C 166.667,128.833 165.333,128.833 164,127.5C 163.333,125.5 162.667,123.5 162,121.5C 160.173,110.883 158.673,100.217 157.5,89.5C 156.201,88.91 155.368,87.91 155,86.5C 154.391,78.4861 154.058,70.4861 154,62.5C 154.698,61.3094 155.531,60.3094 156.5,59.5 Z"/>
  <path opacity="0.938" fill="#353843" d="M 332.5,59.5 C 336.542,59.5226 340.208,60.6893 343.5,63C 348.55,65.6626 348.717,68.4959 344,71.5C 340.506,89.6219 341.006,107.622 345.5,125.5C 344.062,128.823 342.229,129.156 340,126.5C 336.696,114.736 335.029,102.736 335,90.5C 332.852,89.0226 331.518,87.0226 331,84.5C 330.776,77.9631 330.276,71.4631 329.5,65C 330.124,62.9149 331.124,61.0816 332.5,59.5 Z"/>
  <path opacity="0.938" fill="#353843" d="M 364.5,59.5 C 370.328,60.0049 373.995,63.0049 375.5,68.5C 380.518,67.6628 385.518,66.6628 390.5,65.5C 392.697,65.8481 394.53,66.8481 396,68.5C 400.575,78.6443 402.908,89.3109 403,100.5C 404.171,104.013 405.338,107.513 406.5,111C 405.804,114.522 403.804,115.355 400.5,113.5C 398.666,103.16 396.832,92.827 395,82.5C 393.06,79.6052 390.56,77.2718 387.5,75.5C 384.567,76.93 382.067,78.93 380,81.5C 373.091,94.6277 370.758,108.628 373,123.5C 371.534,125.325 369.701,125.825 367.5,125C 365.396,122.958 364.229,120.458 364,117.5C 362.479,103.204 361.479,88.8709 361,74.5C 356.706,67.9387 357.873,62.9387 364.5,59.5 Z"/>
  <path opacity="0.920" fill="#353844" d="M 782.5,59.5 C 786.542,59.5226 790.208,60.6893 793.5,63C 798.55,65.6626 798.717,68.4959 794,71.5C 790.506,89.6219 791.006,107.622 795.5,125.5C 794.062,128.823 792.229,129.156 790,126.5C 786.696,114.736 785.029,102.736 785,90.5C 782.852,89.0226 781.518,87.0226 781,84.5C 780.776,77.9631 780.276,71.4631 779.5,65C 780.124,62.9149 781.124,61.0816 782.5,59.5 Z"/>
  <path opacity="0.950" fill="#353844" d="M 1260.5,59.5 C 1264.54,59.5226 1268.21,60.6893 1271.5,63C 1275.55,66.3246 1275.38,69.4912 1271,72.5C 1270.76,78.2604 1269.92,84.0937 1268.5,90C 1269.83,93 1269.83,96 1268.5,99C 1268.77,101.151 1269.44,103.151 1270.5,105C 1270.12,111.813 1270.79,118.646 1272.5,125.5C 1271.98,128.396 1270.48,129.063 1268,127.5C 1264.45,115.438 1262.45,103.104 1262,90.5C 1259.61,88.3812 1258.27,85.7145 1258,82.5C 1258.26,76.9698 1258.1,71.4698 1257.5,66C 1257.04,62.9933 1258.04,60.8266 1260.5,59.5 Z"/>
  <path opacity="0.948" fill="#353844" d="M 1347.5,59.5 C 1352.43,60.5818 1356.09,63.4152 1358.5,68C 1363.38,67.7437 1368.21,66.9104 1373,65.5C 1374.63,65.8777 1376.13,66.5444 1377.5,67.5C 1382.68,78.4971 1385.51,90.1637 1386,102.5C 1386.46,105.181 1387.29,107.681 1388.5,110C 1387.69,113.935 1385.86,114.435 1383,111.5C 1381.72,101.435 1380.05,91.4354 1378,81.5C 1373.85,73.2332 1368.85,72.5665 1363,79.5C 1360.81,83.9438 1358.48,88.2772 1356,92.5C 1355.56,98.1716 1355.06,103.838 1354.5,109.5C 1355.18,113.865 1355.68,118.198 1356,122.5C 1353.67,125.167 1351.33,125.167 1349,122.5C 1347.27,116.968 1346.27,111.301 1346,105.5C 1345.12,94.8467 1344.46,84.18 1344,73.5C 1339.76,67.1982 1340.92,62.5315 1347.5,59.5 Z"/>
  <path opacity="0.738" fill="#353845" d="M 1396.5,63.5 C 1399.67,63.9522 1400.01,64.9522 1397.5,66.5C 1395.48,65.8671 1395.15,64.8671 1396.5,63.5 Z"/>
  <path opacity="0.971" fill="#343742" d="M 1014.5,63.5 C 1015.83,63.5 1017.17,63.5 1018.5,63.5C 1018.5,64.8333 1018.5,66.1667 1018.5,67.5C 1014.56,68.234 1013.23,66.9007 1014.5,63.5 Z"/>
  <path opacity="0.952" fill="#353844" d="M 241.5,65.5 C 255.138,63.5317 266.972,67.1984 277,76.5C 279.141,80.321 278.974,83.9876 276.5,87.5C 268.533,90.1056 260.533,92.6056 252.5,95C 249.77,95.7284 247.103,95.5617 244.5,94.5C 241.468,95.0117 240.301,96.6784 241,99.5C 246.634,111.144 255.467,114.978 267.5,111C 266.663,109.989 266.33,108.822 266.5,107.5C 270.165,107.817 271.665,109.817 271,113.5C 264.059,119.527 256.226,121.027 247.5,118C 232.933,110.656 226.433,98.8231 228,82.5C 228.438,79.624 229.438,76.9573 231,74.5C 234.085,70.9741 237.585,67.9741 241.5,65.5 Z M 250.5,75.5 C 254.062,75.9652 257.395,77.1319 260.5,79C 258.072,80.4431 255.405,81.2764 252.5,81.5C 249.174,80.9534 245.84,80.4534 242.5,80C 245.099,78.205 247.766,76.705 250.5,75.5 Z"/>
  <path opacity="0.940" fill="#353844" d="M 434.5,64.5 C 441.205,63.7772 447.372,65.1105 453,68.5C 457.026,63.1181 460.526,63.4515 463.5,69.5C 461.143,72.0234 460.143,75.0234 460.5,78.5C 461.952,96.8529 461.785,115.186 460,133.5C 456.027,154.904 443.527,162.738 422.5,157C 416.875,155.21 414.208,151.377 414.5,145.5C 415.873,145.343 417.207,145.51 418.5,146C 426.782,154.827 435.782,155.661 445.5,148.5C 452.827,137.584 455.16,125.584 452.5,112.5C 439.791,117.32 429.291,114.32 421,103.5C 420.449,98.751 419.616,94.0843 418.5,89.5C 418.447,83.4789 420.614,78.4789 425,74.5C 426.71,69.7393 429.877,66.4059 434.5,64.5 Z M 446.5,80.5 C 448.144,80.2865 449.644,80.6198 451,81.5C 452.497,89.7791 452.831,98.1125 452,106.5C 447.416,109.267 442.916,109.1 438.5,106C 436.69,103.356 434.69,100.856 432.5,98.5C 432.953,94.3928 434.453,90.7261 437,87.5C 440.631,85.6891 443.798,83.3557 446.5,80.5 Z"/>
  <path opacity="0.945" fill="#353843" d="M 824.5,64.5 C 831.355,63.6912 837.688,65.0246 843.5,68.5C 845.745,64.7014 848.745,63.868 852.5,66C 853.081,66.8926 853.415,67.8926 853.5,69C 851.952,73.28 851.286,77.78 851.5,82.5C 852.784,99.35 852.617,116.017 851,132.5C 846.579,155.914 833.079,163.747 810.5,156C 809,154.5 807.5,153 806,151.5C 805.149,148.947 805.482,146.614 807,144.5C 809.795,146.293 812.295,148.46 814.5,151C 826.87,156.322 835.704,152.822 841,140.5C 844.053,131.314 844.719,121.981 843,112.5C 829.533,117.234 818.7,113.734 810.5,102C 811.059,101.275 811.392,100.442 811.5,99.5C 808.858,92.6859 808.858,85.8526 811.5,79C 814.56,76.9439 816.393,74.1105 817,70.5C 819.405,68.2481 821.905,66.2481 824.5,64.5 Z M 839.5,79.5 C 840.79,80.0577 841.623,81.0577 842,82.5C 842.242,89.1958 842.742,95.8625 843.5,102.5C 842.954,104.135 842.62,105.801 842.5,107.5C 832.928,109.716 826.595,106.216 823.5,97C 823.868,93.4295 825.202,90.2629 827.5,87.5C 831.807,85.1751 835.807,82.5084 839.5,79.5 Z"/>
  <path opacity="0.949" fill="#353844" d="M 76.5,65.5 C 89.8374,63.6702 101.671,67.0035 112,75.5C 116.696,82.848 114.862,87.6813 106.5,90C 100.256,90.8176 94.256,92.4843 88.5,95C 84.3454,95.1219 80.3454,95.2886 76.5,95.5C 76.2978,97.9892 76.7978,100.323 78,102.5C 81.9912,108.164 87.3245,111.831 94,113.5C 96.7906,112.594 99.6239,111.927 102.5,111.5C 102.5,110.167 102.5,108.833 102.5,107.5C 103.5,107.5 104.5,107.5 105.5,107.5C 105.383,109.484 106.05,111.15 107.5,112.5C 99.9127,119.914 91.246,121.414 81.5,117C 67.4527,108.74 61.6193,96.5729 64,80.5C 66.8737,74.4564 71.0404,69.4564 76.5,65.5 Z M 85.5,75.5 C 89.4448,75.4778 92.7781,76.8112 95.5,79.5C 89.9444,81.833 84.2778,81.9997 78.5,80C 80.5922,77.964 82.9255,76.464 85.5,75.5 Z"/>
  <path opacity="0.948" fill="#353844" d="M 642.5,65.5 C 649.257,65.1226 655.924,65.6226 662.5,67C 667.659,69.4121 672.659,72.0788 677.5,75C 682.583,82.2546 680.916,87.2546 672.5,90C 666.256,90.8176 660.256,92.4843 654.5,95C 650.345,95.1219 646.345,95.2886 642.5,95.5C 644.322,103.839 649.322,109.672 657.5,113C 661.262,113.146 664.928,112.48 668.5,111C 667.306,108.342 668.306,107.176 671.5,107.5C 671.383,109.484 672.05,111.15 673.5,112.5C 665.044,120.285 655.711,121.452 645.5,116C 634.333,108.521 628.833,98.0206 629,84.5C 629.739,80.6148 631.073,76.9481 633,73.5C 636.358,70.9688 639.524,68.3021 642.5,65.5 Z M 651.5,75.5 C 655.399,75.631 658.732,76.9643 661.5,79.5C 659.153,80.7119 656.653,81.3786 654,81.5C 650.5,81 647,80.5 643.5,80C 646.099,78.205 648.766,76.705 651.5,75.5 Z"/>
  <path opacity="0.967" fill="#353844" d="M 1297.5,67.5 C 1303.32,65.969 1306.98,67.969 1308.5,73.5C 1304.75,79.9146 1302.08,86.7479 1300.5,94C 1301.81,103.302 1307.14,107.302 1316.5,106C 1324.16,102.019 1325.99,96.1852 1322,88.5C 1319.63,85.794 1316.96,83.4606 1314,81.5C 1313.84,79.324 1313,77.4907 1311.5,76C 1312,75.5 1312.5,75 1313,74.5C 1316.85,77.8523 1321.02,80.8523 1325.5,83.5C 1333.85,93.5148 1333.19,103.015 1323.5,112C 1314.23,115.973 1304.89,116.306 1295.5,113C 1285.56,105.38 1282.73,95.547 1287,83.5C 1288.78,76.8807 1292.28,71.5474 1297.5,67.5 Z"/>
  <path opacity="0.951" fill="#353844" d="M 294.5,67.5 C 296.989,67.2978 299.323,67.7978 301.5,69C 302.649,72.0206 303.982,74.8539 305.5,77.5C 311.299,72.6001 317.966,70.6001 325.5,71.5C 325.5,73.1667 325.5,74.8333 325.5,76.5C 318.584,76.2507 313.084,78.9173 309,84.5C 305.467,95.5322 303.467,106.865 303,118.5C 300.947,122.292 297.781,123.458 293.5,122C 291.925,116.996 290.925,111.83 290.5,106.5C 291.632,99.2167 291.799,91.8834 291,84.5C 287.506,80.2039 286.839,75.5372 289,70.5C 291.058,69.7709 292.891,68.7709 294.5,67.5 Z"/>
  <path opacity="0.948" fill="#353844" d="M 744.5,67.5 C 746.989,67.2978 749.323,67.7978 751.5,69C 752.649,72.0206 753.982,74.8539 755.5,77.5C 761.299,72.6001 767.966,70.6001 775.5,71.5C 775.5,73.1667 775.5,74.8333 775.5,76.5C 768.584,76.2507 763.084,78.9173 759,84.5C 755.467,95.5322 753.467,106.865 753,118.5C 750.947,122.292 747.781,123.458 743.5,122C 741.925,116.996 740.925,111.83 740.5,106.5C 741.632,99.2167 741.799,91.8834 741,84.5C 737.506,80.2039 736.839,75.5372 739,70.5C 741.058,69.7709 742.891,68.7709 744.5,67.5 Z"/>
  <path opacity="0.958" fill="#353844" d="M 1077.5,67.5 C 1083.31,65.9696 1086.98,67.9696 1088.5,73.5C 1086.13,77.3738 1083.97,81.3738 1082,85.5C 1077.48,98.6085 1081.98,105.442 1095.5,106C 1101.8,103.575 1103.96,99.0748 1102,92.5C 1100.05,88.22 1097.05,84.8867 1093,82.5C 1091.86,79.8981 1091.03,77.2314 1090.5,74.5C 1091.55,74.3505 1092.55,74.5172 1093.5,75C 1094.83,75.6667 1094.83,76.3333 1093.5,77C 1113.69,85.0562 1116.69,97.2228 1102.5,113.5C 1088.89,119.282 1077.39,116.615 1068,105.5C 1064.3,93.5384 1065.8,82.2051 1072.5,71.5C 1074.42,70.3875 1076.09,69.0542 1077.5,67.5 Z"/>
  <path opacity="0.952" fill="#353944" d="M 1188.5,68.5 C 1191.73,68.561 1193.56,70.2277 1194,73.5C 1194.41,77.1293 1193.91,80.6293 1192.5,84C 1194.12,90.4349 1195.62,96.9349 1197,103.5C 1198.75,106.92 1201.42,109.254 1205,110.5C 1205.16,114.977 1203,116.477 1198.5,115C 1197.67,112.833 1196.17,111.333 1194,110.5C 1192.51,107.519 1191.18,104.519 1190,101.5C 1185.91,114.959 1177.41,118.792 1164.5,113C 1160.18,110.685 1157.35,107.185 1156,102.5C 1155.27,99.4711 1154.43,96.4711 1153.5,93.5C 1153.61,92.5581 1153.94,91.7247 1154.5,91C 1152.78,85.6413 1152.28,80.1413 1153,74.5C 1161.45,69.4692 1166.95,71.8025 1169.5,81.5C 1169.43,82.7716 1169.1,83.9383 1168.5,85C 1172.89,84.7238 1175.56,86.7238 1176.5,91C 1176.35,95.1542 1174.35,97.1542 1170.5,97C 1168.35,94.2052 1167.19,91.0386 1167,87.5C 1164.82,94.5659 1166.32,100.733 1171.5,106C 1174.79,108.074 1177.96,107.908 1181,105.5C 1187.22,97.8048 1188.72,89.3048 1185.5,80C 1185.81,75.9382 1186.81,72.1049 1188.5,68.5 Z"/>
  <path opacity="0.704" fill="#363748" d="M 1247.5,74.5 C 1249.17,74.5 1250.83,74.5 1252.5,74.5C 1252.5,75.8333 1252.5,77.1667 1252.5,78.5C 1250.83,78.5 1249.17,78.5 1247.5,78.5C 1247.5,77.1667 1247.5,75.8333 1247.5,74.5 Z"/>
  <path opacity="0.701" fill="#343b43" d="M 560.5,74.5 C 563.95,73.7564 565.616,75.0897 565.5,78.5C 563.833,78.5 562.167,78.5 560.5,78.5C 560.5,77.1667 560.5,75.8333 560.5,74.5 Z"/>
  <path opacity="0.573" fill="#333741" d="M 961.5,74.5 C 964.95,73.7564 966.616,75.0897 966.5,78.5C 964.833,78.5 963.167,78.5 961.5,78.5C 961.5,77.1667 961.5,75.8333 961.5,74.5 Z"/>
  <path opacity="0.648" fill="#373944" d="M 143.5,85.5 C 146.166,85.0658 147.333,86.0658 147,88.5C 143.403,90.0661 142.237,89.0661 143.5,85.5 Z"/>
  <path opacity="0.922" fill="#353645" d="M 1141.5,85.5 C 1142.83,85.5 1144.17,85.5 1145.5,85.5C 1145.11,89.7376 1143.45,90.4043 1140.5,87.5C 1140.86,86.8165 1141.2,86.1499 1141.5,85.5 Z"/>
  <path opacity="0.687" fill="#353945" d="M 1378.5,112.5 C 1380.46,112.948 1380.8,113.948 1379.5,115.5C 1377.48,114.867 1377.15,113.867 1378.5,112.5 Z"/>
  <path opacity="0.611" fill="#323440" d="M 395.5,112.5 C 396.5,112.5 397.5,112.5 398.5,112.5C 398.5,113.833 398.5,115.167 398.5,116.5C 397.167,116.5 395.833,116.5 394.5,116.5C 394.433,115.041 394.766,113.708 395.5,112.5 Z"/>
  <path opacity="0.714" fill="#393b46" d="M 426.5,116.5 C 429.244,117.072 430.077,118.738 429,121.5C 427.301,122.406 425.467,122.739 423.5,122.5C 423.028,119.642 424.028,117.642 426.5,116.5 Z"/>
  <path opacity="0.660" fill="#343544" d="M 816.5,116.5 C 820.35,116.701 821.35,118.534 819.5,122C 813.062,122.827 812.062,120.993 816.5,116.5 Z"/>
</svg>