<svg viewBox="0 0 970 172" fill-rule="evenodd" clip-rule="evenodd" xmlns="http://www.w3.org/2000/svg">
  <path opacity="0.631" fill="#343845" d="M 269.5,3.5 C 270.5,3.5 271.5,3.5 272.5,3.5C 272.5,4.83333 272.5,6.16667 272.5,7.5C 271.167,7.5 269.833,7.5 268.5,7.5C 268.433,6.04125 268.766,4.70792 269.5,3.5 Z"/>
  <path opacity="0.941" fill="#353844" d="M 18.5,75.5 C 19.3149,74.5707 20.1482,73.5707 21,72.5C 23.7062,60.3036 25.3728,47.9702 26,35.5C 27.9923,31.6841 29.8256,27.8508 31.5,24C 30.4672,20.1864 29.9672,16.3531 30,12.5C 35.4731,6.86032 40.4731,7.19366 45,13.5C 50.5036,24.6514 55.5036,35.9848 60,47.5C 61.5311,56.8235 63.6978,65.9901 66.5,75C 67.444,76.4768 68.7774,77.4768 70.5,78C 74.6564,77.9481 78.4897,78.7815 82,80.5C 83.5445,79.1787 84.7112,79.5121 85.5,81.5C 80.5564,84.4263 75.5564,87.2596 70.5,90C 75.3449,101.878 80.1783,113.711 85,125.5C 86.1505,127.754 86.4838,130.087 86,132.5C 84.9505,133.517 83.7839,133.684 82.5,133C 81.0404,129.911 79.207,127.078 77,124.5C 73.2001,111.392 66.7001,99.8924 57.5,90C 52.8962,88.751 48.2295,89.0844 43.5,91C 38.9545,95.2139 34.1212,99.0473 29,102.5C 28.2953,107.024 27.4619,111.524 26.5,116C 27.8939,123.896 25.5606,130.563 19.5,136C 17.1093,136.287 14.7759,136.787 12.5,137.5C 11.914,137.291 11.414,136.957 11,136.5C 10.7811,137.938 10.2811,139.271 9.5,140.5C 7.4038,139.38 7.07047,137.88 8.5,136C 5.01717,131.555 4.51717,126.721 7,121.5C 15.9561,111.6 17.7895,100.433 12.5,88C 13.8484,83.4714 15.8484,79.3048 18.5,75.5 Z M 38.5,36.5 C 40.4741,38.428 41.9741,40.7613 43,43.5C 45.4266,54.4091 48.5932,65.0758 52.5,75.5C 50.9775,77.2825 48.9775,77.9492 46.5,77.5C 46.5,76.5 46.5,75.5 46.5,74.5C 41.193,74.3994 36.5263,72.7327 32.5,69.5C 32.6899,58.3577 34.6899,47.3577 38.5,36.5 Z"/>
  <path opacity="0.936" fill="#353844" d="M 145.5,8.5 C 155.204,7.3364 164.204,9.16973 172.5,14C 178.335,21.5998 181.335,30.2665 181.5,40C 180.396,45.4587 179.562,50.9587 179,56.5C 178.361,59.1123 177.194,61.4457 175.5,63.5C 171.802,66.3424 168.135,69.1757 164.5,72C 168.85,84.8669 174.683,97.0335 182,108.5C 184.985,117.161 189.985,124.495 197,130.5C 198.903,132.441 199.736,134.774 199.5,137.5C 194.38,136.94 190.046,134.773 186.5,131C 179.771,120.271 171.605,110.771 162,102.5C 157,95.8333 152,89.1667 147,82.5C 144.195,79.3475 140.695,77.6808 136.5,77.5C 134.511,90.2833 132.844,103.117 131.5,116C 132.236,120.593 133.069,125.093 134,129.5C 131.667,130.833 129.333,130.833 127,129.5C 124.023,125.183 122.856,120.349 123.5,115C 127.042,86.4964 130.542,57.9964 134,29.5C 134.729,25.6227 134.562,21.7894 133.5,18C 133.934,15.6839 134.934,13.6839 136.5,12C 139.65,10.9644 142.65,9.7977 145.5,8.5 Z M 155.5,20.5 C 163.106,23.2919 164.439,27.9586 159.5,34.5C 160.99,35.8257 162.324,37.3257 163.5,39C 161.808,43.9854 160.642,49.1521 160,54.5C 158.269,56.6166 156.102,58.1166 153.5,59C 149.184,59.9964 144.851,60.8297 140.5,61.5C 140.335,58.1501 140.502,54.8168 141,51.5C 143.894,42.698 145.894,33.698 147,24.5C 149.564,22.3757 152.397,21.0424 155.5,20.5 Z"/>
  <path opacity="0.932" fill="#353844" d="M 289.5,8.5 C 298.542,8.96501 307.542,9.79834 316.5,11C 320.939,15.7103 323.273,21.377 323.5,28C 322.927,32.1576 322.427,36.3243 322,40.5C 317.736,47.5513 312.236,53.3847 305.5,58C 310.295,58.2048 314.295,60.0381 317.5,63.5C 331.346,80.0199 332.012,97.0199 319.5,114.5C 317.833,115.833 316.167,115.833 314.5,114.5C 317.854,109.793 320.687,104.793 323,99.5C 325.139,92.6034 324.472,85.9368 321,79.5C 317.831,75.2999 314.331,71.4666 310.5,68C 299.221,66.3764 288.221,67.7098 277.5,72C 275.896,73.2365 274.229,74.4032 272.5,75.5C 271.376,81.4478 271.21,87.4478 272,93.5C 273.437,89.2696 275.771,88.6029 279,91.5C 278.629,95.6271 277.962,99.6271 277,103.5C 280.393,106.556 283.393,109.889 286,113.5C 294.985,118.41 304.485,119.743 314.5,117.5C 313.712,120.97 311.712,123.637 308.5,125.5C 304.555,124.732 300.555,124.232 296.5,124C 292.074,121.208 287.241,119.375 282,118.5C 273.554,121.094 265.221,124.094 257,127.5C 251.99,125.818 249.157,122.318 248.5,117C 248.885,113.272 250.385,110.106 253,107.5C 251.408,100.867 253.075,95.2004 258,90.5C 258.667,80.1667 258.667,69.8333 258,59.5C 256.106,52.7567 254.606,45.9234 253.5,39C 254.121,31.8066 254.954,24.64 256,17.5C 257.801,14.2147 260.635,12.3814 264.5,12C 273.076,11.5551 281.409,10.3884 289.5,8.5 Z M 300.5,16.5 C 311.429,15.0069 317.429,19.6736 318.5,30.5C 315.536,43.322 307.869,52.4886 295.5,58C 288.813,58.1517 282.313,59.3183 276,61.5C 274.774,61.3552 273.607,61.0219 272.5,60.5C 271.026,53.0701 270.026,45.5701 269.5,38C 269.267,34.5411 270.101,31.3745 272,28.5C 280.88,22.824 290.38,18.824 300.5,16.5 Z"/>
  <path opacity="0.913" fill="#353844" d="M 754.5,11.5 C 764.167,11.0036 769.834,15.5036 771.5,25C 769.945,44.2534 767.112,63.4201 763,82.5C 761.126,94.4433 760.459,106.443 761,118.5C 763.227,120.607 765.227,122.94 767,125.5C 767.49,126.793 767.657,128.127 767.5,129.5C 761.812,128.989 757.979,125.989 756,120.5C 755.5,115 755,109.5 754.5,104C 756.644,81.8692 756.811,59.7025 755,37.5C 753.725,30.9652 751.892,24.6319 749.5,18.5C 749.667,17.1667 749.833,15.8333 750,14.5C 751.652,13.6006 753.152,12.6006 754.5,11.5 Z"/>
  <path opacity="0.959" fill="#353844" d="M 481.5,19.5 C 488.711,18.8038 495.377,20.3038 501.5,24C 504.476,27.4549 506.81,31.2883 508.5,35.5C 506.77,39.5622 503.77,42.2289 499.5,43.5C 494.127,41.2379 488.627,39.2379 483,37.5C 479.311,39.0487 475.477,40.2154 471.5,41C 464.821,44.4934 460.655,49.9934 459,57.5C 452.635,77.9336 458.135,94.1003 475.5,106C 483.518,108.084 491.185,107.084 498.5,103C 502.023,98.9776 505.357,94.811 508.5,90.5C 510.369,89.3764 512.369,88.5431 514.5,88C 516.189,84.036 519.189,82.536 523.5,83.5C 521.976,97.0486 516.309,108.549 506.5,118C 490.825,123.999 476.492,121.665 463.5,111C 457.957,106.158 452.791,100.991 448,95.5C 446.333,92.1667 444.667,88.8333 443,85.5C 442.776,78.9631 442.276,72.4631 441.5,66C 443.873,56.1024 446.373,46.2691 449,36.5C 450.833,33.3333 453.333,30.8333 456.5,29C 464.621,26.7375 472.621,24.0708 480.5,21C 481.056,20.6174 481.389,20.1174 481.5,19.5 Z"/>
  <path opacity="0.922" fill="#353844" d="M 97.5,32.5 C 99.9118,32.6941 100.912,34.0274 100.5,36.5C 109.376,34.6781 111.376,37.3447 106.5,44.5C 109.829,50.843 107.996,54.843 101,56.5C 94.5538,55.3873 90.7205,51.554 89.5,45C 90.1528,40.3471 92.8195,37.6805 97.5,37C 96.2721,35.5098 96.2721,34.0098 97.5,32.5 Z"/>
  <path opacity="0.917" fill="#353844" d="M 832.5,33.5 C 836.427,35.5627 840.761,36.5627 845.5,36.5C 845.747,39.505 844.747,42.005 842.5,44C 846.003,52.8335 843.003,56.8335 833.5,56C 826.924,52.0261 825.09,46.5261 828,39.5C 829.648,38.283 831.481,37.4497 833.5,37C 832.663,35.9887 832.33,34.8221 832.5,33.5 Z"/>
  <path opacity="0.936" fill="#353844" d="M 792.5,49.5 C 800.553,49.0418 805.219,52.8751 806.5,61C 806.066,63.5684 805.4,66.0684 804.5,68.5C 812.198,69.348 819.865,70.348 827.5,71.5C 827.863,73.9115 826.863,75.4115 824.5,76C 818.539,76.9968 812.539,77.6635 806.5,78C 805.584,78.3742 804.75,78.8742 804,79.5C 803.129,84.8572 802.129,90.1905 801,95.5C 800.281,100.201 800.447,104.867 801.5,109.5C 799.751,115.191 799.584,120.857 801,126.5C 801.465,127.931 802.299,129.097 803.5,130C 806.444,130.97 809.444,131.804 812.5,132.5C 811.91,133.799 810.91,134.632 809.5,135C 800.739,136.639 793.905,133.806 789,126.5C 786.872,110.874 786.372,95.2078 787.5,79.5C 783.457,80.5886 779.457,81.5886 775.5,82.5C 775.244,80.2075 775.577,78.0408 776.5,76C 780.114,75.0642 783.78,74.5642 787.5,74.5C 787.378,67.8044 787.211,61.1377 787,54.5C 789.191,53.1666 791.024,51.5 792.5,49.5 Z"/>
  <path opacity="0.889" fill="#353844" d="M 96.5,66.5 C 98.1992,66.3398 99.8659,66.5065 101.5,67C 104.034,68.8486 106.7,70.5153 109.5,72C 111.182,75.0922 110.349,77.2589 107,78.5C 103.545,96.7695 104.045,114.936 108.5,133C 107.667,135.5 106.167,136 104,134.5C 103.138,132.913 102.471,131.246 102,129.5C 99.7456,118.959 98.4123,108.292 98,97.5C 95.391,95.892 94.0577,93.5587 94,90.5C 93.2073,86.577 93.374,82.7436 94.5,79C 91.1747,74.0258 91.8414,69.8591 96.5,66.5 Z"/>
  <path opacity="0.914" fill="#363844" d="M 589.5,67.5 C 596.872,66.3841 602.372,69.0508 606,75.5C 610.286,74.2858 614.62,73.2858 619,72.5C 620.763,72.9755 622.43,73.6422 624,74.5C 625.471,78.5811 627.138,82.5811 629,86.5C 630.225,95.5179 631.559,104.518 633,113.5C 636.96,118.648 635.794,121.148 629.5,121C 627.024,111.356 625.191,101.523 624,91.5C 623.529,89.7536 622.862,88.087 622,86.5C 619.828,85.4147 617.828,84.0814 616,82.5C 612.081,84.0836 609.081,86.7503 607,90.5C 606.377,94.6908 604.71,98.3574 602,101.5C 601.509,111.192 601.509,120.859 602,130.5C 599.333,133.167 596.667,133.167 594,130.5C 591.367,113.946 589.701,97.2794 589,80.5C 585.536,76.0017 585.703,71.6684 589.5,67.5 Z"/>
  <path opacity="0.922" fill="#353844" d="M 668.5,66.5 C 674.807,65.8754 679.64,68.2087 683,73.5C 684.173,77.3054 683.007,80.1387 679.5,82C 675.167,82.3333 670.833,82.6667 666.5,83C 664.154,84.0128 662.487,85.6794 661.5,88C 667.997,93.4822 674.831,98.6489 682,103.5C 686.072,121.432 678.905,129.266 660.5,127C 655.807,126.29 651.64,124.457 648,121.5C 646,117.5 646,113.5 648,109.5C 649.356,108.62 650.856,108.286 652.5,108.5C 652.335,111.518 652.502,114.518 653,117.5C 660.707,122.787 668.04,122.454 675,116.5C 675.978,113.331 675.478,110.497 673.5,108C 666.895,103.864 659.895,100.531 652.5,98C 646.355,93.1023 644.855,86.9356 648,79.5C 652.389,71.2266 659.222,66.8932 668.5,66.5 Z"/>
  <path opacity="0.897" fill="#353845" d="M 832.5,66.5 C 834.199,66.3398 835.866,66.5065 837.5,67C 839.221,68.5272 841.221,69.5272 843.5,70C 847.647,73.3978 847.48,76.5645 843,79.5C 842.663,85.6133 841.829,91.6133 840.5,97.5C 841.675,100.517 841.675,103.517 840.5,106.5C 841.857,109.333 842.191,112.166 841.5,115C 842.377,120.848 843.377,126.681 844.5,132.5C 843.976,135.396 842.476,136.063 840,134.5C 839.333,132.5 838.667,130.5 838,128.5C 836.173,117.883 834.673,107.217 833.5,96.5C 832.201,95.91 831.368,94.91 831,93.5C 830.291,85.1616 829.958,76.8282 830,68.5C 830.995,67.9341 831.828,67.2674 832.5,66.5 Z"/>
  <path opacity="0.918" fill="#353844" d="M 860.5,67.5 C 867.872,66.3841 873.372,69.0508 877,75.5C 881.286,74.2858 885.62,73.2858 890,72.5C 891.763,72.9755 893.43,73.6422 895,74.5C 896.471,78.5811 898.138,82.5811 900,86.5C 901.367,98.3505 903.201,110.017 905.5,121.5C 902.956,121.896 900.789,121.229 899,119.5C 897.892,108.298 895.892,97.2983 893,86.5C 890.828,85.4147 888.828,84.0814 887,82.5C 883.081,84.0836 880.081,86.7503 878,90.5C 877.101,94.538 875.434,98.2046 873,101.5C 872.736,106.863 872.236,112.197 871.5,117.5C 872.662,121.794 873.162,126.128 873,130.5C 870.333,133.167 867.667,133.167 865,130.5C 862.237,113.967 860.571,97.3007 860,80.5C 856.536,76.0017 856.703,71.6684 860.5,67.5 Z"/>
  <path opacity="0.440" fill="#313440" d="M 18.5,75.5 C 17.1667,75.5 15.8333,75.5 14.5,75.5C 14.1667,72.5 15.5,71.1667 18.5,71.5C 18.5,72.8333 18.5,74.1667 18.5,75.5 Z"/>
  <path opacity="0.637" fill="#343740" d="M 641.5,70.5 C 642.833,70.5 644.167,70.5 645.5,70.5C 645.5,71.8333 645.5,73.1667 645.5,74.5C 641.56,75.234 640.227,73.9007 641.5,70.5 Z"/>
  <path opacity="0.925" fill="#353844" d="M 933.5,71.5 C 940.111,70.9101 946.445,71.9101 952.5,74.5C 955.449,71.2245 958.615,70.8912 962,73.5C 961.036,78.6423 960.536,83.9756 960.5,89.5C 962.031,107.394 961.531,125.061 959,142.5C 953.378,163.715 940.211,170.548 919.5,163C 918,161.5 916.5,160 915,158.5C 914.505,156.527 914.338,154.527 914.5,152.5C 915.873,152.343 917.207,152.51 918.5,153C 924.384,159.973 931.717,161.973 940.5,159C 942.624,157.878 944.457,156.378 946,154.5C 952.195,143.661 954.195,131.994 952,119.5C 946.352,122.373 940.519,122.873 934.5,121C 930.673,119.254 927.007,117.254 923.5,115C 921.751,112.914 920.417,110.581 919.5,108C 919.645,107.228 919.978,106.561 920.5,106C 918.035,99.599 917.869,93.099 920,86.5C 920.667,84.5 922,83.1667 924,82.5C 925.572,77.4297 928.739,73.763 933.5,71.5 Z M 946.5,87.5 C 947.833,87.5 949.167,87.5 950.5,87.5C 951.616,96.5562 951.949,105.556 951.5,114.5C 943.763,116.556 937.596,114.223 933,107.5C 931.96,103.467 932.626,99.8005 935,96.5C 938.703,93.2933 942.536,90.2933 946.5,87.5 Z"/>
  <path opacity="0.927" fill="#353844" d="M 208.5,74.5 C 216.16,72.9957 219.327,75.9957 218,83.5C 214.37,88.9847 211.87,94.9847 210.5,101.5C 211.889,110.056 216.889,113.89 225.5,113C 233.701,109.627 235.535,104.127 231,96.5C 215.492,81.3522 216.992,79.1855 235.5,90C 244.239,101.201 243.239,111.535 232.5,121C 219.458,126.111 208.291,123.611 199,113.5C 197.093,109.735 195.926,105.735 195.5,101.5C 196.678,95.0821 198.178,88.7488 200,82.5C 202.074,78.9231 204.907,76.2565 208.5,74.5 Z"/>
  <path opacity="0.921" fill="#353844" d="M 544.5,74.5 C 552.16,72.9957 555.327,75.9957 554,83.5C 550.37,88.9847 547.87,94.9847 546.5,101.5C 548.043,110.536 553.376,114.369 562.5,113C 569.792,109.085 571.292,103.585 567,96.5C 564.629,93.794 561.963,91.4606 559,89.5C 558.767,87.2199 557.934,85.2199 556.5,83.5C 556.709,82.914 557.043,82.414 557.5,82C 562.265,84.0623 566.932,86.729 571.5,90C 578.457,97.8547 579.29,106.355 574,115.5C 569.098,121.448 562.764,124.115 555,123.5C 544.543,123.611 537.21,118.945 533,109.5C 531.859,100.351 532.859,91.3513 536,82.5C 538.157,79.0241 540.99,76.3575 544.5,74.5 Z"/>
  <path opacity="0.938" fill="#353844" d="M 350.5,74.5 C 358.437,72.6055 361.604,75.6055 360,83.5C 355.105,89.6285 352.772,96.6285 353,104.5C 355.913,111.374 361.08,114.208 368.5,113C 374.297,110.24 376.463,105.74 375,99.5C 372.353,95.6865 369.187,92.3531 365.5,89.5C 364.877,87.2895 363.877,85.2895 362.5,83.5C 362.709,82.914 363.043,82.414 363.5,82C 371.666,84.8072 378.166,89.9739 383,97.5C 385.18,113.999 377.847,122.666 361,123.5C 350.354,123.189 343.021,118.189 339,108.5C 337.541,97.9437 339.541,87.9437 345,78.5C 347.015,77.3034 348.849,75.9701 350.5,74.5 Z"/>
  <path opacity="0.911" fill="#353844" d="M 730.5,75.5 C 733.188,76.0241 734.688,77.6908 735,80.5C 733.669,91.2637 735.002,101.93 739,112.5C 740.981,114.657 743.314,116.324 746,117.5C 746.117,122.191 743.951,123.524 739.5,121.5C 738.472,119.639 736.972,118.305 735,117.5C 733.924,114.352 732.591,111.352 731,108.5C 726.913,121.959 718.413,125.792 705.5,120C 701.183,117.685 698.35,114.185 697,109.5C 696.245,106.312 695.411,103.145 694.5,100C 694.645,99.228 694.978,98.5613 695.5,98C 693.459,92.1925 693.292,86.3592 695,80.5C 705.041,76.8736 710.375,80.5402 711,91.5C 718.38,94.675 719.213,99.0084 713.5,104.5C 712.186,103.687 711.019,102.687 710,101.5C 709.83,99.2852 709.163,97.2852 708,95.5C 704.926,104.974 707.926,111.308 717,114.5C 719.406,114.297 721.406,113.297 723,111.5C 728.51,104.424 729.677,96.7571 726.5,88.5C 727.244,85.557 727.744,82.557 728,79.5C 728.48,77.867 729.313,76.5336 730.5,75.5 Z"/>
  <path opacity="0.616" fill="#363a45" d="M 819.5,81.5 C 821.167,81.5 822.833,81.5 824.5,81.5C 824.5,82.8333 824.5,84.1667 824.5,85.5C 822.833,85.5 821.167,85.5 819.5,85.5C 819.5,84.1667 819.5,82.8333 819.5,81.5 Z"/>
  <path opacity="0.930" fill="#343743" d="M 294.5,85.5 C 298.374,86.1397 302.207,86.473 306,86.5C 307.14,89.5282 306.306,91.6949 303.5,93C 307.807,98.4505 311.473,104.284 314.5,110.5C 313.921,112.461 312.587,113.461 310.5,113.5C 298.539,110.704 291.539,103.204 289.5,91C 290.34,88.3304 292.006,86.4971 294.5,85.5 Z"/>
  <path opacity="0.341" fill="#33343f" d="M 140.5,88.5 C 141.5,88.5 142.5,88.5 143.5,88.5C 143.5,89.8333 143.5,91.1667 143.5,92.5C 140.046,92.7332 139.046,91.3999 140.5,88.5 Z"/>
  <path opacity="0.575" fill="#353945" d="M 772.5,92.5 C 773.5,92.5 774.5,92.5 775.5,92.5C 775.5,93.8333 775.5,95.1667 775.5,96.5C 772.046,96.7332 771.046,95.3999 772.5,92.5 Z"/>
  <path opacity="0.549" fill="#353742" d="M 4.5,113.5 C 5.5,113.5 6.5,113.5 7.5,113.5C 7.5,114.833 7.5,116.167 7.5,117.5C 6.5,117.5 5.5,117.5 4.5,117.5C 4.5,116.167 4.5,114.833 4.5,113.5 Z"/>
  <path opacity="0.522" fill="#333643" d="M 623.5,119.5 C 625.346,119.222 626.68,119.889 627.5,121.5C 626.68,123.111 625.346,123.778 623.5,123.5C 623.5,122.167 623.5,120.833 623.5,119.5 Z"/>
  <path opacity="0.363" fill="#373a45" d="M 894.5,119.5 C 896.346,119.222 897.68,119.889 898.5,121.5C 897.68,123.111 896.346,123.778 894.5,123.5C 894.5,122.167 894.5,120.833 894.5,119.5 Z"/>
  <path opacity="0.755" fill="#363843" d="M 925.5,123.5 C 929.35,123.701 930.35,125.534 928.5,129C 922.062,129.827 921.062,127.993 925.5,123.5 Z"/>
  <path opacity="0.278" fill="#353944" d="M 83.5,135.5 C 84.5,135.5 85.5,135.5 86.5,135.5C 86.5,136.5 86.5,137.5 86.5,138.5C 85.5,138.5 84.5,138.5 83.5,138.5C 83.5,137.5 83.5,136.5 83.5,135.5 Z"/>
</svg>