<svg viewBox="0 0 419 404" fill-rule="evenodd" clip-rule="evenodd" xmlns="http://www.w3.org/2000/svg">
  <!--rect width="419" height="404" fill="LightGreen" /-->
  <!--path fill="#fefefe" d="M -0.5,-0.5 C 139.167,-0.5 278.833,-0.5 418.5,-0.5C 418.5,134.167 418.5,268.833 418.5,403.5C 278.833,403.5 139.167,403.5 -0.5,403.5C -0.5,268.833 -0.5,134.167 -0.5,-0.5 Z"/-->
  <path fill="#8f76e3" d="M 203.5,30.5 C 205.604,32.3718 206.937,34.7052 207.5,37.5C 207.5,38.5 207.5,39.5 207.5,40.5C 206.694,43.4456 205.361,46.1123 203.5,48.5C 200.365,50.0233 197.032,50.69 193.5,50.5C 184.825,47.8163 181.991,42.1496 185,33.5C 190.312,26.8168 196.478,25.8168 203.5,30.5 Z"/>
  <path fill="#a0a0a1" d="M 207.5,37.5 C 210.614,38.0913 213.114,39.758 215,42.5C 216.022,48.2691 216.855,53.9357 217.5,59.5C 217.158,60.3382 216.492,60.6716 215.5,60.5C 214.167,59.8333 213.167,58.8333 212.5,57.5C 212.666,52.8215 212.499,48.1548 212,43.5C 210.871,41.8588 209.371,40.8588 207.5,40.5C 207.5,39.5 207.5,38.5 207.5,37.5 Z"/>
  <path fill="#747475" d="M 207.5,40.5 C 209.371,40.8588 210.871,41.8588 212,43.5C 212.499,48.1548 212.666,52.8215 212.5,57.5C 210.833,56.8333 209.167,56.1667 207.5,55.5C 206.404,52.9684 205.071,50.6351 203.5,48.5C 205.361,46.1123 206.694,43.4456 207.5,40.5 Z"/>
  <path fill="#cbc0ee" d="M 203.5,48.5 C 205.071,50.6351 206.404,52.9684 207.5,55.5C 203.301,55.4355 199.634,56.7689 196.5,59.5C 196.235,56.1629 195.235,53.1629 193.5,50.5C 197.032,50.69 200.365,50.0233 203.5,48.5 Z"/>
  <path fill="#cec4f1" d="M 147.5,52.5 C 148.176,54.8591 149.009,57.1924 150,59.5C 152.612,56.4241 155.779,55.7575 159.5,57.5C 161.659,59.9544 161.992,62.6211 160.5,65.5C 159.833,65.5 159.5,65.8333 159.5,66.5C 159.167,67.1667 158.833,67.8333 158.5,68.5C 155.833,70.8333 153.167,73.1667 150.5,75.5C 148.881,64.8555 142.881,61.0222 132.5,64C 130.266,66.0627 128.266,68.2294 126.5,70.5C 123.239,65.6795 122.906,60.6795 125.5,55.5C 129.004,54.7944 132.171,53.4611 135,51.5C 139.165,51.5062 143.332,51.8395 147.5,52.5 Z"/>
  <path fill="#d6d6d6" d="M 203.5,30.5 C 213.277,30.1004 219.11,34.7671 221,44.5C 221.219,49.5824 221.719,54.5824 222.5,59.5C 220.833,59.5 219.167,59.5 217.5,59.5C 216.855,53.9357 216.022,48.2691 215,42.5C 213.114,39.758 210.614,38.0913 207.5,37.5C 206.937,34.7052 205.604,32.3718 203.5,30.5 Z"/>
  <path fill="#e8e8e9" d="M 147.5,52.5 C 150.518,52.3354 153.518,52.502 156.5,53C 162.116,55.8671 167.783,58.5338 173.5,61C 175.487,62.3189 176.654,64.1523 177,66.5C 177.308,70.7382 177.475,74.7382 177.5,78.5C 167.741,89.0166 161.408,101.35 158.5,115.5C 154.852,110.51 153.685,104.843 155,98.5C 158.97,89.1959 163.804,80.3625 169.5,72C 169.355,70.7741 169.022,69.6074 168.5,68.5C 166.19,66.5175 163.523,65.5175 160.5,65.5C 161.992,62.6211 161.659,59.9544 159.5,57.5C 155.779,55.7575 152.612,56.4241 150,59.5C 149.009,57.1924 148.176,54.8591 147.5,52.5 Z"/>
  <path fill="#937ce4" d="M 217.5,59.5 C 219.167,59.5 220.833,59.5 222.5,59.5C 230.744,59.5407 238.744,60.874 246.5,63.5C 256.527,67.5151 265.193,73.5151 272.5,81.5C 278.45,88.4023 283.117,96.0689 286.5,104.5C 286.5,105.833 286.5,107.167 286.5,108.5C 285.5,108.5 284.5,108.5 283.5,108.5C 281.833,108.5 280.167,108.5 278.5,108.5C 277.533,95.9061 271.867,85.9061 261.5,78.5C 251.869,70.6792 240.869,66.5126 228.5,66C 227.62,67.3561 227.286,68.8561 227.5,70.5C 205.243,78.0006 196.743,93.3339 202,116.5C 204.577,122.551 208.077,127.884 212.5,132.5C 212.253,135.939 212.586,139.272 213.5,142.5C 213.5,143.5 213.5,144.5 213.5,145.5C 210.272,141.444 206.439,137.777 202,134.5C 186.421,113.742 186.921,93.4082 203.5,73.5C 206.92,70.0684 210.587,67.0684 214.5,64.5C 216.493,63.5284 216.826,62.1951 215.5,60.5C 216.492,60.6716 217.158,60.3382 217.5,59.5 Z"/>
  <path fill="#6b4bda" d="M 207.5,55.5 C 209.167,56.1667 210.833,56.8333 212.5,57.5C 213.167,58.8333 214.167,59.8333 215.5,60.5C 216.826,62.1951 216.493,63.5284 214.5,64.5C 208.388,66.1939 202.388,68.1939 196.5,70.5C 194.824,69.8166 194.157,68.4832 194.5,66.5C 194.767,64.0347 195.434,61.7014 196.5,59.5C 199.634,56.7689 203.301,55.4355 207.5,55.5 Z"/>
  <path fill="#927be4" d="M 150.5,75.5 C 149.841,80.8277 147.174,84.8277 142.5,87.5C 137.765,88.0376 133.431,87.0376 129.5,84.5C 126.909,80.2305 125.909,75.5639 126.5,70.5C 128.266,68.2294 130.266,66.0627 132.5,64C 142.881,61.0222 148.881,64.8555 150.5,75.5 Z"/>
  <path fill="#8064df" d="M 194.5,66.5 C 194.157,68.4832 194.824,69.8166 196.5,70.5C 193.603,71.5581 191.436,73.5581 190,76.5C 181.884,91.5335 180.384,107.2 185.5,123.5C 184.425,122.438 183.425,122.438 182.5,123.5C 185.229,128.802 183.729,132.469 178,134.5C 172.937,132.955 170.437,129.621 170.5,124.5C 166.682,123.286 163.015,121.62 159.5,119.5C 158.833,119.5 158.5,119.167 158.5,118.5C 158.5,117.5 158.5,116.5 158.5,115.5C 161.408,101.35 167.741,89.0166 177.5,78.5C 182.612,73.7224 188.279,69.7224 194.5,66.5 Z"/>
  <path fill="#bdade2" d="M 261.5,78.5 C 261.84,80.679 262.84,82.5123 264.5,84C 264.018,85.0084 263.852,86.175 264,87.5C 253.757,77.6273 241.59,71.9606 227.5,70.5C 227.286,68.8561 227.62,67.3561 228.5,66C 240.869,66.5126 251.869,70.6792 261.5,78.5 Z"/>
  <path fill="#856be1" d="M 214.5,64.5 C 210.587,67.0684 206.92,70.0684 203.5,73.5C 186.921,93.4082 186.421,113.742 202,134.5C 206.439,137.777 210.272,141.444 213.5,145.5C 215.676,147.031 218.176,147.697 221,147.5C 239.833,146.095 258.666,144.762 277.5,143.5C 277.768,141.901 277.434,140.568 276.5,139.5C 279.305,138.935 281.972,137.935 284.5,136.5C 285.259,138.436 286.259,140.269 287.5,142C 285.32,146.517 283.32,151.017 281.5,155.5C 277.366,154.515 273.032,154.182 268.5,154.5C 268.5,153.5 268.5,152.5 268.5,151.5C 262.139,151.603 255.806,152.103 249.5,153C 248.663,154.011 248.33,155.178 248.5,156.5C 243.507,156.916 238.507,157.249 233.5,157.5C 229.519,158.021 225.519,158.354 221.5,158.5C 208.51,159.5 195.51,160 182.5,160C 180.291,158.127 178.458,155.96 177,153.5C 174.848,156.033 174.348,158.7 175.5,161.5C 173.5,161.5 171.5,161.5 169.5,161.5C 165.692,155.551 162.692,149.217 160.5,142.5C 159.85,140.565 159.517,138.565 159.5,136.5C 159.47,135.503 159.97,134.836 161,134.5C 162.766,135.233 164.599,135.567 166.5,135.5C 169.944,145.22 176.277,147.72 185.5,143C 192.126,136.469 192.126,129.969 185.5,123.5C 180.384,107.2 181.884,91.5335 190,76.5C 191.436,73.5581 193.603,71.5581 196.5,70.5C 202.388,68.1939 208.388,66.1939 214.5,64.5 Z"/>
  <path fill="#a08be7" d="M 227.5,70.5 C 241.59,71.9606 253.757,77.6273 264,87.5C 263.852,86.175 264.018,85.0084 264.5,84C 262.84,82.5123 261.84,80.679 261.5,78.5C 271.867,85.9061 277.533,95.9061 278.5,108.5C 280.167,108.5 281.833,108.5 283.5,108.5C 283.5,108.833 283.5,109.167 283.5,109.5C 260.146,110.608 236.813,112.108 213.5,114C 212.056,115.126 211.39,116.626 211.5,118.5C 212.315,123.132 212.648,127.799 212.5,132.5C 208.077,127.884 204.577,122.551 202,116.5C 196.743,93.3339 205.243,78.0006 227.5,70.5 Z"/>
  <path fill="#d3d3d4" d="M 246.5,63.5 C 254.613,63.7239 261.279,66.8906 266.5,73C 268.608,73.3599 270.608,74.0266 272.5,75C 283.144,83.4783 290.978,93.9783 296,106.5C 296.689,107.357 297.522,108.023 298.5,108.5C 299.332,118.483 299.832,128.483 300,138.5C 301.172,141.129 302.672,143.462 304.5,145.5C 301.461,144.99 298.461,144.323 295.5,143.5C 294.714,133.213 294.214,122.879 294,112.5C 293.333,109.833 292.667,107.167 292,104.5C 287.218,96.5916 281.718,89.2583 275.5,82.5C 274.583,81.8728 273.583,81.5394 272.5,81.5C 265.193,73.5151 256.527,67.5151 246.5,63.5 Z"/>
  <path fill="#8d8d8d" d="M 159.5,66.5 C 165.224,66.9212 167.724,69.9212 167,75.5C 165.01,77.6558 162.843,79.6558 160.5,81.5C 157.5,86.9841 154.334,92.3174 151,97.5C 149.992,103.41 150.492,109.077 152.5,114.5C 151.167,113.5 149.833,112.5 148.5,111.5C 148.5,110.833 148.167,110.5 147.5,110.5C 147.5,110.167 147.5,109.833 147.5,109.5C 148.325,105.353 148.825,101.019 149,96.5C 153.672,88.8485 158.672,81.5152 164,74.5C 164.323,70.7084 162.489,68.7084 158.5,68.5C 158.833,67.8333 159.167,67.1667 159.5,66.5 Z"/>
  <path fill="#6f6f70" d="M 158.5,68.5 C 162.489,68.7084 164.323,70.7084 164,74.5C 158.672,81.5152 153.672,88.8485 149,96.5C 148.825,101.019 148.325,105.353 147.5,109.5C 143.386,102.803 141.72,95.4696 142.5,87.5C 147.174,84.8277 149.841,80.8277 150.5,75.5C 153.167,73.1667 155.833,70.8333 158.5,68.5 Z"/>
  <path fill="#9c9c9d" d="M 272.5,81.5 C 273.583,81.5394 274.583,81.8728 275.5,82.5C 281.718,89.2583 287.218,96.5916 292,104.5C 292.667,107.167 293.333,109.833 294,112.5C 294.214,122.879 294.714,133.213 295.5,143.5C 294.391,143.443 293.391,143.11 292.5,142.5C 291.559,140.95 290.893,139.284 290.5,137.5C 290.666,129.16 290.5,120.827 290,112.5C 289.422,109.428 288.255,106.761 286.5,104.5C 283.117,96.0689 278.45,88.4023 272.5,81.5 Z"/>
  <path fill="#b9b3ed" d="M 129.5,84.5 C 133.431,87.0376 137.765,88.0376 142.5,87.5C 141.72,95.4696 143.386,102.803 147.5,109.5C 147.5,109.833 147.5,110.167 147.5,110.5C 142.983,110.946 138.983,112.279 135.5,114.5C 132.583,109.49 130.583,104.157 129.5,98.5C 129.5,93.8333 129.5,89.1667 129.5,84.5 Z"/>
  <path fill="#cfc4f1" d="M 363.5,103.5 C 365.081,105.142 365.747,107.142 365.5,109.5C 365.5,109.833 365.5,110.167 365.5,110.5C 364.167,111.167 363.167,112.167 362.5,113.5C 361.5,113.833 360.833,114.5 360.5,115.5C 357.167,118.5 353.833,121.5 350.5,124.5C 352.075,112.079 346.742,106.245 334.5,107C 328.076,109.678 325.076,114.511 325.5,121.5C 322.022,116.566 318.522,111.566 315,106.5C 313.183,99.1444 316.017,96.311 323.5,98C 325.62,100.409 327.62,102.909 329.5,105.5C 333.41,100.563 337.744,100.23 342.5,104.5C 346.221,102.757 349.388,103.424 352,106.5C 355.081,101.671 358.914,100.671 363.5,103.5 Z"/>
  <!--path fill="#f1f1f1" d="M 363.5,103.5 C 376.598,102.432 382.432,108.432 381,121.5C 375.621,129.886 369.121,137.386 361.5,144C 357.56,145.886 354.06,148.386 351,151.5C 346.111,159.444 340.611,166.944 334.5,174C 324.755,179.336 314.755,179.669 304.5,175C 298.342,173.328 293.509,175.162 290,180.5C 288.124,182.422 286.624,184.589 285.5,187C 285.645,187.772 285.978,188.439 286.5,189C 294.192,191.242 299.358,196.075 302,203.5C 301.14,213.105 300.474,222.772 300,232.5C 298.693,236.283 297.526,240.116 296.5,244C 296.735,244.873 297.069,245.707 297.5,246.5C 303.45,249.095 309.45,251.595 315.5,254C 320.009,257.005 322.676,261.172 323.5,266.5C 321.828,270.37 321.328,274.37 322,278.5C 344,295.167 363.333,314.5 380,336.5C 384.174,342.846 387.841,349.512 391,356.5C 393.053,363.95 391.22,370.116 385.5,375C 374.313,378.593 362.813,380.426 351,380.5C 327.259,379.284 303.925,375.617 281,369.5C 279.5,369.833 278,370.167 276.5,370.5C 273.363,377.242 268.029,380.742 260.5,381C 247.233,382.216 234.233,380.883 221.5,377C 208.063,372.635 195.063,367.301 182.5,361C 161.853,349.032 141.187,337.032 120.5,325C 97.0655,311.302 71.7321,304.302 44.5,304C 36.9497,300.227 33.6163,294.061 34.5,285.5C 35.6049,286.6 36.9382,287.267 38.5,287.5C 38.2924,289.92 38.6258,292.253 39.5,294.5C 41.3159,295.815 42.9825,297.315 44.5,299C 59.0348,299.567 73.3681,301.567 87.5,305C 93.9721,309.16 100.972,312.16 108.5,314C 114.986,318.434 121.986,321.601 129.5,323.5C 130.646,328.071 133.646,330.238 138.5,330C 143.636,333.153 148.636,336.486 153.5,340C 159.053,340.609 164.053,342.609 168.5,346C 170.037,347.11 170.703,348.61 170.5,350.5C 175.904,352.024 181.237,353.857 186.5,356C 191.833,359.333 197.167,362.667 202.5,366C 213.167,369 223.833,372 234.5,375C 235.672,375.419 236.672,376.085 237.5,377C 246.909,377.917 256.242,377.584 265.5,376C 270.383,373.736 272.883,369.902 273,364.5C 273.893,363.919 274.893,363.585 276,363.5C 287.126,366.905 298.292,369.905 309.5,372.5C 315.431,375.145 321.764,376.645 328.5,377C 343.167,377.667 357.833,377.667 372.5,377C 380.522,376.915 386.355,373.415 390,366.5C 390.684,363.62 390.517,360.787 389.5,358C 387.006,354.184 384.173,350.684 381,347.5C 380.755,341.76 378.755,336.76 375,332.5C 361.265,317.763 347.098,303.263 332.5,289C 328.341,286.178 324.175,283.345 320,280.5C 319.517,275.751 320.017,271.084 321.5,266.5C 320.928,262.191 318.928,258.691 315.5,256C 309.003,252.998 302.503,250.164 296,247.5C 294.651,244.148 294.984,240.815 297,237.5C 297.457,225.098 298.124,212.765 299,200.5C 295.359,195.422 290.525,191.922 284.5,190C 283.402,187.502 283.568,185.002 285,182.5C 288.465,180.037 291.631,177.204 294.5,174C 295.5,173.667 296.5,173.333 297.5,173C 305.167,173.831 312.834,174.998 320.5,176.5C 324.377,176.819 327.711,175.652 330.5,173C 338.044,162.113 346.378,151.779 355.5,142C 356.833,141.667 358.167,141.333 359.5,141C 365.338,135.495 370.838,129.662 376,123.5C 379.428,113.305 375.928,108.638 365.5,109.5C 365.747,107.142 365.081,105.142 363.5,103.5 Z"/-->
  <path fill="#ecebed" d="M 129.5,98.5 C 130.583,104.157 132.583,109.49 135.5,114.5C 136.167,115.833 136.833,117.167 137.5,118.5C 138.32,120.812 139.153,123.146 140,125.5C 143.5,127.667 146.333,130.5 148.5,134C 152.675,136.689 156.675,139.523 160.5,142.5C 162.692,149.217 165.692,155.551 169.5,161.5C 172.123,165.791 175.456,169.457 179.5,172.5C 181.379,175.115 183.712,177.281 186.5,179C 184.627,180.704 182.96,182.537 181.5,184.5C 181.167,185.5 180.5,186.167 179.5,186.5C 175.498,181.324 171.664,175.991 168,170.5C 164.951,164.026 162.284,157.36 160,150.5C 155.454,146.286 150.621,142.453 145.5,139C 134.602,127.824 129.268,114.324 129.5,98.5 Z"/>
  <path fill="#9078e3" d="M 350.5,124.5 C 347.767,128.871 343.767,131.204 338.5,131.5C 333.004,131.66 329.004,129.327 326.5,124.5C 326.443,123.391 326.11,122.391 325.5,121.5C 325.076,114.511 328.076,109.678 334.5,107C 346.742,106.245 352.075,112.079 350.5,124.5 Z"/>
  <path fill="#a18ce8" d="M 147.5,110.5 C 148.167,110.5 148.5,110.833 148.5,111.5C 146.832,113.34 145.332,115.34 144,117.5C 142.871,119.141 141.371,120.141 139.5,120.5C 139.167,119.5 138.5,118.833 137.5,118.5C 136.833,117.167 136.167,115.833 135.5,114.5C 138.983,112.279 142.983,110.946 147.5,110.5 Z"/>
  <path fill="#b1b1b1" d="M 159.5,66.5 C 159.5,65.8333 159.833,65.5 160.5,65.5C 163.523,65.5175 166.19,66.5175 168.5,68.5C 169.022,69.6074 169.355,70.7741 169.5,72C 163.804,80.3625 158.97,89.1959 155,98.5C 153.685,104.843 154.852,110.51 158.5,115.5C 158.5,116.5 158.5,117.5 158.5,118.5C 155.802,118.155 153.802,116.822 152.5,114.5C 150.492,109.077 149.992,103.41 151,97.5C 154.334,92.3174 157.5,86.9841 160.5,81.5C 162.843,79.6558 165.01,77.6558 167,75.5C 167.724,69.9212 165.224,66.9212 159.5,66.5 Z"/>
  <path fill="#efeeef" d="M 283.5,109.5 C 284.44,117.779 284.773,126.112 284.5,134.5C 284.5,135.167 284.5,135.833 284.5,136.5C 281.972,137.935 279.305,138.935 276.5,139.5C 275.167,139.5 273.833,139.5 272.5,139.5C 271.127,139.657 269.793,139.49 268.5,139C 266.007,136.92 263.341,135.086 260.5,133.5C 256.77,136.252 253.103,138.919 249.5,141.5C 239.786,141.459 230.119,142.125 220.5,143.5C 218.079,143.44 215.746,143.107 213.5,142.5C 212.586,139.272 212.253,135.939 212.5,132.5C 212.648,127.799 212.315,123.132 211.5,118.5C 211.39,116.626 212.056,115.126 213.5,114C 236.813,112.108 260.146,110.608 283.5,109.5 Z"/>
  <path fill="#706f72" d="M 286.5,104.5 C 288.255,106.761 289.422,109.428 290,112.5C 290.5,120.827 290.666,129.16 290.5,137.5C 288.784,135.975 286.784,134.975 284.5,134.5C 284.773,126.112 284.44,117.779 283.5,109.5C 283.5,109.167 283.5,108.833 283.5,108.5C 284.5,108.5 285.5,108.5 286.5,108.5C 286.5,107.167 286.5,105.833 286.5,104.5 Z"/>
  <path fill="#b7b2ed" d="M 148.5,111.5 C 149.833,112.5 151.167,113.5 152.5,114.5C 153.802,116.822 155.802,118.155 158.5,118.5C 158.5,119.167 158.833,119.5 159.5,119.5C 157.5,123.167 155.5,126.833 153.5,130.5C 147.993,128.323 143.326,124.99 139.5,120.5C 141.371,120.141 142.871,119.141 144,117.5C 145.332,115.34 146.832,113.34 148.5,111.5 Z"/>
  <path fill="#5833d5" d="M 278.5,118.5 C 272.658,119.881 271.991,122.714 276.5,127C 277.448,127.483 278.448,127.649 279.5,127.5C 277.432,133.722 274.599,134.056 271,128.5C 270.333,125.167 270.333,121.833 271,118.5C 273.64,114.543 276.14,114.543 278.5,118.5 Z"/>
  <path fill="#8166e0" d="M 278.5,118.5 C 279.94,119.946 280.607,121.779 280.5,124C 280.486,125.385 280.152,126.551 279.5,127.5C 278.448,127.649 277.448,127.483 276.5,127C 271.991,122.714 272.658,119.881 278.5,118.5 Z"/>
  <path fill="#5c37d5" d="M 236.5,120.5 C 232.207,122.674 231.54,125.674 234.5,129.5C 235.736,130.246 237.07,130.579 238.5,130.5C 237.359,135.328 234.859,136.328 231,133.5C 227.788,128.8 227.788,124.133 231,119.5C 233.235,118.02 235.068,118.353 236.5,120.5 Z"/>
  <path fill="#8166df" d="M 236.5,120.5 C 237.966,121.347 238.8,122.68 239,124.5C 239.789,126.712 239.622,128.712 238.5,130.5C 237.07,130.579 235.736,130.246 234.5,129.5C 231.54,125.674 232.207,122.674 236.5,120.5 Z"/>
  <path fill="#9991e6" d="M 159.5,119.5 C 163.015,121.62 166.682,123.286 170.5,124.5C 166.991,127.239 165.657,130.906 166.5,135.5C 164.599,135.567 162.766,135.233 161,134.5C 159.97,134.836 159.47,135.503 159.5,136.5C 158.732,135.737 158.232,134.737 158,133.5C 156.122,132.947 154.622,131.947 153.5,130.5C 155.5,126.833 157.5,123.167 159.5,119.5 Z"/>
  <path fill="#757576" d="M 360.5,115.5 C 363.167,115.5 365.833,115.5 368.5,115.5C 369.34,119.539 368.007,122.539 364.5,124.5C 363.573,126.113 362.739,127.779 362,129.5C 358.541,133.315 354.374,135.815 349.5,137C 346.965,139.037 344.298,140.87 341.5,142.5C 336.911,151.205 331.244,159.038 324.5,166C 317.7,166.776 311.033,166.109 304.5,164C 300.5,163.333 296.5,163.333 292.5,164C 283.958,170.374 276.625,177.874 270.5,186.5C 268.847,186.34 267.514,185.674 266.5,184.5C 270.492,180.069 274.658,175.735 279,171.5C 280.366,169.63 281.533,167.63 282.5,165.5C 286.906,163.091 291.239,160.591 295.5,158C 294.584,157.722 293.918,157.222 293.5,156.5C 298.833,157.833 304.166,159.166 309.5,160.5C 315.135,162.178 319.468,160.511 322.5,155.5C 328.313,147.891 333.646,139.891 338.5,131.5C 343.767,131.204 347.767,128.871 350.5,124.5C 353.833,121.5 357.167,118.5 360.5,115.5 Z"/>
  <path fill="#a28de8" d="M 272.5,139.5 C 265,140.396 257.333,141.063 249.5,141.5C 253.103,138.919 256.77,136.252 260.5,133.5C 263.341,135.086 266.007,136.92 268.5,139C 269.793,139.49 271.127,139.657 272.5,139.5 Z"/>
  <path fill="#5c39d6" d="M 284.5,134.5 C 286.784,134.975 288.784,135.975 290.5,137.5C 290.893,139.284 291.559,140.95 292.5,142.5C 293.336,147.594 292.002,151.927 288.5,155.5C 286.118,157.046 283.451,157.713 280.5,157.5C 280.833,156.833 281.167,156.167 281.5,155.5C 283.32,151.017 285.32,146.517 287.5,142C 286.259,140.269 285.259,138.436 284.5,136.5C 284.5,135.833 284.5,135.167 284.5,134.5 Z"/>
  <path fill="#5b38d6" d="M 185.5,123.5 C 192.126,129.969 192.126,136.469 185.5,143C 176.277,147.72 169.944,145.22 166.5,135.5C 165.657,130.906 166.991,127.239 170.5,124.5C 170.437,129.621 172.937,132.955 178,134.5C 183.729,132.469 185.229,128.802 182.5,123.5C 183.425,122.438 184.425,122.438 185.5,123.5 Z"/>
  <path fill="#cdc2f1" d="M 326.5,124.5 C 329.004,129.327 333.004,131.66 338.5,131.5C 333.646,139.891 328.313,147.891 322.5,155.5C 318.981,152.579 315.314,149.913 311.5,147.5C 317.244,140.354 322.244,132.687 326.5,124.5 Z"/>
  <path fill="#bcbbbc" d="M 137.5,118.5 C 138.5,118.833 139.167,119.5 139.5,120.5C 143.326,124.99 147.993,128.323 153.5,130.5C 154.622,131.947 156.122,132.947 158,133.5C 158.232,134.737 158.732,135.737 159.5,136.5C 159.517,138.565 159.85,140.565 160.5,142.5C 156.675,139.523 152.675,136.689 148.5,134C 146.333,130.5 143.5,127.667 140,125.5C 139.153,123.146 138.32,120.812 137.5,118.5 Z"/>
  <path fill="#5d39d7" d="M 272.5,139.5 C 273.833,139.5 275.167,139.5 276.5,139.5C 277.434,140.568 277.768,141.901 277.5,143.5C 258.666,144.762 239.833,146.095 221,147.5C 218.176,147.697 215.676,147.031 213.5,145.5C 213.5,144.5 213.5,143.5 213.5,142.5C 215.746,143.107 218.079,143.44 220.5,143.5C 230.119,142.125 239.786,141.459 249.5,141.5C 257.333,141.063 265,140.396 272.5,139.5 Z"/>
  <path fill="#b5b0ed" d="M 292.5,142.5 C 293.391,143.11 294.391,143.443 295.5,143.5C 298.461,144.323 301.461,144.99 304.5,145.5C 306.746,146.455 309.079,147.122 311.5,147.5C 310.465,151.739 309.799,156.072 309.5,160.5C 304.166,159.166 298.833,157.833 293.5,156.5C 291.883,155.962 290.216,155.629 288.5,155.5C 292.002,151.927 293.336,147.594 292.5,142.5 Z"/>
  <path fill="#9f8be4" d="M 311.5,147.5 C 315.314,149.913 318.981,152.579 322.5,155.5C 319.468,160.511 315.135,162.178 309.5,160.5C 309.799,156.072 310.465,151.739 311.5,147.5 Z"/>
  <path fill="#5631d5" d="M 268.5,154.5 C 268.5,157.5 268.5,160.5 268.5,163.5C 268.575,166.206 268.908,168.873 269.5,171.5C 269.167,171.5 268.833,171.5 268.5,171.5C 262.185,172.11 255.851,172.443 249.5,172.5C 249.5,171.167 249.5,169.833 249.5,168.5C 248.728,164.548 248.395,160.548 248.5,156.5C 248.33,155.178 248.663,154.011 249.5,153C 255.806,152.103 262.139,151.603 268.5,151.5C 268.5,152.5 268.5,153.5 268.5,154.5 Z"/>
  <path fill="#cbc0f0" d="M 268.5,154.5 C 273.032,154.182 277.366,154.515 281.5,155.5C 281.167,156.167 280.833,156.833 280.5,157.5C 278.88,161.082 276.547,164.082 273.5,166.5C 272.167,166.5 270.833,166.5 269.5,166.5C 269.737,165.209 269.404,164.209 268.5,163.5C 268.5,160.5 268.5,157.5 268.5,154.5 Z"/>
  <path fill="#5f5f60" d="M 288.5,155.5 C 290.216,155.629 291.883,155.962 293.5,156.5C 293.918,157.222 294.584,157.722 295.5,158C 291.239,160.591 286.906,163.091 282.5,165.5C 281.533,167.63 280.366,169.63 279,171.5C 274.658,175.735 270.492,180.069 266.5,184.5C 263.298,183.953 260.298,182.953 257.5,181.5C 261.734,178.868 265.401,175.534 268.5,171.5C 268.833,171.5 269.167,171.5 269.5,171.5C 271.543,170.421 272.876,168.754 273.5,166.5C 276.547,164.082 278.88,161.082 280.5,157.5C 283.451,157.713 286.118,157.046 288.5,155.5 Z"/>
  <path fill="#cabff1" d="M 248.5,156.5 C 248.395,160.548 248.728,164.548 249.5,168.5C 246.833,168.5 244.167,168.5 241.5,168.5C 238.833,168.5 236.167,168.5 233.5,168.5C 233.5,164.833 233.5,161.167 233.5,157.5C 238.507,157.249 243.507,156.916 248.5,156.5 Z"/>
  <path fill="#b5a6ec" d="M 233.5,157.5 C 233.5,161.167 233.5,164.833 233.5,168.5C 236.167,168.5 238.833,168.5 241.5,168.5C 237.03,169.486 232.363,169.819 227.5,169.5C 225.5,169.5 223.5,169.5 221.5,169.5C 221.5,165.833 221.5,162.167 221.5,158.5C 225.519,158.354 229.519,158.021 233.5,157.5 Z"/>
  <path fill="#a18de7" d="M 221.5,158.5 C 221.5,162.167 221.5,165.833 221.5,169.5C 223.5,169.5 225.5,169.5 227.5,169.5C 224.695,170.319 221.695,170.819 218.5,171C 217.364,172.145 216.364,173.312 215.5,174.5C 212.538,171.036 209.371,167.703 206,164.5C 204.167,166.333 202.333,168.167 200.5,170C 203.432,173.442 206.765,176.275 210.5,178.5C 210.167,179.5 209.5,180.167 208.5,180.5C 205.834,177.001 202.667,174.001 199,171.5C 196.963,173.706 194.797,175.706 192.5,177.5C 189.553,172.9 185.219,171.233 179.5,172.5C 175.456,169.457 172.123,165.791 169.5,161.5C 171.5,161.5 173.5,161.5 175.5,161.5C 174.348,158.7 174.848,156.033 177,153.5C 178.458,155.96 180.291,158.127 182.5,160C 195.51,160 208.51,159.5 221.5,158.5 Z"/>
  <path fill="#b5a4ec" d="M 256.5,159.5 C 257.991,159.901 259.658,160.068 261.5,160C 261.167,161 260.833,162 260.5,163C 262.595,163.556 262.762,164.056 261,164.5C 260.055,164.095 259.388,163.428 259,162.5C 257.846,164.957 256.512,164.957 255,162.5C 254.237,165.063 253.737,165.063 253.5,162.5C 253.824,160.431 254.658,160.098 256,161.5C 256.464,160.906 256.631,160.239 256.5,159.5 Z"/>
  <path fill="#d4ccf3" d="M 262.5,160.5 C 262.56,159.957 262.893,159.624 263.5,159.5C 264.631,161.074 264.798,162.741 264,164.5C 263.79,162.942 263.29,161.609 262.5,160.5 Z"/>
  <path fill="#cdc2f2" d="M 215.5,174.5 C 213.833,175.833 212.167,177.167 210.5,178.5C 206.765,176.275 203.432,173.442 200.5,170C 202.333,168.167 204.167,166.333 206,164.5C 209.371,167.703 212.538,171.036 215.5,174.5 Z"/>
  <path fill="#8067d5" d="M 268.5,163.5 C 269.404,164.209 269.737,165.209 269.5,166.5C 270.833,166.5 272.167,166.5 273.5,166.5C 272.876,168.754 271.543,170.421 269.5,171.5C 268.908,168.873 268.575,166.206 268.5,163.5 Z"/>
  <path fill="#b7b7b7" d="M 365.5,110.5 C 368.652,109.959 371.152,110.959 373,113.5C 373.817,116.964 373.483,120.298 372,123.5C 363.204,132.473 353.704,140.473 343.5,147.5C 342.333,152.15 340.5,156.484 338,160.5C 334.806,163.694 331.64,166.86 328.5,170C 321.452,171.968 314.452,171.635 307.5,169C 302.5,168.333 297.5,168.333 292.5,169C 285.752,174.558 280.418,181.058 276.5,188.5C 275.209,188.737 274.209,188.404 273.5,187.5C 279.65,179.85 286.317,172.683 293.5,166C 300.084,164.859 306.417,165.526 312.5,168C 318.461,169.109 324.128,168.442 329.5,166C 333.996,159.659 338.33,153.159 342.5,146.5C 351.73,140.442 360.23,133.442 368,125.5C 369.904,122.378 370.571,119.045 370,115.5C 367.865,113.722 365.365,113.055 362.5,113.5C 363.167,112.167 364.167,111.167 365.5,110.5 Z"/>
  <path fill="#8065de" d="M 241.5,168.5 C 244.167,168.5 246.833,168.5 249.5,168.5C 249.5,169.833 249.5,171.167 249.5,172.5C 255.851,172.443 262.185,172.11 268.5,171.5C 265.401,175.534 261.734,178.868 257.5,181.5C 252.098,183.872 246.765,186.205 241.5,188.5C 235.396,189.656 229.229,190.322 223,190.5C 216.09,190.03 209.257,189.03 202.5,187.5C 202.5,187.167 202.5,186.833 202.5,186.5C 204.833,184.833 206.833,182.833 208.5,180.5C 209.5,180.167 210.167,179.5 210.5,178.5C 212.167,177.167 213.833,175.833 215.5,174.5C 216.364,173.312 217.364,172.145 218.5,171C 221.695,170.819 224.695,170.319 227.5,169.5C 232.363,169.819 237.03,169.486 241.5,168.5 Z"/>
  <path fill="#fdd38e" d="M 168.5,202.5 C 170.297,203.73 172.297,204.396 174.5,204.5C 178.203,206.679 182.203,208.345 186.5,209.5C 189.979,211.403 193.646,213.07 197.5,214.5C 198.391,215.11 199.391,215.443 200.5,215.5C 200.842,216.338 201.508,216.672 202.5,216.5C 220.538,224.686 238.205,233.686 255.5,243.5C 263.759,247.768 271.759,252.434 279.5,257.5C 284.585,261.256 289.918,264.589 295.5,267.5C 299.462,270.488 303.462,273.488 307.5,276.5C 311.134,279.984 315.134,282.984 319.5,285.5C 330.134,294.467 340.134,304.134 349.5,314.5C 360.169,326.497 368.836,339.831 375.5,354.5C 375.863,356.911 374.863,358.411 372.5,359C 354.64,362.808 336.64,363.474 318.5,361C 291.672,357.006 265.672,350.173 240.5,340.5C 238.491,338.622 238.158,336.456 239.5,334C 241.833,333.333 244.167,333.333 246.5,334C 252.661,336.751 258.994,338.917 265.5,340.5C 268.842,340.767 270.509,339.267 270.5,336C 270.091,333.679 269.257,331.513 268,329.5C 260.905,321.9 253.405,314.9 245.5,308.5C 283.047,318.596 320.547,328.929 358,339.5C 358.5,339.167 359,338.833 359.5,338.5C 357.815,336.429 356.148,334.429 354.5,332.5C 350.559,326.226 345.892,320.56 340.5,315.5C 337.167,311.5 333.5,307.833 329.5,304.5C 302.014,279.738 271.68,258.905 238.5,242C 182.331,212.666 123.331,191.166 61.5,177.5C 57.3493,177.851 55.6827,180.185 56.5,184.5C 54.429,179.627 55.7623,175.794 60.5,173C 64.8333,172.333 69.1667,172.333 73.5,173C 105.93,180.522 137.597,190.355 168.5,202.5 Z"/>
  <path fill="#e3e3e3" d="M 365.5,110.5 C 365.5,110.167 365.5,109.833 365.5,109.5C 375.928,108.638 379.428,113.305 376,123.5C 370.838,129.662 365.338,135.495 359.5,141C 358.167,141.333 356.833,141.667 355.5,142C 346.378,151.779 338.044,162.113 330.5,173C 327.711,175.652 324.377,176.819 320.5,176.5C 312.834,174.998 305.167,173.831 297.5,173C 296.5,173.333 295.5,173.667 294.5,174C 291.631,177.204 288.465,180.037 285,182.5C 283.568,185.002 283.402,187.502 284.5,190C 290.525,191.922 295.359,195.422 299,200.5C 298.124,212.765 297.457,225.098 297,237.5C 294.984,240.815 294.651,244.148 296,247.5C 302.503,250.164 309.003,252.998 315.5,256C 318.928,258.691 320.928,262.191 321.5,266.5C 320.017,271.084 319.517,275.751 320,280.5C 324.175,283.345 328.341,286.178 332.5,289C 347.098,303.263 361.265,317.763 375,332.5C 378.755,336.76 380.755,341.76 381,347.5C 384.173,350.684 387.006,354.184 389.5,358C 390.517,360.787 390.684,363.62 390,366.5C 386.355,373.415 380.522,376.915 372.5,377C 357.833,377.667 343.167,377.667 328.5,377C 321.764,376.645 315.431,375.145 309.5,372.5C 330.069,375.323 350.735,376.156 371.5,375C 377.901,374.981 383.068,372.481 387,367.5C 387.667,364.5 387.667,361.5 387,358.5C 383.425,353.154 379.592,348.154 375.5,343.5C 375.477,341.073 374.977,338.74 374,336.5C 363.354,325.518 353.021,314.185 343,302.5C 338.466,298.997 334.299,295.164 330.5,291C 326.543,289.688 322.876,287.855 319.5,285.5C 317.971,282.979 316.971,280.146 316.5,277C 317.333,272.512 317.5,268.012 317,263.5C 313.999,260.584 310.499,258.584 306.5,257.5C 307.706,256.12 307.373,254.953 305.5,254C 299.743,251.45 294.077,248.95 288.5,246.5C 288.771,241.411 290.271,236.744 293,232.5C 293.815,222.168 294.148,211.835 294,201.5C 291.341,199.754 288.508,198.42 285.5,197.5C 284.452,192.791 281.452,190.125 276.5,189.5C 276.5,189.167 276.5,188.833 276.5,188.5C 280.418,181.058 285.752,174.558 292.5,169C 297.5,168.333 302.5,168.333 307.5,169C 314.452,171.635 321.452,171.968 328.5,170C 331.64,166.86 334.806,163.694 338,160.5C 340.5,156.484 342.333,152.15 343.5,147.5C 353.704,140.473 363.204,132.473 372,123.5C 373.483,120.298 373.817,116.964 373,113.5C 371.152,110.959 368.652,109.959 365.5,110.5 Z"/>
  <path fill="#cec3ef" d="M 208.5,180.5 C 206.833,182.833 204.833,184.833 202.5,186.5C 201.833,186.167 201.167,185.833 200.5,185.5C 198.14,182.473 195.473,179.806 192.5,177.5C 194.797,175.706 196.963,173.706 199,171.5C 202.667,174.001 205.834,177.001 208.5,180.5 Z"/>
  <path fill="#7557dc" d="M 179.5,172.5 C 185.219,171.233 189.553,172.9 192.5,177.5C 195.473,179.806 198.14,182.473 200.5,185.5C 198.043,191.728 193.709,193.561 187.5,191C 184.918,189.256 182.918,187.09 181.5,184.5C 182.96,182.537 184.627,180.704 186.5,179C 183.712,177.281 181.379,175.115 179.5,172.5 Z"/>
  <path fill="#989898" d="M 362.5,113.5 C 365.365,113.055 367.865,113.722 370,115.5C 370.571,119.045 369.904,122.378 368,125.5C 360.23,133.442 351.73,140.442 342.5,146.5C 338.33,153.159 333.996,159.659 329.5,166C 324.128,168.442 318.461,169.109 312.5,168C 306.417,165.526 300.084,164.859 293.5,166C 286.317,172.683 279.65,179.85 273.5,187.5C 272.209,187.737 271.209,187.404 270.5,186.5C 276.625,177.874 283.958,170.374 292.5,164C 296.5,163.333 300.5,163.333 304.5,164C 311.033,166.109 317.7,166.776 324.5,166C 331.244,159.038 336.911,151.205 341.5,142.5C 344.298,140.87 346.965,139.037 349.5,137C 354.374,135.815 358.541,133.315 362,129.5C 362.739,127.779 363.573,126.113 364.5,124.5C 368.007,122.539 369.34,119.539 368.5,115.5C 365.833,115.5 363.167,115.5 360.5,115.5C 360.833,114.5 361.5,113.833 362.5,113.5 Z"/>
  <path fill="#f7b549" d="M 329.5,304.5 C 329.265,305.097 328.765,305.43 328,305.5C 290.189,294.922 252.355,284.422 214.5,274C 213.944,273.617 213.611,273.117 213.5,272.5C 213.938,269.107 213.105,266.107 211,263.5C 201.35,256.166 190.517,251.333 178.5,249C 168.851,247.597 159.184,246.431 149.5,245.5C 144.015,244.673 138.348,244.173 132.5,244C 119.167,240.333 105.833,236.667 92.5,233C 93.7932,232.51 95.1266,232.343 96.5,232.5C 105.833,233.167 115.167,233.833 124.5,234.5C 124.714,232.856 124.38,231.356 123.5,230C 108.722,222.277 93.7221,215.11 78.5,208.5C 70.8271,209.918 63.1605,211.418 55.5,213C 54.9781,213.561 54.6448,214.228 54.5,215C 55.34,216.767 56.6734,218.101 58.5,219C 63.5266,221.513 68.5266,224.013 73.5,226.5C 73.2648,227.097 72.7648,227.43 72,227.5C 62.257,224.44 52.4237,221.773 42.5,219.5C 38.3516,214.828 38.6849,210.328 43.5,206C 47.5894,203.873 51.4228,201.373 55,198.5C 56.3789,193.964 56.8789,189.297 56.5,184.5C 55.6827,180.185 57.3493,177.851 61.5,177.5C 123.331,191.166 182.331,212.666 238.5,242C 271.68,258.905 302.014,279.738 329.5,304.5 Z"/>
  <path fill="#b5afeb" d="M 257.5,181.5 C 260.298,182.953 263.298,183.953 266.5,184.5C 267.514,185.674 268.847,186.34 270.5,186.5C 271.209,187.404 272.209,187.737 273.5,187.5C 274.209,188.404 275.209,188.737 276.5,188.5C 276.5,188.833 276.5,189.167 276.5,189.5C 275.25,189.577 274.417,190.244 274,191.5C 272.273,194.618 271.439,197.951 271.5,201.5C 275.833,201.5 280.167,201.5 284.5,201.5C 282.965,205.437 281.632,209.437 280.5,213.5C 276.371,211.718 272.038,210.718 267.5,210.5C 268.441,208.95 269.107,207.284 269.5,205.5C 270.404,204.791 270.737,203.791 270.5,202.5C 270.719,201.325 270.386,200.325 269.5,199.5C 263.443,197.151 257.443,194.817 251.5,192.5C 247.951,191.726 244.618,190.393 241.5,188.5C 246.765,186.205 252.098,183.872 257.5,181.5 Z"/>
  <path fill="#613fd7" d="M 181.5,184.5 C 182.918,187.09 184.918,189.256 187.5,191C 193.709,193.561 198.043,191.728 200.5,185.5C 201.167,185.833 201.833,186.167 202.5,186.5C 202.5,186.833 202.5,187.167 202.5,187.5C 202.66,189.199 202.494,190.866 202,192.5C 199.317,195.016 196.817,197.683 194.5,200.5C 193.264,201.246 191.93,201.579 190.5,201.5C 186.846,199.669 183.513,197.336 180.5,194.5C 179.4,193.395 178.733,192.062 178.5,190.5C 178.433,189.041 178.766,187.708 179.5,186.5C 180.5,186.167 181.167,185.5 181.5,184.5 Z"/>
  <path fill="#646466" d="M 202.5,187.5 C 209.257,189.03 216.09,190.03 223,190.5C 229.229,190.322 235.396,189.656 241.5,188.5C 244.618,190.393 247.951,191.726 251.5,192.5C 250.737,193.268 249.737,193.768 248.5,194C 239.322,194.627 230.156,194.46 221,193.5C 217.742,193.493 214.575,193.993 211.5,195C 208.061,199.443 204.227,203.61 200,207.5C 199.616,210.06 198.783,212.394 197.5,214.5C 193.646,213.07 189.979,211.403 186.5,209.5C 188.42,207.254 189.753,204.587 190.5,201.5C 191.93,201.579 193.264,201.246 194.5,200.5C 196.817,197.683 199.317,195.016 202,192.5C 202.494,190.866 202.66,189.199 202.5,187.5 Z"/>
  <path fill="#a18de8" d="M 276.5,189.5 C 281.452,190.125 284.452,192.791 285.5,197.5C 285.5,198.167 285.5,198.833 285.5,199.5C 284.662,199.842 284.328,200.508 284.5,201.5C 280.167,201.5 275.833,201.5 271.5,201.5C 271.439,197.951 272.273,194.618 274,191.5C 274.417,190.244 275.25,189.577 276.5,189.5 Z"/>
  <path fill="#866be0" d="M 178.5,190.5 C 178.733,192.062 179.4,193.395 180.5,194.5C 179.5,194.5 178.5,194.5 177.5,194.5C 176.499,197.838 175.499,201.171 174.5,204.5C 172.297,204.396 170.297,203.73 168.5,202.5C 171.486,198.183 174.82,194.183 178.5,190.5 Z"/>
  <path fill="#9e89e6" d="M 180.5,194.5 C 183.513,197.336 186.846,199.669 190.5,201.5C 189.753,204.587 188.42,207.254 186.5,209.5C 182.203,208.345 178.203,206.679 174.5,204.5C 175.499,201.171 176.499,197.838 177.5,194.5C 178.5,194.5 179.5,194.5 180.5,194.5 Z"/>
  <path fill="#909090" d="M 251.5,192.5 C 257.443,194.817 263.443,197.151 269.5,199.5C 270.386,200.325 270.719,201.325 270.5,202.5C 266.429,201.644 262.429,200.477 258.5,199C 243.167,198.333 227.833,198.333 212.5,199C 209.299,204.022 205.466,208.522 201,212.5C 200.517,213.448 200.351,214.448 200.5,215.5C 199.391,215.443 198.391,215.11 197.5,214.5C 198.783,212.394 199.616,210.06 200,207.5C 204.227,203.61 208.061,199.443 211.5,195C 214.575,193.993 217.742,193.493 221,193.5C 230.156,194.46 239.322,194.627 248.5,194C 249.737,193.768 250.737,193.268 251.5,192.5 Z"/>
  <path fill="#b2b2b2" d="M 270.5,202.5 C 270.737,203.791 270.404,204.791 269.5,205.5C 261.831,202.355 253.831,200.689 245.5,200.5C 235.171,201.359 224.838,201.525 214.5,201C 210.946,204.554 207.446,208.054 204,211.5C 202.991,213.025 202.491,214.692 202.5,216.5C 201.508,216.672 200.842,216.338 200.5,215.5C 200.351,214.448 200.517,213.448 201,212.5C 205.466,208.522 209.299,204.022 212.5,199C 227.833,198.333 243.167,198.333 258.5,199C 262.429,200.477 266.429,201.644 270.5,202.5 Z"/>
  <!--path fill="#fbfbfc" d="M 266.5,210.5 C 264.273,211.401 263.273,213.067 263.5,215.5C 261.517,219.395 260.851,223.395 261.5,227.5C 259.833,231.5 258.167,235.5 256.5,239.5C 249.102,236.092 241.768,232.592 234.5,229C 232.833,228.667 231.167,228.333 229.5,228C 228.421,225.957 226.754,224.624 224.5,224C 220.064,221.786 215.397,220.12 210.5,219C 208.203,217.737 207.37,215.903 208,213.5C 209.629,210.374 211.795,207.707 214.5,205.5C 229.192,204.127 243.858,204.294 258.5,206C 261.758,206.786 264.424,208.286 266.5,210.5 Z"/-->
  <path fill="#b5b5b5" d="M 285.5,197.5 C 288.508,198.42 291.341,199.754 294,201.5C 294.148,211.835 293.815,222.168 293,232.5C 290.271,236.744 288.771,241.411 288.5,246.5C 288.167,246.5 287.833,246.5 287.5,246.5C 289.693,234.133 291.36,221.633 292.5,209C 292.919,203.693 290.586,200.526 285.5,199.5C 285.5,198.833 285.5,198.167 285.5,197.5 Z"/>
  <path fill="#fed48f" d="M 96.5,232.5 C 90.9696,231.725 85.3029,230.891 79.5,230C 77.3083,229.074 75.3083,227.907 73.5,226.5C 68.5266,224.013 63.5266,221.513 58.5,219C 56.6734,218.101 55.34,216.767 54.5,215C 54.6448,214.228 54.9781,213.561 55.5,213C 63.1605,211.418 70.8271,209.918 78.5,208.5C 93.7221,215.11 108.722,222.277 123.5,230C 124.38,231.356 124.714,232.856 124.5,234.5C 115.167,233.833 105.833,233.167 96.5,232.5 Z"/>
  <path fill="#7456dc" d="M 266.5,210.5 C 266.833,210.5 267.167,210.5 267.5,210.5C 272.038,210.718 276.371,211.718 280.5,213.5C 281.167,213.5 281.5,213.833 281.5,214.5C 276.024,225.92 270.024,226.253 263.5,215.5C 263.273,213.067 264.273,211.401 266.5,210.5 Z"/>
  <path fill="#949494" d="M 285.5,199.5 C 290.586,200.526 292.919,203.693 292.5,209C 291.36,221.633 289.693,234.133 287.5,246.5C 286.5,246.5 285.5,246.5 284.5,246.5C 284.167,246.5 283.833,246.5 283.5,246.5C 283.38,244.266 283.713,242.099 284.5,240C 286.32,238.193 287.487,236.027 288,233.5C 288.634,223.824 288.967,214.157 289,204.5C 288.092,202.561 286.592,201.561 284.5,201.5C 284.328,200.508 284.662,199.842 285.5,199.5 Z"/>
  <path fill="#f8bc58" d="M 42.5,219.5 C 52.4237,221.773 62.257,224.44 72,227.5C 72.7648,227.43 73.2648,227.097 73.5,226.5C 75.3083,227.907 77.3083,229.074 79.5,230C 85.3029,230.891 90.9696,231.725 96.5,232.5C 95.1266,232.343 93.7932,232.51 92.5,233C 105.833,236.667 119.167,240.333 132.5,244C 138.348,244.173 144.015,244.673 149.5,245.5C 126.103,244.248 103.103,246.581 80.5,252.5C 69.2063,243.177 57.873,233.844 46.5,224.5C 44.4131,223.415 43.0798,221.749 42.5,219.5 Z"/>
  <path fill="#6340d8" d="M 281.5,214.5 C 282.117,214.611 282.617,214.944 283,215.5C 283.427,221.961 281.593,227.628 277.5,232.5C 273.1,231.698 268.767,230.698 264.5,229.5C 263.71,228.599 262.71,227.932 261.5,227.5C 260.851,223.395 261.517,219.395 263.5,215.5C 270.024,226.253 276.024,225.92 281.5,214.5 Z"/>
  <path fill="#69696c" d="M 284.5,201.5 C 286.592,201.561 288.092,202.561 289,204.5C 288.967,214.157 288.634,223.824 288,233.5C 287.487,236.027 286.32,238.193 284.5,240C 283.713,242.099 283.38,244.266 283.5,246.5C 282.041,246.567 280.708,246.234 279.5,245.5C 278.319,241.257 277.652,236.924 277.5,232.5C 281.593,227.628 283.427,221.961 283,215.5C 282.617,214.944 282.117,214.611 281.5,214.5C 281.5,213.833 281.167,213.5 280.5,213.5C 281.632,209.437 282.965,205.437 284.5,201.5 Z"/>
  <path fill="#8166df" d="M 261.5,227.5 C 262.71,227.932 263.71,228.599 264.5,229.5C 263.212,232.597 263.712,235.597 266,238.5C 269.921,242.043 274.421,244.377 279.5,245.5C 280.708,246.234 282.041,246.567 283.5,246.5C 283.833,246.5 284.167,246.5 284.5,246.5C 285.263,247.268 286.263,247.768 287.5,248C 286.692,250.088 285.692,252.088 284.5,254C 285.056,254.383 285.389,254.883 285.5,255.5C 282.918,255.025 280.918,255.692 279.5,257.5C 271.759,252.434 263.759,247.768 255.5,243.5C 255.833,242.167 256.167,240.833 256.5,239.5C 258.167,235.5 259.833,231.5 261.5,227.5 Z"/>
  <path fill="#9e89e7" d="M 264.5,229.5 C 268.767,230.698 273.1,231.698 277.5,232.5C 277.652,236.924 278.319,241.257 279.5,245.5C 274.421,244.377 269.921,242.043 266,238.5C 263.712,235.597 263.212,232.597 264.5,229.5 Z"/>
  <path fill="#e2e2e2" d="M 269.5,205.5 C 269.107,207.284 268.441,208.95 267.5,210.5C 267.167,210.5 266.833,210.5 266.5,210.5C 264.424,208.286 261.758,206.786 258.5,206C 243.858,204.294 229.192,204.127 214.5,205.5C 211.795,207.707 209.629,210.374 208,213.5C 207.37,215.903 208.203,217.737 210.5,219C 215.397,220.12 220.064,221.786 224.5,224C 226.754,224.624 228.421,225.957 229.5,228C 231.167,228.333 232.833,228.667 234.5,229C 241.768,232.592 249.102,236.092 256.5,239.5C 256.167,240.833 255.833,242.167 255.5,243.5C 238.205,233.686 220.538,224.686 202.5,216.5C 202.491,214.692 202.991,213.025 204,211.5C 207.446,208.054 210.946,204.554 214.5,201C 224.838,201.525 235.171,201.359 245.5,200.5C 253.831,200.689 261.831,202.355 269.5,205.5 Z"/>
  <path fill="#b4b3b0" d="M 46.5,224.5 C 57.873,233.844 69.2063,243.177 80.5,252.5C 73.2764,254.004 67.9431,251.338 64.5,244.5C 59.1978,239.941 54.0311,235.274 49,230.5C 47.878,228.593 47.0447,226.593 46.5,224.5 Z"/>
  <path fill="#ffedd2" d="M 162.5,240.5 C 163.833,240.5 165.167,240.5 166.5,240.5C 166.5,241.5 166.5,242.5 166.5,243.5C 164.027,243.912 162.694,242.912 162.5,240.5 Z"/>
  <path fill="#fef7ec" d="M 174.5,241.5 C 176.167,241.5 177.833,241.5 179.5,241.5C 179.5,242.5 179.5,243.5 179.5,244.5C 177.801,244.66 176.134,244.494 174.5,244C 173.402,243.23 173.402,242.397 174.5,241.5 Z"/>
  <path fill="#fef9f1" d="M 187.5,243.5 C 190.346,243.03 192.679,243.863 194.5,246C 192.728,247.487 190.728,247.82 188.5,247C 187.663,245.989 187.33,244.822 187.5,243.5 Z"/>
  <path fill="#ccc1f0" d="M 284.5,246.5 C 285.5,246.5 286.5,246.5 287.5,246.5C 287.833,246.5 288.167,246.5 288.5,246.5C 294.077,248.95 299.743,251.45 305.5,254C 307.373,254.953 307.706,256.12 306.5,257.5C 305.833,259.167 305.167,260.833 304.5,262.5C 304.068,263.71 303.401,264.71 302.5,265.5C 302.719,264.325 302.386,263.325 301.5,262.5C 296.141,260.152 290.807,257.819 285.5,255.5C 285.389,254.883 285.056,254.383 284.5,254C 285.692,252.088 286.692,250.088 287.5,248C 286.263,247.768 285.263,247.268 284.5,246.5 Z"/>
  <path fill="#c8e0f4" d="M 240.5,363.5 C 236.154,363.666 231.821,363.499 227.5,363C 207.134,357.879 187.801,350.213 169.5,340C 145.247,324.765 120.247,310.765 94.5,298C 79.1258,291.492 63.1258,287.992 46.5,287.5C 44.901,287.232 43.5676,287.566 42.5,288.5C 41.0413,288.567 39.7079,288.234 38.5,287.5C 36.9382,287.267 35.6049,286.6 34.5,285.5C 32.3764,278.726 34.7097,273.893 41.5,271C 85.531,251.454 131.198,246.121 178.5,255C 187.116,257.205 195.449,260.205 203.5,264C 205.211,265.133 205.711,266.633 205,268.5C 198.253,268.733 191.419,268.9 184.5,269C 182.032,270.588 181.866,272.422 184,274.5C 188.899,278.699 194.066,282.532 199.5,286C 213.165,293.497 226.498,301.497 239.5,310C 245.036,314.504 250.203,319.337 255,324.5C 256.24,327.906 255.073,329.573 251.5,329.5C 246.739,327.857 241.906,326.523 237,325.5C 229.094,326.544 227.427,330.544 232,337.5C 237.333,343.5 242.667,349.5 248,355.5C 248.667,357.167 248.667,358.833 248,360.5C 245.52,361.812 243.02,362.812 240.5,363.5 Z"/>
  <path fill="#5731d3" d="M 285.5,255.5 C 290.807,257.819 296.141,260.152 301.5,262.5C 302.386,263.325 302.719,264.325 302.5,265.5C 300.485,266.924 298.152,267.59 295.5,267.5C 289.918,264.589 284.585,261.256 279.5,257.5C 280.918,255.692 282.918,255.025 285.5,255.5 Z"/>
  <path fill="#e1eefa" d="M 223.5,308.5 C 223.489,310.017 222.823,311.184 221.5,312C 202.363,325.06 181.696,328.06 159.5,321C 132.948,309.082 118.282,288.582 115.5,259.5C 136.925,257.661 158.259,258.494 179.5,262C 180.308,262.308 180.975,262.808 181.5,263.5C 176.839,264.411 172.505,266.078 168.5,268.5C 167.123,271.577 167.29,274.577 169,277.5C 172.867,281.846 177.367,285.346 182.5,288C 196.7,293.996 210.367,300.829 223.5,308.5 Z"/>
  <path fill="#6f6e70" d="M 304.5,262.5 C 309.552,262.934 311.385,265.601 310,270.5C 309.434,272.723 308.6,274.723 307.5,276.5C 303.462,273.488 299.462,270.488 295.5,267.5C 298.152,267.59 300.485,266.924 302.5,265.5C 303.401,264.71 304.068,263.71 304.5,262.5 Z"/>
  <path fill="#f9be5d" d="M 213.5,272.5 C 213.611,273.117 213.944,273.617 214.5,274C 252.355,284.422 290.189,294.922 328,305.5C 328.765,305.43 329.265,305.097 329.5,304.5C 333.5,307.833 337.167,311.5 340.5,315.5C 340.265,316.097 339.765,316.43 339,316.5C 312.144,309.078 285.311,301.578 258.5,294C 259.737,293.768 260.737,293.268 261.5,292.5C 259.739,288.411 256.739,287.078 252.5,288.5C 253.605,290.611 255.271,291.945 257.5,292.5C 255.374,293.103 253.041,293.103 250.5,292.5C 243.95,289.058 237.283,285.891 230.5,283C 228.613,282.22 226.946,282.387 225.5,283.5C 225.265,284.097 224.765,284.43 224,284.5C 215.213,281.928 206.379,279.595 197.5,277.5C 196.596,276.791 196.263,275.791 196.5,274.5C 202.388,275.012 208.055,274.345 213.5,272.5 Z"/>
  <path fill="#c2c1c1" d="M 306.5,257.5 C 310.499,258.584 313.999,260.584 317,263.5C 317.5,268.012 317.333,272.512 316.5,277C 316.971,280.146 317.971,282.979 319.5,285.5C 315.134,282.984 311.134,279.984 307.5,276.5C 308.6,274.723 309.434,272.723 310,270.5C 311.385,265.601 309.552,262.934 304.5,262.5C 305.167,260.833 305.833,259.167 306.5,257.5 Z"/>
  <path fill="#fffbf6" d="M 225.5,283.5 C 226.946,282.387 228.613,282.22 230.5,283C 237.283,285.891 243.95,289.058 250.5,292.5C 256.059,295.377 261.393,298.71 266.5,302.5C 268.415,304.071 269.415,306.071 269.5,308.5C 267.119,309.83 264.786,309.664 262.5,308C 251.134,298.321 238.801,290.154 225.5,283.5 Z"/>
  <path fill="#fef9f2" d="M 261.5,292.5 C 260.167,292.5 258.833,292.5 257.5,292.5C 255.271,291.945 253.605,290.611 252.5,288.5C 256.739,287.078 259.739,288.411 261.5,292.5 Z"/>
  <path fill="#fbc56c" d="M 250.5,292.5 C 253.041,293.103 255.374,293.103 257.5,292.5C 258.833,292.5 260.167,292.5 261.5,292.5C 260.737,293.268 259.737,293.768 258.5,294C 285.311,301.578 312.144,309.078 339,316.5C 339.765,316.43 340.265,316.097 340.5,315.5C 345.892,320.56 350.559,326.226 354.5,332.5C 326.768,325.394 298.768,317.894 270.5,310C 269.944,309.617 269.611,309.117 269.5,308.5C 269.415,306.071 268.415,304.071 266.5,302.5C 261.393,298.71 256.059,295.377 250.5,292.5 Z"/>
  <path fill="#fccb7a" d="M 197.5,277.5 C 206.379,279.595 215.213,281.928 224,284.5C 224.765,284.43 225.265,284.097 225.5,283.5C 238.801,290.154 251.134,298.321 262.5,308C 264.786,309.664 267.119,309.83 269.5,308.5C 269.611,309.117 269.944,309.617 270.5,310C 298.768,317.894 326.768,325.394 354.5,332.5C 356.148,334.429 357.815,336.429 359.5,338.5C 359,338.833 358.5,339.167 358,339.5C 320.547,328.929 283.047,318.596 245.5,308.5C 229.152,298.662 213.152,288.329 197.5,277.5 Z"/>
  <path fill="#d6e8f7" d="M 115.5,259.5 C 118.282,288.582 132.948,309.082 159.5,321C 181.696,328.06 202.363,325.06 221.5,312C 222.823,311.184 223.489,310.017 223.5,308.5C 229.727,311.73 235.393,315.73 240.5,320.5C 239.833,320.833 239.167,321.167 238.5,321.5C 232.53,319.223 226.53,319.057 220.5,321C 216.621,326.197 216.621,331.53 220.5,337C 213.645,340.618 206.478,343.452 199,345.5C 179.195,336.362 160.361,325.529 142.5,313C 129.482,305.49 116.149,298.49 102.5,292C 97.8901,282.726 95.5568,272.893 95.5,262.5C 102.113,261.173 108.78,260.173 115.5,259.5 Z"/>
  <path fill="#d2d1d1" d="M 38.5,287.5 C 39.7079,288.234 41.0413,288.567 42.5,288.5C 43.5392,290.901 44.8726,293.235 46.5,295.5C 54.4193,296.995 62.4193,297.829 70.5,298C 83.9598,299.149 95.9598,303.816 106.5,312C 113.2,314.676 119.867,317.342 126.5,320C 127.71,321.039 128.71,322.206 129.5,323.5C 121.986,321.601 114.986,318.434 108.5,314C 100.972,312.16 93.9721,309.16 87.5,305C 73.3681,301.567 59.0348,299.567 44.5,299C 42.9825,297.315 41.3159,295.815 39.5,294.5C 38.6258,292.253 38.2924,289.92 38.5,287.5 Z"/>
  <path fill="#fffaf2" d="M 264.5,316.5 C 268.693,316.362 271.027,318.362 271.5,322.5C 267.75,322.129 265.417,320.129 264.5,316.5 Z"/>
  <path fill="#a9a9a9" d="M 42.5,288.5 C 43.5676,287.566 44.901,287.232 46.5,287.5C 44.9829,289.936 45.3162,292.102 47.5,294C 68.3083,294.302 88.3083,298.302 107.5,306C 125.674,316.585 143.674,327.418 161.5,338.5C 160.127,338.657 158.793,338.49 157.5,338C 148.695,331.915 139.361,327.082 129.5,323.5C 128.71,322.206 127.71,321.039 126.5,320C 119.867,317.342 113.2,314.676 106.5,312C 95.9598,303.816 83.9598,299.149 70.5,298C 62.4193,297.829 54.4193,296.995 46.5,295.5C 44.8726,293.235 43.5392,290.901 42.5,288.5 Z"/>
  <path fill="#848485" d="M 46.5,287.5 C 63.1258,287.992 79.1258,291.492 94.5,298C 120.247,310.765 145.247,324.765 169.5,340C 187.801,350.213 207.134,357.879 227.5,363C 231.821,363.499 236.154,363.666 240.5,363.5C 246.545,363.697 252.545,363.363 258.5,362.5C 260.28,363.99 260.946,365.99 260.5,368.5C 251.868,369.578 243.202,369.744 234.5,369C 228.708,367.054 222.708,365.72 216.5,365C 198.425,357.241 180.758,348.741 163.5,339.5C 162.508,339.672 161.842,339.338 161.5,338.5C 143.674,327.418 125.674,316.585 107.5,306C 88.3083,298.302 68.3083,294.302 47.5,294C 45.3162,292.102 44.9829,289.936 46.5,287.5 Z"/>
  <path fill="#b5b5b5" d="M 319.5,285.5 C 322.876,287.855 326.543,289.688 330.5,291C 334.299,295.164 338.466,298.997 343,302.5C 353.021,314.185 363.354,325.518 374,336.5C 374.977,338.74 375.477,341.073 375.5,343.5C 376.106,348.455 378.439,352.455 382.5,355.5C 383.657,358.784 383.824,362.118 383,365.5C 380.695,367.022 379.195,369.022 378.5,371.5C 351.919,374.813 325.586,373.313 299.5,367C 290.253,364.212 280.92,361.712 271.5,359.5C 270.558,359.608 269.725,359.941 269,360.5C 268.667,363.5 268.333,366.5 268,369.5C 267.329,370.252 266.496,370.586 265.5,370.5C 265.184,366.475 265.017,362.475 265,358.5C 266.062,357.903 267.228,357.57 268.5,357.5C 282.188,359.088 295.521,362.255 308.5,367C 316.241,367.439 323.908,368.439 331.5,370C 342.833,370.667 354.167,370.667 365.5,370C 370.657,369.197 375.657,367.864 380.5,366C 381.783,363.205 381.783,360.372 380.5,357.5C 375.49,348.013 370.323,338.68 365,329.5C 360.133,324.968 355.633,320.134 351.5,315C 350.906,314.536 350.239,314.369 349.5,314.5C 340.134,304.134 330.134,294.467 319.5,285.5 Z"/>
  <path fill="#9c9c9c" d="M 349.5,314.5 C 350.239,314.369 350.906,314.536 351.5,315C 355.633,320.134 360.133,324.968 365,329.5C 370.323,338.68 375.49,348.013 380.5,357.5C 381.783,360.372 381.783,363.205 380.5,366C 375.657,367.864 370.657,369.197 365.5,370C 354.167,370.667 342.833,370.667 331.5,370C 323.908,368.439 316.241,367.439 308.5,367C 295.521,362.255 282.188,359.088 268.5,357.5C 267.228,357.57 266.062,357.903 265,358.5C 265.017,362.475 265.184,366.475 265.5,370.5C 239.596,375.049 215.596,370.216 193.5,356C 181.905,353.203 171.905,347.703 163.5,339.5C 180.758,348.741 198.425,357.241 216.5,365C 222.708,365.72 228.708,367.054 234.5,369C 243.202,369.744 251.868,369.578 260.5,368.5C 260.946,365.99 260.28,363.99 258.5,362.5C 260.113,361.162 260.613,359.495 260,357.5C 258.27,355.598 256.437,353.931 254.5,352.5C 264.022,351.974 273.022,353.808 281.5,358C 304.327,363.749 327.493,367.249 351,368.5C 359.078,368.613 367.078,367.946 375,366.5C 378.073,364.252 379.073,361.252 378,357.5C 377.623,356.058 376.79,355.058 375.5,354.5C 368.836,339.831 360.169,326.497 349.5,314.5 Z"/>
  <path fill="#737272" d="M 240.5,340.5 C 265.672,350.173 291.672,357.006 318.5,361C 336.64,363.474 354.64,362.808 372.5,359C 374.863,358.411 375.863,356.911 375.5,354.5C 376.79,355.058 377.623,356.058 378,357.5C 379.073,361.252 378.073,364.252 375,366.5C 367.078,367.946 359.078,368.613 351,368.5C 327.493,367.249 304.327,363.749 281.5,358C 273.022,353.808 264.022,351.974 254.5,352.5C 249.048,349.437 244.382,345.437 240.5,340.5 Z"/>
  <path fill="#d1d1d1" d="M 129.5,323.5 C 139.361,327.082 148.695,331.915 157.5,338C 158.793,338.49 160.127,338.657 161.5,338.5C 161.842,339.338 162.508,339.672 163.5,339.5C 171.905,347.703 181.905,353.203 193.5,356C 215.596,370.216 239.596,375.049 265.5,370.5C 266.496,370.586 267.329,370.252 268,369.5C 268.333,366.5 268.667,363.5 269,360.5C 269.725,359.941 270.558,359.608 271.5,359.5C 280.92,361.712 290.253,364.212 299.5,367C 325.586,373.313 351.919,374.813 378.5,371.5C 379.195,369.022 380.695,367.022 383,365.5C 383.824,362.118 383.657,358.784 382.5,355.5C 378.439,352.455 376.106,348.455 375.5,343.5C 379.592,348.154 383.425,353.154 387,358.5C 387.667,361.5 387.667,364.5 387,367.5C 383.068,372.481 377.901,374.981 371.5,375C 350.735,376.156 330.069,375.323 309.5,372.5C 298.292,369.905 287.126,366.905 276,363.5C 274.893,363.585 273.893,363.919 273,364.5C 272.883,369.902 270.383,373.736 265.5,376C 256.242,377.584 246.909,377.917 237.5,377C 236.672,376.085 235.672,375.419 234.5,375C 223.833,372 213.167,369 202.5,366C 197.167,362.667 191.833,359.333 186.5,356C 181.237,353.857 175.904,352.024 170.5,350.5C 170.703,348.61 170.037,347.11 168.5,346C 164.053,342.609 159.053,340.609 153.5,340C 148.636,336.486 143.636,333.153 138.5,330C 133.646,330.238 130.646,328.071 129.5,323.5 Z"/>
</svg>