<svg width="54" height="54" viewBox="0 0 54 54" fill-rule="evenodd" clip-rule="evenodd" xmlns="http://www.w3.org/2000/svg">
  <defs>
    <linearGradient id="backgroundgrad" x1="0%" y1="0%" x2="100%" y2="0%">
      <stop offset="0%" stop-color="#0072B5" />
      <stop offset="100%" stop-color="#ccecff" />
    </linearGradient>
    <linearGradient id="bordergrad" x1="0%" y1="0%" x2="100%" y2="0%">
      <stop offset="0%" stop-color="#ccecff" />
      <stop offset="100%" stop-color="#0072B5" />
    </linearGradient>
  </defs>
  <rect x="1" y="1" rx="10" ry="10" width="52" height="52" fill="url(#backgroundgrad)" stroke="url(#bordergrad)" stroke-width="2" />
  <svg x="4" y="4" width="46" height="46" viewBox="0 0 2809 3705">
    <path fill="#2d2d3b" d="M 97.5,2171.5 C 98.4964,2157.65 99.4964,2143.65 100.5,2129.5C 102.66,2099.54 106.827,2069.88 113,2040.5C 142,1995.5 171,1950.5 200,1905.5C 205.531,1895.78 209.364,1885.44 211.5,1874.5C 213.471,1867.89 213.804,1861.22 212.5,1854.5C 211.889,1844.5 209.722,1834.83 206,1825.5C 180.879,1756.03 156.212,1686.36 132,1616.5C 132.679,1558.74 139.345,1501.74 152,1445.5C 167.15,1378.9 187.15,1313.9 212,1250.5C 225.166,1143.84 238,1037.17 250.5,930.5C 252.373,927.995 253.706,925.162 254.5,922C 253.98,918.431 253.647,914.598 253.5,910.5C 257.414,878.853 261.248,847.186 265,815.5C 315.307,668.551 384.974,531.551 474,404.5C 528.39,326.071 589.557,252.904 657.5,185C 660.5,182.667 663.5,180.333 666.5,178C 720.75,145.626 774.916,113.126 829,80.5C 811.632,141.611 793.632,202.611 775,263.5C 758.096,323.359 747.096,384.359 742,446.5C 731.049,573.612 734.716,700.279 753,826.5C 754.094,833.583 755.594,840.583 757.5,847.5C 791.505,829.229 826.839,814.396 863.5,803C 872.419,801.229 881.419,800.062 890.5,799.5C 913.294,801.352 935.961,804.185 958.5,808C 1040.33,824.164 1122.33,839.498 1204.5,854C 1270.08,863.572 1335.75,872.406 1401.5,880.5C 1467.25,872.369 1532.92,863.536 1598.5,854C 1686.59,838.307 1774.59,821.974 1862.5,805C 1878.9,802.314 1895.4,800.481 1912,799.5C 1929.38,800.443 1946.21,803.943 1962.5,810C 1990.52,821.258 2018.02,833.758 2045,847.5C 2051.09,819.88 2055.42,791.88 2058,763.5C 2068.52,655.218 2069.19,546.885 2060,438.5C 2054.43,377.003 2043.1,316.67 2026,257.5C 2007.77,198.658 1990.44,139.658 1974,80.5C 2028.92,114.044 2084.08,147.211 2139.5,180C 2160.36,199.198 2180.2,219.364 2199,240.5C 2333.98,391.962 2439.32,562.295 2515,751.5C 2522.65,773.123 2530.32,794.789 2538,816.5C 2555.42,961.536 2573.09,1106.54 2591,1251.5C 2632.04,1354.32 2658.37,1460.99 2670,1571.5C 2670.92,1586.5 2671.25,1601.5 2671,1616.5C 2644.16,1690.88 2617.83,1765.54 2592,1840.5C 2586.98,1862.38 2589.98,1883.05 2601,1902.5C 2630.92,1948.66 2660.58,1995 2690,2041.5C 2699.11,2086.67 2704.11,2132.34 2705,2178.5C 2708.59,2267.81 2697.59,2355.14 2672,2440.5C 2668.07,2452.3 2663.73,2463.97 2659,2475.5C 2625.42,2494.21 2594.58,2516.71 2566.5,2543C 2502.3,2603.82 2448.8,2672.66 2406,2749.5C 2370.02,2821.8 2336.35,2895.14 2305,2969.5C 2306.33,3004.82 2307.67,3040.15 2309,3075.5C 2309.88,3127.18 2309.55,3178.84 2308,3230.5C 2237.1,3318.28 2164.76,3404.94 2091,3490.5C 2050.1,3537.73 2006.77,3582.73 1961,3625.5C 1886.58,3577.38 1812.08,3529.38 1737.5,3481.5C 1667.84,3543.82 1586.5,3581.66 1493.5,3595C 1413.05,3606.77 1333.38,3603.1 1254.5,3584C 1182.93,3564.81 1119.76,3530.64 1065,3481.5C 990.408,3529.09 916.075,3577.09 842,3625.5C 798.263,3584.43 756.596,3541.43 717,3496.5C 641.905,3409.61 568.239,3321.61 496,3232.5C 494.776,3227.61 494.109,3222.61 494,3217.5C 493.399,3192.17 492.899,3166.84 492.5,3141.5C 493.192,3084.11 495.026,3026.78 498,2969.5C 467.734,2898.61 435.734,2828.61 402,2759.5C 352.819,2667.29 288.319,2587.12 208.5,2519C 188.324,2502.48 166.824,2487.98 144,2475.5C 121.355,2417.25 107.022,2356.91 101,2294.5C 97.973,2253.56 96.8063,2212.56 97.5,2171.5 Z"/>
    <path fill="#f1ede8" d="M 628.5,360.5 C 629.139,361.097 629.472,361.93 629.5,363C 623.721,399.953 619.888,437.119 618,474.5C 611.953,590.757 615.12,706.757 627.5,822.5C 628.066,854.325 618.233,882.325 598,906.5C 585.824,919.342 572.991,931.509 559.5,943C 533.881,962.284 508.547,981.951 483.5,1002C 444.097,1038.74 404.097,1074.74 363.5,1110C 358.638,1113.69 353.638,1117.19 348.5,1120.5C 359.624,1028.43 371.124,936.092 383,843.5C 427.714,709.022 485.381,580.356 556,457.5C 576.534,422.464 600.701,390.131 628.5,360.5 Z"/>
    <path fill="#f1ede8" d="M 2173.5,360.5 C 2182.2,368.032 2190.03,376.366 2197,385.5C 2230,428.801 2259,474.801 2284,523.5C 2337.73,627.726 2383.07,735.392 2420,846.5C 2431.54,936.673 2443.04,1026.84 2454.5,1117C 2454.17,1118.17 2453.83,1119.33 2453.5,1120.5C 2435.62,1107.39 2418.29,1093.55 2401.5,1079C 2344.39,1026.88 2286.39,975.883 2227.5,926C 2212.42,912.938 2199.59,898.104 2189,881.5C 2176.4,856.995 2172.07,830.995 2176,803.5C 2181.22,761.986 2184.55,720.319 2186,678.5C 2190.06,582.636 2187.39,486.969 2178,391.5C 2176.6,381.132 2175.1,370.799 2173.5,360.5 Z"/>
    <path fill="#514f56" d="M 253.5,910.5 C 253.647,914.598 253.98,918.431 254.5,922C 253.706,925.162 252.373,927.995 250.5,930.5C 251.186,923.653 252.186,916.986 253.5,910.5 Z"/>
    <path fill="#f1ede8" d="M 890.5,916.5 C 907.521,917.668 924.521,919.168 941.5,921C 1057,938.024 1172.67,954.024 1288.5,969C 1326.11,972.798 1363.78,975.965 1401.5,978.5C 1463.68,974.116 1525.68,967.949 1587.5,960C 1687.72,945.35 1788.05,931.35 1888.5,918C 1896.16,917.154 1903.83,916.82 1911.5,917C 1921.17,919.556 1930.5,922.889 1939.5,927C 1981.22,947.028 2022.22,968.361 2062.5,991C 2187,1061.4 2307.33,1138.07 2423.5,1221C 2435.76,1230.38 2447.92,1239.88 2460,1249.5C 2501.93,1344.78 2530.6,1444.11 2546,1547.5C 2547.83,1562.8 2549.33,1578.14 2550.5,1593.5C 2525.94,1663.34 2501.44,1733.34 2477,1803.5C 2462.75,1855.51 2467.75,1905.51 2492,1953.5C 2520.26,1997.7 2548.26,2042.03 2576,2086.5C 2586.5,2161.42 2587.17,2236.42 2578,2311.5C 2573.42,2340.58 2567.09,2369.25 2559,2397.5C 2468.69,2458.12 2389.36,2531.12 2321,2616.5C 2298.11,2645.28 2276.44,2674.95 2256,2705.5C 2164.11,2573.61 2071.44,2442.28 1978,2311.5C 1952.98,2268.76 1932.82,2223.93 1917.5,2177C 1962.52,2173.85 2005.19,2161.85 2045.5,2141C 2075.96,2123.21 2102.13,2100.38 2124,2072.5C 2145.49,2043.52 2166.49,2014.19 2187,1984.5C 2203.38,1961.12 2222.88,1940.62 2245.5,1923C 2254.85,1916.32 2264.85,1910.65 2275.5,1906C 2200.82,1869.25 2123.15,1840.58 2042.5,1820C 2022.54,1815.82 2002.37,1813.32 1982,1812.5C 1977.72,1812.4 1973.55,1812.9 1969.5,1814C 1910.43,1856.69 1844.76,1883.69 1772.5,1895C 1707.63,1904.2 1649.3,1889.2 1597.5,1850C 1591.36,1844.87 1585.53,1839.37 1580,1833.5C 1562.6,1784.47 1545.1,1735.47 1527.5,1686.5C 1517.11,1713.83 1507.61,1741.5 1499,1769.5C 1475.35,1816.58 1437.18,1837.41 1384.5,1832C 1348.23,1825.3 1322.06,1805.47 1306,1772.5C 1296.86,1743.91 1287.02,1715.57 1276.5,1687.5C 1275.91,1687.71 1275.41,1688.04 1275,1688.5C 1257.95,1736.94 1240.61,1785.27 1223,1833.5C 1179.58,1876.1 1127.24,1897.43 1066,1897.5C 1014.49,1895.45 965.326,1883.95 918.5,1863C 887.411,1849.63 858.411,1832.97 831.5,1813C 819.151,1812.51 806.818,1812.84 794.5,1814C 747.626,1822.04 701.96,1834.37 657.5,1851C 624.295,1863.57 591.295,1876.9 558.5,1891C 548.448,1895.8 538.448,1900.8 528.5,1906C 551.068,1917.05 570.902,1931.88 588,1950.5C 613.595,1981.09 637.262,2013.09 659,2046.5C 678.989,2075.16 702.489,2100.66 729.5,2123C 775.411,2155.66 826.745,2173 883.5,2175C 884.308,2175.31 884.975,2175.81 885.5,2176.5C 870.623,2222.93 850.79,2267.26 826,2309.5C 732.575,2441.36 639.408,2573.36 546.5,2705.5C 461.052,2587.88 360.218,2485.22 244,2397.5C 229.348,2349.61 221.015,2300.61 219,2250.5C 216.209,2194.91 218.875,2139.57 227,2084.5C 257.083,2038.67 286.416,1992.34 315,1945.5C 335.394,1899.9 339.061,1852.9 326,1804.5C 301.819,1735.44 277.485,1666.44 253,1597.5C 254.349,1566.98 257.682,1536.64 263,1506.5C 280.694,1418.36 307.027,1333.03 342,1250.5C 376.375,1222.79 411.875,1196.62 448.5,1172C 572.423,1088.18 700.757,1011.18 833.5,941C 852.393,932.108 871.393,923.941 890.5,916.5 Z"/>
    <path fill="#b6b5b6" d="M 212.5,1854.5 C 213.804,1861.22 213.471,1867.89 211.5,1874.5C 212.054,1867.85 212.388,1861.18 212.5,1854.5 Z"/>
    <path fill="#f0ede8" d="M 1927.5,1935.5 C 1965.31,1935.49 2001.98,1941.99 2037.5,1955C 2040.46,1957.87 2042.3,1961.37 2043,1965.5C 2045.02,1986.97 2037.52,2004.47 2020.5,2018C 2000.05,2032.12 1977.38,2040.45 1952.5,2043C 1925.41,2045.32 1899.08,2041.99 1873.5,2033C 1842.39,2020.95 1812.39,2006.45 1783.5,1989.5C 1797.17,1987.25 1810.5,1983.75 1823.5,1979C 1846.17,1968.23 1868.5,1956.9 1890.5,1945C 1896.5,1943 1902.5,1941 1908.5,1939C 1914.94,1937.61 1921.27,1936.44 1927.5,1935.5 Z"/>
    <path fill="#f0ede8" d="M 845.5,1935.5 C 869.287,1934.21 892.287,1937.71 914.5,1946C 935.645,1957.51 956.978,1968.51 978.5,1979C 991.44,1983.15 1004.44,1986.82 1017.5,1990C 986.635,2009.1 953.968,2024.43 919.5,2036C 882.927,2046.56 846.593,2045.89 810.5,2034C 789.411,2026.57 773.578,2013.07 763,1993.5C 760.054,1985.73 758.72,1977.73 759,1969.5C 759.471,1964.41 761.305,1959.91 764.5,1956C 790.777,1945.85 817.777,1939.01 845.5,1935.5 Z"/>
    <path fill="#f1ede8" d="M 1359.5,1988.5 C 1427.67,1984.55 1494.34,1992.38 1559.5,2012C 1642.74,2038.26 1711.58,2085.43 1766,2153.5C 1800.48,2210.3 1836.15,2266.3 1873,2321.5C 1972.1,2458.96 2066.1,2599.96 2155,2744.5C 2178.58,2878.78 2189.91,3014.11 2189,3150.5C 2186.52,3178.28 2176.52,3202.95 2159,3224.5C 2118,3273.5 2077,3322.5 2036,3371.5C 2026.2,3382.97 2016.04,3394.13 2005.5,3405C 1964.86,3437.33 1920.2,3444 1871.5,3425C 1865.71,3422.27 1860.04,3419.27 1854.5,3416C 1769.5,3361 1684.5,3306 1599.5,3251C 1527.44,3198.75 1480.94,3129.25 1460,3042.5C 1454.05,3000 1467.22,2964.83 1499.5,2937C 1576.73,2887.12 1649.4,2831.12 1717.5,2769C 1734,2752.5 1750.5,2736 1767,2719.5C 1774.36,2710.98 1781.52,2702.31 1788.5,2693.5C 1761.81,2655.97 1735.31,2618.31 1709,2580.5C 1707.83,2579.11 1706.33,2578.27 1704.5,2578C 1680.78,2572.2 1656.78,2567.87 1632.5,2565C 1494.98,2551.78 1357.32,2550.11 1219.5,2560C 1189.41,2563.01 1159.41,2566.67 1129.5,2571C 1118.55,2573.49 1107.55,2575.82 1096.5,2578C 1068.95,2615.89 1041.78,2654.06 1015,2692.5C 1014.33,2693.5 1014.33,2694.5 1015,2695.5C 1050.7,2736.92 1089.53,2775.08 1131.5,2810C 1186.3,2855.81 1243.63,2898.14 1303.5,2937C 1338.2,2967.44 1350.7,3005.28 1341,3050.5C 1316.45,3141.37 1264.62,3212.2 1185.5,3263C 1105.56,3313.94 1025.9,3365.27 946.5,3417C 907.682,3438.97 867.682,3441.3 826.5,3424C 810.084,3416.2 795.917,3405.36 784,3391.5C 736.291,3335.46 688.957,3279.13 642,3222.5C 624.599,3200.6 615.266,3175.6 614,3147.5C 613.064,3011.79 624.397,2877.13 648,2743.5C 698.922,2660.64 751.588,2578.98 806,2498.5C 856.723,2426.11 907.057,2353.44 957,2280.5C 994.458,2222.37 1031.12,2163.7 1067,2104.5C 1102.47,2068.18 1143.97,2041.01 1191.5,2023C 1245.77,2002.85 1301.77,1991.35 1359.5,1988.5 Z"/>
    <path fill="#d0d0ce" d="M 100.5,2129.5 C 99.4964,2143.65 98.4964,2157.65 97.5,2171.5C 97.7804,2159.97 97.447,2148.47 96.5,2137C 96.9212,2134.82 97.4212,2132.65 98,2130.5C 98.6708,2129.75 99.5041,2129.41 100.5,2129.5 Z"/>
    <path fill="#f1ede8" d="M 1337.5,2618.5 C 1422.27,2616.99 1506.93,2619.16 1591.5,2625C 1609.9,2626.49 1628.24,2628.49 1646.5,2631C 1653.57,2632.09 1660.57,2633.42 1667.5,2635C 1672.7,2641.23 1677.53,2647.73 1682,2654.5C 1688.58,2672.09 1683.41,2684.93 1666.5,2693C 1624.99,2698.53 1583.99,2706.53 1543.5,2717C 1534.43,2719.76 1525.76,2723.43 1517.5,2728C 1489.08,2748.75 1465.91,2774.25 1448,2804.5C 1442.32,2815.86 1436.65,2827.2 1431,2838.5C 1413.5,2856.77 1394.84,2858.11 1375,2842.5C 1374.05,2840.54 1372.71,2838.88 1371,2837.5C 1352.53,2792.05 1323.37,2755.22 1283.5,2727C 1267.31,2719.94 1250.64,2714.27 1233.5,2710C 1201.35,2703.21 1169.02,2697.55 1136.5,2693C 1119.52,2684.87 1114.35,2672.04 1121,2654.5C 1125.5,2648 1130,2641.5 1134.5,2635C 1159.96,2630.11 1185.62,2626.78 1211.5,2625C 1253.62,2621.96 1295.62,2619.79 1337.5,2618.5 Z"/>
    <path fill="#f1ede8" d="M 1383.5,3268.5 C 1434.67,3265.45 1480.34,3279.61 1520.5,3311C 1565.5,3338.5 1610.17,3366.5 1654.5,3395C 1617.83,3429.67 1575.16,3454.01 1526.5,3468C 1464.75,3484.74 1402.09,3489.08 1338.5,3481C 1266.17,3472.74 1203.01,3444.57 1149,3396.5C 1148.33,3395.83 1148.33,3395.17 1149,3394.5C 1203.1,3360.73 1256.93,3326.56 1310.5,3292C 1333.59,3280.02 1357.93,3272.19 1383.5,3268.5 Z"/>
  </svg>
</svg>