<svg viewBox="0 0 350 350" fill-rule="evenodd" clip-rule="evenodd" xmlns="http://www.w3.org/2000/svg">
  <!--path fill="#fefefe" d="M -0.5,-0.5 C 57.5,-0.5 115.5,-0.5 173.5,-0.5C 173.5,3.5 173.5,7.5 173.5,11.5C 170.713,20.9842 168.713,30.6509 167.5,40.5C 160.812,41.0981 154.146,41.9314 147.5,43C 140.238,45.4678 132.905,47.6344 125.5,49.5C 120.608,48.0276 115.608,47.0276 110.5,46.5C 110.733,41.9655 109.9,37.6322 108,33.5C 102.32,24.1421 97.1534,14.4754 92.5,4.5C 82.5795,19.2544 72.0795,33.5878 61,47.5C 51.9606,61.5701 49.4606,76.7368 53.5,93C 50.9549,100.68 49.1216,108.513 48,116.5C 41.0296,123.778 38.0296,132.444 39,142.5C 40.9348,148.867 43.7681,154.701 47.5,160C 46.3758,173.148 45.8758,186.315 46,199.5C 49.0739,207.575 53.4072,214.908 59,221.5C 60.7248,224.674 62.0581,228.007 63,231.5C 63.166,244.014 62.666,256.514 61.5,269C 60.6796,283.86 67.0129,294.526 80.5,301C 92.0898,303.86 103.756,306.527 115.5,309C 129.897,309.709 144.23,309.375 158.5,308C 173.954,324.298 191.287,338.131 210.5,349.5C 140.167,349.5 69.8333,349.5 -0.5,349.5C -0.5,232.833 -0.5,116.167 -0.5,-0.5 Z"/-->
  <!--path fill="#fefefe" d="M 175.5,0.5 C 175.5,0.166667 175.5,-0.166667 175.5,-0.5C 233.5,-0.5 291.5,-0.5 349.5,-0.5C 349.5,116.167 349.5,232.833 349.5,349.5C 303.833,349.5 258.167,349.5 212.5,349.5C 235.163,336.054 255.33,319.387 273,299.5C 299.464,268.444 311.797,232.444 310,191.5C 307.03,172.902 300.697,155.569 291,139.5C 279.337,121.546 265.337,105.546 249,91.5C 251.698,72.814 247.698,55.814 237,40.5C 229.372,30.5351 220.206,22.3685 209.5,16C 198.502,9.99959 187.169,4.83293 175.5,0.5 Z"/-->
  <path fill="#858585" d="M 173.5,-0.5 C 174.167,-0.5 174.833,-0.5 175.5,-0.5C 175.5,-0.166667 175.5,0.166667 175.5,0.5C 174.833,4.16667 174.167,7.83333 173.5,11.5C 173.5,7.5 173.5,3.5 173.5,-0.5 Z"/>
  <path fill="#080504" d="M 175.5,0.5 C 187.169,4.83293 198.502,9.99959 209.5,16C 220.206,22.3685 229.372,30.5351 237,40.5C 247.698,55.814 251.698,72.814 249,91.5C 265.337,105.546 279.337,121.546 291,139.5C 300.697,155.569 307.03,172.902 310,191.5C 311.797,232.444 299.464,268.444 273,299.5C 255.33,319.387 235.163,336.054 212.5,349.5C 211.833,349.5 211.167,349.5 210.5,349.5C 191.287,338.131 173.954,324.298 158.5,308C 144.23,309.375 129.897,309.709 115.5,309C 103.756,306.527 92.0898,303.86 80.5,301C 67.0129,294.526 60.6796,283.86 61.5,269C 62.666,256.514 63.166,244.014 63,231.5C 62.0581,228.007 60.7248,224.674 59,221.5C 53.4072,214.908 49.0739,207.575 46,199.5C 45.8758,186.315 46.3758,173.148 47.5,160C 43.7681,154.701 40.9348,148.867 39,142.5C 38.0296,132.444 41.0296,123.778 48,116.5C 49.1216,108.513 50.9549,100.68 53.5,93C 49.4606,76.7368 51.9606,61.5701 61,47.5C 72.0795,33.5878 82.5795,19.2544 92.5,4.5C 97.1534,14.4754 102.32,24.1421 108,33.5C 109.9,37.6322 110.733,41.9655 110.5,46.5C 115.608,47.0276 120.608,48.0276 125.5,49.5C 132.905,47.6344 140.238,45.4678 147.5,43C 154.146,41.9314 160.812,41.0981 167.5,40.5C 168.713,30.6509 170.713,20.9842 173.5,11.5C 174.167,7.83333 174.833,4.16667 175.5,0.5 Z"/>
  <path fill="#c9a86b" d="M 90.5,15.5 C 95.0503,22.2599 98.8836,29.5933 102,37.5C 103.199,40.7256 103.699,44.059 103.5,47.5C 102.167,47.5 100.833,47.5 99.5,47.5C 99.1667,45.5 98.8333,43.5 98.5,41.5C 97.5,41.5 96.5,41.5 95.5,41.5C 95.0409,45.8948 93.0409,48.5615 89.5,49.5C 91.252,44.5827 92.5853,39.5827 93.5,34.5C 93.3333,32.8333 93.1667,31.1667 93,29.5C 92.3333,28.1667 91.6667,28.1667 91,29.5C 85.3744,36.7945 79.3744,43.7945 73,50.5C 68.7573,57.2255 66.0906,64.5588 65,72.5C 63.907,74.3492 62.5737,76.0158 61,77.5C 60.215,71.3512 60.8817,65.3512 63,59.5C 70.0954,46.3025 78.4287,33.9692 88,22.5C 89.4114,20.3496 90.2447,18.0163 90.5,15.5 Z"/>
  <path fill="#120b06" d="M 191.5,63.5 C 195.164,67.3322 198.664,71.3322 202,75.5C 204.267,78.7007 205.934,82.0341 207,85.5C 201.255,79.0825 194.422,74.2491 186.5,71C 184.167,70.3333 181.833,70.3333 179.5,71C 175.673,72.746 172.007,74.746 168.5,77C 165.607,78.1488 162.607,78.6488 159.5,78.5C 164.619,75.3456 169.952,71.5123 175.5,67C 185.91,65.0255 185.577,63.6922 174.5,63C 180.267,59.5136 185.933,59.6802 191.5,63.5 Z"/>
  <path fill="#c09c62" d="M 237.5,103.5 C 237.44,104.043 237.107,104.376 236.5,104.5C 229.833,102.167 223.167,99.8333 216.5,97.5C 215.343,100.784 215.176,104.118 216,107.5C 220.008,118.852 226.508,128.519 235.5,136.5C 236.456,138.075 237.123,139.742 237.5,141.5C 235.049,139.877 233.049,137.711 231.5,135C 229.231,135.374 226.898,135.374 224.5,135C 225.451,134.282 225.617,133.449 225,132.5C 223.365,131.274 221.865,129.941 220.5,128.5C 222.335,124.779 221.335,122.446 217.5,121.5C 215.167,128.833 212.833,136.167 210.5,143.5C 209.5,143.5 208.5,143.5 207.5,143.5C 212.855,134.928 215.022,125.595 214,115.5C 213.226,113.061 211.726,111.227 209.5,110C 203.982,106.404 197.982,104.237 191.5,103.5C 193.966,102.366 196.633,102.199 199.5,103C 202.606,104.636 205.773,106.136 209,107.5C 210.44,105.631 212.107,103.965 214,102.5C 214.494,100.866 214.66,99.1992 214.5,97.5C 210.092,97.062 208.425,99.062 209.5,103.5C 207.801,103.66 206.134,103.494 204.5,103C 205.448,102.517 206.448,102.351 207.5,102.5C 207.865,98.5244 206.365,97.5244 203,99.5C 198.402,98.5636 198.402,97.5636 203,96.5C 204.44,97.1476 205.94,97.4809 207.5,97.5C 207.799,95.396 207.466,93.396 206.5,91.5C 204.697,90.8632 203.364,89.6965 202.5,88C 201.552,87.5172 200.552,87.3505 199.5,87.5C 200.164,89.8669 201.497,91.8669 203.5,93.5C 202.332,95.2174 200.665,95.8841 198.5,95.5C 197.514,92.507 196.514,89.507 195.5,86.5C 196.5,86.5 197.5,86.5 198.5,86.5C 198.227,84.549 198.893,83.049 200.5,82C 197.18,79.0055 193.513,76.5055 189.5,74.5C 185.596,76.9993 181.263,78.166 176.5,78C 175.944,78.3826 175.611,78.8826 175.5,79.5C 173.565,80.1495 171.565,80.4828 169.5,80.5C 165.96,80.2474 162.627,79.5808 159.5,78.5C 162.607,78.6488 165.607,78.1488 168.5,77C 172.007,74.746 175.673,72.746 179.5,71C 181.833,70.3333 184.167,70.3333 186.5,71C 194.422,74.2491 201.255,79.0825 207,85.5C 205.934,82.0341 204.267,78.7007 202,75.5C 198.664,71.3322 195.164,67.3322 191.5,63.5C 193.903,63.393 195.736,64.393 197,66.5C 200.824,70.8145 204.157,75.4812 207,80.5C 207.398,77.7683 208.898,75.935 211.5,75C 210.21,72.708 208.543,70.708 206.5,69C 205.004,68.4926 203.837,68.9926 203,70.5C 202.667,70.1667 202.333,69.8333 202,69.5C 202.661,67.9652 202.994,66.2985 203,64.5C 197.353,58.7674 191.52,53.434 185.5,48.5C 183.344,46.159 180.844,44.159 178,42.5C 177.833,41.3333 177.667,40.1667 177.5,39C 179.248,29.1764 180.915,19.3431 182.5,9.5C 200.001,17.6683 215.501,28.6683 229,42.5C 233.67,48.8416 237.004,55.8416 239,63.5C 238.837,76.8357 238.337,90.1691 237.5,103.5 Z"/>
  <path fill="#0d0806" d="M 187.5,19.5 C 188.75,19.5774 189.583,20.244 190,21.5C 192.037,29.9548 195.037,37.9548 199,45.5C 198.872,42.5144 198.872,39.5144 199,36.5C 202.414,42.9969 206.081,49.3303 210,55.5C 210.333,51.5 210.667,47.5 211,43.5C 214.904,47.6478 218.571,51.9811 222,56.5C 221.541,48.7409 218.708,41.9076 213.5,36C 213.833,35.8333 214.167,35.6667 214.5,35.5C 225.915,42.9743 232.248,53.641 233.5,67.5C 232.981,74.8455 232.314,82.1789 231.5,89.5C 228.836,82.9974 224.836,77.4974 219.5,73C 218.668,72.3123 218.002,72.479 217.5,73.5C 218.128,75.2581 219.128,76.7581 220.5,78C 218.721,77.956 217.055,77.2893 215.5,76C 207.006,66.1729 198.172,56.6729 189,47.5C 187.158,44.2457 186.325,40.7457 186.5,37C 187.193,31.185 187.526,25.3517 187.5,19.5 Z"/>
  <path fill="#332117" d="M 203.5,29.5 C 205.456,28.1988 207.123,28.6988 208.5,31C 206.718,31.1218 205.052,30.6218 203.5,29.5 Z"/>
  <path fill="#bb9659" d="M 185.5,48.5 C 191.52,53.434 197.353,58.7674 203,64.5C 202.994,66.2985 202.661,67.9652 202,69.5C 202.333,69.8333 202.667,70.1667 203,70.5C 203.837,68.9926 205.004,68.4926 206.5,69C 208.543,70.708 210.21,72.708 211.5,75C 208.898,75.935 207.398,77.7683 207,80.5C 204.157,75.4812 200.824,70.8145 197,66.5C 195.736,64.393 193.903,63.393 191.5,63.5C 185.933,59.6802 180.267,59.5136 174.5,63C 185.577,63.6922 185.91,65.0255 175.5,67C 169.952,71.5123 164.619,75.3456 159.5,78.5C 162.627,79.5808 165.96,80.2474 169.5,80.5C 161.242,84.3594 152.576,87.3594 143.5,89.5C 144.852,90.5244 146.185,91.5244 147.5,92.5C 152.795,95.3623 158.461,96.1956 164.5,95C 168.189,93.1557 171.855,91.3223 175.5,89.5C 180.833,89.5 186.167,89.5 191.5,89.5C 191.649,88.448 191.483,87.448 191,86.5C 186.863,81.8474 181.696,79.514 175.5,79.5C 175.611,78.8826 175.944,78.3826 176.5,78C 181.263,78.166 185.596,76.9993 189.5,74.5C 193.513,76.5055 197.18,79.0055 200.5,82C 198.893,83.049 198.227,84.549 198.5,86.5C 197.5,86.5 196.5,86.5 195.5,86.5C 196.514,89.507 197.514,92.507 198.5,95.5C 200.665,95.8841 202.332,95.2174 203.5,93.5C 201.497,91.8669 200.164,89.8669 199.5,87.5C 200.552,87.3505 201.552,87.5172 202.5,88C 203.364,89.6965 204.697,90.8632 206.5,91.5C 207.466,93.396 207.799,95.396 207.5,97.5C 205.94,97.4809 204.44,97.1476 203,96.5C 198.402,97.5636 198.402,98.5636 203,99.5C 206.365,97.5244 207.865,98.5244 207.5,102.5C 206.448,102.351 205.448,102.517 204.5,103C 206.134,103.494 207.801,103.66 209.5,103.5C 208.425,99.062 210.092,97.062 214.5,97.5C 214.66,99.1992 214.494,100.866 214,102.5C 212.107,103.965 210.44,105.631 209,107.5C 205.773,106.136 202.606,104.636 199.5,103C 196.633,102.199 193.966,102.366 191.5,103.5C 189.473,103.338 187.473,103.505 185.5,104C 192.61,105.536 198.277,109.036 202.5,114.5C 201.797,122.631 199.797,130.631 196.5,138.5C 195.088,137.194 193.421,136.36 191.5,136C 186.833,135.333 182.167,135.333 177.5,136C 168.969,138.505 161.135,142.338 154,147.5C 152.605,147.22 151.438,146.553 150.5,145.5C 149.725,143.604 148.725,141.937 147.5,140.5C 147.5,139.167 147.5,137.833 147.5,136.5C 153.581,128.245 160.248,120.412 167.5,113C 161.78,113.86 156.78,116.36 152.5,120.5C 148.767,111.43 143.101,103.763 135.5,97.5C 135.167,97.6667 134.833,97.8333 134.5,98C 140.828,105.824 145.162,114.657 147.5,124.5C 146.04,128.753 144.04,132.753 141.5,136.5C 139.656,134.721 138.99,132.388 139.5,129.5C 138.209,129.263 137.209,129.596 136.5,130.5C 130.502,132.716 126.502,137.049 124.5,143.5C 123.145,141.479 121.479,139.812 119.5,138.5C 119.334,133.821 119.501,129.155 120,124.5C 124.157,110.65 124.657,96.65 121.5,82.5C 123.242,67.0616 122.242,66.7283 118.5,81.5C 117.028,85.9192 116.362,90.5859 116.5,95.5C 114.204,103.548 111.37,111.548 108,119.5C 106.334,124.81 106.168,130.143 107.5,135.5C 106.167,135.5 104.833,135.5 103.5,135.5C 104.59,138.985 104.59,142.319 103.5,145.5C 101.98,139.459 99.1466,134.126 95,129.5C 94.5088,119.472 97.6754,110.805 104.5,103.5C 105.947,102.378 106.947,100.878 107.5,99C 106.833,98.8333 106.167,98.6667 105.5,98.5C 97.3331,101.922 90.6664,107.255 85.5,114.5C 82.1033,115.172 78.7699,116.005 75.5,117C 75.1667,117.333 74.8333,117.667 74.5,118C 75.9007,118.41 77.234,118.91 78.5,119.5C 86.6366,125.801 93.1366,133.468 98,142.5C 98.4966,144.81 98.6633,147.143 98.5,149.5C 95.8589,150.263 93.1922,150.43 90.5,150C 84.3446,145.089 78.0112,140.423 71.5,136C 66.307,134.032 60.9736,133.366 55.5,134C 52.6711,135.356 50.0045,136.856 47.5,138.5C 48.0733,125.764 54.0733,116.597 65.5,111C 63.4062,109.648 61.0728,109.148 58.5,109.5C 58.3077,100.385 61.9744,93.2183 69.5,88C 74.6937,87.9884 79.6937,87.1551 84.5,85.5C 78.8333,84.1667 73.1667,82.8333 67.5,81.5C 76.1328,65.5182 89.4661,56.5182 107.5,54.5C 113.281,55.362 118.948,56.6954 124.5,58.5C 136.152,53.8946 148.152,50.3946 160.5,48C 168.861,47.2953 177.194,47.4619 185.5,48.5 Z"/>
  <path fill="#0e0706" d="M 175.5,89.5 C 171.855,91.3223 168.189,93.1557 164.5,95C 158.461,96.1956 152.795,95.3623 147.5,92.5C 151.312,91.6762 155.312,91.1762 159.5,91C 168.369,85.063 177.702,84.063 187.5,88C 183.312,88.1762 179.312,88.6762 175.5,89.5 Z"/>
  <path fill="#9d7441" d="M 175.5,79.5 C 181.696,79.514 186.863,81.8474 191,86.5C 191.483,87.448 191.649,88.448 191.5,89.5C 186.167,89.5 180.833,89.5 175.5,89.5C 179.312,88.6762 183.312,88.1762 187.5,88C 177.702,84.063 168.369,85.063 159.5,91C 155.312,91.1762 151.312,91.6762 147.5,92.5C 146.185,91.5244 144.852,90.5244 143.5,89.5C 152.576,87.3594 161.242,84.3594 169.5,80.5C 171.565,80.4828 173.565,80.1495 175.5,79.5 Z"/>
  <path fill="#140c08" d="M 97.5,92.5 C 98.0431,92.56 98.3764,92.8933 98.5,93.5C 93.4792,101.84 86.1458,105.007 76.5,103C 73.9556,101.908 71.2889,101.241 68.5,101C 69.3279,100.085 70.3279,99.4186 71.5,99C 81.0548,99.8851 89.7215,97.7184 97.5,92.5 Z"/>
  <path fill="#ad8a5e" d="M 103.5,102.5 C 97.073,108.264 91.7396,114.93 87.5,122.5C 84.8068,121.153 82.1401,119.82 79.5,118.5C 79.9169,117.876 80.5836,117.543 81.5,117.5C 83.3365,118.933 85.3365,119.433 87.5,119C 91.1316,112.379 95.7982,106.712 101.5,102C 102.437,101.308 103.103,101.475 103.5,102.5 Z"/>
  <path fill="#0a0504" d="M 191.5,103.5 C 197.982,104.237 203.982,106.404 209.5,110C 211.726,111.227 213.226,113.061 214,115.5C 215.022,125.595 212.855,134.928 207.5,143.5C 207.167,143.5 206.833,143.5 206.5,143.5C 204.973,140.26 204.306,136.76 204.5,133C 205.044,127.826 205.211,122.659 205,117.5C 204.623,116.058 203.79,115.058 202.5,114.5C 198.277,109.036 192.61,105.536 185.5,104C 187.473,103.505 189.473,103.338 191.5,103.5 Z"/>
  <path fill="#996e37" d="M 104.5,103.5 C 104.5,102.833 104.167,102.5 103.5,102.5C 103.103,101.475 102.437,101.308 101.5,102C 95.7982,106.712 91.1316,112.379 87.5,119C 85.3365,119.433 83.3365,118.933 81.5,117.5C 80.5836,117.543 79.9169,117.876 79.5,118.5C 78.8333,118.5 78.5,118.833 78.5,119.5C 77.234,118.91 75.9007,118.41 74.5,118C 74.8333,117.667 75.1667,117.333 75.5,117C 78.7699,116.005 82.1033,115.172 85.5,114.5C 90.6664,107.255 97.3331,101.922 105.5,98.5C 106.167,98.6667 106.833,98.8333 107.5,99C 106.947,100.878 105.947,102.378 104.5,103.5 Z"/>
  <path fill="#130c07" d="M 119.5,138.5 C 119.5,140.5 119.5,142.5 119.5,144.5C 115.93,139.654 113.597,134.154 112.5,128C 116.978,112.821 118.978,97.321 118.5,81.5C 122.242,66.7283 123.242,67.0616 121.5,82.5C 124.657,96.65 124.157,110.65 120,124.5C 119.501,129.155 119.334,133.821 119.5,138.5 Z"/>
  <path fill="#a1723c" d="M 116.5,95.5 C 116.708,103.899 115.208,111.899 112,119.5C 110.465,128.275 111.965,136.441 116.5,144C 116.167,144.5 115.833,145 115.5,145.5C 112.43,142.436 109.763,139.103 107.5,135.5C 106.168,130.143 106.334,124.81 108,119.5C 111.37,111.548 114.204,103.548 116.5,95.5 Z"/>
  <path fill="#0e0908" d="M 147.5,136.5 C 146.778,136.918 146.278,137.584 146,138.5C 145.333,142.167 145.333,145.833 146,149.5C 149.04,155.368 153.54,156.868 159.5,154C 162.464,150.034 165.797,146.367 169.5,143C 172.459,141.396 175.459,140.229 178.5,139.5C 186.618,138.104 192.951,140.77 197.5,147.5C 197.167,147.833 196.833,148.167 196.5,148.5C 195.833,147.833 195.167,147.167 194.5,146.5C 194.149,161.518 186.482,168.518 171.5,167.5C 166.4,166.745 161.733,164.911 157.5,162C 153.75,161.74 150.084,161.073 146.5,160C 140.914,155.471 134.581,153.805 127.5,155C 125.34,155.996 123.673,157.496 122.5,159.5C 122.167,159.5 121.833,159.5 121.5,159.5C 120.937,153.628 123.27,149.294 128.5,146.5C 129.448,141.81 131.614,137.81 135,134.5C 134.631,137.79 134.631,141.123 135,144.5C 135.687,146.555 136.854,148.221 138.5,149.5C 139.042,144.995 140.042,140.661 141.5,136.5C 144.04,132.753 146.04,128.753 147.5,124.5C 145.162,114.657 140.828,105.824 134.5,98C 134.833,97.8333 135.167,97.6667 135.5,97.5C 143.101,103.763 148.767,111.43 152.5,120.5C 156.78,116.36 161.78,113.86 167.5,113C 160.248,120.412 153.581,128.245 147.5,136.5 Z"/>
  <path fill="#110c0a" d="M 103.5,102.5 C 104.167,102.5 104.5,102.833 104.5,103.5C 97.6754,110.805 94.5088,119.472 95,129.5C 99.1466,134.126 101.98,139.459 103.5,145.5C 103.183,148.572 103.516,151.572 104.5,154.5C 105.892,153.395 107.059,152.061 108,150.5C 108.502,146.759 108.502,143.092 108,139.5C 111.482,142.799 113.649,146.799 114.5,151.5C 113.167,152.167 111.833,152.833 110.5,153.5C 105.749,158.041 100.083,160.708 93.5,161.5C 91.9562,170.538 86.6229,174.371 77.5,173C 67.5894,168.362 62.256,160.529 61.5,149.5C 60.2011,150.09 59.3678,151.09 59,152.5C 59.0347,145.032 62.868,142.198 70.5,144C 76.3653,146.542 81.6986,149.875 86.5,154C 89.366,155.457 92.366,155.79 95.5,155C 97.607,153.736 98.607,151.903 98.5,149.5C 98.6633,147.143 98.4966,144.81 98,142.5C 93.1366,133.468 86.6366,125.801 78.5,119.5C 78.5,118.833 78.8333,118.5 79.5,118.5C 82.1401,119.82 84.8068,121.153 87.5,122.5C 91.7396,114.93 97.073,108.264 103.5,102.5 Z"/>
  <path fill="#a27d52" d="M 118.5,81.5 C 118.978,97.321 116.978,112.821 112.5,128C 113.597,134.154 115.93,139.654 119.5,144.5C 117.804,147.236 116.638,150.236 116,153.5C 115.722,152.584 115.222,151.918 114.5,151.5C 113.649,146.799 111.482,142.799 108,139.5C 108.502,143.092 108.502,146.759 108,150.5C 107.059,152.061 105.892,153.395 104.5,154.5C 103.516,151.572 103.183,148.572 103.5,145.5C 104.59,142.319 104.59,138.985 103.5,135.5C 104.833,135.5 106.167,135.5 107.5,135.5C 109.763,139.103 112.43,142.436 115.5,145.5C 115.833,145 116.167,144.5 116.5,144C 111.965,136.441 110.465,128.275 112,119.5C 115.208,111.899 116.708,103.899 116.5,95.5C 116.362,90.5859 117.028,85.9192 118.5,81.5 Z"/>
  <path fill="#9b7037" d="M 136.5,130.5 C 138.344,131.204 138.844,132.537 138,134.5C 137.612,133.572 136.945,132.905 136,132.5C 130.776,134.268 127.942,137.934 127.5,143.5C 122.416,147.668 119.416,153.002 118.5,159.5C 119.5,159.5 120.5,159.5 121.5,159.5C 121.833,159.5 122.167,159.5 122.5,159.5C 125.254,158.634 127.921,157.467 130.5,156C 131.833,155.333 133.167,155.333 134.5,156C 129.583,157.474 125.25,159.974 121.5,163.5C 117.732,162.066 115.398,159.4 114.5,155.5C 109.825,158.84 104.825,161.673 99.5,164C 99.6316,167.547 99.2983,171.047 98.5,174.5C 98.6716,173.508 98.3382,172.842 97.5,172.5C 97.19,171.262 96.69,171.262 96,172.5C 95.6667,171.167 95.3333,169.833 95,168.5C 94.2825,169.451 93.4491,169.617 92.5,169C 93.4601,167.581 94.2935,166.081 95,164.5C 101.585,161.125 108.085,157.625 114.5,154C 113.207,153.51 111.873,153.343 110.5,153.5C 111.833,152.833 113.167,152.167 114.5,151.5C 115.222,151.918 115.722,152.584 116,153.5C 116.638,150.236 117.804,147.236 119.5,144.5C 119.5,142.5 119.5,140.5 119.5,138.5C 121.479,139.812 123.145,141.479 124.5,143.5C 126.502,137.049 130.502,132.716 136.5,130.5 Z"/>
  <path fill="#a48255" d="M 136.5,130.5 C 137.209,129.596 138.209,129.263 139.5,129.5C 138.99,132.388 139.656,134.721 141.5,136.5C 140.042,140.661 139.042,144.995 138.5,149.5C 136.854,148.221 135.687,146.555 135,144.5C 134.631,141.123 134.631,137.79 135,134.5C 131.614,137.81 129.448,141.81 128.5,146.5C 123.27,149.294 120.937,153.628 121.5,159.5C 120.5,159.5 119.5,159.5 118.5,159.5C 119.416,153.002 122.416,147.668 127.5,143.5C 127.942,137.934 130.776,134.268 136,132.5C 136.945,132.905 137.612,133.572 138,134.5C 138.844,132.537 138.344,131.204 136.5,130.5 Z"/>
  <path fill="#ececec" d="M 179.5,146.5 C 181.833,146.5 184.167,146.5 186.5,146.5C 188.178,161.028 181.845,166.195 167.5,162C 166.5,161.167 165.5,160.333 164.5,159.5C 166.169,158.329 167.669,156.996 169,155.5C 170.596,156.497 172.096,157.663 173.5,159C 178.371,159.635 181.037,157.468 181.5,152.5C 170.474,152.644 169.808,150.644 179.5,146.5 Z"/>
  <path fill="#9d723e" d="M 237.5,103.5 C 239.154,107.268 239.988,111.268 240,115.5C 234.064,109.626 227.23,105.46 219.5,103C 223.043,107.916 226.21,113.083 229,118.5C 233.24,123.317 237.24,128.317 241,133.5C 243.035,136.561 244.201,139.895 244.5,143.5C 246.063,158.469 243.23,172.469 236,185.5C 234.587,187.414 232.753,188.747 230.5,189.5C 230.35,184.618 230.35,179.785 230.5,175C 228.497,172.911 227.33,170.411 227,167.5C 226,166.167 225,166.167 224,167.5C 223.517,166.552 223.351,165.552 223.5,164.5C 223.5,162.833 223.5,161.167 223.5,159.5C 228.451,161.117 231.784,164.451 233.5,169.5C 240.697,160.88 242.03,151.547 237.5,141.5C 237.123,139.742 236.456,138.075 235.5,136.5C 226.508,128.519 220.008,118.852 216,107.5C 215.176,104.118 215.343,100.784 216.5,97.5C 223.167,99.8333 229.833,102.167 236.5,104.5C 237.107,104.376 237.44,104.043 237.5,103.5 Z"/>
  <path fill="#9e7e5c" d="M 147.5,136.5 C 147.5,137.833 147.5,139.167 147.5,140.5C 145.924,144.444 146.591,148.11 149.5,151.5C 153.44,154.266 157.107,153.933 160.5,150.5C 164.519,143.462 170.519,139.795 178.5,139.5C 175.459,140.229 172.459,141.396 169.5,143C 165.797,146.367 162.464,150.034 159.5,154C 153.54,156.868 149.04,155.368 146,149.5C 145.333,145.833 145.333,142.167 146,138.5C 146.278,137.584 146.778,136.918 147.5,136.5 Z"/>
  <path fill="#9e7441" d="M 202.5,114.5 C 203.79,115.058 204.623,116.058 205,117.5C 205.211,122.659 205.044,127.826 204.5,133C 204.306,136.76 204.973,140.26 206.5,143.5C 206.657,144.873 206.49,146.207 206,147.5C 201.955,153.09 197.788,158.59 193.5,164C 190.594,166.303 187.594,167.637 184.5,168C 179.98,168.814 175.646,168.647 171.5,167.5C 186.482,168.518 194.149,161.518 194.5,146.5C 195.167,147.167 195.833,147.833 196.5,148.5C 196.833,148.167 197.167,147.833 197.5,147.5C 192.951,140.77 186.618,138.104 178.5,139.5C 170.519,139.795 164.519,143.462 160.5,150.5C 157.107,153.933 153.44,154.266 149.5,151.5C 146.591,148.11 145.924,144.444 147.5,140.5C 148.725,141.937 149.725,143.604 150.5,145.5C 151.438,146.553 152.605,147.22 154,147.5C 161.135,142.338 168.969,138.505 177.5,136C 182.167,135.333 186.833,135.333 191.5,136C 193.421,136.36 195.088,137.194 196.5,138.5C 199.797,130.631 201.797,122.631 202.5,114.5 Z"/>
  <path fill="#ba9457" d="M 237.5,141.5 C 242.03,151.547 240.697,160.88 233.5,169.5C 231.784,164.451 228.451,161.117 223.5,159.5C 223.5,161.167 223.5,162.833 223.5,164.5C 222.199,167.101 220.866,169.768 219.5,172.5C 216.304,167.802 213.304,162.802 210.5,157.5C 201.561,173.666 187.894,179.5 169.5,175C 166.628,174.685 163.795,174.185 161,173.5C 160.5,173.833 160,174.167 159.5,174.5C 163.49,178.659 167.324,182.993 171,187.5C 172.011,188.337 173.178,188.67 174.5,188.5C 173.258,192.743 172.258,197.076 171.5,201.5C 169.211,198.709 166.711,196.042 164,193.5C 160.885,208.282 165.051,220.448 176.5,230C 192.851,233.505 200.351,243.672 199,260.5C 193.736,265.484 188.57,270.651 183.5,276C 178.233,277.359 172.899,277.359 167.5,276C 165.416,275.303 163.749,274.136 162.5,272.5C 154.579,270.118 148.079,265.451 143,258.5C 142.667,253.167 142.333,247.833 142,242.5C 141.478,239.719 140.311,237.385 138.5,235.5C 134.049,220.093 123.716,213.427 107.5,215.5C 91.8458,214.187 81.5125,220.854 76.5,235.5C 76.0843,230.507 75.7509,225.507 75.5,220.5C 76.492,210.196 79.492,200.529 84.5,191.5C 85.3214,194.447 85.8214,197.447 86,200.5C 88.4506,195.42 91.9506,191.253 96.5,188C 99.0991,187.231 101.599,187.398 104,188.5C 103.722,184.075 101.222,182.075 96.5,182.5C 96.9628,179.779 97.6295,177.112 98.5,174.5C 99.2983,171.047 99.6316,167.547 99.5,164C 104.825,161.673 109.825,158.84 114.5,155.5C 115.398,159.4 117.732,162.066 121.5,163.5C 125.25,159.974 129.583,157.474 134.5,156C 133.167,155.333 131.833,155.333 130.5,156C 127.921,157.467 125.254,158.634 122.5,159.5C 123.673,157.496 125.34,155.996 127.5,155C 134.581,153.805 140.914,155.471 146.5,160C 150.084,161.073 153.75,161.74 157.5,162C 161.733,164.911 166.4,166.745 171.5,167.5C 175.646,168.647 179.98,168.814 184.5,168C 187.594,167.637 190.594,166.303 193.5,164C 197.788,158.59 201.955,153.09 206,147.5C 206.49,146.207 206.657,144.873 206.5,143.5C 206.833,143.5 207.167,143.5 207.5,143.5C 208.5,143.5 209.5,143.5 210.5,143.5C 212.833,136.167 215.167,128.833 217.5,121.5C 221.335,122.446 222.335,124.779 220.5,128.5C 221.865,129.941 223.365,131.274 225,132.5C 225.617,133.449 225.451,134.282 224.5,135C 226.898,135.374 229.231,135.374 231.5,135C 233.049,137.711 235.049,139.877 237.5,141.5 Z"/>
  <path fill="#a37846" d="M 98.5,149.5 C 98.607,151.903 97.607,153.736 95.5,155C 92.366,155.79 89.366,155.457 86.5,154C 81.6986,149.875 76.3653,146.542 70.5,144C 62.868,142.198 59.0347,145.032 59,152.5C 59.3678,151.09 60.2011,150.09 61.5,149.5C 62.256,160.529 67.5894,168.362 77.5,173C 86.6229,174.371 91.9562,170.538 93.5,161.5C 100.083,160.708 105.749,158.041 110.5,153.5C 111.873,153.343 113.207,153.51 114.5,154C 108.085,157.625 101.585,161.125 95,164.5C 94.2935,166.081 93.4601,167.581 92.5,169C 93.4491,169.617 94.2825,169.451 95,168.5C 95.3333,169.833 95.6667,171.167 96,172.5C 96.69,171.262 97.19,171.262 97.5,172.5C 95.8423,175.794 93.6756,178.794 91,181.5C 91.3333,178.833 91.6667,176.167 92,173.5C 86.7973,181.404 79.964,186.904 71.5,190C 65,186.167 59.8333,181 56,174.5C 54.9673,168.766 55.4673,163.266 57.5,158C 51.9198,152.673 48.5865,146.173 47.5,138.5C 50.0045,136.856 52.6711,135.356 55.5,134C 60.9736,133.366 66.307,134.032 71.5,136C 78.0112,140.423 84.3446,145.089 90.5,150C 93.1922,150.43 95.8589,150.263 98.5,149.5 Z"/>
  <path fill="#ecedec" d="M 66.5,149.5 C 71.6756,150.502 76.0089,153.002 79.5,157C 72.3518,157.139 71.6851,159.472 77.5,164C 79.1667,164.667 80.8333,164.667 82.5,164C 85.4006,160.53 86.7339,160.697 86.5,164.5C 82.2284,167.882 77.5617,168.382 72.5,166C 68.8228,161.137 66.8228,155.637 66.5,149.5 Z"/>
  <path fill="#c6a877" d="M 278.5,143.5 C 285.653,153.139 290.653,163.806 293.5,175.5C 288.973,166.116 284.14,156.783 279,147.5C 278.51,146.207 278.343,144.873 278.5,143.5 Z"/>
  <path fill="#110906" d="M 167.5,188.5 C 156.51,187.51 150.51,181.51 149.5,170.5C 149.369,169.761 149.536,169.094 150,168.5C 154.47,176.602 160.636,183.102 168.5,188C 168.272,188.399 167.938,188.565 167.5,188.5 Z"/>
  <path fill="#9e7340" d="M 219.5,172.5 C 221.576,174.67 221.743,177.003 220,179.5C 216.491,174.485 213.491,169.152 211,163.5C 210.641,166.544 209.974,166.878 209,164.5C 206.07,167.691 203.237,171.024 200.5,174.5C 201.833,175.167 203.167,175.833 204.5,176.5C 202.896,178.179 202.229,180.179 202.5,182.5C 204.167,182.5 205.833,182.5 207.5,182.5C 207.34,180.801 207.506,179.134 208,177.5C 208.333,177.833 208.667,178.167 209,178.5C 210.195,175.193 211.028,175.027 211.5,178C 210.41,181.011 208.91,183.844 207,186.5C 193.347,192.987 189.514,203.32 195.5,217.5C 195.291,218.086 194.957,218.586 194.5,219C 188.678,217.144 183.844,213.644 180,208.5C 179.601,208.728 179.435,209.062 179.5,209.5C 178.778,209.082 178.278,208.416 178,207.5C 176.983,209.376 176.149,211.376 175.5,213.5C 171.942,210.065 169.109,206.065 167,201.5C 166.658,213.505 171.825,222.338 182.5,228C 183.332,228.688 183.998,228.521 184.5,227.5C 183.5,225.5 182.5,223.5 181.5,221.5C 184.488,222.923 187.321,225.256 190,228.5C 197.368,238.571 203.701,249.238 209,260.5C 210.465,267.612 208.298,273.279 202.5,277.5C 202.167,276.833 201.833,276.167 201.5,275.5C 207.345,264.382 205.845,263.715 197,273.5C 195.643,276.898 193.81,279.898 191.5,282.5C 189.189,283.914 187.189,285.747 185.5,288C 184.127,288.875 182.627,289.375 181,289.5C 175.285,288.488 170.118,286.322 165.5,283C 163.288,282.211 161.288,282.378 159.5,283.5C 145.048,280.098 130.381,278.264 115.5,278C 112.605,276.06 110.272,273.56 108.5,270.5C 121.042,267.127 130.542,259.793 137,248.5C 138.075,244.23 138.575,239.897 138.5,235.5C 140.311,237.385 141.478,239.719 142,242.5C 142.333,247.833 142.667,253.167 143,258.5C 148.079,265.451 154.579,270.118 162.5,272.5C 163.749,274.136 165.416,275.303 167.5,276C 172.899,277.359 178.233,277.359 183.5,276C 188.57,270.651 193.736,265.484 199,260.5C 200.351,243.672 192.851,233.505 176.5,230C 165.051,220.448 160.885,208.282 164,193.5C 166.711,196.042 169.211,198.709 171.5,201.5C 172.258,197.076 173.258,192.743 174.5,188.5C 173.178,188.67 172.011,188.337 171,187.5C 167.324,182.993 163.49,178.659 159.5,174.5C 160,174.167 160.5,173.833 161,173.5C 163.795,174.185 166.628,174.685 169.5,175C 187.894,179.5 201.561,173.666 210.5,157.5C 213.304,162.802 216.304,167.802 219.5,172.5 Z"/>
  <path fill="#bf995b" d="M 278.5,143.5 C 278.343,144.873 278.51,146.207 279,147.5C 284.14,156.783 288.973,166.116 293.5,175.5C 295.908,180.449 297.408,185.782 298,191.5C 298.819,205.225 298.319,218.891 296.5,232.5C 293.667,215.906 290.501,199.239 287,182.5C 283.54,171.413 278.374,161.247 271.5,152C 270.668,151.312 270.002,151.479 269.5,152.5C 273.363,173.313 274.863,194.313 274,215.5C 273.492,225.041 271.825,234.374 269,243.5C 269.722,231.493 269.556,219.493 268.5,207.5C 268.832,194.129 268.332,180.796 267,167.5C 263.2,147.616 258.7,127.95 253.5,108.5C 253.846,107.304 254.346,107.304 255,108.5C 264.256,119.248 272.09,130.915 278.5,143.5 Z"/>
  <path fill="#120a06" d="M 157.5,194.5 C 157.565,194.938 157.399,195.272 157,195.5C 148.628,186.567 139.128,184.234 128.5,188.5C 131.247,180.963 136.581,178.463 144.5,181C 151.03,183.363 155.363,187.863 157.5,194.5 Z"/>
  <path fill="#ccae75" d="M 149.5,170.5 C 150.51,181.51 156.51,187.51 167.5,188.5C 168.85,189.65 168.684,190.317 167,190.5C 163.461,189.406 159.961,188.572 156.5,188C 158.374,190.228 159.208,192.728 159,195.5C 158.617,194.944 158.117,194.611 157.5,194.5C 155.363,187.863 151.03,183.363 144.5,181C 136.581,178.463 131.247,180.963 128.5,188.5C 127.69,184.006 129.69,180.839 134.5,179C 139.885,177.897 144.885,178.731 149.5,181.5C 149.004,177.842 149.004,174.175 149.5,170.5 Z"/>
  <path fill="#a88252" d="M 53.5,188.5 C 56.8332,191.664 60.3332,194.664 64,197.5C 66.1448,203.332 67.1448,209.332 67,215.5C 63.6863,211.352 60.1863,207.352 56.5,203.5C 54.1186,198.789 53.1186,193.789 53.5,188.5 Z"/>
  <path fill="#a27b4e" d="M 244.5,143.5 C 246.006,146.356 246.672,149.523 246.5,153C 245.658,164.223 243.158,175.057 239,185.5C 235.974,188.026 232.807,190.36 229.5,192.5C 228.671,187.533 228.171,182.533 228,177.5C 227.333,176.167 226.667,174.833 226,173.5C 224.654,179.508 221.654,184.508 217,188.5C 216.321,183.682 215.321,179.016 214,174.5C 213.091,183.236 208.591,189.236 200.5,192.5C 194.806,197.602 192.973,203.935 195,211.5C 195.098,213.619 195.931,215.286 197.5,216.5C 198.05,211.407 199.717,206.74 202.5,202.5C 203.666,212.483 203.832,222.483 203,232.5C 198.075,225.573 191.908,220.073 184.5,216C 182.21,214.223 180.543,212.056 179.5,209.5C 179.435,209.062 179.601,208.728 180,208.5C 183.844,213.644 188.678,217.144 194.5,219C 194.957,218.586 195.291,218.086 195.5,217.5C 189.514,203.32 193.347,192.987 207,186.5C 208.91,183.844 210.41,181.011 211.5,178C 211.028,175.027 210.195,175.193 209,178.5C 208.667,178.167 208.333,177.833 208,177.5C 207.506,179.134 207.34,180.801 207.5,182.5C 205.833,182.5 204.167,182.5 202.5,182.5C 202.229,180.179 202.896,178.179 204.5,176.5C 203.167,175.833 201.833,175.167 200.5,174.5C 203.237,171.024 206.07,167.691 209,164.5C 209.974,166.878 210.641,166.544 211,163.5C 213.491,169.152 216.491,174.485 220,179.5C 221.743,177.003 221.576,174.67 219.5,172.5C 220.866,169.768 222.199,167.101 223.5,164.5C 223.351,165.552 223.517,166.552 224,167.5C 225,166.167 226,166.167 227,167.5C 227.33,170.411 228.497,172.911 230.5,175C 230.35,179.785 230.35,184.618 230.5,189.5C 232.753,188.747 234.587,187.414 236,185.5C 243.23,172.469 246.063,158.469 244.5,143.5 Z"/>
  <path fill="#9c7f56" d="M 279.5,191.5 C 281.351,215.686 279.851,239.686 275,263.5C 274.276,267.427 273.109,271.094 271.5,274.5C 274.528,260.329 276.695,245.995 278,231.5C 278.169,217.994 278.669,204.66 279.5,191.5 Z"/>
  <path fill="#1d0b04" d="M 163.5,252.5 C 167.135,252.656 167.468,253.822 164.5,256C 162.833,256.667 161.167,256.667 159.5,256C 161.093,255.051 162.426,253.885 163.5,252.5 Z"/>
  <path fill="#9f7441" d="M 296.5,232.5 C 294.473,242.083 290.973,251.083 286,259.5C 286.342,242.174 286.342,224.841 286,207.5C 285.019,193.241 281.685,179.575 276,166.5C 275.346,165.304 274.846,165.304 274.5,166.5C 277.543,174.553 279.21,182.886 279.5,191.5C 278.669,204.66 278.169,217.994 278,231.5C 276.695,245.995 274.528,260.329 271.5,274.5C 270.714,283.405 267.214,291.071 261,297.5C 250.217,309.785 238.051,320.452 224.5,329.5C 225.789,325.844 227.289,321.844 229,317.5C 240.156,304.519 248.156,289.853 253,273.5C 247.5,280.333 241.333,286.5 234.5,292C 233.184,292.528 232.517,292.028 232.5,290.5C 233.166,286.514 233.499,282.347 233.5,278C 233.674,271.594 233.007,265.427 231.5,259.5C 230.826,244.822 234.326,231.156 242,218.5C 244.38,215.076 247.213,212.076 250.5,209.5C 251.251,210.376 251.751,211.376 252,212.5C 253.983,230.22 253.983,247.887 252,265.5C 260.372,246.842 265.872,227.509 268.5,207.5C 269.556,219.493 269.722,231.493 269,243.5C 271.825,234.374 273.492,225.041 274,215.5C 274.863,194.313 273.363,173.313 269.5,152.5C 270.002,151.479 270.668,151.312 271.5,152C 278.374,161.247 283.54,171.413 287,182.5C 290.501,199.239 293.667,215.906 296.5,232.5 Z"/>
  <path fill="#1f1106" d="M 150.5,256.5 C 151.5,256.5 152.5,256.5 153.5,256.5C 152.402,260.529 150.069,261.363 146.5,259C 148.066,258.392 149.4,257.558 150.5,256.5 Z"/>
  <path fill="#a57b4a" d="M 96.5,220.5 C 105.663,219.907 114.663,220.74 123.5,223C 131.608,228.515 132.608,235.182 126.5,243C 125.167,243.667 123.833,243.667 122.5,243C 119.495,241.83 116.495,240.664 113.5,239.5C 108.306,242.606 107.139,246.94 110,252.5C 110.903,253.701 112.069,254.535 113.5,255C 122.023,256.216 122.023,258.883 113.5,263C 111.559,263.743 109.726,263.576 108,262.5C 100.907,250.944 98.9071,238.611 102,225.5C 95.9168,238.417 96.0835,251.25 102.5,264C 98.6813,264.592 95.6813,263.259 93.5,260C 96.1396,253.55 94.8063,247.883 89.5,243C 86.8514,243.136 85.1848,244.636 84.5,247.5C 80.6691,245.729 79.5024,242.729 81,238.5C 83.4985,230.17 88.6651,224.17 96.5,220.5 Z"/>
  <path fill="#210a02" d="M 108.5,235.5 C 112.793,234.078 116.793,234.912 120.5,238C 116.582,237.191 112.582,236.357 108.5,235.5 Z"/>
  <path fill="#1f130c" d="M 109.5,229.5 C 116.742,229.401 122.408,232.234 126.5,238C 122.448,235.849 118.115,233.849 113.5,232C 111.5,231.667 109.5,231.333 107.5,231C 108.416,230.722 109.082,230.222 109.5,229.5 Z"/>
  <path fill="#211109" d="M 113.5,227.5 C 119.02,225.453 123.687,226.786 127.5,231.5C 127.167,231.833 126.833,232.167 126.5,232.5C 122.468,229.981 118.135,228.315 113.5,227.5 Z"/>
  <path fill="#180a03" d="M 133.5,261.5 C 135.288,261.215 136.955,261.548 138.5,262.5C 137.332,264.217 135.665,264.884 133.5,264.5C 133.5,263.5 133.5,262.5 133.5,261.5 Z"/>
  <path fill="#1c1004" d="M 88.5,268.5 C 89.4916,268.328 90.1583,268.662 90.5,269.5C 89.7838,272.012 88.7838,272.012 87.5,269.5C 87.6236,268.893 87.9569,268.56 88.5,268.5 Z"/>
  <path fill="#725c3d" d="M 231.5,259.5 C 233.007,265.427 233.674,271.594 233.5,278C 233.499,282.347 233.166,286.514 232.5,290.5C 232.638,280.146 232.305,269.812 231.5,259.5 Z"/>
  <path fill="#a47948" d="M 75.5,220.5 C 75.7509,225.507 76.0843,230.507 76.5,235.5C 75.5015,243.816 77.1681,251.483 81.5,258.5C 81.5394,259.583 81.8728,260.583 82.5,261.5C 84.8333,263.333 87.1667,265.167 89.5,267C 88.944,267.383 88.6107,267.883 88.5,268.5C 87.9569,268.56 87.6236,268.893 87.5,269.5C 88.7838,272.012 89.7838,272.012 90.5,269.5C 95.0276,269.864 99.6943,270.531 104.5,271.5C 104.739,273.467 104.406,275.301 103.5,277C 100.464,279.006 97.1309,279.84 93.5,279.5C 93.5,280.5 93.5,281.5 93.5,282.5C 88.4369,283.726 83.9369,286.059 80,289.5C 75.6795,287.846 72.6795,284.846 71,280.5C 69.3174,273.209 69.1508,265.876 70.5,258.5C 71.6532,261.152 73.4866,263.152 76,264.5C 76.3333,263.833 76.6667,263.167 77,262.5C 77.956,263.579 78.7894,264.745 79.5,266C 80.5,266.667 81.5,266.667 82.5,266C 79.9598,263.795 77.7932,261.295 76,258.5C 75.3333,259.833 74.6667,259.833 74,258.5C 73.3333,256.5 72.6667,254.5 72,252.5C 72.3193,241.629 73.486,230.963 75.5,220.5 Z"/>
  <path fill="#0c0605" d="M 143.5,271.5 C 145.288,271.215 146.955,271.548 148.5,272.5C 147.667,272.833 146.833,273.167 146,273.5C 144.624,273.316 143.791,272.649 143.5,271.5 Z"/>
  <path fill="#180500" d="M 162.5,272.5 C 160.736,275.965 158.403,276.299 155.5,273.5C 157.743,272.526 160.076,272.192 162.5,272.5 Z"/>
  <path fill="#ab8b65" d="M 81.5,258.5 C 88.1582,265.58 96.3248,269.914 106,271.5C 107.041,274.636 106.207,277.136 103.5,279C 100.106,280.075 96.7722,281.242 93.5,282.5C 93.5,281.5 93.5,280.5 93.5,279.5C 97.1309,279.84 100.464,279.006 103.5,277C 104.406,275.301 104.739,273.467 104.5,271.5C 99.6943,270.531 95.0276,269.864 90.5,269.5C 90.1583,268.662 89.4916,268.328 88.5,268.5C 88.6107,267.883 88.944,267.383 89.5,267C 87.1667,265.167 84.8333,263.333 82.5,261.5C 81.8728,260.583 81.5394,259.583 81.5,258.5 Z"/>
  <path fill="#130701" d="M 72.5,274.5 C 74.4817,274.995 76.4817,275.495 78.5,276C 79.6745,278.829 78.6745,279.829 75.5,279C 73.8588,277.871 72.8588,276.371 72.5,274.5 Z"/>
  <path fill="#160801" d="M 83.5,277.5 C 85.3635,276.207 87.3635,276.207 89.5,277.5C 87.4654,280.14 85.4654,280.14 83.5,277.5 Z"/>
  <path fill="#aa8b64" d="M 159.5,283.5 C 161.288,282.378 163.288,282.211 165.5,283C 170.118,286.322 175.285,288.488 181,289.5C 182.627,289.375 184.127,288.875 185.5,288C 187.189,285.747 189.189,283.914 191.5,282.5C 189.755,287.97 185.922,290.637 180,290.5C 173.01,288.67 166.177,286.337 159.5,283.5 Z"/>
  <path fill="#a47b4b" d="M 105.5,282.5 C 106.675,282.281 107.675,282.614 108.5,283.5C 113.061,291.209 115.061,290.876 114.5,282.5C 126.838,283.917 139.171,285.417 151.5,287C 155.575,287.624 158.908,289.457 161.5,292.5C 156.468,297.066 150.468,299.066 143.5,298.5C 134.889,298.74 126.723,297.074 119,293.5C 118.665,296.18 119.499,298.513 121.5,300.5C 111.29,301.421 101.79,299.088 93,293.5C 92.0799,290.692 92.9133,288.525 95.5,287C 99.0609,285.768 102.394,284.268 105.5,282.5 Z"/>
  <path fill="#0d0504" d="M 122.5,287.5 C 123.097,286.861 123.93,286.528 125,286.5C 132.638,287.289 139.805,289.456 146.5,293C 137.509,294.969 129.509,293.136 122.5,287.5 Z"/>
</svg>