<svg width="48" height="48" viewBox="0 0 48 48" fill-rule="evenodd" clip-rule="evenodd" xmlns="http://www.w3.org/2000/svg"><defs><linearGradient id="backgroundgrad" x1="0%" y1="0%" x2="100%" y2="0%"><stop offset="0%" stop-color="#E9897E" /><stop offset="100%" stop-color="#f8d7d3" /></linearGradient><linearGradient id="bordergrad" x1="0%" y1="0%" x2="100%" y2="0%"><stop offset="0%" stop-color="#f8d7d3" /><stop offset="100%" stop-color="#E9897E" /></linearGradient></defs><rect x="1" y="1" rx="8" ry="8" width="46" height="46" fill="url(#backgroundgrad)" stroke="url(#bordergrad)" stroke-width="2" /><svg x="5" y="5" width="38" height="38" viewBox="0 0 100 100"><svg x="-18" y="-17" width="130" height="130" viewBox="0 0 100 100"><path fill="#22242e" opacity="0.985" d="M 20.5,13.5 C 36.1702,13.3334 51.8369,13.5001 67.5,14C 68.3333,14.8333 69.1667,15.6667 70,16.5C 70.7291,19.855 71.5624,23.1883 72.5,26.5C 71.8086,29.1984 71.1419,31.865 70.5,34.5C 74.8461,34.3343 79.1794,34.501 83.5,35C 84,35.5 84.5,36 85,36.5C 85.6085,40.2138 86.4418,43.8804 87.5,47.5C 85.8187,60.7609 84.9854,74.0943 85,87.5C 84.5,88 84,88.5 83.5,89C 73.8333,89.6667 64.1667,89.6667 54.5,89C 53.6433,88.3109 52.9767,87.4776 52.5,86.5C 41.8489,85.6676 31.1822,85.1676 20.5,85C 19.6667,84.1667 18.8333,83.3333 18,82.5C 17.3333,60.5 17.3333,38.5 18,16.5C 19.045,15.6266 19.8783,14.6266 20.5,13.5 Z"/><path fill="#dfdfe0" d="M 65.5,34.5 C 65.5,30.5 65.5,26.5 65.5,22.5C 64.1667,22.5 62.8333,22.5 61.5,22.5C 48.5,22.5 35.5,22.5 22.5,22.5C 22.5,33.8333 22.5,45.1667 22.5,56.5C 22.5,59.5 22.5,62.5 22.5,65.5C 22.5,67.8333 22.5,70.1667 22.5,72.5C 32.5,72.5 42.5,72.5 52.5,72.5C 52.5,76.1667 52.5,79.8333 52.5,83.5C 42.4944,83.6665 32.4944,83.4998 22.5,83C 21.6919,82.6924 21.0253,82.1924 20.5,81.5C 19.3451,60.5432 19.1784,39.5432 20,18.5C 20.5,17.3333 21.3333,16.5 22.5,16C 36.8333,15.3333 51.1667,15.3333 65.5,16C 66.6667,16.5 67.5,17.3333 68,18.5C 68.4994,23.8229 68.666,29.1563 68.5,34.5C 67.5,34.5 66.5,34.5 65.5,34.5 Z"/><path fill="#c5ddef" d="M 61.5,22.5 C 62.8333,22.5 64.1667,22.5 65.5,22.5C 65.5,26.5 65.5,30.5 65.5,34.5C 62.4816,34.3354 59.4816,34.502 56.5,35C 55.0692,35.4652 53.9025,36.2986 53,37.5C 52.5001,48.8284 52.3335,60.1618 52.5,71.5C 42.8333,71.5 33.1667,71.5 23.5,71.5C 23.7947,69.2646 23.4614,67.2646 22.5,65.5C 22.5,62.5 22.5,59.5 22.5,56.5C 23.4946,45.6794 23.8279,34.6794 23.5,23.5C 36.3443,23.8287 49.011,23.4954 61.5,22.5 Z"/><path fill="#1f212b" d="M 61.5,22.5 C 49.011,23.4954 36.3443,23.8287 23.5,23.5C 23.8279,34.6794 23.4946,45.6794 22.5,56.5C 22.5,45.1667 22.5,33.8333 22.5,22.5C 35.5,22.5 48.5,22.5 61.5,22.5 Z"/><path fill="#faf9eb" d="M 56.5,36.5 C 64.84,36.3336 73.1733,36.5003 81.5,37C 82,37.5 82.5,38 83,38.5C 83.6667,54.1667 83.6667,69.8333 83,85.5C 82.5,86 82,86.5 81.5,87C 73.1667,87.6667 64.8333,87.6667 56.5,87C 56,86.5 55.5,86 55,85.5C 54.3333,69.8333 54.3333,54.1667 55,38.5C 55.7172,37.9558 56.2172,37.2891 56.5,36.5 Z"/><path fill="#20222d" d="M 77.5,41.5 C 71.021,42.4907 64.3543,42.824 57.5,42.5C 57.8195,47.3633 57.4861,52.03 56.5,56.5C 56.5,51.5 56.5,46.5 56.5,41.5C 63.5,41.5 70.5,41.5 77.5,41.5 Z"/><path fill="#c4dcee" d="M 77.5,41.5 C 78.8333,41.5 80.1667,41.5 81.5,41.5C 81.5,45.5 81.5,49.5 81.5,53.5C 80.5076,61.3159 80.1743,69.3159 80.5,77.5C 72.8333,77.5 65.1667,77.5 57.5,77.5C 57.8168,73.2984 57.4834,69.2984 56.5,65.5C 56.5,62.5 56.5,59.5 56.5,56.5C 57.4861,52.03 57.8195,47.3633 57.5,42.5C 64.3543,42.824 71.021,42.4907 77.5,41.5 Z"/><path fill="#2b2f39" d="M 59.5,45.5 C 61.1667,45.5 62.8333,45.5 64.5,45.5C 64.5,47.1667 64.5,48.8333 64.5,50.5C 62.8333,50.5 61.1667,50.5 59.5,50.5C 59.5,48.8333 59.5,47.1667 59.5,45.5 Z"/><path fill="#2b2e39" d="M 66.5,45.5 C 68.1667,45.5 69.8333,45.5 71.5,45.5C 71.5,47.1667 71.5,48.8333 71.5,50.5C 69.8333,50.5 68.1667,50.5 66.5,50.5C 66.5,48.8333 66.5,47.1667 66.5,45.5 Z"/><path fill="#2c2f39" d="M 73.5,45.5 C 75.1667,45.5 76.8333,45.5 78.5,45.5C 78.5,47.1667 78.5,48.8333 78.5,50.5C 76.8333,50.5 75.1667,50.5 73.5,50.5C 73.5,48.8333 73.5,47.1667 73.5,45.5 Z"/><path fill="#9ccd9e" d="M 60.5,46.5 C 61.5,46.5 62.5,46.5 63.5,46.5C 63.5,47.5 63.5,48.5 63.5,49.5C 62.5,49.5 61.5,49.5 60.5,49.5C 60.5,48.5 60.5,47.5 60.5,46.5 Z"/><path fill="#759dcc" d="M 67.5,46.5 C 68.5,46.5 69.5,46.5 70.5,46.5C 70.5,47.5 70.5,48.5 70.5,49.5C 69.5,49.5 68.5,49.5 67.5,49.5C 67.5,48.5 67.5,47.5 67.5,46.5 Z"/><path fill="#f6efa5" d="M 74.5,46.5 C 75.5,46.5 76.5,46.5 77.5,46.5C 77.5,47.5 77.5,48.5 77.5,49.5C 76.5,49.5 75.5,49.5 74.5,49.5C 74.5,48.5 74.5,47.5 74.5,46.5 Z"/><path fill="#2c2e38" d="M 59.5,52.5 C 61.1667,52.5 62.8333,52.5 64.5,52.5C 64.5,54.1667 64.5,55.8333 64.5,57.5C 62.8333,57.5 61.1667,57.5 59.5,57.5C 59.5,55.8333 59.5,54.1667 59.5,52.5 Z"/><path fill="#2c2e39" d="M 66.5,52.5 C 68.1667,52.5 69.8333,52.5 71.5,52.5C 71.5,54.1667 71.5,55.8333 71.5,57.5C 69.8333,57.5 68.1667,57.5 66.5,57.5C 66.5,55.8333 66.5,54.1667 66.5,52.5 Z"/><path fill="#292e39" d="M 73.5,52.5 C 75.1667,52.5 76.8333,52.5 78.5,52.5C 78.5,54.1667 78.5,55.8333 78.5,57.5C 76.8333,57.5 75.1667,57.5 73.5,57.5C 73.5,55.8333 73.5,54.1667 73.5,52.5 Z"/><path fill="#ef8e6f" d="M 60.5,53.5 C 61.5,53.5 62.5,53.5 63.5,53.5C 63.5,54.5 63.5,55.5 63.5,56.5C 62.5,56.5 61.5,56.5 60.5,56.5C 60.5,55.5 60.5,54.5 60.5,53.5 Z"/><path fill="#ec7b94" d="M 67.5,53.5 C 68.5,53.5 69.5,53.5 70.5,53.5C 70.5,54.5 70.5,55.5 70.5,56.5C 69.5,56.5 68.5,56.5 67.5,56.5C 67.5,55.5 67.5,54.5 67.5,53.5 Z"/><path fill="#01a798" d="M 74.5,53.5 C 75.5,53.5 76.5,53.5 77.5,53.5C 77.5,54.5 77.5,55.5 77.5,56.5C 76.5,56.5 75.5,56.5 74.5,56.5C 74.5,55.5 74.5,54.5 74.5,53.5 Z"/><path fill="#6f798a" d="M 42.5,74.5 C 46.9764,74.8003 48.3097,76.9669 46.5,81C 40.7377,81.4178 39.4044,79.2511 42.5,74.5 Z"/><path fill="#1f222c" d="M 81.5,53.5 C 81.5,61.8333 81.5,70.1667 81.5,78.5C 73.1667,78.5 64.8333,78.5 56.5,78.5C 56.5,74.1667 56.5,69.8333 56.5,65.5C 57.4834,69.2984 57.8168,73.2984 57.5,77.5C 65.1667,77.5 72.8333,77.5 80.5,77.5C 80.1743,69.3159 80.5076,61.3159 81.5,53.5 Z"/><path fill="#6a6b6c" d="M 67.5,80.5 C 71.1612,80.3501 72.1612,81.8501 70.5,85C 66.7071,85.4866 65.7071,83.9866 67.5,80.5 Z"/></svg></svg></svg>