<svg width="48" height="48" viewBox="0 0 48 48" fill-rule="evenodd" clip-rule="evenodd" xmlns="http://www.w3.org/2000/svg"><defs><linearGradient id="backgroundgrad" x1="0%" y1="0%" x2="100%" y2="0%"><stop offset="0%" stop-color="#E9897E" /><stop offset="100%" stop-color="#f8d7d3" /></linearGradient><linearGradient id="bordergrad" x1="0%" y1="0%" x2="100%" y2="0%"><stop offset="0%" stop-color="#f8d7d3" /><stop offset="100%" stop-color="#E9897E" /></linearGradient></defs><rect x="1" y="1" rx="8" ry="8" width="46" height="46" fill="url(#backgroundgrad)" stroke="url(#bordergrad)" stroke-width="2" /><svg x="5" y="5" width="38" height="38" viewBox="0 0 100 100"><svg x="-24" y="-17" width="140" height="129" viewBox="0 0 100 100" preserveAspectRatio="none"><path fill="#e3e3e4" d="M64,85H25c-3.314,0-6-2.686-6-6V21c0-3.314,2.686-6,6-6h39c3.314,0,6,2.686,6,6v58C70,82.314,67.314,85,64,85z"/><path fill="#c7dff1" d="M65.5,73h-42c-0.276,0-0.5-0.224-0.5-0.5v-49c0-0.276,0.224-0.5,0.5-0.5h42c0.276,0,0.5,0.224,0.5,0.5v49C66,72.776,65.776,73,65.5,73z"/><path fill="#1f212b" d="M48.5,20h-7.999c-0.276,0-0.5-0.224-0.5-0.5s0.224-0.5,0.5-0.5H48.5c0.276,0,0.5,0.224,0.5,0.5S48.776,20,48.5,20z"/><path fill="#8f9eb6" d="M71.5,30.5h-1v-7h1c0.552,0,1,0.448,1,1v5C72.5,30.052,72.052,30.5,71.5,30.5z"/><path fill="#1f212b" d="M71.5,31h-1c-0.276,0-0.5-0.224-0.5-0.5v-7c0-0.276,0.224-0.5,0.5-0.5h1c0.827,0,1.5,0.673,1.5,1.5v5C73,30.327,72.327,31,71.5,31z M71,30h0.5c0.275,0,0.5-0.224,0.5-0.5v-5c0-0.276-0.225-0.5-0.5-0.5H71V30z"/><path fill="#1f212b" d="M23.5,65c-0.276,0-0.5-0.224-0.5-0.5v-2c0-0.276,0.224-0.5,0.5-0.5s0.5,0.224,0.5,0.5v2C24,64.776,23.776,65,23.5,65z"/><path fill="#1f212b" d="M23.5,57c-0.276,0-0.5-0.224-0.5-0.5v-33c0-0.276,0.224-0.5,0.5-0.5h38c0.276,0,0.5,0.224,0.5,0.5S61.776,24,61.5,24H24v32.5C24,56.776,23.776,57,23.5,57z"/><path fill="#1f212b" d="M65.5,28c-0.276,0-0.5-0.224-0.5-0.5v-4c0-0.276,0.224-0.5,0.5-0.5s0.5,0.224,0.5,0.5v4C66,27.776,65.776,28,65.5,28z"/><path fill="#1f212b" d="M65.5,31c-0.276,0-0.5-0.224-0.5-0.5v-1c0-0.276,0.224-0.5,0.5-0.5s0.5,0.224,0.5,0.5v1C66,30.776,65.776,31,65.5,31z"/><path fill="#1f212b" d="M65.5,35c-0.276,0-0.5,0.224-0.5,0.5V72H24v-5.5c0-0.276-0.224-0.5-0.5-0.5S23,66.224,23,66.5v6c0,0.276,0.224,0.5,0.5,0.5h42c0.276,0,0.5-0.224,0.5-0.5v-37C66,35.224,65.776,35,65.5,35z"/><circle cx="44.5" cy="78.5" r="3" fill="#8f9eb6"/><path fill="#1f212b" d="M44.5,82c-1.93,0-3.5-1.57-3.5-3.5s1.57-3.5,3.5-3.5s3.5,1.57,3.5,3.5S46.43,82,44.5,82z M44.5,76c-1.379,0-2.5,1.122-2.5,2.5s1.121,2.5,2.5,2.5s2.5-1.122,2.5-2.5S45.879,76,44.5,76z"/><path fill="#1f212b" d="M64,14H25c-3.866,0-7,3.134-7,7v58c0,3.866,3.134,7,7,7h39c3.866,0,7-3.134,7-7V21C71,17.134,67.866,14,64,14z M69,79c0,2.761-2.239,5-5,5H25c-2.761,0-5-2.239-5-5V21c0-2.761,2.239-5,5-5h39c2.761,0,5,2.239,5,5V79z"/><path fill="#fefdef" d="M79,89H60c-3.314,0-6-2.686-6-6V42c0-3.314,2.686-6,6-6h19c3.314,0,6,2.686,6,6v41C85,86.314,82.314,89,79,89z"/><path fill="#c7dff1" d="M81.5,79h-24c-0.276,0-0.5-0.224-0.5-0.5v-36c0-0.276,0.224-0.5,0.5-0.5h24c0.276,0,0.5,0.224,0.5,0.5v36C82,78.776,81.776,79,81.5,79z"/><path fill="#1f212b" d="M71.499,40H67.5c-0.276,0-0.5-0.224-0.5-0.5s0.224-0.5,0.5-0.5h3.999c0.276,0,0.5,0.224,0.5,0.5S71.775,40,71.499,40z"/><path fill="#ceccbe" d="M86.5,51.5h-1v-7h1c0.552,0,1,0.448,1,1v5C87.5,51.052,87.052,51.5,86.5,51.5z"/><path fill="#1f212b" d="M86.5,52h-1c-0.276,0-0.5-0.224-0.5-0.5v-7c0-0.276,0.224-0.5,0.5-0.5h1c0.827,0,1.5,0.673,1.5,1.5v5C88,51.327,87.327,52,86.5,52z M86,51h0.5c0.275,0,0.5-0.224,0.5-0.5v-5c0-0.276-0.225-0.5-0.5-0.5H86V51z"/><path fill="#1f212b" d="M57.5,65c-0.276,0-0.5-0.224-0.5-0.5v-2c0-0.276,0.224-0.5,0.5-0.5s0.5,0.224,0.5,0.5v2C58,64.776,57.776,65,57.5,65z"/><path fill="#1f212b" d="M57.5,57c-0.276,0-0.5-0.224-0.5-0.5v-14c0-0.276,0.224-0.5,0.5-0.5h20c0.276,0,0.5,0.224,0.5,0.5S77.776,43,77.5,43H58v13.5C58,56.776,57.776,57,57.5,57z"/><path fill="#1f212b" d="M81.5,47c-0.276,0-0.5-0.224-0.5-0.5v-4c0-0.276,0.224-0.5,0.5-0.5s0.5,0.224,0.5,0.5v4C82,46.776,81.776,47,81.5,47z"/><path fill="#1f212b" d="M81.5,50c-0.276,0-0.5-0.224-0.5-0.5v-1c0-0.276,0.224-0.5,0.5-0.5s0.5,0.224,0.5,0.5v1C82,49.776,81.776,50,81.5,50z"/><path fill="#1f212b" d="M81.5,54c-0.276,0-0.5,0.224-0.5,0.5V78H58V66.5c0-0.276-0.224-0.5-0.5-0.5S57,66.224,57,66.5v12c0,0.276,0.224,0.5,0.5,0.5h24c0.276,0,0.5-0.224,0.5-0.5v-24C82,54.224,81.776,54,81.5,54z"/><circle cx="69.5" cy="83.5" r="2" fill="#ceccbe"/><path fill="#1f212b" d="M69.5,82c0.827,0,1.5,0.673,1.5,1.5S70.327,85,69.5,85S68,84.327,68,83.5S68.673,82,69.5,82 M69.5,81c-1.379,0-2.5,1.121-2.5,2.5s1.121,2.5,2.5,2.5s2.5-1.121,2.5-2.5S70.879,81,69.5,81L69.5,81z"/><path fill="#1f212b" d="M80,35H59c-3.314,0-6,2.686-6,6v43c0,3.314,2.686,6,6,6h21c3.314,0,6-2.686,6-6V41C86,37.686,83.314,35,80,35z M84,84c0,2.209-1.791,4-4,4H59c-2.209,0-4-1.791-4-4V41c0-2.209,1.791-4,4-4h21c2.209,0,4,1.791,4,4V84z"/><path fill="#a1d3a2" d="M63.5,50.5h-2c-0.552,0-1-0.448-1-1v-2c0-0.552,0.448-1,1-1h2c0.552,0,1,0.448,1,1v2C64.5,50.052,64.052,50.5,63.5,50.5z"/><path fill="#1f212b" d="M63.5,51h-2c-0.827,0-1.5-0.673-1.5-1.5v-2c0-0.827,0.673-1.5,1.5-1.5h2c0.827,0,1.5,0.673,1.5,1.5v2C65,50.327,64.327,51,63.5,51z M61.5,47c-0.275,0-0.5,0.224-0.5,0.5v2c0,0.276,0.225,0.5,0.5,0.5h2c0.275,0,0.5-0.224,0.5-0.5v-2c0-0.276-0.225-0.5-0.5-0.5H61.5z"/><path fill="#fef6aa" d="M77.5,50.5h-2c-0.552,0-1-0.448-1-1v-2c0-0.552,0.448-1,1-1h2c0.552,0,1,0.448,1,1v2C78.5,50.052,78.052,50.5,77.5,50.5z"/><path fill="#1f212b" d="M77.5,51h-2c-0.827,0-1.5-0.673-1.5-1.5v-2c0-0.827,0.673-1.5,1.5-1.5h2c0.827,0,1.5,0.673,1.5,1.5v2C79,50.327,78.327,51,77.5,51z M75.5,47c-0.275,0-0.5,0.224-0.5,0.5v2c0,0.276,0.225,0.5,0.5,0.5h2c0.275,0,0.5-0.224,0.5-0.5v-2c0-0.276-0.225-0.5-0.5-0.5H75.5z"/><path fill="#78a2d2" d="M70.5,50.5h-2c-0.552,0-1-0.448-1-1v-2c0-0.552,0.448-1,1-1h2c0.552,0,1,0.448,1,1v2C71.5,50.052,71.052,50.5,70.5,50.5z"/><path fill="#1f212b" d="M70.5,51h-2c-0.827,0-1.5-0.673-1.5-1.5v-2c0-0.827,0.673-1.5,1.5-1.5h2c0.827,0,1.5,0.673,1.5,1.5v2C72,50.327,71.327,51,70.5,51z M68.5,47c-0.275,0-0.5,0.224-0.5,0.5v2c0,0.276,0.225,0.5,0.5,0.5h2c0.275,0,0.5-0.224,0.5-0.5v-2c0-0.276-0.225-0.5-0.5-0.5H68.5z"/><path fill="#f69272" d="M63.5,57.5h-2c-0.552,0-1-0.448-1-1v-2c0-0.552,0.448-1,1-1h2c0.552,0,1,0.448,1,1v2C64.5,57.052,64.052,57.5,63.5,57.5z"/><path fill="#1f212b" d="M63.5,58h-2c-0.827,0-1.5-0.673-1.5-1.5v-2c0-0.827,0.673-1.5,1.5-1.5h2c0.827,0,1.5,0.673,1.5,1.5v2C65,57.327,64.327,58,63.5,58z M61.5,54c-0.275,0-0.5,0.224-0.5,0.5v2c0,0.276,0.225,0.5,0.5,0.5h2c0.275,0,0.5-0.224,0.5-0.5v-2c0-0.276-0.225-0.5-0.5-0.5H61.5z"/><path fill="#00ac9c" d="M77.5,57.5h-2c-0.552,0-1-0.448-1-1v-2c0-0.552,0.448-1,1-1h2c0.552,0,1,0.448,1,1v2C78.5,57.052,78.052,57.5,77.5,57.5z"/><path fill="#1f212b" d="M77.5,58h-2c-0.827,0-1.5-0.673-1.5-1.5v-2c0-0.827,0.673-1.5,1.5-1.5h2c0.827,0,1.5,0.673,1.5,1.5v2C79,57.327,78.327,58,77.5,58z M75.5,54c-0.275,0-0.5,0.224-0.5,0.5v2c0,0.276,0.225,0.5,0.5,0.5h2c0.275,0,0.5-0.224,0.5-0.5v-2c0-0.276-0.225-0.5-0.5-0.5H75.5z"/><path fill="#f37e98" d="M70.5,57.5h-2c-0.552,0-1-0.448-1-1v-2c0-0.552,0.448-1,1-1h2c0.552,0,1,0.448,1,1v2C71.5,57.052,71.052,57.5,70.5,57.5z"/><path fill="#1f212b" d="M70.5,58h-2c-0.827,0-1.5-0.673-1.5-1.5v-2c0-0.827,0.673-1.5,1.5-1.5h2c0.827,0,1.5,0.673,1.5,1.5v2C72,57.327,71.327,58,70.5,58z M68.5,54c-0.275,0-0.5,0.224-0.5,0.5v2c0,0.276,0.225,0.5,0.5,0.5h2c0.275,0,0.5-0.224,0.5-0.5v-2c0-0.276-0.225-0.5-0.5-0.5H68.5z"/></svg></svg></svg>