<svg width="32" height="32" viewBox="0 0 100 100" xmlns="http://www.w3.org/2000/svg"><svg x="-18" y="-18" width="136" height="136" viewBox="0 0 100 100"><polygon fill="#31c4f3" points="42,48 42,21.143 15,25 15,48"/><polygon fill="#31c4f3" points="46,48 85,48 85,15 46,20.571"/><polygon fill="#31c4f3" points="42,52 15,52 15,75 42,78.857"/><polygon fill="#31c4f3" points="46,52 46,79.429 85,85 85,52"/><path fill="#1f212b" d="M42,49H15c-0.553,0-1-0.447-1-1V25c0-0.498,0.366-0.92,0.858-0.99l27-3.857c0.287-0.043,0.578,0.045,0.797,0.234C42.874,20.577,43,20.853,43,21.143V48C43,48.553,42.553,49,42,49z M16,47h25V22.296l-25,3.571V47z"/><path fill="#1f212b" d="M85,49H46c-0.553,0-1-0.447-1-1V20.571c0-0.498,0.366-0.92,0.858-0.99l39-5.571c0.285-0.043,0.578,0.045,0.797,0.234C85.874,14.435,86,14.71,86,15v33C86,48.553,85.553,49,85,49z M47,47h37V16.153l-37,5.285V47z"/><path fill="#1f212b" d="M42,79.857c-0.047,0-0.095-0.003-0.142-0.01l-27-3.857C14.366,75.92,14,75.498,14,75V52c0-0.553,0.447-1,1-1h27c0.553,0,1,0.447,1,1v26.857c0,0.29-0.126,0.565-0.345,0.756C42.473,79.771,42.239,79.857,42,79.857z M16,74.133l25,3.571V53H16V74.133z"/><path fill="#1f212b" d="M85,86c-0.047,0-0.095-0.003-0.142-0.01l-39-5.571C45.366,80.349,45,79.927,45,79.429V52c0-0.553,0.447-1,1-1h39c0.553,0,1,0.447,1,1v33c0,0.29-0.126,0.565-0.345,0.756C85.473,85.914,85.239,86,85,86z M47,78.562l37,5.285V53H47V78.562z"/><path fill="#1f212b" d="M19.5,44c-0.276,0-0.5-0.224-0.5-0.5V30.638c0-1.236,0.923-2.3,2.146-2.475l16.283-2.326c0.269-0.037,0.526,0.15,0.565,0.425c0.039,0.273-0.151,0.526-0.425,0.565l-16.283,2.326C20.554,29.258,20,29.896,20,30.638V43.5C20,43.776,19.776,44,19.5,44z"/><path fill="#1f212b" d="M37.501,74.168c-0.023,0-0.048-0.002-0.071-0.005l-16.283-2.326C19.923,71.662,19,70.599,19,69.362V56.5c0-0.276,0.224-0.5,0.5-0.5s0.5,0.224,0.5,0.5v12.862c0,0.741,0.554,1.38,1.287,1.484l16.283,2.326c0.273,0.039,0.464,0.292,0.425,0.565C37.959,73.988,37.745,74.168,37.501,74.168z"/><path fill="#1f212b" d="M78.5,80.006c-0.117,0-0.235-0.009-0.354-0.025l-27.717-3.96c-0.273-0.039-0.464-0.292-0.425-0.565c0.039-0.274,0.297-0.46,0.565-0.425l27.717,3.96c0.435,0.058,0.866-0.067,1.196-0.352C79.812,78.354,80,77.94,80,77.506V56.5c0-0.276,0.224-0.5,0.5-0.5s0.5,0.224,0.5,0.5v21.006c0,0.725-0.314,1.413-0.861,1.888C79.681,79.791,79.098,80.006,78.5,80.006z"/><path fill="#1f212b" d="M80.5,44c-0.276,0-0.5-0.224-0.5-0.5v-11c0-0.276,0.224-0.5,0.5-0.5s0.5,0.224,0.5,0.5v11C81,43.776,80.776,44,80.5,44z"/><path fill="#1f212b" d="M50.499,24.975c-0.244,0-0.458-0.18-0.494-0.43c-0.039-0.273,0.151-0.526,0.425-0.565l10-1.429c0.269-0.034,0.525,0.151,0.565,0.425c0.039,0.273-0.151,0.526-0.425,0.565l-10,1.429C50.547,24.973,50.522,24.975,50.499,24.975z"/><path fill="#1f212b" d="M63.499,23.117c-0.244,0-0.458-0.18-0.494-0.43c-0.039-0.273,0.151-0.526,0.425-0.565l4-0.571c0.265-0.032,0.525,0.15,0.565,0.425c0.039,0.273-0.151,0.526-0.425,0.565l-4,0.571C63.547,23.115,63.522,23.117,63.499,23.117z"/><path fill="#1f212b" d="M69.499,22.26c-0.244,0-0.458-0.18-0.494-0.43c-0.039-0.273,0.151-0.526,0.425-0.565l1-0.143c0.27-0.032,0.525,0.15,0.565,0.425c0.039,0.273-0.151,0.526-0.425,0.565l-1,0.143C69.547,22.258,69.522,22.26,69.499,22.26z"/></svg></svg>